<?xml version="1.0" encoding="UTF-8"?>
<svg id="Layer_1" xmlns="http://www.w3.org/2000/svg" version="1.1" viewBox="0 0 63.07 123">
  <!-- Generator: Adobe Illustrator 29.8.2, SVG Export Plug-In . SVG Version: 2.1.1 Build 3)  -->
  <defs>
    <style>
      .st0 {
        fill: #5fbb3a;
      }
    </style>
  </defs>
  <circle class="st0" cx="32.29" cy="10.51" r="10.76"/>
  <path class="st0" d="M57.87,58.91c-2.04-1.36-4.23-1.27-5.6-1-.11-2.31-1.71-4.37-4.07-4.96l-9.76-2.44v11.09l7.15,1.79c.44.11.88.16,1.31.16,1.77,0,3.43-.89,4.42-2.33.25.03.52.01.77-.09.02,0,2.27-.89,4.1.35,1.97,1.33,3.01,4.71,3.01,9.76v49.97c0,.85.69,1.54,1.54,1.54s1.54-.69,1.54-1.54v-49.97c0-6.24-1.48-10.38-4.4-12.33Z"/>
  <path class="st0" d="M36.13,73.31V31.04c0-.06,0-.12-.02-.18.02-.29.02-.58,0-.88-.29-2.96-2.92-5.12-5.87-4.84-8.41.81-19.66,5.68-25.47,24.21-3.19,10.18-3.22,19.94-3.22,20.35,0,2.97,2.4,5.37,5.37,5.38h0c2.97,0,5.37-2.4,5.38-5.37,0-.21.13-13.75,5.38-23.66v17.57c0,.07.01.13.02.19-.15,1.54.37,3.13,1.55,4.31,14.65,14.65,19.93,49.54,20,50.01.39,2.68,2.69,4.61,5.32,4.61.26,0,.52-.02.78-.06,2.94-.43,4.98-3.16,4.55-6.1-.18-1.25-3.74-24.93-13.78-43.27Z"/>
  <path class="st0" d="M17.58,69.7c-.95,32.39-13.7,43.73-14.02,44.01-2.28,1.86-2.64,5.22-.8,7.52,1.06,1.33,2.63,2.02,4.21,2.02,1.18,0,2.36-.38,3.35-1.17.61-.49,12.74-10.52,16.78-37.73-2.57-5.62-5.7-10.83-9.47-14.6-.02-.02-.03-.04-.05-.06Z"/>
</svg>