<?xml version="1.0" encoding="UTF-8"?>
<svg id="Layer_1" xmlns="http://www.w3.org/2000/svg" version="1.1" viewBox="0 0 58 123">
  <!-- Generator: Adobe Illustrator 29.8.2, SVG Export Plug-In . SVG Version: 2.1.1 Build 3)  -->
  <defs>
    <style>
      .st0 {
        fill: #ff6219;
      }
    </style>
  </defs>
  <path class="st0" d="M35.5,25.54h-13C10.1,25.54,0,35.63,0,48.04v23.12c0,2.99,2.42,5.41,5.41,5.41s5.41-2.42,5.41-5.41v-23.12c0-3.62,1.65-6.86,4.25-9v78.3c0,2.96,2.28,5.55,5.25,5.64,3.06.09,5.58-2.37,5.58-5.41v-41.76c0-1.71,1.38-3.09,3.09-3.09s3.09,1.38,3.09,3.09v41.54c0,2.96,2.28,5.55,5.25,5.64,3.06.09,5.58-2.37,5.58-5.41V39.03c2.6,2.14,4.25,5.38,4.25,9v21.58c0,2.99,2.42,5.41,5.41,5.41s5.41-2.42,5.41-5.41v-21.58c0-12.4-10.09-22.5-22.5-22.5h0Z"/>
  <circle class="st0" cx="29.01" cy="10.85" r="10.83"/>
</svg>