<?xml version="1.0" encoding="UTF-8"?>
<svg id="Layer_1" xmlns="http://www.w3.org/2000/svg" version="1.1" viewBox="0 0 78 100">
  <!-- Generator: Adobe Illustrator 29.8.2, SVG Export Plug-In . SVG Version: 2.1.1 Build 3)  -->
  <defs>
    <style>
      .st0 {
        fill: #e8bbbb;
      }
    </style>
  </defs>
  <circle class="st0" cx="24.66" cy="10.47" r="9.56"/>
  <path class="st0" d="M75.91,83.19l-14.67-27.62h-26.96l-.89-6.11h21.84c2.64,0,4.78-2.14,4.78-4.78s-2.14-4.78-4.78-4.78h-23.24l-1.81-12.37c-.38-2.61-2.81-4.42-5.42-4.04-2.61.38-4.42,2.81-4.04,5.42l5.3,36.22h29.47l11.97,22.54c.86,1.62,2.51,2.54,4.23,2.54.76,0,1.52-.18,2.24-.56,2.33-1.24,3.22-4.13,1.98-6.46Z"/>
  <path class="st0" d="M54.68,71.94c-.76-.04-1.4.54-1.44,1.29-.46,8.83-5.66,16.75-13.56,20.67-12.09,6.01-26.83,1.07-32.84-11.02-6.01-12.09-1.07-26.83,11.02-32.84.68-.34.95-1.16.61-1.83-.34-.67-1.15-.95-1.83-.61-13.43,6.69-18.93,23.06-12.25,36.51,4.76,9.55,14.41,15.09,24.43,15.09,4.07,0,8.2-.91,12.08-2.84,8.78-4.36,14.56-13.17,15.07-22.97.04-.75-.54-1.4-1.29-1.44Z"/>
</svg>