<?xml version="1.0" encoding="UTF-8"?>
<svg id="Layer_1" xmlns="http://www.w3.org/2000/svg" xmlns:xlink="http://www.w3.org/1999/xlink" version="1.1" viewBox="0 0 705.9 511.58">
  <!-- Generator: Adobe Illustrator 29.8.2, SVG Export Plug-In . SVG Version: 2.1.1 Build 3)  -->
  <defs>
    <style>
      .st0 {
        fill: none;
      }

      .st1 {
        fill: #0c0907;
      }

      .st2 {
        fill: #6d4524;
      }

      .st3 {
        fill: #d99b44;
      }

      .st4 {
        fill: #271911;
      }

      .st5 {
        fill: #a56d3f;
      }

      .st6 {
        fill: #ffeabe;
      }

      .st7 {
        fill: #c3712e;
      }

      .st8 {
        fill: #959049;
      }

      .st9 {
        fill: #dac796;
      }

      .st10 {
        fill: #c8b2af;
      }

      .st11 {
        fill: #b26e2a;
      }

      .st12 {
        fill: #a06e4b;
      }

      .st13 {
        fill: #8ca794;
      }

      .st14 {
        fill: #c7e5da;
      }

      .st15 {
        clip-path: url(#clippath-1);
      }

      .st16 {
        clip-path: url(#clippath-2);
      }

      .st17 {
        clip-path: url(#clippath-5);
      }

      .st18 {
        fill: #fff;
      }

      .st19 {
        fill: #a8b094;
      }

      .st20 {
        stroke: #0c0907;
        stroke-miterlimit: 10;
      }

      .st20, .st21 {
        fill: #b26c2a;
      }

      .st22 {
        fill: #af6e2b;
      }

      .st23 {
        fill: #b77f55;
      }

      .st24 {
        fill: #8b9a9f;
      }

      .st25 {
        fill: #f8e1af;
      }

      .st26 {
        fill: #e7ae4f;
      }

      .st27 {
        fill: #2a2520;
      }

      .st28 {
        fill: #ebc686;
      }

      .st29 {
        fill: #e29f3e;
      }

      .st30 {
        fill: #93845a;
      }

      .st31 {
        fill: #cdd6b0;
      }

      .st32 {
        fill: #dc6643;
      }

      .st33 {
        fill: #d9b272;
      }

      .st34 {
        clip-path: url(#clippath);
      }

      .st35 {
        fill: #cd8e38;
      }
    </style>
    <clipPath id="clippath">
      <path class="st0" d="M118.07,485.24h523.43s103.51-282.3-3.53-364.63c-107.04-82.34-189.37-23.52-189.37-23.52,0,0,14.6-9.26-6.58-31.61s-54.11,10.59-54.11,10.59c0,0-121.77-92.95-249.98,16.44C9.72,201.89,43.91,397.32,118.07,485.24Z"/>
    </clipPath>
    <clipPath id="clippath-1">
      <polygon class="st0" points="359.24 318.53 358.68 161.42 451.59 91.03 554.64 150.16 715.44 158.04 715.44 324.16 579.98 320.22 556.33 326.41 359.24 318.53"/>
    </clipPath>
    <clipPath id="clippath-2">
      <path class="st0" d="M236.2,230.47h-17.18l-26.47,82.22.84,6.34,4.79,26.89s-10.7,21.96-18.58,52.93c-7.88,30.97-29.85,154.29-29.85,154.29,0,0,61.38,19.71,131.21,19.71s120.51-23.09,120.51-23.09c0,0-47.3-196.53-58-211.17-10.7-14.64-29.28-108.12-29.28-108.12h-77.99Z"/>
    </clipPath>
    <clipPath id="clippath-5">
      <path class="st0" d="M302.06,253.51c-5.93.42-10.63-2.26-12.77,3.1-2.13,5.36,1.26,9.77,6.63,9.07,5.37-.7,16.46,8.78,21.03.62s-8.96-13.2-14.89-12.79Z"/>
    </clipPath>
  </defs>
  <g class="st34">
    <rect class="st6" x="28.13" y="19.3" width="667.3" height="271.14"/>
    <g>
      <polygon class="st30" points="398.6 583.71 -64.29 520.08 12.36 344.22 678.53 391.52 648.82 485.24 398.6 583.71"/>
      <path class="st1" d="M398.66,584.22l-.13-.02-463.54-63.72.26-.61L12.04,343.69l.35.02,666.8,47.35-.19.61-29.78,93.95-.22.09-250.34,98.51ZM-63.56,519.67l462.1,63.53,249.88-98.33,29.45-92.89L12.68,344.74l-76.24,174.93Z"/>
    </g>
    <g>
      <polygon class="st19" points="657.69 433.75 574.35 426.43 564.22 433.19 656.57 441.07 657.69 433.75"/>
      <path class="st1" d="M656.99,441.61l-.47-.04-93.77-8,11.47-7.65.17.02,83.87,7.37-1.28,8.31ZM565.68,432.81l90.46,7.72.97-6.33-82.64-7.26-8.8,5.87Z"/>
    </g>
    <g>
      <polygon class="st19" points="526.49 422.49 515.22 428.69 416.12 418.55 426.82 412.35 526.49 422.49"/>
      <path class="st1" d="M515.33,429.2l-.16-.02-100.64-10.29,12.17-7.05.16.02,101.27,10.3-12.8,7.04ZM417.7,418.21l97.42,9.96,9.72-5.35-97.92-9.96-9.22,5.34Z"/>
    </g>
    <g>
      <polygon class="st19" points="380.64 407.85 369.38 414.04 275.34 406.16 286.04 399.97 380.64 407.85"/>
      <path class="st1" d="M369.49,414.55h-.15s-95.63-8.03-95.63-8.03l12.21-7.07h.16s96.26,8.04,96.26,8.04l-12.85,7.07ZM276.96,405.79l92.3,7.74,9.68-5.32-92.8-7.73-9.19,5.32Z"/>
    </g>
    <g>
      <polygon class="st19" points="248.31 396.59 237.04 402.78 150.32 395.46 161.02 389.27 248.31 396.59"/>
      <path class="st1" d="M237.15,403.29l-88.46-7.47,12.21-7.07h.16s88.93,7.47,88.93,7.47l-12.85,7.06ZM151.95,395.1l84.98,7.17,9.68-5.32-85.48-7.17-9.19,5.32Z"/>
    </g>
    <g>
      <polygon class="st19" points="128.93 385.33 117.66 391.52 30.94 384.2 41.64 378 128.93 385.33"/>
      <path class="st1" d="M117.77,392.03l-88.46-7.47,12.21-7.07h.16s88.93,7.47,88.93,7.47l-12.85,7.06ZM32.57,383.83l84.98,7.17,9.68-5.32-85.48-7.17-9.19,5.32Z"/>
    </g>
    <g>
      <g>
        <path class="st8" d="M50.93,223.99c-1.13,9.29,11.54,27.87,33.51,14.64,0,0,21.68,11.54,30.97-7.04,0,0,19.9,8.59,27.87-12.67,5.91-15.77-6.19-19.15-6.19-19.15,0,0,11.54-14.36,2.53-28.44-9.01-14.08-21.12-7.6-21.12-7.6,0,0-.84-32.38-26.19-31.53s-26.75,25.06-26.75,25.06c0,0-16.61-3.38-23.65,10.42-7.04,13.8,3.38,19.99,3.38,19.99,0,0-17.18,5.35-14.92,22.52,2.25,17.18,16.89,16.61,20.55,13.8Z"/>
        <path class="st1" d="M69.86,243.71c-3.74,0-7.23-1-10.33-3.01-6.04-3.91-9.26-10.84-9.16-15.78-2.48,1.25-6.92,1.59-10.85-.04-3.72-1.54-8.42-5.33-9.64-14.63-1.98-15.07,10.8-21.3,14.37-22.73-2.35-1.87-8.75-8.36-2.77-20.07,6.4-12.55,20.68-11.2,23.65-10.77.42-3.65,3.83-24.2,27.18-24.98,6.56-.23,12.1,1.75,16.46,5.85,8.65,8.15,10.01,22.03,10.21,25.43,2.77-1.13,13.17-4.26,21.07,8.09,8.09,12.64-.15,25.64-2.15,28.46,1.35.54,4.41,2.08,6.2,5.59,1.87,3.69,1.76,8.39-.34,13.98-2.47,6.57-6.31,11.01-11.43,13.19-7.3,3.1-14.79.65-16.67-.06-2.53,4.85-6.15,8.05-10.76,9.52-8.98,2.87-18.71-1.68-20.43-2.55-5.05,3-10.01,4.51-14.6,4.51ZM51.57,222.87l-.14,1.18c-.56,4.66,2.51,11.85,8.64,15.81,4.7,3.04,12.69,5.22,24.11-1.66l.24-.15.25.13c.11.06,10.64,5.57,19.92,2.6,4.47-1.43,7.96-4.6,10.37-9.43l.21-.42.43.19c.08.04,8.48,3.57,16.33.23,4.85-2.07,8.51-6.31,10.88-12.62,1.99-5.31,2.12-9.74.39-13.16-2.08-4.11-6.21-5.32-6.25-5.33l-.73-.21.47-.59c.11-.14,11.21-14.25,2.5-27.85-8.65-13.51-19.98-7.68-20.46-7.43l-.71.38-.02-.81c0-.17-.55-16.63-9.94-25.47-4.15-3.91-9.45-5.78-15.73-5.58-10.32.34-17.88,4.58-22.46,12.59-3.42,5.99-3.8,11.93-3.81,11.99l-.03.58-.57-.11c-.16-.03-16.33-3.14-23.11,10.15-6.73,13.2,2.78,19.09,3.19,19.33l.96.57-1.06.33c-.68.21-16.75,5.43-14.58,21.98,1.16,8.83,5.55,12.39,9.03,13.83,4.55,1.88,9.09.89,10.73-.37l.94-.73Z"/>
      </g>
      <g>
        <g>
          <path class="st11" d="M80.5,281.71s3.38-33.79-3.94-63.07l5.63-.56,6.19,19.15,5.63-21.96,6.19-.56s-8.45,60.25-6.76,70.39c1.69,10.14-12.95-3.38-12.95-3.38Z"/>
          <path class="st1" d="M91.86,289.35c-3.71,0-10.82-6.46-11.7-7.27l-.18-.17.02-.25c.03-.34,3.29-34.04-3.93-62.9l-.14-.56,6.61-.66,5.79,17.89,5.29-20.63,7.17-.65-.09.62c-.08.6-8.42,60.29-6.76,70.24.37,2.19.04,3.53-1.01,4.09-.31.17-.67.24-1.08.24ZM81.02,281.51c3.51,3.2,9.56,7.73,11.44,6.71.76-.41.69-1.89.5-3.05-1.61-9.66,5.73-63.14,6.67-69.92l-5.22.47-5.97,23.29-6.6-20.4-4.66.47c6.75,27.58,4.12,59.29,3.84,62.43Z"/>
        </g>
        <g>
          <path class="st8" d="M68.39,212.45c-1.41,8.45,18.3,18.02,25.9,5.07"/>
          <path class="st1" d="M83.22,224.36c-2.11,0-4.2-.42-6.09-1.11-5.94-2.15-9.91-6.83-9.24-10.88l.99.16c-.6,3.58,3.1,7.79,8.59,9.78,5.35,1.94,12.47,1.63,16.39-5.05l.86.51c-2.84,4.84-7.21,6.59-11.51,6.59Z"/>
        </g>
        <g>
          <path class="st8" d="M88.38,213.57s6.19,11.26,15.77-1.13"/>
          <path class="st1" d="M95.36,218.76c-.17,0-.35,0-.52-.02-4.33-.34-6.8-4.74-6.9-4.93l.88-.48s2.32,4.12,6.11,4.41c2.81.21,5.79-1.67,8.83-5.6l.79.61c-3.08,3.99-6.17,6.01-9.18,6.01Z"/>
        </g>
      </g>
    </g>
    <g>
      <polygon class="st8" points="7.01 281.99 341.5 275.24 699.36 286.22 691.76 362.24 -5.66 319.16 7.01 281.99"/>
      <path class="st1" d="M692.21,362.77l-.48-.03L-6.35,319.62l12.99-38.12h.35s334.49-6.76,334.49-6.76l358.42,11-.05.53-7.65,76.5ZM-4.98,318.7l696.29,43.01,7.5-75.01-357.33-10.96-334.12,6.75-12.35,36.21Z"/>
    </g>
    <g>
      <polygon class="st28" points="5.6 317.19 333.34 336.9 433.57 309.87 559.15 314.94 467.36 343.09 708.94 354.92 698.8 394.33 12.36 344.22 5.6 317.19"/>
      <path class="st1" d="M699.18,394.86l-.42-.03L11.96,344.69l-7.01-28.04.68.04,327.65,19.7,100.23-27.03h.08s128.5,5.19,128.5,5.19l-91.86,28.18,239.34,11.72-10.39,40.42ZM12.76,343.75l685.67,50.06,9.88-38.42-243.82-11.94,91.72-28.13-122.57-4.95-100.24,27.03L6.25,317.73l6.5,26.02Z"/>
    </g>
    <rect class="st1" x="163.79" y="340.34" width="78.94" height="1" transform="translate(-76.46 59.34) rotate(-14.01)"/>
    <rect class="st1" x="17.7" y="328.51" width="58.59" height="1" transform="translate(-98.96 30.42) rotate(-17.92)"/>
    <rect class="st1" x="538.61" y="364.55" width="81.07" height="1" transform="translate(-90.79 224.14) rotate(-20.35)"/>
    <g>
      <polygon class="st33" points="669.52 397.71 7.29 349.85 5.6 337.46 678.53 385.89 669.52 397.71"/>
      <path class="st1" d="M669.75,398.23l-.27-.02L6.85,350.32l-1.83-13.4.61.04,673.85,48.5-9.73,12.78ZM7.73,349.38l661.55,47.82,8.29-10.87L6.18,338l1.55,11.38Z"/>
    </g>
    <rect class="st1" x="38.13" y="435.51" width="37.44" height="1" transform="translate(-153.81 50.06) rotate(-21.2)"/>
    <g>
      <g>
        <rect class="st3" x="283.22" y="203.69" width="78.27" height="87.59"/>
        <path class="st1" d="M361.99,291.78h-79.27v-88.59h79.27v88.59ZM283.72,290.78h77.27v-86.59h-77.27v86.59Z"/>
      </g>
      <g>
        <rect class="st11" x="275.52" y="190.22" width="89.92" height="16.97" rx="4.2" ry="4.2"/>
        <path class="st1" d="M361.24,207.69h-81.51c-2.59,0-4.7-2.11-4.7-4.7v-8.57c0-2.59,2.11-4.7,4.7-4.7h81.51c2.59,0,4.7,2.11,4.7,4.7v8.57c0,2.59-2.11,4.7-4.7,4.7ZM279.72,190.72c-2.04,0-3.7,1.66-3.7,3.7v8.57c0,2.04,1.66,3.7,3.7,3.7h81.51c2.04,0,3.7-1.66,3.7-3.7v-8.57c0-2.04-1.66-3.7-3.7-3.7h-81.51Z"/>
      </g>
      <g>
        <rect class="st11" x="283.22" y="291.28" width="78.27" height="25.9"/>
        <path class="st1" d="M361.99,317.69h-79.27v-26.9h79.27v26.9ZM283.72,316.69h77.27v-24.9h-77.27v24.9Z"/>
      </g>
      <g>
        <g>
          <rect class="st13" x="298.99" y="216.95" width="25.08" height="54.06"/>
          <path class="st1" d="M324.57,271.51h-26.08v-55.06h26.08v55.06ZM299.49,270.51h24.08v-53.06h-24.08v53.06Z"/>
        </g>
        <g>
          <rect class="st13" x="324.58" y="216.95" width="25.08" height="54.06"/>
          <path class="st1" d="M350.17,271.51h-26.08v-55.06h26.08v55.06ZM325.08,270.51h24.08v-53.06h-24.08v53.06Z"/>
        </g>
      </g>
      <g>
        <rect class="st26" x="296.29" y="267.07" width="56.07" height="8.45"/>
        <path class="st1" d="M352.86,276.02h-57.07v-9.45h57.07v9.45ZM296.79,275.02h55.07v-7.45h-55.07v7.45Z"/>
      </g>
      <g>
        <rect class="st7" x="296.29" y="214.89" width="56.07" height="8.45"/>
        <path class="st1" d="M352.86,223.83h-57.07v-9.45h57.07v9.45ZM296.79,222.83h55.07v-7.45h-55.07v7.45Z"/>
      </g>
    </g>
    <g class="st15">
      <polygon class="st35" points="554.08 132.14 554.08 331.48 734.59 324.72 728.96 138.89 554.08 132.14"/>
      <g>
        <g>
          <rect class="st13" x="606.13" y="208.51" width="46.09" height="54.06"/>
          <path class="st1" d="M652.72,263.06h-47.09v-55.06h47.09v55.06ZM606.63,262.06h45.09v-53.06h-45.09v53.06Z"/>
        </g>
        <g>
          <rect class="st13" x="653.16" y="208.51" width="46.09" height="54.06"/>
          <path class="st1" d="M699.75,263.06h-47.09v-55.06h47.09v55.06ZM653.66,262.06h45.09v-53.06h-45.09v53.06Z"/>
        </g>
      </g>
      <g>
        <rect class="st26" x="601.63" y="258.62" width="102.13" height="8.45"/>
        <path class="st1" d="M704.25,267.57h-103.13v-9.45h103.13v9.45ZM602.13,266.57h101.13v-7.45h-101.13v7.45Z"/>
      </g>
      <g>
        <rect class="st7" x="601.63" y="202.32" width="102.13" height="8.45"/>
        <path class="st1" d="M704.25,211.27h-103.13v-9.45h103.13v9.45ZM602.13,210.27h101.13v-7.45h-101.13v7.45Z"/>
      </g>
      <polygon class="st3" points="556.33 143.4 556.33 326.41 426.82 335.42 342.91 324.72 341.78 155.79 440.89 70.76 556.33 143.4"/>
      <g>
        <polygon class="st21" points="715.44 296.85 578.29 294.31 555.21 298.26 513.54 295.44 513.54 325.29 556.33 326.41 579.98 320.22 715.44 324.16 715.44 296.85"/>
        <path class="st1" d="M556.39,326.91h-.07s-43.29-1.14-43.29-1.14v-30.87l42.15,2.85,23.03-3.93,137.73,2.54v28.32h-.51s-135.39-3.96-135.39-3.96l-23.65,6.19ZM514.04,324.8l42.24,1.11,23.65-6.19h.07s134.94,3.93,134.94,3.93v-26.31l-136.66-2.53-23.05,3.95h-.06s-41.14-2.78-41.14-2.78v28.82Z"/>
      </g>
      <g>
        <g>
          <polygon class="st26" points="516.35 325.29 517.48 205.34 394.72 205.34 395.28 320.78 516.35 325.29"/>
          <path class="st1" d="M516.85,325.8l-.51-.02-121.55-4.52v-.48s-.57-115.94-.57-115.94h123.77l-1.14,120.96ZM395.78,320.3l120.08,4.47,1.12-118.93h-121.75l.56,114.46Z"/>
        </g>
        <g>
          <rect class="st26" x="466.44" y="216.6" width="37.52" height="95.73"/>
          <path class="st1" d="M504.46,312.83h-38.52v-96.73h38.52v96.73ZM466.94,311.83h36.52v-94.73h-36.52v94.73Z"/>
        </g>
        <g>
          <rect class="st26" x="405.06" y="217.65" width="37.52" height="94.12"/>
          <path class="st1" d="M443.08,312.27h-38.52v-95.12h38.52v95.12ZM405.56,311.27h36.52v-93.12h-36.52v93.12Z"/>
        </g>
        <g>
          <circle class="st26" cx="463.7" cy="270.38" r="6.48"/>
          <path class="st1" d="M463.7,277.36c-3.85,0-6.98-3.13-6.98-6.98s3.13-6.98,6.98-6.98,6.98,3.13,6.98,6.98-3.13,6.98-6.98,6.98ZM463.7,264.41c-3.29,0-5.98,2.68-5.98,5.98s2.68,5.98,5.98,5.98,5.98-2.68,5.98-5.98-2.68-5.98-5.98-5.98Z"/>
        </g>
        <g>
          <circle class="st26" cx="444.27" cy="270.38" r="6.48"/>
          <path class="st1" d="M444.27,277.36c-3.85,0-6.98-3.13-6.98-6.98s3.13-6.98,6.98-6.98,6.98,3.13,6.98,6.98-3.13,6.98-6.98,6.98ZM444.27,264.41c-3.29,0-5.98,2.68-5.98,5.98s2.68,5.98,5.98,5.98,5.98-2.68,5.98-5.98-2.68-5.98-5.98-5.98Z"/>
        </g>
        <g>
          <line class="st26" x1="452.72" y1="205.34" x2="453.84" y2="321.34"/>
          <rect class="st1" x="452.78" y="205.34" width="1" height="116.01" transform="translate(-2.53 4.41) rotate(-.56)"/>
        </g>
        <g>
          <polygon class="st22" points="381.2 191.26 381.2 204.78 527.61 204.78 527.61 193.52 381.2 191.26"/>
          <path class="st1" d="M528.11,205.28h-147.41v-14.52l147.41,2.27v12.25ZM381.7,204.28h145.41v-10.27l-145.41-2.24v12.51Z"/>
        </g>
      </g>
      <path class="st1" d="M556.39,326.92h-.07s-197.57-7.91-197.57-7.91v-.48s-.57-157.36-.57-157.36l.2-.15,93.18-70.59.29.16,102.95,59.07,161.15,7.9v167.11h-.51s-135.39-3.96-135.39-3.96l-23.65,6.2ZM359.74,318.05l196.54,7.86,23.65-6.19h.07s134.94,3.93,134.94,3.93v-165.13l-160.44-7.87-.1-.06-102.76-58.96-92.45,70.04.56,156.38Z"/>
      <g>
        <line class="st21" x1="556.33" y1="149.03" x2="556.33" y2="325.29"/>
        <rect class="st1" x="555.83" y="149.03" width="1" height="176.26"/>
      </g>
      <g>
        <line class="st21" x1="578.29" y1="143.4" x2="578.29" y2="319.65"/>
        <rect class="st1" x="577.79" y="143.4" width="1" height="176.26"/>
      </g>
    </g>
    <path class="st1" d="M556.39,326.92h-.07s-197.57-7.91-197.57-7.91v-.48s-.57-157.36-.57-157.36l.2-.15,93.18-70.59.29.16,102.95,59.07,161.15,7.9v167.11h-.51s-135.39-3.96-135.39-3.96l-23.65,6.2ZM359.74,318.05l196.54,7.86,23.65-6.19h.07s134.94,3.93,134.94,3.93v-165.13l-160.44-7.87-.1-.06-102.76-58.96-92.45,70.04.56,156.38Z"/>
    <g>
      <polygon class="st7" points="692.04 157.82 563.65 156.14 447.09 74.48 687 67 692.04 157.82"/>
      <path class="st1" d="M692.57,158.33h-.54s-128.54-1.7-128.54-1.7l-.13-.09-117.8-82.52,241.9-7.55.03.49,5.07,91.36ZM563.81,155.64l127.7,1.68-4.99-89.8-237.92,7.42,115.21,80.7Z"/>
    </g>
    <g>
      <polygon class="st21" points="447.09 72.79 341.78 155.01 342.35 166.83 348.54 166.83 449.9 91.38 565.91 162.89 565.91 149.38 447.09 72.79"/>
      <path class="st1" d="M348.71,167.33h-6.84l-.6-12.56.2-.16,105.58-82.43.3.19,119.05,76.73v14.68l-.76-.47-115.71-71.34-101.22,75.35ZM342.82,166.33h5.55l101.5-75.56.29.18,115.24,71.05v-12.35l-118.29-76.24-104.82,81.84.53,11.09Z"/>
    </g>
    <g>
      <polygon class="st21" points="565.91 162.89 683.6 167.12 675.71 152.48 565.91 149.38 565.91 162.89"/>
      <path class="st1" d="M684.45,167.65l-119.05-4.27v-14.51h.51s110.1,3.12,110.1,3.12l8.43,15.66ZM566.41,162.41l116.34,4.17-7.33-13.62-109.01-3.07v12.52Z"/>
    </g>
    <path class="st20" d="M348.54,166.83"/>
    <g>
      <polygon class="st21" points="449.9 91.38 449.9 95.26 565.91 162.89 449.9 91.38"/>
      <path class="st1" d="M565.65,163.33l-116.25-67.78v-5.07l.76.47,116,71.52-.51.86ZM450.4,94.97l80.67,47.03-80.67-49.73v2.7Z"/>
    </g>
    <g>
      <polygon class="st21" points="348.54 166.83 358.68 166.15 450.97 95.44 449.9 91.38 348.54 166.83"/>
      <path class="st1" d="M346.88,167.45l103.32-76.92,1.34,5.11-.26.2-92.41,70.79-11.98.81ZM449.61,92.22l-99.4,74,8.29-.56,91.91-70.41-.79-3.03Z"/>
    </g>
    <g>
      <g>
        <rect class="st25" x="389.93" y="144.96" width="125.01" height="41.11"/>
        <path class="st1" d="M515.44,186.57h-126.01v-42.11h126.01v42.11ZM390.43,185.57h124.01v-40.11h-124.01v40.11Z"/>
      </g>
      <g>
        <path d="M417.04,158.41c.3.16.48.4.54.72.05.32-.03.63-.24.91-.16.21-.37.33-.62.36s-.5-.02-.75-.15c-.59-.36-1.22-.64-1.9-.84-.68-.21-1.39-.31-2.14-.31-1.05,0-2.02.18-2.89.54-.88.36-1.64.87-2.28,1.54-.64.67-1.14,1.46-1.5,2.37-.36.91-.54,1.91-.54,3,0,1.18.19,2.23.56,3.16.38.93.89,1.72,1.54,2.37.65.65,1.41,1.15,2.28,1.49.87.34,1.81.51,2.83.51.73,0,1.44-.1,2.12-.29.68-.2,1.31-.48,1.9-.86.25-.12.5-.17.76-.13.26.04.47.16.63.38.23.29.32.59.25.9-.06.31-.24.55-.52.71-.45.27-.96.51-1.53.72-.57.21-1.17.38-1.78.51-.62.12-1.23.19-1.84.19-1.29,0-2.5-.22-3.65-.67-1.14-.45-2.16-1.09-3.04-1.92s-1.58-1.84-2.08-3.03c-.5-1.19-.75-2.53-.75-4.03,0-1.38.24-2.65.72-3.82.48-1.17,1.15-2.19,2.01-3.04s1.86-1.52,3.02-2c1.15-.47,2.41-.71,3.77-.71.93,0,1.83.12,2.71.36s1.68.59,2.41,1.06Z"/>
        <path d="M422.05,175.94c-.34,0-.63-.11-.88-.32-.25-.21-.38-.47-.38-.78v-16.57c0-.3.11-.56.32-.78.21-.21.47-.32.78-.32h7.4c1,0,1.9.23,2.71.68.8.46,1.44,1.09,1.92,1.89.47.8.71,1.72.71,2.73,0,.75-.14,1.45-.43,2.1-.29.65-.68,1.22-1.18,1.7-.5.48-1.07.84-1.72,1.07l-.59-.4c.61.13,1.15.37,1.63.74.48.37.88.83,1.18,1.39.3.56.46,1.22.48,1.97.04.66.08,1.19.13,1.58.05.39.13.7.24.92.11.22.26.4.46.52.25.16.42.38.5.64.08.27.03.53-.15.78-.11.18-.26.3-.46.36-.2.06-.39.08-.59.05-.2-.03-.38-.08-.54-.17-.27-.16-.54-.4-.82-.71-.28-.31-.5-.76-.67-1.35s-.25-1.39-.25-2.41c0-.55-.09-1.02-.28-1.41-.19-.38-.43-.69-.72-.91s-.63-.38-1-.48c-.38-.1-.76-.15-1.15-.15h-5.98l.32-.46v6.97c0,.3-.09.56-.27.78s-.42.32-.72.32ZM422.72,166.4h6.57c.52-.04,1-.21,1.46-.54s.83-.77,1.11-1.34c.29-.57.43-1.23.43-1.98,0-.93-.3-1.71-.9-2.33-.6-.63-1.35-.94-2.24-.94h-6.33l.21-.54v8.15l-.32-.48Z"/>
        <path d="M440.01,157.18h9.54c.3,0,.56.1.78.31s.32.46.32.76-.11.55-.32.74c-.21.19-.47.28-.78.28h-8.63l.24-.46v6.76l-.27-.29h7.45c.3,0,.56.1.78.29.21.2.32.46.32.78,0,.3-.11.55-.32.74-.21.19-.47.28-.78.28h-7.37l.19-.27v6.94l-.16-.19h8.55c.3,0,.56.11.78.32.21.21.32.46.32.72,0,.3-.11.55-.32.75-.21.2-.47.29-.78.29h-9.54c-.3,0-.56-.11-.78-.32-.21-.21-.32-.47-.32-.78v-16.57c0-.3.11-.56.32-.78.21-.21.47-.32.78-.32Z"/>
        <path d="M467.7,158.41c.3.16.48.4.54.72.05.32-.03.63-.24.91-.16.21-.37.33-.62.36-.25.03-.5-.02-.75-.15-.59-.36-1.22-.64-1.9-.84-.68-.21-1.39-.31-2.14-.31-1.05,0-2.02.18-2.9.54s-1.64.87-2.28,1.54c-.64.67-1.14,1.46-1.5,2.37-.36.91-.54,1.91-.54,3,0,1.18.19,2.23.56,3.16.38.93.89,1.72,1.54,2.37.65.65,1.41,1.15,2.28,1.49.87.34,1.81.51,2.83.51.73,0,1.44-.1,2.12-.29s1.31-.48,1.9-.86c.25-.12.5-.17.76-.13.26.04.47.16.63.38.23.29.32.59.25.9-.06.31-.24.55-.52.71-.45.27-.96.51-1.53.72-.57.21-1.17.38-1.78.51-.62.12-1.23.19-1.84.19-1.29,0-2.5-.22-3.65-.67-1.14-.45-2.16-1.09-3.04-1.92s-1.58-1.84-2.08-3.03c-.5-1.19-.75-2.53-.75-4.03,0-1.38.24-2.65.72-3.82.48-1.17,1.15-2.19,2.01-3.04.86-.86,1.86-1.52,3.02-2,1.15-.47,2.41-.71,3.77-.71.93,0,1.83.12,2.71.36.88.24,1.68.59,2.41,1.06Z"/>
        <path d="M472.61,157.18c.3,0,.56.11.78.32.21.21.32.47.32.78v16.57c0,.3-.11.56-.33.78s-.49.32-.79.32c-.34,0-.61-.11-.82-.32s-.31-.47-.31-.78v-16.57c0-.3.11-.56.32-.78.21-.21.49-.32.83-.32ZM472.5,165.36h12.47l-.03,2.09h-12.52l.08-2.09ZM484.94,157.18c.34,0,.61.11.82.32.21.21.31.47.31.78v16.57c0,.3-.11.56-.32.78s-.49.32-.83.32c-.3,0-.56-.11-.78-.32s-.32-.47-.32-.78v-16.57c0-.3.11-.56.33-.78.22-.21.49-.32.79-.32Z"/>
        <path d="M491.83,157.18h9.54c.3,0,.56.1.78.31s.32.46.32.76-.11.55-.32.74c-.21.19-.47.28-.78.28h-8.63l.24-.46v6.76l-.27-.29h7.45c.3,0,.56.1.78.29.21.2.32.46.32.78,0,.3-.11.55-.32.74-.21.19-.47.28-.78.28h-7.37l.19-.27v6.94l-.16-.19h8.55c.3,0,.56.11.78.32.21.21.32.46.32.72,0,.3-.11.55-.32.75-.21.2-.47.29-.78.29h-9.54c-.3,0-.56-.11-.78-.32-.21-.21-.32-.47-.32-.78v-16.57c0-.3.11-.56.32-.78.21-.21.47-.32.78-.32Z"/>
      </g>
    </g>
    <g>
      <g>
        <path class="st18" d="M406.85,315.08l10.78,33.16c4.6,14.17,17.81,23.76,32.71,23.76h34.87c4.7,0,6.66,6.02,2.85,8.78l-28.21,20.5c-12.05,8.76-17.1,24.28-12.49,38.45l10.78,33.16c1.45,4.47-3.66,8.19-7.47,5.43l-28.21-20.5c-12.05-8.76-28.37-8.76-40.43,0l-28.21,20.5c-3.8,2.76-8.92-.95-7.47-5.43l10.78-33.16c4.6-14.17-.44-29.69-12.49-38.45l-28.21-20.5c-3.8-2.76-1.85-8.78,2.85-8.78h34.87c14.9,0,28.1-9.59,32.71-23.76l10.78-33.16c1.45-4.47,7.78-4.47,9.23,0Z"/>
        <path class="st4" d="M453.51,479.76c-1.09,0-2.19-.35-3.15-1.04l-28.21-20.5c-11.91-8.66-27.92-8.66-39.84,0l-28.21,20.5c-1.91,1.39-4.38,1.39-6.29,0-1.91-1.39-2.68-3.74-1.95-5.99l10.78-33.16c4.55-14.01-.4-29.23-12.31-37.89l-28.21-20.5c-1.91-1.39-2.67-3.74-1.94-5.98s2.73-3.7,5.09-3.7h34.87c14.73,0,27.68-9.41,32.23-23.42l10.78-33.16c.73-2.25,2.73-3.7,5.09-3.7s4.36,1.45,5.09,3.7l10.78,33.16c4.55,14,17.5,23.42,32.23,23.42h34.87c2.36,0,4.36,1.45,5.09,3.7.73,2.25-.03,4.6-1.94,5.98l-28.21,20.5c-11.91,8.66-16.86,23.88-12.31,37.89l10.77,33.16c.73,2.25-.03,4.6-1.94,5.99-.96.69-2.05,1.04-3.15,1.04ZM402.23,450.73c7.19,0,14.37,2.23,20.51,6.68l28.21,20.5c1.55,1.13,3.56,1.13,5.12,0,1.55-1.13,2.17-3.04,1.58-4.87l-10.77-33.16c-4.69-14.42.41-30.09,12.67-39l28.21-20.5c1.55-1.13,2.17-3.04,1.58-4.87-.59-1.83-2.22-3.01-4.14-3.01h-34.87c-15.16,0-28.5-9.69-33.18-24.11l-10.78-33.16c-.59-1.83-2.22-3.01-4.14-3.01s-3.54,1.18-4.14,3.01l-10.78,33.16c-4.68,14.42-18.02,24.11-33.18,24.11h-34.87c-1.92,0-3.55,1.18-4.14,3.01-.59,1.83.03,3.74,1.58,4.87l28.21,20.5c12.27,8.91,17.36,24.59,12.67,39l-10.78,33.16c-.59,1.83.03,3.74,1.58,4.87,1.56,1.13,3.56,1.13,5.12,0l28.21-20.5c6.13-4.46,13.32-6.68,20.51-6.68Z"/>
      </g>
      <g>
        <g>
          <path class="st31" d="M296.17,628.03s-13.51,12.95.56,24.21c14.08,11.26,44.49,12.39,55.75,17.46,11.26,5.07,34.91,9.57,53.5,3.38,18.58-6.19,44.49-15.77,17.46-40.54-27.03-24.78-127.26-4.5-127.26-4.5Z"/>
          <path class="st1" d="M385.62,676.6c-13.51,0-26.36-3.3-33.34-6.44-4.08-1.83-10.64-3.14-18.25-4.64-12.74-2.53-28.6-5.67-37.61-12.88-4.18-3.34-6.39-7.17-6.58-11.38-.33-7.44,5.73-13.33,5.98-13.58l.1-.1.14-.03c.25-.05,25.42-5.1,53.56-7.05,37.88-2.62,62.83,1.3,74.14,11.67,9.14,8.38,12.93,15.53,11.57,21.87-2.07,9.71-15.57,14.96-29.21,19.51-6.55,2.18-13.62,3.04-20.52,3.04ZM296.42,628.49c-.78.8-5.87,6.24-5.58,12.72.18,3.91,2.26,7.49,6.21,10.64,8.82,7.06,24.55,10.17,37.18,12.68,7.66,1.52,14.28,2.83,18.46,4.71,10.4,4.68,34.02,9.73,53.13,3.36,9.88-3.29,26.42-8.81,28.55-18.77,1.25-5.88-2.54-12.92-11.27-20.93-26.06-23.89-122.3-5.28-126.68-4.41Z"/>
        </g>
        <g>
          <g>
            <path class="st5" d="M285.47,518.22s15.02,85.22,13.14,89.35c-1.88,4.13-18.77,27.78,7.88,37.17,26.65,9.39,66.82,21.77,72.83,21.77s16.14,4.5,21.4-4.5c0,0,13.51,2.25,13.51-5.63,0,0,6.38,2.63,11.26-3.75,0,0,9.39-1.88,7.51-11.26-1.88-9.39-18.4-19.15-27.78-22.15-9.39-3-33.41-14.27-33.79-22.52-.38-8.26-6.76-90.1-6.76-90.1l-79.21,11.64Z"/>
            <path class="st1" d="M390.32,668.14c-2.15,0-4.31-.33-6.31-.63-1.71-.26-3.32-.5-4.68-.5-6.43,0-48.06-13.02-73-21.8-7.42-2.61-12.19-6.59-14.16-11.81-3.43-9.07,2.48-19.67,5-24.19.45-.8.8-1.43.99-1.84,1.33-2.93-7.15-54.86-13.18-89.05l-.09-.51.51-.08,79.74-11.72.04.53c.06.82,6.39,81.94,6.76,90.12.15,3.36,4.87,7.91,13.27,12.82,7.25,4.24,15.54,7.76,20.17,9.25,8.52,2.73,26.1,12.44,28.12,22.53,1.02,5.1-1.2,8.06-3.23,9.64-1.86,1.44-3.86,2.01-4.48,2.17-4.11,5.24-9.27,4.46-11.08,3.98-.14,1.47-.77,2.69-1.87,3.62-3.39,2.87-10.24,2.12-11.86,1.89-2.74,4.47-6.68,5.59-10.67,5.59ZM286.05,518.64c1.91,10.83,14.87,85.06,13.01,89.13-.2.45-.56,1.1-1.02,1.92-2.46,4.4-8.21,14.71-4.94,23.35,1.87,4.93,6.43,8.71,13.56,11.22,27.22,9.59,66.89,21.75,72.66,21.75,1.44,0,3.09.25,4.83.51,5.75.87,12.27,1.85,16.13-4.77l.17-.3.34.06c.08.01,7.97,1.28,11.39-1.62,1.04-.88,1.54-2.03,1.54-3.52v-.74l.69.28c.25.1,6.1,2.39,10.67-3.59l.11-.15.18-.04c.36-.07,8.87-1.9,7.12-10.67-1.85-9.24-18.59-18.94-27.44-21.77-9.56-3.06-33.74-14.38-34.13-22.98-.35-7.81-6.16-82.46-6.71-89.55l-78.17,11.49Z"/>
          </g>
          <path class="st1" d="M401.21,662.12l-.97-.23c1.13-4.68.46-8.64-1.98-11.78-6.18-7.95-21.79-8.25-21.94-8.25v-1c.67,0,16.25.3,22.73,8.64,2.64,3.39,3.37,7.64,2.16,12.63Z"/>
          <path class="st1" d="M414.72,657.26l-.96-.27c3.95-14.38-17.47-21.1-17.68-21.16l.29-.96c.23.07,22.57,7.08,18.36,22.39Z"/>
          <path class="st1" d="M425.61,653.13l-.96-.27c3.95-14.37-17.47-21.1-17.68-21.16l.29-.96c.23.07,22.57,7.08,18.36,22.38Z"/>
          <g>
            <path class="st14" d="M396.31,647.8c-4.46-2.55-9.43,2.57-6.57,6.82.04.06.08.12.13.19,4.4,6.28,13.35,7.26,13.59,1.38.15-3.48-3.86-6.5-7.15-8.39Z"/>
            <path class="st1" d="M399.03,660.59c-3.05,0-6.99-1.81-9.58-5.5l-.13-.2c-1.41-2.09-1.21-4.65.52-6.5,1.47-1.58,4.12-2.51,6.72-1.03h0c3.46,1.98,7.56,5.13,7.4,8.84-.09,2.11-1.2,3.58-3.14,4.15-.54.16-1.14.24-1.78.24ZM393.84,647.62c-1.31,0-2.49.61-3.27,1.45-1.06,1.14-1.81,3.21-.42,5.27l.12.18c2.83,4.04,7.53,5.67,10.26,4.88,1.06-.31,2.33-1.12,2.42-3.23.13-3.21-3.68-6.09-6.9-7.93h0c-.75-.43-1.5-.61-2.22-.61Z"/>
          </g>
          <g>
            <path class="st14" d="M411.18,644.73c-3.53-2.32-7.83,1.66-5.68,5.3.03.05.06.11.1.16,3.32,5.39,10.59,6.63,11.05,1.8.28-2.86-2.86-5.55-5.47-7.26Z"/>
            <path class="st1" d="M413.19,655.51c-2.58,0-5.96-1.71-8.02-5.05l-.1-.17c-1.09-1.84-.79-3.99.76-5.46,1.3-1.24,3.54-1.88,5.63-.51,2.76,1.82,5.99,4.63,5.69,7.73-.17,1.75-1.2,2.97-2.83,3.34-.35.08-.73.12-1.13.12ZM408.96,644.54c-.99,0-1.87.46-2.45,1.01-.91.87-1.61,2.5-.59,4.23l.09.15c2.12,3.43,5.84,4.99,8.07,4.48,1.22-.28,1.93-1.14,2.06-2.47.25-2.6-2.71-5.13-5.25-6.79h0c-.67-.44-1.33-.61-1.94-.61Z"/>
          </g>
          <g>
            <path class="st14" d="M420.94,639.1c-3.53-2.32-7.83,1.66-5.68,5.3.03.05.06.11.1.16,3.32,5.39,10.59,6.63,11.05,1.8.28-2.86-2.86-5.55-5.47-7.26Z"/>
            <path class="st1" d="M422.96,649.88c-2.58,0-5.96-1.71-8.02-5.05l-.1-.17c-1.09-1.84-.79-3.99.76-5.46,1.3-1.24,3.54-1.88,5.63-.51,2.76,1.82,5.99,4.63,5.69,7.73-.17,1.75-1.2,2.97-2.83,3.34-.35.08-.73.12-1.13.12ZM418.73,638.91c-.99,0-1.87.46-2.45,1.01-.91.87-1.61,2.5-.59,4.23l.08.14c2.12,3.45,5.85,5.01,8.08,4.49,1.22-.28,1.93-1.14,2.06-2.47.25-2.6-2.71-5.13-5.25-6.79h0c-.67-.44-1.33-.61-1.94-.61Z"/>
          </g>
          <g>
            <path class="st14" d="M429.48,633.5c-2.7-1.78-6,1.27-4.35,4.06.02.04.05.08.07.12,2.54,4.13,8.11,5.08,8.47,1.38.21-2.19-2.19-4.25-4.19-5.56Z"/>
            <path class="st1" d="M431.02,641.87c-2.01,0-4.65-1.32-6.25-3.92l-.08-.13c-.86-1.46-.63-3.16.6-4.33,1.03-.98,2.81-1.48,4.46-.4h0c2.14,1.41,4.65,3.6,4.41,6.03-.13,1.39-.96,2.36-2.25,2.67-.28.06-.57.1-.89.1ZM427.78,633.47c-.73,0-1.37.33-1.79.74-.67.64-1.18,1.83-.43,3.1l.07.11c1.59,2.58,4.38,3.77,6.06,3.38.88-.2,1.39-.82,1.49-1.79.2-2.04-2.4-4.07-3.97-5.1h0c-.49-.32-.97-.45-1.42-.45Z"/>
          </g>
          <g>
            <path class="st31" d="M349.67,665.2s-3.38-28.72,41.11-52.93l-15.2-9.01s-38.86,15.77-41.67,52.37"/>
            <path class="st1" d="M349.17,665.25c-.03-.29-2.87-29,40.6-53.01l-14.23-8.43c-3.18,1.38-38.49,17.43-41.14,51.85l-1-.08c2.81-36.49,41.59-52.64,41.98-52.79l.23-.09,16.17,9.58-.77.42c-43.63,23.75-40.88,52.15-40.85,52.44l-.99.12Z"/>
          </g>
        </g>
        <g>
          <path class="st31" d="M254.35,629.16s13.51,12.95-.56,24.21-44.49,12.39-55.75,17.46c-11.26,5.07-34.91,9.57-53.5,3.38-18.58-6.19-44.49-15.77-17.46-40.54,27.03-24.78,127.26-4.5,127.26-4.5Z"/>
          <path class="st1" d="M164.9,677.72c-6.9,0-13.97-.86-20.52-3.04-13.64-4.55-27.14-9.8-29.21-19.51-1.35-6.34,2.43-13.5,11.57-21.87,11.31-10.37,36.26-14.3,74.14-11.67,28.14,1.95,53.31,7,53.56,7.05l.14.03.1.1c.26.25,6.32,6.14,5.98,13.58-.19,4.21-2.4,8.04-6.58,11.38-9.01,7.21-24.87,10.35-37.61,12.88-7.6,1.51-14.17,2.81-18.24,4.64-6.98,3.14-19.83,6.44-33.34,6.44ZM179.89,621.9c-21.74,0-42.37,2.87-52.47,12.13-8.73,8.01-12.53,15.05-11.27,20.93,2.12,9.96,18.67,15.48,28.55,18.77,19.11,6.37,42.73,1.32,53.13-3.36,4.18-1.88,10.8-3.19,18.46-4.71,12.63-2.5,28.36-5.62,37.18-12.68,3.94-3.15,6.03-6.73,6.21-10.64.29-6.48-4.79-11.92-5.58-12.72-2.68-.53-39.84-7.72-74.21-7.72Z"/>
        </g>
        <g>
          <g>
            <path class="st5" d="M265.05,519.35s-15.02,85.22-13.14,89.35c1.88,4.13,18.77,27.78-7.88,37.17-26.65,9.39-66.82,21.77-72.83,21.77-6.01,0-16.14,4.5-21.4-4.5,0,0-13.51,2.25-13.51-5.63,0,0-6.38,2.63-11.26-3.75,0,0-9.39-1.88-7.51-11.26,1.88-9.39,18.4-19.15,27.78-22.15,9.39-3,33.41-14.27,33.79-22.52.38-8.26,6.76-90.1,6.76-90.1l79.21,11.64Z"/>
            <path class="st1" d="M160.2,669.26c-3.98,0-7.92-1.12-10.67-5.59-1.62.23-8.47.98-11.86-1.89-1.1-.93-1.72-2.14-1.87-3.62-1.8.48-6.97,1.26-11.08-3.98-.62-.15-2.62-.72-4.48-2.17-2.04-1.58-4.25-4.54-3.23-9.64,2.02-10.09,19.6-19.8,28.12-22.53,9.07-2.9,33.08-14.08,33.44-22.07.37-8.17,6.69-89.3,6.76-90.12l.04-.53.53.08,79.72,11.71-.09.51c-6.03,34.19-14.51,86.13-13.18,89.05.19.41.54,1.04.99,1.84,2.52,4.52,8.44,15.12,5,24.19-1.98,5.22-6.74,9.2-14.16,11.81-24.93,8.78-66.57,21.8-73,21.8-1.36,0-2.98.24-4.68.5-1.99.3-4.16.63-6.31.63ZM150.05,662.58l.17.3c3.86,6.62,10.38,5.63,16.13,4.77,1.75-.26,3.4-.51,4.83-.51,5.77,0,45.44-12.16,72.66-21.75,7.13-2.51,11.69-6.29,13.56-11.22,3.27-8.64-2.49-18.95-4.94-23.35-.46-.82-.82-1.47-1.02-1.92-1.85-4.08,11.11-78.3,13.01-89.13l-78.17-11.49c-.55,7.09-6.36,81.74-6.72,89.55-.39,8.59-24.58,19.92-34.13,22.98-8.85,2.83-25.59,12.53-27.44,21.77-1.75,8.77,6.75,10.6,7.12,10.67l.18.04.11.15c4.58,5.99,10.43,3.7,10.68,3.59l.69-.28v.74c0,1.49.51,2.64,1.55,3.52,3.42,2.9,11.31,1.63,11.39,1.62l.34-.06Z"/>
          </g>
          <path class="st1" d="M149.31,663.25c-1.2-4.99-.47-9.24,2.16-12.63,6.48-8.33,22.06-8.63,22.72-8.63v1c-.14,0-15.75.3-21.93,8.25-2.44,3.14-3.11,7.1-1.98,11.78l-.97.23Z"/>
          <path class="st1" d="M135.8,658.38c-4.21-15.31,18.13-22.32,18.36-22.38l.29.96c-.22.07-21.64,6.79-17.68,21.16l-.96.27Z"/>
          <path class="st1" d="M124.91,654.25c-4.21-15.31,18.13-22.32,18.36-22.39l.29.96c-.22.07-21.64,6.79-17.68,21.16l-.96.27Z"/>
          <g>
            <path class="st14" d="M154.21,648.92c4.46-2.55,9.43,2.57,6.57,6.82-.04.06-.08.12-.13.19-4.4,6.28-13.35,7.26-13.59,1.38-.15-3.48,3.86-6.5,7.15-8.39Z"/>
            <path class="st1" d="M151.49,661.72c-.64,0-1.24-.08-1.78-.24-1.94-.57-3.05-2.04-3.14-4.15-.16-3.71,3.94-6.86,7.4-8.84h0c2.6-1.49,5.24-.56,6.71,1.03,1.73,1.86,1.93,4.41.52,6.51l-.13.19c-2.59,3.69-6.52,5.5-9.58,5.5ZM156.68,648.75c-.71,0-1.47.18-2.22.61h0c-3.22,1.85-7.03,4.72-6.9,7.93.09,2.11,1.37,2.92,2.42,3.23,2.73.8,7.43-.84,10.26-4.88l.12-.18c1.39-2.06.64-4.12-.42-5.26-.78-.84-1.96-1.45-3.27-1.45Z"/>
          </g>
          <g>
            <path class="st14" d="M139.34,645.86c3.53-2.32,7.83,1.66,5.68,5.3-.03.05-.06.11-.1.16-3.32,5.39-10.59,6.63-11.05,1.8-.28-2.86,2.86-5.55,5.47-7.26Z"/>
            <path class="st1" d="M137.32,656.63c-.4,0-.78-.04-1.13-.12-1.63-.38-2.66-1.6-2.83-3.34-.3-3.09,2.93-5.91,5.69-7.73h0c2.08-1.37,4.33-.73,5.63.51,1.55,1.48,1.85,3.62.76,5.47l-.1.17c-2.06,3.34-5.44,5.05-8.02,5.05ZM139.61,646.28h0c-2.53,1.67-5.5,4.2-5.25,6.79.13,1.33.84,2.18,2.06,2.47,2.23.51,5.96-1.04,8.07-4.48l.09-.15c1.03-1.74.32-3.37-.59-4.23-.94-.9-2.65-1.54-4.39-.4Z"/>
          </g>
          <g>
            <path class="st14" d="M129.58,640.23c3.53-2.32,7.83,1.66,5.68,5.3-.03.05-.06.11-.1.16-3.32,5.39-10.59,6.63-11.05,1.8-.28-2.86,2.86-5.55,5.47-7.26Z"/>
            <path class="st1" d="M127.56,651c-.4,0-.78-.04-1.13-.12-1.63-.38-2.66-1.6-2.83-3.34-.3-3.1,2.93-5.91,5.69-7.73h0c2.08-1.37,4.33-.73,5.63.51,1.55,1.48,1.85,3.62.76,5.47l-.1.17c-2.06,3.34-5.44,5.05-8.02,5.05ZM131.79,640.03c-.62,0-1.28.18-1.94.61h0c-2.53,1.66-5.5,4.19-5.25,6.79.13,1.33.84,2.18,2.06,2.47,2.23.52,5.96-1.05,8.07-4.48l.09-.15c1.03-1.74.33-3.37-.58-4.24-.58-.55-1.45-1.01-2.45-1.01Z"/>
          </g>
          <g>
            <path class="st14" d="M121.04,634.63c2.7-1.78,6,1.27,4.35,4.06-.02.04-.05.08-.07.12-2.54,4.13-8.11,5.08-8.47,1.38-.21-2.19,2.19-4.25,4.19-5.56Z"/>
            <path class="st1" d="M119.49,643c-.31,0-.61-.03-.89-.1-1.3-.3-2.12-1.27-2.26-2.67-.23-2.43,2.27-4.62,4.41-6.03h0c1.65-1.08,3.43-.58,4.46.4,1.23,1.17,1.46,2.87.6,4.33l-.06.1c-1.62,2.62-4.26,3.95-6.27,3.95ZM121.32,635.05h0c-1.57,1.03-4.16,3.06-3.97,5.1.09.96.61,1.58,1.49,1.79,1.67.38,4.47-.79,6.06-3.38l.07-.12c.75-1.27.24-2.46-.43-3.1-.69-.66-1.95-1.13-3.22-.29Z"/>
          </g>
          <g>
            <path class="st31" d="M200.85,666.32s3.38-28.72-41.11-52.93l15.2-9.01s38.86,15.77,41.67,52.37"/>
            <path class="st1" d="M201.35,666.38l-.99-.12c.03-.28,2.78-28.69-40.85-52.44l-.77-.42,16.17-9.58.23.09c.39.16,39.17,16.3,41.98,52.79l-1,.08c-2.65-34.42-37.96-50.47-41.13-51.85l-14.23,8.43c12.65,6.99,28.98,18.7,36.68,35.35,4.72,10.22,3.95,17.36,3.91,17.65Z"/>
          </g>
        </g>
        <g>
          <g>
            <path class="st31" d="M236.2,230.47h-17.18l-26.47,82.22.84,6.34,4.79,26.89s-10.7,21.96-18.58,52.93c-7.88,30.97-29.85,154.29-29.85,154.29,0,0,61.38,19.71,131.21,19.71s120.51-23.09,120.51-23.09c0,0-47.3-196.53-58-211.17-10.7-14.64-29.28-108.12-29.28-108.12h-77.99Z"/>
            <path class="st1" d="M280.97,573.34c-69.11,0-130.75-19.54-131.36-19.73l-.42-.13.08-.43c.22-1.23,22.06-123.7,29.85-154.33,7.47-29.35,17.6-50.9,18.55-52.88l-4.76-26.73-.86-6.47.03-.11,26.58-82.56h95.94l.08.4c.19.93,18.68,93.54,29.2,107.92,10.64,14.55,56.15,203.32,58.08,211.35l.1.4-.38.17c-.51.23-51.58,23.13-120.71,23.13ZM150.33,552.79c5.53,1.71,64.67,19.55,130.64,19.55s115.14-20.79,119.92-22.88c-2.42-10.05-47.53-196.51-57.82-210.59-10.4-14.22-27.78-100.36-29.29-107.91h-94.39l-26.32,81.76.83,6.22,4.81,27.03-.07.15c-.11.22-10.77,22.28-18.55,52.84-7.56,29.68-28.32,145.76-29.76,153.83Z"/>
          </g>
          <g class="st16">
            <g>
              <circle class="st9" cx="160.4" cy="529.37" r="10.04"/>
              <path class="st1" d="M160.4,539.91c-5.81,0-10.54-4.73-10.54-10.54s4.73-10.54,10.54-10.54,10.54,4.73,10.54,10.54-4.73,10.54-10.54,10.54ZM160.4,519.83c-5.26,0-9.54,4.28-9.54,9.54s4.28,9.54,9.54,9.54,9.54-4.28,9.54-9.54-4.28-9.54-9.54-9.54Z"/>
            </g>
            <g>
              <circle class="st9" cx="231.46" cy="486.97" r="10.04"/>
              <path class="st1" d="M231.46,497.51c-5.81,0-10.54-4.73-10.54-10.54s4.73-10.54,10.54-10.54,10.54,4.73,10.54,10.54-4.73,10.54-10.54,10.54ZM231.46,477.43c-5.26,0-9.54,4.28-9.54,9.54s4.28,9.54,9.54,9.54,9.54-4.28,9.54-9.54-4.28-9.54-9.54-9.54Z"/>
            </g>
            <g>
              <circle class="st9" cx="302.19" cy="540.86" r="10.04"/>
              <path class="st1" d="M302.19,551.4c-5.81,0-10.54-4.73-10.54-10.54s4.73-10.54,10.54-10.54,10.54,4.73,10.54,10.54-4.73,10.54-10.54,10.54ZM302.19,531.32c-5.26,0-9.54,4.28-9.54,9.54s4.28,9.54,9.54,9.54,9.54-4.28,9.54-9.54-4.28-9.54-9.54-9.54Z"/>
            </g>
            <g>
              <circle class="st9" cx="355.09" cy="477.18" r="10.04"/>
              <path class="st1" d="M355.09,487.72c-5.81,0-10.54-4.73-10.54-10.54s4.73-10.54,10.54-10.54,10.54,4.73,10.54,10.54-4.73,10.54-10.54,10.54ZM355.09,467.64c-5.26,0-9.54,4.28-9.54,9.54s4.28,9.54,9.54,9.54,9.54-4.28,9.54-9.54-4.28-9.54-9.54-9.54Z"/>
            </g>
            <g>
              <circle class="st9" cx="292.82" cy="438.09" r="10.04"/>
              <path class="st1" d="M292.82,448.63c-5.81,0-10.54-4.73-10.54-10.54s4.73-10.54,10.54-10.54,10.54,4.73,10.54,10.54-4.73,10.54-10.54,10.54ZM292.82,428.55c-5.26,0-9.54,4.28-9.54,9.54s4.28,9.54,9.54,9.54,9.54-4.28,9.54-9.54-4.28-9.54-9.54-9.54Z"/>
            </g>
            <g>
              <circle class="st9" cx="392.99" cy="546.69" r="10.04"/>
              <path class="st1" d="M392.99,557.23c-5.81,0-10.54-4.73-10.54-10.54s4.73-10.54,10.54-10.54,10.54,4.73,10.54,10.54-4.73,10.54-10.54,10.54ZM392.99,537.15c-5.26,0-9.54,4.28-9.54,9.54s4.28,9.54,9.54,9.54,9.54-4.28,9.54-9.54-4.28-9.54-9.54-9.54Z"/>
            </g>
            <g>
              <circle class="st9" cx="213.47" cy="364.4" r="10.04"/>
              <path class="st1" d="M213.47,374.94c-5.81,0-10.54-4.73-10.54-10.54s4.73-10.54,10.54-10.54,10.54,4.73,10.54,10.54-4.73,10.54-10.54,10.54ZM213.47,354.85c-5.26,0-9.54,4.28-9.54,9.54s4.28,9.54,9.54,9.54,9.54-4.28,9.54-9.54-4.28-9.54-9.54-9.54Z"/>
            </g>
            <g>
              <circle class="st9" cx="240.58" cy="292.63" r="10.04"/>
              <path class="st1" d="M240.58,303.17c-5.81,0-10.54-4.73-10.54-10.54s4.73-10.54,10.54-10.54,10.54,4.73,10.54,10.54-4.73,10.54-10.54,10.54ZM240.58,283.09c-5.26,0-9.54,4.28-9.54,9.54s4.28,9.54,9.54,9.54,9.54-4.28,9.54-9.54-4.28-9.54-9.54-9.54Z"/>
            </g>
            <g>
              <circle class="st9" cx="219.89" cy="234.75" r="10.04"/>
              <path class="st1" d="M219.89,245.29c-5.81,0-10.54-4.73-10.54-10.54s4.73-10.54,10.54-10.54,10.54,4.73,10.54,10.54-4.73,10.54-10.54,10.54ZM219.89,225.21c-5.26,0-9.54,4.28-9.54,9.54s4.28,9.54,9.54,9.54,9.54-4.28,9.54-9.54-4.28-9.54-9.54-9.54Z"/>
            </g>
          </g>
          <g>
            <path class="st1" d="M280.97,573.34c-69.11,0-130.75-19.54-131.36-19.73l-.42-.13.08-.43c.22-1.23,22.06-123.7,29.85-154.33,7.47-29.35,17.6-50.9,18.55-52.88l-4.76-26.73-.86-6.47.03-.11,26.58-82.56h95.94l.08.4c.19.93,18.68,93.54,29.2,107.92,10.64,14.55,56.15,203.32,58.08,211.35l.1.4-.38.17c-.51.23-51.58,23.13-120.71,23.13ZM150.33,552.79c5.53,1.71,64.67,19.55,130.64,19.55s115.14-20.79,119.92-22.88c-2.42-10.05-47.53-196.51-57.82-210.59-10.4-14.22-27.78-100.36-29.29-107.91h-94.39l-26.32,81.76.83,6.22,4.81,27.03-.07.15c-.11.22-10.77,22.28-18.55,52.84-7.56,29.68-28.32,145.76-29.76,153.83Z"/>
            <path class="st1" d="M258.93,351.28c-25.08,0-44.49-4.81-44.81-4.89l.25-.97c.53.13,53.58,13.27,97.68-4.2l.37.93c-17.71,7.02-36.84,9.13-53.48,9.13Z"/>
          </g>
        </g>
        <g>
          <path class="st5" d="M237.33,204.85s5.07,10.14-1.13,21.96c0,0,11.83,64.76,33.22,64.76s19.15-65.32,19.15-65.32c0,0-2.34-19.72-1.13-31.53s-50.12,10.14-50.12,10.14Z"/>
          <path class="st1" d="M269.42,292.07c-9.11,0-17.56-11.01-25.11-32.71-5.58-16.04-8.58-32.29-8.61-32.45l-.03-.17.08-.15c6-11.45,1.17-21.41,1.12-21.51l-.24-.47.49-.21c1.72-.74,42.28-17.98,49.6-12.6.94.69,1.35,1.69,1.22,2.97-1.19,11.62,1.1,31.23,1.12,31.42.07,2.02,1.52,48.65-11.58,62.21-2.35,2.43-5.06,3.67-8.06,3.67ZM236.72,226.88c.33,1.76,3.29,17.05,8.54,32.15,5.08,14.61,13.4,32.03,24.16,32.03,2.71,0,5.18-1.13,7.34-3.36,12.81-13.27,11.32-60.96,11.31-61.44-.02-.16-2.33-19.87-1.12-31.6.09-.92-.17-1.59-.81-2.07-1.95-1.43-8.17-1.83-26.78,4.42-9.89,3.32-19.21,7.19-21.37,8.1.9,2.18,4.1,11.39-1.27,21.78Z"/>
        </g>
        <g>
          <g>
            <g>
              <path class="st27" d="M242.83,134.34s6.2-11.54-4.05-18.37c-10.25-6.83-12.89,2.16-12.89,2.16,0,0-.24-11.59-12.16-9.1-9.4,1.96-7.82,12.82-7.82,12.82,0,0-12.18-6.2-17.76,8.56-5.58,14.76,9.87,14.56,9.87,14.56,0,0-9.39,7.33-2.36,14.79,7.03,7.45,16.09-.2,16.09-.2,0,0-2.13,5.9,6.4,4.87,17.72-2.12,24.68-30.07,24.68-30.07Z"/>
              <path class="st1" d="M216.32,165.03c-2.15,0-3.67-.55-4.53-1.63-.7-.88-.81-1.91-.76-2.72-2.66,1.78-9.89,5.6-15.73-.6-1.99-2.11-2.91-4.43-2.72-6.88.27-3.56,2.79-6.45,4.2-7.81-2.17-.19-6.57-.99-8.89-4.28-1.86-2.65-1.93-6.32-.2-10.89,1.84-4.86,4.58-8.02,8.15-9.4,4.01-1.55,7.89-.41,9.52.23-.14-2.69.14-10.81,8.28-12.51,3.77-.79,6.82-.29,9.05,1.49,2.28,1.81,3.16,4.52,3.5,6.29.65-1.08,1.75-2.39,3.52-3.03,2.56-.93,5.71-.17,9.36,2.27,10.13,6.75,4.7,18.06,4.24,18.97-.18.69-1.98,7.42-5.73,14.3-5.26,9.64-11.95,15.2-19.36,16.09-.68.08-1.31.12-1.9.12ZM212.84,157.97l-.62,1.74s-.64,1.84.35,3.08c.86,1.07,2.77,1.47,5.52,1.13,17.17-2.06,24.19-29.42,24.26-29.69l.04-.12c.24-.46,5.86-11.22-3.88-17.72-3.37-2.24-6.21-2.97-8.46-2.16-2.74.99-3.67,4.01-3.68,4.04l-.91,3.05-.07-3.18s-.14-4.79-3.35-7.33c-1.98-1.58-4.75-2.01-8.21-1.29-8.82,1.84-7.49,11.83-7.43,12.25l.14.95-.86-.43s-4.77-2.37-9.51-.53c-3.29,1.28-5.83,4.24-7.56,8.82-1.6,4.24-1.58,7.59.08,9.96,2.77,3.96,9.26,3.92,9.31,3.92l1.48-.02-1.16.91s-4.42,3.51-4.76,7.94c-.16,2.15.66,4.21,2.45,6.11,2.76,2.93,6.17,3.8,10.14,2.57,3.02-.94,5.24-2.79,5.27-2.81l1.41-1.19Z"/>
            </g>
            <g>
              <path class="st24" d="M247.24,132.53s-9.31-10.24-23.57,10.65c-10.74,15.75.71,25.37.71,25.37l22.85-36.02Z"/>
              <path class="st1" d="M224.5,169.3l-.44-.37c-.12-.1-11.68-10.1-.8-26.04,5.79-8.48,11.49-12.97,16.94-13.35,4.65-.33,7.3,2.53,7.41,2.65l.26.28-23.36,36.83ZM240.91,130.52c-.22,0-.44,0-.67.02-5.05.36-10.64,4.83-16.16,12.92-9.29,13.62-1.77,22.39.2,24.32l22.31-35.17c-.69-.61-2.69-2.09-5.68-2.09Z"/>
            </g>
            <g>
              <path class="st29" d="M299.37,204.56c0-2.57.18-9.33,8.87-9.33,8.69,0,8.22,7.21,8.05,11.41s-4.04,8.22-10.8,6.61-6.11-6.11-6.11-8.69Z"/>
              <path class="st4" d="M308.42,214.12c-.91,0-1.93-.11-3.06-.38-6.63-1.58-6.55-5.95-6.51-8.56,0-.21,0-.42,0-.61,0-6.52,3.15-9.83,9.37-9.83,2.83,0,4.99.76,6.42,2.25,2.44,2.54,2.26,6.7,2.14,9.46v.23c-.11,2.3-1.21,4.4-3.02,5.78-1.11.84-2.84,1.68-5.34,1.68ZM308.23,195.73c-7.5,0-8.37,5.04-8.37,8.83,0,.2,0,.41,0,.63-.05,2.61-.11,6.18,5.74,7.57,3.82.91,6.22-.11,7.56-1.13,1.58-1.19,2.53-3.03,2.62-5.02v-.23c.13-2.74.29-6.49-1.85-8.72-1.23-1.29-3.15-1.94-5.69-1.94Z"/>
            </g>
            <g>
              <path class="st1" d="M281.51,219.36s6.11,4.18,3.86,7.72c-2.25,3.54-22.53,5.79-37.01-11.26l33.15,3.54Z"/>
              <path d="M276.27,223.48c-11.82,0-21.96-3.74-23.91-5.1l.57-.82c2.78,1.94,22.8,8.86,39.95,1.92,12.43-5.03,20.38-16.11,23.63-32.92,4.69-24.28-4.8-38.7-13.59-46.52-13.04-11.61-34.13-16.35-50.13-11.27-12.8,4.06-22.42,14.02-26.39,27.31-5.1,17.06-.4,36.22,12.9,52.56l-.78.63c-13.51-16.6-18.27-36.1-13.08-53.48,4.07-13.62,13.93-23.82,27.05-27.98,16.58-5.26,37.59-.55,51.1,11.47,8.98,7.99,18.69,22.72,13.91,47.46-3.32,17.17-11.47,28.49-24.24,33.66-5.58,2.26-11.47,3.08-17,3.08Z"/>
              <g>
                <path class="st5" d="M238.92,208.96c-26.18-32.18-15.79-71.3,13.73-80.67,27.03-8.58,73.8,9.52,64.36,58.36-9.87,51.06-60.07,34.33-64.36,31.32"/>
                <path class="st1" d="M276.27,223.48c-11.82,0-21.96-3.74-23.91-5.1l.57-.82c2.78,1.94,22.8,8.86,39.95,1.92,12.43-5.03,20.38-16.11,23.63-32.92,4.69-24.28-4.8-38.7-13.59-46.52-13.04-11.61-34.13-16.35-50.13-11.27-12.8,4.06-22.42,14.02-26.39,27.31-5.1,17.06-.4,36.22,12.9,52.56l-.78.63c-13.51-16.6-18.27-36.1-13.08-53.48,4.07-13.62,13.93-23.82,27.05-27.98,16.58-5.26,37.59-.55,51.1,11.47,8.98,7.99,18.69,22.72,13.91,47.46-3.32,17.17-11.47,28.49-24.24,33.66-5.58,2.26-11.47,3.08-17,3.08Z"/>
              </g>
              <g>
                <path class="st27" d="M252.65,128.29c-17.13,5.44-27.79,20.89-28.63,39.19,20.87,15.12,25.42-15.05,25.42-15.05,14.59,9.87,22.31-7.72,22.31-7.72,9.01,12.01,15.45,2.15,15.45,2.15,8.61,8.11,18.27,6.19,24.74,3.26-12.46-20.93-40.58-27.76-59.28-21.82Z"/>
                <path class="st1" d="M234.69,172.22c-3.31,0-6.99-1.45-10.97-4.34l-.22-.16v-.27c.89-19.06,12-34.25,28.99-39.64h0c18.91-6,47.17.72,59.86,22.04l.29.48-.51.23c-6.59,2.98-16.2,4.84-24.87-2.97-.83,1.05-3.08,3.46-6.38,3.56-3.02.08-6.06-1.75-9.04-5.51-1.09,2.12-4.62,8.1-10.58,9.82-3.63,1.05-7.49.3-11.47-2.21-.59,3.15-3.29,14.91-11.01,18.15-1.29.54-2.66.81-4.09.81ZM224.53,167.23c5.31,3.79,9.98,4.88,13.87,3.25,8.23-3.45,10.52-17.99,10.54-18.13l.12-.78.66.44c3.95,2.68,7.75,3.52,11.27,2.5,6.68-1.93,10.27-9.93,10.3-10.01l.34-.78.51.68c2.93,3.91,5.86,5.83,8.7,5.76,3.61-.11,5.91-3.55,5.93-3.58l.33-.5.43.41c8.15,7.67,17.28,6.16,23.67,3.4-12.58-20.52-40.01-26.96-58.41-21.12-16.51,5.24-27.32,19.97-28.27,38.47Z"/>
              </g>
              <g>
                <path class="st5" d="M229.69,192.01s-17.7,2.57-16.41-14.48c1.29-17.06,22.04-10.62,23.98-4.83"/>
                <path class="st1" d="M227.25,192.66c-2.86,0-7.53-.54-10.84-3.62-2.79-2.6-4.01-6.49-3.63-11.54.67-8.9,6.43-10.93,9.8-11.34,6.61-.82,13.98,2.89,15.14,6.4l-.95.32c-1.04-3.13-8.06-6.46-14.07-5.72-3.75.46-8.34,2.65-8.93,10.43-.36,4.74.76,8.35,3.31,10.74,4.61,4.31,12.45,3.22,12.53,3.21l.14.99c-.11.02-1.09.15-2.52.15Z"/>
              </g>
              <g>
                <path class="st5" d="M228.4,182.68s-3.54-6.11-8.05-7.72"/>
                <path class="st1" d="M227.97,182.93c-.03-.06-3.5-5.98-7.78-7.5l.34-.94c4.62,1.65,8.16,7.69,8.31,7.94l-.87.5Z"/>
              </g>
              <g>
                <path class="st1" d="M267.47,181.05s.06,2.75-.3,3.62c-.37.86.11,1.93,1.22,1.78s2.17-4.2,1.72-7.39c-.45-3.19-.81-3.46-2.54-3.06s.13,3.23-.1,5.05Z"/>
                <path class="st1" d="M268.18,186.96c-.52,0-.98-.21-1.28-.61-.39-.5-.46-1.24-.19-1.88.24-.56.29-2.39.27-3.41v-.04s0-.04,0-.04c.08-.6-.13-1.39-.32-2.15-.27-1.04-.52-2.02-.1-2.71.19-.32.5-.53.91-.62.72-.17,1.41-.29,1.97.09.66.46.91,1.45,1.18,3.38.45,3.21-.53,7.73-2.15,7.96-.09.01-.19.02-.28.02ZM267.97,181.07c0,.42.04,2.88-.34,3.79-.13.31-.1.66.07.88.14.18.35.25.63.21.58-.1,1.75-3.58,1.3-6.83-.18-1.25-.39-2.44-.76-2.69-.17-.12-.5-.1-1.18.05-.21.05-.26.14-.28.17-.2.33.02,1.18.22,1.94.22.84.44,1.7.35,2.48Z"/>
              </g>
              <g>
                <path class="st1" d="M295.6,180.69s.06,2.75-.3,3.62.11,1.93,1.22,1.78c1.12-.16,2.17-4.2,1.72-7.39-.45-3.19-.81-3.46-2.54-3.06s.13,3.23-.1,5.05Z"/>
                <path class="st1" d="M296.31,186.6c-.52,0-.98-.21-1.28-.61-.39-.5-.46-1.24-.19-1.88.24-.56.29-2.39.27-3.41v-.04s0-.04,0-.04c.08-.6-.13-1.39-.32-2.15-.27-1.04-.52-2.02-.1-2.71.19-.32.5-.53.91-.62.72-.17,1.41-.29,1.97.09.66.46.91,1.45,1.18,3.38.45,3.21-.53,7.73-2.15,7.96-.09.01-.19.02-.28.02ZM296.1,180.71c0,.42.04,2.88-.34,3.79-.13.31-.1.66.07.88.14.18.35.24.63.21.58-.1,1.75-3.58,1.3-6.83-.18-1.25-.39-2.44-.76-2.69-.17-.12-.5-.1-1.18.05-.21.05-.26.14-.28.17-.2.33.02,1.18.22,1.94.22.84.44,1.7.35,2.48Z"/>
              </g>
            </g>
            <g>
              <path class="st29" d="M218.43,199.09c0-2.57.18-9.33,8.87-9.33,8.69,0,8.22,7.21,8.05,11.41s-4.04,8.22-10.8,6.61-6.11-6.11-6.11-8.69Z"/>
              <path class="st4" d="M227.48,208.65c-.91,0-1.93-.11-3.06-.38-6.63-1.58-6.55-5.95-6.51-8.56,0-.21,0-.42,0-.61,0-6.52,3.15-9.83,9.37-9.83,2.83,0,4.99.76,6.42,2.25,2.44,2.54,2.26,6.7,2.14,9.46v.23c-.11,2.3-1.21,4.4-3.03,5.78-1.11.84-2.84,1.68-5.34,1.68ZM227.29,190.26c-7.5,0-8.37,5.04-8.37,8.83,0,.2,0,.41,0,.63-.05,2.61-.11,6.18,5.74,7.57,3.82.91,6.22-.11,7.56-1.12,1.58-1.2,2.54-3.03,2.62-5.02v-.23c.13-2.74.29-6.49-1.85-8.72-1.23-1.29-3.15-1.94-5.69-1.94Z"/>
            </g>
            <ellipse class="st2" cx="254.96" cy="187.34" rx="4.34" ry="6.44" transform="translate(16.47 395.24) rotate(-77.39)"/>
            <ellipse class="st2" cx="308.06" cy="187.99" rx="4.34" ry="6.44" transform="translate(115.37 493.13) rotate(-89.12)"/>
          </g>
          <g>
            <path class="st1" d="M284.1,195.78l-.08-1s4.53-.38,5.83-2.82c.62-1.16.42-2.66-.6-4.46-1.03-1.81-2.33-2.84-3.88-3.08-3.26-.5-6.63,2.61-6.66,2.64l-.68-.73c.15-.14,3.76-3.47,7.5-2.9,1.87.29,3.42,1.49,4.6,3.58,1.2,2.11,1.41,3.94.61,5.42-1.56,2.93-6.43,3.33-6.64,3.35Z"/>
            <g>
              <path class="st1" d="M273.88,174.8c-.99-2.12-2.21-3.28-3.63-3.45-2.74-.33-5.48,3.05-5.5,3.08l-.78-.62c.13-.16,3.11-3.85,6.4-3.45,1.79.21,3.27,1.57,4.42,4.02l-.91.42Z"/>
              <path class="st1" d="M291.49,173.93l-.84-.55c1.16-1.78,2.54-2.74,4.08-2.84,2.62-.17,4.68,2.21,4.77,2.32l-.76.65s-1.83-2.1-3.95-1.97c-1.21.08-2.32.88-3.3,2.39Z"/>
            </g>
            <path class="st1" d="M279.74,205.47l-.78-.63c5.74-7.05,11.64-2.89,11.7-2.84l-.59.81c-.21-.15-5.21-3.63-10.34,2.67Z"/>
          </g>
        </g>
        <g>
          <g>
            <path class="st5" d="M213.39,273.26c-7.88,29.85-19.99,45.75-19.99,45.75,0,0-15.06,19.71-10.14,30.55,4.93,10.84,22.1,29,40.97,40.26,18.86,11.26,23.51,20.84,21.96,39.84-1.55,19.01-17.88,27.17-22.24,26.47-4.36-.7-3.66-5.77-3.66-5.77-8.02,6.62-15.91,3.38-15.91,3.38-11.68,10.28-19.01,1.83-19.01,1.83-7.46,5.21-16.19,2.53-21.68-6.05-5.49-8.59,2.39-14.08,2.39-14.08-6.19-4.5-10.14-17.46-10.14-17.46,0,0-81.93-36.88-44.77-116.85,37.17-79.96,107.84-70.67,107.84-70.67,0,0,2.25,12.95-5.63,42.8Z"/>
            <path class="st1" d="M193.17,459.34c-.27,0-.53,0-.8-.03-3.79-.26-6.23-2.29-7.06-3.09-3.3,2.19-6.93,2.96-10.53,2.25-4.4-.87-8.48-3.96-11.5-8.68-4.82-7.53.29-12.86,2.01-14.34-5.6-4.55-9.2-15.39-9.74-17.11-3-1.42-37.51-18.35-49.98-51.85-7.47-20.06-5.73-42.12,5.17-65.57,19.27-41.47,47.7-58.55,68.15-65.58,22.17-7.62,40.03-5.4,40.21-5.37l.36.05.06.36c.09.53,2.18,13.4-5.64,43.01-7.82,29.6-19.95,45.77-20.08,45.93-.15.2-14.83,19.6-10.08,30.04,4.71,10.36,21.64,28.62,40.77,40.04,18.63,11.12,23.81,20.54,22.2,40.31-.99,12.1-7.82,19.15-11.8,22.27-4.46,3.5-8.92,4.99-11.02,4.65-3.17-.51-4.07-3.2-4.13-5.2-6.98,5.17-13.77,3.37-15.25,2.88-3.87,3.34-7.67,5.03-11.32,5.03ZM185.46,454.91l.3.34s2.48,2.79,6.7,3.07c3.68.23,7.58-1.42,11.59-4.95l.23-.21.29.12c.08.03,7.72,3.03,15.4-3.3l.99-.81-.17,1.27c-.03.19-.58,4.59,3.25,5.21,1.85.29,6.06-1.16,10.25-4.45,3.85-3.02,10.46-9.84,11.42-21.57,1.57-19.3-3.5-28.49-21.72-39.37-19.3-11.52-36.39-29.99-41.17-40.49-4.99-10.99,9.57-30.25,10.19-31.06.12-.16,12.14-16.19,19.9-45.58,7.04-26.65,5.95-39.9,5.67-42.22-2.68-.27-19.24-1.57-39.42,5.38-20.25,6.97-48.4,23.92-67.52,65.04-10.78,23.19-12.51,44.99-5.15,64.79,12.83,34.47,49.3,51.23,49.67,51.39l.21.09.07.22c.04.13,3.97,12.84,9.95,17.2l.57.41-.57.4c-.31.21-7.42,5.33-2.26,13.4,2.87,4.49,6.73,7.42,10.86,8.24,3.45.69,6.95-.12,10.12-2.33l.37-.26Z"/>
          </g>
          <path class="st1" d="M185.65,455.99l-.55-.83c13.67-9.07,2.9-29.41,2.79-29.61l.88-.47c.11.21,11.31,21.35-3.12,30.92Z"/>
          <path class="st1" d="M204.76,454.08l-.75-.66c12.57-14.21,3.96-31.08,3.87-31.25l.89-.46c.09.17,9.02,17.65-4.01,32.38Z"/>
          <path class="st1" d="M220.63,450.73l-.68-.74c15.45-14.22,4.65-36.07,4.54-36.29l.89-.45c.11.23,11.25,22.75-4.75,37.48Z"/>
          <g>
            <path class="st5" d="M171.72,443.33s-1.69-4.5,1.13-7.32c0,0-3.38,1.69-6.76-.56"/>
            <path class="st1" d="M171.25,443.5c-.06-.17-1.34-3.66.26-6.54-1.39.29-3.54.34-5.7-1.1l.55-.83c3.1,2.07,6.23.55,6.26.53l2.76-1.38-2.18,2.18c-2.56,2.56-1.03,6.75-1.01,6.79l-.94.35Z"/>
          </g>
        </g>
        <g>
          <g>
            <path class="st5" d="M290.19,330.69c27.38,10.15,52.05,29.72,56.98,18.88,4.93-10.84-10.14-30.55-10.14-30.55,0,0-12.11-15.91-19.99-45.75-7.88-29.85-5.63-42.8-5.63-42.8,0,0,70.67-9.29,107.84,70.67,17.79,38.27,9.58,74.02-13.94,95.91-25.63,23.85-69.45,31.24-117.63,7.5,0,0,.22,9.6-9.95,10.24-10.17.64-17.48-4.83-17.68-13.93,0,0-11.14-.93-9.74-16.42,0,0-7.27-4.45-6.66-14.84,0,0-7.73-14.11-1.53-24.25,6.19-10.14,20.7-24.81,48.08-14.66Z"/>
            <path class="st1" d="M345.25,419.61c-17.03,0-36.27-4.13-57.11-14.29-.22,2.39-1.62,9.41-10.38,9.96-5.59.35-10.5-1.13-13.8-4.16-2.7-2.48-4.21-5.87-4.4-9.83-1.14-.19-4.22-.97-6.66-3.88-2.51-2.99-3.56-7.27-3.11-12.73-1.32-.94-7.13-5.65-6.64-14.97-.81-1.53-7.48-14.75-1.45-24.62,6.12-10.02,20.6-25.28,48.68-14.87,9.5,3.52,18.69,8.18,26.79,12.29,11.77,5.97,21.94,11.12,26.88,9.39,1.22-.43,2.1-1.26,2.68-2.54,4.75-10.44-9.93-29.84-10.08-30.04-.12-.16-12.26-16.33-20.08-45.93-7.82-29.61-5.73-42.48-5.64-43.01l.06-.36.36-.05c.18-.02,18.04-2.25,40.21,5.37,20.45,7.03,48.87,24.12,68.15,65.58,16.69,35.91,11.31,72.88-14.06,96.48-13.46,12.53-34.34,22.2-60.4,22.2ZM287.16,403.73l.74.36c52.59,25.92,94.95,13.16,117.07-7.42,25.04-23.3,30.33-59.82,13.83-95.33-19.11-41.12-47.27-58.07-67.52-65.04-20.18-6.95-36.74-5.66-39.42-5.38-.28,2.31-1.37,15.57,5.67,42.21,7.76,29.39,19.78,45.42,19.91,45.58.62.81,15.19,20.07,10.19,31.06-.69,1.52-1.79,2.55-3.26,3.07-5.35,1.87-15.2-3.12-27.66-9.44-8.08-4.1-17.24-8.74-26.69-12.25h0c-27.41-10.17-41.52,4.69-47.48,14.45-5.97,9.78,1.47,23.61,1.55,23.75l.07.13v.14c-.59,9.97,6.34,14.34,6.41,14.38l.26.16-.03.31c-.48,5.32.48,9.45,2.85,12.28,2.71,3.24,6.4,3.6,6.44,3.6l.45.04v.45c.09,3.86,1.51,7.16,4.1,9.54,3.1,2.85,7.74,4.24,13.06,3.9,9.56-.6,9.49-9.36,9.48-9.73l-.02-.82Z"/>
          </g>
          <path class="st1" d="M259.54,400.87c-.79-17.3,22.88-20.73,23.12-20.77l.14.99c-.23.03-23.01,3.34-22.26,19.73l-1,.04Z"/>
          <path class="st1" d="M250.79,384.53l-.98-.21c4.2-19.21,23.58-22.32,23.77-22.34l.15.99c-.19.03-18.89,3.04-22.95,21.57Z"/>
          <path class="st1" d="M244.14,369.65l-.99-.11c2.45-21.61,27.2-25.91,27.45-25.95l.16.99c-.24.04-24.26,4.23-26.62,25.08Z"/>
          <g>
            <path class="st5" d="M277.99,404.65s4.63-1.29,5.25-5.23c0,0,.63,3.72,4.44,5.12"/>
            <path class="st1" d="M278.12,405.13l-.27-.96s4.33-1.26,4.89-4.83l.47-3,.52,2.99c.02.14.64,3.46,4.12,4.74l-.34.94c-2.44-.89-3.66-2.66-4.25-3.95-1.39,2.99-4.96,4.02-5.13,4.07Z"/>
          </g>
        </g>
      </g>
      <g>
        <path class="st10" d="M289.59,266.89s-25.15,3.19-12.38,26.35"/>
        <path class="st1" d="M276.78,293.48c-3.95-7.15-4.73-13.18-2.32-17.92,3.9-7.67,14.61-9.11,15.07-9.17l.13.99c-.11.01-10.65,1.44-14.31,8.63-2.25,4.43-1.47,10.14,2.3,16.98l-.88.48Z"/>
      </g>
      <g>
        <g>
          <path class="st10" d="M289.59,266.89s-22.36,16.77-22.36,61.89c0,0,56.4,28.25,67.98,18.27,11.58-9.98,7.49-73.37-9.68-86.14-17.17-12.78-35.93,5.99-35.93,5.99Z"/>
          <path class="st1" d="M327.28,349.66c-19.2,0-58.32-19.46-60.27-20.44l-.28-.14v-.31c0-23.42,6.11-39.09,11.24-48.11,5.44-9.56,10.81-13.79,11.29-14.16.81-.79,19.54-18.68,36.56-6.01,7.39,5.5,15.32,23.93,16.35,52.7.48,13.37-1.01,29.38-6.64,34.23-1.83,1.57-4.7,2.24-8.25,2.24ZM267.73,328.47c4.29,2.12,56.36,27.5,67.15,18.2,4.48-3.86,6.89-16.67,6.29-33.43-.71-19.82-6-44.53-15.95-51.93-16.62-12.37-35.1,5.76-35.28,5.94l-.05.05c-.22.17-22.06,17.09-22.16,61.18Z"/>
        </g>
        <g>
          <path class="st23" d="M273.62,324.38s-18.77-10.38-28.75,5.99c-9.98,16.37-5.99,36.33-5.99,36.33,0,0-19.96,13.97-11.98,22.76,7.99,8.78,37.53-15.97,37.53-15.97l9.18-49.11Z"/>
          <path class="st1" d="M231.79,391.83c-2.14,0-3.95-.6-5.25-2.03-1.56-1.71-2.22-3.73-1.96-6.01.86-7.69,11.86-15.94,13.76-17.31-.45-2.65-3.17-21.16,6.11-36.37,10.11-16.58,29.23-6.27,29.42-6.17l.32.17-.07.35-9.22,49.29-.14.11c-1.03.86-21.59,17.96-32.97,17.96ZM260.78,321.64c-6.64,0-11.84,3.02-15.48,9-9.76,16.01-5.97,35.78-5.93,35.98l.06.32-.27.19c-.13.09-12.74,9-13.6,16.79-.22,1.98.35,3.73,1.71,5.22,3.9,4.28,13.64-.23,21.13-4.78,7.64-4.64,14.52-10.26,15.57-11.12l9.08-48.57c-1.14-.57-5.24-2.47-10.15-2.92-.73-.07-1.44-.1-2.13-.1Z"/>
        </g>
        <g>
          <path class="st23" d="M297.18,347.54s-18.77-10.38-28.75,5.99c-9.98,16.37-5.99,36.33-5.99,36.33,0,0-19.96,13.97-11.98,22.76,7.99,8.78,37.53-15.97,37.53-15.97l9.18-49.11Z"/>
          <path class="st1" d="M255.35,414.99c-2.14,0-3.95-.6-5.25-2.03-1.56-1.71-2.22-3.73-1.96-6.01.86-7.69,11.86-15.94,13.76-17.31-.45-2.65-3.17-21.16,6.11-36.37,10.11-16.59,29.22-6.27,29.42-6.17l.32.17-.07.35-9.22,49.29-.14.11c-1.03.86-21.59,17.96-32.97,17.96ZM284.34,344.79c-6.64,0-11.84,3.02-15.48,9-9.76,16.01-5.97,35.78-5.93,35.97l.06.32-.27.19c-.13.09-12.73,9-13.6,16.79-.22,1.98.35,3.73,1.71,5.22,3.9,4.29,13.64-.23,21.13-4.78,7.64-4.64,14.52-10.26,15.57-11.12l9.08-48.57c-1.14-.57-5.24-2.47-10.15-2.92-.73-.07-1.44-.1-2.13-.1Z"/>
        </g>
        <g>
          <path class="st10" d="M251.96,320.09s26.35,26.65,29.95,43.72,35.34-15.27,35.34-15.27c0,0-38.03-46.42-65.28-28.45Z"/>
          <path class="st1" d="M287.27,369.28c-.64,0-1.25-.08-1.81-.24-2.09-.61-3.45-2.33-4.04-5.12-3.52-16.73-29.55-43.21-29.81-43.47l-.43-.43.51-.33c27.31-18.01,65.56,28.08,65.94,28.55l.28.35-.31.32c-.87.88-20.14,20.39-30.33,20.39ZM252.75,320.18c3.55,3.65,26.28,27.51,29.65,43.53.51,2.43,1.6,3.86,3.34,4.37,8.34,2.45,28.07-16.82,30.83-19.57-3.55-4.18-38.53-44.16-63.82-28.33Z"/>
        </g>
      </g>
      <g>
        <path class="st5" d="M405.31,397.05c-25.63,23.85-69.45,31.24-117.63,7.5,0,0,.22,9.6-9.95,10.24-10.17.64-17.48-4.83-17.68-13.93,0,0-11.14-.93-9.74-16.42,0,0-7.27-4.45-6.66-14.84,0,0-7.73-14.11-1.53-24.25,6.19-10.14,20.7-24.81,48.08-14.66,27.38,10.15,52.05,29.72,56.98,18.88"/>
        <path class="st1" d="M345.25,419.61c-17.03,0-36.27-4.13-57.11-14.29-.22,2.39-1.62,9.41-10.38,9.96-5.6.34-10.5-1.13-13.8-4.16-2.7-2.48-4.21-5.87-4.4-9.83-1.14-.19-4.22-.97-6.66-3.88-2.51-2.99-3.56-7.27-3.11-12.73-1.32-.94-7.13-5.65-6.64-14.97-.81-1.53-7.48-14.75-1.45-24.62,6.12-10.02,20.6-25.28,48.68-14.87,9.5,3.52,18.69,8.18,26.79,12.29,11.77,5.97,21.94,11.12,26.88,9.39,1.22-.43,2.1-1.26,2.68-2.54l.91.41c-.69,1.52-1.79,2.55-3.26,3.07-5.35,1.87-15.2-3.12-27.66-9.44-8.08-4.1-17.24-8.74-26.69-12.25-27.41-10.17-41.52,4.69-47.48,14.45-5.97,9.77,1.47,23.61,1.55,23.75l.07.13v.14c-.59,9.94,6.34,14.34,6.41,14.38l.26.16-.03.31c-.48,5.33.48,9.46,2.86,12.29,2.73,3.24,6.39,3.58,6.42,3.59l.45.04v.45c.09,3.86,1.51,7.16,4.1,9.54,3.1,2.85,7.74,4.23,13.06,3.9,9.56-.6,9.49-9.36,9.48-9.73l-.02-.82.74.36c52.59,25.92,94.95,13.16,117.07-7.42l.68.73c-13.46,12.53-34.34,22.2-60.4,22.2Z"/>
      </g>
      <path class="st1" d="M259.54,400.87c-.79-17.3,22.88-20.73,23.12-20.77l.14.99c-.23.03-23.01,3.34-22.26,19.73l-1,.04Z"/>
      <path class="st1" d="M250.79,384.53l-.98-.21c4.2-19.21,23.58-22.32,23.77-22.34l.15.99c-.19.03-18.89,3.04-22.95,21.57Z"/>
      <path class="st1" d="M244.14,369.65l-.99-.11c2.45-21.61,27.2-25.91,27.45-25.95l.16.99c-.24.04-24.26,4.23-26.62,25.08Z"/>
      <g>
        <path class="st5" d="M277.99,404.65s4.63-1.29,5.25-5.23c0,0,.63,3.72,4.44,5.12"/>
        <path class="st1" d="M278.12,405.13l-.27-.96s4.33-1.26,4.89-4.83l.47-3,.52,2.99c.02.14.64,3.46,4.12,4.74l-.34.94c-2.44-.89-3.66-2.66-4.25-3.95-1.39,2.99-4.96,4.02-5.13,4.07Z"/>
      </g>
      <g>
        <g>
          <g>
            <path class="st23" d="M285.42,236.66s-11.07-9.65-15.66,1.44c-4.6,11.09,6.34,22.38,15.47,14.09"/>
            <path class="st1" d="M278.52,255.56c-1.81,0-3.61-.58-5.27-1.74-4.06-2.86-6.73-9.24-3.97-15.91,1.26-3.05,3.13-4.89,5.56-5.45,5.07-1.19,10.66,3.62,10.9,3.82l-.66.75c-.05-.05-5.45-4.68-10.01-3.6-2.09.49-3.72,2.13-4.86,4.86-2.56,6.18-.12,12.08,3.62,14.71,3.44,2.42,7.57,1.98,11.05-1.18l.67.74c-2.19,1.99-4.63,3-7.03,3Z"/>
          </g>
          <g>
            <path class="st29" d="M280.96,251.26c.22-.65.75-2.37-1.44-3.11-2.19-.74-2.69,1.11-3,2.19-.31,1.07.32,2.42,2.16,2.59,1.84.17,2.06-1.02,2.28-1.67Z"/>
            <path class="st4" d="M279.02,253.44c-.12,0-.25,0-.39-.02-1-.09-1.81-.52-2.27-1.2-.4-.59-.52-1.33-.32-2.02.24-.82.58-1.97,1.54-2.48.58-.3,1.28-.32,2.09-.04,1.4.47,1.83,1.33,1.95,1.97.14.76-.1,1.47-.2,1.77l-.05.15c-.2.62-.6,1.88-2.37,1.88ZM278.6,248.48c-.21,0-.39.04-.55.12-.59.31-.84,1.18-1.03,1.81-.14.46-.07.89.17,1.24.3.44.83.7,1.54.77,1.29.12,1.5-.5,1.71-1.16l.05-.17c.08-.23.26-.77.17-1.27-.1-.55-.53-.95-1.29-1.21-.28-.1-.54-.14-.76-.14Z"/>
          </g>
          <g>
            <path class="st23" d="M282.48,244.09s-.68-6.7-6.88-5.84"/>
            <path class="st1" d="M281.98,244.15s-.33-2.94-2.31-4.49c-1.05-.82-2.39-1.13-4-.9l-.14-.99c1.89-.26,3.49.11,4.76,1.11,2.31,1.82,2.67,5.04,2.68,5.17l-1,.1Z"/>
          </g>
        </g>
        <g>
          <path class="st23" d="M292.98,276.05s-2.99,7.19,5.09,10.78,21.26-12.28,21.26-12.28l-26.35,1.5Z"/>
          <path class="st1" d="M300.68,287.86c-.97,0-1.92-.18-2.81-.57-8.43-3.75-5.38-11.35-5.35-11.43l.12-.29,27.81-1.58-.73.88c-.49.59-10.89,12.99-19.04,12.99ZM293.34,276.53c-.44,1.34-1.79,6.85,4.94,9.84,6.57,2.92,17-8,19.9-11.25l-24.84,1.41Z"/>
        </g>
        <g>
          <g>
            <path class="st23" d="M346.29,249.2s6.39-37.53-27.95-40.33c-34.34-2.79-44.22,30.62-43.92,40.73.6,20.13,7.78,31.22,31.14,33.14,29.15,2.4,34.74-17.17,34.74-17.17"/>
            <path class="st1" d="M310.32,283.44c-1.53,0-3.12-.06-4.8-.2-21.79-1.79-30.94-11.53-31.6-33.62-.17-5.67,3.05-20.78,14.08-31.25,8.02-7.62,18.24-10.98,30.39-9.99,9.69.79,17.09,4.4,22.01,10.73,9.35,12.03,6.42,30,6.39,30.18l-.99-.17c.03-.18,2.88-17.72-6.2-29.4-4.74-6.1-11.91-9.58-21.3-10.34-11.85-.97-21.81,2.3-29.62,9.72-10.78,10.24-13.93,24.97-13.76,30.5.65,21.74,9.25,30.89,30.68,32.66,14.84,1.22,23.35-3.42,27.88-7.52,4.9-4.44,6.32-9.24,6.34-9.29l.96.27c-.05.19-5.38,17.73-30.46,17.73Z"/>
          </g>
          <g>
            <path class="st23" d="M309.24,241.38s-5.11-2.5-7.31,2.61c-2.2,5.11,7.16,3.95,7.16,3.95"/>
            <path class="st1" d="M306.97,248.56c-1.85,0-4.34-.28-5.39-1.67-.61-.81-.65-1.85-.11-3.1.7-1.62,1.74-2.7,3.11-3.2,2.35-.87,4.77.29,4.87.34l-.44.9s-2.15-1.03-4.09-.3c-1.1.41-1.95,1.3-2.53,2.66-.39.91-.39,1.59-.01,2.11,1.11,1.48,5.18,1.33,6.65,1.15l.12.99c-.22.03-1.1.13-2.19.13Z"/>
          </g>
          <ellipse class="st12" cx="331.02" cy="249.4" rx="3.8" ry="5.62" transform="translate(-38.69 436.71) rotate(-63.87)"/>
          <ellipse class="st12" cx="284.9" cy="241.31" rx="5.62" ry="3.8" transform="translate(-20.18 26.08) rotate(-5.06)"/>
        </g>
        <g>
          <g>
            <path class="st27" d="M302.06,253.51c-5.93.42-10.63-2.26-12.77,3.1-2.13,5.36,1.26,9.77,6.63,9.07,5.37-.7,16.46,8.78,21.03.62s-8.96-13.2-14.89-12.79Z"/>
            <path class="st1" d="M311.31,270.12c-2.74,0-5.78-1.17-8.47-2.2-2.64-1.01-5.13-1.97-6.85-1.74-2.7.35-5.08-.51-6.52-2.36-1.51-1.94-1.74-4.63-.64-7.39,1.65-4.15,4.8-3.88,8.45-3.56,1.51.13,3.07.26,4.75.15l.04.5-.04-.5c4.34-.31,12.46,2.14,15.33,6.66,1.35,2.13,1.36,4.5.04,6.87-1.5,2.67-3.67,3.57-6.08,3.57ZM296.52,265.14c1.88,0,4.22.9,6.68,1.84,5.18,1.98,10.53,4.04,13.32-.93,1.15-2.05,1.15-4.02,0-5.84-2.63-4.15-10.43-6.48-14.41-6.2-1.76.12-3.43-.02-4.91-.15-3.64-.32-6.05-.52-7.43,2.93-.96,2.42-.78,4.76.5,6.41,1.22,1.56,3.25,2.28,5.6,1.98.21-.03.43-.04.66-.04Z"/>
          </g>
          <g class="st17">
            <path class="st32" d="M296.79,266.98s1.04-9.64,8.86-7.66,6.73,8.46,2.67,9.69c-4.07,1.23-7.97,3.68-11.53-2.03Z"/>
          </g>
          <path class="st1" d="M311.31,270.12c-2.74,0-5.78-1.17-8.47-2.2-2.64-1.01-5.13-1.97-6.85-1.74-2.7.35-5.08-.51-6.52-2.36-1.51-1.94-1.74-4.63-.64-7.39,1.65-4.15,4.8-3.88,8.45-3.56,1.51.13,3.07.26,4.75.15l.04.5-.04-.5c4.34-.31,12.46,2.14,15.33,6.66,1.35,2.13,1.36,4.5.04,6.87-1.5,2.67-3.67,3.57-6.08,3.57ZM296.52,265.14c1.88,0,4.22.9,6.68,1.84,5.18,1.98,10.53,4.04,13.32-.93,1.15-2.05,1.15-4.02,0-5.84-2.63-4.15-10.43-6.48-14.41-6.2-1.76.12-3.43-.02-4.91-.15-3.64-.32-6.05-.52-7.43,2.93-.96,2.42-.78,4.76.5,6.41,1.22,1.56,3.25,2.28,5.6,1.98.21-.03.43-.04.66-.04Z"/>
        </g>
        <g>
          <path class="st23" d="M331.02,243.71c-3.89-11.08-12.88-7.49-12.88-7.49,0,0,3.89.9,6.29,3.59"/>
          <path class="st1" d="M331.02,244.21c-.21,0-.4-.13-.47-.33-1.23-3.51-3.1-5.85-5.57-6.97-1.88-.85-3.75-.82-5.03-.62,1.4.55,3.38,1.54,4.85,3.2.18.21.17.52-.04.71s-.52.16-.71-.04c-2.26-2.55-5.99-3.43-6.03-3.44-.21-.05-.37-.23-.39-.45-.02-.22.11-.42.31-.5.15-.06,3.72-1.45,7.44.24,2.72,1.23,4.77,3.77,6.1,7.55.09.26-.05.55-.31.64-.05.02-.11.03-.17.03Z"/>
        </g>
        <g>
          <path class="st23" d="M288.88,234.77c8.38-8.23,14.86-1.05,14.86-1.05,0,0-3.89-.91-7.23.46"/>
          <path class="st1" d="M288.88,235.27c-.13,0-.26-.05-.36-.15-.19-.2-.19-.51,0-.71,2.85-2.8,5.82-4.19,8.8-4.09,4.08.12,6.67,2.94,6.78,3.06.15.16.17.4.06.59-.11.19-.33.28-.54.23-.04,0-3.78-.85-6.93.43-.26.1-.55-.02-.65-.27-.1-.26.02-.55.27-.65,2.05-.84,4.26-.86,5.76-.74-1.06-.74-2.73-1.6-4.79-1.66-2.71-.06-5.41,1.2-8.05,3.81-.1.1-.22.14-.35.14Z"/>
        </g>
        <g>
          <path class="st27" d="M278.31,232.03s9.58.6,11.38-4.19,4.57-3.29,8.57-7.19c4-3.89,10.29-10.48,10.29-10.48,0,0-17.37-5.99-30.24,21.86Z"/>
          <path class="st1" d="M279.38,232.56c-.62,0-1.02-.02-1.1-.03l-.73-.05.31-.66c6.73-14.55,14.72-19.8,20.25-21.64,6.04-2.01,10.43-.55,10.61-.48l.74.25-.54.56c-.06.07-6.34,6.64-10.31,10.49-1.73,1.68-3.21,2.38-4.51,2.99-1.72.81-2.96,1.4-3.94,4.01-1.54,4.12-8.13,4.54-10.78,4.54ZM279.09,231.55c2.22.02,8.77-.24,10.13-3.89,1.12-2.99,2.66-3.72,4.45-4.56,1.23-.58,2.63-1.25,4.24-2.81,3.23-3.15,8.02-8.11,9.68-9.85-3.47-.7-17.59-1.9-28.51,21.1Z"/>
        </g>
        <g>
          <path class="st27" d="M350.93,248.62s-10.75-3.72-10.53-9.78c.22-6.05-3.49-5.69-6.1-11.77-2.6-6.08-6.48-16.15-6.48-16.15,0,0,21.72,1.39,23.1,37.7Z"/>
          <path class="st1" d="M351.46,249.33l-.69-.24c-.45-.16-11.09-3.92-10.86-10.27.12-3.33-.98-4.56-2.51-6.25-1.14-1.27-2.43-2.7-3.55-5.31-2.58-6.02-6.44-16.07-6.48-16.17l-.28-.73.78.05c.22.01,22.18,1.84,23.57,38.18l.03.73ZM328.6,211.53c.97,2.49,4.02,10.33,6.16,15.34,1.05,2.45,2.28,3.82,3.37,5.03,1.56,1.72,2.9,3.21,2.76,6.95-.17,4.75,7.17,8.09,9.5,9.02-.85-18.07-6.9-27.01-11.87-31.35-4.17-3.63-8.25-4.7-9.93-5Z"/>
        </g>
        <g>
          <g>
            <path class="st23" d="M341.1,247.6s13.58-5.59,14.37,6.39c.8,11.98-13.18,19.17-19.17,8.38"/>
            <path class="st1" d="M344.34,268.17c-3.42,0-6.47-1.95-8.47-5.55l.87-.49c2.28,4.11,6.05,5.85,10.09,4.66,4.38-1.29,8.59-6.1,8.14-12.77-.2-2.95-1.22-5.03-3.04-6.16-3.99-2.48-10.58.18-10.64.2l-.38-.92c.29-.12,7.13-2.88,11.55-.13,2.11,1.31,3.29,3.65,3.51,6.95.48,7.2-4.09,12.39-8.86,13.8-.94.28-1.87.41-2.78.41Z"/>
          </g>
          <g>
            <path class="st29" d="M340.64,262.86c0-.68.05-2.48,2.36-2.48,2.31,0,2.19,1.92,2.14,3.03s-1.07,2.19-2.87,1.76c-1.8-.43-1.63-1.63-1.63-2.31Z"/>
            <path class="st4" d="M343.04,265.77c-.28,0-.58-.04-.89-.11-2.05-.49-2.02-1.94-2.01-2.64v-.16c0-2.46,1.56-2.98,2.86-2.98.86,0,1.52.24,1.97.71.76.79.7,1.99.67,2.78-.03.78-.38,1.44-.95,1.87-.45.34-1.02.52-1.65.52ZM343,260.88c-1.64,0-1.86,1-1.86,1.98v.17c-.01.69-.03,1.35,1.24,1.65.69.16,1.28.08,1.71-.24.33-.25.53-.64.55-1.06.03-.72.07-1.63-.39-2.11-.26-.27-.68-.4-1.25-.4Z"/>
          </g>
          <g>
            <path class="st23" d="M341.5,255.59s2.79-6.12,8.38-3.33"/>
            <path class="st1" d="M341.95,255.79l-.91-.42c.06-.12,1.42-3.06,4.2-4.04,1.52-.54,3.16-.38,4.86.47l-.45.89c-1.45-.73-2.83-.87-4.08-.42-2.38.84-3.61,3.49-3.62,3.51Z"/>
          </g>
        </g>
        <g>
          <path class="st27" d="M314.74,204.28s-12.38.4-11.18,5.99c1.2,5.59,4.79,3.59,4.79,3.59,0,0-.4,11.18,7.59,5.99,0,0,3.59,9.18,8.38,2.4,4.79-6.79.8-5.59.8-5.59,0,0,3.59,5.59,6.79.4,3.19-5.19-6.79-13.58-17.17-12.78Z"/>
          <path class="st1" d="M320.76,225.25c-.13,0-.25,0-.38-.02-2.41-.29-4.08-3.36-4.67-4.64-2.08,1.23-3.82,1.47-5.16.71-2.28-1.29-2.64-5.09-2.69-6.71-.57.15-1.39.23-2.23-.15-1.24-.56-2.09-1.93-2.55-4.06-.24-1.13-.01-2.15.68-3.04,2.51-3.21,10.48-3.54,10.96-3.55,7.48-.56,14.64,3.48,17.23,7.73,1.27,2.09,1.41,4.15.39,5.81-.99,1.61-2.14,2.43-3.43,2.45-.75.01-1.5-.29-2.12-.7-.39.93-1.07,2.08-2.06,3.47-1.27,1.8-2.61,2.71-3.98,2.71ZM316.18,219.1l.22.57s1.7,4.27,4.1,4.56c1.11.14,2.25-.63,3.41-2.27,1.21-1.71,1.79-2.83,2.06-3.55-.76-.7-1.23-1.43-1.27-1.48l-.36-.56.64-.19c.14-.04,1.36-.38,1.95.44.25.35.32.83.19,1.45.52.4,1.15.67,1.79.69.92,0,1.79-.67,2.58-1.97,1.04-1.7.36-3.53-.39-4.77-2.44-3.99-9.2-7.8-16.31-7.25h-.02c-.08,0-7.97.29-10.21,3.17-.51.65-.67,1.38-.49,2.22.39,1.8,1.05,2.93,1.98,3.36,1.02.47,2.07-.09,2.08-.1l.77-.42-.03.87c0,.05-.15,5.22,2.19,6.54,1.1.62,2.66.29,4.62-.99l.51-.33Z"/>
        </g>
      </g>
      <g>
        <g>
          <path class="st23" d="M324.33,307.61s-4.79,17.17-12.78,20.36c-7.99,3.19-19.17,5.59-20.36,13.58-1.2,7.99,4.39,5.19,4.39,5.19,0,0,2.79,5.99,6.39,3.59,0,0,3.99,5.59,7.19,2.4,0,0,4.39,2.79,6.79-.8,2.4-3.59,3.19-6.79,3.19-6.79,0,0,26.75-4.39,27.55-31.14.8-26.75-22.36-6.39-22.36-6.39Z"/>
          <path class="st1" d="M312.56,354.27c-1.26,0-2.49-.44-3.34-.91-.76.64-1.61.94-2.55.85-2.17-.18-4.12-2.33-4.83-3.21-.81.42-1.64.52-2.49.28-2.02-.57-3.48-2.92-4.01-3.9-.76.28-2.3.67-3.47-.18-1.22-.88-1.62-2.81-1.18-5.72,1.03-6.88,9.13-9.78,16.28-12.33,1.55-.55,3.01-1.08,4.39-1.63,7.67-3.07,12.43-19.86,12.48-20.03l.04-.14.11-.1c.47-.41,11.59-10.08,18.35-6.9,3.43,1.62,5.06,6.22,4.84,13.68-.75,25.26-24.6,30.94-27.65,31.56-.26.9-1.17,3.61-3.18,6.63-1.03,1.54-2.43,2.06-3.8,2.06ZM309.08,352.1l.34.21c.16.1,4.01,2.49,6.1-.65,2.31-3.47,3.12-6.6,3.12-6.63l.08-.32.32-.05c.26-.04,26.35-4.65,27.13-30.67.21-7.03-1.22-11.32-4.26-12.75-5.84-2.75-15.99,5.66-17.16,6.65-.52,1.8-5.22,17.42-13.03,20.55-1.4.56-2.87,1.09-4.43,1.64-7.22,2.58-14.68,5.25-15.62,11.54-.37,2.47-.1,4.12.77,4.76,1.08.79,2.88-.08,2.9-.09l.46-.23.22.46s1.52,3.21,3.59,3.78c.7.2,1.37.07,2.07-.39l.4-.27.28.39s2.16,2.98,4.38,3.16c.75.06,1.43-.21,2.05-.83l.28-.28Z"/>
        </g>
        <g>
          <path class="st10" d="M320.73,300.83s.4,11.18-3.59,13.58c0,0,26.35,2.4,32.34,11.18,0,0,8.78-38.33-19.96-53.5,0,0-7.59-2.4-12.38,7.99"/>
          <path class="st1" d="M349.71,326.81l-.64-.95c-5.79-8.49-31.71-10.94-31.97-10.96l-1.52-.14,1.31-.79c3.7-2.22,3.35-13.02,3.35-13.13l1-.04c.02.43.31,9.72-2.87,13.22,5.07.56,24.55,3.16,30.84,10.38,1.12-6.27,5.49-38.47-19.92-51.88-.21-.06-7.15-2.08-11.69,7.75l-.91-.42c4.92-10.66,12.9-8.28,12.98-8.25,28.84,15.21,20.39,53.7,20.3,54.09l-.26,1.12Z"/>
        </g>
        <path class="st1" d="M296.06,346.88l-.96-.28c1.66-5.82,4.05-5.78,4.32-5.75l-.07,1s-1.84-.03-3.28,5.03Z"/>
        <path class="st1" d="M301.47,350.42c-.63-3.97,2.57-7.83,2.71-7.99l.77.64s-3.04,3.67-2.48,7.19l-.99.16Z"/>
        <path class="st1" d="M308.69,352.92c-1.9-4.85,1.68-8.3,1.72-8.33l.69.73c-.13.12-3.12,3.03-1.47,7.24l-.93.37Z"/>
      </g>
    </g>
  </g>
  <path class="st1" d="M641.85,485.74H117.84l-.15-.18c-39.05-46.3-64.37-118.58-66.07-188.63-.95-39.13,5.18-75.96,18.23-109.46,14.53-37.31,37.33-69.39,67.76-95.35,29.31-25,60.72-41.43,93.36-48.83,26.12-5.92,53.08-6.09,80.13-.53,43.42,8.94,73.25,30.06,76.77,32.64,2.52-2.41,19.97-18.41,36.89-18.21,6.8.09,12.73,2.76,17.63,7.93,8.47,8.95,12.35,16.91,11.51,23.67-.3,2.41-1.16,4.29-2.09,5.67,7.27-4.3,25.53-13.65,51.28-17,31.08-4.04,79.77.1,135.2,42.74,24.52,18.86,39.96,49.83,45.9,92.04,4.74,33.71,3.46,74.63-3.81,121.63-12.36,79.99-38.14,150.83-38.4,151.54l-.12.33ZM118.3,484.74h522.84c1.92-5.33,26.32-73.93,38.23-151.03,7.25-46.9,8.53-87.72,3.8-121.33-5.9-41.94-21.21-72.68-45.52-91.38-30.43-23.41-78.46-49.79-134.4-42.55-31.71,4.11-51.96,17.39-54.17,18.89-.12.09-.2.14-.22.15l-.56-.83s.06-.04.15-.1c.68-.49,3.85-3.03,4.45-7.92.79-6.45-2.99-14.13-11.24-22.84-4.7-4.97-10.39-7.53-16.91-7.62-.12,0-.24,0-.35,0-17.7,0-35.94,18.03-36.13,18.22l-.31.31-.35-.27c-.3-.23-30.91-23.29-76.75-32.72-26.9-5.53-53.72-5.35-79.69.54-32.48,7.36-63.73,23.71-92.91,48.61-30.3,25.85-53.01,57.8-67.48,94.95-13,33.38-19.12,70.08-18.17,109.08,1.7,69.75,26.86,141.69,65.69,187.83Z"/>
  <g>
    <path class="st18" d="M100.46,42.56l18.21,29.73c7.78,12.7,22.86,18.95,37.35,15.48l33.91-8.13c4.57-1.1,7.88,4.3,4.82,7.87l-22.65,26.51c-9.68,11.33-10.96,27.6-3.18,40.3l18.21,29.73c2.46,4.01-1.65,8.82-6,7.02l-32.21-13.35c-13.76-5.7-29.63-1.9-39.31,9.43l-22.65,26.51c-3.05,3.57-8.9,1.15-8.53-3.53l2.74-34.76c1.17-14.85-7.35-28.77-21.12-34.47l-32.21-13.35c-4.34-1.8-3.85-8.11.73-9.2l33.91-8.13c14.49-3.48,25.09-15.88,26.26-30.74l2.74-34.76c.37-4.69,6.52-6.16,8.98-2.15Z"/>
    <path class="st4" d="M83.31,215.88c-.69,0-1.4-.14-2.09-.42-2.18-.9-3.47-3.01-3.29-5.37l2.74-34.76c1.16-14.68-7.21-28.33-20.81-33.97l-32.21-13.35c-2.18-.9-3.47-3.01-3.29-5.37.19-2.36,1.79-4.23,4.09-4.78l33.91-8.13c14.32-3.44,24.72-15.61,25.88-30.29l2.74-34.76c.19-2.36,1.79-4.23,4.09-4.78,2.3-.55,4.58.39,5.81,2.41l18.21,29.73c7.69,12.56,22.48,18.69,36.8,15.25l33.91-8.13c2.29-.55,4.58.39,5.81,2.41,1.23,2.01,1.04,4.48-.49,6.27l-22.65,26.51c-9.57,11.2-10.82,27.16-3.13,39.71l18.21,29.73c1.23,2.01,1.04,4.48-.5,6.27-1.53,1.8-3.94,2.37-6.12,1.47l-32.21-13.35c-13.61-5.64-29.17-1.9-38.74,9.29l-22.65,26.51c-1.05,1.23-2.51,1.89-4.03,1.89ZM96.36,40.74c-.35,0-.7.04-1.05.13-1.87.45-3.17,1.98-3.32,3.89l-2.74,34.76c-1.19,15.11-11.9,27.65-26.64,31.18l-33.91,8.13c-1.87.45-3.17,1.98-3.32,3.89-.15,1.92.9,3.63,2.67,4.36l32.21,13.35c14.01,5.8,22.62,19.86,21.42,34.97l-2.74,34.76c-.15,1.92.9,3.63,2.67,4.36,1.77.74,3.73.27,4.98-1.19l22.65-26.51c9.85-11.53,25.88-15.37,39.88-9.57l32.21,13.35c1.78.74,3.73.27,4.98-1.19,1.25-1.46,1.41-3.46.4-5.1l-18.21-29.73c-7.92-12.93-6.62-29.36,3.22-40.89l22.65-26.51c1.25-1.46,1.41-3.46.4-5.1-1-1.64-2.86-2.41-4.73-1.96l-33.91,8.13c-14.74,3.54-29.97-2.77-37.89-15.7l-18.21-29.73c-.81-1.33-2.19-2.08-3.67-2.08Z"/>
  </g>
</svg>