<?xml version="1.0" encoding="UTF-8"?>
<svg id="Layer_1" xmlns="http://www.w3.org/2000/svg" xmlns:xlink="http://www.w3.org/1999/xlink" version="1.1" viewBox="0 0 530.73 517.22">
  <!-- Generator: Adobe Illustrator 29.8.2, SVG Export Plug-In . SVG Version: 2.1.1 Build 3)  -->
  <defs>
    <style>
      .st0 {
        fill: #ff7fec;
      }

      .st1 {
        fill: none;
      }

      .st2 {
        fill: #0c0907;
      }

      .st3 {
        fill: #dde069;
      }

      .st4 {
        fill: #e7cda9;
      }

      .st5 {
        fill: #c4c65c;
      }

      .st6 {
        fill: #889594;
      }

      .st7 {
        fill: #271911;
      }

      .st8 {
        fill: #a56d3f;
      }

      .st9 {
        fill: #fce9ba;
      }

      .st10 {
        fill: #e2e2e2;
      }

      .st11 {
        fill: #c68d52;
      }

      .st12 {
        fill: #b17a50;
      }

      .st13 {
        fill: #db9e71;
      }

      .st14 {
        fill: #edb2be;
      }

      .st15 {
        fill: #ffcb70;
      }

      .st16 {
        fill: #c7e5da;
      }

      .st17 {
        fill: #896142;
      }

      .st18 {
        fill: #f26a3b;
      }

      .st19 {
        fill: #fef0d9;
      }

      .st20 {
        fill: #2a2520;
      }

      .st21 {
        fill: #e5d9eb;
      }

      .st22 {
        fill: #0e0c0b;
      }

      .st23 {
        clip-path: url(#clippath);
      }
    </style>
    <clipPath id="clippath">
      <path class="st1" d="M310.06,41.19S156.36-.13,91.69,92.66C27.02,185.45,12.92,352.7,142.27,388.08c31.92,8.73,239.39,10.88,284.89-33,45.49-43.89,88.54-282.45-117.09-313.88Z"/>
    </clipPath>
  </defs>
  <g>
    <g class="st23">
      <g>
        <g>
          <path class="st16" d="M310.06,41.19S156.36-.13,91.69,92.66c-64.67,92.79-73.95,219.94-.22,241.18,73.73,21.23,92.55,24.07,117.65,43.89s172.55,21.23,218.04-22.65c45.49-43.89,88.54-282.45-117.09-313.88"/>
          <path class="st2" d="M286.86,391.48c-36.54,0-67.56-5.08-78.05-13.36-20.95-16.54-37.26-21.13-85.67-34.77-9.3-2.62-19.84-5.59-31.8-9.03-21.38-6.16-37.06-21.77-45.35-45.15-8.74-24.66-9.1-57.76-1-93.21,8.15-35.65,24.59-72.44,46.3-103.59,14.81-21.25,35.55-37.18,61.63-47.37,20.85-8.14,45.14-12.64,72.2-13.38,45.53-1.24,83.82,8.74,85.05,9.07,93.87,14.36,130.72,71.27,145.1,116.49,11.24,35.35,13.24,77.6,5.63,118.96-6.5,35.31-19.29,65.69-33.38,79.29-9.47,9.14-39.83,30.87-116.99,35.35-8.04.47-15.97.69-23.66.69ZM233.03,32.52c-2.61,0-5.24.03-7.91.11-26.94.74-51.12,5.22-71.85,13.31-25.89,10.11-46.47,25.92-61.16,47-21.64,31.04-38.03,67.71-46.15,103.24-8.06,35.27-7.72,68.17.97,92.65,8.18,23.06,23.63,38.46,44.68,44.52,11.96,3.44,22.5,6.41,31.8,9.03,48.56,13.67,64.92,18.28,86.02,34.94,12.33,9.73,55.76,15.09,101.04,12.46,54.09-3.14,96.5-15.93,116.35-35.08,13.95-13.46,26.63-43.63,33.09-78.75,7.58-41.21,5.59-83.28-5.6-118.48-14.29-44.95-50.94-101.53-144.32-115.8h-.05c-.36-.11-34.57-9.16-76.91-9.16Z"/>
        </g>
        <g>
          <path class="st15" d="M31,250.87s367.07-35.04,449.42-6.37c82.35,28.67-10.59,266.5-178.83,239.95-168.24-26.54-342.36-24.42-342.36-24.42L31,250.87Z"/>
          <path class="st2" d="M327.69,487.04c-8.38,0-17.11-.65-26.18-2.08-166.27-26.23-340.53-24.44-342.27-24.41h-.71s.23-.66.23-.66L30.63,250.41l.32-.03c3.67-.35,368.12-34.72,449.63-6.34,27.54,9.59,37.6,43.68,26.24,88.97-10.25,40.88-36.03,82.34-68.96,110.89-23.79,20.63-61.03,43.14-110.17,43.15ZM-32.4,459.5c36.79,0,188.48,1.49,334.06,24.46,61.85,9.76,107.85-16.82,135.54-40.83,32.78-28.42,58.44-69.68,68.64-110.38,11.22-44.74,1.41-78.38-25.6-87.78-80.26-27.94-436.2,5.17-448.89,6.37l-71.43,208.19c1.18,0,3.78-.03,7.67-.03Z"/>
        </g>
      </g>
    </g>
    <path class="st2" d="M219.58,393.66c-36.43,0-66.45-2.09-77.44-5.1-43.25-11.83-73.98-39.79-88.85-80.86-11.43-31.56-13.34-69.72-5.52-110.34,7.3-37.92,22.75-75.2,43.51-104.98,14.81-21.25,35.55-37.18,61.63-47.37,20.85-8.14,45.14-12.64,72.2-13.38,45.53-1.24,83.82,8.74,85.05,9.07,93.87,14.36,130.72,71.27,145.1,116.49,11.24,35.35,13.24,77.6,5.63,118.96-6.5,35.31-19.29,65.69-33.38,79.29-26.15,25.22-103.86,33.61-147.85,36.37-20.57,1.29-41.19,1.85-60.08,1.85ZM233.03,32.52c-2.61,0-5.24.03-7.91.11-26.94.74-51.12,5.22-71.85,13.31-25.89,10.11-46.47,25.92-61.16,47-20.68,29.67-36.07,66.81-43.35,104.6-7.79,40.45-5.89,78.42,5.48,109.81,14.76,40.75,45.25,68.5,88.18,80.24,14.35,3.93,71.47,7.33,137.19,3.21,43.86-2.75,121.3-11.09,147.22-36.09,13.95-13.46,26.63-43.63,33.09-78.75,7.58-41.21,5.59-83.28-5.6-118.48-14.29-44.95-50.94-101.53-144.32-115.8h-.05c-.36-.11-34.57-9.16-76.91-9.16Z"/>
  </g>
  <g>
    <g>
      <rect class="st11" x="73.19" y="19.94" width="110.37" height="123.4"/>
      <path class="st2" d="M184.07,143.84h-111.37V19.44h111.37v124.4ZM73.69,142.84h109.37V20.44h-109.37v122.4Z"/>
    </g>
    <g>
      <rect class="st3" x="83.19" y="29.91" width="90.38" height="103.46"/>
      <path class="st7" d="M174.07,133.87h-91.38V29.41h91.38v104.46ZM83.69,132.87h89.38V30.41h-89.38v102.46Z"/>
    </g>
    <g>
      <g>
        <path class="st5" d="M126.63,84.59s-1.51-32.51,38.82-48.14c0,0,9.07,34.03-38.82,48.14"/>
        <path class="st2" d="M126.16,85.25l-.03-.64c-.02-.33-1.06-33.05,39.13-48.63l.52-.2.14.54c.09.35,8.65,34.66-39.16,48.75l-.61.18ZM165.09,37.12c-20.27,8.01-29.51,20.4-33.69,29.41-3.83,8.26-4.24,15.27-4.27,17.38,13.43-4.06,30.39-12.33,36.38-28.81,3.11-8.55,1.99-15.95,1.58-17.98Z"/>
      </g>
      <g>
        <path class="st5" d="M123.87,97.2s-30.78-9.73-32.16-52.96c0,0,34.71,3.1,32.16,52.96"/>
        <path class="st2" d="M124.34,97.87l-.62-.2c-.31-.1-31.13-10.34-32.51-53.42l-.02-.56.56.05c.35.03,35.16,3.72,32.62,53.48l-.03.65ZM92.23,44.81c.84,21.78,9.36,34.7,16.4,41.73,6.43,6.42,12.81,9.2,14.78,9.96.62-14.02-1.53-32.78-14.94-44.06-6.94-5.84-14.19-7.31-16.24-7.63Z"/>
      </g>
      <g>
        <path class="st5" d="M123.52,108.52s.3-16.21,20.93-23.04c0,0,3.45,17.16-20.93,23.04"/>
        <path class="st2" d="M123.01,109.16v-.65c.02-.17.56-16.65,21.28-23.51l.54-.18.11.55c.04.18,3.26,17.7-21.3,23.63l-.63.15ZM144.05,86.14c-10.09,3.49-14.99,9.31-17.33,13.61-1.97,3.62-2.5,6.79-2.64,8.12,20.74-5.29,20.33-18.75,19.97-21.73Z"/>
      </g>
      <path class="st2" d="M123.11,123.67c0-.25-.49-25.18,1.56-35.13,2.07-10.03,21.45-29.92,22.28-30.76l.71.7c-.2.2-20.01,20.52-22.01,30.27-2.03,9.83-1.54,34.66-1.53,34.91l-1,.02Z"/>
      <path class="st2" d="M123.37,97.23c-.99-16.76-21.59-38.04-21.8-38.25l.72-.7c.05.05,5.32,5.47,10.64,12.92,7.17,10.03,11.02,18.77,11.44,25.98l-1,.06Z"/>
    </g>
  </g>
  <g>
    <path class="st0" d="M11.23,281.75l13.74,2.92c13.6,2.89,27.51-3.3,34.46-15.34l7.02-12.16c2.75-4.76,9.98-3.22,10.55,2.24l1.47,13.97c1.45,13.83,11.64,25.14,25.24,28.03l13.74,2.92c5.37,1.14,6.15,8.49,1.13,10.73l-12.83,5.71c-12.7,5.65-20.31,18.84-18.86,32.67l1.47,13.97c.57,5.46-6.18,8.47-9.85,4.39l-9.4-10.44c-9.3-10.33-24.2-13.5-36.9-7.84l-12.83,5.71c-5.02,2.23-9.96-3.26-7.22-8.02l7.02-12.16c6.95-12.04,5.36-27.19-3.94-37.52l-9.4-10.44c-3.68-4.08.02-10.48,5.39-9.34Z"/>
    <path class="st2" d="M82.67,374.18c-1.69,0-3.33-.71-4.54-2.06l-9.4-10.44c-9.19-10.2-23.78-13.31-36.32-7.72l-12.83,5.71c-2.49,1.11-5.27.51-7.1-1.51-1.82-2.02-2.12-4.86-.76-7.21l7.02-12.16c6.86-11.89,5.3-26.73-3.88-36.93l-9.4-10.44c-1.82-2.02-2.12-4.86-.76-7.21,1.36-2.36,3.96-3.51,6.63-2.95l13.74,2.92c13.43,2.86,27.06-3.22,33.92-15.1l7.02-12.16c1.36-2.36,3.96-3.52,6.63-2.95,2.66.57,4.57,2.68,4.85,5.39l1.47,13.97c1.44,13.65,11.42,24.74,24.85,27.6l13.74,2.92c2.66.57,4.57,2.68,4.85,5.39.28,2.71-1.14,5.17-3.63,6.28l-12.83,5.71c-12.54,5.58-20,18.51-18.57,32.16l1.47,13.97c.28,2.71-1.14,5.17-3.63,6.28-.83.37-1.7.55-2.55.55ZM45.29,350.21c9.02,0,17.85,3.76,24.19,10.8l9.4,10.44c1.53,1.7,3.86,2.19,5.95,1.26,2.08-.93,3.28-2.99,3.04-5.26l-1.47-13.97c-1.48-14.08,6.22-27.42,19.15-33.18l12.83-5.71c2.08-.93,3.28-2.99,3.04-5.26s-1.83-4.04-4.07-4.52l-13.74-2.92c-13.85-2.94-24.15-14.38-25.63-28.47l-1.47-13.97c-.24-2.27-1.83-4.04-4.07-4.52-2.24-.48-4.41.5-5.55,2.47l-7.02,12.16c-7.08,12.26-21.15,18.53-35,15.58l-13.74-2.92c-2.23-.48-4.41.5-5.55,2.47-1.14,1.98-.89,4.35.64,6.04l9.4,10.44c9.48,10.52,11.09,25.84,4,38.1l-7.02,12.16c-1.14,1.98-.89,4.35.63,6.04,1.53,1.7,3.86,2.19,5.95,1.26l12.83-5.71c4.29-1.91,8.81-2.83,13.28-2.83Z"/>
  </g>
  <g>
    <path class="st21" d="M390.78,100.94l13.74,2.92c13.6,2.89,27.51-3.3,34.46-15.34l7.02-12.16c2.75-4.76,9.98-3.22,10.55,2.24l1.47,13.97c1.45,13.83,11.64,25.14,25.24,28.03l13.74,2.92c5.37,1.14,6.15,8.49,1.13,10.73l-12.83,5.71c-12.7,5.65-20.31,18.84-18.86,32.67l1.47,13.97c.57,5.46-6.18,8.47-9.85,4.39l-9.4-10.44c-9.3-10.33-24.2-13.5-36.9-7.84l-12.83,5.71c-5.02,2.23-9.96-3.26-7.22-8.02l7.02-12.16c6.95-12.04,5.36-27.19-3.94-37.52l-9.4-10.44c-3.68-4.08.02-10.48,5.39-9.34Z"/>
    <path class="st2" d="M462.22,193.37c-1.69,0-3.33-.71-4.54-2.06l-9.4-10.44c-9.19-10.2-23.78-13.3-36.32-7.72l-12.83,5.71c-2.49,1.11-5.27.52-7.09-1.51-1.82-2.02-2.12-4.86-.76-7.21l7.02-12.16c6.86-11.89,5.3-26.73-3.88-36.93l-9.4-10.44c-1.82-2.02-2.12-4.86-.76-7.21s3.97-3.52,6.63-2.95l13.74,2.92c13.43,2.86,27.06-3.22,33.92-15.1l7.02-12.16c1.36-2.36,3.96-3.52,6.63-2.95,2.66.57,4.57,2.68,4.85,5.39l1.47,13.97c1.44,13.65,11.42,24.74,24.85,27.6l13.74,2.92c2.66.57,4.57,2.68,4.85,5.39.28,2.71-1.14,5.17-3.63,6.28l-12.83,5.71c-12.54,5.58-20,18.51-18.57,32.16l1.47,13.97c.29,2.71-1.14,5.17-3.63,6.28-.83.37-1.7.55-2.55.55ZM424.83,169.41c9.02,0,17.85,3.76,24.19,10.8l9.4,10.44c1.53,1.7,3.86,2.19,5.95,1.26,2.08-.93,3.28-2.99,3.04-5.26l-1.47-13.97c-1.48-14.08,6.22-27.42,19.16-33.18l12.83-5.71c2.08-.93,3.28-2.99,3.04-5.26s-1.83-4.04-4.07-4.52l-13.74-2.92c-13.85-2.94-24.16-14.39-25.64-28.47l-1.47-13.97c-.24-2.27-1.83-4.04-4.07-4.52-2.23-.47-4.41.5-5.55,2.47l-7.02,12.16c-7.08,12.26-21.15,18.52-35,15.58l-13.74-2.92c-2.23-.48-4.41.5-5.55,2.47-1.14,1.98-.89,4.35.63,6.04l9.4,10.44c9.48,10.52,11.09,25.84,4,38.1l-7.02,12.16c-1.14,1.98-.89,4.35.64,6.04,1.53,1.69,3.86,2.19,5.94,1.26l12.83-5.71c4.29-1.91,8.81-2.83,13.28-2.83Z"/>
  </g>
  <g>
    <g>
      <path class="st4" d="M319.66,351.31c76.23,0,124.45,39.71,124.45,64.89s-109.84,100.15-247.77,86.03c-183.25-18.76-77.57-104.13-21.41-119.24,56.17-15.11,68.5-31.68,144.73-31.68Z"/>
      <path class="st2" d="M230.61,504.47c-11.22,0-22.67-.55-34.33-1.75-45.83-4.69-100.97-16.7-103.44-47.27-1.09-13.53,8.71-29.33,27.59-44.47,16.04-12.86,36.87-23.77,54.36-28.48,17.06-4.59,30.35-9.41,42.07-13.67,27.74-10.07,49.65-18.03,102.79-18.03,34.16,0,66.51,8.19,91.07,23.07,20.9,12.66,33.88,28.87,33.88,42.31,0,5.79-5.53,13.97-15.56,23.03-31.12,28.09-106.62,65.25-198.44,65.25ZM319.66,351.81c-52.96,0-74.8,7.93-102.45,17.97-11.74,4.26-25.05,9.09-42.15,13.69-17.37,4.67-38.06,15.51-54,28.29-18.62,14.93-28.28,30.41-27.22,43.61,2.41,29.89,57.09,41.71,102.54,46.36,11.62,1.19,23.06,1.74,34.24,1.74,91.53,0,166.75-37,197.75-64.99,9.82-8.87,15.23-16.78,15.23-22.29,0-25.63-49.44-64.39-123.95-64.39Z"/>
    </g>
    <g>
      <path class="st8" d="M282.45,131.03c-7.92,22.61-26.76,40.57-39.31,45.27-12.55,4.7-48.78,22.62-71.86,17.34l13.56-38.34c3.51,1.73,47.56-12.09,52.36-16.56,0,0,14.42-14.42,22.29-32.34l22.97,24.63Z"/>
      <path class="st2" d="M180.49,195.09c-3.27,0-6.41-.3-9.33-.97l-.55-.12,13.93-39.4.5.25c3.33,1.64,47.38-12.37,51.8-16.48.13-.13,14.43-14.55,22.17-32.17l.31-.7,23.69,25.41-.1.29c-7.76,22.15-26.23,40.57-39.61,45.57-2,.75-4.62,1.84-7.66,3.11-13.36,5.57-36.51,15.22-55.16,15.22ZM171.93,193.27c19.24,4.05,47.88-7.88,63.33-14.32,3.05-1.27,5.68-2.37,7.69-3.12,13.1-4.9,31.2-22.93,38.92-44.68l-22.25-23.86c-7.88,17.48-21.94,31.65-22.08,31.8-4.89,4.55-46.08,17.6-52.39,16.8l-13.22,37.39Z"/>
    </g>
    <g>
      <g>
        <path class="st8" d="M182.08,429.22s-7.85,7.52.33,14.07c8.18,6.54,25.84,7.2,32.38,10.14,6.54,2.94,20.28,5.56,31.07,1.96,10.79-3.6,25.84-9.16,10.14-23.55-15.7-14.39-73.92-2.62-73.92-2.62Z"/>
        <path class="st2" d="M234.04,457.64c-7.89,0-15.38-1.93-19.45-3.76-2.35-1.06-6.15-1.81-10.55-2.68-7.42-1.47-16.66-3.3-21.94-7.52-2.48-1.98-3.79-4.26-3.9-6.77-.2-4.42,3.39-7.9,3.54-8.05l.1-.1.14-.03c.15-.03,14.78-2.96,31.14-4.1,22.06-1.53,36.61.77,43.22,6.84,5.37,4.92,7.59,9.14,6.79,12.9-1.23,5.75-9.12,8.83-17.11,11.49-3.83,1.27-7.96,1.78-11.98,1.78ZM182.32,429.68c-.56.58-3.3,3.62-3.13,7.19.1,2.21,1.29,4.23,3.53,6.02,5.08,4.07,14.19,5.87,21.51,7.32,4.46.88,8.32,1.65,10.77,2.75,6.01,2.71,19.67,5.63,30.71,1.94,5.7-1.9,15.23-5.08,16.44-10.75.71-3.34-1.47-7.36-6.48-11.96-14.95-13.71-70.06-3.17-73.34-2.52Z"/>
      </g>
      <g>
        <g>
          <path class="st13" d="M194.08,353.57s-9.5,57.96-10.59,60.36c-1.09,2.4-10.9,16.14,4.58,21.59,15.48,5.45,38.82,12.65,42.3,12.65s9.38,2.62,12.43-2.62c0,0,7.85,1.31,7.85-3.27,0,0,3.71,1.53,6.54-2.18,0,0,5.45-1.09,4.36-6.54-1.09-5.45-10.69-11.12-16.14-12.87-5.45-1.74-19.41-8.29-19.63-13.08-.22-4.8,6.57-54.6,6.57-54.6l-7.88-42.23-29.28,8.45-1.13,34.35Z"/>
          <path d="M236.78,449.32c-1.27,0-2.54-.19-3.71-.37-.98-.15-1.91-.29-2.69-.29-3.75,0-27.97-7.57-42.47-12.68-4.37-1.54-7.18-3.89-8.35-6.98-2.03-5.36,1.44-11.58,2.92-14.23.25-.46.46-.81.56-1.05.87-1.92,7.9-44.07,10.54-60.2l1.14-34.68,30.16-8.7,8,42.85v.08c-.08.5-6.79,49.81-6.58,54.51.2,4.33,13.6,10.81,19.28,12.63,4.99,1.6,15.29,7.3,16.47,13.25,1.05,5.27-3.56,6.81-4.56,7.08-2.29,2.88-5.13,2.66-6.38,2.38-.13.8-.51,1.48-1.13,2-1.95,1.65-5.76,1.31-6.92,1.16-1.64,2.58-3.95,3.23-6.28,3.23ZM195.69,319.59l-1.12,34.05c-.39,2.37-9.52,58.06-10.62,60.49-.12.26-.33.64-.6,1.13-1.41,2.53-4.72,8.46-2.86,13.39,1.06,2.81,3.67,4.96,7.75,6.4,15.8,5.56,38.81,12.62,42.14,12.62.85,0,1.82.15,2.84.3,3.28.5,6.99,1.05,9.16-2.67l.17-.3.34.06s4.53.73,6.45-.89c.55-.47.82-1.09.82-1.89v-.74l.69.28c.14.06,3.4,1.32,5.96-2.02l.11-.15.18-.04c.2-.04,4.95-1.07,3.97-5.95-1.06-5.29-10.7-10.86-15.8-12.49-4.33-1.39-19.72-8.02-19.97-13.54-.21-4.74,6.16-51.65,6.57-54.61l-7.77-41.61-28.4,8.19Z"/>
        </g>
        <path class="st2" d="M243.29,445.66l-.97-.23c.64-2.65.26-4.89-1.11-6.66-3.53-4.54-12.49-4.71-12.58-4.71v-1c.4,0,9.55.18,13.37,5.1,1.57,2.02,2.01,4.55,1.3,7.51Z"/>
        <path class="st2" d="M251.14,442.84l-.96-.27c2.24-8.15-10.01-12-10.13-12.04l.29-.96c.13.04,13.3,4.17,10.8,13.26Z"/>
        <path class="st2" d="M257.46,440.44l-.96-.27c2.24-8.15-10.01-12-10.13-12.04l.29-.96c.13.04,13.3,4.17,10.8,13.26Z"/>
        <g>
          <path class="st8" d="M213.15,447.4s-1.96-16.68,23.88-30.75l-8.83-5.23s-22.57,9.16-24.21,30.42"/>
          <path class="st2" d="M212.65,447.46c-.08-.69-1.67-16.85,23.37-30.82l-7.86-4.66c-2.34,1.03-22.17,10.33-23.67,29.9l-1-.08c1.64-21.32,24.29-30.75,24.52-30.84l.23-.09,9.8,5.81-.77.42c-25.2,13.72-23.64,30.09-23.62,30.25l-.99.12Z"/>
        </g>
      </g>
    </g>
    <g>
      <g>
        <path class="st9" d="M315.11,390.07s7.61,7.29-.32,13.63c-7.92,6.34-25.04,6.97-31.38,9.83-6.34,2.85-19.65,5.39-30.11,1.9-10.46-3.49-25.04-8.88-9.83-22.82,15.22-13.95,71.64-2.54,71.64-2.54Z"/>
        <path class="st22" d="M264.75,417.63c-3.91,0-7.91-.49-11.62-1.72-7.74-2.58-15.4-5.57-16.59-11.15-.78-3.65,1.37-7.75,6.58-12.52,6.41-5.88,20.51-8.11,41.9-6.63,15.86,1.1,30.04,3.94,30.18,3.97l.14.03.1.1c.15.14,3.63,3.53,3.44,7.81-.11,2.44-1.38,4.65-3.79,6.57-5.12,4.09-14.07,5.87-21.27,7.29-4.27.85-7.95,1.58-10.22,2.6-3.95,1.78-11.21,3.64-18.86,3.64ZM273.16,386.2c-12.18,0-23.72,1.61-29.36,6.78-4.85,4.45-6.97,8.34-6.28,11.57,1.17,5.49,10.41,8.57,15.93,10.41,10.7,3.57,23.93.74,29.75-1.88,2.38-1.07,6.11-1.81,10.44-2.67,7.09-1.4,15.91-3.15,20.84-7.09,2.17-1.73,3.32-3.7,3.41-5.83.15-3.46-2.48-6.38-3.03-6.95-1.97-.39-22.61-4.33-41.7-4.33Z"/>
      </g>
      <g>
        <g>
          <path class="st8" d="M306.24,331.32s6.44,44.91,7.5,47.24c1.06,2.32,10.57,15.64-4.44,20.92-15,5.28-37.62,12.26-41,12.26-3.38,0-9.09,2.54-12.05-2.54,0,0-7.61,1.27-7.61-3.17,0,0-3.59,1.48-6.34-2.11,0,0-5.28-1.06-4.23-6.34,1.06-5.28,10.36-10.78,15.64-12.47,5.28-1.69,21.81-8.31,22.02-12.96.21-4.65,2.82-55.75,2.82-55.75l27.69,14.92Z"/>
          <path class="st2" d="M262.09,412.87c-2.26,0-4.5-.63-6.09-3.13-1.14.15-4.82.46-6.71-1.13-.6-.51-.97-1.16-1.1-1.93-1.22.27-3.96.46-6.18-2.32-.99-.27-5.45-1.77-4.43-6.88,1.15-5.77,11.14-11.3,15.98-12.85,6.3-2.02,21.49-8.48,21.67-12.5.21-4.6,2.79-55.24,2.82-55.75l.04-.79,28.61,15.42.04.25c1.79,12.47,6.61,45.25,7.46,47.1.11.23.3.58.55,1.02,1.44,2.57,4.8,8.6,2.83,13.8-1.14,3-3.86,5.28-8.1,6.78-14.05,4.95-37.52,12.29-41.16,12.29-.75,0-1.65.14-2.6.28-1.14.17-2.37.36-3.6.36ZM256.51,408.65l.17.3c2.1,3.6,5.69,3.06,8.86,2.58.99-.15,1.93-.29,2.75-.29,3.23,0,25.52-6.84,40.83-12.23,3.95-1.39,6.47-3.47,7.5-6.19,1.8-4.77-1.4-10.51-2.77-12.96-.26-.47-.47-.84-.58-1.09-1.04-2.3-6.93-43.15-7.5-47.12l-26.77-14.42c-.33,6.49-2.58,50.68-2.77,54.96-.24,5.22-17.98,12.01-22.36,13.41-4.94,1.58-14.28,6.97-15.3,12.09-.94,4.72,3.64,5.71,3.84,5.75l.18.04.11.15c2.47,3.23,5.62,2.01,5.75,1.95l.69-.28v.74c0,.77.26,1.36.79,1.82,1.85,1.57,6.19.87,6.23.86l.34-.06Z"/>
        </g>
        <path class="st2" d="M255.76,409.32c-.69-2.88-.27-5.33,1.26-7.3,3.71-4.77,12.58-4.94,12.96-4.94v1c-.07,0-8.76.17-12.17,4.56-1.33,1.71-1.69,3.88-1.07,6.45l-.97.23Z"/>
        <path class="st2" d="M248.16,406.58c-2.43-8.82,10.35-12.83,10.48-12.87l.29.96c-.12.04-11.98,3.76-9.81,11.65l-.96.27Z"/>
        <path class="st2" d="M242.03,404.26c-2.43-8.82,10.35-12.83,10.48-12.87l.29.96c-.12.04-11.98,3.76-9.81,11.65l-.96.27Z"/>
        <g>
          <path class="st16" d="M258.74,401.2c2.51-1.44,5.31,1.45,3.7,3.84-.02.03-.05.07-.07.11-2.48,3.53-7.51,4.08-7.65.78-.08-1.96,2.17-3.66,4.02-4.72Z"/>
          <path class="st2" d="M257.19,408.62c-.38,0-.73-.05-1.06-.14-1.17-.34-1.87-1.27-1.92-2.54-.09-2.2,2.27-4.03,4.28-5.18h0c1.57-.9,3.16-.33,4.05.62,1.04,1.12,1.17,2.67.31,3.93l-.08.11c-1.5,2.14-3.79,3.19-5.58,3.19ZM258.99,401.63c-1.44.83-3.85,2.48-3.77,4.27.04.85.44,1.39,1.21,1.62,1.46.43,4-.46,5.54-2.66l.07-.1c.71-1.05.33-2.11-.21-2.7-.57-.62-1.65-1.1-2.82-.43h0Z"/>
        </g>
        <g>
          <path class="st16" d="M250.36,399.48c1.99-1.31,4.41.94,3.2,2.98-.02.03-.04.06-.05.09-1.87,3.03-5.96,3.73-6.22,1.01-.16-1.61,1.61-3.12,3.08-4.09Z"/>
          <path class="st2" d="M249.22,405.76c-.24,0-.47-.02-.68-.07-1.01-.24-1.65-.99-1.76-2.07-.18-1.85,1.7-3.5,3.3-4.55h0c1.27-.84,2.65-.45,3.44.31.93.89,1.12,2.24.46,3.35l-.06.1c-1.2,1.95-3.19,2.95-4.71,2.95ZM250.64,399.9h0c-1.94,1.28-2.96,2.56-2.86,3.62.06.66.4,1.06.99,1.2,1.19.28,3.17-.57,4.31-2.42.56-.95.21-1.76-.24-2.2-.47-.45-1.33-.77-2.2-.2Z"/>
        </g>
        <g>
          <path class="st16" d="M244.87,396.31c1.99-1.31,4.41.94,3.2,2.98-.02.03-.04.06-.05.09-1.87,3.03-5.96,3.73-6.22,1.01-.16-1.61,1.61-3.12,3.08-4.09Z"/>
          <path class="st2" d="M243.73,402.59c-.24,0-.47-.02-.68-.07-1.01-.24-1.65-.99-1.76-2.07-.18-1.85,1.7-3.5,3.3-4.55h0c1.27-.84,2.65-.45,3.44.31.93.89,1.12,2.24.46,3.35l-.06.1c-1.2,1.95-3.19,2.94-4.71,2.94ZM245.14,396.73h0c-1.94,1.28-2.96,2.56-2.86,3.62.06.66.4,1.06.99,1.2,1.19.28,3.17-.57,4.31-2.42.56-.95.21-1.76-.24-2.2-.47-.45-1.33-.77-2.2-.2Z"/>
        </g>
        <g>
          <path class="st16" d="M240.06,393.16c1.52-1,3.38.72,2.45,2.29-.01.02-.03.05-.04.07-1.43,2.32-4.57,2.86-4.77.77-.12-1.23,1.24-2.39,2.36-3.13Z"/>
          <path class="st2" d="M239.21,398.09c-.19,0-.38-.02-.56-.06-.83-.19-1.35-.81-1.44-1.69-.11-1.17.78-2.41,2.58-3.6h0c.89-.58,2.01-.48,2.78.25.76.72.91,1.81.38,2.71-.9,1.45-2.43,2.39-3.74,2.39ZM240.34,393.57h0c-1.45.95-2.21,1.9-2.14,2.67.04.45.26.72.67.81.87.21,2.33-.43,3.17-1.8.39-.67.17-1.22-.17-1.54-.33-.31-.93-.54-1.54-.14Z"/>
        </g>
        <g>
          <path class="st9" d="M284.99,411s1.9-16.17-23.14-29.8l8.56-5.07s21.87,8.88,23.46,29.48"/>
          <path class="st22" d="M285.49,411.05l-.99-.12c.02-.16,1.53-16.01-22.88-29.3l-.77-.42,9.53-5.65.23.09c.22.09,22.18,9.23,23.77,29.91l-1,.08c-1.46-18.94-20.62-27.94-22.92-28.96l-7.59,4.5c24.25,13.54,22.71,29.2,22.63,29.87Z"/>
        </g>
      </g>
    </g>
    <g>
      <g>
        <path class="st9" d="M382.52,381.21s9.9,2.04,12.24,9.9c2.33,7.87-.58,15.15-14.57,21.85-13.98,6.7-25.64,15.15-36.12,14.86s-31.46-8.45-33.5-14.86c-2.04-6.41,5.83-16.31,16.9-17.19,11.07-.87,55.06-14.57,55.06-14.57Z"/>
        <path class="st22" d="M344.61,428.32c-.18,0-.37,0-.55,0-10.22-.28-31.81-8.44-33.96-15.21-.84-2.64-.12-5.93,1.97-9.04,2.6-3.87,8.01-8.22,15.37-8.8,10.89-.86,54.51-14.41,54.95-14.54l.12-.04.13.03c.42.08,10.23,2.19,12.61,10.25,2.71,9.16-2,16.29-14.83,22.44-3.76,1.8-7.35,3.73-10.81,5.59-9.3,4.99-17.36,9.32-24.99,9.32ZM382.54,381.72c-3.12.97-44.23,13.69-55.04,14.55-7,.55-12.14,4.68-14.62,8.36-1.92,2.85-2.59,5.83-1.84,8.17,1.88,5.92,22.4,14.21,33.04,14.51,7.51.2,15.64-4.15,25.04-9.2,3.48-1.87,7.07-3.8,10.86-5.61,12.31-5.9,16.85-12.65,14.3-21.26-2.08-7.02-10.61-9.26-11.74-9.53Z"/>
      </g>
      <g>
        <g>
          <path class="st8" d="M381.62,378.35c2.54,4.04,5.06,10.73,4.48,14.34-.58,3.62-1.71,8.08-9.15,12.95s-21.98,12.87-26.06,13.77c-4.08.91-7.51,1.47-9.94-2.19,0,0-3.99,1.66-6.81.25s-3.36-2.96-3.36-2.96c0,0-3.49,1.69-5.69.56-2.2-1.13-2.73-2.92-2.73-2.92,0,0-5.23,1.22-7.44-1.92-2.22-3.14-2.4-8.94,7.9-17.55,10.29-8.61,15.89-14.21,15.89-14.21,0,0-1.23-9.51-1.91-10.93-.68-1.42-11.03-61.64-11.03-61.64l27.67.92s25.64,67.48,28.18,71.53Z"/>
          <path class="st2" d="M346.36,420.6c-2.06,0-4.03-.63-5.59-2.76-1.1.39-4.35,1.34-6.84.09-2.04-1.03-2.97-2.14-3.36-2.76-1.06.43-3.77,1.36-5.7.36-1.72-.88-2.5-2.14-2.81-2.79-1.35.23-5.52.67-7.54-2.21-1.91-2.71-3.42-8.69,7.99-18.22,9.17-7.67,14.66-13,15.69-14.01-.5-3.8-1.37-9.56-1.83-10.53-.69-1.44-10.01-55.6-11.07-61.77l-.1-.61,28.62.95.12.31c.26.67,25.65,67.48,28.14,71.44h0c2.71,4.3,5.15,10.97,4.56,14.69-.62,3.87-1.91,8.41-9.37,13.29-7.33,4.79-21.99,12.9-26.22,13.84-1.51.33-3.11.69-4.65.69ZM341.14,416.61l.23.34c2.2,3.3,5.16,2.92,9.42,1.98,4.06-.9,18.79-9.06,25.89-13.7,7.12-4.66,8.32-8.79,8.93-12.61.55-3.44-1.86-9.94-4.41-14h0c-2.48-3.94-25.99-65.73-28.11-71.3l-26.72-.88c2.93,17.02,10.3,59.42,10.89,60.91.69,1.44,1.82,10.09,1.95,11.07l.03.24-.17.17c-.06.06-5.73,5.72-15.92,14.24-10.79,9.02-9.52,14.45-7.81,16.88,2,2.83,6.87,1.74,6.92,1.73l.46-.11.13.45c.02.06.51,1.61,2.48,2.62,1.95,1,5.21-.55,5.25-.57l.5-.24.19.53s.55,1.39,3.11,2.67c2.57,1.29,6.35-.25,6.39-.26l.38-.16Z"/>
        </g>
        <g>
          <path class="st8" d="M346.33,404.25s-11.35,7.29-5.45,13.1"/>
          <path class="st2" d="M340.53,417.71c-1.38-1.36-2-2.92-1.82-4.63.49-4.79,7.07-9.07,7.35-9.25l.54.84c-.06.04-6.45,4.2-6.9,8.51-.15,1.41.35,2.66,1.53,3.81l-.7.71Z"/>
        </g>
        <g>
          <path class="st8" d="M337.47,400.74s-12.18,8.57-6.27,14.37"/>
          <path class="st2" d="M330.85,415.47c-1.3-1.27-1.88-2.77-1.75-4.46.43-5.24,7.77-10.46,8.08-10.68l.58.82c-.07.05-7.27,5.17-7.66,9.94-.11,1.39.36,2.59,1.45,3.66l-.7.71Z"/>
        </g>
        <g>
          <path class="st8" d="M329.13,398.01s-11.87,9.72-5.96,15.52"/>
          <path class="st2" d="M322.82,413.89c-1.27-1.24-1.87-2.75-1.79-4.48.25-5.55,7.48-11.53,7.79-11.79l.63.77c-.07.06-7.19,5.95-7.42,11.06-.07,1.45.42,2.67,1.49,3.72l-.7.71Z"/>
        </g>
        <g>
          <path class="st16" d="M315.16,402.09c1.88-2.47,5.84-.77,5.25,2.28,0,.04-.02.09-.03.13-.98,4.54-5.72,7.17-7.23,3.95-.9-1.91.62-4.53,2.01-6.36Z"/>
          <path class="st2" d="M315.25,410.38c-1.12,0-2.04-.61-2.56-1.72-1-2.13.57-4.91,2.06-6.87h0c1.16-1.52,2.94-1.63,4.2-1.06,1.49.67,2.25,2.14,1.94,3.74l-.03.14c-.71,3.31-3.23,5.52-5.25,5.75-.12.01-.25.02-.36.02ZM315.55,402.39c-1.08,1.42-2.78,4.08-1.95,5.84.39.83,1.05,1.22,1.9,1.13,1.63-.19,3.77-2.14,4.38-4.97l.03-.12c.27-1.37-.57-2.27-1.37-2.63-.83-.37-2.11-.4-2.99.76h0Z"/>
        </g>
        <g>
          <path class="st16" d="M323.37,406.04c1.47-1.93,4.56-.6,4.1,1.78,0,.03-.01.07-.02.11-.76,3.54-4.46,5.6-5.65,3.08-.7-1.49.49-3.54,1.57-4.96Z"/>
          <path class="st2" d="M323.44,412.62c-.92,0-1.67-.5-2.09-1.4-.8-1.71.44-3.92,1.63-5.48h0c.94-1.23,2.39-1.32,3.41-.86,1.19.54,1.83,1.76,1.58,3.04h-.51s.49.11.49.11c-.57,2.63-2.58,4.39-4.19,4.58-.1.01-.2.02-.3.02ZM323.77,406.34h0c-.83,1.09-2.14,3.13-1.51,4.45.29.61.75.89,1.38.82,1.24-.14,2.86-1.63,3.33-3.79.22-1.1-.37-1.76-.98-2.03-.61-.27-1.56-.29-2.2.56Z"/>
        </g>
        <g>
          <path class="st16" d="M331.52,408.76c1.47-1.93,4.56-.6,4.1,1.78,0,.03-.01.07-.02.11-.76,3.54-4.46,5.6-5.65,3.08-.7-1.49.49-3.54,1.57-4.96Z"/>
          <path class="st2" d="M331.59,415.34c-.92,0-1.67-.5-2.09-1.4-.8-1.71.44-3.92,1.62-5.48h0c.94-1.23,2.39-1.32,3.41-.86,1.19.54,1.83,1.76,1.58,3.04l-.02.12c-.57,2.63-2.58,4.39-4.19,4.57-.1.01-.2.02-.3.02ZM331.92,409.06c-.83,1.09-2.13,3.12-1.51,4.45.29.61.75.89,1.38.82,1.24-.14,2.86-1.63,3.33-3.79.22-1.1-.4-1.77-.98-2.03-.61-.27-1.56-.29-2.2.56h0Z"/>
        </g>
        <g>
          <path class="st16" d="M340.43,411c1.47-1.93,4.56-.6,4.1,1.78,0,.03-.01.07-.02.11-.76,3.54-4.46,5.6-5.65,3.08-.7-1.49.49-3.54,1.57-4.96Z"/>
          <path class="st2" d="M340.5,417.58c-.92,0-1.67-.5-2.09-1.4-.8-1.71.44-3.92,1.63-5.48.94-1.23,2.39-1.32,3.41-.86,1.19.54,1.83,1.76,1.58,3.04l-.02.12c-.57,2.63-2.58,4.39-4.19,4.57-.1.01-.2.02-.3.02ZM342.24,410.57c-.49,0-1.01.19-1.42.73h0c-.83,1.09-2.14,3.12-1.51,4.45.29.61.75.9,1.38.82,1.24-.14,2.86-1.63,3.33-3.79.22-1.1-.37-1.75-.98-2.03-.23-.1-.5-.17-.79-.17Z"/>
        </g>
      </g>
      <g>
        <path class="st9" d="M366.79,414.42s-12.82-15.44-24.47-20.68c-11.65-5.24-16.61-4.66-16.61-4.66,0,0,1.75-7.87,10.49-7.87,8.74,0,30.01,16.02,39.33,26.8"/>
        <path class="st22" d="M366.4,414.74c-.13-.15-12.88-15.41-24.29-20.55-11.33-5.1-16.3-4.63-16.34-4.62l-.69.08.15-.68c.02-.08,1.94-8.26,10.98-8.26s30.49,16.32,39.71,26.97l-.76.65c-8.88-10.27-30.32-26.63-38.95-26.63-6.81,0-9.18,5.04-9.81,6.85,1.78.03,6.85.55,16.13,4.72,11.62,5.23,24.52,20.67,24.65,20.82l-.77.64Z"/>
      </g>
    </g>
    <path class="st22" d="M339.74,45.73s7.88,7.88,5.26,13.89c-2.63,6.01-4.5,12.76.38,14.64,4.88,1.88,24.78,15.77,13.51,31.53-11.26,15.77-88.97,8.26-88.97,8.26,0,0-13.14-31.16,10.14-46.18,23.28-15.02,59.69-22.15,59.69-22.15Z"/>
    <g>
      <path class="st18" d="M355.07,182.12c6.81,11.8,10.22,26.87,10.71,38.02s-10.71,62.27-12.17,66.2c-1.46,3.93,23.48,76.8,23.48,76.8,0,0-29.45,18.9-46.48,9.72l-21.28-81.28,2.43-19.66s-6.81,20.32-6.81,24.25c0,3.93,13.01,65.84,13.01,65.84,0,0-28.5,7.31-45.05,3.38l-4.46-82.99,14.6-87.83,72.02-12.45Z"/>
      <path class="st2" d="M341.79,375.9c-4.06,0-7.97-.74-11.41-2.6l-.19-.1-.05-.21-21.31-81.37,1.81-14.62c-2.01,6.25-5.18,16.56-5.18,19.18,0,3.84,12.87,65.12,13,65.74l.1.47-.46.12c-.29.07-28.81,7.3-45.29,3.38l-.36-.09-.02-.37-4.46-83.04v-.05s14.67-88.18,14.67-88.18l72.71-12.57.17.3c7.26,12.57,10.33,28,10.77,38.24.49,11.17-10.54,61.92-12.2,66.4-1.03,2.76,13.48,47.24,23.48,76.46l.13.37-.33.21c-.97.62-19.46,12.34-35.57,12.34ZM331.04,372.52c8.62,4.5,20.51,1.66,29.01-1.54,8.22-3.1,14.91-7.1,16.44-8.05-3.1-9.06-24.8-72.84-23.35-76.76,1.33-3.57,12.62-54.94,12.13-66.01-.44-10.05-3.42-25.13-10.47-37.49l-71.32,12.33-14.53,87.43,4.44,82.56c15.13,3.41,40.26-2.44,43.98-3.35-1.29-6.16-12.92-61.67-12.92-65.47s6.56-23.58,6.84-24.41l1.58-4.72-3.03,24.5,21.2,80.97Z"/>
    </g>
    <g>
      <g>
        <path class="st13" d="M203.93,203.31s5.06,6.85,3.77,28.39c-1.29,21.55,6.2,34.72,6.2,34.72,0,0-3.61,5.36-1.67,9.55,1.95,4.19,2.04,7.51,2.04,7.51,0,0-4.2,9.55-2.16,13.26,2.04,3.71,5.95.69,5.95.69,0,0-.49,3.7,2.63,4.59s4.68-.58,4.68-.58c0,0,.39,1.85,2.92,1.86,2.54,0,4.54-2.38,4.54-2.38,0,0,4.43,1.27,8.68-3.45,4.25-4.72,8.85-18.76-2.55-33.98l-2.87-58.06-32.17-2.11Z"/>
        <path d="M228.29,303.79h0c-1.76,0-2.72-.85-3.15-1.6-.77.42-2.3.95-4.59.3-2.25-.64-2.93-2.64-3.02-4.14-.8.43-2.06.93-3.33.66-1.05-.22-1.9-.9-2.52-2.03-2.04-3.7,1.6-12.45,2.09-13.59-.04-.59-.3-3.58-1.99-7.21-1.82-3.91.83-8.63,1.54-9.79-1.04-2-7.31-14.95-6.12-34.72,1.26-21.04-3.62-28-3.67-28.07l-.63-.86,33.68,2.21,2.88,58.35c11.02,14.83,7.35,29.02,2.43,34.49-3.8,4.23-7.75,3.88-8.88,3.67-.6.63-2.43,2.33-4.71,2.33ZM225.67,300.48l.18.85c.01.05.36,1.46,2.43,1.46h0c2.26,0,4.13-2.18,4.15-2.21l.21-.25.31.09c.17.05,4.2,1.11,8.17-3.3,3.17-3.52,9.5-17.22-2.57-33.35l-.09-.12v-.15s-2.85-57.61-2.85-57.61l-30.77-2.02c1.28,2.42,4.41,10.27,3.35,27.86-1.27,21.13,6.06,34.31,6.14,34.44l.15.27-.17.26c-.03.05-3.43,5.18-1.63,9.06,1.97,4.24,2.08,7.57,2.08,7.71v.11s-.04.1-.04.1c-.04.09-4.08,9.37-2.18,12.81.48.86,1.1,1.38,1.85,1.54,1.6.33,3.33-.99,3.35-1l.96-.74-.15,1.2c-.02.13-.39,3.29,2.27,4.04,2.78.79,4.15-.42,4.21-.47l.65-.58Z"/>
      </g>
      <path class="st2" d="M218.14,297.76l-.65-.76c5.1-4.4,3.72-16.16,3.7-16.28l.99-.12c.06.5,1.47,12.41-4.04,17.16Z"/>
      <path class="st2" d="M225.69,301.81l-.65-.76c5.13-4.42,5.33-13.48,5.33-13.57l1,.02c0,.39-.21,9.59-5.68,14.31Z"/>
      <path class="st2" d="M233.06,301.56l-.58-.81c3.79-2.72,6.23-15.25,6.25-15.38l.98.19c-.1.53-2.54,13.05-6.65,16Z"/>
    </g>
    <g>
      <g>
        <path class="st8" d="M126.33,441.61s-7.85,7.52.33,14.07c8.18,6.54,25.84,7.2,32.38,10.14,6.54,2.94,20.28,5.56,31.07,1.96,10.79-3.6,25.84-9.16,10.14-23.55-15.7-14.39-73.92-2.62-73.92-2.62Z"/>
        <path class="st2" d="M178.29,470.03c-7.89,0-15.38-1.93-19.45-3.76-2.35-1.06-6.15-1.81-10.55-2.68-7.42-1.47-16.66-3.3-21.94-7.52-2.48-1.98-3.79-4.26-3.9-6.77-.2-4.42,3.39-7.9,3.54-8.05l.1-.1.14-.03c.15-.03,14.78-2.96,31.14-4.1,22.06-1.53,36.61.77,43.22,6.84,5.37,4.92,7.59,9.14,6.79,12.9-1.23,5.75-9.12,8.83-17.11,11.49-3.83,1.27-7.96,1.78-11.98,1.78ZM126.58,442.07c-.56.58-3.3,3.62-3.13,7.19.1,2.21,1.29,4.23,3.53,6.02,5.09,4.07,14.19,5.87,21.51,7.32,4.46.88,8.32,1.65,10.77,2.75,6.01,2.71,19.67,5.63,30.71,1.94,5.7-1.9,15.23-5.08,16.44-10.75.71-3.34-1.47-7.36-6.48-11.96-14.95-13.71-70.06-3.17-73.34-2.52Z"/>
      </g>
      <g>
        <g>
          <path class="st13" d="M138.33,365.95s-9.5,57.96-10.59,60.36-10.9,16.14,4.58,21.59c15.48,5.45,38.82,12.65,42.3,12.65s9.38,2.62,12.43-2.62c0,0,7.85,1.31,7.85-3.27,0,0,3.71,1.53,6.54-2.18,0,0,5.45-1.09,4.36-6.54-1.09-5.45-10.69-11.12-16.14-12.87s-19.41-8.29-19.63-13.08,6.57-54.6,6.57-54.6v-44.49l-37.17,10.7-1.13,34.35Z"/>
          <path d="M181.03,461.71c-1.27,0-2.54-.19-3.71-.37-.98-.15-1.91-.29-2.69-.29-3.75,0-27.97-7.57-42.47-12.68-4.37-1.54-7.18-3.89-8.35-6.98-2.03-5.36,1.44-11.58,2.92-14.23.25-.46.46-.81.56-1.05.87-1.92,7.9-44.07,10.54-60.2l1.14-34.68,38.15-10.98v45.15c-.07.57-6.79,49.88-6.57,54.58.2,4.33,13.6,10.81,19.28,12.63,4.99,1.6,15.29,7.3,16.47,13.25,1.05,5.27-3.56,6.81-4.56,7.08-2.29,2.88-5.13,2.66-6.38,2.38-.13.8-.51,1.48-1.13,2-1.95,1.65-5.75,1.31-6.92,1.16-1.64,2.58-3.95,3.23-6.28,3.23ZM139.94,331.98l-1.12,34.05c-.39,2.37-9.52,58.06-10.62,60.49-.12.26-.33.64-.6,1.13-1.41,2.53-4.72,8.46-2.86,13.39,1.06,2.81,3.67,4.96,7.75,6.4,15.8,5.56,38.81,12.62,42.14,12.62.85,0,1.82.15,2.84.3,3.28.5,6.99,1.05,9.16-2.67l.17-.3.34.06s4.53.73,6.45-.89c.55-.47.82-1.09.82-1.89v-.74l.69.28c.14.06,3.4,1.32,5.96-2.02l.11-.15.18-.04c.2-.04,4.95-1.07,3.97-5.95-1.06-5.29-10.7-10.86-15.8-12.49-4.33-1.39-19.72-8.02-19.97-13.54-.22-4.79,6.3-52.65,6.58-54.69v-43.75s-36.18,10.42-36.18,10.42Z"/>
        </g>
        <path class="st2" d="M187.55,458.05l-.97-.23c.64-2.65.26-4.89-1.11-6.66-3.53-4.54-12.49-4.71-12.58-4.71v-1c.4,0,9.55.18,13.37,5.1,1.57,2.02,2.01,4.55,1.3,7.51Z"/>
        <path class="st2" d="M195.39,455.23l-.96-.27c2.24-8.16-10.01-12-10.13-12.04l.29-.96c.13.04,13.3,4.17,10.8,13.26Z"/>
        <path class="st2" d="M201.71,452.83l-.96-.27c2.24-8.16-10.01-12-10.13-12.04l.29-.96c.13.04,13.3,4.17,10.8,13.26Z"/>
        <g>
          <path class="st8" d="M157.4,459.79s-1.96-16.68,23.88-30.75l-8.83-5.23s-22.57,9.16-24.21,30.42"/>
          <path class="st2" d="M156.91,459.85c-.08-.69-1.67-16.85,23.37-30.82l-7.86-4.66c-2.34,1.03-22.16,10.33-23.67,29.9l-1-.08c1.64-21.32,24.29-30.75,24.52-30.84l.23-.09,9.8,5.81-.77.42c-25.2,13.72-23.64,30.09-23.62,30.25l-.99.12Z"/>
        </g>
      </g>
    </g>
    <g>
      <g>
        <path class="st9" d="M220.67,265.7l13.16,80.17-45.05,7.32-3.5-17.35-5,17.35-45.88.66s4.35-79.62,18.11-92.08c13.76-12.45,66.86,0,66.86,0"/>
        <path class="st22" d="M133.86,354.35l.03-.54c.18-3.26,4.52-79.97,18.28-92.42,5.82-5.26,18.93-6.88,38.98-4.8,14.85,1.54,28.2,4.65,28.33,4.68l-.23.97c-.53-.12-52.99-12.25-66.41-.12-12.87,11.64-17.5,84.21-17.92,91.2l44.97-.64,5.47-18.96,3.81,18.88,44.08-7.16-13.08-79.67.99-.16,13.24,80.66-46.02,7.48-3.19-15.82-4.54,15.75h-.37s-46.42.67-46.42.67Z"/>
      </g>
      <polygon class="st2" points="185.77 337.88 184.78 337.73 188.83 309.62 205.12 300.01 205.63 300.87 189.75 310.23 185.77 337.88"/>
    </g>
    <g>
      <path class="st6" d="M230.46,291.16l-91.22,4.4-4-127.55s19.65-24.16,61.77-17c42.11,7.16,41.82,35.55,43.31,43.26,1.49,7.71.99,19.82.99,19.82l-20.31,1.65,9.47,75.42Z"/>
      <path class="st2" d="M138.75,296.09l-4.03-128.24.12-.14c.2-.24,20.32-24.31,62.24-17.18,38.58,6.56,41.9,30.73,43.32,41.05.14,1.02.26,1.91.4,2.61,1.48,7.68,1,19.81,1,19.93l-.02.44-20.23,1.65,9.47,75.44-.54.03-91.73,4.43ZM135.74,168.19l3.98,126.84,90.17-4.35-9.47-75.4,20.39-1.66c.07-2.25.3-12.52-1-19.26-.14-.73-.26-1.62-.41-2.66-1.39-10.1-4.64-33.76-42.5-40.2-39.65-6.74-59.48,14.74-61.18,16.69Z"/>
    </g>
    <g>
      <g>
        <polygon class="st19" points="247.15 466.36 238.76 468.46 181.05 256.45 189.44 254.35 247.15 466.36"/>
        <path class="st2" d="M238.41,469.06l-.13-.47-57.84-212.5,9.35-2.34.13.47,57.84,212.5-9.35,2.34ZM181.67,256.81l57.45,211.04,7.41-1.85-57.44-211.04-7.41,1.85Z"/>
      </g>
      <g>
        <path d="M181.93,228.47h0c2.38,0,4.32,1.94,4.32,4.32v23.02h-8.64v-23.02c0-2.38,1.94-4.32,4.32-4.32Z" transform="translate(-53.29 51.35) rotate(-14.04)"/>
        <path class="st2" d="M180.69,257.06l-5.7-22.81c-.31-1.25-.12-2.55.54-3.65.66-1.1,1.72-1.88,2.97-2.2,1.25-.31,2.54-.12,3.65.54,1.1.66,1.88,1.72,2.2,2.96l5.7,22.81-9.35,2.34ZM179.67,229.25c-.31,0-.62.04-.93.12h0c-.99.25-1.82.87-2.35,1.74-.52.88-.68,1.9-.43,2.89l5.46,21.84,7.41-1.85-5.46-21.84c-.25-.99-.87-1.82-1.74-2.35-.6-.36-1.27-.55-1.96-.55Z"/>
      </g>
      <g>
        <rect class="st18" x="239.31" y="456.46" width="8.64" height="27.34" transform="translate(594.01 867.14) rotate(165.96)"/>
        <path class="st2" d="M242.39,485.05l-6.87-27.49,9.35-2.34,6.87,27.49-9.35,2.34ZM236.73,458.28l6.39,25.55,7.41-1.85-6.39-25.55-7.41,1.85Z"/>
      </g>
      <g>
        <path class="st20" d="M254.88,482.04c1.53,6.12-4.42,12.36-12.06,9.07-4.17-3.34-4.55-7.91-2.66-11.16,1.05-1.81,8.5-4.01,10.05-3.36,2.25.95,4.03,2.9,4.67,5.45Z"/>
        <path class="st2" d="M247,492.53c-1.41,0-2.89-.32-4.38-.96l-.12-.07c-4.55-3.64-4.67-8.55-2.78-11.8,1.19-2.04,8.86-4.34,10.68-3.57,2.5,1.05,4.31,3.17,4.96,5.79.79,3.17-.26,6.45-2.75,8.57-1.59,1.36-3.53,2.04-5.62,2.04ZM243.08,490.68c3.29,1.39,6.53,1.04,8.89-.96,2.2-1.87,3.13-4.77,2.43-7.56h0c-.58-2.32-2.18-4.18-4.38-5.11-1.32-.56-8.53,1.62-9.42,3.15-1.67,2.87-1.54,7.22,2.49,10.48Z"/>
      </g>
    </g>
    <g>
      <g>
        <path class="st13" d="M116.83,210.81s-7.38,30.94,9.84,43.94c17.23,13.01,32.34,14.06,32.34,14.06,0,0,2.46,5.98,7.03,6.68,4.57.7,7.38,2.46,7.38,2.46,0,0,5.62,8.79,9.84,9.14,4.22.35,3.87-4.57,3.87-4.57,0,0,2.81,2.46,5.27.35s2.11-4.22,2.11-4.22c0,0,1.76.7,3.16-1.41,1.41-2.11.53-5.1.53-5.1,0,0,3.52-2.99,1.93-9.14s-10.72-17.75-29.71-16.7l-20.57-14.24-.88-19.16-32.17-2.11Z"/>
        <path d="M183.69,287.62c-.15,0-.31,0-.46-.02-4.21-.35-9.48-8.23-10.16-9.27-.51-.3-3.15-1.73-7.1-2.34-4.26-.66-6.73-5.47-7.29-6.7-2.24-.24-16.49-2.19-32.3-14.13-17.29-13.05-10.1-44.15-10.03-44.46l.1-.41,33.03,2.17.89,19.36,20.22,14c18.43-.95,28.21,9.96,30.05,17.08,1.42,5.51-1.06,8.6-1.86,9.42.19.85.6,3.32-.67,5.22-.98,1.47-2.23,1.79-3.08,1.74-.07.87-.48,2.44-2.29,3.99-1.77,1.52-3.82.98-5.12.22-.08.9-.37,2.23-1.29,3.14-.67.66-1.55,1-2.63,1ZM117.23,211.34c-.78,3.69-5.95,31.16,9.75,43.02,16.91,12.77,31.93,13.95,32.08,13.96l.31.02.12.29c.02.06,2.41,5.72,6.64,6.38,4.62.71,7.45,2.46,7.57,2.53l.16.15c.06.09,5.54,8.58,9.46,8.91.98.08,1.76-.15,2.3-.69,1.16-1.14,1.03-3.33,1.03-3.35l-.08-1.2.91.79c.1.09,2.52,2.15,4.62.35,2.19-1.88,1.95-3.68,1.94-3.76l-.13-.86.81.32c.05.02,1.41.51,2.56-1.22,1.26-1.88.47-4.65.46-4.68l-.09-.31.24-.21c.13-.12,3.25-2.88,1.77-8.63-1.18-4.59-9.08-17.44-29.19-16.32h-.17s-20.91-14.47-20.91-14.47l-.87-18.96-31.29-2.05Z"/>
      </g>
      <path class="st2" d="M186.47,282.77c-.84-6.68-11.4-12.04-11.5-12.1l.45-.89c.45.23,11.15,5.65,12.05,12.87l-.99.12Z"/>
      <path class="st2" d="M194.03,278.72c-.84-6.73-12.5-14.68-12.62-14.76l.56-.83c.5.33,12.15,8.29,13.05,15.47l-.99.12Z"/>
      <path class="st2" d="M197.89,272.35c-.17-4.67-9.25-13.63-9.34-13.72l.7-.71c.39.38,9.46,9.34,9.64,14.4l-1,.04Z"/>
    </g>
    <g>
      <path class="st6" d="M151.4,202.93s-.85-2.55-.27,20.52l-37.94-1.25s.09-70.23,49.83-72.91l16.35-1.1"/>
      <path class="st2" d="M151.64,223.97l-38.96-1.28v-.48c0-.18.09-17.85,6.29-35.61,8.24-23.62,23.46-36.69,44.02-37.8l16.34-1.1.07,1-16.35,1.1c-20.41,1.1-34.92,13.58-43.13,37.1-5.57,15.97-6.17,31.88-6.23,34.82l36.92,1.22c-.5-20.38.07-20.48.62-20.58.28-.04.54.12.64.42l-.95.32c.04.12.19.25.39.26.24.01.38-.15.4-.22-.13.32-.53,2.73-.09,20.31v.53Z"/>
    </g>
    <g>
      <path class="st13" d="M200.27,145.21s10.57,33.11-7.52,31.17c-18.08-1.94-24.91-25.58-24.91-25.58l2.58-12.92"/>
      <path d="M194.23,176.96c-.49,0-1-.03-1.52-.08-18.21-1.95-25.27-25.69-25.34-25.93l-.03-.12,2.61-13.03.98.2-2.56,12.79c.55,1.77,7.56,23.29,24.45,25.1,3.3.35,5.81-.5,7.46-2.53,6.01-7.37-.41-27.79-.48-27.99l.95-.3c.27.86,6.65,21.15.3,28.93-1.61,1.98-3.9,2.97-6.82,2.97Z"/>
    </g>
    <g>
      <path class="st2" d="M196.34,151.08s3.81,3.2,2.38,5.87c-1.43,2.66-14.15,4.24-23.13-8.76l20.75,2.89Z"/>
      <g>
        <path class="st13" d="M169.7,142.93c-16.23-24.52-9.51-54.05,9.04-60.95,16.99-6.32,46.2,7.68,40.02,44.57-6.46,38.57-37.83,25.59-40.5,23.28"/>
        <path d="M193.4,154.27c-7.68,0-14.31-3.06-15.46-4.05l.65-.76c1.49,1.28,12.64,6.18,22.9,2.46,8.84-3.2,14.49-11.76,16.78-25.45,3.69-22.03-5.59-33.43-11.44-38.26-8.06-6.65-19.28-8.97-27.91-5.75-7.35,2.74-13,9.12-15.88,17.99-4.31,13.22-1.66,29,7.09,42.21l-.83.55c-8.91-13.46-11.61-29.57-7.21-43.07,2.98-9.16,8.84-15.77,16.49-18.62,8.96-3.33,20.57-.95,28.9,5.92,6.02,4.97,15.56,16.68,11.79,39.2-2.36,14.07-8.22,22.9-17.43,26.23-2.81,1.02-5.69,1.41-8.43,1.41Z"/>
      </g>
      <rect class="st2" x="197.81" y="133.81" width="1" height="9.73" transform="translate(50.7 330.43) rotate(-87.38)"/>
    </g>
    <g>
      <g>
        <path class="st8" d="M281.87,82.22s10.3,18.31-5.57,19.92c-15.88,1.6-.84,22.81-.84,22.81l33.95,25.88,18.79-46.76s9.03-11.36-2.91-11.8-7.57-12.67-15.88-15.73c-8.3-3.06-27.53,5.68-27.53,5.68Z"/>
        <path class="st2" d="M309.62,151.62l-34.58-26.39c-.37-.52-8.93-12.73-5.87-19.46,1.08-2.38,3.46-3.77,7.07-4.13,3.77-.38,6.3-1.77,7.53-4.12,2.91-5.6-2.28-14.96-2.34-15.05l-.27-.47.5-.23c.79-.36,19.51-8.79,27.91-5.69,3.84,1.42,5.11,4.67,6.34,7.81,1.54,3.94,2.99,7.66,9.38,7.89,3.33.12,5.45,1.1,6.28,2.91,1.64,3.56-2.43,8.98-2.95,9.64l-19.01,47.3ZM275.82,124.59l33.36,25.44,18.57-46.21.04-.06c.04-.05,4.32-5.5,2.87-8.66-.66-1.44-2.48-2.22-5.41-2.33-7.05-.26-8.69-4.46-10.28-8.53-1.2-3.07-2.33-5.98-5.75-7.23-7.29-2.69-23.63,4.13-26.66,5.45,1.07,2.07,4.88,10.14,2.09,15.52-1.39,2.67-4.19,4.24-8.31,4.66-3.23.33-5.34,1.52-6.26,3.55-2.72,5.98,5.08,17.46,5.73,18.41Z"/>
      </g>
      <path class="st5" d="M283.06,194.57"/>
      <g>
        <path class="st9" d="M284.46,92.84c1.08,23.6,15.79,26.02,15.79,26.02,0,0,20.74-2.32,20.52-29.7,0,0,23.14-.15,31.36,9.18,0,0,11.54,6.22,9.92,31.56-1.62,25.34,8.29,58.67,8.29,58.67,0,0-83.47,22.88-97.42,12.39l7.88-58.56-6.48,8.17-28.16-27.87s9.07-35.05,38.29-29.85Z"/>
        <path class="st22" d="M287.1,204.21c-6.62,0-11.78-.82-14.48-2.85l-.23-.18,7.68-57.05-5.69,7.18-28.76-28.47.07-.28c.09-.35,9.53-35.44,38.86-30.21l.39.07.02.4c.55,11.98,4.7,18.29,8.09,21.47,3.39,3.18,6.71,3.97,7.21,4.07,1.54-.2,20.21-3.14,20.01-29.19v-.5s.5,0,.5,0c.95,0,23.37-.04,31.68,9.28,1.13.65,11.67,7.44,10.1,31.99-1.6,24.97,8.17,58.17,8.27,58.5l.15.49-.49.14c-2.76.76-55.7,15.16-83.37,15.16ZM273.45,200.73c13.71,9.41,89.41-10.66,96.26-12.51-1.21-4.24-9.67-34.88-8.16-58.35,1.58-24.67-9.54-31.03-9.66-31.09l-.14-.11c-7.32-8.3-27.09-8.95-30.48-9-.04,27.04-20.76,29.67-20.97,29.7h-.07s-.07,0-.07,0c-.16-.03-3.87-.67-7.75-4.29-3.51-3.27-7.8-9.7-8.44-21.8-26.77-4.45-36.32,26.03-37.25,29.27l27.55,27.27,7.26-9.15-8.09,60.07Z"/>
      </g>
    </g>
    <polygon class="st2" points="296.1 304.04 292.37 299.52 300.94 297.05 288.8 291.06 289.24 290.17 303.7 297.29 294.11 300.06 296.87 303.41 296.1 304.04"/>
    <polygon class="st2" points="347.94 298.63 331.33 298.63 347.08 291.56 347.49 292.47 336 297.63 347.94 297.63 347.94 298.63"/>
    <path class="st2" d="M355.43,365.73c-.1-.56-9.89-56.11-12.52-68.15-2.23-10.19,3.17-35.53,6.74-52.3.77-3.6,1.43-6.71,1.95-9.34,2.96-14.95-3.49-34.6-3.56-34.79l.95-.32c.07.2,6.6,20.1,3.59,35.3-.52,2.63-1.18,5.75-1.95,9.35-3.55,16.68-8.92,41.9-6.74,51.88,2.63,12.06,12.43,67.63,12.53,68.19l-.98.17Z"/>
    <path class="st2" d="M352.21,224.14c-.18-.08-17.95-8.56-21.76-24.62l.97-.23c3.7,15.6,21.04,23.86,21.21,23.94l-.42.91Z"/>
    <polygon class="st2" points="313.14 235.09 312.97 234.99 294.97 224.5 295.47 223.64 313.31 234.02 321.88 232.1 322.09 233.08 313.14 235.09"/>
    <polygon class="st2" points="302.38 358.49 294.71 291.55 294.73 291.47 308.36 231.82 309.33 232.04 295.73 291.61 303.37 358.38 302.38 358.49"/>
    <g>
      <path class="st8" d="M354.65,143.12c-7.92,22.61-26.76,40.57-39.31,45.27-12.55,4.7-42.05,5.63-65.13.35,0,0-8.76,4.09-14.06,1.41-5.6-2.82-2.06-7.22-2.06-7.22,0,0-4.35,1.58-6.13-2.1-1.78-3.68.91-6.27.91-6.27,0,0-4.8-.53-5.28-4.1-.48-3.57,1.54-5.28,1.54-5.28-2.63,1.95-5.98.84-6.68-3.49-.71-4.32,5.83-12.09,15.11-15.79,13.5-5.38,26.7,2.76,30.22,4.49s40.83,4.9,45.63.43c0,0,14.42-14.42,22.29-32.34"/>
      <path class="st2" d="M284.34,192.83c-11.04,0-23.11-1.09-34.08-3.58-1.26.56-9.22,3.92-14.34,1.34-1.89-.96-3.02-2.2-3.34-3.7-.27-1.25.08-2.4.46-3.2-1.8.27-4.29-.08-5.53-2.65-1.36-2.81-.3-5.06.45-6.15-1.5-.35-4.46-1.41-4.86-4.37-.24-1.77.1-3.12.53-4.06-.88.23-1.78.19-2.6-.15-1.61-.65-2.7-2.27-3.07-4.54-.74-4.51,5.7-12.46,15.42-16.33,12.53-5,24.86,1.48,29.5,3.92.44.23.82.43,1.13.58,2.97,1.46,40.39,4.87,45.07.52.13-.13,14.43-14.55,22.17-32.17l.92.4c-7.81,17.8-22.25,32.34-22.39,32.49-2.94,2.73-16.09,2.58-23.68,2.25-10.09-.44-20.62-1.65-22.53-2.59-.31-.15-.7-.36-1.15-.59-4.53-2.38-16.56-8.71-28.66-3.88-9.14,3.65-15.46,11.19-14.8,15.24.31,1.92,1.19,3.26,2.46,3.78,1.07.43,2.32.21,3.43-.61l.62.78c-.07.06-1.8,1.6-1.37,4.83.42,3.14,4.8,3.66,4.84,3.67l1.05.12-.76.74c-.1.1-2.4,2.4-.81,5.69,1.56,3.22,5.35,1.91,5.51,1.85l1.66-.6-1.1,1.38s-1.31,1.67-.92,3.45c.26,1.18,1.2,2.2,2.81,3.01,5.02,2.54,13.54-1.38,13.62-1.42l.16-.07.17.04c23.73,5.44,52.69,4.22,64.84-.33,13.16-4.92,31.35-23.09,39.02-44.96l.94.33c-7.76,22.16-26.23,40.57-39.61,45.57-6.63,2.48-18.18,3.98-31.17,3.98Z"/>
    </g>
    <path class="st2" d="M234.09,183.43c-.1,0-.19-.03-.28-.09-.23-.16-.29-.47-.13-.69,3.22-4.73,12.77-5.03,13.18-5.04h.01c.27,0,.49.22.5.49,0,.28-.21.51-.49.51-.09,0-9.44.3-12.38,4.6-.1.14-.25.22-.41.22Z"/>
    <path class="st2" d="M228.87,175.05c-.14,0-.28-.06-.38-.17-.18-.21-.16-.53.05-.71,7.58-6.5,16.84-6.95,17.23-6.96.26-.03.51.2.52.48.01.28-.2.51-.48.52-.09,0-9.31.46-16.62,6.72-.09.08-.21.12-.33.12Z"/>
    <path class="st2" d="M225.13,165.67c-.1,0-.21-.03-.3-.1-.22-.17-.27-.48-.1-.7,5.83-7.75,20.3-9.32,20.91-9.38.27-.02.52.17.55.45.03.27-.17.52-.45.55-.15.01-14.65,1.58-20.22,8.99-.1.13-.25.2-.4.2Z"/>
    <g>
      <path class="st16" d="M222.16,157.14c1.03-.06,4.4,1.89,3.89,3.86-.51,1.97-2.4,4.6-4.87,2.53s-.06-6.33.98-6.39Z"/>
      <path class="st2" d="M222.97,164.79c-.59,0-1.31-.2-2.11-.87-1.23-1.03-1.58-2.69-.96-4.55.42-1.28,1.35-2.67,2.23-2.72h0c.85-.06,2.71.88,3.72,2.11.65.79.88,1.61.69,2.37-.37,1.44-1.38,3.09-2.79,3.54-.22.07-.48.12-.78.12ZM222.2,157.64c-.28.06-1.11,1.04-1.46,2.42-.23.92-.29,2.21.76,3.09.68.57,1.33.76,1.94.56,1.04-.33,1.84-1.71,2.13-2.84.12-.45-.05-.95-.49-1.49-.86-1.05-2.41-1.81-2.88-1.74ZM222.19,157.64h0Z"/>
    </g>
    <g>
      <path class="st9" d="M330.58,100.62c-5.52,3.93-15.25,32.77-15.25,32.77,14.92,9.18,33.41,30.59,33.41,30.59,0,0,7.56-12.78,9.18-21.52"/>
      <path class="st22" d="M348.82,164.84l-.46-.53c-.18-.21-18.61-21.46-33.3-30.49l-.34-.21.13-.38c.4-1.18,9.85-29.04,15.43-33.02l.58.81c-4.99,3.56-13.77,28.76-14.94,32.15,13.45,8.41,29.79,26.62,32.73,29.95,1.5-2.62,7.38-13.27,8.77-20.76l.98.18c-1.62,8.73-8.93,21.16-9.24,21.69l-.35.6Z"/>
    </g>
    <g>
      <circle class="st22" cx="326.94" cy="55.21" r="15.58"/>
      <path class="st22" d="M265.05,62.54s-4.4-27.78,8.04-41.3c12.44-13.51,38.4-13.98,50.68,0,13.51,15.39,5.26,44.3,5.26,44.3l-63.97-3Z"/>
      <g>
        <g>
          <path class="st10" d="M269.19,66.41c2.02.45,11.5,16.04-.25,15.48-10.8-.51-1.77-15.93.25-15.48Z"/>
          <path class="st7" d="M269.53,82.4c-.2,0-.41,0-.62-.02-2.64-.13-4.39-1.11-5.2-2.92-1.57-3.53,1.04-9.27,3.3-12.05.93-1.14,1.68-1.63,2.29-1.5,1.64.36,6.49,7.77,5.86,12.46-.25,1.86-1.44,4.03-5.62,4.03ZM269.09,66.9c-.95.06-4.82,5.55-4.86,10.02-.02,2.82,1.57,4.33,4.73,4.48,3.2.15,4.89-.87,5.2-3.12.6-4.36-4.15-11.12-5.07-11.37ZM269.08,66.89h0Z"/>
        </g>
        <g>
          <g>
            <path class="st20" d="M289,89.88s-3.9,2.67-2.47,4.93c1.44,2.26,14.39,3.7,23.63-7.19l-21.17,2.26Z"/>
            <g>
              <path class="st12" d="M316.2,83.23c16.71-20.55,10.08-45.53-8.77-51.51-17.26-5.48-47.13,6.08-41.1,37.27,6.3,32.61,38.36,21.92,41.1,20"/>
              <path class="st22" d="M292.33,92.68c-3.55,0-7.32-.52-10.91-1.97-8.21-3.32-13.46-10.6-15.59-21.63-3.07-15.88,3.17-25.34,8.94-30.47,8.67-7.71,22.16-10.74,32.8-7.36,8.44,2.68,14.78,9.23,17.39,17.99,3.33,11.16.28,23.67-8.39,34.32l-.78-.63c8.45-10.39,11.44-22.56,8.2-33.4-2.52-8.43-8.62-14.75-16.73-17.32-10.16-3.23-23.55-.22-31.84,7.16-5.58,4.96-11.6,14.12-8.62,29.54,2.06,10.67,7.1,17.7,14.98,20.89,10.89,4.41,23.58.03,25.34-1.2l.57.82c-1.25.88-7.79,3.29-15.38,3.29Z"/>
            </g>
            <g>
              <path class="st12" d="M322.09,72.41s11.3,1.64,10.48-9.25c-.82-10.89-14.08-6.78-15.31-3.08"/>
              <path class="st22" d="M323.64,73c-.92,0-1.55-.09-1.63-.1l.14-.99s4.98.68,7.86-2.01c1.59-1.48,2.28-3.74,2.05-6.71-.37-4.84-3.22-6.2-5.54-6.49-3.7-.46-8.16,1.63-8.79,3.53l-.95-.32c.77-2.3,5.56-4.74,9.86-4.21,2.21.27,5.98,1.6,6.42,7.41.25,3.29-.55,5.82-2.37,7.52-2.16,2.01-5.2,2.36-7.05,2.36Z"/>
            </g>
            <g>
              <path class="st12" d="M322.91,66.45s2.26-3.9,5.14-4.93"/>
              <path class="st22" d="M323.34,66.7l-.87-.5c.1-.17,2.39-4.08,5.4-5.15l.34.94c-2.67.95-4.85,4.67-4.87,4.71Z"/>
            </g>
            <g>
              <path class="st22" d="M288.74,74.17c-.14-.01-3.34-.28-4.39-2.23-.54-1.01-.4-2.23.39-3.64.78-1.38,1.82-2.18,3.07-2.37,2.46-.38,4.84,1.8,4.94,1.9l-.68.73s-2.12-1.94-4.11-1.64c-.93.14-1.72.78-2.35,1.88-.62,1.09-.75,1.99-.38,2.67.65,1.23,2.81,1.65,3.58,1.71l-.08,1Z"/>
              <rect class="st22" x="295.5" y="53.15" width="1" height="6.37" transform="translate(230.14 350.37) rotate(-88.15)"/>
              <rect class="st22" x="276.99" y="56.25" width="5.14" height="1" transform="translate(-2.05 11.24) rotate(-2.3)"/>
              <g>
                <path class="st22" d="M297.76,65.36s-.04,1.76.19,2.31-.07,1.24-.78,1.14-1.39-2.68-1.1-4.72c.29-2.04.52-2.21,1.62-1.95s-.08,2.06.07,3.23Z"/>
                <path class="st22" d="M297.31,69.31c-.07,0-.14,0-.21-.01-1.23-.17-1.8-3.32-1.53-5.28.18-1.28.35-1.95.83-2.28.42-.29.92-.2,1.4-.09.39.09.59.31.69.48.3.5.13,1.17-.05,1.87-.12.47-.25.95-.2,1.3v.04s0,.04,0,.04c-.02.69.02,1.79.16,2.1.2.47.14,1.01-.15,1.38-.23.3-.57.46-.96.46ZM297.06,62.54c-.06,0-.08,0-.09.02-.2.14-.35,1.23-.41,1.6-.27,1.92.38,3.97.72,4.17.12,0,.17-.05.19-.08.06-.07.09-.22.02-.38-.25-.6-.24-2.1-.23-2.48-.06-.53.09-1.09.23-1.64.09-.34.25-.97.16-1.1-.32-.08-.49-.1-.58-.1Z"/>
              </g>
              <g>
                <path class="st22" d="M279.8,65.13s-.04,1.76.19,2.31c.23.55-.07,1.24-.78,1.14s-1.39-2.68-1.1-4.72c.29-2.04.52-2.21,1.62-1.95,1.11.26-.08,2.06.07,3.23Z"/>
                <path class="st22" d="M279.34,69.08c-.07,0-.14,0-.21-.01-.73-.1-1.13-1.15-1.34-2.01-.26-1.05-.33-2.28-.19-3.27.18-1.28.35-1.95.83-2.28.42-.29.92-.2,1.4-.09.39.09.59.31.69.48.3.5.13,1.17-.05,1.87-.12.47-.25.95-.2,1.3v.04s0,.04,0,.04c-.02.69.02,1.79.16,2.1.2.47.14,1.01-.15,1.38-.23.3-.57.46-.96.46ZM279.1,62.31c-.06,0-.08,0-.09.02-.2.14-.35,1.23-.41,1.6-.27,1.92.38,3.97.72,4.17.12.01.17-.05.19-.08.06-.07.09-.22.02-.38-.25-.6-.24-2.1-.23-2.48-.06-.53.09-1.09.23-1.64.09-.34.25-.97.16-1.1-.32-.08-.49-.1-.58-.1Z"/>
              </g>
            </g>
            <path class="st2" d="M288.92,79.29c-2.7-1.59-3.84-.7-3.85-.69l-.66-.75c.06-.06,1.63-1.41,5.02.58l-.51.86Z"/>
          </g>
          <ellipse class="st17" cx="305.96" cy="69.43" rx="4.11" ry="2.77" transform="translate(-7.78 68.48) rotate(-12.61)"/>
          <ellipse class="st17" cx="272.05" cy="69.84" rx="4.11" ry="2.77" transform="translate(-1.04 4.18) rotate(-.88)"/>
          <g>
            <path class="st10" d="M325.64,68.8c2.02.45,11.5,16.04-.25,15.48-10.8-.51-1.77-15.93.25-15.48Z"/>
            <path class="st7" d="M325.99,84.8c-.2,0-.41,0-.62-.02-2.64-.13-4.39-1.11-5.2-2.92-1.57-3.53,1.04-9.27,3.3-12.05.93-1.14,1.68-1.64,2.29-1.5h0c1.64.36,6.49,7.77,5.86,12.46-.25,1.86-1.44,4.03-5.62,4.03ZM325.54,69.29c-.95.06-4.82,5.55-4.86,10.02-.02,2.82,1.57,4.33,4.73,4.48,3.21.15,4.89-.87,5.21-3.12.6-4.36-4.15-11.12-5.07-11.37Z"/>
          </g>
        </g>
        <g>
          <path class="st9" d="M265.95,53.16c0-12.01.75-31.53,33.04-31.16,32.29.38,27.41,30.03,27.41,30.03,0,0-34.91-28.91-60.44,1.13Z"/>
          <path class="st22" d="M265.45,54.52v-1.36c0-6.23,0-16.66,7.17-23.75,5.45-5.39,14.32-8.05,26.37-7.91,10.07.12,17.61,3.07,22.4,8.78,7.51,8.95,5.51,21.7,5.49,21.83l-.14.86-.67-.55c-.35-.29-34.83-28.24-59.74,1.06l-.88,1.04ZM298.09,22.49c-11.32,0-19.65,2.56-24.77,7.63-6.39,6.32-6.84,15.55-6.87,21.7,23.45-26.14,54.48-4.55,59.55-.73.29-2.95.73-12.9-5.38-20.18-4.6-5.47-11.88-8.31-21.64-8.42-.3,0-.59,0-.89,0Z"/>
        </g>
        <path class="st22" d="M287.73,42.27c16.52,19.15,38.29,14.27,38.29,14.27,0,0,3.61-25.09-30.03-25.53-28.91-.38-30.78,22.52-30.78,22.52,0,0,11.26.75,22.52-11.26Z"/>
      </g>
    </g>
    <path class="st22" d="M362.08,96.22s-2.53,26.19-25.34,18.58c-22.81-7.6-16.34-22.26-16.34-22.26,0,0,.84-6.24-1.68-7.77"/>
    <path class="st22" d="M167.1,116.23s5.21-.67,6.7-8.09c1.49-7.42,1.49-10.34,1.49-10.34,0,0,6.14,5.39,12.65-2.02,0,0,5.39,6.07,11.72-.67,0,0,7.44,5.62,11.72-1.35,0,0,7.85,13.88,8.22,17.25,0,0,7.05-16.9-4.11-27.46-11.16-10.56-46.53-6.96-54.9,3.38-8.37,10.34-2.52,30.15-2.52,30.15,0,0,7.93-4.45,9.04-.85Z"/>
    <path class="st22" d="M163.48,111.69l11.18.59s1.2-3.51,9.78-3.32c8.58.2,11.38,2.15,11.38,2.15,0,0,4.59-.98,6.59,0,0,0,2.4-2.54,7.99-2.73,5.59-.2,11.98-.2,12.78,2.15.8,2.34-1.2,2.15-1.2,2.15,0,0,3.39,12.3-7.19,12.3s-13.38-9.17-13.38-9.17l-4.19-.2s-.2,11.32-10.18,11.91c-9.98.59-13.18-8.2-13.18-10.93h-6.99l-3.39-4.88Z"/>
    <g>
      <path class="st13" d="M164.32,130.05s-12.08,1.83-11.1-11.06c.98-12.9,15.09-7.89,16.37-3.5"/>
      <path class="st2" d="M162.79,130.64c-1.86,0-4.97-.37-7.28-2.51-2.16-2.01-3.1-5.1-2.79-9.19.53-6.94,4.67-8.4,7.09-8.66,4.51-.47,9.5,2.44,10.26,5.06l-.96.28c-.66-2.25-5.25-4.76-9.2-4.34-2.58.27-5.75,1.83-6.2,7.74-.29,3.77.55,6.59,2.48,8.38,3.09,2.87,8,2.16,8.05,2.15l.15.99c-.07.01-.69.1-1.61.1Z"/>
    </g>
    <g>
      <path class="st8" d="M163.5,122.98s-2.38-4.65-5.44-5.9"/>
      <path class="st2" d="M163.05,123.2s-2.33-4.5-5.18-5.66l.38-.93c3.2,1.3,5.6,5.93,5.7,6.13l-.89.46Z"/>
    </g>
    <path class="st2" d="M201.99,132.41c-.86,0-1.44-.23-1.49-.25l.38-.92c.09.04,2.23.86,4.48-1.39,1.8-1.8-2.33-7.61-3.92-9.51l.77-.64c.69.82,6.64,8.08,3.87,10.86-1.51,1.51-3.02,1.86-4.08,1.86Z"/>
    <g>
      <line class="st14" x1="219.5" y1="189.32" x2="220.99" y2="215.74"/>
      <rect class="st2" x="219.75" y="189.3" width="1" height="26.47" transform="translate(-11.03 12.69) rotate(-3.22)"/>
    </g>
    <g>
      <path class="st8" d="M152.79,156.08s-5.77-4.18-9.95-2.88-6.8,10.29-1.87,12.11c6.63,2.45,6.92-7.07,6.92-7.07l4.9-2.16Z"/>
      <path class="st2" d="M143,166.22c-.69,0-1.42-.15-2.21-.44-1.97-.73-3.07-2.6-3-5.14.08-3.11,1.98-7.02,4.9-7.92,4.37-1.36,10.15,2.78,10.39,2.96l.7.51-5.42,2.39c-.08,1.18-.55,5.27-3.01,6.93-.7.47-1.49.7-2.36.7ZM144.6,153.45c-.55,0-1.1.07-1.61.23-2.15.67-4.11,3.94-4.2,7-.03,1.22.23,3.39,2.35,4.17,1.47.54,2.7.49,3.66-.16,2.41-1.62,2.59-6.41,2.59-6.45v-.31s4.36-1.92,4.36-1.92c-1.38-.86-4.42-2.55-7.15-2.55Z"/>
    </g>
    <g>
      <path class="st8" d="M159.28,152.62s-5.77-4.18-9.95-2.88-6.8,10.29-1.87,12.11c6.63,2.45,6.92-7.07,6.92-7.07l4.9-2.16Z"/>
      <path class="st2" d="M149.49,162.76c-.69,0-1.42-.15-2.21-.44-1.97-.73-3.07-2.6-3-5.14.08-3.11,1.98-7.02,4.9-7.92,4.37-1.36,10.15,2.78,10.39,2.96l.7.51-5.42,2.39c-.08,1.18-.55,5.27-3.01,6.93-.7.47-1.49.71-2.36.71ZM151.09,149.99c-.55,0-1.1.07-1.61.23-2.15.67-4.11,3.94-4.2,7-.03,1.22.23,3.39,2.35,4.17,1.47.54,2.7.49,3.66-.16,2.41-1.62,2.59-6.41,2.59-6.45v-.31s4.36-1.92,4.36-1.92c-1.38-.86-4.42-2.55-7.16-2.55Z"/>
    </g>
    <g>
      <path class="st8" d="M165.48,149.16s-5.77-4.18-9.95-2.88c-4.18,1.3-6.8,10.29-1.87,12.11,6.63,2.45,6.92-7.07,6.92-7.07l4.9-2.16Z"/>
      <path class="st2" d="M155.69,159.29c-.69,0-1.42-.15-2.21-.44-1.97-.73-3.07-2.6-3-5.14.08-3.11,1.98-7.02,4.9-7.93,4.37-1.36,10.15,2.78,10.39,2.96l.7.51-5.42,2.39c-.08,1.18-.55,5.27-3.01,6.93-.7.47-1.49.7-2.36.7ZM157.29,146.52c-.55,0-1.1.07-1.61.23-2.15.67-4.11,3.94-4.2,7-.03,1.22.23,3.39,2.35,4.17,1.47.54,2.7.49,3.66-.16,2.41-1.62,2.59-6.41,2.59-6.45v-.31s4.36-1.92,4.36-1.92c-1.38-.86-4.42-2.55-7.16-2.55Z"/>
    </g>
    <polygon class="st2" points="312.27 271.94 311.27 271.9 312.72 234.63 302.86 207.89 303.79 207.54 313.73 234.47 312.27 271.94"/>
  </g>
  <path class="st2" d="M280.32,142.55c-.19-.59-4.54-14.41.1-19.63l.75.66c-4.26,4.8.06,18.52.1,18.66l-.95.3Z"/>
</svg>