<?xml version="1.0" encoding="UTF-8"?>
<svg id="Layer_1" xmlns="http://www.w3.org/2000/svg" xmlns:xlink="http://www.w3.org/1999/xlink" version="1.1" viewBox="0 0 575.9 415.52">
  <!-- Generator: Adobe Illustrator 29.8.2, SVG Export Plug-In . SVG Version: 2.1.1 Build 3)  -->
  <defs>
    <style>
      .st0 {
        fill: none;
      }

      .st1 {
        fill: #0c0907;
      }

      .st2 {
        fill: #271911;
      }

      .st3 {
        fill: #a56d3f;
      }

      .st4 {
        fill: #cdd5af;
      }

      .st5 {
        fill: #e2e2e2;
      }

      .st6 {
        fill: #b17a50;
      }

      .st7 {
        fill: #c7e4d9;
      }

      .st8 {
        fill: #c7e5da;
      }

      .st9 {
        fill: #896142;
      }

      .st10 {
        fill: #fff;
      }

      .st11 {
        fill: #f26a3b;
      }

      .st12 {
        fill: #c6abb2;
      }

      .st13 {
        fill: #ffca72;
      }

      .st14 {
        fill: #fdf6e3;
      }

      .st15 {
        fill: #2a2520;
      }

      .st16 {
        fill: #e5d9eb;
      }

      .st17 {
        fill: #f4f471;
      }

      .st18 {
        fill: #0e0c0b;
      }

      .st19 {
        clip-path: url(#clippath);
      }
    </style>
    <clipPath id="clippath">
      <path class="st0" d="M156.69,387.54s-38.22-26.66-54.5-22.56c0,0,3.54-95.35,70.78-95.35h82.11c48.13,0,59.46,99.45,59.46,99.45,0,0-20.53-11.28-50.96,18.29v-.42h-110.42l3.54.59Z"/>
    </clipPath>
  </defs>
  <g>
    <path class="st4" d="M470.31,342.37s-201.77,0-347.7,0C35.05,181.55,113.85,12.27,249.48,102.32c-10.13-26.21,34.38-36.06,41.2-14.28,19.08-33.82,79.08-86.64,166.14-12.36,87.06,74.28,63.84,206.98,13.49,266.68Z"/>
    <path class="st18" d="M470.54,342.87H122.31l-.14-.26c-25.24-46.37-38.32-97.33-36.82-143.5,1.42-43.68,15.26-79.69,38.96-101.4,14.98-13.72,33.59-20.97,53.85-20.97.11,0,.21,0,.31,0,21.9.08,45.46,8.27,70.04,24.35-2.58-8.01.13-13.62,2.96-16.98,5.49-6.51,16.24-9.88,25.56-8.01,6.76,1.36,11.61,5.16,13.76,10.75,11.46-19.75,34.61-42.45,65.99-48.01,31.66-5.61,65.43,6.66,100.36,36.47,39.07,33.33,59.82,82.77,58.45,139.2-1.16,47.6-18.36,96.72-44.9,128.18l-.15.18ZM122.91,341.87h347.17c26.31-31.31,43.37-80.09,44.52-127.39,1.37-56.12-19.27-105.28-58.1-138.41-34.7-29.61-68.19-41.8-99.54-36.25-31.54,5.59-54.69,28.7-65.84,48.47l-.57,1.01-.35-1.1c-1.82-5.8-6.57-9.75-13.37-11.12-8.99-1.81-19.34,1.42-24.6,7.67-2.82,3.34-5.5,9.07-2.29,17.39l.57,1.47-1.31-.87c-24.86-16.51-48.66-24.92-70.74-25-.1,0-.21,0-.31,0-20,0-38.38,7.16-53.17,20.71-23.5,21.53-37.23,57.29-38.64,100.7-1.49,45.91,11.49,96.59,36.55,142.73Z"/>
  </g>
  <g>
    <path class="st17" d="M80.57,207.7l20.7,29.38c8.01,11.36,22.42,16.28,35.7,12.18l34.34-10.61c5.25-1.62,9.51,4.42,6.21,8.82l-21.54,28.77c-8.33,11.13-8.55,26.35-.55,37.72l20.7,29.38c3.16,4.49-1.27,10.41-6.47,8.63l-34.02-11.6c-13.16-4.49-27.71,0-36.04,11.13l-21.54,28.77c-3.29,4.4-10.29,2.01-10.21-3.48l.52-35.94c.2-13.9-8.57-26.35-21.73-30.84l-34.02-11.6c-5.2-1.77-5.09-9.16.16-10.78l34.34-10.61c13.28-4.1,22.41-16.29,22.61-30.19l.52-35.94c.08-5.49,7.14-7.67,10.31-3.18Z"/>
    <path class="st1" d="M73.58,383.04c-.68,0-1.36-.11-2.04-.34-2.58-.88-4.22-3.21-4.18-5.93l.52-35.94c.2-13.73-8.4-25.93-21.39-30.36l-34.01-11.6c-2.58-.88-4.22-3.21-4.18-5.93.04-2.72,1.75-5,4.35-5.81l34.34-10.61c13.12-4.05,22.06-16,22.26-29.72l.52-35.94c.04-2.72,1.75-5,4.35-5.81,2.6-.8,5.3.12,6.86,2.34l20.7,29.38c7.91,11.22,22.03,16.04,35.15,11.99l34.34-10.61c2.6-.8,5.3.12,6.87,2.34,1.57,2.23,1.53,5.07-.1,7.25l-21.54,28.77c-8.23,10.99-8.45,25.91-.54,37.13l20.7,29.38c1.57,2.23,1.53,5.07-.1,7.25-1.63,2.18-4.35,3.02-6.93,2.14l-34.02-11.6c-12.99-4.43-27.25-.03-35.48,10.96l-21.54,28.77c-1.2,1.61-3,2.48-4.89,2.48ZM75.98,205.79c-.52,0-1.05.08-1.57.24-2.18.67-3.61,2.58-3.64,4.86l-.52,35.94c-.21,14.16-9.44,26.48-22.97,30.66l-34.34,10.61c-2.18.67-3.61,2.58-3.64,4.87-.03,2.28,1.34,4.23,3.5,4.97l34.02,11.6c13.4,4.57,22.27,17.16,22.07,31.32l-.52,35.94c-.03,2.28,1.34,4.23,3.5,4.97,2.16.74,4.44.03,5.81-1.79l21.54-28.77c8.49-11.33,23.2-15.88,36.6-11.31l34.02,11.6c2.16.74,4.44.03,5.81-1.79,1.37-1.83,1.4-4.21.09-6.08l-20.7-29.38c-8.16-11.58-7.93-26.97.56-38.31l21.54-28.77c1.37-1.83,1.4-4.21.09-6.08-1.31-1.87-3.57-2.63-5.75-1.96l-34.34,10.61c-13.53,4.18-28.1-.79-36.26-12.37l-20.7-29.38c-1-1.42-2.54-2.2-4.18-2.2Z"/>
  </g>
  <g>
    <path class="st16" d="M479.65,109.07l11.54,34.04c4.46,13.17,16.9,21.96,30.8,21.78l35.94-.46c5.49-.07,7.87,6.93,3.46,10.21l-28.8,21.49c-11.14,8.31-15.66,22.86-11.2,36.02l11.54,34.04c1.76,5.2-4.16,9.62-8.64,6.45l-29.34-20.75c-11.35-8.03-26.58-7.83-37.72.48l-28.8,21.49c-4.4,3.28-10.44-.98-8.81-6.23l10.67-34.32c4.13-13.27-.76-27.7-12.11-35.72l-29.34-20.75c-4.48-3.17-2.29-10.23,3.2-10.3l35.94-.46c13.9-.18,26.11-9.28,30.23-22.56l10.67-34.32c1.63-5.25,9.02-5.34,10.78-.14Z"/>
    <path class="st1" d="M425.02,275.51c-1.24,0-2.48-.38-3.57-1.15-2.22-1.57-3.14-4.27-2.33-6.87l10.67-34.32c4.08-13.11-.71-27.24-11.92-35.17l-29.34-20.75c-2.22-1.57-3.14-4.27-2.33-6.87s3.09-4.3,5.81-4.34l35.94-.46c13.73-.17,25.69-9.1,29.76-22.21l10.67-34.32c.81-2.6,3.09-4.3,5.81-4.34,2.74-.07,5.05,1.61,5.92,4.19l11.54,34.04c4.36,12.87,16.35,21.45,29.91,21.45.14,0,.27,0,.41,0l35.94-.46c2.72-.07,5.05,1.61,5.92,4.19.88,2.58.03,5.3-2.15,6.93l-28.8,21.49c-11,8.21-15.43,22.46-11.03,35.46l11.54,34.04c.87,2.58.03,5.3-2.15,6.93-2.18,1.63-5.03,1.66-7.25.09l-29.34-20.75c-11.21-7.93-26.13-7.74-37.13.47l-28.8,21.49c-1.11.83-2.4,1.25-3.69,1.25ZM474.28,105.72h-.07c-2.28.03-4.19,1.46-4.87,3.63l-10.67,34.32c-4.21,13.52-16.54,22.73-30.71,22.91l-35.94.46c-2.28.03-4.19,1.46-4.87,3.64-.68,2.18.09,4.44,1.95,5.76l29.34,20.75c11.56,8.18,16.5,22.76,12.3,36.28l-10.67,34.32c-.68,2.18.09,4.44,1.95,5.76,1.86,1.32,4.25,1.29,6.08-.08l28.8-21.49c11.35-8.47,26.74-8.67,38.31-.49l29.34,20.75c1.86,1.32,4.25,1.29,6.08-.08,1.83-1.36,2.54-3.64,1.8-5.8l-11.54-34.04c-4.55-13.41.02-28.11,11.38-36.58l28.8-21.49c1.83-1.36,2.54-3.64,1.8-5.8s-2.67-3.54-4.96-3.51l-35.94.46c-.14,0-.28,0-.42,0-13.99,0-26.35-8.85-30.85-22.12l-11.54-34.04c-.72-2.14-2.64-3.51-4.89-3.51Z"/>
  </g>
  <g>
    <g>
      <path class="st14" d="M269.93,222.58c10.34-27.91,215.15-5.91,215.15-5.91,0,0,10.64,102.85,2.36,144.22l-198.6-9.46s-11.82-62.65-18.91-128.85Z"/>
      <path class="st18" d="M487.85,361.41l-199.42-9.5-.07-.39c-.12-.63-11.91-63.43-18.92-128.89v-.12s.03-.11.03-.11c4.37-11.8,42.03-16.42,111.94-13.75,51.91,1.99,103.22,7.46,103.73,7.51l.4.04.04.4c.11,1.03,10.55,103.4,2.36,144.37l-.08.42ZM289.27,350.95l197.77,9.42c7.75-39.79-1.7-136.17-2.41-143.25-10.22-1.07-203.82-20.96-214.18,5.52,6.72,62.69,17.82,122.91,18.82,128.31Z"/>
    </g>
    <g>
      <path class="st14" d="M469.72,382.17s4.73-88.66-1.18-146.59c0,0-189.14,13-198.6-13,0,0-10.64,96.94,2.36,152.5,0,0,111.12,28.37,197.42,7.09Z"/>
      <path class="st18" d="M396.66,390.52c-64.87,0-123.68-14.75-124.48-14.96l-.29-.08-.07-.29c-6.73-28.75-7.02-68.74-6.07-97.21,1.02-30.84,3.67-55.21,3.7-55.45l.23-2.13.73,2.02c9.22,25.36,196.21,12.81,198.09,12.68l.48-.03.05.48c5.85,57.3,1.23,145.78,1.18,146.66l-.02.37-.36.09c-23.39,5.77-48.72,7.87-73.18,7.87ZM272.72,374.67c6.41,1.58,113.54,27.42,196.52,7.11.32-6.3,4.42-90.32-1.15-145.66-5.13.34-49.97,3.22-95.3,3.22-61.44,0-95.89-5.05-102.52-15.03-.61,6-2.65,27.52-3.52,53.71-.94,28.32-.66,68.02,5.98,96.65Z"/>
    </g>
    <g>
      <path class="st14" d="M489.81,273.41s-9.46,30.74-57.92,22.46v36.65s44.92,16.55,60.29-17.73l-2.36-41.37Z"/>
      <path class="st18" d="M455.49,336.93c-12.78,0-23.55-3.86-23.77-3.94l-.33-.12v-37.59l.58.1c13.7,2.34,32.92,2.85,46.69-7.99,8.23-6.47,10.65-14.05,10.67-14.13l.82-2.65,2.53,44.26-.05.11c-7.9,17.63-23.65,21.94-37.15,21.94ZM432.39,332.17c4.09,1.39,44.92,14.32,59.28-17.47l-2.23-39.08c-3.22,6.76-16.59,27.54-57.05,20.85v35.7Z"/>
    </g>
    <g>
      <circle class="st11" cx="451.98" cy="314.79" r="10.64"/>
      <path class="st1" d="M451.98,325.93c-6.14,0-11.14-5-11.14-11.14s5-11.14,11.14-11.14,11.14,5,11.14,11.14-5,11.14-11.14,11.14ZM451.98,304.65c-5.59,0-10.14,4.55-10.14,10.14s4.55,10.14,10.14,10.14,10.14-4.55,10.14-10.14-4.55-10.14-10.14-10.14Z"/>
    </g>
  </g>
  <g>
    <path class="st12" d="M249.42,321.92s24.77,25.3,14.16,65.45"/>
    <g>
      <polygon class="st6" points="263.57 387.37 306.75 387.37 296.5 323.65 263.57 387.37"/>
      <path class="st18" d="M307.34,387.87h-44.59l34-65.8,10.58,65.8ZM264.39,386.87h41.77l-9.92-61.64-31.85,61.64Z"/>
    </g>
    <g>
      <path class="st6" d="M100.16,387.37h56.53s-37.56-74.44-44.91-60.9-11.61,60.9-11.61,60.9Z"/>
      <path class="st18" d="M157.5,387.87h-57.88l.05-.54c.17-1.94,4.35-47.62,11.67-61.09.7-1.28,1.72-1.89,2.92-1.91,11.14.17,41.59,60.26,42.88,62.82l.37.73ZM100.71,386.87h55.16c-10.98-21.66-33.29-61.42-41.63-61.54-.83,0-1.51.44-2.03,1.38-6.8,12.52-11,54.85-11.5,60.16Z"/>
    </g>
    <path class="st18" d="M143.44,222.99s13.17,22.58,4.7,26.34c-8.47,3.76-28.22,23.52-14.11,36.69,14.11,13.17,127.95,5.64,142.06-2.82,14.11-8.47-8.47-21.64-5.64-33.87s7.53-40.45-11.29-49.86"/>
    <path class="st8" d="M153.15,386.95s-34.68-26.07-50.96-21.97c0,0,3.54-95.35,70.78-95.35h82.11c48.13,0,59.46,99.45,59.46,99.45,0,0-20.53-11.28-50.96,18.29v-.42h-110.42Z"/>
    <g class="st19">
      <g>
        <path class="st11" d="M120.77,285.08s104.62,25.4,179.82,1.88l4.9,14.11s-94.81,27.28-189.63-2.82l4.9-13.17Z"/>
        <path class="st1" d="M212.5,312.82c-29.52,0-63.23-3.43-96.79-14.09l-.5-.16,5.24-14.08.43.1c1.04.25,105.35,25.1,179.55,1.89l.46-.15,5.24,15.07-.51.15c-.61.18-40.09,11.26-93.12,11.26ZM116.52,297.93c89.85,28.34,180.69,4.87,188.33,2.8l-4.57-13.15c-71.99,22.29-171.77-.19-179.19-1.92l-4.57,12.27Z"/>
      </g>
      <g>
        <path class="st11" d="M108.26,318.95s116.8,25.4,200.74,1.88l5.47,14.11s-105.85,27.28-211.69-2.82l5.47-13.17Z"/>
        <path class="st1" d="M210.67,346.69c-32.94,0-70.57-3.43-108.02-14.08l-.54-.15,5.85-14.08.41.09c1.17.25,117.64,25.1,200.5,1.89l.44-.12,5.84,15.06-.54.14c-.68.17-44.74,11.26-103.93,11.26ZM103.47,331.79c100.44,28.38,201.98,4.83,210.34,2.8l-5.11-13.16c-26.32,7.31-55.99,9.81-84.25,9.81-58.31,0-110.72-10.64-115.88-11.72l-5.1,12.27Z"/>
      </g>
      <g>
        <path class="st11" d="M102.54,350.94s116.8,25.4,200.74,1.88l5.47,14.11s-105.85,27.28-211.69-2.82l5.47-13.17Z"/>
        <path class="st1" d="M204.95,378.67c-32.94,0-70.57-3.43-108.02-14.09l-.54-.15,5.85-14.08.41.09c.8.17,55.25,11.79,116.08,11.79,28.35,0,58.08-2.52,84.43-9.9l.44-.12,5.84,15.06-.54.14c-.68.18-44.74,11.26-103.93,11.26ZM97.74,363.78c100.44,28.38,201.98,4.84,210.34,2.8l-5.11-13.16c-26.32,7.31-55.99,9.81-84.26,9.81-58.31,0-110.72-10.64-115.88-11.72l-5.1,12.27Z"/>
      </g>
      <path class="st1" d="M263.96,387.87h-107.66l-.1-.38c-8.45-32.82,8.72-58.43,8.9-58.68l.83.56c-.17.25-16.96,25.31-8.85,57.49h106.1c8.12-32.19-7.66-57.25-7.82-57.5l.84-.54c.16.25,16.3,25.86,7.85,58.67l-.1.38Z"/>
    </g>
    <path class="st1" d="M263.57,387.87c-.07,0-.13-.01-.19-.04-.16-.07-.27-.21-.3-.38h-109.93c-.11,0-.21-.04-.3-.1-.35-.26-34.68-25.88-50.54-21.88-.15.04-.31,0-.44-.1-.12-.1-.19-.25-.19-.41,0-.24.99-24.2,10.21-47.84,12.24-31.4,33.36-47.99,61.07-47.99h82.11c19.91,0,36.6,17.31,48.25,50.06,8.77,24.63,11.68,49.59,11.7,49.84.02.19-.06.37-.22.47-.15.1-.35.11-.52.02-.2-.11-20.59-10.72-50.37,18.21-.1.09-.22.14-.35.14ZM153.32,386.45h110.26c.07,0,.14.01.2.04,15.58-14.95,28.51-19.05,36.65-19.85,7.01-.69,11.69.84,13.51,1.61-1.29-9.89-14.13-98.12-58.85-98.12h-82.11c-34.44,0-51.71,25.74-60.13,47.33-8.31,21.32-9.89,42.9-10.12,46.88,6.9-1.38,17.42,1.86,31.3,9.64,9.89,5.55,18.15,11.61,19.3,12.46Z"/>
    <g>
      <path class="st6" d="M189.46,240.93s5.7,25.63-2.44,31.78c-8.15,6.15-11.41,38.96,16.29,38.96s37.89-27.17,29.74-37.42c-8.15-10.25-10.18-45.62-10.18-45.62l-33.4,12.3Z"/>
      <path class="st18" d="M203.31,312.17c-10.63,0-18.14-4.96-21.16-13.96-3.33-9.93-.22-22.29,4.56-25.9,7.8-5.89,2.31-31.02,2.26-31.28l-.09-.43,34.45-12.69.04.67c.02.35,2.12,35.33,10.08,45.34,3.76,4.73,3.81,12.73.12,20.37-5.4,11.18-16.71,17.86-30.25,17.86ZM190.04,241.25c.74,3.51,5.1,25.96-2.72,31.86-4.53,3.42-7.42,15.23-4.22,24.78,2.03,6.06,7.18,13.28,20.21,13.28s24.12-6.46,29.35-17.29c3.47-7.19,3.47-14.95,0-19.32-7.63-9.6-9.92-40.15-10.25-45.23l-32.37,11.92Z"/>
    </g>
    <circle class="st18" cx="164.42" cy="208.03" r="26.03"/>
    <path class="st18" d="M264.74,218.54s7.35-46.41-13.42-68.99c-20.78-22.58-64.16-23.36-84.67,0-22.58,25.72-8.78,74.01-8.78,74.01l106.88-5.02Z"/>
    <g>
      <path class="st7" d="M260.88,197.22c0-20.07-1.25-52.69-55.19-52.06-53.94.63-45.79,50.18-45.79,50.18,0,0,58.33-48.3,100.98,1.88Z"/>
      <path class="st15" d="M228.18,258.64c-1.46,8.95-27.71,10.8-35.55-1.07,0,0,37.01-7.88,35.55,1.07Z"/>
      <g>
        <g>
          <path class="st6" d="M171,229.97s-15.5,11.12-22.65-5.67c-7.15-16.79,15.67-20.88,20.34-16.34"/>
          <path class="st18" d="M160.33,234.09c-1.11,0-2.24-.13-3.37-.45-3.91-1.09-6.96-4.17-9.08-9.14-3.72-8.73.73-13.47,3.71-15.51,5.85-4.01,14.63-4.11,17.44-1.38l-.7.72c-2.53-2.46-10.83-2.18-16.18,1.48-3.33,2.29-6.62,6.62-3.35,14.3,1.99,4.67,4.82,7.56,8.42,8.56,6.49,1.82,13.41-3.06,13.48-3.11l.58.81c-.25.18-5.25,3.71-10.96,3.71Z"/>
        </g>
        <g>
          <path class="st6" d="M165.2,221.76s-6.35-4.06-11.41-3.37"/>
          <path class="st18" d="M164.93,222.19c-.06-.04-6.27-3.96-11.08-3.29l-.13-.99c5.18-.7,11.48,3.27,11.75,3.44l-.54.84Z"/>
        </g>
        <g>
          <path class="st5" d="M165.23,226.24c-3.38.74-19.21,26.8.42,25.87,18.04-.86,2.96-26.61-.42-25.87Z"/>
          <path class="st2" d="M164.66,252.63c-6.76,0-8.68-3.46-9.07-6.44-1.02-7.71,6.86-19.85,9.53-20.44.86-.19,2.04.62,3.49,2.39,3.72,4.57,8.04,14.02,5.46,19.78-1.29,2.9-4.12,4.48-8.4,4.68-.35.02-.69.02-1.02.02ZM165.39,226.73s-.04,0-.05,0c-1.9.42-9.74,11.95-8.76,19.33.52,3.94,3.57,5.81,9.05,5.55,3.87-.18,6.4-1.56,7.53-4.09,2.3-5.15-1.62-14.19-5.33-18.74-1.34-1.64-2.15-2.05-2.45-2.05Z"/>
        </g>
      </g>
      <g>
        <g>
          <path class="st6" d="M252.09,229.97s15.5,11.12,22.65-5.67c7.15-16.79-15.67-20.88-20.34-16.34"/>
          <path class="st18" d="M262.75,234.09c-5.71,0-10.71-3.53-10.96-3.71l.58-.81c.07.05,6.99,4.93,13.48,3.11,3.6-1.01,6.43-3.89,8.42-8.56,3.27-7.67-.02-12.01-3.35-14.3-5.35-3.67-13.65-3.94-16.18-1.48l-.7-.72c2.82-2.74,11.59-2.64,17.44,1.38,2.98,2.04,7.43,6.78,3.71,15.51-2.12,4.97-5.17,8.04-9.08,9.14-1.13.32-2.26.45-3.37.45Z"/>
        </g>
        <g>
          <path class="st6" d="M257.89,221.76s6.35-4.06,11.41-3.37"/>
          <path class="st18" d="M258.16,222.19l-.54-.84c.27-.17,6.56-4.15,11.75-3.44l-.13.99c-4.81-.65-11.01,3.26-11.08,3.29Z"/>
        </g>
      </g>
      <g>
        <path class="st5" d="M259.31,226.24c-3.38.74-19.21,26.8.42,25.87,18.04-.86,2.96-26.61-.42-25.87Z"/>
        <path class="st2" d="M258.74,252.63c-6.76,0-8.68-3.46-9.07-6.44-1.02-7.71,6.86-19.85,9.53-20.44.86-.19,2.04.62,3.49,2.39,3.72,4.57,8.04,14.02,5.46,19.78-1.3,2.9-4.12,4.48-8.4,4.68-.35.02-.69.02-1.02.02ZM259.42,226.73c-1.9.42-9.74,11.95-8.76,19.33.52,3.94,3.57,5.81,9.05,5.55,3.87-.18,6.4-1.56,7.53-4.09,2.3-5.15-1.62-14.19-5.33-18.74-1.42-1.74-2.25-2.1-2.5-2.05h0Z"/>
      </g>
      <g>
        <path class="st6" d="M217.82,259.25c18.79-1.46,42.61-10.16,44.46-44.79,2.83-52.99-49.24-65.28-76.55-52.26-21.24,10.13-30.79,25.96-24.54,59.04,6.25,33.08,37.44,39.5,56.64,38.01Z"/>
        <path class="st18" d="M212.39,259.96c-21.59,0-46.28-9.9-51.7-38.63-5.8-30.71,1.62-48.53,24.82-59.59,16.74-7.98,39.62-6.07,55.65,4.65,10.66,7.13,23.06,21.26,21.62,48.09-1.85,34.66-25.45,43.75-44.92,45.26h0c-1.79.14-3.61.21-5.46.21ZM208.32,157.94c-7.95,0-15.74,1.54-22.38,4.71-23.01,10.97-30.04,27.92-24.27,58.5,5.77,30.53,33.83,39.34,56.1,37.6h0c19.07-1.49,42.19-10.38,44-44.32,1.41-26.36-10.74-40.22-21.18-47.2-9.13-6.11-20.87-9.29-32.28-9.29Z"/>
      </g>
      <ellipse class="st9" cx="182.69" cy="221.18" rx="4.64" ry="6.87" transform="translate(-73.04 351.17) rotate(-77.39)"/>
      <ellipse class="st9" cx="240.83" cy="221.05" rx="4.64" ry="6.87" transform="translate(16.11 458.47) rotate(-89.12)"/>
      <path class="st6" d="M195.18,256.97"/>
      <path class="st18" d="M208.17,178.63s32.93,30.58,53.63,26.81c0,0,8.19-43.45-54.57-48.45-53.16-4.23-48.45,49.39-48.45,49.39,0,0,34.34-10.35,49.39-27.75Z"/>
      <g>
        <g>
          <path class="st18" d="M195.29,214.25s.06,2.94-.33,3.86.11,2.06,1.3,1.9,2.33-4.48,1.86-7.88-.86-3.69-2.7-3.27.13,3.45-.12,5.39Z"/>
          <path class="st18" d="M196.04,220.53c-.55,0-1.03-.23-1.34-.64-.41-.53-.48-1.3-.2-1.97.25-.6.31-2.56.29-3.65v-.04s0-.04,0-.04c.08-.65-.13-1.49-.34-2.3-.28-1.1-.55-2.14-.11-2.86.2-.33.52-.55.95-.65.76-.18,1.49-.3,2.07.1.7.48.96,1.54,1.24,3.58.23,1.62.11,3.62-.31,5.34-.27,1.09-.88,2.95-1.97,3.1-.1.01-.19.02-.29.02ZM195.79,214.28c0,.45.04,3.07-.37,4.03-.14.34-.11.73.07.97.15.2.39.28.7.24.18-.02.72-.65,1.13-2.35.39-1.6.5-3.46.3-4.97-.21-1.55-.44-2.64-.81-2.9-.19-.13-.55-.12-1.28.05-.21.05-.29.13-.32.19-.22.36.02,1.28.22,2.09.23.89.46,1.81.37,2.64Z"/>
        </g>
        <g>
          <path class="st18" d="M225.3,213.93s.06,2.94-.33,3.86c-.39.92.11,2.06,1.3,1.9s2.33-4.48,1.86-7.88-.86-3.69-2.7-3.27c-1.85.43.13,3.45-.12,5.39Z"/>
          <path class="st18" d="M226.05,220.21c-.55,0-1.03-.23-1.34-.64-.41-.53-.48-1.3-.2-1.97.25-.6.31-2.56.29-3.65v-.04s0-.04,0-.04c.08-.65-.13-1.49-.34-2.3-.28-1.1-.55-2.14-.11-2.86.2-.33.52-.55.95-.65.76-.18,1.49-.3,2.08.1.7.48.96,1.54,1.24,3.58.47,3.41-.57,8.21-2.28,8.45-.1.01-.19.02-.29.02ZM225.8,213.96c0,.45.04,3.07-.37,4.03-.14.34-.11.73.07.97.15.2.39.28.7.24.63-.09,1.91-3.81,1.43-7.32-.21-1.55-.44-2.64-.81-2.9-.19-.13-.55-.12-1.28.05-.21.05-.29.13-.32.19-.22.36.02,1.28.22,2.09.23.89.46,1.81.37,2.64Z"/>
        </g>
        <path class="st18" d="M205.8,238.46l-.54-.84c4.26-2.71,7.71-3.62,10.27-2.72,2.22.79,2.88,2.67,2.91,2.75l-.95.32.47-.16-.47.16c-.02-.06-.55-1.52-2.31-2.13-2.22-.77-5.46.14-9.38,2.63Z"/>
        <rect class="st18" x="219.24" y="201.65" width="12.82" height="1"/>
        <rect class="st18" x="189.02" y="201.65" width="12.82" height="1"/>
      </g>
      <path class="st18" d="M216.21,229.67l-.83-.56s2.71-4.04,1.54-6.77c-.56-1.3-1.96-2.14-4.14-2.49-2.2-.35-3.94.05-5.18,1.19-2.59,2.39-2.25,7.28-2.25,7.33l-1,.08c-.02-.22-.38-5.42,2.57-8.14,1.48-1.36,3.5-1.85,6.02-1.44,2.55.41,4.2,1.44,4.9,3.08,1.39,3.23-1.51,7.54-1.63,7.72Z"/>
    </g>
    <g>
      <line class="st3" x1="291.09" y1="387.3" x2="107.61" y2="387.3"/>
      <rect class="st1" x="107.61" y="386.8" width="183.48" height="1"/>
    </g>
    <g>
      <ellipse class="st13" cx="314.32" cy="244.37" rx="12.58" ry="17.08" transform="translate(-51.69 401.04) rotate(-61.04)"/>
      <path class="st18" d="M318.4,258.63c-3.35,0-6.98-.92-10.41-2.81-4.08-2.26-7.28-5.56-9-9.3-1.74-3.79-1.76-7.57-.05-10.66,3.49-6.31,13.24-7.62,21.72-2.93,8.48,4.7,12.54,13.65,9.05,19.96h0c-2.08,3.76-6.38,5.74-11.31,5.74ZM310.22,231.1c-4.56,0-8.51,1.81-10.41,5.24-1.55,2.8-1.52,6.26.09,9.75,1.63,3.55,4.67,6.69,8.57,8.84,8,4.43,17.13,3.29,20.36-2.54,3.23-5.83-.66-14.17-8.66-18.6-3.29-1.82-6.77-2.7-9.95-2.7Z"/>
    </g>
    <g>
      <ellipse class="st13" cx="318.39" cy="276.71" rx="17.08" ry="13.06" transform="translate(-92.93 370.28) rotate(-53.81)"/>
      <path class="st18" d="M314.71,293.01c-2.49,0-4.79-.72-6.71-2.12-6.03-4.42-6.27-14.38-.54-22.2,2.76-3.77,6.48-6.49,10.48-7.66,4.05-1.19,7.9-.65,10.84,1.5h0c6.03,4.42,6.27,14.38.54,22.2-2.76,3.77-6.48,6.49-10.48,7.66-1.41.41-2.8.62-4.13.62ZM322.07,261.42c-1.24,0-2.53.19-3.84.58-3.79,1.11-7.33,3.7-9.96,7.29-5.4,7.37-5.26,16.7.32,20.8,2.68,1.97,6.22,2.45,9.96,1.35,3.79-1.11,7.33-3.7,9.96-7.29,5.4-7.37,5.26-16.7-.32-20.8-1.74-1.28-3.84-1.93-6.12-1.93Z"/>
    </g>
    <g>
      <g>
        <g>
          <path class="st6" d="M329.19,325.65s18.38,30.03,13.48,47.8c-4.9,17.77-41.28,21.3-55.88.85-14.6-20.46,5.52-80.89,5.52-80.89,0,0,3.47-8.38,13.48-9.6,10.01-1.23,19.41,1.84,21.65-1.02,2.25-2.86,2.86-6.13,3.47-7.97.61-1.84,3.47-8.58,7.97-8.17,4.49.41,4.9,3.27,4.9,3.27,0,0,3.06-4.09,6.74-3.68,3.68.41,4.9,5.11,4.9,5.11,0,0,1.63-1.63,5.11-1.43,3.47.2,5.52,6.54,5.52,6.54l.2,5.72s1.43-2.86,5.52-1.02c4.09,1.84,3.47,15.32-.41,21.86-3.88,6.54-19.2,29.82-61.08,21.04"/>
          <path class="st18" d="M316.47,388.75c-10.8,0-22.9-4.09-30.08-14.16-6.13-8.6-7.08-24.92-2.8-48.5,3.17-17.5,8.2-32.69,8.25-32.84.05-.12,3.71-8.69,13.9-9.94,4.49-.55,8.93-.24,12.49,0,4.33.3,7.74.54,8.83-.84,1.76-2.24,2.49-4.76,3.02-6.6.13-.45.25-.86.37-1.22.12-.37,3.06-9,8.49-8.51,3.23.29,4.52,1.79,5.03,2.78,1.1-1.2,3.64-3.52,6.62-3.19,3.11.35,4.59,3.38,5.11,4.78.8-.52,2.41-1.25,4.88-1.11,3.77.22,5.87,6.61,5.96,6.88l.02.14.16,4.47c.92-.74,2.59-1.41,5.27-.21,1.05.47,1.85,1.56,2.38,3.25,1.62,5.13.4,14.33-2.56,19.32-5.41,9.12-17.42,22.42-41.54,23.21,1.41,2.43,4.89,8.7,7.98,16.22,5.33,13.02,6.98,23.41,4.92,30.89-2.01,7.29-9.35,12.74-19.62,14.55-2.24.4-4.62.61-7.06.61ZM311.17,284c-1.73,0-3.5.08-5.32.3-9.59,1.17-13.05,9.22-13.08,9.3-.19.57-19.85,60.39-5.57,80.41,8.56,11.99,24.33,15.24,36.16,13.15,9.88-1.75,16.92-6.92,18.83-13.84,4.42-16-10.57-42.54-13.08-46.82-5.64.1-11.93-.5-18.93-1.97l.21-.98c7.07,1.48,13.41,2.05,19.06,1.93l.16-.1s.02.04.06.09c24.03-.6,35.92-13.75,41.26-22.73,2.79-4.7,3.99-13.7,2.47-18.51-.44-1.38-1.07-2.29-1.84-2.64-3.57-1.61-4.81.69-4.87.79l-.88,1.69-.27-7.55c-.22-.64-2.13-5.96-5.05-6.13-3.16-.19-4.66,1.23-4.73,1.29l-.61.6-.22-.83s-1.19-4.37-4.47-4.74c-3.34-.38-6.26,3.44-6.29,3.48l-.72.96-.17-1.19c-.02-.1-.44-2.48-4.45-2.84-4.62-.42-7.42,7.75-7.45,7.83-.12.35-.23.74-.36,1.18-.56,1.92-1.32,4.55-3.2,6.94-1.41,1.8-4.88,1.56-9.68,1.22-2.18-.15-4.53-.32-6.98-.32Z"/>
        </g>
        <path class="st1" d="M333.65,295.86l-.57-.82c.1-.07,9.61-6.85,10.2-25.14l1,.03c-.61,18.83-10.23,25.65-10.63,25.93Z"/>
        <path class="st1" d="M343.05,301.99l-.57-.82c.13-.09,13.25-9.5,12.45-29.8l1-.04c.82,20.87-12.74,30.57-12.88,30.66Z"/>
        <path class="st1" d="M350.78,309.37l-.49-.87c.15-.08,14.68-8.47,15.48-26.35l1,.04c-.82,18.45-15.83,27.09-15.98,27.17Z"/>
      </g>
      <g>
        <path class="st10" d="M342.74,277.24s-6.78-1.58-4.15-7.53c2.62-5.95,7.22-1.36,4.15,7.53Z"/>
        <path class="st2" d="M343.06,277.83l-.44-.1c-.14-.03-3.39-.81-4.66-3.35-.7-1.4-.65-3.04.16-4.87,1.52-3.46,3.38-3.05,3.91-2.84,2.11.83,3.12,5.07,1.17,10.73l-.15.43ZM341.31,267.53c-.76,0-1.6.87-2.27,2.38-.68,1.54-.74,2.9-.18,4.02.81,1.62,2.7,2.41,3.55,2.69,1.62-5.07.64-8.48-.74-9.03-.12-.05-.24-.07-.36-.07Z"/>
      </g>
      <g>
        <path class="st10" d="M354.69,277.55s-6.78-1.58-4.15-7.53c2.62-5.95,7.22-1.36,4.15,7.53Z"/>
        <path class="st2" d="M355.01,278.14l-.44-.1c-.14-.03-3.39-.81-4.66-3.35-.7-1.4-.65-3.04.16-4.87,1.53-3.46,3.38-3.05,3.91-2.84,2.11.83,3.12,5.07,1.17,10.73l-.15.43ZM353.26,267.84c-.76,0-1.6.87-2.27,2.38-.68,1.54-.74,2.89-.18,4.02.8,1.61,2.7,2.41,3.56,2.69,1.62-5.07.64-8.48-.74-9.02-.12-.05-.24-.07-.36-.07Z"/>
      </g>
      <g>
        <path class="st10" d="M374.34,291.92s-6.9-.91-4.87-7.09,7.05-2.05,4.87,7.09Z"/>
        <path class="st2" d="M374.72,292.47l-.45-.06c-.14-.02-3.45-.48-4.96-2.88-.83-1.33-.94-2.97-.32-4.86,1.18-3.59,3.07-3.36,3.62-3.21,2.18.62,3.6,4.74,2.21,10.57l-.1.44ZM372.08,282.39c-.79,0-1.59.96-2.12,2.6-.53,1.6-.46,2.95.21,4.02.96,1.53,2.92,2.13,3.8,2.34,1.12-5.2-.18-8.5-1.61-8.91-.09-.03-.18-.04-.27-.04Z"/>
      </g>
      <g>
        <path class="st10" d="M365.76,282.53s-7.95-.17-6.41-7.45c1.54-7.27,7.75-3.21,6.41,7.45Z"/>
        <path class="st2" d="M366.2,283.04h-.45c-.16-.01-3.95-.12-5.94-2.63-1.1-1.39-1.42-3.21-.95-5.43.59-2.81,1.94-4.32,3.63-4.04,2.52.42,4.62,4.9,3.77,11.65l-.06.45ZM362.11,271.91c-.99,0-1.85,1.23-2.28,3.28-.4,1.91-.15,3.45.75,4.59,1.33,1.68,3.73,2.1,4.73,2.21.65-6.13-1.29-9.78-3-10.07-.07-.01-.14-.02-.2-.02Z"/>
      </g>
    </g>
  </g>
  <g>
    <path class="st18" d="M358.15,230.16l-1-.1s.18-1.87.33-4.97l1,.05c-.15,3.12-.33,5-.33,5.02ZM358.64,220.13l-1-.02c.02-1.04.03-2.15.03-3.32,0-.55,0-1.1,0-1.67h1c0,.56,0,1.12,0,1.67,0,1.17-.01,2.29-.03,3.34ZM357.55,210.13c-.06-1.68-.15-3.35-.26-4.98l1-.07c.11,1.64.2,3.33.26,5.01l-1,.04ZM356.88,200.18c-.17-1.67-.36-3.34-.58-4.95l.99-.13c.22,1.63.42,3.3.58,4.99l-1,.1ZM355.54,190.31c-.29-1.67-.62-3.31-.97-4.88l.98-.22c.35,1.59.68,3.25.98,4.93l-.98.17ZM327,181.32c-1.72-.06-3.42-.27-5.04-.62l.21-.98c1.57.34,3.21.54,4.87.6l-.03,1ZM332.07,181.05l-.14-.99c1.63-.22,3.24-.59,4.79-1.08l.3.95c-1.61.51-3.27.88-4.95,1.11ZM353.36,180.59c-.45-1.63-.95-3.23-1.48-4.75l.95-.33c.53,1.54,1.03,3.15,1.49,4.81l-.96.27ZM317.11,179.12c-1.61-.72-3.08-1.6-4.38-2.63l.62-.79c1.23.97,2.64,1.81,4.17,2.5l-.41.91ZM341.72,178l-.46-.89c1.46-.76,2.84-1.65,4.12-2.65l.62.79c-1.32,1.04-2.76,1.96-4.27,2.75ZM309.19,172.79c-.99-1.4-1.77-2.93-2.33-4.56l.95-.32c.53,1.54,1.27,2.99,2.2,4.31l-.82.58ZM349.68,171.75l-.75-.66c.25-.29.49-.58.73-.88-.54-1.2-1.11-2.36-1.7-3.47l.88-.47c.52.97,1.02,1.99,1.51,3.03.51-.71.99-1.44,1.43-2.2l.86.5c-.55.95-1.17,1.87-1.83,2.74.07.16.14.31.2.47l-.87.37c-.15.19-.31.37-.47.55ZM305.9,163.19c-.02-.31-.02-.62-.02-.92,0-1.42.16-2.82.48-4.18l.97.23c-.3,1.28-.46,2.61-.46,3.95,0,.29,0,.58.02.87l-1,.05ZM354.79,163.01l-.94-.34c.55-1.5.99-3.09,1.31-4.73l.98.19c-.33,1.69-.79,3.34-1.35,4.88ZM345.4,162.51c-.95-1.4-1.96-2.71-3.01-3.91l.75-.66c1.08,1.23,2.12,2.58,3.09,4.01l-.83.56ZM338.88,155.15c-.6-.51-1.23-1.01-1.86-1.47-.7-.51-1.41-1-2.11-1.45l.54-.84c.71.46,1.43.96,2.15,1.48.65.48,1.3.99,1.92,1.51l-.65.76ZM309.13,153.84l-.86-.51c.91-1.52,2.04-2.83,3.36-3.9l.63.78c-1.23,1-2.28,2.22-3.13,3.64ZM356.77,153.11l-1-.06c.05-.8.07-1.62.07-2.44,0-.81-.02-1.65-.07-2.5l1-.05c.05.86.07,1.72.07,2.55,0,.84-.02,1.68-.07,2.5ZM330.62,149.79c-1.56-.75-3.1-1.34-4.58-1.75l.27-.96c1.54.43,3.14,1.04,4.75,1.81l-.43.9ZM316.47,147.94l-.3-.95c1.59-.5,3.28-.74,5.09-.69l-.03,1h-.4c-1.53,0-3,.21-4.37.65ZM355.42,143.11c0-.28,0-.56,0-.86,0-1.45.08-2.87.22-4.2l.99.11c-.15,1.3-.22,2.68-.22,4.09,0,.29,0,.57,0,.84l-1,.02ZM357.59,133.35l-.96-.29c.54-1.77,1.28-3.34,2.17-4.65l.83.56c-.84,1.23-1.53,2.7-2.04,4.38ZM363.06,125.71l-.51-.86c1.43-.84,3.08-1.38,4.91-1.59l.12.99c-1.69.2-3.21.69-4.52,1.46Z"/>
    <g>
      <g>
        <path class="st8" d="M384.52,116.38s13.31-18.84,3.89-22.46c-9.42-3.62-20.29,5.8-19.56,9.42.72,3.62,11.05,14.49,15.67,13.04Z"/>
        <path class="st1" d="M383.6,117.01c-1.17,0-2.59-.49-4.22-1.45-4.93-2.92-10.47-9.41-11.01-12.12-.32-1.59,1.12-3.96,3.75-6.18,3.81-3.21,10.41-6.14,16.48-3.81,1.73.67,2.87,1.86,3.38,3.55,2.03,6.71-6.68,19.14-7.05,19.67l-.1.14-.16.05c-.33.1-.69.16-1.07.16ZM383.95,93.61c-4.31,0-8.49,2.13-11.19,4.42-2.25,1.89-3.65,4.04-3.42,5.21.5,2.47,5.9,8.71,10.54,11.46,1.79,1.06,3.29,1.49,4.33,1.25.97-1.42,8.59-12.78,6.81-18.66-.42-1.4-1.33-2.34-2.78-2.9-1.41-.54-2.85-.78-4.28-.78Z"/>
      </g>
      <g>
        <path class="st8" d="M382.1,114.5s-15.83,16.78-7.01,21.69c8.81,4.91,20.9-2.89,20.69-6.57-.21-3.69-8.9-15.9-13.68-15.11Z"/>
        <path class="st1" d="M381.4,138.25c-2.22,0-4.48-.47-6.55-1.63-1.62-.9-2.58-2.25-2.85-3.99-1.07-6.93,9.3-18.01,9.74-18.48l.12-.12.17-.03c1.39-.23,3.09.45,5.06,2.03,4.47,3.58,9.04,10.79,9.2,13.55.09,1.62-1.67,3.76-4.58,5.59-2.68,1.68-6.45,3.08-10.29,3.08ZM382.34,114.97c-1.16,1.27-10.3,11.44-9.36,17.51.22,1.44.99,2.51,2.35,3.26,5.29,2.95,11.84,1.07,15.83-1.43,2.49-1.56,4.18-3.49,4.12-4.68-.14-2.52-4.61-9.45-8.82-12.82-1.63-1.3-3.03-1.95-4.11-1.85Z"/>
      </g>
      <ellipse class="st18" cx="383.07" cy="115.66" rx="12.23" ry="8.15"/>
    </g>
  </g>
  <path class="st18" d="M98.18,183.9c-1.68,0-3.14-.75-4.27-2.23-5.36-6.96,1.86-19.31,9.66-27.78,4.89-5.31,10.76-10.03,16.46-12.98-.64-9.92-5.58-15.25-10.14-18.07-5.79-3.58-11.74-3.8-17.37-1.91.21,2.02.25,4.19.12,6.5-1.03,17.24-12.37,39.8-22.06,43.88-2.39,1.01-4.56.76-6.28-.73-5.16-4.47-3.71-18.85,7.63-34.28,5.13-6.98,11.99-13.28,19.49-16.06-.73-5.46-2.98-10.95-8.46-14.07l.5-.87c4.96,2.83,7.99,7.81,8.93,14.6,5.82-1.91,12-1.65,18.02,2.08,6.27,3.88,9.88,10.28,10.55,18.45,6.08-2.95,11.9-3.81,16.03-1.13,3.13,2.02,5.07,4.9,5.78,8.54,2.24,11.49-8.33,26.76-8.78,27.4l-.82-.57c.11-.15,10.78-15.56,8.62-26.64-.66-3.37-2.46-6.02-5.34-7.89-3.3-2.14-8.83-1.89-15.42,1.31.13,2.57-.02,5.31-.45,8.19-2.29,15.06-12.59,31.92-20.78,34.04-.56.14-1.1.22-1.61.22ZM120.08,141.94c-4.88,2.55-10.29,6.68-15.78,12.63-8.14,8.83-14.26,20.44-9.61,26.49,1.24,1.61,2.87,2.17,4.85,1.65,7.07-1.82,17.59-17.05,20.04-33.22.42-2.77.57-5.28.49-7.56ZM91.54,121.28c-7.21,2.74-13.83,8.85-18.8,15.62-8.61,11.71-13.79,27.74-7.79,32.93,1.43,1.23,3.19,1.42,5.24.56,9.98-4.2,20.54-27.8,21.45-43.02.11-1.91.12-3.99-.09-6.09Z"/>
</svg>