<?xml version="1.0" encoding="UTF-8"?>
<svg id="Layer_1" xmlns="http://www.w3.org/2000/svg" xmlns:xlink="http://www.w3.org/1999/xlink" version="1.1" viewBox="0 0 469.91 324.64">
  <!-- Generator: Adobe Illustrator 29.8.2, SVG Export Plug-In . SVG Version: 2.1.1 Build 3)  -->
  <defs>
    <style>
      .st0 {
        fill: none;
      }

      .st1 {
        fill: #0c0907;
      }

      .st2 {
        fill: #dde069;
      }

      .st3 {
        fill: #6d4524;
      }

      .st4 {
        fill: #c4c65c;
      }

      .st5 {
        fill: #889594;
      }

      .st6 {
        fill: #271911;
      }

      .st7 {
        fill: #fce9ba;
      }

      .st8 {
        fill: #cdd5af;
      }

      .st9 {
        fill: #e2e2e2;
      }

      .st10 {
        fill: #b17a50;
      }

      .st11 {
        fill: #e4f2eb;
      }

      .st12 {
        fill: #896142;
      }

      .st13 {
        fill: #4c412c;
      }

      .st14 {
        fill: #fff;
      }

      .st15 {
        fill: #f26a3b;
      }

      .st16 {
        fill: #f0ec76;
      }

      .st17 {
        fill: #d887b9;
      }

      .st18 {
        fill: #b7cac2;
      }

      .st19 {
        fill: #fdf6e3;
      }

      .st20 {
        fill: #2a2520;
      }

      .st21 {
        fill: #e5d9eb;
      }

      .st22 {
        fill: #0e0c0b;
      }

      .st23 {
        fill: #985d28;
      }

      .st24 {
        clip-path: url(#clippath);
      }
    </style>
    <clipPath id="clippath">
      <path class="st0" d="M30.02,308.88l361.83.34S448.03,40.99,219.5,40.77C-9.03,40.56,31.2,308.87,30.02,308.88Z"/>
    </clipPath>
  </defs>
  <g class="st24">
    <g>
      <g>
        <path class="st16" d="M5.63,326.73l410.05.38S479.34,23.14,220.36,22.9C-38.62,22.65,6.96,326.72,5.63,326.73"/>
        <path class="st22" d="M416.09,327.61h-.41l-410.05-.38v-.5l-.47-.12c.03-.25-.11-1.79-.28-3.74-1.15-12.92-4.64-52.22,1.29-99.11,7.54-59.66,27.12-107.11,58.2-141.03,36.67-40.03,89.05-60.33,155.69-60.33h.31c68.57.06,120.73,21.53,155.04,63.81,20.68,25.49,45.73,72.91,47.59,154.04,1.11,48.49-6.74,86.58-6.82,86.96l-.08.4h0ZM6.15,326.23l409.12.38c.83-4.18,7.76-40.63,6.71-86.36-1.02-44.62-10.07-107.46-47.37-153.41-34.11-42.03-86.01-63.38-154.26-63.44h-.31c-66.35,0-118.48,20.19-154.95,60C34.17,117.16,14.68,164.43,7.16,223.88c-5.92,46.78-2.43,86.01-1.29,98.9.17,1.89.26,2.89.28,3.45Z"/>
      </g>
      <g>
        <rect class="st8" x="-34.02" y="135.01" width="486.77" height="192.07"/>
        <path class="st22" d="M453.26,327.59H-34.52v-193.07h487.77v193.07h.01ZM-33.52,326.59h485.77v-191.07H-33.52v191.07Z"/>
      </g>
    </g>
  </g>
  <path class="st22" d="M392.26,309.71h-.41l-361.83-.34v-.5l-.48-.11c.02-.22-.1-1.58-.25-3.29-1.01-11.4-4.09-46.09,1.14-87.47,6.66-52.66,23.94-94.54,51.37-124.48,32.37-35.33,78.61-53.25,137.42-53.25h.27c60.52.06,106.57,19.01,136.86,56.33,18.26,22.5,40.37,64.35,42,135.96.98,42.8-5.95,76.41-6.02,76.75l-.08.4h0ZM30.54,308.37l360.91.34c.77-3.91,6.84-35.97,5.91-76.15-.9-39.36-8.88-94.8-41.78-135.33-30.09-37.08-75.87-55.9-136.08-55.96h-.27c-58.53,0-104.52,17.81-136.69,52.93-27.28,29.79-44.48,71.48-51.11,123.93-5.22,41.27-2.15,75.88-1.14,87.25.14,1.59.22,2.48.25,2.99Z"/>
  <g>
    <g>
      <path class="st17" d="M239.94,13.59l8.09,11.48c8.01,11.36,22.42,16.28,35.7,12.18l13.42-4.15c5.25-1.62,9.51,4.42,6.21,8.82l-8.42,11.24c-8.33,11.13-8.55,26.35-.55,37.72l8.09,11.48c3.16,4.49-1.27,10.41-6.47,8.63l-13.29-4.53c-13.16-4.49-27.71,0-36.04,11.14l-8.42,11.24c-3.29,4.4-10.29,2.01-10.21-3.48l.2-14.04c.2-13.9-8.57-26.35-21.73-30.84l-13.29-4.53c-5.2-1.77-5.09-9.16.16-10.78l13.42-4.15c13.28-4.1,22.41-16.29,22.61-30.19l.2-14.04c.08-5.49,7.14-7.67,10.31-3.18v-.02Z"/>
      <path class="st1" d="M233.78,131.61c-.68,0-1.36-.11-2.04-.34-2.58-.88-4.22-3.21-4.18-5.93l.2-14.04c.2-13.73-8.4-25.93-21.39-30.36l-13.29-4.53c-2.58-.88-4.22-3.21-4.18-5.93.04-2.72,1.75-5,4.35-5.81l13.42-4.15c13.12-4.05,22.06-16,22.26-29.72l.2-14.04c.04-2.72,1.75-5,4.35-5.81,2.6-.8,5.3.12,6.86,2.34l8.09,11.48c7.91,11.22,22.03,16.04,35.15,11.99l13.42-4.15c2.61-.8,5.3.12,6.87,2.34,1.57,2.23,1.53,5.07-.11,7.25l-8.42,11.24c-8.23,10.99-8.45,25.91-.54,37.13l8.09,11.48c1.57,2.23,1.53,5.07-.11,7.25-1.63,2.18-4.35,3.02-6.93,2.14l-13.29-4.53c-12.99-4.43-27.25-.03-35.48,10.96l-8.42,11.24c-1.2,1.61-3,2.48-4.89,2.48v.02ZM235.35,11.68c-.52,0-1.05.08-1.57.24-2.18.67-3.61,2.58-3.64,4.87l-.2,14.04c-.21,14.16-9.44,26.48-22.97,30.66l-13.42,4.15c-2.18.67-3.61,2.58-3.64,4.87-.03,2.28,1.34,4.23,3.5,4.97l13.29,4.53c13.4,4.57,22.27,17.16,22.07,31.32l-.2,14.04c-.03,2.28,1.34,4.23,3.5,4.97,2.16.74,4.44.03,5.81-1.79l8.42-11.24c8.49-11.34,23.2-15.88,36.6-11.31l13.29,4.53c2.16.74,4.44.03,5.81-1.79,1.37-1.83,1.4-4.21.09-6.08l-8.09-11.48c-8.16-11.58-7.93-26.97.56-38.31l8.42-11.24c1.37-1.83,1.4-4.21.09-6.08s-3.57-2.64-5.75-1.96l-13.42,4.15c-13.53,4.18-28.1-.79-36.26-12.37l-8.09-11.48c-1-1.42-2.54-2.2-4.18-2.2h-.02Z"/>
    </g>
    <g>
      <path class="st21" d="M396.2,190.97l8.09,11.48c8.01,11.36,22.42,16.28,35.7,12.18l13.42-4.15c5.25-1.62,9.51,4.42,6.21,8.82l-8.42,11.24c-8.33,11.13-8.55,26.35-.55,37.72l8.09,11.48c3.16,4.49-1.27,10.41-6.47,8.63l-13.29-4.53c-13.16-4.49-27.71,0-36.04,11.14l-8.42,11.24c-3.29,4.4-10.29,2.01-10.21-3.48l.2-14.04c.2-13.9-8.57-26.35-21.73-30.84l-13.29-4.53c-5.2-1.77-5.09-9.16.16-10.78l13.42-4.15c13.28-4.1,22.41-16.29,22.61-30.19l.2-14.04c.08-5.49,7.14-7.67,10.31-3.18v-.02Z"/>
      <path class="st1" d="M390.04,309c-.68,0-1.36-.11-2.04-.34-2.58-.88-4.22-3.21-4.18-5.93l.2-14.04c.2-13.73-8.4-25.93-21.39-30.36l-13.29-4.53c-2.58-.88-4.22-3.21-4.18-5.93.04-2.72,1.75-5,4.35-5.81l13.42-4.15c13.12-4.05,22.06-16,22.26-29.72l.2-14.04c.04-2.72,1.75-5,4.35-5.81,2.6-.8,5.3.11,6.87,2.34l8.09,11.48c7.91,11.22,22.03,16.04,35.15,11.99l13.42-4.15c2.61-.81,5.3.12,6.87,2.34,1.57,2.23,1.53,5.07-.11,7.25l-8.42,11.24c-8.23,10.99-8.45,25.91-.54,37.13l8.09,11.48c1.57,2.23,1.53,5.07-.11,7.25-1.63,2.18-4.36,3.02-6.93,2.14l-13.29-4.53c-12.99-4.43-27.25-.03-35.48,10.96l-8.42,11.24c-1.2,1.61-3,2.48-4.89,2.48v.02ZM391.61,189.06c-.52,0-1.05.08-1.57.24-2.18.67-3.61,2.58-3.64,4.86l-.2,14.04c-.21,14.16-9.43,26.48-22.97,30.66l-13.42,4.15c-2.18.67-3.61,2.58-3.64,4.87-.03,2.28,1.34,4.23,3.5,4.97l13.29,4.53c13.4,4.57,22.27,17.16,22.07,31.32l-.2,14.04c-.03,2.28,1.34,4.23,3.5,4.97s4.44.03,5.81-1.79l8.42-11.24c8.49-11.33,23.2-15.88,36.6-11.31l13.29,4.53c2.16.74,4.44.03,5.81-1.79,1.37-1.83,1.4-4.21.09-6.08l-8.09-11.48c-8.16-11.58-7.93-26.97.56-38.31l8.42-11.24c1.37-1.83,1.4-4.21.09-6.08-1.32-1.87-3.57-2.63-5.75-1.96l-13.42,4.15c-13.53,4.18-28.1-.79-36.26-12.37l-8.09-11.48c-1-1.42-2.54-2.2-4.18-2.2h-.02Z"/>
    </g>
    <g>
      <g>
        <g>
          <g>
            <path class="st15" d="M234.7,308.78c.05-.65.08-1.34.08-2.07v-66.18s11.93-13.56,12.48-23.33c.54-9.76,0-36.35,0-36.35,0,0,7.05-16.82-21.7-16.82h-122.6c-17.9,0-28.21,4.88-28.21,26.58s-4.34,36.89-22.78,36.89-36.35-3.8-36.35,27.67v53.16l38.22.44h180.86,0Z"/>
            <path class="st1" d="M235.16,309.28H53.84l-38.72-.45v-53.66c0-10.96,2.18-18.42,6.66-22.81,5.93-5.81,15.09-5.62,24.79-5.43,1.78.04,3.59.07,5.4.07,15.62,0,22.28-10.88,22.28-36.39,0-22.55,10.98-27.08,28.71-27.08h122.6c10.94,0,18.08,2.4,21.24,7.15,2.99,4.5,1.27,9.47.96,10.26.04,1.81.52,26.91,0,36.28-.52,9.4-11.13,21.93-12.48,23.49v65.99c0,.71-.03,1.42-.08,2.11l-.04.46h0ZM16.12,307.84l37.72.44h180.39c.03-.52.05-1.04.05-1.57v-66.37l.12-.14c.12-.13,11.83-13.55,12.35-23.02.53-9.63,0-36.04,0-36.31v-.11l.04-.1c.02-.05,2.06-5.08-.84-9.43-2.96-4.44-9.82-6.69-20.4-6.69h-122.6c-23.07,0-27.71,9.98-27.71,26.08,0,18.49-2.77,37.39-23.28,37.39-1.82,0-3.63-.04-5.42-.07-9.48-.2-18.44-.38-24.07,5.14-4.28,4.19-6.36,11.42-6.36,22.1v52.67h0Z"/>
          </g>
          <g>
            <rect class="st15" x="50.34" y="301.82" width="105.24" height="6.95"/>
            <path class="st1" d="M156.07,309.28H49.84v-7.95h106.24v7.95h0ZM50.84,308.28h104.24v-5.95H50.84v5.95Z"/>
          </g>
          <g>
            <path class="st13" d="M73.57,287.14s-7.18,18.68-22.43,5.61-28.72-27.21-26.49-32.01c2.23-4.8,12.33-5.2,23.76,3.09l8.07-.21,17.08,23.52h.01Z"/>
            <path class="st1" d="M61.38,297.9c-3.33,0-6.87-1.59-10.57-4.76-8.98-7.7-29.56-26.29-26.62-32.6.75-1.62,2.29-2.77,4.45-3.33,4.06-1.05,11.42,0,19.92,6.13l8.17-.21,17.4,23.95-.1.25c-.13.35-3.35,8.54-10.16,10.27-.82.21-1.65.31-2.5.31h.01ZM31.76,257.84c-1.09,0-2.05.12-2.86.33-1.86.48-3.17,1.45-3.79,2.79-1.78,3.83,8.57,16.16,26.36,31.42,4.38,3.75,8.47,5.18,12.16,4.24,5.67-1.43,8.78-8.04,9.37-9.41l-16.76-23.08-7.98.21-.14-.1c-6.53-4.73-12.31-6.4-16.36-6.4Z"/>
          </g>
          <g>
            <path class="st5" d="M123.14,308.78c3.08-14.22,6.61-27.65,9.11-28.65,5.42-2.17,26.58-4.88,26.58-4.88l-39.06-30.92c-25.5,1.08-28.75,23.33-28.75,23.33l-7.8,41.13h39.92Z"/>
            <path class="st1" d="M123.54,309.28h-40.92l7.91-41.72c.03-.21,3.61-22.64,29.22-23.73h.19l.15.11,39.99,31.66-1.18.15c-.21.03-21.15,2.73-26.46,4.85-1.09.44-3.69,4.69-8.81,28.3l-.09.39h0ZM83.82,308.28h38.91c5.94-27.26,8.49-28.28,9.33-28.62,4.74-1.9,20.97-4.15,25.53-4.76l-37.98-30.07c-10.3.48-18.15,4.46-23.34,11.81-3.9,5.54-4.75,11.02-4.75,11.08l-7.69,40.56h-.01Z"/>
          </g>
          <g>
            <path class="st5" d="M191.83,230.63s-1.02,35.63-18.32,46.82c-17.3,11.2-37.66-9.16-44.79-14.25-7.13-5.09-28.65-2.8-33.36,2.04-4.71,4.83-8.6,20.81-8.6,20.81l-9.05,6.79-28.05-39.36s45.24-38.91,61.98-39.36c0,0,12.21-3.17,45.24,15.38"/>
            <path class="st1" d="M77.6,293.55l-28.61-40.15.35-.3c.11-.1,11.48-9.85,24.74-19.54,17.83-13.01,30.44-19.72,37.5-19.94,1.06-.24,13.53-2.54,45.55,15.44l-.49.87c-32.36-18.18-44.75-15.36-44.87-15.33l-.11.02c-15.61.42-57.08,35.34-61.32,38.94l27.49,38.57,8.5-6.37c.46-1.85,4.14-16.21,8.68-20.87,4.96-5.08,26.81-7.24,34.01-2.09.99.71,2.23,1.7,3.67,2.86,9.06,7.29,25.94,20.84,40.56,11.38,16.89-10.93,18.08-46.07,18.09-46.42l1,.03c0,.09-.28,9.08-2.69,19.31-2.23,9.49-6.79,22.04-15.87,27.92-15.23,9.85-32.47-4-41.73-11.44-1.42-1.14-2.65-2.13-3.62-2.82-6.75-4.83-28.08-2.78-32.72,1.98-4.56,4.68-8.43,20.42-8.47,20.58l-.04.17-9.6,7.2h0Z"/>
          </g>
          <g>
            <g>
              <path class="st15" d="M180.53,308.78v-72.05l-41.23,3.25v67.81s-.23.38-.52.99h41.75Z"/>
              <path class="st1" d="M181.03,309.28h-43.03l.33-.71c.2-.43.38-.75.47-.91v-68.13l42.23-3.33v73.09h0ZM139.6,308.28h40.43v-71.01l-40.23,3.18v67.49l-.07.12s-.05.08-.13.23h0Z"/>
            </g>
            <rect class="st22" x="7.71" y="308.28" width="424.81" height="1"/>
          </g>
        </g>
        <g>
          <path class="st23" d="M171.85,159.15s13.02,9.76,5.97,20.61-31.46,23.87-39.06,17.9c-7.59-5.97-1.08-26.04-1.08-26.04"/>
          <path class="st1" d="M144.05,199.67c-2.36,0-4.24-.54-5.6-1.61-7.78-6.11-1.52-25.75-1.25-26.59.08-.26.37-.41.63-.32.26.08.41.37.32.63-.06.2-6.31,19.81.92,25.49,1.69,1.33,4.49,1.72,8.08,1.12,10.35-1.71,25.04-10.9,30.24-18.9,2.81-4.31,2.69-8.96-.33-13.81-2.29-3.68-5.49-6.1-5.52-6.13-.22-.17-.27-.48-.1-.7s.48-.27.7-.1c.13.1,13.31,10.17,6.09,21.29-5.32,8.19-20.35,17.59-30.92,19.34-1.17.19-2.26.29-3.26.29Z"/>
        </g>
        <g>
          <g>
            <path class="st21" d="M144.05,238.49l33.77-10.17,43.13-7.73c-4.48-48.82-44.75-54.52-44.75-54.52,0,0-19.53,33.35-31.75,30.97s-2.43-31.79-2.43-31.79c-24.41,1.22-45.97,38.79-41.23,39.46,11.26,2.31,11.53,8.54,11.53,8.54,0,0,16.52.4,42.76,15.33,0,0,14.25-4.75,28.28-4.52"/>
            <path class="st1" d="M144.19,238.97l-.29-.96,33.77-10.17,42.73-7.66c-4.37-45.12-40.14-52.86-43.96-53.56-2.1,3.54-20.18,33.24-32.1,30.91-2.07-.4-3.67-1.56-4.77-3.43-4.39-7.52.56-24.56,1.73-28.3-21.14,1.69-40.38,30.97-40.68,37.68-.01.26,0,.71.23.75,9.9,2.03,11.61,7.02,11.9,8.56,2.77.19,18.73,1.85,42.37,15.27,1.84-.59,15.23-4.69,28.23-4.48l-.02,1c-13.74-.23-27.97,4.45-28.11,4.5l-.21.07-.19-.11c-25.8-14.68-42.36-15.26-42.52-15.27h-.47l-.02-.48c-.01-.24-.44-5.89-11.13-8.08-.32-.04-1.12-.32-1.06-1.78.32-6.96,20.45-37.58,42.36-38.68l.73-.04-.23.69c-.07.2-6.66,20.28-2.04,28.18.96,1.64,2.3,2.61,4.09,2.96,11.74,2.27,31.03-30.4,31.22-30.73l.17-.29.33.05c.41.06,40.72,6.31,45.18,54.97l.04.46-43.58,7.81-33.71,10.16h.01Z"/>
          </g>
          <path class="st6" d="M152.67,214.05c-.11-.09-11.01-9.12-28.83-3.97l-.28-.96c9.58-2.77,17.15-1.5,21.81.06,5.07,1.69,7.83,4.01,7.95,4.11l-.65.76h0Z"/>
          <g>
            <line class="st0" x1="183.1" y1="220.59" x2="178.22" y2="196.18"/>
            <rect class="st1" x="180.16" y="195.94" width="1" height="24.89" transform="translate(-37.36 39.48) rotate(-11.31)"/>
          </g>
        </g>
        <g>
          <g>
            <polygon class="st15" points="234.78 308.78 234.78 240.53 180.53 236.73 180.53 308.78 234.78 308.78"/>
            <path class="st1" d="M235.28,309.28h-55.25v-73.09l55.25,3.87v69.22ZM181.03,308.28h53.25v-67.29l-53.25-3.73v71.01h0Z"/>
          </g>
          <g>
            <path class="st23" d="M217.96,220.86s10.44,23.19-11.93,28.07c-22.38,4.88-41.09-.41-41.09-.41,0,0-1.63-.68-3.25,3.39-1.63,4.07-4.2,14.1-9.36,12.07,0,0-1.49,1.76-4.07,1.63s-3.8-2.17-3.8-2.17c0,0-1.08,2.17-3.53,2.03-2.44-.14-3.66-3.12-3.66-3.12,0,0-2.71,1.36-4.88-1.9s.27-20.75,10.44-26.17,25.5-9.76,39.74-10.44c0,0,18.31-6.92,35.4-2.98h0Z"/>
            <path class="st1" d="M148.54,266.12h-.31c-1.9-.1-3.13-1.13-3.74-1.81-.57.72-1.72,1.79-3.58,1.68-2.15-.12-3.42-2.1-3.89-3-.97.27-3.21.5-5.04-2.24-1.13-1.7-1.07-6.46.15-11.31.87-3.47,3.64-11.94,10.47-15.58,10.73-5.72,26.37-9.84,39.87-10.5,1.31-.48,19.13-6.77,35.61-2.98.15.04.28.14.34.28.21.46,5.01,11.34.7,19.9-2.26,4.5-6.63,7.48-12.99,8.86-22.24,4.85-41.15-.36-41.33-.41-.05-.02-1.28-.35-2.65,3.09-.24.59-.49,1.31-.78,2.1-1.34,3.74-3.16,8.85-6.16,10.21-.88.4-1.81.45-2.75.15-.53.5-1.89,1.56-3.92,1.56h0ZM144.45,262.95c.17,0,.34.09.43.24.04.07,1.13,1.81,3.4,1.93,2.28.11,3.61-1.39,3.66-1.45.14-.16.37-.22.56-.14.81.32,1.56.31,2.29-.02,2.61-1.18,4.43-6.27,5.63-9.64.29-.8.55-1.53.79-2.13.78-1.96,1.69-3.17,2.7-3.59.66-.28,1.12-.11,1.21-.08.13.03,18.81,5.18,40.79.38,6.04-1.32,10.18-4.12,12.3-8.33,3.77-7.48.04-17.22-.62-18.82-16.67-3.73-34.68,2.95-34.86,3.02-.05.02-.1.03-.15.03-13.38.64-28.89,4.71-39.52,10.38-6.48,3.45-9.13,11.6-9.97,14.94-1.25,4.98-1.13,9.25-.29,10.51,1.89,2.83,4.15,1.77,4.25,1.73.13-.06.27-.07.4-.02.13.05.23.15.29.28,0,.03,1.14,2.69,3.23,2.81,2.09.1,3.04-1.74,3.05-1.76.08-.16.25-.27.43-.28h.02-.02Z"/>
          </g>
          <g>
            <path class="st23" d="M139.71,246.36s-4.34,7.87-2.17,16.27"/>
            <path class="st1" d="M137.54,263.13c-.22,0-.43-.15-.48-.38-2.19-8.5,2.03-16.31,2.22-16.64.13-.24.44-.33.68-.2.24.13.33.44.2.68-.04.08-4.22,7.8-2.12,15.91.07.27-.09.54-.36.61-.04.01-.08.02-.13.02h0Z"/>
          </g>
          <g>
            <path class="st23" d="M147.57,245.95s-5.97,10.04-2.58,18.58"/>
            <path class="st1" d="M145,265.03c-.2,0-.39-.12-.46-.32-3.44-8.67,2.36-18.6,2.61-19.02.14-.24.45-.32.69-.17.24.14.32.45.17.69-.06.1-5.8,9.93-2.54,18.14.1.26-.02.55-.28.65-.06.02-.12.04-.18.04h-.01Z"/>
          </g>
          <g>
            <path class="st23" d="M155.85,246.49s-5.02,6.65-4.2,17.09"/>
            <path class="st1" d="M151.64,264.08c-.26,0-.48-.2-.5-.46-.82-10.51,4.09-17.15,4.3-17.43.17-.22.48-.26.7-.1.22.17.26.48.1.7-.05.07-4.89,6.63-4.1,16.75.02.28-.18.52-.46.54h-.04Z"/>
          </g>
        </g>
        <g>
          <g>
            <path class="st23" d="M150.54,180.77s-17.33,5.43-22.55-14.4c-5.22-19.83-.74-41.54,15.66-53.44,16.4-11.9,37.79-3.76,43,14.61,5.22,18.37-2.71,27.35-2.71,27.35,0,0-3.34,9.6-11.06,16.49"/>
            <path class="st1" d="M145.34,181.96c-2.51,0-5.6-.46-8.59-2.11-4.45-2.46-7.55-6.95-9.24-13.35-5.7-21.66.52-42.85,15.85-53.97,7.8-5.66,17.27-7.18,25.98-4.17,8.6,2.98,15.25,10.1,17.8,19.05,5.04,17.75-1.94,26.77-2.76,27.74-.37,1.01-3.84,10.07-11.17,16.61-.21.18-.52.17-.71-.04s-.17-.52.04-.71c7.53-6.72,10.89-16.19,10.92-16.28.02-.06.05-.12.1-.17.08-.09,7.68-9.02,2.61-26.88-2.46-8.64-8.87-15.51-17.16-18.38-8.4-2.9-17.53-1.43-25.07,4.04-14.99,10.88-21.06,31.65-15.47,52.91,1.61,6.13,4.56,10.41,8.76,12.73,6.21,3.43,13.09,1.34,13.16,1.32.26-.08.54.06.63.33.08.26-.06.54-.33.63-.16.05-2.34.71-5.35.71h0Z"/>
          </g>
          <g>
            <g>
              <path class="st23" d="M174.97,147.99s5.43-8.14,12.53-4.38,3.34,21.92-10.86,19.21"/>
              <path class="st1" d="M179.45,163.59c-.92,0-1.88-.09-2.91-.29-.27-.05-.45-.31-.4-.58s.31-.45.58-.4c7.23,1.38,11.46-2.86,13.01-7.3,1.63-4.64.56-9.36-2.49-10.98-6.61-3.5-11.66,3.9-11.88,4.22-.15.23-.47.29-.69.14-.23-.15-.29-.46-.14-.69.06-.08,5.77-8.47,13.18-4.55,3.48,1.84,4.75,7.08,2.96,12.19-1.47,4.19-5.15,8.24-11.23,8.24h0Z"/>
            </g>
            <g>
              <path class="st23" d="M179.35,153.21s1.04-5.22,6.05-6.26"/>
              <path class="st1" d="M179.35,153.71h-.1c-.27-.05-.45-.32-.39-.59.05-.23,1.17-5.56,6.44-6.65.27-.06.54.12.59.39.06.27-.12.54-.39.59-4.63.97-5.66,5.82-5.67,5.87-.05.24-.26.4-.49.4h.01Z"/>
            </g>
          </g>
          <path class="st1" d="M143.07,162.46c-2.44,0-5.12-.64-7.84-2.41-.23-.15-.3-.46-.15-.69.15-.23.46-.29.69-.15,8.92,5.82,17.15-1.28,17.5-1.58.21-.18.52-.16.71.04.18.21.16.52-.04.71-.06.06-4.72,4.08-10.86,4.08h-.01Z"/>
          <path class="st1" d="M140.52,152.99c-.8,0-1.63-.1-2.45-.36-2.01-.64-3.58-2.12-4.65-4.38-.87-1.83-.89-3.46-.06-4.84,2.29-3.8,10.32-4.2,10.66-4.21.28,0,.51.2.52.48s-.2.51-.48.52c-.08,0-7.83.39-9.85,3.73-.66,1.09-.62,2.36.1,3.9.95,2,2.31,3.3,4.05,3.85,3.41,1.09,7.22-1,7.26-1.02.24-.14.54-.05.68.19.13.24.05.55-.19.68-.13.08-2.66,1.47-5.6,1.47h0Z"/>
          <path class="st1" d="M160.02,133.38c-.12,0-.24-.04-.33-.12-3.27-2.88-7.76-2.93-7.81-2.93-.28,0-.5-.22-.5-.5s.22-.5.5-.5c.2,0,4.91.04,8.47,3.18.21.18.23.5.04.71-.1.11-.24.17-.38.17h.01Z"/>
          <path class="st1" d="M144.41,131.04c-.15,0-.31-.07-.4-.21-2.04-2.79-4.73-2.85-4.85-2.85-.28,0-.5-.23-.5-.5s.22-.5.5-.5c.13,0,3.3.04,5.65,3.26.16.22.11.54-.11.7-.09.06-.19.1-.29.1Z"/>
          <g>
            <path class="st1" d="M139.78,136.85s-.04,1.75.19,2.3-.07,1.23-.78,1.13c-.71-.1-1.38-2.67-1.09-4.7.29-2.03.52-2.2,1.62-1.94,1.1.26-.09,2.06.06,3.21h0Z"/>
            <path class="st1" d="M139.32,140.79c-.07,0-.14,0-.2,0-.26-.04-.5-.19-.7-.47-.68-.91-1.06-3.1-.82-4.8.18-1.28.35-1.94.83-2.27.42-.28.92-.2,1.4-.09.39.09.59.31.69.48.3.5.13,1.16-.05,1.86-.12.47-.25.95-.2,1.3v.08c-.02.79.03,1.82.15,2.09.2.46.14,1-.15,1.38-.23.3-.57.46-.96.46h.01ZM139.09,134.04c-.06,0-.08,0-.09.02-.2.14-.36,1.23-.41,1.59-.27,1.91.37,3.95.71,4.15.12,0,.17-.05.19-.08.06-.07.09-.22.02-.38-.25-.6-.24-2.09-.23-2.47-.06-.53.09-1.09.23-1.63.09-.34.25-.96.16-1.09-.32-.08-.49-.1-.58-.1h0Z"/>
          </g>
          <g>
            <path class="st1" d="M153.4,138.27s-.04,1.75.19,2.3-.07,1.23-.78,1.13-1.38-2.67-1.09-4.7c.29-2.03.52-2.2,1.62-1.94,1.1.26-.09,2.06.06,3.21h0Z"/>
            <path class="st1" d="M152.95,142.21c-.07,0-.14,0-.2,0-.26-.04-.49-.19-.7-.47-.68-.91-1.06-3.1-.82-4.8.18-1.28.35-1.94.83-2.27.42-.28.92-.2,1.4-.09.39.09.59.31.69.48.3.5.13,1.16-.05,1.86-.12.47-.25.95-.2,1.3v.08c-.02.68.02,1.78.15,2.09.2.46.14,1-.15,1.38-.23.3-.57.46-.96.46h.01ZM152.72,135.47c-.06,0-.08,0-.09.02-.2.14-.36,1.23-.41,1.59-.27,1.91.37,3.95.71,4.15.13,0,.17-.05.19-.08.06-.07.09-.22.02-.38-.25-.6-.24-2.09-.23-2.47-.06-.53.09-1.09.23-1.63.09-.34.25-.96.16-1.09-.32-.08-.49-.1-.58-.1h0Z"/>
          </g>
          <ellipse class="st3" cx="162.55" cy="143.77" rx="3.71" ry="2.51" transform="translate(-1.42 1.62) rotate(-.57)"/>
        </g>
      </g>
      <path class="st2" d="M111.64,214.12"/>
      <g>
        <g>
          <path class="st14" d="M122.5,193.31s-23.52,1.36-32.57,6.33c0,0-15.38-10.86-22.17-9.95l12.67,55.19,21.72,8.6,28.5-7.69-8.14-52.48h0Z"/>
          <path class="st1" d="M102.11,254.01l-.15-.06-21.96-8.69-12.85-55.98.54-.07c6.49-.86,20.16,8.4,22.27,9.86,9.22-4.85,31.55-6.19,32.51-6.25l.45-.03,8.28,53.37-29.09,7.85ZM80.85,244.52l21.32,8.44,27.91-7.53-8-51.58c-3.31.22-23.75,1.76-31.91,6.24l-.27.15-.26-.18c-.15-.1-14.48-10.12-21.26-9.91l12.48,54.38h-.01Z"/>
        </g>
        <g>
          <line class="st0" x1="91.28" y1="204.62" x2="100.33" y2="246.7"/>
          <rect class="st1" x="95.32" y="204.13" width="1" height="43.04" transform="translate(-45.31 25.2) rotate(-12.14)"/>
        </g>
      </g>
      <g>
        <path class="st23" d="M60.97,225.43c.9,7.69,4.07,14.48,12.67,15.83,8.6,1.36,14.02-7.24,10.41-9.05,0,0,6.79-7.24-3.62-11.31,0,0,6.33-7.69-1.36-10.41,0,0,4.52-6.79-3.62-8.6-8.14-1.81-15.38,15.83-14.48,23.52v.02Z"/>
        <path class="st1" d="M75.43,241.91c-.61,0-1.23-.05-1.87-.15-7.55-1.19-11.96-6.67-13.09-16.27-.68-5.77,3.1-16.97,8.47-21.82,2.19-1.98,4.42-2.74,6.61-2.25,2.6.58,4.26,1.72,4.94,3.39.85,2.11-.15,4.42-.7,5.44,1.84.77,2.98,1.93,3.4,3.44.76,2.73-1.12,5.79-1.99,7.01,3.08,1.32,4.88,3.09,5.37,5.25.61,2.7-1.02,5.18-1.8,6.16.88.73,1.13,1.95.67,3.39-.93,2.91-4.81,6.41-10.03,6.41h.02ZM74.27,202.28c-1.53,0-3.09.71-4.66,2.13-5.17,4.67-8.8,15.43-8.15,20.96,1.09,9.23,5.09,14.27,12.25,15.4,5.59.89,9.86-2.67,10.79-5.58.23-.7.44-1.97-.68-2.53-.14-.07-.24-.2-.27-.36s.02-.32.13-.43c.03-.03,2.59-2.82,1.93-5.72-.44-1.96-2.25-3.57-5.37-4.79-.15-.06-.26-.19-.3-.34s0-.32.1-.44c.03-.04,3.01-3.71,2.2-6.64-.37-1.32-1.49-2.32-3.33-2.97-.15-.05-.26-.17-.31-.31-.05-.15-.03-.31.06-.44.02-.03,1.82-2.79.91-5.05-.54-1.35-1.96-2.28-4.22-2.79-.35-.08-.71-.12-1.07-.12v.02Z"/>
      </g>
    </g>
    <g>
      <g>
        <path class="st10" d="M287.56,77.22s10.3,18.31-5.57,19.92c-.56,11.54-.84,22.81-.84,22.81l33.95,25.88,18.79-46.76s9.03-11.36-2.91-11.8-7.57-12.67-15.88-15.73c-8.3-3.06-27.53,5.68-27.53,5.68h-.01Z"/>
        <path class="st22" d="M315.31,146.62l-34.67-26.44v-.26c0-.11.29-11.4.85-22.82l.02-.43.43-.04c3.77-.38,6.3-1.77,7.53-4.12,2.91-5.6-2.28-14.96-2.34-15.05l-.27-.48.5-.23c.79-.36,19.51-8.79,27.91-5.69,3.84,1.42,5.11,4.67,6.34,7.81,1.54,3.94,2.99,7.66,9.38,7.89,3.33.12,5.45,1.1,6.28,2.91,1.64,3.56-2.43,8.98-2.95,9.64l-19.01,47.3h0ZM281.65,119.7l33.22,25.33,18.57-46.21.04-.06c.04-.05,4.32-5.5,2.87-8.66-.66-1.44-2.48-2.22-5.41-2.33-7.05-.26-8.69-4.46-10.28-8.53-1.2-3.07-2.33-5.98-5.75-7.23-7.29-2.69-23.63,4.13-26.66,5.45,1.07,2.07,4.88,10.14,2.09,15.52-1.34,2.58-3.99,4.13-7.88,4.61-.5,10.31-.77,20.4-.82,22.11h.01Z"/>
      </g>
      <path class="st4" d="M279.74,190.7"/>
    </g>
    <g>
      <path class="st7" d="M258.73,308.78h134.99c-12.59-55.99-36.18-164.12-34.99-182.75,1.62-25.34-6.92-34.24-6.92-34.24-8.22-9.32-27.59-7.32-27.59-7.32l-.56,33.79-37.17.56,2.82-29.85-11.26-.56s1.13,17.46-4.5,27.59c-5.63,10.14,4.5,43.92,4.5,43.92l-19.31,148.85h-.01Z"/>
      <path class="st22" d="M394.35,309.28h-136.19l.07-.56,19.3-148.75c-.72-2.43-10-34.18-4.43-44.21,5.5-9.89,4.45-27.15,4.44-27.32l-.04-.56,12.34.62-2.81,29.81,36.12-.55.56-33.75.44-.05c.8-.08,19.73-1.92,28.02,7.49.34.35,8.66,9.33,7.04,34.6-1.17,18.29,21.41,122.26,34.98,182.61l.14.61h.02ZM259.3,308.28h133.8c-13.59-60.49-36.04-163.93-34.87-182.28,1.59-24.77-6.7-33.78-6.78-33.86-7.29-8.26-23.83-7.42-26.74-7.21l-.56,33.82-38.21.58,2.82-29.88-10.19-.51c.15,3.12.54,18.06-4.6,27.31-5.46,9.84,4.45,43.2,4.55,43.54l.03.1v.11l-19.25,148.29h0Z"/>
    </g>
    <g>
      <circle class="st22" cx="332.63" cy="50.22" r="15.58"/>
      <path class="st22" d="M270.74,57.55s-4.4-27.78,8.04-41.3c12.44-13.51,38.4-13.98,50.68,0,13.51,15.39,5.26,44.3,5.26,44.3l-63.97-3h-.01Z"/>
      <g>
        <g>
          <path class="st9" d="M274.88,61.41c2.02.45,11.5,16.04-.25,15.48-10.8-.51-1.77-15.93.25-15.48Z"/>
          <path class="st6" d="M275.23,77.41c-.2,0-.41,0-.62-.02-2.64-.13-4.39-1.11-5.2-2.92-1.57-3.53,1.04-9.27,3.3-12.05.93-1.15,1.68-1.63,2.29-1.5h0c1.64.36,6.49,7.77,5.86,12.46-.25,1.87-1.44,4.03-5.62,4.03h0ZM274.78,61.9c-.95.06-4.82,5.55-4.86,10.01-.02,2.82,1.57,4.33,4.73,4.48,3.19.15,4.9-.87,5.2-3.12.6-4.36-4.15-11.12-5.07-11.37h0ZM274.88,61.41l-.11.49h0l.11-.49Z"/>
        </g>
        <g>
          <g>
            <path class="st20" d="M294.7,84.88s-3.9,2.67-2.47,4.93c1.44,2.26,14.39,3.7,23.63-7.19l-21.17,2.26h.01Z"/>
            <g>
              <path class="st10" d="M321.89,78.24c16.71-20.55,10.08-45.53-8.77-51.51-17.26-5.48-47.13,6.08-41.1,37.27,6.3,32.61,38.36,21.92,41.1,20"/>
              <path class="st22" d="M298.03,87.69c-3.55,0-7.32-.52-10.9-1.97-8.21-3.32-13.46-10.6-15.59-21.63-3.07-15.88,3.17-25.34,8.94-30.47,8.67-7.71,22.16-10.74,32.8-7.36,8.44,2.68,14.78,9.24,17.39,17.99,3.33,11.16.28,23.67-8.39,34.32l-.78-.63c8.45-10.39,11.44-22.56,8.2-33.4-2.52-8.43-8.62-14.75-16.74-17.32-10.16-3.22-23.55-.22-31.84,7.16-5.58,4.96-11.6,14.12-8.62,29.54,2.06,10.67,7.1,17.7,14.98,20.89,10.89,4.41,23.58.03,25.34-1.2l.57.82c-1.25.88-7.79,3.29-15.38,3.29l.02-.03Z"/>
            </g>
            <g>
              <path class="st10" d="M327.78,67.41s11.3,1.64,10.48-9.25c-.82-10.89-14.08-6.78-15.31-3.08"/>
              <path class="st22" d="M329.34,68.01c-.92,0-1.55-.09-1.63-.1l.14-.99s4.98.68,7.86-2.01c1.59-1.48,2.28-3.74,2.05-6.71-.37-4.84-3.22-6.2-5.54-6.49-3.7-.46-8.16,1.63-8.79,3.53l-.95-.32c.77-2.3,5.56-4.74,9.87-4.21,2.21.27,5.98,1.6,6.42,7.41.25,3.29-.55,5.82-2.37,7.52-2.16,2.01-5.2,2.36-7.05,2.36h0Z"/>
            </g>
            <g>
              <path class="st10" d="M328.61,61.46s2.26-3.9,5.14-4.93"/>
              <path class="st22" d="M329.04,61.71l-.87-.5c.1-.17,2.39-4.08,5.4-5.15l.34.94c-2.67.96-4.85,4.67-4.87,4.71Z"/>
            </g>
            <g>
              <path class="st22" d="M294.44,69.18c-.14-.01-3.34-.28-4.39-2.23-.54-1.01-.4-2.23.39-3.64.79-1.38,1.82-2.18,3.07-2.37,2.48-.37,4.84,1.81,4.94,1.9l-.68.73s-2.11-1.95-4.11-1.64c-.93.14-1.72.78-2.35,1.88-.62,1.09-.75,1.99-.38,2.67.78,1.47,3.55,1.71,3.58,1.71l-.08,1h0Z"/>
              <rect class="st22" x="301.2" y="48.16" width="1" height="6.37" transform="translate(240.64 351.23) rotate(-88.15)"/>
              <rect class="st22" x="282.69" y="51.23" width="5.14" height="1" transform="translate(-1.85 11.49) rotate(-2.3)"/>
              <g>
                <path class="st22" d="M303.45,60.36s-.04,1.76.19,2.31-.07,1.24-.78,1.14-1.39-2.68-1.1-4.72.52-2.21,1.62-1.95-.08,2.06.07,3.23h0Z"/>
                <path class="st22" d="M303,64.32c-.07,0-.14,0-.21-.01-.73-.1-1.13-1.15-1.34-2.01-.26-1.05-.33-2.28-.19-3.27.18-1.28.35-1.95.83-2.28.42-.29.92-.2,1.4-.09.39.09.59.31.69.48.3.5.13,1.17-.05,1.87-.12.47-.25.95-.2,1.3v.08c-.02.69.02,1.79.15,2.1.2.47.14,1.01-.15,1.38-.23.3-.57.46-.96.46h.03ZM302.76,57.54c-.06,0-.08,0-.09.02-.2.14-.36,1.23-.41,1.6-.27,1.92.38,3.97.72,4.17.14,0,.17-.05.19-.08.06-.07.09-.22.02-.38-.25-.6-.24-2.1-.23-2.48-.06-.53.09-1.09.23-1.64.09-.34.25-.97.16-1.1-.32-.08-.49-.1-.58-.1h-.01Z"/>
              </g>
              <g>
                <path class="st22" d="M285.49,60.13s-.04,1.76.19,2.31c.23.55-.07,1.24-.78,1.14s-1.39-2.68-1.1-4.72.52-2.21,1.62-1.95c1.11.26-.08,2.06.07,3.23h0Z"/>
                <path class="st22" d="M285.04,64.09c-.07,0-.14,0-.2-.01-1.23-.17-1.8-3.32-1.53-5.28.18-1.28.35-1.95.83-2.28.42-.29.92-.2,1.4-.09.39.09.59.31.69.48.3.5.13,1.17-.05,1.87-.12.47-.25.95-.2,1.3v.08c-.02.69.02,1.79.16,2.1.2.47.14,1.01-.15,1.38-.23.3-.57.46-.96.46h.01ZM284.8,57.32c-.06,0-.08,0-.09.02-.2.14-.35,1.23-.41,1.6-.27,1.92.38,3.97.72,4.17.12,0,.17-.05.19-.08.06-.07.09-.22.02-.38-.25-.6-.24-2.1-.23-2.48-.06-.53.09-1.09.23-1.64.09-.34.25-.97.16-1.1-.32-.08-.49-.1-.58-.1h-.01Z"/>
              </g>
            </g>
            <path class="st1" d="M294.62,74.29c-2.7-1.59-3.84-.7-3.85-.69l-.66-.75c.06-.06,1.62-1.42,5.02.58l-.51.86h0Z"/>
          </g>
          <ellipse class="st12" cx="311.65" cy="64.45" rx="4.11" ry="2.77" transform="translate(-6.55 69.59) rotate(-12.61)"/>
          <ellipse class="st12" cx="277.74" cy="64.84" rx="4.11" ry="2.77" transform="translate(-.96 4.27) rotate(-.88)"/>
          <g>
            <path class="st9" d="M331.33,63.8c2.02.45,11.5,16.04-.25,15.48-10.8-.51-1.77-15.93.25-15.48Z"/>
            <path class="st6" d="M331.68,79.8c-.2,0-.41,0-.62-.02-2.64-.13-4.39-1.11-5.2-2.92-1.57-3.53,1.04-9.27,3.3-12.05.93-1.14,1.68-1.63,2.29-1.5,1.64.36,6.49,7.77,5.86,12.46-.25,1.86-1.44,4.03-5.62,4.03h0ZM331.24,64.29c-.95.06-4.82,5.55-4.86,10.01-.02,2.82,1.57,4.33,4.73,4.48,3.18.15,4.9-.87,5.21-3.12.6-4.36-4.15-11.12-5.07-11.37h-.01ZM331.23,64.29h0Z"/>
          </g>
        </g>
        <g>
          <path class="st7" d="M271.65,48.16c0-12.01.75-31.53,33.04-31.16,32.29.38,27.41,30.03,27.41,30.03,0,0-34.91-28.91-60.44,1.13h-.01Z"/>
          <path class="st22" d="M271.15,49.52v-1.36c0-6.23,0-16.66,7.17-23.75,5.45-5.39,14.3-8.05,26.37-7.91,10.07.12,17.61,3.07,22.4,8.78,7.51,8.95,5.51,21.7,5.49,21.83l-.14.86-.67-.56c-.35-.29-34.83-28.24-59.74,1.06l-.88,1.04h0ZM303.79,17.5c-11.32,0-19.65,2.56-24.77,7.63-6.39,6.32-6.84,15.55-6.87,21.7,23.45-26.14,54.48-4.55,59.55-.73.29-2.95.73-12.9-5.38-20.18-4.6-5.47-11.88-8.31-21.64-8.42h-.89,0Z"/>
        </g>
        <path class="st22" d="M293.42,37.27c16.52,19.15,38.29,14.27,38.29,14.27,0,0,3.61-25.09-30.03-25.53-28.91-.38-30.78,22.52-30.78,22.52,0,0,11.26.75,22.52-11.26Z"/>
      </g>
    </g>
    <g>
      <ellipse class="st19" cx="272.09" cy="250.97" rx="42.19" ry="23.54" transform="translate(-81.38 360.87) rotate(-59.96)"/>
      <path class="st22" d="M258.27,289.86c-2.76,0-5.31-.64-7.55-1.94-11.47-6.64-11.22-28.62.56-48.99,5.68-9.83,13.17-17.84,21.08-22.55,8-4.77,15.5-5.6,21.1-2.36h0c11.47,6.64,11.22,28.62-.56,48.99-5.68,9.83-13.17,17.84-21.08,22.55-4.8,2.86-9.41,4.31-13.55,4.31h0ZM285.91,213.07c-3.95,0-8.39,1.4-13.03,4.16-7.77,4.63-15.13,12.51-20.73,22.19-11.51,19.9-11.93,41.26-.93,47.63,5.28,3.05,12.41,2.22,20.09-2.36,7.77-4.63,15.13-12.51,20.73-22.19,11.51-19.9,11.92-41.27.93-47.63h0c-2.09-1.21-4.47-1.81-7.06-1.81h0Z"/>
    </g>
    <g>
      <ellipse class="st19" cx="272.09" cy="250.97" rx="24.77" ry="13.82" transform="translate(-81.38 360.87) rotate(-59.96)"/>
      <path class="st22" d="M263.97,274c-1.66,0-3.19-.39-4.54-1.17-6.83-3.96-6.72-16.99.26-29.05,3.35-5.8,7.78-10.53,12.45-13.31,4.76-2.84,9.24-3.33,12.6-1.39h0c6.83,3.96,6.72,16.99-.26,29.05-3.35,5.8-7.78,10.53-12.45,13.31-2.85,1.7-5.6,2.56-8.06,2.56h0ZM280.2,228.92c-2.28,0-4.85.81-7.55,2.42-4.53,2.7-8.83,7.3-12.1,12.95-6.7,11.58-6.98,24-.62,27.68,3.03,1.75,7.15,1.26,11.58-1.38,4.53-2.7,8.83-7.3,12.1-12.95,6.7-11.58,6.98-24,.62-27.68-1.19-.69-2.56-1.03-4.04-1.03h.01Z"/>
    </g>
    <g>
      <circle class="st11" cx="284.83" cy="224.43" r="8.19"/>
      <path class="st22" d="M284.83,233.12c-4.79,0-8.69-3.9-8.69-8.69s3.9-8.69,8.69-8.69,8.69,3.9,8.69,8.69-3.9,8.69-8.69,8.69ZM284.83,216.74c-4.24,0-7.69,3.45-7.69,7.69s3.45,7.69,7.69,7.69,7.69-3.45,7.69-7.69-3.45-7.69-7.69-7.69Z"/>
    </g>
    <g>
      <circle class="st11" cx="281.45" cy="212.32" r="8.19"/>
      <path class="st22" d="M281.45,221.01c-4.79,0-8.69-3.9-8.69-8.69s3.9-8.69,8.69-8.69,8.69,3.9,8.69,8.69-3.9,8.69-8.69,8.69ZM281.45,204.63c-4.24,0-7.69,3.45-7.69,7.69s3.45,7.69,7.69,7.69,7.69-3.45,7.69-7.69-3.45-7.69-7.69-7.69Z"/>
    </g>
    <g>
      <circle class="st11" cx="294.1" cy="217.64" r="8.19"/>
      <path class="st22" d="M294.1,226.33c-4.79,0-8.69-3.9-8.69-8.69s3.9-8.69,8.69-8.69,8.69,3.9,8.69,8.69-3.9,8.69-8.69,8.69ZM294.1,209.95c-4.24,0-7.69,3.45-7.69,7.69s3.45,7.69,7.69,7.69,7.69-3.45,7.69-7.69-3.45-7.69-7.69-7.69Z"/>
    </g>
    <g>
      <g>
        <path class="st10" d="M336.58,177.67c6.68-11.83,11.69-28.71,6.71-47.63,0,0-19.67-26.38-1.41-41.07,54.52,5.6,41.39,84.85,37.79,96.3s-15.57,38.05-47.91,52.03c0,0-1.35,30.04-20.85,31.88,0,0-4.43,6.52-12.4,1.9,0,0-6.53,7.87-12.66.53,0,0,12.49-23.66,10.68-35.6,0,0-9.45,19.77-16.82,18.34-7.36-1.43-3.23-18.93,17.8-39.96,0,0,32.4-24.89,39.08-36.71h0Z"/>
        <path class="st22" d="M291.58,275.24c-2.23,0-4.3-1.11-6.13-3.31l-.21-.26.16-.3c.12-.22,11.27-21.51,10.79-33.59-2.46,4.74-10.11,18.29-16.58,17.05-1.71-.33-2.9-1.45-3.44-3.23-1.87-6.12,3.9-20.48,20.99-37.58.37-.29,32.44-25,39-36.6,4.86-8.61,12.18-26.17,6.68-47.16-1.18-1.64-19.18-27.27-1.27-41.68l.16-.13.2.02c13.78,1.42,24.38,7.64,31.53,18.5,17.3,26.3,8.94,71.27,6.69,78.45-3.44,10.93-14.98,37.86-47.91,52.22-.22,3.23-2.64,30.07-21.06,32.02-.84,1.07-5.3,6.02-12.56,2.06-.86.92-3.59,3.52-7.01,3.53h-.03ZM286.43,271.54c1.58,1.79,3.31,2.7,5.15,2.7h0c3.59,0,6.5-3.44,6.53-3.48l.27-.32.37.21c7.46,4.32,11.56-1.5,11.74-1.75l.13-.19.23-.02c18.84-1.78,20.38-31.11,20.4-31.4v-.31l.3-.12c32.77-14.17,44.23-40.89,47.63-51.72,2.24-7.11,10.52-51.63-6.57-77.6-6.94-10.54-17.23-16.61-30.59-18.03-17.4,14.24,1.47,40,1.66,40.25l.08.17c5.63,21.38-1.81,39.25-6.75,48-6.65,11.78-37.88,35.84-39.21,36.86-16,16.02-22.53,30.51-20.69,36.54.44,1.42,1.34,2.28,2.68,2.54,6.88,1.34,16.18-17.87,16.27-18.07l.7-1.47.24,1.61c1.73,11.38-9.06,32.69-10.57,35.61h0Z"/>
      </g>
      <path class="st22" d="M311.24,269.53l-.7-.71c.08-.08,8.28-8.22,10.3-16.88l.97.23c-2.09,8.95-10.23,17.03-10.57,17.37h0Z"/>
      <path class="st22" d="M298.88,271.39l-.78-.63c.07-.09,7.23-9.01,10.01-21.11l.97.22c-2.83,12.33-10.13,21.43-10.2,21.52Z"/>
    </g>
    <rect class="st22" x="308.22" y="139.92" width="1" height="40" transform="translate(140.2 464.02) rotate(-88.39)"/>
    <g>
      <circle class="st11" cx="271.57" cy="222.15" r="10.42"/>
      <path class="st22" d="M271.57,233.07c-6.02,0-10.92-4.9-10.92-10.92s4.9-10.92,10.92-10.92,10.92,4.9,10.92,10.92-4.9,10.92-10.92,10.92ZM271.57,212.23c-5.47,0-9.92,4.45-9.92,9.92s4.45,9.92,9.92,9.92,9.92-4.45,9.92-9.92-4.45-9.92-9.92-9.92Z"/>
    </g>
    <g>
      <g>
        <path class="st10" d="M255.34,201.82c-22.91-36.83,16.51-71.74,16.51-71.74,0,0,13.36-37,6.56-41.24-20.81-5.1-80.9,48-65.12,125.73"/>
        <path class="st22" d="M212.81,214.66c-9.9-48.76,10.29-88.92,32.49-110.25,12.19-11.72,25.24-18.02,33.24-16.06l.15.06c3.02,1.89,2.85,9.55-.51,22.76-2.47,9.69-5.81,18.98-5.84,19.08l-.04.12-.1.08c-.39.35-38.84,35.06-16.42,71.1l-.85.53c-22.31-35.86,14.33-70.31,16.5-72.29,3.68-10.23,11.93-37.02,6.79-40.49-7.68-1.81-20.32,4.39-32.23,15.83-22,21.14-42.02,60.97-32.2,109.33l-.98.2h0Z"/>
      </g>
      <g>
        <polygon class="st18" points="228.49 240.45 243.7 256.78 257.77 261.29 275.23 235.95 266.78 228.06 245.39 207.79 228.49 240.45"/>
        <path class="st22" d="M257.98,261.87l-14.56-4.66-15.53-16.68,17.36-33.56,21.88,20.73,8.76,8.18-17.91,26h0ZM243.97,256.34l13.6,4.35,17-24.68-8.13-7.59-20.92-19.82-16.43,31.76,14.88,15.98Z"/>
      </g>
      <g>
        <line class="st0" x1="245.39" y1="254.34" x2="263.41" y2="228.81"/>
        <rect class="st22" x="238.77" y="241.08" width="31.25" height="1" transform="translate(-89.63 310.32) rotate(-54.82)"/>
      </g>
      <g>
        <path class="st10" d="M213.3,214.56s-9.77,31,9.34,30.15c0,0,4.67,5.52,10.19,2.97,0,0,4.25,5.1,8.92-.42,0,0,6.8,7.64,10.62,2.55,3.82-5.1-6.04-28.33.34-34.7l12.74,11.47s.99-5.65-10.1-24.76"/>
        <path class="st22" d="M249.1,252.06c-3.08,0-6.25-2.95-7.34-4.06-1.44,1.54-2.99,2.33-4.61,2.33h-.02c-2.18,0-3.81-1.43-4.42-2.04-5.06,2.07-9.39-2.11-10.28-3.06-4.06.12-7.15-1.16-9.19-3.83-6.25-8.14-.65-26.22-.41-26.99l.95.3c-.06.18-5.68,18.35.25,26.08,1.88,2.44,4.77,3.59,8.59,3.43h.24l.16.18c.18.21,4.5,5.2,9.6,2.84l.35-.16.25.29s1.67,1.96,3.93,1.96h0c1.46,0,2.88-.8,4.22-2.39l.37-.44.38.43s3.84,4.24,7.13,4.13c1.08-.05,1.97-.55,2.71-1.55,1.56-2.08.58-7.87-.46-14-1.36-7.98-2.89-17.02.84-20.76l.34-.34,12.23,11.01c-.24-2.38-1.74-9.12-10.01-23.36l.87-.5c11.06,19.04,10.2,24.85,10.16,25.09l-.16.89-13.04-11.74c-2.95,3.6-1.52,12.05-.25,19.53,1.12,6.62,2.1,12.34.28,14.76-.93,1.24-2.1,1.89-3.47,1.95h-.2v.02Z"/>
      </g>
      <g>
        <path class="st10" d="M236.23,230.7s.85,10.62,5.52,16.56"/>
        <path class="st22" d="M241.36,247.57c-4.71-6-5.59-16.39-5.63-16.83l1-.08c0,.1.89,10.54,5.42,16.29l-.79.62Z"/>
      </g>
      <g>
        <path class="st10" d="M226.04,231.97s.85,12.74,6.8,15.71"/>
        <path class="st22" d="M232.61,248.14c-6.13-3.07-7.04-15.6-7.07-16.13l1-.07c0,.12.9,12.49,6.52,15.3l-.45.89h0Z"/>
      </g>
      <g>
        <path class="st10" d="M218.39,233.67s.42,8.92,4.25,11.04"/>
        <path class="st22" d="M222.4,245.15c-4.02-2.23-4.49-11.08-4.5-11.46l1-.05c0,.09.46,8.67,3.99,10.63l-.49.88Z"/>
      </g>
    </g>
    <g>
      <path class="st11" d="M305.39,308.78c-.03-5.85-9.64-7.22-9.64-7.22,5.07-21.12-16.05-13.51-16.05-13.51-21.96-15.2-33.79,3.38-33.79,3.38,0,0-24.27,0-17.77,17.36h77.25Z"/>
      <path class="st22" d="M305.89,309.28h-78.1l-.12-.32c-1.68-4.5-1.5-8.28.55-11.24,4.34-6.26,15.48-6.76,17.41-6.8.88-1.28,5.42-7.33,13.51-8.96,6.43-1.3,13.37.56,20.62,5.53,1.58-.53,10.06-3.09,14.55.94,2.7,2.42,3.38,6.7,2.03,12.72,2.1.4,9.51,2.18,9.54,7.62v.5h.01ZM228.5,308.28h76.37c-.57-4.93-9.1-6.22-9.18-6.23l-.54-.08.13-.53c1.42-5.92.88-10.04-1.6-12.27-4.42-3.97-13.7-.7-13.79-.66l-.24.09-.21-.15c-7.09-4.91-13.83-6.76-20.05-5.52-8.44,1.7-12.99,8.68-13.03,8.75l-.15.23h-.27c-.12,0-12.51.08-16.86,6.37-1.8,2.61-1.99,5.96-.56,9.99h-.02Z"/>
    </g>
    <rect class="st22" x="7.71" y="308.28" width="424.81" height="1"/>
    <g>
      <path class="st21" d="M276.65,250.42c-1.41,3.09,2.85,5.3,4.61,4.22,1.76-1.08,4.93-3.95,2.47-5.9-4.48-3.57-6.02-.64-7.09,1.69h.01Z"/>
      <path class="st1" d="M280.14,255.42c-1,0-2.14-.43-3.02-1.2-1.23-1.09-1.57-2.58-.92-4h0c.54-1.17,1.44-3.14,3.2-3.56,1.31-.31,2.83.24,4.65,1.69.76.61,1.13,1.37,1.08,2.22-.11,1.88-2.32,3.71-3.61,4.5-.39.24-.87.35-1.39.35h.01ZM277.11,250.63h0c-.63,1.39.15,2.37.68,2.84.97.86,2.47,1.2,3.22.74,1.21-.75,3.05-2.35,3.13-3.71.03-.52-.2-.97-.71-1.37-1.54-1.23-2.82-1.74-3.8-1.5-1.19.29-1.9,1.64-2.53,3h0Z"/>
    </g>
    <g>
      <path class="st21" d="M247.31,250.68c1.89,2.33,5.3-.18,5.14-2s-1.18-5.44-3.69-4.27c-4.57,2.14-2.87,4.51-1.45,6.26h0Z"/>
      <path class="st1" d="M249.22,252.12c-.88,0-1.69-.39-2.29-1.12h0c-.72-.89-1.93-2.38-1.57-3.97.27-1.18,1.31-2.18,3.19-3.06,1-.47,1.77-.25,2.23,0,1.8,1.03,2.14,4.29,2.17,4.66.11,1.2-.96,2.62-2.44,3.21-.44.18-.88.27-1.3.27h.01ZM247.7,250.37c.82,1.02,1.88.79,2.44.56,1.04-.42,1.89-1.45,1.82-2.2-.11-1.24-.65-3.3-1.67-3.88-.38-.22-.81-.21-1.31.02-1.56.73-2.45,1.53-2.64,2.37-.24,1.03.55,2.11,1.37,3.12h-.01Z"/>
    </g>
  </g>
  <rect class="st22" x="7.71" y="308.28" width="424.81" height="1"/>
</svg>