<?xml version="1.0" encoding="UTF-8"?>
<svg id="Layer_1" xmlns="http://www.w3.org/2000/svg" xmlns:xlink="http://www.w3.org/1999/xlink" version="1.1" viewBox="0 0 705.9 387.58">
  <!-- Generator: Adobe Illustrator 29.8.2, SVG Export Plug-In . SVG Version: 2.1.1 Build 3)  -->
  <defs>
    <style>
      .st0 {
        fill: #ff7fec;
      }

      .st1 {
        fill: none;
      }

      .st2 {
        fill: #0c0907;
      }

      .st3 {
        fill: #271911;
      }

      .st4 {
        fill: #a56d3f;
      }

      .st5 {
        fill: #e2e2e2;
      }

      .st6 {
        fill: #b17a50;
      }

      .st7 {
        fill: #dac796;
      }

      .st8 {
        fill: #023ba2;
      }

      .st9 {
        fill: #c7e5da;
      }

      .st10 {
        fill: #896142;
      }

      .st11 {
        clip-path: url(#clippath-1);
      }

      .st12 {
        fill: #f26a3b;
      }

      .st13 {
        fill: #f0ec76;
      }

      .st14 {
        fill: #fdf6e3;
      }

      .st15 {
        fill: #2a2520;
      }

      .st16 {
        fill: #e5d9eb;
      }

      .st17 {
        fill: #0e0c0b;
      }

      .st18 {
        clip-path: url(#clippath);
      }
    </style>
    <clipPath id="clippath">
      <path class="st1" d="M112.38,363.74l474.19.43S660.19,24.27,360.7,24,113.92,363.73,112.38,363.74"/>
    </clipPath>
    <clipPath id="clippath-1">
      <path class="st1" d="M275.53,155.68h-10.33l-15.91,59.02.51,4.55,7.53,19.3s-11.08,15.77-15.82,38c-4.74,22.24-17.94,74.82-17.94,74.82,0,0,36.9,14.15,78.89,14.15s72.45-16.58,72.45-16.58l-33.63-113.95.88-13.52-14.74-65.8h-51.88Z"/>
    </clipPath>
  </defs>
  <g>
    <path class="st13" d="M112.38,363.74l474.19.43S660.19,24.27,360.7,24,113.92,363.73,112.38,363.74"/>
    <path class="st17" d="M586.98,364.67h-.4l-474.19-.43v-.5s-.47-.13-.47-.13c.03-.27-.13-2-.33-4.2-1.31-14.22-5.28-57.5,1.29-109.24,8.36-65.81,30.22-118.47,64.96-156.52,42.57-46.62,104.12-70.24,182.86-70.15,80.88.07,141.97,25.04,181.59,74.2,18.44,22.88,32.26,51.14,41.09,83.99,7.06,26.26,10.96,55.51,11.59,86.92,1.08,53.47-7.83,95.25-7.92,95.66l-.08.39ZM112.91,363.24l473.26.43c.9-4.38,8.83-44.48,7.81-95.06-.99-49.21-10.9-118.7-52.47-170.27-39.42-48.92-100.25-73.75-180.81-73.83h-.36c-78.31,0-139.45,23.49-181.76,69.82-34.6,37.89-56.38,90.37-64.71,155.97-6.56,51.63-2.59,94.83-1.29,109.03.2,2.19.3,3.31.33,3.92Z"/>
  </g>
  <path class="st2" d="M89.3,298.4l-.6-.8c.19-.15,19.83-14.63,54.58-26.36,32.05-10.82,83.9-21.43,148.9-10.6,56.95,9.49,123.79,5.39,188.21-11.54,56.63-14.89,105.71-38.24,131.28-62.46l.69.73c-25.69,24.34-74.93,47.78-131.71,62.7-64.55,16.97-131.54,21.07-188.63,11.56-64.77-10.79-116.43-.22-148.37,10.55-34.61,11.67-54.15,26.08-54.34,26.23Z"/>
  <g>
    <path class="st0" d="M479.18,202.67l22.41,4.76c13.6,2.89,27.51-3.3,34.46-15.34l11.46-19.85c2.75-4.76,9.98-3.22,10.55,2.24l2.4,22.79c1.45,13.83,11.64,25.14,25.24,28.03l22.41,4.76c5.37,1.14,6.15,8.49,1.13,10.73l-20.93,9.32c-12.7,5.65-20.31,18.84-18.86,32.67l2.4,22.79c.57,5.46-6.18,8.47-9.85,4.39l-15.33-17.03c-9.3-10.33-24.2-13.5-36.9-7.84l-20.93,9.32c-5.02,2.23-9.96-3.26-7.22-8.02l11.46-19.85c6.95-12.04,5.36-27.19-3.94-37.52l-15.33-17.03c-3.68-4.08.02-10.48,5.39-9.34Z"/>
    <path class="st2" d="M566.17,312.36c-1.69,0-3.33-.71-4.54-2.06l-15.33-17.03c-9.19-10.2-23.78-13.31-36.32-7.72l-20.93,9.32c-2.49,1.11-5.27.52-7.09-1.51-1.82-2.02-2.12-4.86-.76-7.21l11.46-19.85c6.86-11.89,5.3-26.73-3.88-36.93l-15.33-17.03c-1.82-2.02-2.12-4.85-.76-7.21s3.96-3.52,6.63-2.95l22.42,4.76c13.43,2.85,27.06-3.22,33.92-15.1l11.46-19.85c1.36-2.36,3.96-3.52,6.63-2.95,2.66.57,4.57,2.68,4.85,5.39l2.4,22.79c1.44,13.65,11.42,24.74,24.85,27.6l22.41,4.76c2.67.57,4.57,2.68,4.85,5.39.29,2.71-1.14,5.17-3.63,6.28l-20.93,9.32c-12.54,5.58-20,18.51-18.57,32.16l2.4,22.79c.29,2.71-1.14,5.17-3.63,6.28-.83.37-1.7.55-2.55.55ZM522.84,281.81c9.02,0,17.85,3.76,24.19,10.8l15.33,17.03c1.53,1.7,3.86,2.19,5.95,1.26,2.08-.93,3.28-2.99,3.04-5.26l-2.4-22.79c-1.48-14.08,6.22-27.42,19.16-33.18l20.93-9.32c2.08-.93,3.28-2.99,3.04-5.26-.24-2.27-1.83-4.04-4.07-4.52l-22.41-4.76c-13.85-2.94-24.15-14.39-25.63-28.47l-2.4-22.79c-.24-2.27-1.83-4.04-4.07-4.52-2.23-.47-4.41.5-5.55,2.47l-11.46,19.85c-7.08,12.26-21.14,18.53-35,15.58l-22.42-4.76c-2.23-.48-4.41.5-5.55,2.47-1.14,1.98-.89,4.35.63,6.04l15.33,17.03c9.48,10.52,11.09,25.84,4,38.1l-11.46,19.85c-1.14,1.98-.89,4.35.64,6.04,1.53,1.7,3.86,2.19,5.95,1.26l20.93-9.32c4.29-1.91,8.81-2.83,13.28-2.83Z"/>
  </g>
  <g>
    <g>
      <polyline class="st8" points="488.49 350 549.81 77.5 368.59 37.98 315.45 310.49 488.49 350"/>
      <path class="st2" d="M488.87,350.6l-.49-.11-173.51-39.62,53.33-273.48.5.11,181.71,39.62-.11.49-61.42,272.99ZM316.04,310.11l172.08,39.29,61.09-271.52-180.22-39.3-52.95,271.53Z"/>
    </g>
    <g>
      <circle class="st14" cx="427.18" cy="190.59" r="53.14"/>
      <path class="st2" d="M427.18,244.22c-29.58,0-53.64-24.06-53.64-53.64s24.06-53.64,53.64-53.64,53.64,24.06,53.64,53.64-24.06,53.64-53.64,53.64ZM427.18,137.95c-29.02,0-52.64,23.61-52.64,52.64s23.61,52.64,52.64,52.64,52.64-23.61,52.64-52.64-23.61-52.64-52.64-52.64Z"/>
    </g>
    <path class="st8" d="M428.54,153.44l3.27,10.05c3.25,9.99,12.56,16.76,23.07,16.76h10.57l-8.55,6.21c-8.5,6.18-12.06,17.12-8.81,27.12l3.27,10.05-8.55-6.21c-8.5-6.18-20.01-6.18-28.51,0l-8.55,6.21,3.27-10.05c3.25-9.99-.31-20.94-8.81-27.12l-8.55-6.21h10.57c10.51,0,19.82-6.77,23.07-16.76l3.27-10.05Z"/>
    <rect class="st14" x="413.74" y="205.6" width="1" height="126.66" transform="translate(66.32 619.46) rotate(-78.21)"/>
    <rect class="st14" x="454.61" y="25.75" width="1" height="126.66" transform="translate(274.9 516.38) rotate(-78.21)"/>
    <rect class="st14" x="409.65" y="224.67" width="1" height="126.66" transform="translate(44.4 630.63) rotate(-78.21)"/>
  </g>
  <g class="st18">
    <g>
      <path class="st17" d="M246.5,124.59s9.59,15.7,3.42,18.32c-6.16,2.62-20.54,16.36-10.27,25.52,10.27,9.16,93.11,3.93,103.38-1.96,10.27-5.89-6.16-15.05-4.11-23.55,2.05-8.51,5.48-28.13-8.22-34.68"/>
      <g>
        <g>
          <path class="st7" d="M312.83,441.1s-9.7,9.3.4,17.38c10.11,8.09,31.94,8.89,40.02,12.53,8.09,3.64,25.07,6.87,38.41,2.43,13.34-4.45,31.94-11.32,12.53-29.11-19.41-17.79-91.37-3.23-91.37-3.23Z"/>
          <path class="st2" d="M377.04,476.11c-9.72,0-18.97-2.38-23.99-4.64-2.91-1.31-7.62-2.24-13.07-3.32-9.16-1.82-20.56-4.08-27.06-9.28-3.03-2.43-4.64-5.21-4.78-8.28-.24-5.4,4.15-9.68,4.34-9.86l.1-.1.14-.03c.18-.04,18.26-3.66,38.47-5.06,27.23-1.89,45.18.94,53.33,8.42,6.6,6.05,9.33,11.23,8.35,15.84-1.5,7.04-11.23,10.83-21.06,14.11-4.72,1.57-9.81,2.19-14.78,2.19ZM313.07,441.56c-.64.66-4.14,4.48-3.93,9,.13,2.76,1.61,5.3,4.4,7.53,6.31,5.05,17.58,7.28,26.63,9.08,5.51,1.09,10.27,2.04,13.28,3.39,7.45,3.35,24.36,6.97,38.04,2.41,7.07-2.35,18.89-6.3,20.4-13.37.89-4.17-1.82-9.18-8.05-14.89-18.58-17.03-87.11-3.86-90.78-3.14Z"/>
        </g>
        <g>
          <g>
            <path class="st4" d="M312.12,362.26s3.81,61.18,2.46,64.14c-1.35,2.96-13.48,19.94,5.66,26.68s47.97,15.63,52.29,15.63,11.59,3.23,15.36-3.23c0,0,9.7,1.62,9.7-4.04,0,0,4.58,1.89,8.09-2.7,0,0,6.74-1.35,5.39-8.09-1.35-6.74-13.21-13.75-19.94-15.9-6.74-2.16-23.99-10.24-24.26-16.17-.27-5.93-4.85-64.68-4.85-64.68l-49.9,8.36Z"/>
            <path class="st2" d="M380.43,470.03c-1.56,0-3.12-.24-4.56-.45-1.22-.18-2.37-.36-3.34-.36-4.62,0-34.54-9.35-52.45-15.66-5.37-1.89-8.82-4.77-10.25-8.56-2.49-6.58,1.78-14.22,3.6-17.49.32-.57.57-1.01.7-1.31.95-2.09-.98-39.36-2.51-63.91l-.03-.45,50.88-8.52.04.54c.05.59,4.58,58.83,4.85,64.7.25,5.4,16.87,13.47,23.91,15.72,6.14,1.97,18.82,8.98,20.28,16.28.75,3.73-.88,5.9-2.37,7.06-1.31,1.02-2.72,1.44-3.22,1.57-2.88,3.64-6.47,3.26-7.91,2.91-.13,1.02-.59,1.87-1.37,2.53-2.42,2.05-7.21,1.58-8.53,1.4-2,3.2-4.84,4-7.72,4ZM312.64,362.68c.5,8.08,3.72,61,2.39,63.93-.14.32-.41.79-.74,1.39-1.75,3.14-5.86,10.5-3.54,16.64,1.32,3.5,4.57,6.18,9.65,7.97,19.54,6.88,47.99,15.6,52.12,15.6,1.04,0,2.23.18,3.49.37,4.09.62,8.72,1.32,11.44-3.35l.17-.3.34.06c.06,0,5.66.91,8.06-1.13.71-.6,1.06-1.4,1.06-2.42v-.74l.69.28c.17.07,4.28,1.67,7.5-2.54l.11-.15.18-.04c.25-.05,6.23-1.34,5-7.5-1.32-6.58-13.28-13.5-19.61-15.52-6.89-2.2-24.32-10.39-24.6-16.63-.25-5.55-4.34-58.16-4.81-64.12l-48.91,8.19Z"/>
          </g>
          <path class="st2" d="M388.37,465.61l-.97-.23c.8-3.31.33-6.12-1.39-8.34-4.39-5.66-15.53-5.87-15.64-5.87v-1c.49,0,11.74.22,16.43,6.25,1.92,2.47,2.45,5.56,1.58,9.19Z"/>
          <path class="st2" d="M398.07,462.12l-.96-.27c2.8-10.18-12.45-14.97-12.6-15.02l.29-.96c.16.05,16.33,5.12,13.27,16.24Z"/>
          <path class="st2" d="M405.89,459.15l-.96-.27c2.8-10.18-12.45-14.97-12.6-15.02l.29-.96c.16.05,16.33,5.12,13.27,16.24Z"/>
          <g>
            <path class="st9" d="M384.71,455.29c-3.2-1.83-6.77,1.85-4.72,4.9.03.04.06.09.09.13,3.16,4.51,9.58,5.21,9.76.99.1-2.5-2.77-4.67-5.13-6.02Z"/>
            <path class="st2" d="M386.68,464.61c-2.24,0-5.11-1.32-7-4.01l-.1-.14c-1.05-1.56-.9-3.46.39-4.84,1.09-1.18,3.06-1.87,4.99-.76h0c2.52,1.44,5.5,3.74,5.38,6.48-.07,1.56-.92,2.69-2.36,3.11-.4.12-.84.18-1.31.18ZM382.93,455.29c-.93,0-1.73.46-2.23,1.01-.73.78-1.24,2.2-.29,3.61l.09.13c2,2.85,5.3,4.01,7.21,3.44,1.02-.3,1.59-1.06,1.64-2.19.1-2.35-3.02-4.5-4.88-5.57h0c-.53-.3-1.05-.43-1.53-.43Z"/>
          </g>
          <g>
            <path class="st9" d="M395.39,453.09c-2.53-1.67-5.62,1.19-4.08,3.81.02.04.05.08.07.12,2.38,3.87,7.6,4.76,7.94,1.29.2-2.05-2.06-3.98-3.93-5.21Z"/>
            <path class="st2" d="M396.84,460.96c-1.9,0-4.38-1.25-5.88-3.69l-.07-.12c-.82-1.38-.59-2.99.57-4.1.98-.93,2.66-1.41,4.22-.38h0c2.02,1.33,4.37,3.39,4.15,5.68-.13,1.32-.91,2.24-2.14,2.52-.26.06-.54.09-.84.09ZM393.8,453.09c-.67,0-1.27.31-1.66.68-.62.59-1.09,1.69-.4,2.87l.06.1c1.49,2.41,4.09,3.51,5.65,3.15.82-.19,1.28-.74,1.37-1.65.18-1.89-2.24-3.79-3.7-4.75h0c-.45-.3-.9-.42-1.32-.42Z"/>
          </g>
          <g>
            <path class="st9" d="M402.4,449.05c-2.53-1.67-5.62,1.19-4.08,3.81.02.04.05.08.07.12,2.38,3.87,7.6,4.76,7.94,1.29.2-2.05-2.06-3.98-3.93-5.21Z"/>
            <path class="st2" d="M403.85,456.92c-1.9,0-4.38-1.25-5.89-3.69l-.07-.12c-.82-1.38-.59-2.99.57-4.1.97-.93,2.65-1.41,4.21-.38,2.02,1.33,4.37,3.39,4.15,5.68-.13,1.32-.91,2.24-2.14,2.53-.26.06-.54.09-.84.09ZM398.82,452.71c1.49,2.41,4.08,3.51,5.64,3.15.82-.19,1.28-.74,1.37-1.65.18-1.89-2.24-3.79-3.7-4.75h0c-1.18-.78-2.34-.34-2.98.27-.62.59-1.09,1.69-.4,2.87l-.36.37.43-.26Z"/>
          </g>
          <g>
            <path class="st9" d="M408.53,445.03c-1.94-1.28-4.31.91-3.12,2.92.02.03.04.06.05.09,1.83,2.96,5.82,3.65,6.08.99.15-1.57-1.58-3.05-3.01-3.99Z"/>
            <path class="st2" d="M409.64,451.18c-1.49,0-3.44-.97-4.61-2.88l.37-.35-.43.25c-.64-1.09-.46-2.41.46-3.28.78-.74,2.12-1.12,3.37-.3h0c1.57,1.03,3.41,2.64,3.23,4.46-.1,1.06-.73,1.81-1.73,2.04-.21.05-.43.07-.66.07ZM407.31,445.15c-.48,0-.91.22-1.19.49-.44.42-.78,1.21-.28,2.05,1.16,1.88,3.1,2.71,4.25,2.44.58-.13.9-.52.96-1.16.1-1.03-.89-2.28-2.79-3.53h0c-.32-.21-.65-.3-.95-.3Z"/>
          </g>
          <g>
            <path class="st7" d="M351.23,467.78s-2.43-20.62,29.51-38l-10.92-6.47s-27.89,11.32-29.92,37.6"/>
            <path class="st2" d="M350.73,467.84c-.02-.21-2.06-20.82,29-38.08l-9.95-5.89c-2.64,1.15-27.5,12.66-29.38,37.08l-1-.08c2.02-26.28,29.94-37.91,30.23-38.02l.23-.09,11.89,7.04-.77.42c-16.33,8.89-23.42,18.62-26.49,25.22-3.31,7.13-2.78,12.24-2.77,12.29l-.99.12Z"/>
          </g>
        </g>
      </g>
      <g>
        <g>
          <path class="st7" d="M289.67,441.91s9.7,9.3-.4,17.38c-10.11,8.09-31.94,8.89-40.02,12.53-8.09,3.64-25.07,6.87-38.41,2.43s-31.94-11.32-12.53-29.11c19.41-17.79,91.37-3.23,91.37-3.23Z"/>
          <path class="st2" d="M225.45,476.91c-4.97,0-10.06-.62-14.78-2.19-9.83-3.28-19.56-7.07-21.06-14.11-.98-4.61,1.75-9.79,8.35-15.84,8.15-7.47,26.1-10.31,53.33-8.42,20.21,1.4,38.29,5.03,38.47,5.06l.14.03.1.1c.19.18,4.58,4.46,4.34,9.86-.14,3.06-1.74,5.85-4.78,8.28-6.5,5.2-17.9,7.46-27.06,9.28-5.45,1.08-10.16,2.01-13.07,3.32-5.02,2.26-14.27,4.64-23.99,4.64ZM236.2,436.83c-15.57,0-30.33,2.06-37.56,8.68-6.23,5.71-8.94,10.72-8.05,14.89,1.51,7.08,13.34,11.02,20.4,13.37,13.68,4.56,30.59.94,38.04-2.41,3.02-1.36,7.77-2.3,13.28-3.39,9.06-1.79,20.33-4.03,26.63-9.08,2.8-2.24,4.28-4.77,4.4-7.53.21-4.52-3.29-8.34-3.93-9-2.25-.44-28.73-5.53-53.23-5.53Z"/>
        </g>
        <g>
          <g>
            <path class="st4" d="M290.38,363.07s-3.81,61.18-2.46,64.14c1.35,2.96,13.48,19.94-5.66,26.68-19.14,6.74-47.97,15.63-52.29,15.63-4.31,0-11.59,3.23-15.36-3.23,0,0-9.7,1.62-9.7-4.04,0,0-4.58,1.89-8.09-2.7,0,0-6.74-1.35-5.39-8.09,1.35-6.74,13.21-13.75,19.94-15.9,6.74-2.16,23.99-10.24,24.26-16.17.27-5.93,4.85-64.68,4.85-64.68l49.9,8.36Z"/>
            <path class="st2" d="M222.07,470.84c-2.87,0-5.71-.8-7.72-4-1.33.18-6.12.65-8.53-1.4-.78-.66-1.24-1.51-1.37-2.53-1.45.35-5.03.73-7.91-2.91-.5-.13-1.91-.55-3.22-1.57-1.49-1.16-3.12-3.33-2.37-7.06,1.46-7.3,14.14-14.31,20.28-16.28,7.04-2.25,23.66-10.32,23.91-15.72.27-5.87,4.81-64.11,4.85-64.7l.04-.54,50.88,8.52-.03.45c-1.53,24.54-3.46,61.81-2.51,63.91.14.3.39.75.7,1.31,1.82,3.26,6.09,10.91,3.6,17.49-1.43,3.79-4.88,6.67-10.25,8.56-17.91,6.31-47.83,15.66-52.45,15.66-.97,0-2.12.17-3.34.36-1.44.22-3.01.45-4.56.45ZM214.87,465.75l.17.3c2.72,4.67,7.36,3.97,11.44,3.35,1.26-.19,2.45-.37,3.49-.37,4.13,0,32.58-8.73,52.12-15.6,5.08-1.79,8.33-4.47,9.65-7.97,2.32-6.14-1.79-13.5-3.54-16.64-.33-.6-.6-1.07-.74-1.39-1.33-2.93,1.89-55.86,2.39-63.93l-48.91-8.19c-.46,5.96-4.56,58.58-4.81,64.12-.28,6.24-17.72,14.42-24.6,16.63-6.33,2.02-18.29,8.94-19.61,15.52-.52,2.59.16,4.64,2.01,6.08,1.41,1.09,2.98,1.42,2.99,1.42l.18.04.11.15c3.22,4.21,7.33,2.61,7.5,2.54l.69-.28v.74c0,1.03.35,1.82,1.06,2.42,2.41,2.04,8.01,1.14,8.06,1.13l.34-.06Z"/>
          </g>
          <path class="st2" d="M214.12,466.41c-.87-3.63-.34-6.72,1.58-9.19,4.69-6.04,15.94-6.25,16.42-6.25v1c-.1,0-11.24.21-15.63,5.87-1.72,2.22-2.19,5.02-1.4,8.34l-.97.23Z"/>
          <path class="st2" d="M204.42,462.93c-3.06-11.12,13.11-16.19,13.27-16.24l.29.96c-.15.05-15.4,4.84-12.6,15.02l-.96.27Z"/>
          <path class="st2" d="M196.61,459.96c-3.06-11.12,13.11-16.19,13.27-16.24l.29.96c-.15.05-15.4,4.84-12.6,15.02l-.96.27Z"/>
          <g>
            <path class="st9" d="M217.78,456.1c3.2-1.83,6.77,1.85,4.72,4.9-.03.04-.06.09-.09.13-3.16,4.51-9.58,5.21-9.76.99-.1-2.5,2.77-4.67,5.13-6.02Z"/>
            <path class="st2" d="M215.82,465.42c-.47,0-.91-.06-1.31-.18-1.43-.42-2.29-1.55-2.36-3.11-.11-2.74,2.86-5.03,5.38-6.48h0c1.93-1.11,3.9-.41,4.99.76,1.29,1.38,1.44,3.29.39,4.85l-.1.14c-1.89,2.69-4.76,4.01-7,4.01ZM218.03,456.53h0c-1.87,1.07-4.98,3.21-4.88,5.57.05,1.13.61,1.89,1.64,2.19,1.91.56,5.21-.6,7.21-3.45l.09-.13c.95-1.41.44-2.82-.29-3.61-.76-.82-2.21-1.47-3.77-.58Z"/>
          </g>
          <g>
            <path class="st9" d="M207.1,453.9c2.53-1.67,5.62,1.19,4.08,3.81-.02.04-.05.08-.07.12-2.38,3.87-7.6,4.76-7.94,1.29-.2-2.05,2.06-3.98,3.93-5.21Z"/>
            <path class="st2" d="M205.65,461.77c-.3,0-.58-.03-.84-.09-1.23-.29-2.01-1.21-2.14-2.52-.22-2.29,2.13-4.35,4.15-5.68,1.56-1.03,3.24-.55,4.21.38,1.16,1.11,1.39,2.72.57,4.1l-.07.12c-1.51,2.45-3.99,3.69-5.89,3.69ZM208.69,453.9c-.42,0-.87.12-1.32.42h0c-1.46.96-3.89,2.85-3.7,4.75.09.9.55,1.46,1.37,1.65,1.56.36,4.16-.74,5.64-3.15l.06-.11c.69-1.18.22-2.28-.4-2.87-.39-.37-.99-.68-1.66-.68Z"/>
          </g>
          <g>
            <path class="st9" d="M200.09,449.86c2.53-1.67,5.62,1.19,4.08,3.81-.02.04-.05.08-.07.12-2.38,3.87-7.6,4.76-7.94,1.29-.2-2.05,2.06-3.98,3.93-5.21Z"/>
            <path class="st2" d="M198.64,457.73c-.3,0-.58-.03-.84-.09-1.23-.29-2.01-1.21-2.14-2.52-.22-2.29,2.14-4.35,4.15-5.68h0c1.56-1.03,3.24-.55,4.22.38,1.16,1.11,1.39,2.72.57,4.1l-.07.12c-1.51,2.45-3.99,3.69-5.88,3.69ZM200.37,450.27h0c-1.46.96-3.89,2.86-3.7,4.75.09.9.55,1.46,1.37,1.65,1.55.36,4.16-.74,5.64-3.15l.5.15-.43-.25c.69-1.18.22-2.28-.4-2.87-.64-.61-1.8-1.04-2.98-.27Z"/>
          </g>
          <g>
            <path class="st9" d="M193.97,445.84c1.94-1.28,4.31.91,3.12,2.92-.02.03-.04.06-.05.09-1.83,2.96-5.82,3.65-6.08.99-.15-1.57,1.58-3.05,3.01-3.99Z"/>
            <path class="st2" d="M192.85,451.99c-.23,0-.46-.02-.66-.07-1-.23-1.63-.97-1.73-2.04-.18-1.81,1.66-3.42,3.23-4.46h0c1.25-.82,2.59-.44,3.37.3.92.87,1.1,2.19.46,3.28l-.06.1c-1.18,1.91-3.12,2.88-4.61,2.88ZM195.19,445.96c-.3,0-.62.09-.94.3h0c-1.9,1.25-2.88,2.5-2.79,3.53.06.64.38,1.03.96,1.16,1.15.26,3.09-.56,4.2-2.36.55-.92.21-1.71-.24-2.13-.28-.27-.71-.49-1.19-.49Z"/>
          </g>
          <g>
            <path class="st7" d="M251.26,468.59s2.43-20.62-29.51-38l10.92-6.47s27.89,11.32,29.92,37.6"/>
            <path class="st2" d="M251.76,468.65l-.99-.12c.02-.2,1.97-20.51-29.25-37.5l-.77-.42,11.89-7.04.23.09c.28.11,28.21,11.74,30.23,38.02l-1,.08c-1.88-24.41-26.74-35.92-29.38-37.08l-9.94,5.89c16.07,8.93,23.11,18.68,26.18,25.33,3.41,7.37,2.85,12.53,2.82,12.75Z"/>
          </g>
        </g>
      </g>
      <g>
        <g>
          <g>
            <g>
              <path class="st16" d="M275.53,155.68h-10.33l-15.91,59.02.51,4.55,7.53,19.3s-11.08,15.77-15.82,38c-4.74,22.24-17.94,74.82-17.94,74.82,0,0,36.9,14.15,78.89,14.15s72.45-16.58,72.45-16.58l-33.63-113.95.88-13.52-14.74-65.8h-51.88Z"/>
              <path class="st2" d="M302.45,366.03c-41.59,0-78.7-14.04-79.07-14.18l-.41-.16.11-.43c.13-.53,13.26-52.83,17.94-74.8,4.4-20.66,14.39-35.95,15.75-37.96l-7.46-19.18-.52-4.64.02-.09,16.01-59.39h62.99l14.85,66.26v.07s-.88,13.43-.88,13.43l33.72,114.26-.35.19c-.31.17-31.06,16.64-72.69,16.64ZM224.16,351.06c4.19,1.54,39.26,13.96,78.29,13.96s68.32-14.5,71.86-16.33l-33.54-113.65.88-13.53-14.64-65.34h-61.42l-15.79,58.56.49,4.39,7.6,19.49-.15.22c-.11.16-11.08,15.95-15.74,37.82-4.46,20.92-16.56,69.3-17.84,74.4Z"/>
            </g>
            <path class="st2" d="M299.99,243.75c-17.85,0-32.93-4.65-33.17-4.72l.3-.95c.36.11,36.54,11.26,62.96-1.24l.43.9c-9.62,4.55-20.51,6.02-30.52,6.02Z"/>
            <g class="st11">
              <g>
                <circle class="st12" cx="250.75" cy="282.1" r="16.19"/>
                <path class="st2" d="M250.75,298.8c-9.2,0-16.69-7.49-16.69-16.69s7.49-16.69,16.69-16.69,16.69,7.49,16.69,16.69-7.49,16.69-16.69,16.69ZM250.75,266.41c-8.65,0-15.69,7.04-15.69,15.69s7.04,15.69,15.69,15.69,15.69-7.04,15.69-15.69-7.04-15.69-15.69-15.69Z"/>
              </g>
              <g>
                <circle class="st12" cx="361.16" cy="342.95" r="16.19"/>
                <path class="st2" d="M361.16,359.65c-9.2,0-16.69-7.49-16.69-16.69s7.49-16.69,16.69-16.69,16.69,7.49,16.69,16.69-7.49,16.69-16.69,16.69ZM361.16,327.26c-8.65,0-15.69,7.04-15.69,15.69s7.04,15.69,15.69,15.69,15.69-7.04,15.69-15.69-7.04-15.69-15.69-15.69Z"/>
              </g>
              <g>
                <circle class="st12" cx="296.39" cy="336.08" r="16.19"/>
                <path class="st2" d="M296.39,352.78c-9.21,0-16.69-7.49-16.69-16.69s7.49-16.69,16.69-16.69,16.69,7.49,16.69,16.69-7.49,16.69-16.69,16.69ZM296.39,320.39c-8.65,0-15.69,7.04-15.69,15.69s7.04,15.69,15.69,15.69,15.69-7.04,15.69-15.69-7.04-15.69-15.69-15.69Z"/>
              </g>
              <g>
                <circle class="st12" cx="346.44" cy="258.55" r="16.19"/>
                <path class="st2" d="M346.44,275.24c-9.21,0-16.69-7.49-16.69-16.69s7.49-16.69,16.69-16.69,16.69,7.49,16.69,16.69-7.49,16.69-16.69,16.69ZM346.44,242.86c-8.65,0-15.69,7.04-15.69,15.69s7.04,15.69,15.69,15.69,15.69-7.04,15.69-15.69-7.04-15.69-15.69-15.69Z"/>
              </g>
              <g>
                <circle class="st12" cx="338.59" cy="302.71" r="8.95"/>
                <path class="st2" d="M338.59,312.17c-5.21,0-9.45-4.24-9.45-9.45s4.24-9.45,9.45-9.45,9.45,4.24,9.45,9.45-4.24,9.45-9.45,9.45ZM338.59,294.26c-4.66,0-8.45,3.79-8.45,8.45s3.79,8.45,8.45,8.45,8.45-3.79,8.45-8.45-3.79-8.45-8.45-8.45Z"/>
              </g>
              <g>
                <circle class="st12" cx="230.63" cy="347.86" r="8.95"/>
                <path class="st2" d="M230.63,357.31c-5.21,0-9.45-4.24-9.45-9.45s4.24-9.45,9.45-9.45,9.45,4.24,9.45,9.45-4.24,9.45-9.45,9.45ZM230.63,339.41c-4.66,0-8.45,3.79-8.45,8.45s3.79,8.45,8.45,8.45,8.45-3.79,8.45-8.45-3.79-8.45-8.45-8.45Z"/>
              </g>
              <g>
                <circle class="st12" cx="284.61" cy="256.59" r="8.95"/>
                <path class="st2" d="M284.61,266.04c-5.21,0-9.45-4.24-9.45-9.45s4.24-9.45,9.45-9.45,9.45,4.24,9.45,9.45-4.24,9.45-9.45,9.45ZM284.61,248.14c-4.66,0-8.45,3.79-8.45,8.45s3.79,8.45,8.45,8.45,8.45-3.79,8.45-8.45-3.79-8.45-8.45-8.45Z"/>
              </g>
            </g>
          </g>
          <path class="st2" d="M302.45,366.03c-41.59,0-78.7-14.04-79.07-14.18l-.41-.16.11-.43c.13-.53,13.26-52.83,17.94-74.8,4.4-20.66,14.39-35.95,15.75-37.96l-7.46-19.18-.52-4.64.02-.09,16.01-59.39h62.99l14.85,66.26v.07s-.88,13.43-.88,13.43l33.72,114.26-.35.19c-.31.17-31.06,16.64-72.69,16.64ZM224.16,351.06c4.19,1.54,39.26,13.96,78.29,13.96s68.32-14.5,71.86-16.33l-33.54-113.65.88-13.53-14.64-65.34h-61.42l-15.79,58.56.49,4.39,7.6,19.49-.15.22c-.11.16-11.08,15.95-15.74,37.82-4.46,20.92-16.56,69.3-17.84,74.4Z"/>
        </g>
        <g>
          <path class="st6" d="M278.58,140.11s3.05,7.28-.68,15.77c0,0,7.11,46.49,19.98,46.49s11.51-46.9,11.51-46.9c0,0-1.41-14.16-.68-22.64.73-8.48-30.13,7.28-30.13,7.28Z"/>
          <path class="st17" d="M297.88,202.87c-13.14,0-20.18-45-20.47-46.92l-.02-.14.06-.13c3.59-8.18.7-15.3.67-15.37l-.18-.43.41-.21c.06-.03,6.22-3.17,12.89-5.86,9.09-3.67,14.79-4.8,16.94-3.35.54.36,1.15,1.07,1.03,2.42-.72,8.33.66,22.41.68,22.55.05,1.52.96,36.62-7.59,45.41-1.31,1.35-2.8,2.03-4.42,2.03ZM278.42,155.95c.45,2.82,7.51,45.93,19.46,45.93,1.36,0,2.57-.57,3.7-1.73,8.25-8.5,7.32-44.29,7.31-44.65-.01-.11-1.4-14.27-.67-22.7.08-.94-.3-1.31-.59-1.51-3.69-2.49-21.38,5.52-28.42,9.07.6,1.71,2.43,8.14-.79,15.59Z"/>
        </g>
        <circle class="st17" cx="261.94" cy="114.81" r="18.1"/>
        <path class="st17" d="M331.71,122.12s5.11-32.28-9.34-47.98c-14.45-15.7-44.62-16.25-58.89,0-15.7,17.88-6.11,51.47-6.11,51.47l74.33-3.49Z"/>
        <g>
          <g>
            <path class="st16" d="M329.03,107.29c0-13.96-.87-36.64-38.38-36.2s-31.84,34.9-31.84,34.9c0,0,40.57-33.59,70.23,1.31Z"/>
            <path class="st2" d="M329.53,108.65l-.88-1.04c-12.16-14.31-27.54-18.88-45.72-13.58-13.59,3.96-23.71,12.25-23.81,12.34l-.67.56-.14-.86c-.02-.15-2.34-14.93,6.36-25.3,5.55-6.62,14.29-10.04,25.97-10.18,13.99-.16,24.26,2.92,30.58,9.17,8.31,8.21,8.31,20.31,8.31,27.53v1.36ZM296.73,90.97c10.19,0,21.59,3.53,31.8,14.99-.03-7.16-.48-18.05-8.01-25.48-6.12-6.05-16.19-9.04-29.87-8.88-11.37.13-19.85,3.43-25.21,9.81-7.22,8.6-6.59,20.39-6.25,23.64,2.55-1.95,11.74-8.56,23.46-11.97,4.18-1.22,8.98-2.1,14.08-2.1Z"/>
          </g>
          <path class="st15" d="M306.28,150.01c-1.01,6.22-19.27,7.51-24.72-.74,0,0,25.74-5.48,24.72.74Z"/>
          <g>
            <g>
              <path class="st6" d="M266.52,130.07s-10.78,7.74-15.76-3.94c-4.97-11.68,10.9-14.52,14.15-11.36"/>
              <path class="st17" d="M259.1,133.09c-.78,0-1.58-.09-2.38-.32-2.76-.77-4.92-2.94-6.41-6.44-2.63-6.17.52-9.53,2.63-10.98,4.12-2.83,10.33-2.88,12.32-.94l-.7.72c-1.69-1.64-7.46-1.42-11.06,1.05-2.27,1.56-4.51,4.52-2.28,9.76,1.37,3.21,3.3,5.18,5.76,5.87,4.44,1.24,9.2-2.11,9.25-2.14l.58.81c-.18.13-3.69,2.61-7.71,2.61Z"/>
            </g>
            <g>
              <path class="st6" d="M262.48,124.36s-4.42-2.82-7.94-2.34"/>
              <path class="st17" d="M262.21,124.78s-4.31-2.72-7.6-2.27l-.13-.99c3.66-.49,8.09,2.3,8.27,2.42l-.54.84Z"/>
            </g>
            <g>
              <path class="st5" d="M261.62,127.48c-2.35.52-13.36,18.64.29,17.99,12.54-.6,2.06-18.51-.29-17.99Z"/>
              <path class="st3" d="M261.21,145.98c-4.81,0-6.17-2.48-6.46-4.61-.72-5.42,4.86-13.97,6.75-14.38h0c.25-.05,1-.22,2.58,1.72,2.61,3.21,5.64,9.85,3.82,13.91-.93,2.08-2.94,3.2-5.97,3.35-.25.01-.49.02-.72.02ZM261.72,127.97c-1.05.24-6.65,8.14-5.97,13.28.35,2.65,2.4,3.9,6.14,3.73,2.54-.12,4.23-.99,5.02-2.58,1.65-3.29-.76-8.95-2.78-11.95-1.28-1.89-2.17-2.5-2.4-2.48Z"/>
            </g>
          </g>
          <g>
            <g>
              <path class="st6" d="M322.91,130.07s10.78,7.74,15.76-3.94c4.97-11.68-10.9-14.52-14.15-11.36"/>
              <path class="st17" d="M330.33,133.09c-4.02,0-7.54-2.48-7.71-2.61l.58-.81s4.8,3.39,9.25,2.14c2.46-.69,4.39-2.66,5.76-5.87,2.23-5.24,0-8.2-2.28-9.76-3.6-2.47-9.38-2.69-11.06-1.05l-.7-.72c2-1.94,8.2-1.89,12.32.94,2.11,1.45,5.26,4.8,2.63,10.98-1.49,3.5-3.65,5.67-6.41,6.44-.8.22-1.6.32-2.38.32Z"/>
            </g>
            <g>
              <path class="st6" d="M326.94,124.36s4.42-2.82,7.94-2.34"/>
              <path class="st17" d="M327.21,124.78l-.54-.84c.19-.12,4.61-2.91,8.27-2.42l-.13.99c-3.3-.45-7.56,2.24-7.6,2.27Z"/>
            </g>
            <g>
              <path class="st5" d="M327.04,127.48c-2.35.52-13.36,18.64.29,17.99,12.54-.6,2.06-18.51-.29-17.99Z"/>
              <path class="st3" d="M326.64,145.98c-4.81,0-6.17-2.48-6.46-4.61-.72-5.42,4.86-13.97,6.75-14.38h0c.25-.06,1-.22,2.58,1.72,2.61,3.21,5.64,9.85,3.82,13.91-.93,2.08-2.94,3.2-5.97,3.35-.25.01-.49.02-.72.02ZM327.15,127.97c-1.05.24-6.65,8.14-5.97,13.28.35,2.65,2.41,3.9,6.14,3.73,2.54-.12,4.23-.99,5.02-2.58,1.65-3.29-.76-8.95-2.79-11.95-1.28-1.89-2.18-2.5-2.4-2.48Z"/>
            </g>
          </g>
          <g>
            <path class="st6" d="M299.07,150.43c13.07-1.02,29.63-7.07,30.92-31.15,1.97-36.85-34.24-45.4-53.24-36.34-14.77,7.04-21.41,18.06-17.07,41.06,4.35,23,26.04,27.47,39.39,26.43Z"/>
            <path class="st17" d="M295.3,151.08c-15.08,0-32.32-6.92-36.11-26.99-4.05-21.44,1.14-33.88,17.34-41.6,11.69-5.57,27.66-4.24,38.85,3.24,7.44,4.98,16.11,14.85,15.11,33.58-1.29,24.22-17.78,30.56-31.38,31.62-1.25.1-2.52.15-3.81.15ZM299.04,149.93l.04.5-.04-.5c13.2-1.03,29.21-7.19,30.46-30.68.98-18.26-7.43-27.86-14.66-32.69-10.73-7.18-26.66-8.51-37.86-3.17-15.93,7.6-20.79,19.33-16.79,40.52,3.99,21.13,23.42,27.23,38.86,26.03Z"/>
          </g>
          <g>
            <path class="st17" d="M279.2,111.95l-.22-.97c6.65-1.53,7.48-4.63,7.49-4.66l.98.22c-.03.15-.91,3.72-8.24,5.42Z"/>
            <path class="st17" d="M306.51,110.73c-3.13,0-6.69-3.79-6.86-3.98l.73-.68c1.2,1.29,4.8,4.44,7.05,3.48l.39.92c-.42.18-.86.26-1.31.26Z"/>
            <g>
              <path class="st17" d="M283.41,119.14s.04,2.04-.23,2.68.08,1.44.91,1.32,1.62-3.12,1.29-5.48-.6-2.57-1.88-2.27.09,2.4-.08,3.75Z"/>
              <path class="st17" d="M283.93,123.65c-.43,0-.8-.18-1.05-.5-.31-.41-.38-1.01-.16-1.52.16-.37.21-1.67.19-2.48v-.04s0-.04,0-.04c.05-.42-.09-.99-.23-1.54-.2-.8-.4-1.55-.06-2.11.11-.18.33-.42.76-.52.54-.13,1.11-.22,1.56.09.53.37.72,1.13.93,2.6.16,1.15.08,2.56-.22,3.77-.24.98-.69,2.16-1.5,2.27-.08.01-.15.02-.22.02ZM283.91,119.16c0,.43.02,2.17-.27,2.85-.08.18-.06.4.03.52.03.03.11.14.35.11.38-.19,1.18-2.61.86-4.92-.07-.52-.24-1.73-.5-1.91-.13-.09-.6.02-.77.06-.07.02-.11.04-.13.07-.12.2.05.86.17,1.34.16.63.33,1.28.26,1.88Z"/>
            </g>
            <g>
              <path class="st17" d="M304.28,118.91s.04,2.04-.23,2.68.08,1.44.91,1.32,1.62-3.12,1.29-5.48-.6-2.57-1.88-2.27.09,2.4-.08,3.75Z"/>
              <path class="st17" d="M304.8,123.43c-.43,0-.8-.18-1.05-.5-.31-.41-.38-1.01-.16-1.52.16-.37.21-1.67.19-2.48v-.04s0-.04,0-.04c.05-.42-.09-.99-.23-1.54-.2-.8-.4-1.55-.06-2.11.11-.18.33-.42.76-.52.54-.12,1.11-.22,1.56.09.53.37.72,1.13.93,2.6.31,2.25-.33,5.85-1.72,6.05-.08.01-.15.02-.22.02ZM304.78,118.94c0,.43.02,2.17-.27,2.85-.08.18-.06.4.03.52.03.03.1.14.35.11.38-.19,1.18-2.61.86-4.92-.07-.52-.24-1.73-.5-1.91-.13-.09-.6.02-.77.06-.07.02-.11.04-.13.07-.12.19.05.86.17,1.34.16.63.33,1.28.26,1.88Z"/>
            </g>
            <path class="st17" d="M288.06,136.54l-.42-.91c7.85-3.67,13.24-.34,13.46-.2l-.54.84c-.05-.03-5.17-3.17-12.51.26Z"/>
          </g>
          <ellipse class="st10" cx="274.65" cy="123.96" rx="3.22" ry="4.78" transform="translate(93.71 364.91) rotate(-77.39)"/>
          <ellipse class="st10" cx="315.08" cy="123.87" rx="3.22" ry="4.78" transform="translate(186.4 437.01) rotate(-89.12)"/>
          <path class="st17" d="M298.09,129.95l-.83-.56s1.84-2.74,1.06-4.56c-.37-.85-1.3-1.4-2.76-1.64-1.48-.24-2.65.03-3.48.79-1.75,1.61-1.52,4.94-1.52,4.98l-1,.08c-.01-.16-.27-3.85,1.83-5.79,1.06-.98,2.51-1.33,4.31-1.04,1.83.29,3.01,1.04,3.53,2.23,1,2.33-1.06,5.39-1.15,5.52Z"/>
          <path class="st6" d="M283.33,148.85"/>
          <path class="st17" d="M292.37,94.36s22.9,21.26,37.29,18.65c0,0,5.7-30.22-37.95-33.7-36.97-2.94-33.7,34.35-33.7,34.35,0,0,23.88-7.2,34.35-19.3Z"/>
        </g>
        <g>
          <g>
            <g>
              <path class="st6" d="M327.41,156.58c-7.19,29.44,14.74,64.9,14.74,64.9,0,0,69.46,48.99,84.09-.37,14.62-49.36-70.21-150.97-100.3-155.17-11.48-1.6-10.09,5.84-10.09,5.84-6.66,3.47-4.02,7.68-4.02,7.68-4.81,2.33-.28,10.32-.28,10.32-5.02,9.08,4.78,11.1,7.52,12.68,2.74,1.58,10.83,8,10.83,8,0,0,6.84,20.35,21.75,21.09,0,0,2.57,29.59,9.15,37.27,0,0-11.21-13.9-33.39-12.25Z"/>
              <path class="st17" d="M397.88,243.62c-24.86,0-55.66-21.48-56.01-21.73l-.14-.15c-.22-.36-21.96-35.98-14.81-65.28l.09-.35.36-.03c15.77-1.18,26.16,5.54,30.88,9.57-4.7-9.91-6.76-30.27-7.07-33.62-14.12-1.07-21.06-19.44-21.72-21.26-.99-.78-8.15-6.43-10.65-7.87-.42-.24-1.03-.5-1.73-.8-2.4-1.02-6.04-2.57-7.12-5.73-.65-1.88-.3-4.09,1.02-6.58-.55-1.05-2.55-5.17-1.61-8.19.31-1.01.92-1.79,1.81-2.34-.25-.61-.56-1.74-.19-3.1.48-1.78,1.94-3.34,4.33-4.65-.06-.8-.03-2.7,1.43-4.23,1.74-1.83,4.86-2.44,9.27-1.82,17,2.37,51.72,35.99,75.82,73.4,29.38,45.63,28.21,71.21,24.89,82.4-3.17,10.7-9.17,17.65-17.84,20.66-3.44,1.19-7.15,1.71-11.01,1.71ZM342.53,221.13c2.1,1.45,41.48,28.36,66.03,19.84,8.35-2.9,14.13-9.63,17.21-20,3.27-11.02,4.39-36.28-24.77-81.58-23.96-37.21-58.36-70.62-75.11-72.96-4.07-.57-6.9-.05-8.41,1.52-1.51,1.58-1.13,3.71-1.12,3.73l.07.36-.33.17c-2.32,1.21-3.71,2.62-4.14,4.19-.43,1.58.3,2.77.3,2.78l.3.47-.5.24c-.88.43-1.44,1.07-1.73,1.98-.94,3,1.64,7.6,1.66,7.65l.14.24-.14.24c-1.29,2.33-1.65,4.35-1.08,6.01.94,2.74,4.19,4.12,6.57,5.14.74.31,1.37.59,1.84.86,2.74,1.58,10.56,7.78,10.89,8.04l.12.09.05.14c.07.2,6.91,20.03,21.3,20.75l.44.02.04.43c.03.29,2.61,29.29,8.96,36.9.05.06.08.1.09.1l-.77.64s-.06-.07-.09-.11c-1.04-1.21-12.08-13.37-32.52-12-6.63,28.12,13.53,62.11,14.72,64.08Z"/>
            </g>
            <path class="st2" d="M336.44,78.77c-.14-.09-13.87-8.68-20.43-6.5l-.31-.95c7.01-2.32,20.7,6.24,21.28,6.61l-.53.85Z"/>
            <path class="st2" d="M336.8,98.27c-.66-.75-14.01-10.16-25.15-7.99l-.19-.98c10.76-2.11,23.29,6.26,24.69,7.22,1.5,1.03,1.53,1.2,1.56,1.39l-.99.17.49-.08-.41.28Z"/>
            <path class="st2" d="M337.12,87.55c-.16-.1-15.95-10.24-25.16-7.6l-.28-.96c9.63-2.77,25.31,7.3,25.97,7.73l-.54.84Z"/>
            <g>
              <path class="st9" d="M312.16,93.23c-2.23-.82-1.23-4.02.18-4.36,1.41-.34,4.38-.5,4.15,1.68-.43,3.98-2.65,3.3-4.32,2.68Z"/>
              <path class="st2" d="M314.15,94.2c-.8,0-1.6-.29-2.16-.5-1.09-.4-1.7-1.37-1.63-2.58.07-1.3.89-2.5,1.86-2.74.29-.07,2.87-.65,4.14.46.34.3.72.84.62,1.76-.18,1.67-.68,2.73-1.52,3.25-.41.25-.86.35-1.31.35ZM314.02,89.17c-.52,0-1.07.07-1.56.19-.54.13-1.05.98-1.1,1.82-.03.55.11,1.27.98,1.58h0c.95.35,1.93.66,2.6.24.55-.34.91-1.19,1.05-2.51.06-.53-.13-.77-.28-.9-.35-.3-.99-.43-1.69-.43Z"/>
            </g>
            <g>
              <path class="st9" d="M310.47,84.42c-2.78-1.02-1.53-5.01.22-5.43,1.75-.42,5.46-.62,5.16,2.09-.54,4.95-3.3,4.11-5.39,3.34Z"/>
              <path class="st2" d="M312.94,85.5c-.98,0-1.96-.36-2.65-.61-1.31-.48-2.04-1.64-1.95-3.09.09-1.57,1.07-3.02,2.23-3.3.35-.09,3.51-.8,5.05.55.4.35.85.99.73,2.08-.22,2.03-.82,3.33-1.84,3.96-.49.3-1.03.41-1.57.41ZM312.8,79.23c-.72,0-1.45.1-1.99.23-.72.17-1.4,1.29-1.46,2.38-.03.59.09,1.65,1.3,2.1h0c1.21.44,2.46.83,3.35.29.72-.45,1.19-1.53,1.37-3.21.06-.54-.07-.94-.39-1.22-.48-.42-1.31-.56-2.16-.56Z"/>
            </g>
            <g>
              <path class="st9" d="M314.02,76.41c-2.78-1.02-1.53-5.01.22-5.43,1.75-.42,5.46-.62,5.16,2.09-.54,4.95-3.3,4.11-5.39,3.34Z"/>
              <path class="st2" d="M316.5,77.49c-.98,0-1.96-.36-2.65-.61-1.31-.48-2.04-1.64-1.95-3.09.09-1.57,1.07-3.02,2.23-3.3.35-.09,3.51-.8,5.05.55.4.35.85.99.73,2.08-.22,2.03-.82,3.33-1.83,3.96-.49.3-1.03.41-1.57.41ZM316.35,71.22c-.72,0-1.45.1-1.99.23-.72.17-1.4,1.29-1.46,2.38-.03.59.09,1.65,1.3,2.1h0c1.21.45,2.47.84,3.35.29.72-.45,1.18-1.53,1.37-3.21.06-.54-.07-.94-.39-1.22-.48-.42-1.31-.56-2.17-.56Z"/>
            </g>
            <g>
              <path class="st9" d="M318.32,69.67c-2.01-.74-1.11-3.62.16-3.93,1.27-.31,3.95-.45,3.73,1.51-.39,3.58-2.38,2.97-3.89,2.42Z"/>
              <path class="st2" d="M320.11,70.59c-.73,0-1.45-.27-1.96-.45-1-.37-1.57-1.26-1.5-2.37.07-1.19.82-2.29,1.72-2.51.26-.06,2.61-.6,3.78.43.31.27.66.78.57,1.62-.17,1.52-.62,2.48-1.39,2.96-.38.24-.8.32-1.21.32ZM319.98,66.06c-.47,0-.96.06-1.39.17-.41.1-.91.8-.95,1.6-.03.48.1,1.1.85,1.38h0c.84.31,1.71.58,2.3.22.49-.3.8-1.05.92-2.22.05-.46-.11-.65-.24-.77-.3-.26-.87-.37-1.49-.37Z"/>
            </g>
          </g>
          <path class="st2" d="M392.99,206.49c-.22-.21-22.46-21.43-32.62-37.38l.84-.54c10.09,15.85,32.24,36.99,32.46,37.2l-.69.72Z"/>
        </g>
        <g>
          <g>
            <g>
              <path class="st6" d="M266.06,156.58c7.19,29.44-14.74,64.9-14.74,64.9,0,0-69.46,48.99-84.09-.37-14.62-49.36,70.21-150.97,100.3-155.17,11.48-1.6,10.09,5.84,10.09,5.84,6.66,3.47,4.02,7.68,4.02,7.68,4.81,2.33.28,10.32.28,10.32,5.02,9.08-4.78,11.1-7.52,12.68-2.74,1.58-10.83,8-10.83,8,0,0-6.84,20.35-21.75,21.09,0,0-2.57,29.59-9.15,37.27,0,0,11.21-13.9,33.39-12.25Z"/>
              <path class="st17" d="M195.59,243.62c-3.86,0-7.57-.52-11.01-1.71-8.67-3.01-14.67-9.96-17.84-20.66-3.32-11.19-4.49-36.77,24.89-82.4,24.09-37.42,58.81-71.03,75.82-73.4,4.41-.62,7.53,0,9.27,1.82,1.46,1.53,1.49,3.44,1.43,4.23,2.39,1.31,3.85,2.87,4.33,4.65.37,1.36.06,2.49-.19,3.1.89.55,1.49,1.33,1.81,2.34.94,3.02-1.06,7.14-1.61,8.19,1.32,2.49,1.66,4.7,1.02,6.58-1.09,3.16-4.72,4.71-7.12,5.73-.71.3-1.32.56-1.73.8-2.5,1.45-9.67,7.09-10.65,7.87-.65,1.82-7.6,20.19-21.72,21.26-.31,3.34-2.36,23.71-7.07,33.62,4.72-4.03,15.1-10.74,30.88-9.57l.36.03.09.35c7.16,29.3-14.58,64.92-14.81,65.28l-.14.15c-.36.25-31.15,21.73-56.01,21.73ZM270.55,66.22c-.9,0-1.88.07-2.95.22-16.76,2.34-51.15,35.75-75.11,72.95-29.16,45.29-28.04,70.55-24.77,81.58,3.07,10.37,8.86,17.1,17.21,20,24.55,8.53,63.93-18.39,66.03-19.84,1.19-1.97,21.35-35.96,14.72-64.08-20.44-1.37-31.47,10.78-32.52,12-.03.04-.06.07-.09.11l-.77-.64s.03-.04.08-.1c6.35-7.61,8.93-36.61,8.96-36.9l.04-.43.44-.02c14.4-.72,21.24-20.55,21.3-20.75l.05-.14.12-.09c.33-.26,8.15-6.46,10.89-8.04.47-.27,1.11-.54,1.84-.86,2.38-1.01,5.63-2.4,6.57-5.14.57-1.66.21-3.68-1.08-6.01l-.14-.24.14-.24s2.6-4.65,1.66-7.65c-.28-.91-.85-1.55-1.73-1.98l-.5-.24.3-.47s.73-1.22.3-2.8c-.43-1.56-1.82-2.97-4.13-4.17l-.33-.17.07-.36s.37-2.18-1.13-3.74c-1.11-1.16-2.94-1.74-5.45-1.74Z"/>
            </g>
            <path class="st2" d="M257.03,78.77l-.53-.85c.58-.37,14.27-8.93,21.28-6.61l-.31.95c-6.57-2.18-20.29,6.42-20.43,6.5Z"/>
            <path class="st2" d="M256.68,98.27l-.3-.26-.6-.1c.03-.18.06-.35,1.54-1.38,1.39-.96,13.92-9.33,24.7-7.23l-.19.98c-10.93-2.14-24.52,7.27-25.15,7.99Z"/>
            <path class="st2" d="M256.35,87.55l-.54-.84c.66-.43,16.33-10.49,25.97-7.73l-.28.96c-9.2-2.64-25,7.5-25.16,7.6Z"/>
            <g>
              <path class="st9" d="M281.31,93.23c2.23-.82,1.23-4.02-.18-4.36-1.41-.34-4.38-.5-4.15,1.68.43,3.98,2.65,3.3,4.32,2.68Z"/>
              <path class="st2" d="M279.33,94.2c-.45,0-.9-.09-1.32-.35-.84-.52-1.34-1.58-1.52-3.25-.1-.92.28-1.46.62-1.76,1.27-1.12,3.85-.53,4.14-.46.97.24,1.79,1.44,1.86,2.74.07,1.21-.54,2.18-1.63,2.58h0c-.56.21-1.36.5-2.16.5ZM279.45,89.17c-.7,0-1.34.13-1.69.43-.15.13-.34.37-.28.9.14,1.32.5,2.16,1.05,2.51.67.42,1.65.11,2.6-.24h0c.87-.32,1.01-1.04.98-1.58-.05-.84-.56-1.69-1.1-1.82-.49-.12-1.05-.19-1.56-.19Z"/>
            </g>
            <g>
              <path class="st9" d="M283,84.42c2.78-1.02,1.53-5.01-.22-5.43-1.75-.42-5.46-.62-5.16,2.09.54,4.95,3.3,4.11,5.39,3.34Z"/>
              <path class="st2" d="M280.53,85.5c-.54,0-1.08-.11-1.57-.41-1.01-.63-1.61-1.92-1.83-3.96-.12-1.09.33-1.73.73-2.08,1.54-1.35,4.7-.63,5.05-.55,1.16.28,2.14,1.73,2.23,3.3.08,1.46-.65,2.61-1.95,3.09h0c-.69.25-1.67.61-2.65.61ZM280.67,79.23c-.85,0-1.69.15-2.16.56-.32.28-.45.68-.39,1.22.18,1.68.64,2.77,1.37,3.21.88.55,2.14.16,3.35-.29h0c1.21-.45,1.33-1.5,1.3-2.1-.06-1.1-.75-2.21-1.46-2.38-.54-.13-1.27-.23-1.99-.23Z"/>
            </g>
            <g>
              <path class="st9" d="M279.45,76.41c2.78-1.02,1.53-5.01-.22-5.43s-5.46-.62-5.16,2.09c.54,4.95,3.3,4.11,5.39,3.34Z"/>
              <path class="st2" d="M276.97,77.49c-.54,0-1.08-.11-1.57-.41-1.01-.63-1.61-1.92-1.84-3.96-.12-1.09.33-1.73.73-2.08,1.54-1.35,4.7-.64,5.05-.55,1.16.28,2.14,1.73,2.23,3.3.08,1.45-.65,2.61-1.95,3.09h0c-.69.25-1.67.61-2.65.61ZM277.12,71.22c-.85,0-1.69.15-2.17.56-.32.28-.45.68-.39,1.22.18,1.68.64,2.77,1.37,3.21.88.55,2.14.16,3.35-.29h0c1.21-.45,1.33-1.5,1.3-2.09-.06-1.1-.75-2.21-1.46-2.38-.54-.13-1.27-.23-1.99-.23Z"/>
            </g>
            <g>
              <path class="st9" d="M275.15,69.67c2.01-.74,1.11-3.62-.16-3.93-1.27-.31-3.95-.45-3.73,1.51.39,3.58,2.38,2.97,3.89,2.42Z"/>
              <path class="st2" d="M273.37,70.59c-.41,0-.83-.09-1.21-.32-.77-.48-1.23-1.45-1.39-2.96-.09-.85.26-1.35.57-1.62,1.17-1.02,3.51-.49,3.78-.43.89.22,1.65,1.32,1.72,2.51.06,1.12-.5,2-1.5,2.37-.51.19-1.23.45-1.96.45ZM273.49,66.06c-.62,0-1.19.11-1.49.37-.13.11-.29.31-.24.77.13,1.17.44,1.92.92,2.22.58.36,1.46.09,2.3-.22h0c.75-.28.88-.9.85-1.38-.05-.79-.54-1.5-.95-1.6-.43-.1-.92-.17-1.39-.17Z"/>
            </g>
          </g>
          <path class="st2" d="M200.48,206.49l-.69-.72c.22-.21,22.38-21.35,32.46-37.2l.84.54c-10.15,15.95-32.39,37.17-32.62,37.38Z"/>
        </g>
      </g>
    </g>
  </g>
  <g>
    <path class="st12" d="M154.19,188.23l13.2,18.73c8.01,11.36,22.42,16.28,35.7,12.18l21.89-6.76c5.25-1.62,9.51,4.42,6.21,8.82l-13.74,18.34c-8.33,11.13-8.55,26.35-.55,37.72l13.2,18.73c3.16,4.49-1.27,10.41-6.47,8.63l-21.69-7.4c-13.16-4.49-27.71,0-36.04,11.13l-13.74,18.34c-3.29,4.4-10.29,2.01-10.21-3.48l.33-22.91c.2-13.9-8.57-26.35-21.73-30.84l-21.69-7.4c-5.2-1.77-5.09-9.16.16-10.78l21.89-6.76c13.28-4.1,22.41-16.29,22.61-30.19l.33-22.91c.08-5.49,7.14-7.67,10.31-3.18Z"/>
    <path class="st2" d="M147.69,329.49c-.68,0-1.36-.11-2.04-.34-2.58-.88-4.22-3.21-4.18-5.93l.33-22.91c.2-13.73-8.4-25.93-21.39-30.36l-21.69-7.4c-2.58-.88-4.22-3.21-4.18-5.93.04-2.72,1.75-5,4.35-5.81l21.9-6.76c13.12-4.05,22.06-16,22.26-29.72l.33-22.91c.04-2.72,1.75-5,4.35-5.81,2.6-.8,5.3.12,6.87,2.34l13.2,18.73c7.91,11.22,22.03,16.04,35.15,11.99l21.89-6.76c2.6-.8,5.3.12,6.87,2.34,1.57,2.23,1.53,5.07-.11,7.25l-13.74,18.34c-8.23,10.99-8.45,25.91-.54,37.13l13.2,18.73c1.57,2.23,1.53,5.07-.1,7.25s-4.35,3.02-6.93,2.14l-21.69-7.4c-12.99-4.43-27.25-.03-35.48,10.96l-13.74,18.34c-1.2,1.61-3,2.48-4.89,2.48ZM149.6,186.32c-.52,0-1.05.08-1.57.24-2.18.67-3.61,2.58-3.64,4.86l-.33,22.91c-.21,14.16-9.43,26.48-22.97,30.66l-21.9,6.76c-2.18.67-3.61,2.58-3.64,4.86-.03,2.28,1.34,4.23,3.5,4.97l21.69,7.4c13.4,4.57,22.27,17.16,22.07,31.32l-.33,22.91c-.03,2.28,1.34,4.23,3.5,4.97,2.16.74,4.44.03,5.81-1.79l13.74-18.34c8.49-11.33,23.2-15.88,36.6-11.31l21.69,7.4c2.16.74,4.44.03,5.81-1.79s1.4-4.21.09-6.08l-13.2-18.73c-8.16-11.58-7.93-26.97.56-38.31l13.74-18.34c1.37-1.83,1.4-4.21.09-6.08-1.31-1.87-3.57-2.64-5.75-1.96l-21.89,6.76c-13.53,4.18-28.1-.79-36.26-12.37l-13.2-18.73c-1-1.42-2.54-2.2-4.18-2.2Z"/>
  </g>
  <rect class="st2" x="104" y="363.5" width="490" height="1"/>
</svg>