<?xml version="1.0" encoding="UTF-8"?>
<svg id="Layer_1" xmlns="http://www.w3.org/2000/svg" xmlns:xlink="http://www.w3.org/1999/xlink" version="1.1" viewBox="0 0 510.9 573.52">
  <!-- Generator: Adobe Illustrator 29.8.2, SVG Export Plug-In . SVG Version: 2.1.1 Build 3)  -->
  <defs>
    <style>
      .st0 {
        fill: #ff7fec;
      }

      .st1 {
        fill: none;
      }

      .st2 {
        fill: #0c0907;
      }

      .st3 {
        fill: #271911;
      }

      .st4 {
        fill: #fce9ba;
      }

      .st5 {
        fill: #cdd5af;
      }

      .st6 {
        fill: #231f20;
      }

      .st7 {
        fill: #e2e2e2;
      }

      .st8 {
        fill: #b17a50;
      }

      .st9 {
        fill: #9e994a;
      }

      .st10 {
        fill: #c7e4d9;
      }

      .st11 {
        fill: #896142;
      }

      .st12 {
        fill: #a6ad86;
      }

      .st13 {
        fill: #ab753e;
      }

      .st14 {
        fill: #d887b9;
      }

      .st15 {
        fill: #c48b51;
      }

      .st16 {
        fill: #fdf6e3;
      }

      .st17 {
        fill: #f4f471;
      }

      .st18 {
        fill: #9da33d;
      }

      .st19 {
        fill: #0e0c0b;
      }

      .st20 {
        fill: #879493;
      }

      .st21 {
        clip-path: url(#clippath);
      }

      .st22 {
        fill: #ed662b;
      }
    </style>
    <clipPath id="clippath">
      <path class="st1" d="M205.3,206.95c-2.06,12.08-15.02,27.74-15.02,27.74-5.03-12.4-33.58-26.08-33.58-26.08,3.43-10.18,15.48-27.27,24.16-37.44,8.68-10.18,33.12-10.02,33.12-10.02-.23,29.89,6.08,49.61,21.7,49.61s12.61-19.5,13.75-45.26c0,0,14.91-.72,26,12.35,6.65,7.84,11.42,22.34,16.22,42.13,0,0-17.13,4.77-30.15,20.03l-.46-3.82c-2.74,7.95-.23,20.99-3.2,21.62s-20.56,12.4-45.23,4.45c0,0-39.62-14.39-23.27-29.63l15.96-25.68Z"/>
    </clipPath>
  </defs>
  <g>
    <ellipse class="st10" cx="234.59" cy="239.36" rx="197.74" ry="204.75"/>
    <path class="st19" d="M234.59,444.61c-109.31,0-198.24-92.08-198.24-205.25S125.28,34.11,234.59,34.11s198.24,92.07,198.24,205.25-88.93,205.25-198.24,205.25h0ZM234.59,35.11c-108.76,0-197.24,91.63-197.24,204.25s88.48,204.25,197.24,204.25,197.24-91.63,197.24-204.25S343.35,35.11,234.59,35.11Z"/>
  </g>
  <g>
    <path class="st17" d="M445.74,180.7l4.34,13.36c4.3,13.22,16.62,22.17,30.52,22.17h14.04c5.49,0,7.78,7.03,3.33,10.26l-11.36,8.25c-11.25,8.17-15.95,22.66-11.66,35.88l4.34,13.36c1.7,5.22-4.28,9.57-8.73,6.34l-11.36-8.25c-11.25-8.17-26.48-8.17-37.72,0l-11.36,8.25c-4.44,3.23-10.42-1.12-8.73-6.34l4.34-13.36c4.3-13.22-.41-27.71-11.66-35.88l-11.36-8.25c-4.44-3.23-2.16-10.26,3.33-10.26h14.04c13.9,0,26.22-8.95,30.52-22.17l4.34-13.36c1.7-5.22,9.09-5.22,10.79,0h.01Z"/>
    <path class="st2" d="M406.79,291.92c-1.26,0-2.53-.4-3.63-1.2-2.2-1.6-3.08-4.31-2.24-6.9l4.34-13.35c4.24-13.06-.37-27.25-11.48-35.32l-11.36-8.25c-2.2-1.6-3.08-4.31-2.24-6.9s3.14-4.26,5.87-4.26h14.04c13.73,0,25.8-8.77,30.04-21.83l4.34-13.36c.84-2.59,3.14-4.26,5.87-4.26s5.03,1.67,5.87,4.26l4.34,13.36c4.24,13.06,16.32,21.83,30.04,21.83h14.04c2.72,0,5.03,1.67,5.87,4.26s-.04,5.3-2.24,6.9l-11.36,8.25c-11.11,8.07-15.72,22.26-11.48,35.32l4.34,13.35c.84,2.59-.04,5.3-2.24,6.9-2.21,1.6-5.05,1.6-7.25,0l-11.36-8.25c-11.11-8.07-26.03-8.07-37.13,0l-11.36,8.25c-1.1.8-2.36,1.2-3.63,1.2h0ZM386.05,216.73c-2.28,0-4.21,1.4-4.92,3.57-.71,2.17.03,4.44,1.88,5.78l11.36,8.25c11.46,8.32,16.21,22.97,11.84,36.44l-4.34,13.35c-.71,2.17.03,4.44,1.88,5.78,1.84,1.34,4.23,1.34,6.08,0l11.36-8.25c11.46-8.32,26.85-8.32,38.31,0l11.36,8.25c1.85,1.34,4.23,1.34,6.08,0,1.85-1.34,2.58-3.61,1.88-5.78l-4.34-13.35c-4.38-13.47.38-28.11,11.84-36.44l11.36-8.25c1.85-1.34,2.58-3.61,1.88-5.78-.71-2.17-2.64-3.57-4.92-3.57h-14.04c-14.16,0-26.62-9.05-30.99-22.52l-4.34-13.36c-.71-2.17-2.63-3.57-4.92-3.57s-4.21,1.4-4.92,3.57l-4.34,13.36c-4.38,13.47-16.83,22.52-30.99,22.52h-14.05Z"/>
  </g>
  <g>
    <path class="st5" d="M184.22,433.44s-94.6,29.03-92.91,85.7c1.69,56.67,145.28,27.65,199.34,6.91,54.06-20.73,113.19-20.73,125.01-49.76,11.83-29.03-89.54-95.38-231.44-42.85h0Z"/>
    <path class="st2" d="M154.94,552.63c-21.32,0-39.73-3.04-51.19-10.66-8.3-5.53-12.66-13.21-12.95-22.81-.39-13.05,4.29-25.71,13.92-37.63,7.67-9.5,18.49-18.56,32.15-26.92,23-14.07,46.5-21.43,47.19-21.64,109.79-40.63,194.96-10.08,222.85,18.73,8.76,9.05,12.04,17.85,9.21,24.78-7.76,19.05-35.98,25.84-68.67,33.7-17.64,4.24-37.63,9.05-56.63,16.34-32.53,12.48-90.72,26.11-135.89,26.11h0ZM288.18,414.32c-30.71,0-65.75,5.51-103.79,19.59h-.03c-.24.08-23.87,7.42-46.99,21.57-38.53,23.58-46.05,47.63-45.57,63.65.28,9.26,4.48,16.67,12.5,22.01,11.32,7.54,29.54,10.54,50.64,10.54,44.97,0,103.05-13.63,135.53-26.09,19.06-7.31,39.09-12.13,56.76-16.38,32.41-7.8,60.41-14.53,67.97-33.1,2.63-6.45-.66-15.09-9-23.71-18.08-18.67-60.42-38.07-118.01-38.07h0Z"/>
  </g>
  <g>
    <path class="st0" d="M83.65,183.75l5,15.39c4.22,12.99,16.33,21.78,29.98,21.78h16.18c4.95,0,7.01,6.33,3,9.24l-13.09,9.51c-11.05,8.03-15.67,22.26-11.45,35.25l5,15.39c1.53,4.71-3.86,8.62-7.86,5.71l-13.09-9.51c-11.05-8.03-26.01-8.03-37.06,0l-13.09,9.51c-4,2.91-9.39-1-7.86-5.71l5-15.39c4.22-12.99-.4-27.22-11.45-35.25l-13.09-9.51c-4-2.91-1.95-9.24,3-9.24h16.18c13.66,0,25.76-8.79,29.98-21.78l5-15.39c1.53-4.71,8.19-4.71,9.72,0h0Z"/>
    <path class="st3" d="M44.17,297.52c-1.15,0-2.29-.36-3.3-1.09-2-1.46-2.8-3.92-2.04-6.27l5-15.39c4.17-12.82-.36-26.76-11.27-34.69l-13.09-9.51c-2-1.45-2.8-3.92-2.04-6.27.76-2.35,2.86-3.88,5.33-3.88h16.18c13.48,0,25.34-8.62,29.51-21.44l5-15.39c.76-2.35,2.86-3.88,5.33-3.88s4.57,1.52,5.33,3.88l5,15.39c4.17,12.82,16.02,21.44,29.51,21.44h16.18c2.48,0,4.57,1.52,5.33,3.88.77,2.35-.03,4.82-2.04,6.27l-13.09,9.51c-10.91,7.93-15.44,21.87-11.27,34.69l5,15.39c.77,2.35-.03,4.82-2.04,6.27-2,1.45-4.59,1.45-6.59,0l-13.09-9.51c-10.91-7.92-25.57-7.93-36.47,0l-13.09,9.51c-1,.73-2.15,1.09-3.3,1.09h.02ZM22.77,221.42c-2.03,0-3.75,1.25-4.38,3.18-.63,1.93.03,3.96,1.67,5.15l13.09,9.51c11.26,8.18,15.94,22.57,11.63,35.81l-5,15.39c-.63,1.93.03,3.96,1.67,5.15,1.65,1.2,3.77,1.19,5.42,0l13.09-9.51c11.26-8.18,26.39-8.18,37.65,0l13.09,9.51c1.64,1.19,3.77,1.2,5.42,0s2.3-3.22,1.67-5.15l-5-15.39c-4.3-13.24.37-27.63,11.63-35.81l13.09-9.51c1.65-1.2,2.3-3.22,1.67-5.15s-2.35-3.18-4.38-3.18h-16.18c-13.92,0-26.16-8.89-30.46-22.13l-5-15.39c-.63-1.93-2.35-3.18-4.38-3.18s-3.75,1.25-4.38,3.18l-5,15.39c-4.3,13.24-16.54,22.13-30.46,22.13h-16.18.01Z"/>
  </g>
  <path class="st19" d="M349.34,264.07c-18.23,0-37.39-3.16-57.44-9.49-51.08-16.13-97.19-49.6-126.88-74.83-31.24-26.55-66.16-33.78-89.96-35.16-25.8-1.5-44.46,3.35-44.64,3.4l-.26-.97c.19-.05,18.97-4.94,44.92-3.43,23.96,1.39,59.12,8.66,90.58,35.4,29.62,25.17,75.61,58.56,126.53,74.64,59.49,18.79,111.15,9.5,153.54-27.59l.66.75c-28.38,24.83-60.88,37.28-97.06,37.29h.01Z"/>
  <g>
    <g>
      <path class="st8" d="M222.95,383.5s6.87,54.29,6.01,56.92c-.86,2.63-8.59,17.7,3.61,23.68,12.2,5.98,30.68,13.13,33.33,13.87s7.39,2.87,9.79-2.87c0,0,6.19,1.43,6.19-3.59,0,0,2.92,1.67,5.15-2.39,0,0,4.3-1.2,3.44-7.17-.86-5.98-8.42-12.2-12.71-14.11-4.3-1.91-15.29-9.09-15.46-14.35s-3.09-57.4-3.09-57.4l-36.25,7.41h-.01Z"/>
      <path class="st19" d="M270.57,479.47c-1.47,0-2.9-.44-4.03-.79-.28-.08-.54-.16-.78-.23-2.48-.7-21.02-7.83-33.41-13.9-11.35-5.56-6.05-18.77-4.31-23.12.2-.5.36-.9.45-1.16.6-1.87-3.28-34.93-6.03-56.7l-.06-.46,37.27-7.62.03.58c.03.52,2.92,52.2,3.09,57.41.16,5.03,11.05,12.08,15.17,13.91,3.94,1.76,12.07,8.01,13.01,14.5.8,5.56-2.68,7.3-3.59,7.65-.83,1.45-1.86,2.35-3.04,2.69-.8.22-1.51.14-2,0-.13,1.1-.59,1.97-1.36,2.58-1.58,1.26-4.02,1.02-4.99.87-1.38,2.99-3.43,3.81-5.42,3.81v-.02ZM223.51,383.9c.93,7.37,6.78,54.08,5.93,56.68-.09.28-.26.7-.47,1.23-1.83,4.57-6.69,16.69,3.82,21.85,12.34,6.05,30.79,13.15,33.25,13.84.25.07.52.15.8.24,2.7.83,6.39,1.96,8.4-2.82l.16-.39.41.09s2.97.67,4.55-.6c.69-.54,1.02-1.36,1.02-2.5v-.86l.75.43s.88.48,1.96.17c.95-.27,1.8-1.07,2.51-2.37l.1-.18.2-.06c.16-.04,3.86-1.18,3.08-6.62-.84-5.83-8.42-11.94-12.42-13.72-4.41-1.97-15.58-9.25-15.76-14.79-.16-4.9-2.74-51.08-3.06-56.81l-35.23,7.21v-.02Z"/>
    </g>
    <path class="st19" d="M276.19,475.19l-.99-.17c.62-3.61.05-6.52-1.72-8.65-3.1-3.76-8.91-3.91-8.97-3.92l.02-1c.26,0,6.31.16,9.71,4.27,1.96,2.37,2.61,5.56,1.94,9.47h.01Z"/>
    <path class="st19" d="M282.37,472.09l-.98-.19c1.79-9.05-7.55-13.14-7.95-13.31l.39-.92c.11.04,10.49,4.58,8.54,14.43h0Z"/>
    <path class="st19" d="M287.36,469.46l-.98-.19c1.79-9.05-7.55-13.14-7.95-13.31l.39-.92c.11.04,10.49,4.58,8.54,14.43h0Z"/>
    <g>
      <path class="st10" d="M273.68,466.05c-2.04-1.63-4.32,1.64-3.01,4.34.02.04.04.08.06.12,2.02,4,6.11,4.62,6.22.88.07-2.22-1.77-4.14-3.27-5.34Z"/>
      <path class="st19" d="M274.91,474.38c-1.65,0-3.51-1.44-4.63-3.65l-.06-.13c-.93-1.91-.27-4.03.91-4.97.89-.71,1.96-.7,2.86.02,1.62,1.29,3.53,3.33,3.46,5.75-.05,1.59-.76,2.65-1.96,2.92-.19.04-.38.06-.58.06ZM272.54,466.11c-.32,0-.59.14-.79.31-.85.68-1.33,2.31-.63,3.75l.05.11c1.17,2.32,2.98,3.31,4.1,3.06.73-.16,1.15-.86,1.18-1.97.06-2-1.64-3.79-3.08-4.94h0c-.3-.24-.58-.33-.82-.33h0Z"/>
    </g>
    <g>
      <path class="st10" d="M280.48,464.1c-1.62-1.48-3.58,1.06-2.6,3.38.01.03.03.07.04.1,1.52,3.43,4.85,4.22,5.06,1.14.13-1.82-1.31-3.53-2.5-4.62h0Z"/>
      <path class="st19" d="M281.39,471.15c-1.43,0-3.02-1.35-3.92-3.37l-.05-.11c-.71-1.68-.08-3.42.94-4.14.79-.56,1.71-.48,2.46.2h0c1.29,1.18,2.8,3.01,2.67,5.03-.13,1.88-1.25,2.27-1.72,2.36-.12.02-.25.03-.37.03h-.01ZM278.39,467.38c.85,1.93,2.3,2.91,3.2,2.75.7-.12.87-.96.9-1.44.11-1.62-1.21-3.19-2.34-4.22h0c-.4-.37-.81-.41-1.21-.12-.68.48-1.1,1.74-.59,2.94l-.42.3.46-.2h0Z"/>
    </g>
    <g>
      <path class="st10" d="M284.95,460.51c-1.62-1.48-3.58,1.06-2.6,3.38.01.03.03.07.04.1,1.52,3.43,4.85,4.22,5.06,1.14.13-1.82-1.31-3.53-2.5-4.62h0Z"/>
      <path class="st19" d="M285.85,467.56c-1.43,0-3.02-1.35-3.92-3.37l-.05-.11c-.71-1.68-.08-3.42.93-4.15.79-.56,1.71-.49,2.46.2h0c1.29,1.18,2.8,3.02,2.66,5.03-.13,1.88-1.25,2.27-1.72,2.36-.12.02-.25.03-.38.03h.02ZM283.93,460.57c-.18,0-.35.06-.53.19-.68.48-1.1,1.74-.59,2.94l.04.1c.85,1.93,2.3,2.92,3.2,2.75.7-.12.87-.96.9-1.44.11-1.62-1.21-3.19-2.34-4.22-.23-.21-.45-.31-.68-.31h0Z"/>
    </g>
    <g>
      <path class="st10" d="M288.86,456.94c-1.24-1.13-2.75.81-1.99,2.59.01.03.02.05.03.08,1.16,2.63,3.71,3.23,3.88.88.1-1.4-1-2.71-1.92-3.54h0Z"/>
      <path class="st19" d="M289.55,462.46c-1.14,0-2.41-1.06-3.11-2.65-.61-1.42-.1-2.82.72-3.4.64-.46,1.42-.39,2.03.16h0c1.01.92,2.19,2.36,2.08,3.95-.11,1.52-1.03,1.84-1.42,1.91-.1.02-.2.03-.3.03h0ZM288.08,457.11c-.11,0-.22.04-.34.12-.48.34-.78,1.25-.41,2.11.65,1.48,1.72,2.22,2.36,2.11.44-.08.56-.58.59-1,.08-1.19-.91-2.37-1.76-3.14h0c-.15-.14-.3-.21-.44-.21h0Z"/>
    </g>
  </g>
  <g>
    <g>
      <path class="st8" d="M151.73,466.42c-1.64,3.96-2.87,10.24-1.81,13.35s2.72,6.89,10.04,10.08c7.31,3.19,23.36,13.56,27.1,13.75s6.86.17,8.46-3.43c0,0,3.78.87,6.06-.8s2.53-3.12,2.53-3.12c0,0,3.34.97,5.12-.36s1.98-2.99,1.98-2.99c0,0,4.8.29,6.29-2.82s.78-8.26-9.62-14.33c-10.39-6.07-18.18-15.67-18.18-15.67,0,0-.34-8.59.05-9.95.38-1.36,6.56-50.09,6.56-50.09l-41.03,5.53s-1.89,56.89-3.53,60.84h-.02Z"/>
      <path class="st19" d="M189.1,504.17c-.69,0-1.39-.04-2.06-.07-2.32-.12-8.65-3.68-15.36-7.46-4.4-2.48-8.94-5.04-11.92-6.33-7.35-3.21-9.18-7.04-10.31-10.37-1.09-3.21.07-9.49,1.82-13.7,1.27-3.06,2.84-41.02,3.49-60.67v-.42l.43-.06,41.67-5.62-.08.64c-.25,1.99-6.18,48.79-6.57,50.17-.26.93-.17,6.2-.03,9.62.96,1.15,8.39,9.85,17.94,15.42,11.55,6.74,11.11,12.28,9.82,14.98-1.36,2.84-5.07,3.11-6.34,3.11-.19.64-.7,1.86-2.07,2.88-1.55,1.16-4.06.78-5.09.55-.27.62-.93,1.73-2.55,2.92-2.01,1.48-4.99,1.15-6.07.96-1.49,2.93-4.08,3.43-6.71,3.43v.02ZM155.75,406.02c-.19,5.61-1.95,56.74-3.55,60.59-1.64,3.96-2.8,10.06-1.8,13,1.11,3.28,2.78,6.74,9.76,9.78,3.02,1.32,7.59,3.89,12.01,6.38,6.31,3.55,12.83,7.23,14.92,7.33,3.89.19,6.55.08,7.98-3.13l.17-.38.4.09s3.59.8,5.65-.72c2.05-1.51,2.33-2.79,2.33-2.81l.11-.53.52.14s3.13.89,4.68-.28c1.57-1.17,1.77-2.59,1.78-2.65l.06-.46.46.02s4.49.23,5.81-2.54c1.14-2.39,1.44-7.35-9.42-13.68-10.35-6.04-18.24-15.69-18.31-15.78l-.1-.13v-.17c-.04-.89-.34-8.71.06-10.1.31-1.15,4.69-35.41,6.46-49.38l-39.96,5.39-.02.02Z"/>
    </g>
    <path class="st19" d="M196,500.56l-.81-.59c.85-1.18,1.11-2.34.77-3.55-1.03-3.72-7.28-6.43-7.35-6.45l.39-.92c.28.12,6.75,2.92,7.92,7.1.42,1.5.11,2.98-.92,4.41Z"/>
    <path class="st19" d="M204.23,497.13l-.81-.59c.79-1.1,1.03-2.21.72-3.41-1.05-4.13-8.17-7.57-8.24-7.61l.43-.9c.31.15,7.6,3.67,8.78,8.26.38,1.48.08,2.91-.88,4.25h0Z"/>
    <path class="st19" d="M211.09,494.53l-.81-.59c.78-1.08,1.02-2.21.75-3.47-.96-4.46-8.12-8.59-8.19-8.63l.5-.87c.31.18,7.62,4.39,8.68,9.29.33,1.53.02,2.97-.92,4.27h0Z"/>
    <g>
      <path class="st10" d="M216.05,482.92c-2.03-1.9-5.28.2-4.3,2.8,0,.04.03.08.04.11,1.55,3.86,6.13,5.48,6.98,2.4.5-1.82-1.23-3.92-2.73-5.32h.01Z"/>
      <path class="st19" d="M216.72,490.35c-1.82,0-4.28-1.58-5.38-4.33l-.05-.12c-.53-1.39-.07-2.83,1.17-3.66,1.04-.7,2.66-.87,3.93.32,1.62,1.52,3.44,3.76,2.87,5.82-.33,1.19-1.19,1.91-2.38,1.97h-.17.01ZM214.26,482.69c-.47,0-.91.16-1.24.38-.64.43-1.23,1.33-.79,2.47l.04.11c.96,2.39,3.13,3.77,4.57,3.7.76-.04,1.25-.46,1.47-1.24.46-1.66-1.43-3.73-2.59-4.82h0c-.47-.44-.97-.6-1.45-.6h-.01Z"/>
    </g>
    <g>
      <path class="st10" d="M209.39,487.64c-1.59-1.48-4.12.15-3.36,2.19,0,.03.02.06.03.09,1.21,3.02,4.79,4.28,5.45,1.88.39-1.42-.96-3.06-2.13-4.15h.01Z"/>
      <path class="st19" d="M209.91,493.55c-1.46,0-3.43-1.26-4.31-3.45l-.04-.1c-.42-1.12-.04-2.32.96-2.99.85-.57,2.17-.71,3.21.26,1.29,1.21,2.73,2.99,2.27,4.65-.27.98-.98,1.57-1.95,1.62h-.14ZM207.98,487.57c-.35,0-.67.12-.91.28-.49.33-.89.97-.58,1.8.76,1.9,2.38,2.98,3.49,2.9.54-.03.89-.33,1.05-.89.34-1.24-1.1-2.82-1.99-3.65h0c-.34-.32-.71-.44-1.06-.44h0Z"/>
    </g>
    <g>
      <path class="st10" d="M202.59,491.27c-1.59-1.48-4.12.15-3.36,2.19,0,.03.02.06.03.09,1.21,3.02,4.79,4.28,5.45,1.88.39-1.42-.96-3.06-2.13-4.15h.01Z"/>
      <path class="st19" d="M203.11,497.18c-1.46,0-3.43-1.26-4.31-3.45l-.04-.1c-.42-1.12-.04-2.32.96-2.99.85-.57,2.17-.71,3.21.26,1.29,1.21,2.73,2.99,2.27,4.65-.27.98-.98,1.57-1.95,1.62h-.14ZM201.19,491.19c-.35,0-.67.12-.91.28-.49.33-.89.97-.58,1.8.76,1.9,2.38,2.98,3.49,2.9.54-.03.89-.33,1.05-.89.25-.92-.45-2.21-1.99-3.65h0c-.34-.32-.71-.44-1.06-.44h0Z"/>
    </g>
    <g>
      <path class="st10" d="M195.05,494.58c-1.59-1.48-4.12.15-3.36,2.19,0,.03.02.06.03.09,1.21,3.02,4.79,4.28,5.45,1.88.39-1.42-.96-3.06-2.13-4.15h.01Z"/>
      <path class="st19" d="M195.57,500.5c-1.46,0-3.43-1.26-4.31-3.45l-.04-.1c-.42-1.12-.04-2.31.96-2.98.85-.57,2.17-.71,3.21.26h0c1.29,1.21,2.73,2.99,2.27,4.65-.27.98-.98,1.57-1.96,1.62h-.14,0ZM193.65,494.51c-.35,0-.67.12-.91.28-.49.33-.89.97-.58,1.8.76,1.9,2.41,2.94,3.49,2.9.54-.03.89-.33,1.05-.89.25-.92-.45-2.21-1.99-3.65h0c-.34-.32-.71-.44-1.06-.44h0Z"/>
    </g>
  </g>
  <g>
    <g>
      <g>
        <path class="st20" d="M168.64,244.88s-12.8,51.27-10.74,71.78,2.4,53.9,2.4,53.9l-15.66,88.97,45.05.56s15.84-82.37,16.87-88.1c1.03-5.72,5.14-37.68,5.14-37.68l8.91,40.54,6.08,63.74h39.75s-4.37-72.32-6.42-86.16c-2.06-13.83-8.22-80.13-8.22-80.13l-1.71-20.99-81.44-6.44h0Z"/>
        <path class="st19" d="M190.1,460.59l-46.06-.58,15.76-89.55c0-.24-.37-33.51-2.4-53.76-2.04-20.36,10.62-71.44,10.75-71.95l.1-.41,82.28,6.5,1.75,21.41c.06.66,6.19,66.44,8.22,80.1,2.04,13.7,6.38,85.48,6.43,86.2l.03.53h-40.73l-6.12-64.19-8.28-37.68c-1.03,7.97-3.94,30.2-4.78,34.86-1.02,5.66-16.71,87.28-16.87,88.1l-.08.41h0ZM145.23,459.03l44.04.55c1.21-6.31,15.81-82.23,16.78-87.68,1.01-5.65,5.1-37.34,5.14-37.66l.37-2.85,9.53,43.35,6.05,63.35h38.76c-.4-6.61-4.45-72.55-6.39-85.58-2.03-13.69-8.17-79.5-8.23-80.16l-1.68-20.57-80.59-6.37c-1.2,4.9-12.55,51.98-10.63,71.2,2.03,20.3,2.4,53.61,2.4,53.94l-15.56,88.48h.01Z"/>
      </g>
      <path class="st19" d="M157.12,436.97l-.99-.13c.06-.47,6.13-46.98,10.55-59.29,3.75-10.45,1.35-45.07-.09-65.76-.25-3.63-.48-6.84-.63-9.4-1.02-17.11,8.52-36.78,8.62-36.98l.9.44c-.1.19-9.52,19.64-8.52,36.48.15,2.56.38,5.76.63,9.39,1.44,20.77,3.85,55.52.03,66.17-4.39,12.21-10.44,58.61-10.5,59.08h0Z"/>
      <path class="st19" d="M214.39,321l-14.53-5.78.37-.93,14.25,5.67c1.44-.31,13.23-2.96,17.76-7.47l.71.71c-5.02,4.99-17.87,7.66-18.41,7.77l-.15.03Z"/>
      <path class="st19" d="M167.94,289.48l-.21-.98c.19-.04,19.34-4.43,25.34-20.2l.93.36c-6.19,16.28-25.86,20.78-26.06,20.82h0Z"/>
      <polygon class="st19" points="236.17 288.13 228.01 287.05 226.27 261.36 227.27 261.3 228.96 286.17 235.19 286.99 235.52 260.37 236.52 260.38 236.17 288.13"/>
      <path class="st19" d="M232.71,436.95c-.62-6.31-6.09-61.7-5.75-63.62.14-1.68-7.7-32.46-13.01-52.73l.97-.25c2.24,8.54,13.37,51.24,13.03,53.16-.25,1.74,4.07,46.32,5.76,63.34l-1,.1Z"/>
      <g>
        <line class="st1" x1="211.69" y1="320.95" x2="211.69" y2="334.31"/>
        <rect class="st19" x="211.19" y="320.95" width="1" height="13.36"/>
      </g>
      <g>
        <line class="st1" x1="217.52" y1="319.64" x2="235.89" y2="284.92"/>
        <rect class="st19" x="207.07" y="301.77" width="39.28" height="1" transform="translate(-146.5 361.25) rotate(-62.11)"/>
      </g>
      <g>
        <line class="st1" x1="218.2" y1="298.06" x2="208.95" y2="318.09"/>
        <rect class="st19" x="202.53" y="307.54" width="22.07" height="1" transform="translate(-155.65 372.64) rotate(-65.19)"/>
      </g>
    </g>
    <g>
      <path class="st8" d="M187.98,284.85c-57.47-10.87-27.48-77.39-27.48-77.39l34.36,14.35-8.19,19.31s5.01,21.29,21.84,24.72"/>
      <path class="st19" d="M187.88,285.34c-14.96-2.83-25.38-9.69-30.95-20.4-12.14-23.3,2.95-57.35,3.1-57.69l.2-.44,35.27,14.73-8.32,19.62c.5,1.93,5.85,21.02,21.41,24.19l-.2.98c-16.95-3.46-22.17-24.88-22.22-25.1l-.04-.16,8.06-19-33.44-13.96c-1.72,4.07-14.1,34.94-2.94,56.37,5.43,10.42,15.6,17.1,30.25,19.87l-.19.98h0Z"/>
    </g>
    <g>
      <g>
        <path class="st8" d="M248.02,150.19s-8.79,14.63,3.65,16.38c12.45,1.75,12.11,23.21,12.11,23.21l-37.35,35.3-14.73-51.04s-7.08-12.4,2.28-12.88c9.37-.48,5.94-13.83,12.45-17.17s21.59,6.2,21.59,6.2h0Z"/>
        <path class="st19" d="M226.18,226.01l-14.95-51.77c-.4-.72-4.03-7.39-1.98-11.14.82-1.5,2.4-2.31,4.7-2.43,4.91-.25,6.05-4.3,7.25-8.6.96-3.42,1.95-6.96,4.99-8.52,6.69-3.43,21.46,5.83,22.08,6.22l.41.26-.25.42c-.05.08-4.53,7.64-2.34,12.23.88,1.85,2.78,2.99,5.64,3.39,5.31.75,9.16,5.11,11.14,12.63,1.47,5.59,1.4,11.03,1.4,11.09v.21l-.16.14-37.95,35.86h.02ZM229.84,143.78c-1.2,0-2.28.2-3.19.66-2.65,1.36-3.54,4.54-4.49,7.9-1.25,4.44-2.54,9.04-8.17,9.32-1.93.1-3.23.74-3.87,1.91-1.85,3.39,1.96,10.15,2,10.22l.05.11,14.51,50.25,36.6-34.59c-.01-2.19-.45-20.93-11.68-22.5-3.21-.45-5.37-1.78-6.4-3.95-2.13-4.46,1.18-11,2.14-12.74-2.04-1.23-11.27-6.59-17.5-6.59h0Z"/>
      </g>
      <g>
        <path class="st4" d="M205.3,206.95c-2.06,12.08-15.02,27.74-15.02,27.74-5.03-12.4-33.58-26.08-33.58-26.08,3.43-10.18,15.48-27.27,24.16-37.44,8.68-10.18,33.12-10.02,33.12-10.02-.23,29.89,6.08,49.61,21.7,49.61s12.61-19.5,13.75-45.26c0,0,14.91-.72,26,12.35,6.65,7.84,11.42,22.34,16.22,42.13,0,0-17.13,4.77-30.15,20.03l-.46-3.82c-2.74,7.95-.23,20.99-3.2,21.62s-20.56,12.4-45.23,4.45c0,0-39.62-14.39-23.27-29.63"/>
        <path class="st19" d="M229.64,265.51c-5.22,0-10.99-.75-17.19-2.75-1.04-.38-25.06-9.22-27.39-20.66-.67-3.3.53-6.49,3.58-9.48-7.12-11.45-31.9-23.42-32.16-23.55l-.4-.19.14-.42c3.32-9.85,14.97-26.73,24.25-37.61,8.73-10.23,32.49-10.19,33.51-10.19h.5v.5c-.17,22.51,3.3,37.5,10.31,44.57,2.98,3.01,6.65,4.53,10.89,4.53,12.38,0,12.59-12.66,12.91-31.81.07-4.14.14-8.43.34-12.97l.02-.46.46-.02c.15,0,15.29-.58,26.41,12.53,6.03,7.11,10.76,19.38,16.32,42.34l.11.47-.47.13c-.17.05-17.14,4.91-29.91,19.88l-.74.87-.29-2.38c-.68,3.3-.75,7.08-.82,10.5-.1,4.98-.17,8.57-2.09,8.99-.43.09-1.33.5-2.46,1.02-4.26,1.95-13.49,6.17-25.83,6.17h0ZM189.16,233.51c-2.66,2.68-3.71,5.5-3.12,8.38,2.22,10.89,26.49,19.83,26.74,19.92,20.46,6.59,35.75-.4,42.28-3.38,1.29-.59,2.14-.98,2.67-1.09,1.15-.25,1.22-4.2,1.3-8.03.09-4.38.18-9.35,1.53-13.27l.71-2.06.58,4.86c11.67-13.18,26.41-18.31,29.19-19.2-5.41-22.21-10.2-34.63-16-41.47-9.72-11.46-22.58-12.16-25.14-12.18-.19,4.36-.25,8.48-.32,12.47-.32,19.04-.54,32.8-13.91,32.8-4.52,0-8.42-1.62-11.6-4.83-7.15-7.21-10.72-22.27-10.6-44.77-3.51.05-24.49.75-32.24,9.84-9.09,10.65-20.46,27.07-23.92,36.86,3.56,1.74,27.58,13.82,33.09,25.38,2.41-3.05,12.62-16.42,14.4-26.88l.99.17c-2.05,12.08-14.59,27.34-15.13,27.98l-.53.65-.31-.78c-.18-.46-.4-.91-.65-1.37h0Z"/>
      </g>
      <g class="st21">
        <g>
          <g>
            <path class="st14" d="M183.13,165.97h0c1.73,5.31,6.68,8.91,12.26,8.91h0c1.76,0,2.5,2.26,1.07,3.29h0c-4.52,3.28-6.41,9.1-4.68,14.42h0c.54,1.68-1.37,3.07-2.8,2.03h0c-4.52-3.28-10.64-3.28-15.16,0h0c-1.43,1.04-3.34-.36-2.8-2.03h0c1.73-5.31-.16-11.13-4.68-14.42h0c-1.43-1.04-.69-3.29,1.07-3.29h0c5.59,0,10.54-3.6,12.26-8.91h0c.54-1.68,2.92-1.68,3.46,0h0Z"/>
            <path class="st3" d="M172.75,195.48c-.47,0-.95-.15-1.36-.45-.83-.6-1.16-1.62-.84-2.59,1.66-5.12-.15-10.69-4.5-13.86-.83-.6-1.16-1.62-.84-2.59s1.18-1.6,2.21-1.6c5.39,0,10.12-3.44,11.79-8.56.32-.97,1.18-1.6,2.21-1.6s1.89.63,2.21,1.6h0c1.66,5.12,6.4,8.56,11.79,8.56,1.02,0,1.89.63,2.21,1.6s0,1.99-.84,2.59c-4.36,3.17-6.17,8.73-4.5,13.86.32.97,0,1.99-.84,2.59-.83.6-1.9.6-2.73,0-4.36-3.17-10.21-3.17-14.57,0-.41.3-.89.45-1.36.45h-.04ZM181.4,191.65c2.76,0,5.52.86,7.87,2.57.57.42,1.18.27,1.55,0,.38-.27.7-.8.48-1.48-1.8-5.54.16-11.55,4.87-14.98.57-.42.62-1.03.48-1.48s-.55-.91-1.26-.91c-5.82,0-10.94-3.72-12.74-9.26h0c-.22-.67-.79-.91-1.26-.91s-1.04.24-1.25.91c-1.8,5.54-6.92,9.26-12.74,9.26-.71,0-1.11.47-1.25.91s-.09,1.06.48,1.48c4.71,3.42,6.67,9.44,4.87,14.97-.22.67.1,1.2.48,1.48.38.27.98.42,1.55,0,2.35-1.71,5.11-2.57,7.87-2.57h0Z"/>
          </g>
          <g>
            <path class="st14" d="M201.15,238.05h0c1.73,5.31,6.68,8.91,12.26,8.91h0c1.76,0,2.5,2.26,1.07,3.29h0c-4.52,3.28-6.41,9.1-4.68,14.42h0c.54,1.68-1.37,3.07-2.8,2.03h0c-4.52-3.28-10.64-3.28-15.16,0h0c-1.43,1.04-3.34-.36-2.8-2.03h0c1.73-5.31-.16-11.13-4.68-14.42h0c-1.43-1.04-.69-3.29,1.07-3.29h0c5.59,0,10.54-3.6,12.26-8.91h0c.54-1.68,2.92-1.68,3.46,0h0Z"/>
            <path class="st3" d="M208.07,267.56c-.47,0-.95-.15-1.36-.45-4.36-3.17-10.21-3.17-14.57,0-.83.6-1.9.6-2.73,0s-1.16-1.62-.84-2.59c1.66-5.12-.15-10.69-4.5-13.86-.83-.6-1.16-1.62-.84-2.59s1.18-1.6,2.21-1.6c5.39,0,10.12-3.44,11.79-8.56.32-.97,1.18-1.6,2.21-1.6h0c1.02,0,1.89.63,2.21,1.6h0c1.66,5.12,6.4,8.56,11.79,8.56,1.02,0,1.89.63,2.21,1.6s0,1.99-.84,2.59c-4.36,3.17-6.17,8.73-4.5,13.86.32.97,0,1.99-.84,2.59-.41.3-.89.45-1.36.45h-.04ZM199.42,237.29c-.46,0-1.04.24-1.25.91-1.8,5.54-6.92,9.26-12.74,9.26-.71,0-1.11.47-1.26.91s-.09,1.06.48,1.48c4.71,3.42,6.66,9.44,4.87,14.97-.22.67.1,1.2.48,1.48s.98.42,1.55,0c4.71-3.42,11.04-3.42,15.75,0,.57.41,1.18.27,1.55,0,.38-.27.7-.8.48-1.48-1.8-5.54.16-11.55,4.87-14.97.57-.42.62-1.03.48-1.48-.14-.44-.55-.91-1.25-.91-5.82,0-10.94-3.72-12.74-9.26h0c-.22-.67-.79-.91-1.25-.91h-.02Z"/>
          </g>
          <g>
            <path class="st14" d="M261.97,209.89h0c1.73,5.31,6.68,8.91,12.26,8.91h0c1.76,0,2.5,2.26,1.07,3.29h0c-4.52,3.28-6.41,9.1-4.68,14.42h0c.54,1.68-1.37,3.07-2.8,2.03h0c-4.52-3.28-10.64-3.28-15.16,0h0c-1.43,1.04-3.34-.36-2.8-2.03h0c1.73-5.31-.16-11.13-4.68-14.42h0c-1.43-1.04-.69-3.29,1.07-3.29h0c5.59,0,10.54-3.6,12.26-8.91h0c.54-1.68,2.92-1.68,3.46,0h0Z"/>
            <path class="st3" d="M268.89,239.4c-.47,0-.95-.15-1.36-.45-4.36-3.17-10.21-3.17-14.57,0-.83.6-1.9.6-2.73,0s-1.16-1.62-.84-2.59c1.66-5.12-.15-10.69-4.5-13.86-.83-.6-1.16-1.62-.84-2.59s1.18-1.6,2.21-1.6c5.39,0,10.12-3.44,11.79-8.56.32-.97,1.18-1.6,2.21-1.6h0c1.02,0,1.89.63,2.21,1.6,1.66,5.12,6.4,8.56,11.79,8.56,1.02,0,1.89.63,2.21,1.6s-.01,1.99-.84,2.59c-4.36,3.17-6.17,8.73-4.5,13.86.32.97-.01,1.99-.84,2.59-.41.3-.89.45-1.36.45h-.04ZM260.24,209.13c-.46,0-1.04.24-1.25.91-1.8,5.54-6.92,9.26-12.74,9.26-.71,0-1.11.47-1.26.91s-.09,1.06.48,1.48c4.71,3.42,6.66,9.44,4.87,14.97-.22.67.1,1.2.48,1.48.38.27.98.42,1.55,0,4.71-3.42,11.04-3.42,15.75,0,.57.42,1.18.27,1.55,0,.38-.27.7-.8.48-1.48-1.8-5.54.16-11.55,4.87-14.97.57-.42.62-1.03.48-1.48-.14-.44-.55-.91-1.25-.91-5.82,0-10.94-3.72-12.74-9.26h0c-.22-.67-.79-.91-1.25-.91h-.02Z"/>
          </g>
          <g>
            <path class="st14" d="M270.41,157.52h0c1.73,5.31,6.68,8.91,12.26,8.91h0c1.76,0,2.5,2.26,1.07,3.29h0c-4.52,3.28-6.41,9.1-4.68,14.42h0c.54,1.68-1.37,3.07-2.8,2.03h0c-4.52-3.28-10.64-3.28-15.16,0h0c-1.43,1.04-3.34-.36-2.8-2.03h0c1.73-5.31-.16-11.13-4.68-14.42h0c-1.43-1.04-.69-3.29,1.07-3.29h0c5.59,0,10.54-3.6,12.26-8.91h0c.54-1.68,2.92-1.68,3.46,0h0Z"/>
            <path class="st3" d="M277.33,187.03c-.47,0-.95-.15-1.36-.45-4.36-3.17-10.21-3.17-14.57,0-.83.6-1.9.6-2.73,0-.83-.6-1.16-1.62-.84-2.59,1.66-5.12-.15-10.69-4.5-13.86-.83-.6-1.16-1.62-.84-2.59s1.18-1.6,2.21-1.6c5.39,0,10.12-3.44,11.79-8.56.32-.97,1.18-1.6,2.21-1.6s1.89.63,2.21,1.6c1.66,5.12,6.4,8.56,11.79,8.56,1.02,0,1.89.63,2.21,1.6s-.01,1.99-.84,2.59c-4.36,3.17-6.17,8.73-4.5,13.86.32.97-.01,1.99-.84,2.59-.41.3-.89.45-1.36.45h-.04ZM268.68,183.2c2.76,0,5.52.85,7.87,2.57.57.41,1.18.27,1.55,0,.38-.27.7-.8.48-1.48-1.8-5.54.16-11.55,4.87-14.97.57-.42.62-1.03.48-1.48-.14-.44-.55-.91-1.25-.91-5.82,0-10.94-3.72-12.74-9.26h0c-.22-.67-.79-.91-1.25-.91s-1.04.24-1.25.91c-1.8,5.54-6.92,9.26-12.74,9.26-.71,0-1.11.47-1.26.91s-.09,1.06.48,1.48c4.71,3.42,6.66,9.44,4.87,14.97-.22.67.1,1.2.48,1.48.38.27.98.42,1.55,0,2.35-1.71,5.11-2.57,7.87-2.57h-.01Z"/>
          </g>
        </g>
      </g>
      <path class="st19" d="M229.64,265.51c-5.22,0-10.99-.75-17.19-2.75-1.04-.38-25.06-9.22-27.39-20.66-.67-3.3.53-6.49,3.58-9.48-7.12-11.45-31.9-23.42-32.16-23.55l-.4-.19.14-.42c3.32-9.85,14.97-26.73,24.25-37.61,8.73-10.23,32.49-10.19,33.51-10.19h.5v.5c-.17,22.51,3.3,37.5,10.31,44.57,2.98,3.01,6.65,4.53,10.89,4.53,12.38,0,12.59-12.66,12.91-31.81.07-4.14.14-8.43.34-12.97l.02-.46.46-.02c.15,0,15.29-.58,26.41,12.53,6.03,7.11,10.76,19.38,16.32,42.34l.11.47-.47.13c-.17.05-17.14,4.91-29.91,19.88l-.74.87-.29-2.38c-.68,3.3-.75,7.08-.82,10.5-.1,4.98-.17,8.57-2.09,8.99-.43.09-1.33.5-2.46,1.02-4.26,1.95-13.49,6.17-25.83,6.17h0ZM189.16,233.51c-2.66,2.68-3.71,5.5-3.12,8.38,2.22,10.89,26.49,19.83,26.74,19.92,20.46,6.59,35.75-.4,42.28-3.38,1.29-.59,2.14-.98,2.67-1.09,1.15-.25,1.22-4.2,1.3-8.03.09-4.38.18-9.35,1.53-13.27l.71-2.06.58,4.86c11.67-13.18,26.41-18.31,29.19-19.2-5.41-22.21-10.2-34.63-16-41.47-9.72-11.46-22.58-12.16-25.14-12.18-.19,4.36-.25,8.48-.32,12.47-.32,19.04-.54,32.8-13.91,32.8-4.52,0-8.42-1.62-11.6-4.83-7.15-7.21-10.72-22.27-10.6-44.77-3.51.05-24.49.75-32.24,9.84-9.09,10.65-20.46,27.07-23.92,36.86,3.56,1.74,27.58,13.82,33.09,25.38,2.41-3.05,12.62-16.42,14.4-26.88l.99.17c-2.05,12.08-14.59,27.34-15.13,27.98l-.53.65-.31-.78c-.18-.46-.4-.91-.65-1.37h0Z"/>
    </g>
    <g>
      <path class="st18" d="M266.18,208.86c-1.37,15.26-3.43,19.56-5.14,27.35"/>
      <path class="st19" d="M261.52,236.32l-.98-.21c.45-2.04.93-3.89,1.4-5.67,1.34-5.1,2.72-10.38,3.73-21.62l1,.09c-1.02,11.32-2.41,16.64-3.76,21.78-.49,1.85-.94,3.6-1.39,5.63h0Z"/>
    </g>
    <polygon class="st19" points="230.25 380.41 229.46 379.79 232.43 376.07 222.35 373.07 237.51 365.34 237.96 366.23 225.03 372.82 234.13 375.54 230.25 380.41"/>
    <polygon class="st19" points="180.04 376.78 162.69 376.78 162.69 375.78 175.51 375.78 163.17 370.06 163.59 369.15 180.04 376.78"/>
  </g>
  <g>
    <g>
      <polygon class="st19" points="155.67 526.52 153.41 524.54 340.21 310.78 326.44 309.4 142.89 519.54 140.63 517.57 325.2 306.26 346.3 308.37 155.67 526.52"/>
      <rect class="st19" x="150.14" y="486.43" width="3" height="73.6" transform="translate(-390.93 474.45) rotate(-68.7)"/>
      <polygon class="st19" points="341.33 474.41 207.71 324.01 194.87 326.76 318.57 460.19 316.37 462.23 189.08 324.93 208.79 320.71 209.37 321.36 343.58 472.41 341.33 474.41"/>
      <rect class="st19" x="325.54" y="424.15" width="3" height="83.94" transform="translate(-236.38 548.46) rotate(-63.26)"/>
      <g>
        <g>
          <path class="st13" d="M341.9,299.24s-242.4,25.59-265.35,28.91c-8.06,1.17-4.29,4.54-4.11,8.1s5.19,7.68,7.37,9.62c3.49,3.11,21.5,16.16,59.27,12.43,37.77-3.73,233.02-24.25,249.88-27.35,11.48-2.12,25.35-5.68,26.42-10.68.5-2.34,1.03-8.96-5.64-11.94-20.92-9.33-40.53-14.07-67.84-9.09Z"/>
          <path class="st19" d="M126.08,359.46c-30.76,0-44.9-11.72-46.59-13.22l-.56-.5c-2.54-2.24-6.8-5.98-6.98-9.47-.04-.82-.29-1.64-.54-2.45-.41-1.36-.84-2.77-.09-3.94.71-1.11,2.35-1.82,5.16-2.23,22.65-3.27,261.92-28.54,265.35-28.91,29.73-5.41,50.31,1.19,68.12,9.13,7.48,3.33,6.25,11,5.93,12.5-.91,4.23-9.93,7.95-26.82,11.06-16.47,3.04-209.67,23.39-249.92,27.36-4.65.46-9,.66-13.07.66h.01ZM363.1,297.72c-6.53,0-13.5.63-21.11,2.02h-.04c-2.42.26-242.65,25.63-265.33,28.91-2.47.36-3.93.94-4.46,1.77-.5.79-.18,1.87.2,3.12.26.86.53,1.75.58,2.69.16,3.07,4.37,6.78,6.64,8.77l.57.5c1.87,1.67,19.44,16.21,58.89,12.31,40.24-3.97,233.38-24.31,249.83-27.35,15.99-2.95,25.23-6.6,26.02-10.29.29-1.37,1.41-8.36-5.36-11.38-14.84-6.61-29.08-11.07-46.44-11.07h.01Z"/>
        </g>
        <g>
          <path class="st15" d="M341.9,292.14s-234.48,27.12-257.43,30.22c-21.5,2.91-8.72,9.3-5.23,12.2,3.49,2.91,22.08,16.27,59.85,12.78,37.77-3.49,233.02-22.66,249.88-25.57s37.77-8.14,16.85-16.85c-20.92-8.72-36.61-17.43-63.92-12.78h0Z"/>
          <path class="st19" d="M126.86,348.42c-30.07,0-44.98-11.02-47.94-13.48-.44-.37-1.06-.81-1.72-1.28-2.66-1.9-5.96-4.26-5.34-6.75.59-2.37,4.57-3.98,12.54-5.05,22.65-3.06,254.33-29.86,257.43-30.22,24.48-4.16,39.79,2.4,57.53,9.99,2.17.93,4.38,1.88,6.66,2.83,6.38,2.66,9.34,5.18,9.06,7.7-.44,3.91-8.71,7.12-26.02,10.1-16.47,2.84-209.66,21.86-249.92,25.57-4.35.4-8.44.58-12.28.58h0ZM356.43,291.35c-4.48,0-9.25.39-14.44,1.28h-.03c-2.34.27-234.74,27.15-257.42,30.22-9.1,1.23-11.39,3.02-11.71,4.3-.45,1.83,2.67,4.07,4.96,5.7.67.48,1.3.93,1.77,1.32,1.44,1.2,6.9,5.36,16.91,8.7,12.32,4.11,26.64,5.44,42.58,3.97,40.24-3.71,233.39-22.73,249.84-25.56,16.35-2.82,24.82-5.92,25.2-9.23.15-1.37-1.19-3.64-8.45-6.67-2.28-.95-4.49-1.9-6.67-2.83-13.82-5.92-26.15-11.2-42.53-11.2h0Z"/>
        </g>
      </g>
    </g>
    <g>
      <polyline class="st14" points="308.2 421.15 308.2 364.78 332.6 393.83 334.93 409.52"/>
      <polygon class="st19" points="308.7 421.15 307.7 421.15 307.7 363.41 333.08 393.62 335.42 409.45 334.43 409.6 332.13 394.05 308.7 366.15 308.7 421.15"/>
    </g>
    <g>
      <path class="st22" d="M144.91,318.87s34.87,18.01,36.61,38.35-4.07,36.61-4.07,36.61l32.54.58,1.16-29.64s17.43,11.04,36.03,12.78,43.58,1.74,60.44,6.39,26.15,23.83,15.69,25.57c-10.46,1.74-18.6,9.3-15.11,11.62,3.49,2.32,22.08,1.74,22.08,1.74l.58,19.76s26.15,3.49,36.61-2.91c0,0-8.72-47.07-9.3-69.73s8.72-46.49-9.88-56.95c-18.6-10.46-55.21-20.92-55.21-20.92l-153.68,21.06,5.5,5.67v.02Z"/>
      <path class="st19" d="M346.29,444.11c-8.03,0-14.95-.9-15.5-.97l-.42-.06-.58-19.68c-3.06.08-18.58.35-21.87-1.84-.85-.57-1.2-1.45-.97-2.5.75-3.51,8.03-8.66,16.28-10.04,2.48-.41,3.86-1.9,3.99-4.3.3-5.83-7.41-16.89-19.73-20.29-11.87-3.27-27.55-4.22-42.72-5.13-6.26-.38-12.18-.73-17.63-1.24-16.36-1.53-32-10.33-35.52-12.42l-1.15,29.28-33.73-.6.23-.66c.06-.16,5.75-16.41,4.04-36.4-1.7-19.83-36-37.77-36.34-37.95l-.13-.1-6.19-6.38,154.77-21.21.1.03c.37.1,36.88,10.6,55.31,20.96,13.89,7.81,12.52,23.08,11.07,39.23-.53,5.95-1.09,12.09-.93,18.14.57,22.37,9.2,69.18,9.29,69.66l.06.34-.29.18c-5.12,3.13-13.79,3.95-21.44,3.95ZM331.35,442.2c3.37.4,25.92,2.85,35.57-2.71-.79-4.33-8.69-48.04-9.24-69.47-.16-6.1.4-12.28.94-18.25,1.49-16.51,2.77-30.78-10.56-38.27-17.85-10.04-52.85-20.23-55-20.85l-152.6,20.91,4.76,4.91c2.24,1.17,35.08,18.6,36.81,38.72,1.54,17.94-2.83,32.91-3.88,36.17l31.37.56,1.18-30.01.73.46c.17.11,17.55,11,35.81,12.71,5.44.51,11.34.87,17.6,1.24,15.22.92,30.95,1.86,42.92,5.17,11.97,3.3,20.83,14.17,20.46,21.31-.15,2.88-1.86,4.74-4.82,5.24-8.4,1.4-14.87,6.5-15.47,9.26-.14.65.04,1.11.55,1.45,2.75,1.83,16.66,1.82,21.79,1.66l.5-.02.58,19.83v-.02Z"/>
    </g>
    <rect class="st19" x="294.56" y="386.1" width="72.65" height="1" transform="translate(-60.86 711.37) rotate(-89.1)"/>
    <path class="st19" d="M211.07,374.67l-1-.03c.57-19.43-6.29-36.82-6.36-36.99l.93-.37c.07.17,7,17.76,6.43,37.39h0Z"/>
  </g>
  <g>
    <g>
      <path class="st16" d="M337.95,52.59s-43.61-7.43-36.04,42.31c0,0-30.57,36.67,11.02,57.34,0,0,14.32,39.6,50.98,36.17,36.66-3.44,44.47-14.94,44.47-14.94,0,0,26.65,10.21,44.08-17.98,17.43-28.19,2.64-42.38,2.64-42.38,0,0,16.32-17.54-1.1-47.47s-42.12-19.98-42.12-19.98c0,0-12.54-17.33-37.16-15.05-35.45,3.28-36.77,22-36.77,22v-.02Z"/>
      <path class="st19" d="M359.5,189.12c-32.12,0-45.86-33.66-46.97-36.52-12.11-6.06-19.29-14.08-21.34-23.84-3.42-16.24,8.72-32.15,10.19-34-2.37-15.83.19-27.56,7.6-34.85,9.91-9.74,25.54-8.27,28.54-7.89.57-3.11,5.04-18.96,37.15-21.93,22.82-2.11,35.54,12.65,37.38,14.96,3.14-1.07,26.09-7.67,42.38,20.33,9.08,15.6,8.89,27.82,7.14,35.33-1.63,6.96-4.8,11.18-5.8,12.39,2.1,2.38,13.08,16.84-2.88,42.66-16.35,26.44-41.07,19.39-44.33,18.31-1.55,1.91-11.03,11.7-44.6,14.85-1.52.14-3.01.21-4.46.21h0ZM332.27,52.71c-6.05,0-15.75,1.2-22.58,7.92-7.21,7.08-9.65,18.59-7.28,34.2l.03.22-.14.17c-.14.16-13.64,16.62-10.12,33.33,2,9.49,9.06,17.31,20.98,23.24l.18.09.07.19c.14.39,14.63,39.21,50.47,35.84,28.73-2.69,41.41-10.81,44.11-14.73l.22-.32.37.14c.26.1,26.48,9.72,43.48-17.78,16.99-27.48,2.86-41.62,2.72-41.76l-.35-.34.33-.36c.16-.17,15.85-17.64-1.17-46.88-16.99-29.19-41.26-19.87-41.5-19.77l-.36.15-.23-.32c-.12-.17-12.68-17.08-36.71-14.85-34.55,3.2-36.3,21.35-36.32,21.54l-.04.55-.54-.09c-.06,0-2.28-.37-5.6-.37h-.02Z"/>
    </g>
    <g>
      <g>
        <path class="st12" d="M326.42,68.9s-5.77,3.21-3.01,15.22l26.77-3.41s2.17-16.97-23.77-11.81h.01Z"/>
        <path class="st19" d="M323.03,84.68l-.1-.44c-2.82-12.24,3-15.63,3.25-15.77l.15-.05c9.78-1.95,16.79-1.02,20.84,2.75,4.19,3.91,3.55,9.38,3.52,9.61l-.05.38-27.6,3.52h0ZM326.61,69.37c-.57.38-5.07,3.75-2.8,14.2l25.91-3.3c.06-1.26-.03-5.39-3.25-8.38-3.79-3.52-10.47-4.37-19.86-2.51h0Z"/>
      </g>
      <g>
        <path class="st5" d="M428.12,153.64s-21.08-.41-14.95-49.42c6.12-49.01-11.9-44.86-11.9-44.86l-74.84,9.54s18.02-4.15,11.9,44.86,14.13,51.45,14.13,51.45l75.66-11.57h0Z"/>
        <path class="st19" d="M352.46,165.71h-.07c-.18-.03-4.4-.59-8.45-5.78-4.68-5.98-9.54-18.86-6.12-46.23,3.48-27.86-.86-38.32-5.11-42.19-2.31-2.1-4.59-2.26-5.62-2.19l-.61.08-.18-.98s.27-.06.66-.09l74.23-9.46c.1-.02,3.55-.78,7,2.34,4.44,4.01,9,14.74,5.46,43.08-3.33,26.66,1.48,38.65,6.11,44.02,4.02,4.67,8.32,4.83,8.36,4.83l.06.99-75.73,11.58h.01ZM330.43,68.89c.92.36,1.93.94,2.93,1.85,4.44,4.01,9,14.74,5.46,43.08-3.13,25.07.79,37.59,4.63,43.67,3.87,6.13,8.43,7.11,9.01,7.21l72.95-11.15c-1.73-.62-4.08-1.91-6.37-4.55-4.78-5.52-9.76-17.77-6.38-44.84,3.48-27.86-.86-38.32-5.11-42.18-3.06-2.78-6.06-2.15-6.18-2.12l-70.95,9.04h.01Z"/>
      </g>
      <g>
        <path class="st12" d="M430,139.32c5.98,17.79-3.92,16.5-3.92,16.5l-73.62,9.38s9.9,1.28,3.92-16.5l73.62-9.38Z"/>
        <path class="st19" d="M352.89,165.73c-.29,0-.47-.02-.5-.03l-3.86-.5,6.05-.77c.62-.23,1.29-.63,1.85-1.32,1.38-1.68,2.4-5.52-.54-14.25l-.19-.58,74.64-9.51.13.39c2.48,7.37,2.59,12.49.35,15.22-1.74,2.12-4.28,1.99-4.74,1.95l-71.27,9.08c-.77.26-1.48.32-1.93.32h0ZM357.04,149.12c2.29,7.06,2.34,11.98.16,14.64-.11.14-.23.26-.35.38l69.22-8.82h.06c.1.02,2.39.28,3.92-1.59,1.35-1.66,2.37-5.41-.41-13.86l-72.61,9.25h0Z"/>
      </g>
      <g>
        <line class="st1" x1="352.11" y1="90.98" x2="403.83" y2="84.39"/>
        <rect class="st19" x="351.91" y="87.16" width="52.14" height="1" transform="translate(-8.03 48.33) rotate(-7.24)"/>
      </g>
      <g>
        <line class="st1" x1="350.42" y1="103.56" x2="402.14" y2="96.97"/>
        <rect class="st19" x="350.22" y="99.74" width="52.14" height="1" transform="translate(-9.63 48.22) rotate(-7.24)"/>
      </g>
      <g>
        <line class="st1" x1="347.63" y1="120.39" x2="376.95" y2="116.65"/>
        <rect class="st19" x="347.52" y="118" width="29.56" height="1" transform="translate(-12.05 46.6) rotate(-7.24)"/>
      </g>
    </g>
    <g>
      <g>
        <path class="st22" d="M387.65,135.67s4.99,19.77,16.42,26.97l1.88-9.51s7.47,5.23,13.32,2.63c0,0-18.25-20.35-18.38-29.4-.12-9.05-13.24,9.32-13.24,9.32h0Z"/>
        <path class="st19" d="M404.42,163.45l-.62-.39c-11.47-7.22-16.43-26.45-16.64-27.27l-.06-.22.13-.19c1.56-2.18,9.47-12.99,12.77-11.96.89.28,1.36,1.26,1.38,2.92.12,8.76,18.07,28.87,18.25,29.07l.46.51-.63.28c-5.1,2.27-11.21-1.05-13.18-2.27l-1.88,9.5.02.02ZM388.19,135.77c.58,2.15,5.47,19.15,15.53,26.04l1.88-9.54.63.44c.07.05,6.75,4.66,12.18,2.84-2.95-3.36-17.91-20.78-18.03-29.19,0-.66-.11-1.81-.68-1.98-1.9-.59-7.82,6.24-11.52,11.39h0Z"/>
      </g>
      <g>
        <circle class="st22" cx="394.04" cy="127.42" r="13.42"/>
        <path class="st19" d="M394.01,141.34c-3.06,0-6.03-1.01-8.49-2.91-2.94-2.27-4.82-5.56-5.29-9.25-.97-7.61,4.43-14.59,12.04-15.56,3.69-.47,7.34.52,10.28,2.8,2.94,2.27,4.82,5.56,5.29,9.25h0c.97,7.61-4.43,14.59-12.04,15.56-.6.08-1.2.11-1.79.11ZM394.06,114.5c-.55,0-1.1.04-1.66.11-7.06.9-12.08,7.38-11.18,14.45.44,3.42,2.18,6.47,4.91,8.58s6.12,3.04,9.54,2.6c7.06-.9,12.08-7.38,11.18-14.45h0c-.44-3.42-2.18-6.47-4.91-8.58-2.29-1.77-5.04-2.7-7.88-2.7h0Z"/>
      </g>
      <g>
        <circle class="st22" cx="394.2" cy="127.21" r="6.75"/>
        <path class="st19" d="M394.19,134.46c-3.59,0-6.72-2.68-7.18-6.33-.24-1.92.27-3.82,1.46-5.35,1.18-1.53,2.9-2.51,4.82-2.75,3.96-.51,7.6,2.31,8.11,6.27h0c.24,1.92-.27,3.82-1.46,5.35-1.18,1.53-2.9,2.51-4.82,2.75-.31.04-.62.06-.92.06h0ZM394.2,120.96c-.26,0-.53.02-.79.05-1.66.21-3.13,1.05-4.15,2.37s-1.47,2.96-1.26,4.61c.44,3.42,3.58,5.85,6.99,5.41,1.66-.21,3.13-1.05,4.15-2.37,1.02-1.32,1.47-2.96,1.26-4.61-.4-3.15-3.1-5.46-6.19-5.46h0Z"/>
      </g>
    </g>
    <g>
      <circle class="st16" cx="316.4" cy="157.67" r="12.57"/>
      <path class="st19" d="M316.39,170.75c-6.48,0-12.12-4.83-12.96-11.42-.91-7.15,4.17-13.71,11.32-14.62,7.15-.91,13.71,4.17,14.62,11.32h0c.44,3.46-.49,6.89-2.63,9.65s-5.22,4.53-8.69,4.97c-.56.07-1.11.11-1.66.11h0ZM316.41,145.6c-.51,0-1.02.03-1.54.1-6.6.84-11.29,6.9-10.45,13.5s6.9,11.3,13.5,10.45c6.6-.84,11.29-6.9,10.45-13.5h0c-.78-6.09-5.99-10.55-11.97-10.55h.01Z"/>
    </g>
    <g>
      <circle class="st16" cx="284.5" cy="162.05" r="7.26"/>
      <path class="st19" d="M284.49,169.81c-3.85,0-7.19-2.87-7.69-6.78-.54-4.24,2.47-8.14,6.72-8.68,4.24-.54,8.14,2.47,8.68,6.72.54,4.24-2.47,8.14-6.72,8.68-.33.04-.66.06-.99.06ZM284.51,155.29c-.29,0-.58.02-.87.06-1.79.23-3.39,1.14-4.49,2.57s-1.59,3.2-1.36,4.99c.47,3.7,3.86,6.33,7.56,5.85,1.79-.23,3.39-1.14,4.49-2.57s1.59-3.2,1.36-4.99c-.23-1.79-1.14-3.39-2.57-4.49-1.2-.93-2.63-1.42-4.12-1.42Z"/>
    </g>
    <g>
      <line class="st1" x1="425.54" y1="94.61" x2="446.8" y2="77.06"/>
      <rect class="st19" x="422.4" y="85.35" width="27.57" height="1" transform="translate(45.12 297.26) rotate(-39.53)"/>
    </g>
    <g>
      <line class="st1" x1="423.89" y1="105.95" x2="444.88" y2="100.8"/>
      <rect class="st19" x="423.58" y="102.86" width="21.61" height="1" transform="translate(-12.12 106.44) rotate(-13.78)"/>
    </g>
    <g>
      <line class="st1" x1="427.65" y1="115.98" x2="446" y2="124.15"/>
      <rect class="st19" x="436.31" y="110.01" width="1" height="20.09" transform="translate(149.46 470.27) rotate(-66)"/>
    </g>
  </g>
  <g>
    <circle class="st19" cx="213.56" cy="124.58" r="15.83"/>
    <path class="st19" d="M276.44,132.03s4.47-28.23-8.16-41.96c-12.64-13.73-39.02-14.21-51.5,0-13.73,15.64-5.34,45.01-5.34,45.01l65-3.05Z"/>
    <g>
      <g>
        <path class="st7" d="M272.43,136.33c-2.06.45-11.68,16.3.26,15.73,10.97-.52,1.8-16.19-.26-15.73Z"/>
        <path class="st3" d="M272.08,152.58c-4.25,0-5.46-2.19-5.71-4.09-.63-4.76,4.28-12.28,5.95-12.65h0c.61-.13,1.37.36,2.32,1.52,2.3,2.82,4.95,8.65,3.35,12.23-.82,1.84-2.6,2.84-5.28,2.96-.22,0-.43.02-.63.02h0ZM272.53,136.82c-.93.25-5.76,7.1-5.16,11.55.31,2.3,2.05,3.35,5.3,3.19,3.23-.15,4.85-1.7,4.81-4.6-.06-4.55-4-10.1-4.95-10.15h0Z"/>
      </g>
      <g>
        <g>
          <path class="st19" d="M247.21,159.8s3.06,2.71,1.94,5.01c-1.13,2.3-11.29,3.76-18.55-7.31l16.61,2.3Z"/>
          <g>
            <path class="st8" d="M224.47,153.05c-16.98-20.88-10.24-46.26,8.91-52.34,17.54-5.57,47.89,6.18,41.76,37.87-6.4,33.13-38.98,22.27-41.76,20.32"/>
            <path class="st19" d="M248.72,162.65c-7.72,0-14.36-2.45-15.63-3.34l.57-.82c1.79,1.25,14.69,5.7,25.76,1.22,8.01-3.24,13.13-10.39,15.23-21.23,3.03-15.67-3.09-24.98-8.76-30.02-8.42-7.49-22.03-10.55-32.36-7.27-8.25,2.62-14.45,9.04-17.01,17.61-3.29,11.01-.25,23.39,8.34,33.95l-.78.63c-8.8-10.82-11.91-23.53-8.52-34.86,2.66-8.89,9.1-15.55,17.67-18.27,10.82-3.43,24.52-.36,33.32,7.48,5.86,5.22,12.2,14.82,9.08,30.96-2.17,11.2-7.49,18.59-15.83,21.97-3.64,1.47-7.48,2.01-11.08,2.01v-.02Z"/>
          </g>
          <g>
            <path class="st8" d="M218.49,142.05s-11.48,1.67-10.65-9.4c.84-11.07,14.3-6.89,15.56-3.13"/>
            <path class="st19" d="M216.9,142.65c-1.88,0-4.97-.35-7.16-2.4-1.85-1.73-2.66-4.29-2.41-7.63.45-5.9,4.27-7.24,6.51-7.52,4.37-.54,9.24,1.94,10.02,4.27l-.95.32c-.64-1.93-5.18-4.06-8.94-3.59-2.37.29-5.27,1.68-5.64,6.6-.23,3.02.48,5.31,2.09,6.82,2.92,2.73,7.94,2.05,7.99,2.04l.14.99c-.07,0-.71.1-1.65.1h0Z"/>
          </g>
          <g>
            <path class="st8" d="M217.65,136s-2.3-3.97-5.22-5.01"/>
            <path class="st19" d="M217.22,136.25s-2.24-3.82-4.96-4.79l.34-.94c3.06,1.09,5.39,5.06,5.48,5.23l-.87.5h.01Z"/>
          </g>
          <g>
            <path class="st19" d="M252.37,143.84l-.08-1s2.85-.24,3.65-1.74c.37-.7.24-1.61-.39-2.72-.64-1.12-1.44-1.77-2.39-1.91-2.03-.31-4.16,1.65-4.18,1.67l-.68-.73c.1-.09,2.51-2.31,5.01-1.93,1.27.19,2.32,1,3.11,2.41.81,1.43.94,2.67.4,3.69-1.06,1.99-4.31,2.25-4.45,2.27h0Z"/>
            <path class="st19" d="M249.66,150.06l-.78-.63c3.83-4.7,7.79-1.9,7.83-1.88l-.59.81c-.13-.09-3.25-2.25-6.47,1.7h.01Z"/>
            <path class="st6" d="M260.34,134.99c-.99,0-1.77-.33-2.33-.99-1.28-1.51-.85-4.19-.83-4.3l.99.17s-.38,2.33.6,3.49c.37.44.91.66,1.59.64.75,0,1.29-.23,1.66-.68.73-.89.6-2.51.5-3.06l.98-.19c.02.1.47,2.45-.7,3.88-.56.69-1.38,1.04-2.43,1.04h-.03Z"/>
            <path class="st6" d="M243.7,134.71c-.97,0-1.76-.33-2.33-.99-1.35-1.53-1-4.31-.98-4.42l.99.13s-.31,2.44.74,3.63c.38.43.9.65,1.58.65h.02c.75,0,1.29-.23,1.66-.68.73-.89.6-2.51.5-3.06l.98-.19c.02.1.47,2.45-.7,3.88-.56.69-1.38,1.04-2.43,1.04h-.03Z"/>
          </g>
        </g>
        <ellipse class="st11" cx="234.87" cy="139.02" rx="2.82" ry="4.18" transform="translate(47.93 337.88) rotate(-77.39)"/>
        <ellipse class="st11" cx="269.34" cy="139.45" rx="2.82" ry="4.18" transform="translate(125.77 406.62) rotate(-89.12)"/>
        <g>
          <path class="st7" d="M215.07,138.77c-2.06.45-11.68,16.3.26,15.73,10.97-.52,1.8-16.19-.26-15.73Z"/>
          <path class="st3" d="M214.72,155.01c-4.25,0-5.46-2.19-5.71-4.09-.63-4.76,4.28-12.28,5.95-12.65.61-.13,1.37.36,2.31,1.52,2.3,2.82,4.95,8.65,3.35,12.23-.82,1.84-2.6,2.84-5.28,2.96-.22,0-.43.02-.63.02h.01ZM215.17,139.26c-.93.25-5.76,7.1-5.16,11.55.31,2.31,2.05,3.35,5.3,3.2,3.23-.15,4.85-1.7,4.81-4.6-.06-4.55-4-10.1-4.95-10.14h0Z"/>
        </g>
      </g>
      <g>
        <path class="st4" d="M275.53,122.49c0-12.21-.76-32.04-33.57-31.66s-27.85,30.52-27.85,30.52c0,0,35.48-29.37,61.41,1.14h.01Z"/>
        <path class="st19" d="M276.03,123.85l-.88-1.04c-25.32-29.78-60.36-1.37-60.72-1.08l-.67.55-.14-.86c-.02-.13-2.05-13.09,5.58-22.18,4.87-5.8,12.52-8.8,22.76-8.92,12.24-.14,21.25,2.56,26.79,8.04,7.28,7.2,7.28,17.79,7.28,24.12v1.36h0ZM247.46,108.21c9.11,0,18.85,3.23,27.56,12.95-.03-6.25-.48-15.65-6.98-22.08-5.34-5.28-14.14-7.9-26.08-7.75-9.92.12-17.33,3-22,8.56-6.22,7.41-5.76,17.54-5.47,20.52,3.24-2.45,17.15-12.2,32.96-12.2h0Z"/>
      </g>
      <path class="st19" d="M253.4,111.43c-16.78,19.45-38.91,14.5-38.91,14.5,0,0-3.66-25.5,30.52-25.94,29.37-.38,31.28,22.89,31.28,22.89,0,0-11.44.76-22.89-11.44h0Z"/>
      <g>
        <line class="st1" x1="256.3" y1="125.78" x2="262.21" y2="122.96"/>
        <rect class="st19" x="255.98" y="123.88" width="6.55" height="1" transform="translate(-28.29 123.53) rotate(-25.46)"/>
      </g>
      <g>
        <line class="st1" x1="248.41" y1="126.62" x2="241.94" y2="123.24"/>
        <rect class="st19" x="244.68" y="121.3" width="1" height="7.3" transform="translate(20.97 284.5) rotate(-62.44)"/>
      </g>
    </g>
  </g>
  <g>
    <g>
      <path class="st9" d="M185.65,321.54s-3.46,3.95-.49,6.92c1.73,1.73,26.86,5.31,50.42,6.72,16.8,1,31.08.69,36.02-1.28,4.94-1.98-1.48-16.79-1.48-16.79l-84.47,4.45v-.02Z"/>
      <path class="st19" d="M252.53,336.23c-5,0-10.72-.18-16.98-.56-22.68-1.35-48.77-4.88-50.75-6.86-2.61-2.61-.83-6.11.47-7.6l.14-.16h.21l84.81-4.47.14.32c.2.45,4.8,11.17,2.95,15.65-.36.88-.95,1.49-1.74,1.8-3.09,1.23-9.91,1.87-19.26,1.87h0ZM185.9,322.03c-.58.73-2.7,3.76-.39,6.07,1.44,1.44,25.45,5.1,50.1,6.57,17.81,1.06,31.2.59,35.8-1.25.54-.22.93-.63,1.19-1.26,1.52-3.69-2.06-12.74-2.81-14.56l-83.9,4.42h.01Z"/>
    </g>
    <g>
      <path class="st4" d="M270.12,317.09c-3.95-10.87-20.75-37.54-43.96-35.07-23.22,2.47-46.93,16.3-40.5,39.52,6.92,7.41,66.68,7.41,75.58,6.92,8.89-.49,12.84-.49,8.89-11.36h-.01ZM243.94,309.19c-2.96,2.96-37.54,4.94-40.01,0-2.47-4.94,4.45-10.37,4.45-10.37,0,0,3.95-8.89,19.76-5.43,15.81,3.46,18.77,12.84,15.81,15.81h0Z"/>
      <path class="st19" d="M250.22,329.1c-19.83,0-59.13-1.01-64.94-7.22l-.08-.09-.03-.12c-2.18-7.89-1.09-15.12,3.24-21.49,6.63-9.74,21.07-16.89,37.69-18.66,22.78-2.42,40.08,23.29,44.48,35.4h0c1.76,4.84,2.02,7.64.87,9.39-1.43,2.16-4.71,2.34-9.69,2.61l-.51.03c-1.2.07-5.3.15-11.03.15ZM186.1,321.28c6.84,6.82,64.09,7.28,75.1,6.67l.51-.03c4.51-.25,7.76-.43,8.91-2.17.94-1.43.65-4.05-.97-8.5-4.32-11.87-21.26-37.11-43.44-34.74-16.34,1.74-30.5,8.72-36.97,18.23-4.14,6.08-5.19,12.99-3.14,20.53h0ZM220.32,312.68c-4.11,0-7.98-.21-10.88-.68-3.42-.55-5.36-1.4-5.96-2.58-2.49-4.98,3.62-10.2,4.49-10.92.55-1.11,5.04-8.94,20.27-5.6,13.42,2.94,16.35,9.58,16.92,11.55.6,2.05.27,3.96-.87,5.1h0c-1.82,1.82-13.66,3.13-23.97,3.13ZM221.26,293.08c-9.61,0-12.3,5.66-12.43,5.95l-.05.11-.1.08c-.07.05-6.57,5.24-4.31,9.76.24.49,1.25,1.4,5.22,2.04,10.46,1.7,31.82-.01,33.99-2.17.88-.88,1.11-2.42.62-4.11-1.11-3.78-5.94-8.61-16.18-10.85-2.57-.56-4.81-.8-6.77-.8h.01Z"/>
    </g>
    <g>
      <path class="st8" d="M208.49,265.85c5.3,0,33.79.33,38.76,9.94s4.31,22.2-2.32,24.52c-6.63,2.32-6.96,0-6.96,0,0,0-2.98,5.96-9.28,3.31,0,0-6.96,5.3-11.26,2.65,0,0-7.29,4.97-12.59-2.98l3.97-5.64s-2.98-5.62-7.61-5.62-11.6,1.99-14.25-7.62"/>
      <path class="st19" d="M212.29,308.3c-.52,0-1.06-.05-1.62-.15-2.43-.47-4.53-2.02-6.24-4.59l-.19-.29,3.98-5.66c-.64-1.08-3.3-5.09-7.02-5.09-.64,0-1.33.04-2.05.08-4.34.25-10.29.58-12.68-8.07l.96-.27c2.17,7.87,7.21,7.58,11.66,7.33.74-.04,1.44-.08,2.1-.08,4.88,0,7.93,5.65,8.06,5.89l.14.27-3.95,5.61c1.52,2.17,3.34,3.47,5.41,3.88,3.36.66,6.26-1.29,6.29-1.31l.27-.18.28.17c3.96,2.44,10.63-2.57,10.7-2.62l.23-.18.27.11c5.8,2.44,8.52-2.85,8.64-3.08l.72-1.43.23,1.58h0s.06.18.37.35c.56.3,2.08.6,5.93-.75,1.82-.64,3.25-2.18,4.16-4.45,2.02-5.08,1.15-13.04-2.12-19.36-4.76-9.2-32.75-9.67-38.32-9.67v-1c7.96,0,34.31.74,39.21,10.21,3.39,6.56,4.28,14.86,2.16,20.19-1.02,2.55-2.66,4.29-4.76,5.03-3.31,1.16-5.61,1.37-6.84.62-.1-.06-.18-.12-.26-.18-1.06,1.54-4.1,4.97-9.23,2.97-1.26.91-7.19,4.88-11.32,2.67-.71.42-2.7,1.45-5.16,1.45h0Z"/>
    </g>
    <path class="st19" d="M238.41,300.56l-.85-.52c3.5-5.72.3-19.69.27-19.83l.97-.23c.14.59,3.32,14.52-.39,20.58Z"/>
    <path class="st19" d="M217.83,306.57l-.79-.62c7.03-8.95,2.94-21.94,2.9-22.07l.95-.31c.04.13,4.3,13.61-3.06,22.99h0Z"/>
    <path class="st19" d="M229.13,303.87l-.85-.52c3.5-5.73.63-21.69.6-21.85l.98-.18c.12.67,2.97,16.49-.73,22.55Z"/>
    <g>
      <ellipse class="st9" cx="228.63" cy="312.65" rx="9.88" ry="2.96"/>
      <path class="st19" d="M228.63,316.11c-5.16,0-10.38-1.19-10.38-3.46s5.22-3.46,10.38-3.46,10.38,1.19,10.38,3.46-5.22,3.46-10.38,3.46ZM228.63,310.18c-5.81,0-9.38,1.43-9.38,2.46s3.57,2.46,9.38,2.46,9.38-1.43,9.38-2.46-3.57-2.46-9.38-2.46Z"/>
    </g>
  </g>
  <g>
    <g>
      <path class="st8" d="M287.27,221.23c13.22,31.3,20.82,54.31,20.82,54.31,0,0,15.67,17.32,17.18,25.22,2.29,12.03-3.12,11.74-3.12,11.74-1.77,7.68-5.31,5.65-5.31,5.65-1.15,5.51-7.81,2.17-7.81,2.17-6.25,6.96-9.06-3.04-10.62-5.65s-7.5-10-7.5-10c0,0,4.37,4.78.62,8.7-3.75,3.91-10.93-5.22-12.81-13.04-1.87-7.83,3.44-17.83,3.44-17.83-.31-10.87-19.3-44.19-19.3-44.19,0,0,5.44-6.38,11.26-10.14,5.82-3.75,13.14-6.95,13.14-6.95h0Z"/>
      <path class="st19" d="M304.94,323.24c-.17,0-.34-.01-.51-.04-2.76-.41-4.41-3.98-5.62-6.58-.32-.7-.6-1.3-.84-1.7-.8-1.34-2.8-3.99-4.53-6.22.28,1.57.03,3.36-1.55,5.01-.94.98-2.16,1.31-3.51.94-4.13-1.12-8.76-8.43-10.14-14.22-1.81-7.54,2.79-16.84,3.42-18.06-.45-10.76-19.04-43.5-19.23-43.83l-.17-.31.23-.27c.05-.06,5.56-6.48,11.37-10.23,5.79-3.73,13.14-6.95,13.21-6.98l.46-.2.2.47c12.64,29.92,20.24,52.56,20.8,54.25,1.29,1.43,15.75,17.63,17.23,25.38,1.03,5.39.68,9.1-1.01,11.05-.79.91-1.68,1.18-2.2,1.25-.76,3.09-1.93,5-3.46,5.67-.76.33-1.44.28-1.9.17-.37,1.23-1.06,2.09-2.06,2.58-2.13,1.03-4.99-.03-5.97-.46-1.45,1.54-2.86,2.31-4.2,2.31l-.02.02ZM291.68,304.83c1.35,1.69,5.81,7.33,7.15,9.58.27.44.55,1.07.89,1.79,1.05,2.26,2.63,5.68,4.86,6.01,1.21.18,2.58-.57,4.07-2.23l.25-.28.34.17s3.33,1.63,5.44.61c.86-.42,1.41-1.22,1.66-2.44l.14-.67.6.34s.74.39,1.62,0,2.1-1.64,2.95-5.33l.09-.41.42.02s1,.02,1.84-.97c1.01-1.18,1.96-3.9.76-10.18-1.46-7.67-16.9-24.8-17.06-24.97l-.1-.18c-.08-.23-7.67-23.12-20.61-53.81-1.7.76-7.72,3.55-12.61,6.7-5.03,3.24-9.83,8.54-10.92,9.78,2.04,3.6,18.89,33.68,19.19,44.11v.13l-.06.12c-.05.1-5.2,9.93-3.39,17.47,1.44,6.01,6.02,12.56,9.43,13.48,1.01.27,1.83.05,2.52-.67,2.66-2.78.84-6.04-.13-7.39-.32-.4-.51-.64-.52-.65l.76-.65s.17.19.4.5l.02.02Z"/>
    </g>
    <g>
      <path class="st8" d="M285.81,295.1s.21,3.48,5.1,9.56"/>
      <path class="st19" d="M290.52,304.98c-4.94-6.14-5.2-9.7-5.21-9.85l1-.06-.5.03.5-.03s.29,3.43,4.99,9.28l-.78.63Z"/>
    </g>
    <g>
      <path class="st8" d="M314.44,291.63s8.54,13.19,7.7,20.87"/>
      <path class="st19" d="M322.64,312.55l-.99-.11c.8-7.42-7.54-20.41-7.63-20.54l.84-.54c.35.54,8.62,13.43,7.78,21.19Z"/>
    </g>
    <g>
      <path class="st8" d="M299.45,294.67c.31,0,9.79,13.04,9.58,25.65"/>
      <path class="st19" d="M309.52,320.33l-1-.02c.2-12.15-8.61-24.57-9.36-25.24l.28-.32v-.59c.23,0,.37.15.44.21,1.01,1.03,9.84,13.52,9.64,25.94v.02Z"/>
    </g>
    <g>
      <path class="st8" d="M307.67,292.5s9.99,15.07,9.16,25.65"/>
      <path class="st19" d="M317.33,318.19l-1-.08c.81-10.28-8.98-25.19-9.08-25.33l.83-.55c.41.62,10.08,15.34,9.24,25.97h.01Z"/>
    </g>
    <g>
      <path class="st10" d="M305.34,321.36c1.14,2.75,4.01.71,4.1-1.22s-.24-5.89-2.26-5.08c-3.69,1.47-2.69,4.23-1.84,6.3Z"/>
      <path class="st19" d="M306.98,323.19c-.6,0-1.53-.25-2.11-1.65h0c-.64-1.53-1.2-3.15-.57-4.66.42-.99,1.32-1.76,2.68-2.3.73-.29,1.26-.08,1.58.15,1.54,1.1,1.39,4.99,1.37,5.43-.07,1.37-1.28,2.77-2.59,3-.1.02-.22.03-.36.03ZM307.68,315.44c-.09,0-.19.02-.32.07-1.12.45-1.82,1.02-2.13,1.76-.48,1.15.02,2.55.57,3.88h0c.32.77.79,1.12,1.37,1.01.86-.15,1.72-1.15,1.77-2.07.09-1.85-.24-4.06-.95-4.57-.07-.05-.17-.1-.3-.1v.02Z"/>
    </g>
    <g>
      <path class="st10" d="M289.8,313.7c1.84,1.87,3.87-1.62,3.39-3.43-.48-1.82-1.93-5.25-3.55-3.37-2.95,3.43-1.23,5.39.16,6.8h0Z"/>
      <path class="st19" d="M290.92,314.74c-.52,0-1.03-.23-1.47-.68h0c-1.23-1.25-3.53-3.58-.18-7.48.63-.74,1.25-.78,1.66-.68,1.69.39,2.65,3.86,2.75,4.25.38,1.45-.51,3.59-1.8,4.33-.31.18-.64.27-.96.27h0ZM290.16,313.35c.54.54.95.4,1.22.25.88-.5,1.59-2.21,1.33-3.2-.42-1.6-1.29-3.36-2.01-3.53-.08-.02-.31-.07-.68.36-2.75,3.2-1.08,4.89.14,6.12h0Z"/>
    </g>
    <g>
      <path class="st10" d="M313.25,320.49c1.14,2.75,4.01.71,4.1-1.22s-.24-5.89-2.26-5.08c-3.69,1.47-2.69,4.23-1.84,6.3Z"/>
      <path class="st19" d="M314.89,322.32c-.6,0-1.53-.25-2.11-1.65h0c-.64-1.53-1.2-3.16-.57-4.66.42-.99,1.32-1.76,2.68-2.3.73-.29,1.26-.08,1.58.14,1.54,1.1,1.39,4.99,1.37,5.43-.07,1.37-1.28,2.77-2.59,3-.1.02-.22.03-.36.03h0ZM313.71,320.3c.32.77.78,1.11,1.38,1.01.86-.15,1.72-1.15,1.76-2.07.09-1.85-.24-4.06-.95-4.57-.12-.08-.29-.16-.63-.03-1.12.45-1.82,1.02-2.13,1.76-.48,1.15.02,2.55.57,3.89h0Z"/>
    </g>
    <g>
      <path class="st10" d="M318.87,315.27c1.14,2.75,4.01.71,4.1-1.22s-.24-5.89-2.26-5.08c-3.69,1.47-2.69,4.23-1.84,6.3Z"/>
      <path class="st19" d="M320.52,317.11c-.6,0-1.53-.25-2.11-1.65h0c-.64-1.53-1.2-3.15-.57-4.66.42-.99,1.32-1.76,2.68-2.3.73-.29,1.26-.08,1.58.14,1.53,1.1,1.39,4.99,1.37,5.43-.07,1.37-1.28,2.77-2.59,3-.1.02-.22.03-.36.03h0ZM321.22,309.36c-.09,0-.19.02-.32.07-1.12.45-1.82,1.02-2.13,1.76-.48,1.15.02,2.55.57,3.88h0c.32.77.79,1.12,1.37,1.01.86-.15,1.72-1.15,1.77-2.07.09-1.85-.24-4.06-.95-4.57-.07-.05-.17-.1-.3-.1v.02Z"/>
    </g>
    <g>
      <path class="st10" d="M323.43,309.5c.82,1.99,2.9.51,2.96-.88.07-1.39-.17-4.26-1.64-3.67-2.67,1.06-1.95,3.06-1.33,4.56h.01Z"/>
      <path class="st19" d="M324.61,310.97c-.71,0-1.31-.46-1.64-1.28-.35-.84-.93-2.24-.41-3.47.32-.75.99-1.33,2.01-1.74.59-.23,1.02-.06,1.27.12,1.17.83,1.06,3.72,1.05,4.04-.05,1.05-.98,2.12-1.99,2.3-.1.02-.2.03-.29.03h0ZM325.13,305.37s-.11.01-.18.04c-.77.31-1.25.7-1.46,1.2-.33.78.02,1.76.41,2.7h0c.31.74.71.67.84.65.56-.1,1.13-.77,1.16-1.36.06-1.27-.16-2.85-.63-3.18-.03-.02-.07-.05-.14-.05h0Z"/>
    </g>
  </g>
</svg>