<?xml version="1.0" encoding="UTF-8"?>
<svg id="Layer_1" xmlns="http://www.w3.org/2000/svg" version="1.1" viewBox="0 0 344.9 390.52">
  <!-- Generator: Adobe Illustrator 29.8.2, SVG Export Plug-In . SVG Version: 2.1.1 Build 3)  -->
  <defs>
    <style>
      .st0 {
        fill: #0c0907;
      }

      .st1 {
        fill: #dde069;
      }

      .st2 {
        fill: #271911;
      }

      .st3 {
        fill: #cdd5af;
      }

      .st4 {
        fill: #e2e2e2;
      }

      .st5 {
        fill: #b17a50;
      }

      .st6 {
        fill: #896142;
      }

      .st7 {
        fill: #f26a3b;
      }

      .st8 {
        fill: #d887b9;
      }

      .st9 {
        fill: #ffca72;
      }

      .st10 {
        fill: #fdf6e3;
      }

      .st11 {
        fill: #0e0c0b;
      }
    </style>
  </defs>
  <g>
    <ellipse class="st3" cx="167.55" cy="189.01" rx="133.59" ry="143.59"/>
    <path class="st11" d="M167.55,333.11c-73.94,0-134.09-64.64-134.09-144.09S93.61,44.92,167.55,44.92s134.09,64.64,134.09,144.09-60.15,144.09-134.09,144.09ZM167.55,45.92c-73.39,0-133.09,64.19-133.09,143.09s59.7,143.09,133.09,143.09,133.09-64.19,133.09-143.09S240.94,45.92,167.55,45.92Z"/>
  </g>
  <g>
    <path class="st1" d="M294.29,90.33l-.72,14.02c-.72,13.88,7.59,26.65,20.57,31.62l13.11,5.02c5.13,1.96,4.75,9.35-.56,10.77l-13.56,3.64c-13.43,3.61-23,15.45-23.72,29.33l-.72,14.02c-.28,5.49-7.42,7.4-10.42,2.8l-7.66-11.77c-7.58-11.65-21.8-17.1-35.23-13.49l-13.56,3.64c-5.3,1.43-9.33-4.77-5.88-9.04l8.83-10.92c8.74-10.81,9.53-26.02,1.95-37.67l-7.66-11.77c-3-4.6,1.65-10.35,6.78-8.39l13.11,5.02c12.98,4.97,27.69,1.02,36.43-9.79l8.83-10.92c3.45-4.27,10.36-1.63,10.07,3.86Z"/>
    <path class="st2" d="M282.97,204.65c-2.04,0-3.95-1.01-5.12-2.82l-7.66-11.77c-7.49-11.51-21.42-16.85-34.68-13.28l-13.56,3.64c-2.63.71-5.29-.31-6.77-2.59-1.48-2.28-1.34-5.13.37-7.24l8.83-10.92c8.63-10.67,9.4-25.58,1.92-37.08l-7.66-11.77c-1.48-2.28-1.34-5.13.37-7.24,1.71-2.12,4.46-2.86,7-1.88l13.11,5.02c12.82,4.91,27.23,1.04,35.86-9.64l8.83-10.92c1.71-2.12,4.46-2.86,7-1.88,2.54.97,4.1,3.36,3.96,6.08l-.72,14.02c-.71,13.71,7.43,26.22,20.25,31.13l13.11,5.02c2.54.97,4.1,3.36,3.96,6.08s-1.93,4.93-4.56,5.64l-13.56,3.64c-13.26,3.56-22.64,15.17-23.35,28.88l-.72,14.02c-.14,2.72-1.93,4.93-4.56,5.64-.55.15-1.11.22-1.66.22ZM243.76,174.69c10.83,0,21.14,5.41,27.27,14.83l7.66,11.77c1.24,1.91,3.47,2.77,5.68,2.17,2.2-.59,3.7-2.45,3.82-4.73l.72-14.02c.73-14.14,10.41-26.11,24.09-29.79l13.56-3.64c2.2-.59,3.7-2.45,3.82-4.73.12-2.28-1.18-4.28-3.31-5.1l-13.11-5.02c-13.23-5.07-21.62-17.97-20.89-32.11l.72-14.02c.12-2.28-1.18-4.28-3.31-5.1-2.13-.82-4.44-.2-5.87,1.58l-8.83,10.92c-8.91,11.01-23.77,15.01-37,9.94l-13.11-5.02c-2.13-.82-4.44-.2-5.87,1.58-1.44,1.77-1.56,4.16-.31,6.07l7.66,11.77c7.72,11.87,6.93,27.25-1.98,38.26l-8.83,10.92c-1.43,1.77-1.56,4.16-.31,6.07s3.47,2.77,5.68,2.17l13.56-3.64c2.83-.76,5.68-1.13,8.51-1.13Z"/>
  </g>
  <g>
    <g>
      <polygon class="st10" points="268.97 220.44 93.81 244.6 63.74 48.16 238.9 24 268.97 220.44"/>
      <path class="st11" d="M93.39,245.16l-.07-.49L63.17,47.74l176.15-24.3.07.49,30.15,196.94-176.15,24.3ZM64.31,48.59l29.92,195.45,174.17-24.03-29.92-195.45-174.17,24.02Z"/>
    </g>
    <g>
      <rect class="st10" x="103.02" y="83.04" width="25.34" height="25.34" transform="translate(-11.99 16.71) rotate(-7.85)"/>
      <path class="st11" d="M104.45,110.56l-3.6-26.09,26.09-3.6,3.6,26.09-26.09,3.6ZM101.97,85.32l3.33,24.11,24.11-3.33-3.33-24.11-24.11,3.33Z"/>
    </g>
    <g>
      <rect class="st10" x="108.56" y="123.21" width="25.34" height="25.34" transform="translate(-17.43 17.84) rotate(-7.85)"/>
      <path class="st11" d="M109.99,150.72l-3.6-26.09,26.09-3.6,3.6,26.09-26.09,3.6ZM107.51,125.48l3.33,24.11,24.11-3.33-3.33-24.11-24.11,3.33Z"/>
    </g>
    <g>
      <rect class="st10" x="114.1" y="163.37" width="25.34" height="25.34" transform="translate(-22.87 18.97) rotate(-7.85)"/>
      <path class="st11" d="M115.53,190.89l-3.6-26.09,26.09-3.6,3.6,26.09-26.09,3.6ZM113.05,165.65l3.33,24.11,24.11-3.33-3.33-24.11-24.11,3.33Z"/>
    </g>
    <g>
      <line class="st10" x1="90.71" y1="75.28" x2="142.3" y2="111.37"/>
      <rect class="st11" x="116" y="61.85" width="1" height="62.96" transform="translate(-26.75 135.3) rotate(-55.03)"/>
    </g>
    <g>
      <line class="st10" x1="96.59" y1="109.72" x2="124.64" y2="74.01"/>
      <rect class="st11" x="87.91" y="91.36" width="45.4" height="1" transform="translate(-29.97 122.03) rotate(-51.82)"/>
    </g>
    <g>
      <line class="st10" x1="96.71" y1="118.79" x2="148.3" y2="154.88"/>
      <rect class="st11" x="122" y="105.36" width="1" height="62.96" transform="translate(-59.84 158.79) rotate(-55.03)"/>
    </g>
    <g>
      <line class="st10" x1="102.59" y1="153.23" x2="130.64" y2="117.52"/>
      <rect class="st11" x="93.92" y="134.88" width="45.4" height="1" transform="translate(-61.88 143.37) rotate(-51.82)"/>
    </g>
    <g>
      <line class="st10" x1="102.56" y1="161.19" x2="154.15" y2="197.28"/>
      <rect class="st11" x="127.85" y="147.75" width="1" height="62.96" transform="translate(-92.09 181.68) rotate(-55.03)"/>
    </g>
    <g>
      <line class="st10" x1="108.44" y1="195.62" x2="136.49" y2="159.92"/>
      <rect class="st11" x="99.76" y="177.27" width="45.4" height="1" transform="translate(-92.98 164.15) rotate(-51.82)"/>
    </g>
    <g>
      <path d="M155.56,81.71c.16-.02.3.01.41.1.11.09.17.21.19.36l1.67,12.12c.03.19-.01.35-.12.47s-.23.2-.38.22c-.09.01-.18,0-.26-.01-.09-.02-.16-.06-.22-.12l-10.02-10.2.3-.23,1.55,11.24c.02.14-.01.27-.1.38-.09.12-.21.18-.36.2-.16.02-.3,0-.41-.1-.11-.09-.17-.2-.19-.34l-1.68-12.18c-.02-.18,0-.32.1-.44.09-.12.22-.19.37-.21.08-.01.16,0,.25.01.09.02.17.06.23.13l9.91,10.1-.14.37-1.55-11.27c-.02-.15.01-.28.1-.4.09-.11.21-.18.36-.2Z"/>
      <path d="M160.22,81.07l6.93-.96c.16-.02.31.01.44.1.13.09.2.22.23.38s-.02.3-.12.42c-.1.12-.23.19-.4.21l-6.5.9.15-.35.73,5.32-.24-.22,5.67-.78c.17-.02.31.02.44.11.13.1.2.22.22.38.02.16-.01.3-.12.42-.1.12-.23.19-.4.21l-5.63.78.14-.21.75,5.46-.11-.1,6.4-.88c.16-.02.31.02.44.11.13.1.2.22.22.37.02.16-.02.3-.12.42-.1.12-.23.19-.4.21l-6.93.96c-.16.02-.31-.02-.43-.11-.12-.1-.19-.23-.22-.38l-1.67-12.12c-.02-.15.01-.29.1-.42.09-.13.22-.2.38-.23Z"/>
      <path d="M178.22,92.3c-.99.14-1.92.09-2.79-.14s-1.66-.6-2.37-1.13c-.7-.53-1.28-1.18-1.74-1.97-.46-.79-.75-1.67-.89-2.64s-.09-1.9.14-2.78c.23-.88.61-1.67,1.14-2.37.53-.7,1.19-1.27,1.97-1.73.78-.46,1.66-.75,2.65-.89.67-.09,1.32-.1,1.96-.03s1.24.23,1.78.48c.1.05.17.11.23.19.06.08.09.16.1.27.02.16-.02.31-.12.43-.11.12-.22.19-.35.21-.06,0-.12,0-.17,0s-.11-.03-.18-.04c-.46-.17-.96-.29-1.48-.37-.53-.08-1.07-.07-1.62,0-1.09.15-2.02.53-2.8,1.15-.78.62-1.35,1.38-1.71,2.3-.36.92-.47,1.92-.32,3.01.15,1.09.52,2.03,1.12,2.82.6.79,1.35,1.38,2.27,1.75.92.38,1.92.49,3,.34.57-.08,1.13-.24,1.68-.48.55-.24,1.02-.53,1.4-.87l-.04.41-.6-4.36.32.23-3.28.45c-.17.02-.31-.02-.44-.11s-.2-.22-.23-.37c-.02-.18.01-.32.11-.44.1-.12.23-.19.4-.21l3.6-.5c.18-.02.33.01.45.1.12.09.19.22.22.39l.63,4.57c.01.1,0,.2-.04.29s-.1.18-.18.26c-.52.46-1.1.84-1.76,1.16-.66.32-1.35.52-2.09.63Z"/>
      <path d="M188.22,78.72l-3.03,12.06c-.03.13-.09.24-.17.31s-.18.12-.29.14c-.19.03-.33,0-.44-.08-.1-.08-.16-.19-.18-.33-.02-.06-.03-.14-.01-.23l3.31-12.93c.03-.15.09-.25.18-.32.09-.07.19-.11.32-.13.14-.02.26,0,.36.06s.19.14.26.24l6.66,11.5c.03.07.06.15.07.22.02.18-.01.32-.12.43-.1.11-.23.18-.38.2-.13.02-.24,0-.35-.06-.1-.06-.19-.14-.25-.24l-6.31-10.87.35.05ZM185.81,87.16l.32-1.18,5.87-.81.38,1.09-6.57.91Z"/>
      <path d="M201.22,75.42c.93-.13,1.77-.06,2.52.19.74.26,1.39.67,1.94,1.23.55.56.99,1.22,1.32,1.99.33.77.56,1.58.68,2.46.17,1.21.12,2.35-.14,3.41-.26,1.06-.75,1.95-1.49,2.66-.73.71-1.73,1.15-2.99,1.33l-4.83.67c-.16.02-.31-.01-.43-.11-.12-.1-.19-.23-.22-.38l-1.67-12.12c-.02-.15.01-.29.1-.42.09-.13.22-.2.38-.23l4.83-.67ZM202.71,87.59c1.06-.15,1.89-.51,2.48-1.09.6-.58.99-1.32,1.18-2.2.19-.88.22-1.83.08-2.84-.1-.72-.28-1.4-.54-2.05-.26-.65-.61-1.2-1.04-1.66-.43-.46-.95-.8-1.57-1.02-.62-.22-1.32-.27-2.12-.16l-4.15.57.11-.17,1.57,11.37-.14-.17,4.13-.57Z"/>
      <path d="M222.18,79.28c.14,1,.11,1.93-.09,2.8-.2.87-.54,1.65-1.02,2.34-.48.69-1.09,1.26-1.82,1.7-.73.44-1.56.73-2.48.85-.93.13-1.81.08-2.63-.15-.82-.23-1.55-.61-2.21-1.14-.65-.53-1.19-1.19-1.62-1.98-.43-.78-.71-1.67-.85-2.67s-.1-1.93.1-2.8c.2-.87.55-1.65,1.03-2.34.49-.69,1.09-1.26,1.81-1.7.72-.44,1.55-.73,2.49-.85.92-.13,1.79-.08,2.62.15.82.23,1.56.61,2.21,1.14.65.53,1.19,1.19,1.62,1.98.42.79.7,1.68.84,2.67ZM220.97,79.45c-.16-1.12-.51-2.08-1.07-2.87-.56-.79-1.25-1.37-2.08-1.75s-1.75-.49-2.76-.35c-1,.14-1.85.5-2.56,1.09-.71.59-1.22,1.34-1.54,2.25-.32.91-.4,1.93-.24,3.06s.51,2.08,1.06,2.88c.55.79,1.25,1.38,2.09,1.75.84.37,1.76.49,2.76.35,1.01-.14,1.86-.5,2.56-1.09.7-.59,1.21-1.33,1.53-2.25.32-.91.41-1.93.25-3.06Z"/>
    </g>
    <g>
      <path d="M161.41,124.11c.16-.02.3.01.41.1.11.09.17.21.19.36l1.67,12.12c.03.19-.01.35-.12.47s-.23.2-.38.22c-.09.01-.18,0-.26-.01-.09-.02-.16-.06-.22-.12l-10.02-10.2.3-.23,1.55,11.24c.02.14-.01.27-.1.38-.09.12-.21.18-.36.2-.16.02-.3,0-.41-.1-.11-.09-.17-.2-.19-.34l-1.68-12.18c-.02-.18,0-.32.1-.44.09-.12.22-.19.37-.21.08-.01.16,0,.25.01.09.02.17.06.23.13l9.91,10.1-.14.37-1.55-11.27c-.02-.15.01-.28.1-.4.09-.11.21-.18.36-.2Z"/>
      <path d="M166.07,123.47l6.93-.96c.16-.02.31.01.44.1.13.09.2.22.23.38s-.02.3-.12.42c-.1.12-.23.19-.4.21l-6.5.9.15-.35.73,5.32-.24-.22,5.67-.78c.17-.02.31.02.44.11.13.1.2.22.22.38.02.16-.01.3-.12.42-.1.12-.23.19-.4.21l-5.63.78.14-.21.75,5.46-.11-.1,6.4-.88c.16-.02.31.02.44.11.13.1.2.22.22.37.02.16-.02.3-.12.42-.1.12-.23.19-.4.21l-6.93.96c-.16.02-.31-.02-.43-.11-.12-.1-.19-.23-.22-.38l-1.67-12.12c-.02-.15.01-.29.1-.42.09-.13.22-.2.38-.23Z"/>
      <path d="M184.07,134.69c-.99.14-1.92.09-2.79-.14s-1.66-.6-2.37-1.13c-.7-.53-1.28-1.18-1.74-1.97-.46-.79-.75-1.67-.89-2.64s-.09-1.9.14-2.78c.23-.88.61-1.67,1.14-2.37.53-.7,1.19-1.27,1.97-1.73.78-.46,1.66-.75,2.65-.89.67-.09,1.32-.1,1.96-.03s1.24.23,1.78.48c.1.05.17.11.23.19.06.08.09.16.1.27.02.16-.02.31-.12.43-.11.12-.22.19-.35.21-.06,0-.12,0-.17,0s-.11-.03-.18-.04c-.46-.17-.96-.29-1.48-.37-.53-.08-1.07-.07-1.62,0-1.09.15-2.02.53-2.8,1.15-.78.62-1.35,1.38-1.71,2.3-.36.92-.47,1.92-.32,3.01.15,1.09.52,2.03,1.12,2.82.6.79,1.35,1.38,2.27,1.75.92.38,1.92.49,3,.34.57-.08,1.13-.24,1.68-.48.55-.24,1.02-.53,1.4-.87l-.04.41-.6-4.36.32.23-3.28.45c-.17.02-.31-.02-.44-.11s-.2-.22-.23-.37c-.02-.18.01-.32.11-.44.1-.12.23-.19.4-.21l3.6-.5c.18-.02.33.01.45.1.12.09.19.22.22.39l.63,4.57c.01.1,0,.2-.04.29s-.1.18-.18.26c-.52.46-1.1.84-1.76,1.16-.66.32-1.35.52-2.09.63Z"/>
      <path d="M194.07,121.11l-3.03,12.06c-.03.13-.09.24-.17.31s-.18.12-.29.14c-.19.03-.33,0-.44-.08-.1-.08-.16-.19-.18-.33-.02-.06-.03-.14-.01-.23l3.31-12.93c.03-.15.09-.25.18-.32.09-.07.19-.11.32-.13.14-.02.26,0,.36.06s.19.14.26.24l6.66,11.5c.03.07.06.15.07.22.02.18-.01.32-.12.43-.1.11-.23.18-.38.2-.13.02-.24,0-.35-.06-.1-.06-.19-.14-.25-.24l-6.31-10.87.35.05ZM191.66,129.55l.32-1.18,5.87-.81.38,1.09-6.57.91Z"/>
      <path d="M207.07,117.81c.93-.13,1.77-.06,2.52.19.74.26,1.39.67,1.94,1.23.55.56.99,1.22,1.32,1.99.33.77.56,1.58.68,2.46.17,1.21.12,2.35-.14,3.41-.26,1.06-.75,1.95-1.49,2.66-.73.71-1.73,1.15-2.99,1.33l-4.83.67c-.16.02-.31-.01-.43-.11-.12-.1-.19-.23-.22-.38l-1.67-12.12c-.02-.15.01-.29.1-.42.09-.13.22-.2.38-.23l4.83-.67ZM208.55,129.98c1.06-.15,1.89-.51,2.48-1.09.6-.58.99-1.32,1.18-2.2.19-.88.22-1.83.08-2.84-.1-.72-.28-1.4-.54-2.05-.26-.65-.61-1.2-1.04-1.66-.43-.46-.95-.8-1.57-1.02-.62-.22-1.32-.27-2.12-.16l-4.15.57.11-.17,1.57,11.37-.14-.17,4.13-.57Z"/>
      <path d="M228.03,121.68c.14,1,.11,1.93-.09,2.8-.2.87-.54,1.65-1.02,2.34-.48.69-1.09,1.26-1.82,1.7-.73.44-1.56.73-2.48.85-.93.13-1.81.08-2.63-.15-.82-.23-1.55-.61-2.21-1.14-.65-.53-1.19-1.19-1.62-1.98-.43-.78-.71-1.67-.85-2.67s-.1-1.93.1-2.8c.2-.87.55-1.65,1.03-2.34.49-.69,1.09-1.26,1.81-1.7.72-.44,1.55-.73,2.49-.85.92-.13,1.79-.08,2.62.15.82.23,1.56.61,2.21,1.14.65.53,1.19,1.19,1.62,1.98.42.79.7,1.68.84,2.67ZM226.82,121.85c-.16-1.12-.51-2.08-1.07-2.87-.56-.79-1.25-1.37-2.08-1.75s-1.75-.49-2.76-.35c-1,.14-1.85.5-2.56,1.09-.71.59-1.22,1.34-1.54,2.25-.32.91-.4,1.93-.24,3.06s.51,2.08,1.06,2.88c.55.79,1.25,1.38,2.09,1.75.84.37,1.76.49,2.76.35,1.01-.14,1.86-.5,2.56-1.09.7-.59,1.21-1.33,1.53-2.25.32-.91.41-1.93.25-3.06Z"/>
    </g>
    <g>
      <path d="M167.1,165.39c.16-.02.3.01.41.1.11.09.17.21.19.36l1.67,12.12c.03.19-.01.35-.12.47s-.23.2-.38.22c-.09.01-.18,0-.26-.01s-.16-.06-.22-.12l-10.02-10.2.3-.23,1.55,11.24c.02.14-.01.27-.1.38-.09.12-.21.18-.36.2-.16.02-.3,0-.41-.1-.11-.09-.17-.2-.19-.34l-1.68-12.18c-.02-.18,0-.32.1-.44.09-.12.22-.19.37-.21.08-.01.16,0,.25.01.09.02.17.06.23.13l9.91,10.1-.14.37-1.55-11.27c-.02-.15.01-.28.1-.4.09-.11.21-.18.36-.21Z"/>
      <path d="M171.76,164.75l6.93-.96c.16-.02.31.01.44.1.13.09.2.22.23.38s-.02.3-.12.42c-.1.12-.23.19-.4.21l-6.5.9.15-.35.73,5.32-.24-.22,5.67-.78c.17-.02.31.02.44.11.13.1.2.22.22.38.02.16-.01.3-.12.42-.1.12-.23.19-.4.21l-5.63.78.14-.21.75,5.46-.11-.1,6.4-.88c.16-.02.31.02.44.11.13.1.2.22.22.37.02.16-.02.3-.12.42-.1.12-.23.19-.4.21l-6.93.96c-.16.02-.31-.02-.43-.11-.12-.1-.19-.23-.22-.38l-1.67-12.12c-.02-.15.01-.29.1-.42.09-.13.22-.21.38-.23Z"/>
      <path d="M189.76,175.97c-.99.14-1.92.09-2.79-.14s-1.66-.6-2.37-1.13c-.7-.53-1.28-1.18-1.74-1.97-.46-.79-.75-1.67-.89-2.64s-.09-1.9.14-2.78c.23-.88.61-1.67,1.14-2.37.53-.7,1.19-1.27,1.97-1.73.78-.46,1.66-.75,2.65-.89.67-.09,1.32-.1,1.96-.03.64.07,1.24.23,1.78.48.1.05.17.11.23.19.06.08.09.16.1.26.02.16-.02.31-.12.43-.11.12-.22.19-.35.21-.06,0-.12,0-.17,0s-.11-.03-.18-.04c-.46-.17-.96-.29-1.48-.37-.53-.08-1.07-.07-1.62,0-1.09.15-2.02.53-2.8,1.15-.78.62-1.35,1.38-1.71,2.3-.36.92-.47,1.92-.32,3.01.15,1.09.52,2.03,1.12,2.82.6.79,1.35,1.38,2.27,1.75.92.38,1.92.49,3,.34.57-.08,1.13-.24,1.68-.48.55-.24,1.02-.53,1.4-.87l-.04.41-.6-4.36.32.23-3.28.45c-.17.02-.31-.01-.44-.11-.13-.1-.2-.22-.23-.37-.02-.18.01-.32.11-.44.1-.12.23-.19.4-.21l3.6-.5c.18-.02.33,0,.45.1.12.09.19.22.22.39l.63,4.57c.01.1,0,.2-.04.29s-.1.18-.18.26c-.52.46-1.1.84-1.76,1.16-.66.32-1.35.53-2.09.63Z"/>
      <path d="M199.76,162.39l-3.03,12.06c-.03.13-.09.24-.17.31-.08.08-.18.12-.29.14-.19.03-.33,0-.44-.08-.1-.08-.16-.19-.18-.33-.02-.06-.03-.14-.01-.23l3.31-12.93c.03-.15.09-.25.18-.32.09-.07.19-.11.32-.13.14-.02.26,0,.36.05.1.06.19.14.26.24l6.66,11.5c.03.07.06.14.07.22.02.18-.01.32-.12.43-.1.11-.23.18-.38.2-.13.02-.24,0-.35-.06-.1-.06-.19-.14-.25-.24l-6.31-10.87.35.05ZM197.35,170.83l.32-1.18,5.87-.81.38,1.09-6.57.91Z"/>
      <path d="M212.76,159.09c.93-.13,1.77-.06,2.52.19.74.26,1.39.67,1.94,1.23.55.56.99,1.22,1.32,1.99.33.77.56,1.58.68,2.46.17,1.21.12,2.35-.14,3.41-.26,1.06-.75,1.95-1.49,2.66-.73.71-1.73,1.16-2.99,1.33l-4.83.67c-.16.02-.31-.01-.43-.11-.12-.1-.19-.22-.22-.38l-1.67-12.12c-.02-.15.01-.29.1-.42.09-.13.22-.2.38-.23l4.83-.67ZM214.25,171.26c1.06-.15,1.89-.51,2.48-1.09.6-.58.99-1.32,1.18-2.2.19-.88.22-1.83.08-2.84-.1-.72-.28-1.4-.54-2.05-.26-.65-.61-1.2-1.04-1.66-.43-.46-.95-.8-1.57-1.02-.62-.22-1.32-.27-2.12-.16l-4.15.57.11-.17,1.57,11.37-.14-.17,4.13-.57Z"/>
      <path d="M233.72,162.96c.14,1,.11,1.93-.09,2.8-.2.87-.54,1.65-1.02,2.34-.48.69-1.09,1.26-1.82,1.7-.73.44-1.56.73-2.48.85-.93.13-1.81.08-2.63-.15-.82-.23-1.55-.61-2.21-1.14-.65-.53-1.19-1.19-1.62-1.98-.43-.78-.71-1.67-.85-2.67s-.1-1.93.1-2.8c.2-.87.55-1.65,1.03-2.34.49-.69,1.09-1.26,1.81-1.7.72-.44,1.55-.73,2.49-.85.92-.13,1.79-.08,2.62.15.82.23,1.56.61,2.21,1.14.65.53,1.19,1.19,1.62,1.98.42.79.7,1.68.84,2.67ZM232.51,163.12c-.16-1.12-.51-2.08-1.07-2.87-.56-.79-1.25-1.38-2.08-1.75s-1.75-.49-2.76-.35c-1,.14-1.85.5-2.56,1.09-.71.59-1.22,1.34-1.54,2.25-.32.91-.4,1.93-.24,3.06s.51,2.08,1.06,2.88c.55.79,1.25,1.38,2.09,1.75.84.37,1.76.49,2.76.35,1.01-.14,1.86-.5,2.56-1.09.7-.59,1.21-1.33,1.53-2.25s.41-1.93.25-3.06Z"/>
    </g>
  </g>
  <g>
    <path class="st7" d="M81.59,204.25l8.09,11.48c8.01,11.36,22.42,16.28,35.7,12.18l13.42-4.15c5.25-1.62,9.51,4.42,6.21,8.82l-8.42,11.24c-8.33,11.13-8.55,26.35-.55,37.72l8.09,11.48c3.16,4.49-1.27,10.41-6.47,8.63l-13.29-4.53c-13.16-4.49-27.71,0-36.04,11.14l-8.42,11.24c-3.29,4.4-10.29,2.01-10.21-3.48l.2-14.04c.2-13.9-8.57-26.35-21.73-30.84l-13.29-4.53c-5.2-1.77-5.09-9.16.16-10.78l13.42-4.15c13.28-4.1,22.41-16.29,22.61-30.19l.2-14.04c.08-5.49,7.14-7.67,10.31-3.18Z"/>
    <path class="st0" d="M75.43,322.27c-.68,0-1.36-.11-2.04-.34-2.58-.88-4.22-3.21-4.18-5.93l.2-14.04c.2-13.73-8.4-25.93-21.39-30.36l-13.29-4.53c-2.58-.88-4.22-3.21-4.18-5.93.04-2.72,1.75-5,4.35-5.81l13.42-4.15c13.12-4.05,22.06-16,22.26-29.72l.2-14.04c.04-2.72,1.75-5,4.35-5.81,2.6-.8,5.3.11,6.87,2.34l8.09,11.48c7.91,11.22,22.03,16.04,35.15,11.99l13.42-4.15c2.6-.81,5.3.11,6.87,2.34,1.57,2.23,1.53,5.07-.1,7.25l-8.42,11.24c-8.23,10.99-8.45,25.91-.54,37.13l8.09,11.48c1.57,2.23,1.53,5.07-.11,7.25-1.63,2.18-4.35,3.02-6.93,2.14l-13.29-4.53c-12.99-4.43-27.25-.03-35.48,10.96l-8.42,11.24c-1.2,1.61-3,2.48-4.89,2.48ZM77,202.33c-.52,0-1.05.08-1.57.24-2.18.67-3.61,2.58-3.64,4.87l-.2,14.04c-.21,14.16-9.43,26.48-22.97,30.66l-13.42,4.15c-2.18.67-3.61,2.58-3.64,4.87-.03,2.28,1.34,4.23,3.5,4.97l13.29,4.53c13.4,4.57,22.27,17.16,22.07,31.32l-.2,14.04c-.03,2.28,1.34,4.23,3.5,4.97,2.16.74,4.44.03,5.81-1.79l8.42-11.24c8.49-11.33,23.2-15.88,36.6-11.31l13.29,4.53c2.16.74,4.44.03,5.81-1.79,1.37-1.83,1.4-4.21.09-6.08l-8.09-11.48c-8.16-11.58-7.93-26.97.56-38.31l8.42-11.24c1.37-1.83,1.4-4.21.09-6.08s-3.57-2.63-5.75-1.96l-13.42,4.15c-13.53,4.18-28.1-.79-36.26-12.37l-8.09-11.48c-1-1.42-2.54-2.2-4.18-2.2Z"/>
  </g>
  <g>
    <circle class="st11" cx="267.39" cy="307.79" r="32.89" transform="translate(-49.03 50.67) rotate(-9.92)"/>
    <circle class="st11" cx="149.14" cy="297.65" r="32.89" transform="translate(-49.05 30.15) rotate(-9.92)"/>
    <path class="st11" d="M135.86,290.33s6.5-59.02,39.34-79.62c32.84-20.6,85.98-7.11,103.21,28.2,18.96,38.86-13.95,93.13-13.95,93.13l-128.6-41.71Z"/>
    <g>
      <path class="st4" d="M141.71,304.97c-4.37-.22-32.34,26.27-8.1,31.67,22.27,4.96,12.47-31.45,8.1-31.67Z"/>
      <path class="st2" d="M137.5,337.61c-1.24,0-2.57-.16-4-.48-9.27-2.06-10.59-7.14-10.06-11.03,1.29-9.52,14.94-21.63,18.23-21.63.02,0,.04,0,.06,0,1.32.07,2.55,2.21,3.34,4,3,6.78,5.11,19.67.09,25.79-1.82,2.22-4.39,3.34-7.66,3.34ZM141.64,305.47c-2.58,0-15.95,11.44-17.21,20.76-.69,5.06,2.44,8.4,9.29,9.92,4.83,1.08,8.42.23,10.67-2.52,4.55-5.55,2.79-17.94-.23-24.75-1.18-2.65-2.11-3.39-2.48-3.41-.01,0-.03,0-.04,0Z"/>
    </g>
    <g>
      <g>
        <path class="st5" d="M206.75,367.26c-17.75,2.74-77.88,6.3-72.57-63.6,5.08-66.86,72.33-73.78,104.43-53.02,35.05,22.67,16.54,86.18-1.54,107.27-.08-.91-12.58,6.61-30.33,9.35Z"/>
        <path d="M191.75,368.88c-12.93,0-30.35-2.52-42.71-13.96-11.94-11.05-17.11-28.31-15.36-51.3,2.57-33.79,20.37-49.44,34.85-56.63,21.78-10.8,50.71-9.48,70.35,3.23,10.66,6.9,17.16,17.89,19.3,32.66,3.8,26.18-7.65,60.1-20.73,75.36l-.78.91-.06-.72c-.54.18-1.59.63-2.68,1.1-4.78,2.05-14.72,6.32-27.11,8.24h0c-2.99.46-8.44,1.12-15.07,1.12ZM200.79,240.83c-11.13,0-22.29,2.32-31.81,7.05-14.25,7.07-31.77,22.49-34.3,55.81-1.72,22.67,3.34,39.66,15.04,50.49,18.37,17,48.24,13.93,56.95,12.58l.08.49-.08-.49c12.27-1.9,22.13-6.13,26.87-8.17,2.07-.89,2.91-1.24,3.37-1.26,11.18-13.27,24.36-46.23,20.29-74.31-2.1-14.48-8.44-25.23-18.85-31.96-10.46-6.77-23.99-10.22-37.55-10.22Z"/>
      </g>
      <g>
        <path class="st5" d="M245.83,341.66s22.1,9.64,26.49-13c4.39-22.64-24.89-21.64-29.46-14.8"/>
        <path class="st11" d="M255.95,344.21c-5.43,0-10.04-1.97-10.32-2.09l.4-.92c.1.04,10,4.27,17.59.27,4.22-2.22,6.98-6.56,8.21-12.91,2.02-10.44-3.24-14.96-8.01-16.92-7.63-3.14-18.04-1.25-20.54,2.5l-.83-.55c2.73-4.09,13.52-6.26,21.76-2.87,4.19,1.72,10.88,6.35,8.61,18.04-1.29,6.66-4.23,11.24-8.73,13.6-2.63,1.38-5.48,1.85-8.13,1.85Z"/>
      </g>
      <g>
        <path class="st5" d="M250.82,329.98s6.78-6.69,13.21-7.18"/>
        <path class="st11" d="M251.17,330.33l-.7-.71c.28-.28,6.98-6.83,13.52-7.33l.08,1c-6.17.47-12.83,6.98-12.89,7.04Z"/>
      </g>
      <path class="st11" d="M195.47,348.5c-.05-.09-5.2-8.89-15.94-10.95-10.71-2.06-18.01,5.07-18.09,5.14l-.71-.71c.08-.08,7.74-7.58,18.98-5.42,11.21,2.15,16.57,11.34,16.62,11.44l-.87.5Z"/>
      <path class="st11" d="M195.01,316.4c-.78,0-1.6-.16-2.47-.47-1.82-.67-3.03-1.8-3.61-3.37-1.34-3.69,1.37-8.45,1.49-8.65l.87.5s-2.59,4.56-1.41,7.81c.47,1.28,1.48,2.21,3.01,2.77,1.63.6,3.06.54,4.26-.16,2.74-1.6,3.49-6.03,3.5-6.07l.99.16c-.03.2-.84,4.94-3.98,6.77-.81.47-1.69.71-2.64.71Z"/>
      <path class="st11" d="M161.43,307.09c-.78,0-1.6-.16-2.47-.47-1.79-.66-3.01-1.79-3.61-3.37-1.45-3.79,1.17-8.8,1.28-9.01l.88.47s-2.52,4.82-1.23,8.19c.5,1.29,1.51,2.23,3.02,2.78,1.63.6,3.06.54,4.26-.16,2.74-1.6,3.49-6.03,3.5-6.07l.99.16c-.03.2-.84,4.94-3.98,6.77-.81.47-1.69.71-2.64.71Z"/>
      <path class="st11" d="M170.03,328.05c-2.09,0-4.68-.4-6.32-2.07-1.55-1.57-1.96-3.96-1.23-7.08.72-3.1,2.23-5.21,4.49-6.27,4.53-2.13,10.4.75,10.65.88l-.45.89c-.06-.03-5.69-2.79-9.78-.87-1.96.92-3.29,2.8-3.93,5.58-.64,2.77-.32,4.84.97,6.15,2.69,2.73,8.72,1.48,8.78,1.47l.21.98c-.12.03-1.57.33-3.38.33Z"/>
      <path class="st11" d="M212.34,296.97c-6.58,0-11.77-1.6-15.48-4.79-5.39-4.64-5.57-10.89-5.57-11.16l1-.02c0,.06.18,6.09,5.24,10.43,4.62,3.96,11.73,5.34,21.13,4.09l.13.99c-2.28.3-4.43.45-6.45.45Z"/>
      <path class="st11" d="M168.87,286.1c-.05,0-.1,0-.15,0-5.69-.05-11.2-2.81-16.37-8.22l.72-.69c4.98,5.2,10.25,7.86,15.66,7.91.05,0,.09,0,.14,0,7.59,0,12.85-5.22,12.9-5.27l.71.7c-.23.23-5.61,5.57-13.6,5.57Z"/>
      <ellipse class="st6" cx="214.63" cy="326.61" rx="5.86" ry="8.68" transform="translate(-121.63 525.79) rotate(-87.33)"/>
      <ellipse class="st6" cx="145.35" cy="308.58" rx="5.86" ry="8.68" transform="translate(-189.69 372.59) rotate(-75.59)"/>
      <g>
        <path class="st4" d="M254.35,335.75c-4.37-.22-32.34,26.27-8.1,31.67,22.27,4.96,12.47-31.45,8.1-31.67Z"/>
        <path class="st2" d="M250.14,368.39c-1.24,0-2.57-.16-4-.48-9.27-2.06-10.59-7.14-10.06-11.03,1.29-9.52,14.94-21.63,18.23-21.63.02,0,.04,0,.06,0,1.32.07,2.55,2.21,3.34,4,3,6.78,5.11,19.67.09,25.79-1.82,2.22-4.39,3.34-7.66,3.34ZM254.28,336.25c-2.58,0-15.95,11.44-17.21,20.76-.69,5.06,2.44,8.4,9.29,9.92,4.83,1.08,8.42.23,10.67-2.52,4.55-5.55,2.79-17.94-.23-24.75-1.18-2.65-2.11-3.39-2.48-3.41-.01,0-.03,0-.04,0Z"/>
      </g>
    </g>
    <g>
      <path class="st8" d="M142.16,271.51c6.68-24.46,19.08-63.8,84.61-45.07,65.54,18.73,39.1,76.41,39.1,76.41,0,0-55.01-78.29-123.71-31.34Z"/>
      <path class="st0" d="M265.96,303.85l-.5-.71c-.14-.19-13.97-19.66-35.97-33.15-20.25-12.42-51.79-22.16-87.05,1.94l-1.12.77.36-1.31c3.44-12.61,9.21-33.7,27.55-44.03,13.97-7.87,33.38-8.33,57.68-1.39,20.29,5.8,33.87,15.91,40.38,30.05,10.2,22.17-.85,46.8-.97,47.05l-.36.79ZM186.97,256.1c16.97,0,31.75,6.11,43.06,13.05,19.76,12.12,32.98,29.03,35.71,32.7,1.78-4.37,9.62-25.9.63-45.42-6.38-13.86-19.75-23.79-39.74-29.5-24.04-6.87-43.19-6.43-56.92,1.3-17.36,9.78-23.27,29.56-26.72,42.12,15.61-10.38,30.49-14.25,43.98-14.25Z"/>
    </g>
    <path class="st11" d="M194.29,261.11c22.98,48.18,70.04,50.36,70.04,50.36,0,0,21.31-49.09-46.95-68.7-58.66-16.85-75.22,28.74-75.22,28.74,0,0,22.52,7.8,52.14-10.4Z"/>
  </g>
  <g>
    <g>
      <ellipse class="st9" cx="38.58" cy="202.64" rx="18.52" ry="25.15" transform="translate(-157.4 138.26) rotate(-61.04)"/>
      <path class="st11" d="M44.59,223.39c-4.89,0-10.2-1.34-15.22-4.12-5.97-3.3-10.64-8.13-13.14-13.59-2.53-5.51-2.56-11-.08-15.48,5.08-9.18,19.28-11.07,31.65-4.22,5.97,3.3,10.64,8.13,13.14,13.59,2.53,5.51,2.56,11.01.08,15.48-3.02,5.46-9.26,8.34-16.43,8.34ZM32.55,182.87c-6.8,0-12.7,2.7-15.54,7.83-2.32,4.19-2.27,9.36.12,14.57,2.42,5.26,6.93,9.93,12.72,13.13,11.89,6.58,25.48,4.86,30.29-3.83,2.32-4.19,2.27-9.36-.12-14.57-2.42-5.26-6.93-9.93-12.72-13.13-4.87-2.7-10.03-4-14.76-4Z"/>
    </g>
    <g>
      <ellipse class="st9" cx="38.58" cy="198.64" rx="18.52" ry="25.15" transform="translate(-153.9 136.2) rotate(-61.04)"/>
      <path class="st11" d="M44.59,219.39c-4.89,0-10.2-1.34-15.22-4.12-5.97-3.3-10.64-8.13-13.14-13.59-2.53-5.51-2.56-11-.08-15.48,5.08-9.18,19.28-11.07,31.65-4.22,5.97,3.3,10.64,8.13,13.14,13.59,2.53,5.51,2.56,11.01.08,15.48-3.02,5.46-9.26,8.34-16.43,8.34ZM32.55,178.87c-6.8,0-12.7,2.7-15.54,7.83-2.32,4.19-2.27,9.36.12,14.57,2.42,5.26,6.93,9.93,12.72,13.13,11.89,6.58,25.48,4.86,30.29-3.83,2.32-4.19,2.27-9.36-.12-14.57-2.42-5.26-6.93-9.93-12.72-13.13-4.87-2.7-10.03-4-14.76-4Z"/>
    </g>
    <path d="M37.52,207.15c-1.38,0-2.6-.19-3.67-.56-1.07-.37-2.09-1-3.07-1.88-.21-.17-.37-.37-.47-.59-.11-.22-.16-.44-.16-.67,0-.36.13-.69.4-.97.27-.29.6-.43,1-.43.31,0,.59.11.86.32.73.67,1.49,1.18,2.28,1.52.79.34,1.73.52,2.8.52.76,0,1.47-.12,2.11-.37.64-.25,1.15-.58,1.53-1s.57-.91.57-1.46c-.02-.69-.22-1.25-.6-1.69-.38-.44-.94-.81-1.68-1.12-.74-.31-1.62-.55-2.65-.75-.96-.19-1.82-.44-2.58-.75s-1.41-.69-1.94-1.16c-.53-.47-.93-1.03-1.22-1.68-.29-.65-.43-1.4-.43-2.24,0-1.17.31-2.17.92-3.03.61-.85,1.44-1.5,2.5-1.96s2.24-.69,3.56-.69c1.2,0,2.33.19,3.38.56,1.05.37,1.9.88,2.55,1.51.46.4.69.83.69,1.29,0,.36-.14.69-.42.97-.28.29-.6.43-.96.43-.27,0-.5-.08-.69-.23-.31-.33-.72-.62-1.23-.88-.52-.26-1.07-.47-1.65-.65-.58-.17-1.14-.26-1.68-.26-.86,0-1.6.12-2.21.36-.61.24-1.08.56-1.41.98s-.49.9-.49,1.48c0,.65.19,1.18.56,1.59.37.41.89.75,1.56,1s1.43.49,2.29.7c1.05.23,1.99.49,2.82.77.83.29,1.54.66,2.11,1.1s1.01,1.01,1.32,1.68c.31.67.46,1.5.46,2.5,0,1.15-.33,2.15-.98,3.01s-1.51,1.53-2.57,2.01c-1.06.48-2.24.72-3.54.72ZM39.18,209.24c0,.4-.14.75-.42,1.03-.28.29-.63.43-1.05.43s-.74-.14-1-.43c-.27-.29-.4-.63-.4-1.03v-24.03c0-.4.14-.75.42-1.03s.63-.43,1.05-.43.74.14,1,.43.4.63.4,1.03v24.03Z"/>
  </g>
  <g>
    <g>
      <ellipse class="st9" cx="38.58" cy="168.48" rx="25.15" ry="18.52" transform="translate(-76.76 39.75) rotate(-28.96)"/>
      <path class="st11" d="M32.57,189.23c-7.17,0-13.41-2.88-16.43-8.34h0c-2.48-4.47-2.44-9.97.08-15.48,2.51-5.46,7.17-10.28,13.14-13.59,12.37-6.85,26.57-4.96,31.65,4.22,2.47,4.47,2.44,9.97-.08,15.48-2.51,5.46-7.17,10.28-13.14,13.59-5.02,2.78-10.33,4.12-15.22,4.12ZM44.61,148.71c-4.72,0-9.88,1.3-14.76,4-5.78,3.2-10.3,7.86-12.72,13.13-2.39,5.21-2.44,10.39-.12,14.57h0c4.81,8.69,18.4,10.41,30.29,3.83,5.78-3.2,10.3-7.86,12.72-13.13,2.39-5.21,2.44-10.39.12-14.57-2.84-5.13-8.74-7.83-15.54-7.83Z"/>
    </g>
    <g>
      <ellipse class="st9" cx="38.58" cy="164.48" rx="25.15" ry="18.52" transform="translate(-74.82 39.25) rotate(-28.96)"/>
      <path class="st11" d="M32.57,185.23c-7.17,0-13.41-2.88-16.43-8.34h0c-2.48-4.47-2.44-9.97.08-15.48,2.51-5.46,7.17-10.28,13.14-13.59,12.37-6.85,26.57-4.96,31.65,4.22,2.47,4.47,2.44,9.97-.08,15.48-2.51,5.46-7.17,10.28-13.14,13.59-5.02,2.78-10.33,4.12-15.22,4.12ZM44.61,144.71c-4.72,0-9.88,1.3-14.76,4-5.78,3.2-10.3,7.86-12.72,13.13-2.39,5.21-2.44,10.39-.12,14.57h0c4.81,8.69,18.4,10.41,30.29,3.83,5.78-3.2,10.3-7.86,12.72-13.13,2.39-5.21,2.44-10.39.12-14.57-2.84-5.13-8.74-7.83-15.54-7.83Z"/>
    </g>
    <path d="M37.52,174.99c-1.38,0-2.6-.19-3.67-.56-1.07-.37-2.09-1-3.07-1.88-.21-.17-.37-.37-.47-.59-.11-.22-.16-.44-.16-.67,0-.36.13-.69.4-.97.27-.29.6-.43,1-.43.31,0,.59.11.86.32.73.67,1.49,1.18,2.28,1.52.79.34,1.73.52,2.8.52.76,0,1.47-.12,2.11-.37.64-.25,1.15-.58,1.53-1s.57-.91.57-1.46c-.02-.69-.22-1.25-.6-1.69-.38-.44-.94-.81-1.68-1.12-.74-.31-1.62-.55-2.65-.75-.96-.19-1.82-.44-2.58-.75s-1.41-.69-1.94-1.16c-.53-.47-.93-1.03-1.22-1.68-.29-.65-.43-1.4-.43-2.24,0-1.17.31-2.17.92-3.03.61-.85,1.44-1.5,2.5-1.96s2.24-.69,3.56-.69c1.2,0,2.33.19,3.38.56,1.05.37,1.9.88,2.55,1.51.46.4.69.83.69,1.29,0,.36-.14.69-.42.97-.28.29-.6.43-.96.43-.27,0-.5-.08-.69-.23-.31-.33-.72-.62-1.23-.88-.52-.26-1.07-.47-1.65-.65-.58-.17-1.14-.26-1.68-.26-.86,0-1.6.12-2.21.36-.61.24-1.08.56-1.41.98s-.49.9-.49,1.48c0,.65.19,1.18.56,1.59.37.41.89.75,1.56,1s1.43.49,2.29.7c1.05.23,1.99.49,2.82.77.83.29,1.54.66,2.11,1.1s1.01,1.01,1.32,1.68c.31.67.46,1.5.46,2.5,0,1.15-.33,2.15-.98,3.01s-1.51,1.53-2.57,2.01c-1.06.48-2.24.72-3.54.72ZM39.18,177.09c0,.4-.14.75-.42,1.03-.28.29-.63.43-1.05.43s-.74-.14-1-.43c-.27-.29-.4-.63-.4-1.03v-24.03c0-.4.14-.75.42-1.03s.63-.43,1.05-.43.74.14,1,.43.4.63.4,1.03v24.03Z"/>
  </g>
</svg>