<?xml version="1.0" encoding="UTF-8"?>
<svg id="Layer_1" xmlns="http://www.w3.org/2000/svg" version="1.1" viewBox="0 0 778 539">
  <!-- Generator: Adobe Illustrator 29.8.2, SVG Export Plug-In . SVG Version: 2.1.1 Build 3)  -->
  <defs>
    <style>
      .st0 {
        fill: #231f20;
      }

      .st1 {
        fill: #e65b25;
      }

      .st2 {
        fill: #c6c5c4;
      }

      .st3 {
        fill: #7251a0;
      }

      .st4 {
        fill: #434343;
      }
    </style>
  </defs>
  <g>
    <g>
      <rect class="st4" x="392.51" y="80.53" width="1" height="372.26"/>
      <rect class="st4" x="622.13" y="80.53" width="1" height="372.26"/>
      <rect class="st2" x="736.94" y="80.53" width="1" height="372.26"/>
      <rect class="st2" x="507.32" y="80.53" width="1" height="372.26"/>
      <rect class="st2" x="277.7" y="80.53" width="1" height="372.26"/>
      <g>
        <path class="st1" d="M296.63,275.86h6.95c2.48,0,4.49,2.01,4.49,4.49v268.59h-15.93v-268.59c0-2.48,2.01-4.49,4.49-4.49Z" transform="translate(712.51 112.29) rotate(90)"/>
        <path class="st3" d="M441.86,149.38h6.95c2.48,0,4.49,2.01,4.49,4.49v559.05h-15.93V153.87c0-2.48,2.01-4.49,4.49-4.49Z" transform="translate(876.49 -14.19) rotate(90)"/>
      </g>
      <g>
        <path class="st1" d="M290.41,230.34h6.95c2.48,0,4.49,2.01,4.49,4.49v256.14h-15.93V234.83c0-2.48,2.01-4.49,4.49-4.49Z" transform="translate(654.53 66.77) rotate(90)"/>
        <path class="st3" d="M410.96,128.53h6.95c2.48,0,4.49,2.01,4.49,4.49v497.25h-15.93V133.02c0-2.48,2.01-4.49,4.49-4.49Z" transform="translate(793.84 -35.03) rotate(90)"/>
      </g>
      <g>
        <path class="st1" d="M284.25,184.75h6.95c2.48,0,4.49,2.01,4.49,4.49v243.83h-15.93v-243.83c0-2.48,2.01-4.49,4.49-4.49Z" transform="translate(596.63 21.18) rotate(90)"/>
        <path class="st3" d="M371.76,115.99h6.95c2.48,0,4.49,2.01,4.49,4.49v418.84h-15.93V120.48c0-2.48,2.01-4.49,4.49-4.49Z" transform="translate(702.89 -47.57) rotate(90)"/>
      </g>
      <g>
        <path class="st1" d="M284.25,133h6.95c2.48,0,4.49,2.01,4.49,4.49v243.83h-15.93v-243.83c0-2.48,2.01-4.49,4.49-4.49Z" transform="translate(544.88 -30.56) rotate(90)"/>
        <path class="st3" d="M351.48,84.52h6.95c2.48,0,4.49,2.01,4.49,4.49v378.29h-15.93V89.01c0-2.48,2.01-4.49,4.49-4.49Z" transform="translate(630.86 -79.04) rotate(90)"/>
      </g>
      <g>
        <path class="st1" d="M284.25,81.26h6.95c2.48,0,4.49,2.01,4.49,4.49v243.83h-15.93V85.75c0-2.48,2.01-4.49,4.49-4.49Z" transform="translate(493.14 -82.31) rotate(90)"/>
        <path class="st3" d="M335.26,49h6.95c2.48,0,4.49,2.01,4.49,4.49v345.84h-15.93V53.49c0-2.48,2.01-4.49,4.49-4.49Z" transform="translate(562.89 -114.57) rotate(90)"/>
      </g>
      <g>
        <path class="st1" d="M284.25,29.51h6.95c2.48,0,4.49,2.01,4.49,4.49v243.83h-15.93V34c0-2.48,2.01-4.49,4.49-4.49Z" transform="translate(441.39 -134.06) rotate(90)"/>
        <path class="st3" d="M329.85,2.66h6.95c2.48,0,4.49,2.01,4.49,4.49v335.03h-15.93V7.15c0-2.48,2.01-4.49,4.49-4.49Z" transform="translate(505.74 -160.91) rotate(90)"/>
      </g>
      <g>
        <path class="st1" d="M284.25-22.24h6.95c2.48,0,4.49,2.01,4.49,4.49v243.83h-15.93V-17.75c0-2.48,2.01-4.49,4.49-4.49Z" transform="translate(389.64 -185.81) rotate(90)"/>
        <path class="st3" d="M306.68-25.91h6.95c2.48,0,4.49,2.01,4.49,4.49v288.68h-15.93V-21.42c0-2.48,2.01-4.49,4.49-4.49Z" transform="translate(430.82 -189.48) rotate(90)"/>
      </g>
      <rect class="st4" x="162.34" y="80.53" width="2" height="372.26"/>
    </g>
    <g>
      <path class="st0" d="M67.53,115.34v-13.08h2.33l3.87,8.72h.29l3.85-8.72h2.35v13.08h-1.76v-11.16l.13.04-3.71,8.42h-2.15l-3.73-8.42.14-.04v11.16h-1.61Z"/>
      <path class="st0" d="M85.7,115.59c-.72,0-1.33-.12-1.85-.37-.52-.25-.92-.6-1.2-1.07-.28-.47-.42-1.03-.42-1.68s.15-1.25.46-1.7c.3-.45.75-.8,1.33-1.03.58-.23,1.29-.35,2.11-.35h2.6v1.29h-2.67c-.69,0-1.22.17-1.59.5-.37.33-.56.76-.56,1.29s.18.95.56,1.27c.37.32.9.48,1.59.48.41,0,.79-.07,1.16-.22s.68-.4.92-.75c.24-.35.38-.84.4-1.46l.47.68c-.06.68-.22,1.25-.49,1.71-.27.46-.64.81-1.11,1.05s-1.04.36-1.71.36ZM88.83,115.34v-2.87h-.29v-3.31c0-.66-.17-1.15-.51-1.49-.34-.33-.84-.5-1.5-.5-.37,0-.75,0-1.15.02-.39.01-.77.02-1.13.04-.36.01-.67.03-.93.05v-1.5c.26-.02.54-.04.83-.06.29-.02.59-.03.9-.04.31,0,.61,0,.9,0,.98,0,1.78.12,2.4.35s1.08.61,1.38,1.14c.3.53.45,1.24.45,2.13v6.06h-1.36Z"/>
      <path class="st0" d="M91.63,107.14v-1.36h3.19v1.36h-3.19ZM93.58,104.24c-.38,0-.67-.1-.85-.3s-.28-.46-.28-.77.09-.57.28-.77c.19-.2.47-.3.85-.3s.67.1.85.3c.19.2.28.46.28.77s-.09.57-.28.77c-.19.2-.47.3-.85.3ZM93.1,115.34v-9.57h1.72v9.57h-1.72Z"/>
      <path class="st0" d="M100.57,115.63c-1.25,0-2.22-.27-2.91-.81-.69-.54-1.04-1.27-1.07-2.2h1.61c.02.37.21.72.56,1.05.35.33.95.49,1.8.49.76,0,1.35-.15,1.76-.46.41-.3.61-.68.61-1.12,0-.39-.15-.7-.45-.92-.3-.22-.78-.37-1.45-.44l-1.04-.11c-.91-.1-1.65-.37-2.22-.81-.57-.45-.86-1.08-.86-1.89,0-.61.16-1.13.47-1.57s.74-.77,1.29-1,1.18-.35,1.9-.35c1.08,0,1.95.24,2.62.72.67.48,1.02,1.19,1.04,2.13h-1.61c-.01-.38-.19-.71-.53-.98-.34-.27-.84-.4-1.51-.4s-1.18.14-1.52.41c-.35.27-.52.62-.52,1.04,0,.36.12.65.37.86.24.21.65.35,1.21.41l1.04.11c1.03.11,1.85.39,2.47.85.62.46.93,1.11.93,1.94,0,.6-.17,1.13-.51,1.59-.34.46-.81.82-1.41,1.07-.6.26-1.28.39-2.06.39Z"/>
      <path class="st0" d="M113.68,115.67c-.68,0-1.31-.12-1.88-.38s-1.07-.6-1.5-1.06c-.42-.45-.75-.98-.99-1.58s-.35-1.24-.35-1.94v-.32c0-.68.11-1.32.34-1.92.23-.6.55-1.12.96-1.58.41-.45.9-.81,1.47-1.07s1.2-.39,1.89-.39c.73,0,1.39.15,1.99.46.6.3,1.09.78,1.47,1.42s.6,1.48.65,2.51l-.72-1.15v-6.43h1.72v13.08h-1.36v-4.25h.5c-.05,1.09-.27,1.97-.68,2.64-.41.67-.92,1.16-1.53,1.47s-1.27.46-1.98.46ZM113.91,114.16c.58,0,1.12-.13,1.59-.39.48-.26.86-.64,1.15-1.14s.43-1.08.43-1.75v-.82c0-.66-.15-1.22-.44-1.68-.29-.46-.68-.81-1.16-1.06-.48-.24-1.01-.37-1.59-.37-.63,0-1.19.15-1.68.45-.48.3-.86.72-1.13,1.25-.27.54-.4,1.17-.4,1.9s.14,1.36.41,1.91c.27.54.66.96,1.15,1.25s1.04.44,1.67.44Z"/>
      <path class="st0" d="M125.38,115.67c-.84,0-1.56-.14-2.17-.43-.61-.29-1.1-.67-1.49-1.14-.38-.47-.67-1-.85-1.59-.19-.58-.28-1.18-.28-1.79v-.32c0-.62.09-1.22.28-1.81.18-.58.47-1.11.85-1.59s.87-.85,1.46-1.13c.59-.28,1.29-.42,2.09-.42,1.04,0,1.9.22,2.57.67.67.45,1.18,1.02,1.5,1.73.33.7.49,1.46.49,2.26v.77h-8.49v-1.29h7.24l-.39.7c0-.68-.11-1.27-.32-1.76s-.54-.88-.97-1.16c-.43-.27-.97-.41-1.63-.41s-1.25.16-1.69.47c-.45.31-.78.73-1,1.27-.22.54-.33,1.16-.33,1.86s.11,1.29.33,1.84c.22.54.56.97,1.03,1.29.47.32,1.06.47,1.77.47.75,0,1.36-.17,1.84-.5.47-.33.75-.72.85-1.16h1.61c-.13.66-.39,1.22-.79,1.7s-.89.84-1.49,1.09-1.27.38-2.02.38Z"/>
      <path class="st0" d="M138.98,115.67c-.93,0-1.76-.17-2.48-.5-.72-.33-1.29-.8-1.7-1.4-.41-.6-.62-1.29-.62-2.08,0-.53.1-1,.3-1.42.2-.42.48-.79.84-1.1.36-.31.76-.55,1.22-.72v-.18c-.36-.16-.68-.36-.98-.63-.29-.26-.53-.57-.7-.93-.17-.36-.26-.76-.26-1.22,0-.75.2-1.39.6-1.92.4-.53.93-.93,1.59-1.21.66-.28,1.39-.42,2.18-.42s1.53.14,2.19.42c.66.28,1.19.68,1.59,1.21s.59,1.16.59,1.92c0,.45-.08.86-.25,1.22-.17.36-.4.67-.69.93-.29.26-.62.47-.99.63v.18c.47.17.88.41,1.24.73.36.32.64.69.84,1.11.2.42.3.89.3,1.41,0,.79-.21,1.48-.62,2.08-.41.6-.98,1.06-1.7,1.4-.72.33-1.56.5-2.5.5ZM138.98,114.2c.66,0,1.22-.1,1.68-.31s.82-.51,1.08-.9c.25-.39.38-.84.38-1.37s-.12-.98-.37-1.36c-.25-.38-.6-.68-1.07-.89s-1.03-.31-1.7-.31-1.22.1-1.68.31c-.47.21-.82.5-1.07.89-.24.38-.37.84-.37,1.36s.12.98.37,1.37c.25.39.6.69,1.07.9.47.21,1.03.31,1.68.31ZM138.98,107.69c.81,0,1.46-.18,1.95-.53.49-.35.73-.89.73-1.62s-.25-1.28-.74-1.62-1.14-.51-1.94-.51-1.45.17-1.94.52-.74.88-.74,1.61.25,1.27.74,1.62c.5.35,1.14.53,1.94.53Z"/>
    </g>
    <path class="st0" d="M163.54,474.4c-.98,0-1.81-.17-2.5-.51-.69-.34-1.24-.8-1.67-1.39s-.73-1.26-.92-2.03c-.19-.77-.29-1.59-.29-2.45v-.97c0-1.21.19-2.29.56-3.26.38-.97.96-1.73,1.76-2.3.79-.57,1.81-.85,3.05-.85s2.26.28,3.05.85c.79.57,1.37,1.33,1.75,2.3.38.97.56,2.05.56,3.26v.97c0,.86-.1,1.68-.29,2.45-.19.77-.5,1.45-.92,2.03s-.98,1.05-1.66,1.39c-.68.34-1.51.51-2.49.51ZM163.54,472.82c1.24,0,2.15-.42,2.73-1.26.58-.84.87-2.18.87-4s-.3-3.28-.89-4.1c-.59-.82-1.5-1.24-2.71-1.24s-2.14.41-2.73,1.24c-.59.82-.89,2.18-.89,4.07s.29,3.18.88,4.03c.58.85,1.5,1.27,2.74,1.27Z"/>
    <g>
      <path class="st0" d="M392.1,474.08v-12.22l.79.61h-3.69v-1.47h4.62v13.08h-1.72Z"/>
      <path class="st0" d="M401.91,474.4c-.98,0-1.81-.17-2.5-.51-.69-.34-1.24-.8-1.67-1.39s-.73-1.26-.92-2.03c-.19-.77-.29-1.59-.29-2.45v-.97c0-1.21.19-2.29.56-3.26.38-.97.96-1.73,1.75-2.3.79-.57,1.81-.85,3.05-.85s2.26.28,3.05.85,1.37,1.33,1.75,2.3c.38.97.56,2.05.56,3.26v.97c0,.86-.1,1.68-.29,2.45-.19.77-.5,1.45-.92,2.03s-.98,1.05-1.66,1.39c-.68.34-1.51.51-2.49.51ZM401.91,472.82c1.24,0,2.15-.42,2.73-1.26.58-.84.87-2.18.87-4s-.3-3.28-.89-4.1c-.59-.82-1.5-1.24-2.71-1.24s-2.14.41-2.73,1.24c-.59.82-.89,2.18-.89,4.07s.29,3.18.88,4.03c.58.85,1.5,1.27,2.74,1.27Z"/>
    </g>
    <g>
      <path class="st0" d="M613.28,474.08v-2.15c0-.53.07-.97.22-1.34.15-.37.41-.71.78-1.01.37-.3.87-.6,1.5-.89l2.46-1.13c.6-.27,1.07-.63,1.42-1.07.35-.44.52-1,.52-1.69,0-.84-.23-1.49-.7-1.95-.47-.47-1.12-.7-1.97-.7s-1.49.23-1.97.7c-.48.47-.72,1.12-.72,1.95h-1.68c0-.75.16-1.44.48-2.08.32-.63.8-1.14,1.44-1.51.65-.38,1.46-.56,2.46-.56s1.81.19,2.45.56c.64.38,1.12.87,1.43,1.48.32.61.47,1.27.47,1.99v.25c0,.94-.27,1.74-.81,2.38-.54.64-1.28,1.18-2.2,1.59l-2.45,1.13c-.55.25-.92.5-1.11.75-.19.25-.29.58-.29,1v1.65l-.47-.82h7.49v1.47h-8.74Z"/>
      <path class="st0" d="M628.94,474.4c-.98,0-1.81-.17-2.5-.51-.69-.34-1.24-.8-1.67-1.39s-.73-1.26-.92-2.03c-.19-.77-.29-1.59-.29-2.45v-.97c0-1.21.19-2.29.56-3.26.38-.97.96-1.73,1.75-2.3.79-.57,1.81-.85,3.05-.85s2.26.28,3.05.85,1.37,1.33,1.75,2.3c.38.97.56,2.05.56,3.26v.97c0,.86-.1,1.68-.29,2.45-.19.77-.5,1.45-.92,2.03s-.98,1.05-1.66,1.39c-.68.34-1.51.51-2.49.51ZM628.94,472.82c1.24,0,2.15-.42,2.73-1.26.58-.84.87-2.18.87-4s-.3-3.28-.89-4.1c-.59-.82-1.5-1.24-2.71-1.24s-2.14.41-2.73,1.24c-.59.82-.89,2.18-.89,4.07s.29,3.18.88,4.03c.58.85,1.5,1.27,2.74,1.27Z"/>
    </g>
    <g>
      <path class="st0" d="M505.8,474.08v-12.22l.79.61h-3.69v-1.47h4.62v13.08h-1.72Z"/>
      <path class="st0" d="M514.61,474.4c-1,0-1.85-.21-2.54-.62s-1.22-.95-1.58-1.62-.54-1.38-.54-2.13h1.68c0,.55.12,1.04.37,1.47.24.43.59.77,1.03,1.02.44.25.97.38,1.58.38s1.12-.12,1.57-.37c.45-.24.8-.58,1.05-1.02.25-.44.38-.93.38-1.48s-.12-1.04-.37-1.49c-.24-.44-.59-.79-1.04-1.06-.45-.26-.98-.39-1.58-.39-.44,0-.89.07-1.34.22s-.82.36-1.09.64h-1.58l.66-6.95h6.86v1.47h-5.86l.43-.59-.5,5.07-.47-.16c.35-.35.77-.62,1.26-.82.5-.2,1.06-.3,1.69-.3,1,0,1.85.21,2.53.62s1.2.94,1.55,1.59c.35.65.53,1.33.53,2.03v.25c0,.71-.18,1.38-.54,2.03-.36.65-.89,1.18-1.59,1.59-.7.41-1.55.62-2.55.62Z"/>
    </g>
    <path class="st0" d="M285.96,474.4c-1,0-1.85-.21-2.54-.62-.69-.41-1.22-.95-1.58-1.62-.36-.67-.54-1.38-.54-2.13h1.68c0,.55.12,1.04.37,1.47.24.43.59.77,1.03,1.02s.97.38,1.58.38,1.12-.12,1.57-.37c.45-.24.8-.58,1.05-1.02.25-.44.38-.93.38-1.48s-.12-1.04-.37-1.49c-.25-.44-.59-.79-1.04-1.06s-.98-.39-1.59-.39c-.44,0-.89.07-1.34.22s-.82.36-1.09.64h-1.58l.66-6.95h6.86v1.47h-5.86l.43-.59-.5,5.07-.47-.16c.35-.35.77-.62,1.26-.82.5-.2,1.06-.3,1.69-.3,1,0,1.85.21,2.53.62s1.2.94,1.55,1.59c.35.65.53,1.33.53,2.03v.25c0,.71-.18,1.38-.54,2.03-.36.65-.89,1.18-1.59,1.59s-1.55.62-2.55.62Z"/>
    <g>
      <path class="st0" d="M726.98,474.08v-2.15c0-.53.07-.97.22-1.34.15-.37.41-.71.78-1.01.37-.3.87-.6,1.5-.89l2.46-1.13c.6-.27,1.07-.63,1.42-1.07.35-.44.52-1,.52-1.69,0-.84-.23-1.49-.7-1.95-.47-.47-1.12-.7-1.97-.7s-1.49.23-1.97.7c-.48.47-.72,1.12-.72,1.95h-1.68c0-.75.16-1.44.48-2.08.32-.63.8-1.14,1.44-1.51.65-.38,1.46-.56,2.46-.56s1.81.19,2.45.56c.64.38,1.12.87,1.43,1.48.32.61.47,1.27.47,1.99v.25c0,.94-.27,1.74-.81,2.38-.54.64-1.28,1.18-2.2,1.59l-2.45,1.13c-.55.25-.92.5-1.11.75-.19.25-.29.58-.29,1v1.65l-.47-.82h7.49v1.47h-8.74Z"/>
      <path class="st0" d="M741.63,474.4c-1,0-1.85-.21-2.54-.62s-1.22-.95-1.58-1.62-.54-1.38-.54-2.13h1.68c0,.55.12,1.04.37,1.47.24.43.59.77,1.03,1.02.44.25.97.38,1.58.38s1.12-.12,1.57-.37c.45-.24.8-.58,1.05-1.02.25-.44.38-.93.38-1.48s-.12-1.04-.37-1.49c-.24-.44-.59-.79-1.04-1.06-.45-.26-.98-.39-1.58-.39-.44,0-.89.07-1.34.22s-.82.36-1.09.64h-1.58l.66-6.95h6.86v1.47h-5.86l.43-.59-.5,5.07-.47-.16c.35-.35.77-.62,1.26-.82.5-.2,1.06-.3,1.69-.3,1,0,1.85.21,2.53.62s1.2.94,1.55,1.59c.35.65.53,1.33.53,2.03v.25c0,.71-.18,1.38-.54,2.03-.36.65-.89,1.18-1.59,1.59-.7.41-1.55.62-2.55.62Z"/>
    </g>
    <g>
      <path class="st0" d="M95.09,167.87c-1,0-1.85-.21-2.54-.62-.69-.41-1.22-.95-1.58-1.62-.36-.67-.54-1.38-.54-2.13h1.68c0,.55.12,1.04.37,1.47.24.43.59.77,1.03,1.02s.97.38,1.58.38,1.12-.12,1.57-.37c.45-.24.8-.58,1.05-1.02.25-.44.38-.93.38-1.48s-.12-1.04-.37-1.49c-.25-.44-.59-.79-1.04-1.06s-.98-.39-1.59-.39c-.44,0-.89.07-1.34.22s-.82.36-1.09.64h-1.58l.66-6.95h6.86v1.47h-5.86l.43-.59-.5,5.07-.47-.16c.35-.35.77-.62,1.26-.82.5-.2,1.06-.3,1.69-.3,1,0,1.85.21,2.53.62.68.41,1.2.94,1.55,1.59.35.65.53,1.33.53,2.03v.25c0,.7-.18,1.38-.54,2.03-.36.65-.89,1.18-1.59,1.59-.7.41-1.55.62-2.55.62Z"/>
      <path class="st0" d="M107.54,167.8c-.72,0-1.33-.12-1.85-.37-.52-.25-.92-.6-1.2-1.07-.28-.47-.42-1.03-.42-1.68s.15-1.25.46-1.7c.3-.45.75-.8,1.33-1.03.58-.23,1.29-.35,2.11-.35h2.6v1.29h-2.67c-.69,0-1.22.17-1.59.5-.37.33-.56.76-.56,1.29s.18.95.56,1.27c.37.32.9.48,1.59.48.41,0,.79-.07,1.16-.22s.68-.4.92-.75c.24-.35.38-.84.4-1.46l.47.68c-.06.68-.22,1.25-.49,1.71-.27.46-.64.81-1.11,1.05s-1.04.36-1.71.36ZM110.67,167.54v-2.87h-.29v-3.31c0-.66-.17-1.15-.51-1.49-.34-.33-.84-.5-1.5-.5-.37,0-.75,0-1.15.02-.39.01-.77.02-1.13.04-.36.01-.67.03-.93.05v-1.5c.26-.02.54-.04.83-.06.29-.02.59-.03.9-.04.31,0,.61,0,.9,0,.98,0,1.78.12,2.4.35s1.08.61,1.38,1.14c.3.53.45,1.24.45,2.13v6.06h-1.36Z"/>
      <path class="st0" d="M113.07,159.27v-1.29h6.59v1.29h-6.59ZM118.2,167.65c-.72,0-1.33-.1-1.85-.3-.52-.2-.92-.55-1.2-1.05s-.42-1.17-.42-2.02v-9.21h1.65v9.42c0,.51.14.91.42,1.19.28.28.68.42,1.19.42h1.68v1.54h-1.47Z"/>
      <path class="st0" d="M125.38,167.87c-.84,0-1.56-.14-2.17-.43-.61-.29-1.1-.67-1.49-1.14-.38-.47-.67-1-.85-1.59-.19-.58-.28-1.18-.28-1.79v-.32c0-.62.09-1.22.28-1.81.18-.58.47-1.11.85-1.59s.87-.85,1.46-1.13c.59-.28,1.29-.42,2.09-.42,1.04,0,1.9.22,2.57.67.67.45,1.18,1.02,1.5,1.73.33.7.49,1.46.49,2.26v.77h-8.49v-1.29h7.24l-.39.7c0-.68-.11-1.27-.32-1.76s-.54-.88-.97-1.16c-.43-.27-.97-.41-1.63-.41s-1.25.16-1.69.47c-.45.31-.78.73-1,1.27-.22.54-.33,1.16-.33,1.86s.11,1.29.33,1.84c.22.54.56.97,1.03,1.29.47.32,1.06.47,1.77.47.75,0,1.36-.17,1.84-.5.47-.33.75-.72.85-1.16h1.61c-.13.66-.39,1.22-.79,1.7s-.89.84-1.49,1.09-1.27.38-2.02.38ZM124.4,156.58l1.58-3.55h1.81l-1.99,3.55h-1.4Z"/>
      <path class="st0" d="M138.98,167.87c-.93,0-1.76-.17-2.48-.5-.72-.33-1.29-.8-1.7-1.4-.41-.6-.62-1.29-.62-2.08,0-.53.1-1,.3-1.42.2-.42.48-.79.84-1.1.36-.31.76-.55,1.22-.72v-.18c-.36-.16-.68-.36-.98-.63-.29-.26-.53-.57-.7-.93-.17-.36-.26-.76-.26-1.22,0-.75.2-1.39.6-1.92.4-.53.93-.93,1.59-1.21.66-.28,1.39-.42,2.18-.42s1.53.14,2.19.42c.66.28,1.19.68,1.59,1.21s.59,1.16.59,1.92c0,.45-.08.86-.25,1.22-.17.36-.4.67-.69.93-.29.26-.62.47-.99.63v.18c.47.17.88.41,1.24.73.36.32.64.69.84,1.11.2.42.3.89.3,1.41,0,.79-.21,1.48-.62,2.08-.41.6-.98,1.06-1.7,1.4-.72.33-1.56.5-2.5.5ZM138.98,166.4c.66,0,1.22-.1,1.68-.31s.82-.51,1.08-.9c.25-.39.38-.84.38-1.37s-.12-.98-.37-1.36c-.25-.38-.6-.68-1.07-.89s-1.03-.31-1.7-.31-1.22.1-1.68.31c-.47.21-.82.5-1.07.89-.24.38-.37.84-.37,1.36s.12.98.37,1.37c.25.39.6.69,1.07.9.47.21,1.03.31,1.68.31ZM138.98,159.9c.81,0,1.46-.18,1.95-.53.49-.35.73-.89.73-1.62s-.25-1.28-.74-1.62-1.14-.51-1.94-.51-1.45.17-1.94.52-.74.88-.74,1.61.25,1.27.74,1.62c.5.35,1.14.53,1.94.53Z"/>
    </g>
    <g>
      <path class="st0" d="M95.19,220.07c-.98,0-1.81-.19-2.49-.57-.68-.38-1.2-.89-1.55-1.52-.35-.63-.53-1.32-.53-2.06h1.68c0,.81.26,1.46.78,1.94s1.22.72,2.1.72c.58,0,1.09-.11,1.52-.32.43-.21.76-.52,1-.92.24-.4.36-.87.36-1.41,0-.81-.26-1.47-.78-1.97-.52-.5-1.22-.75-2.09-.75-.37,0-.69.04-.96.13-.27.09-.5.2-.71.33l-.86-1.54,5-3.65-.18-.32h-6.36v-1.47h7.97v2.38l-4.14,3.01-1.25.05c.2-.07.43-.13.67-.18.24-.05.53-.07.87-.07.96,0,1.77.18,2.44.54.67.36,1.18.84,1.53,1.43.35.6.53,1.25.53,1.95v.25c0,.69-.18,1.35-.53,1.96-.35.62-.87,1.11-1.54,1.5-.67.38-1.51.57-2.5.57Z"/>
      <path class="st0" d="M107.79,220c-.72,0-1.33-.12-1.85-.37-.52-.25-.92-.6-1.2-1.07-.28-.47-.42-1.03-.42-1.68s.15-1.25.46-1.7c.3-.45.75-.8,1.33-1.03.58-.23,1.29-.35,2.11-.35h2.6v1.29h-2.67c-.69,0-1.22.17-1.59.5-.37.33-.56.76-.56,1.29s.18.95.56,1.27c.37.32.9.48,1.59.48.41,0,.79-.07,1.16-.22s.68-.4.92-.75c.24-.35.38-.84.4-1.46l.47.68c-.06.68-.22,1.25-.49,1.71-.27.46-.64.81-1.11,1.05s-1.04.36-1.71.36ZM110.92,219.75v-2.87h-.29v-3.31c0-.66-.17-1.15-.51-1.49-.34-.33-.84-.5-1.5-.5-.37,0-.75,0-1.15.02-.39.01-.77.02-1.13.04-.36.01-.67.03-.93.05v-1.5c.26-.02.54-.04.83-.06.29-.02.59-.03.9-.04.31,0,.61,0,.9,0,.98,0,1.78.12,2.4.35s1.08.61,1.38,1.14c.3.53.45,1.24.45,2.13v6.06h-1.36Z"/>
      <path class="st0" d="M113.32,211.47v-1.29h6.59v1.29h-6.59ZM118.45,219.85c-.72,0-1.33-.1-1.85-.3-.52-.2-.92-.55-1.2-1.05s-.42-1.17-.42-2.02v-9.21h1.65v9.42c0,.51.14.91.42,1.19.28.28.68.42,1.19.42h1.68v1.54h-1.47Z"/>
      <path class="st0" d="M125.63,220.07c-.84,0-1.56-.14-2.17-.43-.61-.29-1.1-.67-1.49-1.14-.38-.47-.67-1-.85-1.59-.19-.58-.28-1.18-.28-1.79v-.32c0-.62.09-1.22.28-1.81.18-.58.47-1.11.85-1.59s.87-.85,1.46-1.13c.59-.28,1.29-.42,2.09-.42,1.04,0,1.9.22,2.57.67.67.45,1.18,1.02,1.5,1.73.33.7.49,1.46.49,2.26v.77h-8.49v-1.29h7.24l-.39.7c0-.68-.11-1.27-.32-1.76s-.54-.88-.97-1.16c-.43-.27-.97-.41-1.63-.41s-1.25.16-1.69.47c-.45.31-.78.73-1,1.27-.22.54-.33,1.16-.33,1.86s.11,1.29.33,1.84c.22.54.56.97,1.03,1.29.47.32,1.06.47,1.77.47.75,0,1.36-.17,1.84-.5.47-.33.75-.72.85-1.16h1.61c-.13.66-.39,1.22-.79,1.7s-.89.84-1.49,1.09-1.27.38-2.02.38ZM124.65,208.78l1.58-3.55h1.81l-1.99,3.55h-1.4Z"/>
      <path class="st0" d="M139.19,220.07c-1,0-1.85-.21-2.54-.62-.69-.41-1.22-.95-1.58-1.62-.36-.67-.54-1.38-.54-2.13h1.68c0,.55.12,1.04.37,1.47.24.43.59.77,1.03,1.02s.97.38,1.58.38,1.12-.12,1.57-.37c.45-.24.8-.58,1.05-1.02.25-.44.38-.93.38-1.48s-.12-1.04-.37-1.49c-.25-.44-.59-.79-1.04-1.06s-.98-.39-1.59-.39c-.44,0-.89.07-1.34.22s-.82.36-1.09.64h-1.58l.66-6.95h6.86v1.47h-5.86l.43-.59-.5,5.07-.47-.16c.35-.35.77-.62,1.26-.82.5-.2,1.06-.3,1.69-.3,1,0,1.85.21,2.53.62.68.41,1.2.94,1.55,1.59.35.65.53,1.33.53,2.03v.25c0,.7-.18,1.38-.54,2.03-.36.65-.89,1.18-1.59,1.59-.7.41-1.55.62-2.55.62Z"/>
    </g>
    <g>
      <path class="st0" d="M97.13,271.95v-12.22l.79.61h-3.69v-1.47h4.62v13.08h-1.72Z"/>
      <path class="st0" d="M107.95,272.2c-.72,0-1.33-.12-1.85-.37-.52-.25-.92-.6-1.2-1.07-.28-.47-.42-1.03-.42-1.68s.15-1.25.46-1.7c.3-.45.75-.8,1.33-1.03.58-.23,1.29-.35,2.11-.35h2.6v1.29h-2.67c-.69,0-1.22.17-1.59.5-.37.33-.56.76-.56,1.29s.18.95.56,1.27c.37.32.9.48,1.59.48.41,0,.79-.07,1.16-.22s.68-.4.92-.75c.24-.35.38-.84.4-1.46l.47.68c-.06.68-.22,1.25-.49,1.71-.27.46-.64.81-1.11,1.05-.47.24-1.04.36-1.71.36ZM111.09,271.95v-2.87h-.29v-3.31c0-.66-.17-1.15-.51-1.49-.34-.33-.84-.5-1.5-.5-.37,0-.75,0-1.15.02-.39.01-.77.02-1.13.04-.36.01-.67.03-.93.05v-1.5c.26-.02.54-.04.83-.06.29-.02.59-.03.9-.04.31,0,.61,0,.9,0,.98,0,1.78.12,2.4.35s1.08.61,1.38,1.14c.3.53.45,1.24.45,2.13v6.05h-1.36Z"/>
      <path class="st0" d="M113.49,263.67v-1.29h6.59v1.29h-6.59ZM118.61,272.06c-.72,0-1.33-.1-1.85-.3-.52-.2-.92-.55-1.2-1.05-.28-.5-.42-1.17-.42-2.02v-9.21h1.65v9.42c0,.51.14.91.42,1.19.28.28.68.42,1.19.42h1.68v1.54h-1.47Z"/>
      <path class="st0" d="M125.79,272.27c-.84,0-1.56-.14-2.17-.43-.61-.29-1.1-.67-1.49-1.14-.38-.47-.67-1-.85-1.59-.19-.58-.28-1.18-.28-1.79v-.32c0-.62.09-1.22.28-1.81.18-.58.47-1.11.85-1.59s.87-.85,1.46-1.13c.59-.28,1.29-.42,2.09-.42,1.04,0,1.9.22,2.57.67.67.45,1.18,1.02,1.5,1.73.33.7.49,1.46.49,2.26v.77h-8.49v-1.29h7.24l-.39.7c0-.68-.11-1.27-.32-1.76s-.54-.88-.97-1.16c-.43-.27-.97-.41-1.63-.41s-1.25.16-1.69.47c-.45.31-.78.73-1,1.27-.22.54-.33,1.16-.33,1.86s.11,1.29.33,1.84c.22.54.56.97,1.03,1.29.47.32,1.06.47,1.77.47.75,0,1.36-.17,1.84-.5.47-.33.75-.72.85-1.16h1.61c-.13.66-.39,1.23-.79,1.7-.39.48-.89.84-1.49,1.09-.6.25-1.27.38-2.02.38ZM124.81,260.99l1.58-3.55h1.81l-1.99,3.55h-1.4Z"/>
      <path class="st0" d="M139.05,272.27c-.98,0-1.81-.19-2.49-.57-.68-.38-1.2-.89-1.55-1.52-.35-.63-.53-1.32-.53-2.06h1.68c0,.81.26,1.46.78,1.94s1.22.72,2.1.72c.58,0,1.09-.11,1.52-.32.43-.21.76-.52,1-.92.24-.4.36-.87.36-1.41,0-.81-.26-1.47-.78-1.97-.52-.5-1.22-.75-2.09-.75-.37,0-.69.04-.96.13-.27.09-.5.2-.71.33l-.86-1.54,5-3.65-.18-.32h-6.36v-1.47h7.97v2.38l-4.14,3.01-1.25.05c.2-.07.43-.13.67-.18.24-.05.53-.07.87-.07.96,0,1.77.18,2.44.54.67.36,1.18.84,1.53,1.43.35.6.53,1.25.53,1.95v.25c0,.69-.18,1.35-.53,1.96-.35.62-.87,1.11-1.54,1.5-.67.38-1.51.57-2.5.57Z"/>
    </g>
    <g>
      <path class="st0" d="M84.8,324.15v-12.22l.79.61h-3.69v-1.47h4.62v13.08h-1.72Z"/>
      <path class="st0" d="M88.41,325.23l3.65-15.05h1.61l-3.65,15.05h-1.61Z"/>
      <path class="st0" d="M94.77,324.15v-2.15c0-.53.07-.97.22-1.34s.41-.71.78-1.01.87-.6,1.5-.89l2.45-1.13c.6-.27,1.07-.63,1.42-1.07.35-.44.52-1,.52-1.69,0-.84-.23-1.49-.7-1.95s-1.12-.7-1.97-.7-1.49.23-1.97.7-.72,1.12-.72,1.95h-1.68c0-.75.16-1.44.47-2.08.32-.63.8-1.14,1.44-1.51s1.46-.56,2.45-.56,1.81.19,2.45.56c.64.38,1.12.87,1.43,1.48.32.61.47,1.27.47,1.99v.25c0,.94-.27,1.74-.82,2.38-.54.64-1.27,1.18-2.19,1.59l-2.45,1.13c-.55.25-.92.5-1.11.75-.19.25-.29.58-.29,1v1.65l-.47-.82h7.49v1.47h-8.74Z"/>
      <path class="st0" d="M111.43,324.4c-.72,0-1.33-.12-1.85-.37-.52-.25-.92-.6-1.2-1.07-.28-.47-.42-1.03-.42-1.68s.15-1.25.46-1.7c.3-.45.75-.8,1.33-1.03.58-.23,1.29-.35,2.11-.35h2.6v1.29h-2.67c-.69,0-1.22.17-1.59.5-.37.33-.56.76-.56,1.29s.18.95.56,1.27c.37.32.9.48,1.59.48.41,0,.79-.08,1.16-.22.37-.15.68-.4.92-.75.24-.35.38-.84.4-1.46l.47.68c-.06.68-.22,1.25-.49,1.71-.27.46-.64.81-1.11,1.05-.47.24-1.04.36-1.71.36ZM114.56,324.15v-2.87h-.29v-3.31c0-.66-.17-1.15-.51-1.49-.34-.33-.84-.5-1.5-.5-.37,0-.75,0-1.15.02s-.77.02-1.13.04c-.36.01-.67.03-.93.05v-1.5c.26-.02.54-.04.83-.06.29-.02.59-.03.9-.04s.61,0,.9,0c.98,0,1.78.12,2.4.35.62.23,1.08.61,1.38,1.14.3.53.45,1.24.45,2.13v6.06h-1.36Z"/>
      <path class="st0" d="M116.96,315.88v-1.29h6.59v1.29h-6.59ZM122.08,324.26c-.72,0-1.33-.1-1.85-.3s-.92-.55-1.2-1.05c-.28-.5-.42-1.17-.42-2.02v-9.21h1.65v9.42c0,.51.14.91.42,1.19.28.28.68.42,1.19.42h1.68v1.54h-1.47Z"/>
      <path class="st0" d="M129.27,324.47c-.84,0-1.56-.14-2.17-.43-.61-.29-1.1-.67-1.49-1.14s-.67-1-.85-1.58c-.19-.59-.28-1.18-.28-1.79v-.32c0-.62.09-1.22.28-1.81.18-.58.47-1.11.85-1.59.38-.47.87-.85,1.46-1.13.59-.28,1.29-.42,2.09-.42,1.04,0,1.9.22,2.57.67.67.45,1.18,1.02,1.5,1.73.33.71.49,1.46.49,2.26v.77h-8.49v-1.29h7.24l-.39.7c0-.68-.11-1.27-.32-1.76-.21-.5-.54-.88-.97-1.16-.43-.28-.97-.41-1.63-.41s-1.25.16-1.69.47c-.45.31-.78.73-1,1.27-.22.54-.33,1.16-.33,1.86s.11,1.29.33,1.84c.22.54.56.97,1.03,1.29s1.06.47,1.77.47c.75,0,1.36-.17,1.84-.5.47-.33.75-.72.85-1.17h1.61c-.13.66-.39,1.22-.79,1.7s-.89.84-1.49,1.09-1.27.38-2.02.38ZM128.28,313.19l1.58-3.55h1.81l-1.99,3.55h-1.4Z"/>
      <path class="st0" d="M140.82,324.15v-12.22l.79.61h-3.69v-1.47h4.62v13.08h-1.72Z"/>
    </g>
    <g>
      <path class="st0" d="M85.66,376.35v-12.22l.79.61h-3.69v-1.47h4.62v13.08h-1.72Z"/>
      <path class="st0" d="M89.27,377.43l3.65-15.05h1.61l-3.65,15.05h-1.61Z"/>
      <path class="st0" d="M95.12,373.25v-2.11l5.43-8.19,1.2.95-5.07,7.67.16.32h8.46v1.36h-10.18ZM101.95,376.35v-9.26h1.61v9.26h-1.61Z"/>
      <path class="st0" d="M112.72,376.61c-.72,0-1.33-.12-1.85-.37-.52-.25-.92-.6-1.2-1.07-.28-.47-.42-1.03-.42-1.68s.15-1.25.46-1.7c.3-.45.75-.8,1.33-1.03.58-.23,1.29-.35,2.11-.35h2.6v1.29h-2.67c-.69,0-1.22.17-1.59.5-.37.33-.56.76-.56,1.29s.18.95.56,1.27c.37.32.9.48,1.59.48.41,0,.79-.08,1.16-.22.37-.15.68-.4.92-.75.24-.35.38-.84.4-1.46l.47.68c-.06.68-.22,1.25-.49,1.71-.27.46-.64.81-1.11,1.05-.47.24-1.04.36-1.71.36ZM115.85,376.35v-2.87h-.29v-3.31c0-.66-.17-1.15-.51-1.49-.34-.33-.84-.5-1.5-.5-.37,0-.75,0-1.15.02s-.77.02-1.13.04c-.36.01-.67.03-.93.05v-1.5c.26-.02.54-.04.83-.06.29-.02.59-.03.9-.04s.61,0,.9,0c.98,0,1.78.12,2.4.35.62.23,1.08.61,1.38,1.14.3.53.45,1.24.45,2.13v6.06h-1.36Z"/>
      <path class="st0" d="M125.02,376.35v-12.22l.79.61h-3.69v-1.47h4.62v13.08h-1.72Z"/>
      <path class="st0" d="M128.62,377.43l3.65-15.05h1.61l-3.65,15.05h-1.61Z"/>
      <path class="st0" d="M134.98,376.35v-2.15c0-.53.07-.97.22-1.34s.41-.71.78-1.01.87-.6,1.5-.89l2.45-1.13c.6-.27,1.07-.63,1.42-1.07.35-.44.52-1,.52-1.69,0-.84-.23-1.49-.7-1.95s-1.12-.7-1.97-.7-1.49.23-1.97.7-.72,1.12-.72,1.95h-1.68c0-.75.16-1.44.47-2.08.32-.63.8-1.14,1.44-1.51s1.46-.56,2.45-.56,1.81.19,2.45.56c.64.38,1.12.87,1.43,1.48.32.61.47,1.27.47,1.99v.25c0,.94-.27,1.74-.82,2.38-.54.64-1.27,1.18-2.19,1.59l-2.45,1.13c-.55.25-.92.5-1.11.75-.19.25-.29.58-.29,1v1.65l-.47-.82h7.49v1.47h-8.74Z"/>
    </g>
    <g>
      <path class="st0" d="M88.26,428.56l4.71-13.08h2.97l4.85,13.08h-1.81l-4.39-11.93.86.43h-2.11l.91-.43-4.25,11.93h-1.76ZM91.07,424.65l.59-1.58h5.64l.59,1.58h-6.83Z"/>
      <path class="st0" d="M100.73,420.28v-1.29h6.59v1.29h-6.59ZM105.85,428.66c-.72,0-1.33-.1-1.85-.3s-.92-.55-1.2-1.05c-.28-.5-.42-1.17-.42-2.02v-9.21h1.65v9.42c0,.51.14.91.42,1.19.28.28.68.42,1.19.42h1.68v1.54h-1.47Z"/>
      <path class="st0" d="M113.04,428.88c-.84,0-1.56-.14-2.17-.43-.61-.29-1.1-.67-1.49-1.14s-.67-1-.85-1.58c-.19-.59-.28-1.18-.28-1.79v-.32c0-.62.09-1.22.28-1.81.18-.58.47-1.11.85-1.59.38-.47.87-.85,1.46-1.13.59-.28,1.29-.42,2.09-.42,1.04,0,1.9.22,2.57.67.67.45,1.18,1.02,1.5,1.73.33.71.49,1.46.49,2.26v.77h-8.49v-1.29h7.24l-.39.7c0-.68-.11-1.27-.32-1.76-.21-.5-.54-.88-.97-1.16-.43-.28-.97-.41-1.63-.41s-1.25.16-1.69.47c-.45.31-.78.73-1,1.27-.22.54-.33,1.16-.33,1.86s.11,1.29.33,1.84c.22.54.56.97,1.03,1.29s1.06.47,1.77.47c.75,0,1.36-.17,1.84-.5.47-.33.75-.72.85-1.17h1.61c-.13.66-.39,1.22-.79,1.7s-.89.84-1.49,1.09-1.27.38-2.02.38ZM112.05,417.59l1.58-3.55h1.81l-1.99,3.55h-1.4Z"/>
      <path class="st0" d="M124.59,428.56v-12.22l.79.61h-3.69v-1.47h4.62v13.08h-1.72Z"/>
      <path class="st0" d="M128.19,429.63l3.65-15.05h1.61l-3.65,15.05h-1.61Z"/>
      <path class="st0" d="M134.05,425.46v-2.11l5.43-8.19,1.2.95-5.07,7.67.16.32h8.46v1.36h-10.18ZM140.88,428.56v-9.26h1.61v9.26h-1.61Z"/>
    </g>
    <g>
      <path class="st0" d="M49.49,366.54h-11.64v-3.64c0-.79.1-1.5.31-2.11.21-.61.55-1.1,1.03-1.45.48-.35,1.12-.52,1.92-.52s1.43.17,1.93.52c.51.35.89.83,1.14,1.45.25.62.38,1.32.38,2.11v2.16h4.91v1.47ZM43.37,365.07v-1.95c0-.91-.19-1.61-.56-2.09-.37-.49-.94-.73-1.69-.73s-1.29.24-1.61.73c-.31.48-.47,1.18-.47,2.09v1.95h4.33ZM49.49,360.16l-5.32,3.03-.78-1.15,6.1-3.55v1.67Z"/>
      <path class="st0" d="M49.7,352.92c0,.77-.18,1.47-.54,2.1s-.88,1.13-1.54,1.5c-.67.37-1.48.55-2.44.55s-1.74-.19-2.41-.57c-.67-.38-1.19-.86-1.56-1.45-.37-.59-.55-1.22-.55-1.88,0-.73.17-1.36.51-1.87.34-.51.81-.9,1.41-1.16s1.31-.39,2.13-.39c.15,0,.3,0,.44,0,.14,0,.28.03.43.06v6.21h-1.15v-4.97c-.83,0-1.46.18-1.91.54-.44.36-.67.88-.67,1.55,0,.39.11.77.33,1.15.22.38.57.69,1.06.93s1.13.36,1.93.36c.73,0,1.35-.13,1.84-.38.5-.25.87-.6,1.13-1.04.25-.44.38-.92.38-1.44,0-.41-.06-.8-.18-1.16-.12-.36-.28-.69-.48-.98l.96-.53c.26.38.47.8.64,1.27s.25,1,.25,1.59Z"/>
      <path class="st0" d="M49.49,347.26h-8.62v-1.21l1.24-.12v-.05c-.41-.41-.76-.85-1.04-1.31s-.42-.99-.42-1.58c0-.91.29-1.58.86-2,.57-.42,1.41-.63,2.51-.63h5.46v1.46h-5.27c-.82,0-1.4.13-1.76.38-.36.25-.54.67-.54,1.25,0,.44.11.83.34,1.18.22.35.56.74.99,1.18h6.24v1.46Z"/>
      <path class="st0" d="M49.7,334.26c0,1.09-.39,1.95-1.18,2.6-.79.65-1.89.97-3.33.97-.93,0-1.74-.17-2.42-.52-.68-.35-1.2-.81-1.57-1.38-.37-.57-.55-1.18-.55-1.84,0-.51.09-.94.26-1.3.17-.36.42-.73.74-1.11l-1.47.07h-3.32v-1.47h12.63v1.21l-1.01.12v.05c.33.33.62.72.86,1.17.24.45.36.93.36,1.44ZM48.48,333.94c0-.4-.1-.78-.3-1.14s-.5-.71-.89-1.06h-4.51c-.33.36-.56.7-.7,1.05s-.2.69-.2,1.05c0,.46.14.88.42,1.25.28.37.66.67,1.15.9.49.23,1.07.34,1.73.34,1.03,0,1.84-.21,2.42-.62s.88-1,.88-1.76Z"/>
      <path class="st0" d="M49.7,325.02c0,.47-.1.9-.29,1.29-.2.38-.47.69-.83.91-.36.22-.8.34-1.32.34-.97,0-1.7-.43-2.2-1.28-.5-.85-.85-2.2-1.05-4.04-.35.01-.7.07-1.03.17-.33.1-.6.28-.8.54-.2.26-.3.62-.3,1.08,0,.5.09.96.27,1.4.18.44.39.83.61,1.17l-.99.57c-.18-.26-.35-.57-.52-.92-.17-.36-.31-.74-.43-1.15s-.17-.85-.17-1.31c0-.7.15-1.27.43-1.71.29-.44.7-.77,1.23-.98.53-.21,1.16-.31,1.88-.31h5.29v1.21l-1.03.12v.05c.34.41.64.86.88,1.33.24.47.36.98.36,1.53ZM48.49,324.61c0-.43-.09-.83-.28-1.2-.19-.37-.47-.77-.83-1.18h-2.32c.12.97.27,1.74.45,2.3s.41.97.68,1.21c.27.25.6.37.98.37.47,0,.81-.15,1.02-.44.21-.29.31-.65.31-1.06Z"/>
      <path class="st0" d="M49.7,310.32c0,.77-.18,1.47-.54,2.1s-.88,1.13-1.54,1.5c-.67.37-1.48.55-2.44.55s-1.74-.19-2.41-.57c-.67-.38-1.19-.86-1.56-1.45-.37-.59-.55-1.22-.55-1.88,0-.73.17-1.36.51-1.87.34-.51.81-.9,1.41-1.16s1.31-.39,2.13-.39c.15,0,.3,0,.44,0,.14,0,.28.03.43.06v6.21h-1.15v-4.97c-.83,0-1.46.18-1.91.54-.44.36-.67.88-.67,1.55,0,.39.11.77.33,1.15.22.38.57.69,1.06.93s1.13.36,1.93.36c.73,0,1.35-.13,1.84-.38.5-.25.87-.6,1.13-1.04.25-.44.38-.92.38-1.44,0-.41-.06-.8-.18-1.16-.12-.36-.28-.69-.48-.98l.96-.53c.26.38.47.8.64,1.27s.25,1,.25,1.59Z"/>
      <path class="st0" d="M49.49,304.66h-8.62v-1.21l1.24-.12v-.05c-.4-.38-.75-.79-1.03-1.23s-.43-.93-.43-1.45c0-.66.15-1.18.44-1.55s.7-.65,1.21-.83c-.5-.45-.9-.9-1.2-1.37-.3-.46-.45-.95-.45-1.47,0-.9.29-1.56.86-1.99.57-.43,1.41-.64,2.51-.64h5.46v1.46h-5.27c-.82,0-1.4.13-1.76.39-.36.26-.54.66-.54,1.21,0,.34.11.69.33,1.04s.55.72,1,1.13h6.24v1.46h-5.27c-.82,0-1.4.13-1.76.39-.36.26-.54.67-.54,1.22,0,.65.44,1.37,1.33,2.16h6.24v1.46Z"/>
      <path class="st0" d="M49.7,283.44c0,.63-.11,1.22-.33,1.78-.22.56-.52,1.04-.91,1.43l-.85-.67c.31-.38.54-.77.71-1.18.17-.41.25-.88.25-1.41,0-.57-.13-.99-.4-1.28-.27-.28-.58-.43-.95-.43-.3,0-.54.1-.74.29-.2.2-.36.44-.5.73-.14.29-.26.6-.38.93-.15.43-.33.83-.54,1.22s-.47.71-.78.95c-.31.24-.71.36-1.18.36-.7,0-1.28-.26-1.75-.79-.47-.53-.7-1.26-.7-2.19,0-.53.09-1.03.27-1.49.18-.46.42-.86.7-1.19l.83.67c-.21.31-.38.62-.5.94s-.18.67-.18,1.06c0,.54.12.94.37,1.2.25.25.54.38.87.38.26,0,.48-.08.65-.23.17-.15.32-.37.45-.65.13-.28.25-.59.37-.95.17-.45.35-.88.56-1.29.21-.41.47-.74.8-.99.33-.25.75-.38,1.27-.38.47,0,.9.12,1.29.36.38.24.69.6.93,1.06.24.47.35,1.04.35,1.73Z"/>
      <path class="st0" d="M49.7,275.92c0,.47-.1.9-.29,1.29-.2.38-.47.69-.83.91-.36.22-.8.34-1.32.34-.97,0-1.7-.42-2.2-1.28-.5-.85-.85-2.2-1.05-4.04-.35.01-.7.07-1.03.17s-.6.28-.8.54-.3.62-.3,1.08c0,.5.09.96.27,1.4.18.44.39.83.61,1.17l-.99.57c-.18-.26-.35-.57-.52-.92-.17-.35-.31-.74-.43-1.15-.11-.41-.17-.85-.17-1.31,0-.7.15-1.27.43-1.71.29-.44.7-.77,1.23-.98s1.16-.31,1.88-.31h5.29v1.21l-1.03.12v.05c.34.41.64.86.88,1.33s.36.98.36,1.53ZM48.49,275.52c0-.43-.09-.82-.28-1.2-.19-.37-.47-.77-.83-1.18h-2.32c.12.97.27,1.74.45,2.3.18.56.41.97.68,1.21.27.25.6.37.98.37.47,0,.81-.15,1.02-.44.21-.29.31-.65.31-1.06Z"/>
      <path class="st0" d="M49.65,267.07c0,.37-.07.66-.22.89-.15.23-.37.39-.66.5s-.64.16-1.06.16h-10.85v-1.45h10.96c.24,0,.4-.04.49-.12.09-.08.13-.18.13-.3,0-.05,0-.09,0-.13,0-.04-.02-.1-.03-.17l1.1-.21c.04.11.07.23.1.36.03.14.04.3.04.49Z"/>
      <path class="st0" d="M39.38,261.82l-2.93-2.29v-1.6l.16-.09,2.77,2.8v1.17ZM49.7,261.75c0,.47-.1.9-.29,1.29-.2.38-.47.69-.83.91-.36.22-.8.34-1.32.34-.97,0-1.7-.43-2.2-1.28-.5-.85-.85-2.2-1.05-4.04-.35.01-.7.07-1.03.17s-.6.28-.8.54-.3.62-.3,1.08c0,.5.09.96.27,1.4.18.44.39.83.61,1.17l-.99.57c-.18-.26-.35-.57-.52-.92-.17-.35-.31-.74-.43-1.15-.11-.41-.17-.85-.17-1.31,0-.7.15-1.27.43-1.71.29-.44.7-.77,1.23-.98s1.16-.31,1.88-.31h5.29v1.21l-1.03.12v.05c.34.41.64.86.88,1.33s.36.98.36,1.53ZM48.49,261.34c0-.43-.09-.82-.28-1.2-.19-.37-.47-.77-.83-1.18h-2.32c.12.97.27,1.74.45,2.3s.41.97.68,1.21c.27.25.6.37.98.37.47,0,.81-.15,1.02-.44.21-.3.31-.65.31-1.06Z"/>
      <path class="st0" d="M49.49,254.44h-8.62v-1.21l1.56-.12v-.05c-.54-.28-.98-.64-1.29-1.06s-.48-.89-.48-1.38c0-.19.01-.35.04-.5.02-.14.07-.28.14-.43l1.24.32c-.04.13-.06.25-.08.36-.02.11-.03.26-.03.43,0,.37.15.75.44,1.14.3.4.81.74,1.54,1.04h5.53v1.45Z"/>
      <path class="st0" d="M39.09,247.21c0,.28-.09.52-.27.7-.18.18-.41.27-.69.27s-.51-.09-.69-.27c-.18-.18-.27-.42-.27-.7s.09-.52.27-.7c.18-.18.41-.27.69-.27s.51.09.69.27c.18.18.27.42.27.7ZM49.49,247.93h-8.62v-1.45h8.62v1.45Z"/>
      <path class="st0" d="M49.7,239.86c0,.7-.18,1.35-.53,1.96-.35.61-.87,1.1-1.54,1.47-.67.37-1.48.56-2.43.56s-1.79-.19-2.47-.56c-.67-.37-1.19-.86-1.54-1.47-.35-.61-.53-1.26-.53-1.96s.18-1.37.53-1.97c.35-.6.87-1.09,1.54-1.46.67-.37,1.5-.56,2.47-.56s1.76.19,2.43.56c.67.37,1.19.86,1.54,1.46.35.6.53,1.26.53,1.97ZM48.49,239.86c0-.5-.14-.93-.42-1.31s-.67-.67-1.16-.87-1.07-.3-1.72-.3-1.24.1-1.75.3-.89.49-1.17.87c-.28.38-.42.82-.42,1.31s.14.93.42,1.3c.28.37.67.66,1.17.87s1.08.31,1.75.31,1.22-.1,1.72-.31.88-.5,1.16-.87c.28-.37.42-.81.42-1.3Z"/>
      <path class="st0" d="M49.49,229.35h-8.62v-1.21l1.24-.12v-.05c-.4-.38-.75-.79-1.03-1.23s-.43-.92-.43-1.45c0-.66.15-1.18.44-1.55s.7-.65,1.21-.82c-.5-.45-.9-.9-1.2-1.37-.3-.46-.45-.95-.45-1.47,0-.9.29-1.56.86-1.99.57-.43,1.41-.64,2.51-.64h5.46v1.45h-5.27c-.82,0-1.4.13-1.76.39-.36.26-.54.66-.54,1.21,0,.34.11.69.33,1.04s.55.72,1,1.13h6.24v1.45h-5.27c-.82,0-1.4.13-1.76.39-.36.26-.54.67-.54,1.22,0,.65.44,1.37,1.33,2.16h6.24v1.45Z"/>
      <path class="st0" d="M39.38,214.93l-2.93-2.29v-1.6l.16-.09,2.77,2.8v1.17ZM49.49,214.29h-8.62v-1.45h8.62v1.45Z"/>
      <path class="st0" d="M49.49,209.57h-8.62v-1.21l1.24-.12v-.05c-.41-.41-.76-.85-1.04-1.31-.28-.46-.42-.99-.42-1.58,0-.91.29-1.58.86-2,.57-.42,1.41-.63,2.51-.63h5.46v1.45h-5.27c-.82,0-1.4.13-1.76.38-.36.25-.54.67-.54,1.25,0,.44.11.83.34,1.18s.56.74.99,1.18h6.24v1.45Z"/>
      <path class="st0" d="M39.09,198.79c0,.28-.09.52-.27.7-.18.18-.41.27-.69.27s-.51-.09-.69-.27c-.18-.18-.27-.42-.27-.7s.09-.52.27-.7c.18-.18.41-.27.69-.27s.51.09.69.27c.18.18.27.42.27.7ZM49.49,199.51h-8.62v-1.45h8.62v1.45Z"/>
      <path class="st0" d="M49.49,194.79h-8.62v-1.21l1.24-.12v-.05c-.4-.38-.75-.79-1.03-1.23s-.43-.92-.43-1.45c0-.66.15-1.18.44-1.55s.7-.65,1.21-.82c-.5-.45-.9-.9-1.2-1.37-.3-.46-.45-.95-.45-1.47,0-.9.29-1.56.86-1.99.57-.43,1.41-.64,2.51-.64h5.46v1.45h-5.27c-.82,0-1.4.13-1.76.39-.36.26-.54.66-.54,1.21,0,.34.11.69.33,1.04s.55.72,1,1.13h6.24v1.45h-5.27c-.82,0-1.4.13-1.76.39-.36.26-.54.67-.54,1.22,0,.65.44,1.37,1.33,2.16h6.24v1.45Z"/>
      <path class="st0" d="M49.7,176.38c0,.7-.18,1.35-.53,1.96-.35.61-.87,1.1-1.54,1.47-.67.37-1.48.56-2.43.56s-1.79-.19-2.47-.56c-.67-.37-1.19-.86-1.54-1.47-.35-.61-.53-1.26-.53-1.96s.18-1.37.53-1.97c.35-.6.87-1.09,1.54-1.46.67-.37,1.5-.56,2.47-.56s1.76.19,2.43.56c.67.37,1.19.86,1.54,1.46.35.6.53,1.26.53,1.97ZM48.49,176.38c0-.5-.14-.93-.42-1.31s-.67-.67-1.16-.87-1.07-.3-1.72-.3-1.24.1-1.75.3-.89.49-1.17.87c-.28.38-.42.82-.42,1.31s.14.93.42,1.3c.28.37.67.66,1.17.87s1.08.31,1.75.31,1.22-.1,1.72-.31.88-.5,1.16-.87c.28-.37.42-.81.42-1.3Z"/>
    </g>
    <g>
      <path class="st0" d="M162.26,506.23v-11.64h1.47v4.88h5.43v-4.88h1.47v11.64h-1.47v-5.48h-5.43v5.48h-1.47Z"/>
      <path class="st0" d="M177.39,506.45c-.7,0-1.35-.18-1.96-.53s-1.1-.87-1.47-1.54-.56-1.48-.56-2.43.19-1.79.56-2.46.86-1.19,1.47-1.54c.61-.36,1.26-.53,1.96-.53s1.37.18,1.97.53c.6.35,1.09.87,1.46,1.54s.56,1.5.56,2.46-.19,1.76-.56,2.43-.86,1.19-1.46,1.54c-.6.35-1.26.53-1.97.53ZM177.39,505.24c.5,0,.93-.14,1.31-.42.38-.28.67-.67.87-1.16.2-.5.3-1.07.3-1.72s-.1-1.24-.3-1.75c-.2-.5-.49-.89-.87-1.17-.38-.28-.82-.42-1.31-.42s-.93.14-1.3.42c-.37.28-.66.67-.87,1.17-.21.5-.31,1.08-.31,1.75s.1,1.22.31,1.72c.21.5.5.88.87,1.16.37.28.81.42,1.3.42Z"/>
      <path class="st0" d="M184,506.23v-8.62h1.21l.12,1.56h.05c.28-.54.64-.98,1.06-1.29.43-.32.89-.48,1.38-.48.19,0,.35.01.5.04.14.02.28.07.43.14l-.32,1.24c-.13-.04-.25-.06-.36-.08s-.26-.03-.43-.03c-.37,0-.75.15-1.14.44-.4.3-.74.81-1.04,1.54v5.53h-1.45Z"/>
      <path class="st0" d="M192.07,506.45c-.47,0-.9-.1-1.29-.29-.38-.2-.69-.47-.91-.83-.23-.36-.34-.8-.34-1.32,0-.97.43-1.7,1.28-2.2.85-.5,2.2-.84,4.04-1.05-.01-.36-.07-.7-.17-1.03s-.28-.6-.54-.8-.62-.3-1.08-.3c-.5,0-.96.09-1.4.28-.44.18-.83.39-1.17.61l-.57-.99c.26-.18.57-.35.92-.52.35-.17.74-.31,1.15-.43.41-.11.85-.17,1.31-.17.7,0,1.27.14,1.71.43.44.29.77.7.98,1.23s.31,1.16.31,1.88v5.29h-1.21l-.12-1.03h-.05c-.41.34-.86.64-1.33.88s-.98.36-1.53.36ZM192.48,505.24c.43,0,.82-.09,1.2-.28.37-.19.77-.47,1.18-.83v-2.32c-.97.12-1.74.27-2.3.45-.56.18-.97.41-1.21.68-.25.27-.37.6-.37.98,0,.47.15.81.44,1.02s.65.31,1.06.31Z"/>
      <path class="st0" d="M201.63,506.45c-.63,0-1.22-.11-1.78-.33s-1.04-.52-1.43-.91l.67-.85c.38.31.77.54,1.18.71.41.17.88.25,1.41.25.57,0,.99-.13,1.28-.4.28-.27.43-.58.43-.95,0-.29-.1-.54-.29-.74-.2-.19-.44-.36-.73-.5-.29-.14-.6-.26-.93-.38-.43-.15-.83-.33-1.22-.54-.39-.21-.71-.47-.95-.78-.24-.31-.36-.71-.36-1.18,0-.7.26-1.28.79-1.75.53-.47,1.26-.7,2.19-.7.53,0,1.03.09,1.49.27.46.18.86.42,1.19.7l-.67.83c-.31-.21-.62-.38-.94-.5s-.67-.18-1.06-.18c-.54,0-.94.12-1.2.37-.25.25-.38.54-.38.87,0,.26.08.48.23.65.15.17.37.32.65.45.28.13.59.25.95.37.45.17.88.35,1.29.56.41.21.74.47.99.8s.38.75.38,1.27c0,.47-.12.9-.36,1.29-.24.38-.6.7-1.06.93-.47.24-1.04.35-1.73.35Z"/>
      <path class="st0" d="M213.78,506.39c-.91,0-1.55-.27-1.92-.8s-.55-1.22-.55-2.08v-4.72h-1.28v-1.1l1.35-.09.18-2.77h1.22v2.77h2.34v1.19h-2.34v4.74c0,.52.1.93.29,1.22.19.3.54.44,1.04.44.15,0,.31-.02.48-.04.17-.03.33-.09.5-.17l.32,1.03c-.23.11-.48.2-.76.27-.28.07-.57.11-.87.11Z"/>
      <path class="st0" d="M217.42,506.23v-8.62h1.21l.12,1.56h.05c.28-.54.64-.98,1.06-1.29.43-.32.89-.48,1.38-.48.19,0,.35.01.5.04.14.02.28.07.43.14l-.32,1.24c-.13-.04-.25-.06-.36-.08s-.26-.03-.43-.03c-.37,0-.75.15-1.14.44-.4.3-.74.81-1.04,1.54v5.53h-1.45Z"/>
      <path class="st0" d="M225.49,506.45c-.47,0-.9-.1-1.29-.29-.38-.2-.69-.47-.91-.83-.23-.36-.34-.8-.34-1.32,0-.97.43-1.7,1.28-2.2.85-.5,2.2-.84,4.04-1.05-.01-.36-.07-.7-.17-1.03s-.28-.6-.54-.8-.62-.3-1.08-.3c-.5,0-.96.09-1.4.28-.44.18-.83.39-1.17.61l-.57-.99c.26-.18.57-.35.92-.52.35-.17.74-.31,1.15-.43.41-.11.85-.17,1.31-.17.7,0,1.27.14,1.71.43.44.29.77.7.98,1.23s.31,1.16.31,1.88v5.29h-1.21l-.12-1.03h-.05c-.41.34-.86.64-1.33.88s-.98.36-1.53.36ZM225.9,505.24c.43,0,.82-.09,1.2-.28.37-.19.77-.47,1.18-.83v-2.32c-.97.12-1.74.27-2.3.45-.56.18-.97.41-1.21.68-.25.27-.37.6-.37.98,0,.47.15.81.44,1.02s.65.31,1.06.31Z"/>
      <path class="st0" d="M236.61,506.45c-.4,0-.82-.1-1.24-.29s-.83-.46-1.22-.81h-.05l-.12.89h-1.17v-12.63h1.45v3.44l-.04,1.56c.39-.34.82-.63,1.29-.86s.94-.35,1.41-.35c.75,0,1.37.18,1.88.54.51.36.89.87,1.15,1.53.26.66.39,1.43.39,2.31,0,.98-.17,1.82-.52,2.52s-.81,1.23-1.38,1.6c-.57.37-1.18.55-1.83.55ZM236.36,505.22c.47,0,.9-.14,1.27-.41.37-.27.67-.67.88-1.18s.32-1.13.32-1.84c0-.63-.08-1.18-.23-1.66s-.4-.85-.73-1.12c-.33-.27-.77-.4-1.31-.4-.35,0-.72.1-1.11.29-.38.19-.78.49-1.2.88v4.52c.38.33.75.57,1.13.7s.7.2.98.2Z"/>
      <path class="st0" d="M244.7,506.45c-.47,0-.9-.1-1.29-.29-.38-.2-.69-.47-.91-.83-.23-.36-.34-.8-.34-1.32,0-.97.43-1.7,1.28-2.2.85-.5,2.2-.84,4.04-1.05-.01-.36-.07-.7-.17-1.03s-.28-.6-.54-.8-.62-.3-1.08-.3c-.5,0-.96.09-1.4.28-.44.18-.83.39-1.17.61l-.57-.99c.26-.18.57-.35.92-.52.35-.17.74-.31,1.15-.43.41-.11.85-.17,1.31-.17.7,0,1.27.14,1.71.43.44.29.77.7.98,1.23s.31,1.16.31,1.88v5.29h-1.21l-.12-1.03h-.05c-.41.34-.86.64-1.33.88s-.98.36-1.53.36ZM245.11,505.24c.43,0,.82-.09,1.2-.28.37-.19.77-.47,1.18-.83v-2.32c-.97.12-1.74.27-2.3.45-.56.18-.97.41-1.21.68-.25.27-.37.6-.37.98,0,.47.15.81.44,1.02s.65.31,1.06.31Z"/>
      <path class="st0" d="M253.55,506.39c-.37,0-.66-.07-.89-.22-.23-.15-.39-.37-.5-.66-.11-.29-.16-.64-.16-1.05v-10.86h1.45v10.96c0,.24.04.4.12.49.08.09.18.13.3.13.05,0,.09,0,.13,0,.04,0,.1-.01.17-.03l.21,1.1c-.11.04-.23.07-.36.1-.14.03-.3.04-.49.04Z"/>
      <path class="st0" d="M256.89,506.23v-12.63h1.45v3.44l-.05,1.77c.41-.39.85-.72,1.3-1,.46-.28.98-.42,1.57-.42.91,0,1.58.29,2,.86.42.57.63,1.41.63,2.51v5.46h-1.45v-5.27c0-.82-.13-1.4-.38-1.77-.25-.36-.67-.54-1.25-.54-.44,0-.83.11-1.18.34-.35.23-.74.56-1.18.99v6.24h-1.45Z"/>
      <path class="st0" d="M268.88,506.45c-.47,0-.9-.1-1.29-.29-.38-.2-.69-.47-.91-.83-.23-.36-.34-.8-.34-1.32,0-.97.43-1.7,1.28-2.2.85-.5,2.2-.84,4.04-1.05-.01-.36-.07-.7-.17-1.03s-.28-.6-.54-.8-.62-.3-1.08-.3c-.5,0-.96.09-1.4.28-.44.18-.83.39-1.17.61l-.57-.99c.26-.18.57-.35.92-.52.35-.17.74-.31,1.15-.43.41-.11.85-.17,1.31-.17.7,0,1.27.14,1.71.43.44.29.77.7.98,1.23s.31,1.16.31,1.88v5.29h-1.21l-.12-1.03h-.05c-.41.34-.86.64-1.33.88s-.98.36-1.53.36ZM269.28,505.24c.43,0,.82-.09,1.2-.28.37-.19.77-.47,1.18-.83v-2.32c-.97.12-1.74.27-2.3.45-.56.18-.97.41-1.21.68-.25.27-.37.6-.37.98,0,.47.15.81.44,1.02s.65.31,1.06.31Z"/>
      <path class="st0" d="M279.13,506.45c-1.09,0-1.95-.39-2.6-1.18-.64-.79-.97-1.89-.97-3.33,0-.93.17-1.74.52-2.42.35-.68.81-1.2,1.37-1.57.57-.37,1.18-.55,1.84-.55.51,0,.94.09,1.3.26.36.17.73.42,1.11.74l-.07-1.47v-3.32h1.47v12.63h-1.21l-.12-1.01h-.05c-.33.33-.72.62-1.17.86s-.93.36-1.44.36ZM279.45,505.22c.4,0,.78-.1,1.13-.3.35-.2.71-.5,1.06-.89v-4.51c-.35-.33-.7-.56-1.05-.7-.34-.14-.69-.2-1.05-.2-.46,0-.88.14-1.25.42-.37.28-.67.66-.9,1.15-.22.49-.34,1.07-.34,1.73,0,1.03.21,1.84.62,2.42.41.58,1,.88,1.76.88Z"/>
      <path class="st0" d="M288.37,506.45c-.47,0-.9-.1-1.29-.29-.38-.2-.69-.47-.91-.83-.23-.36-.34-.8-.34-1.32,0-.97.43-1.7,1.28-2.2.85-.5,2.2-.84,4.04-1.05-.01-.36-.07-.7-.17-1.03s-.28-.6-.54-.8-.62-.3-1.08-.3c-.5,0-.96.09-1.4.28-.44.18-.83.39-1.17.61l-.57-.99c.26-.18.57-.35.92-.52.35-.17.74-.31,1.15-.43.41-.11.85-.17,1.31-.17.7,0,1.27.14,1.71.43.44.29.77.7.98,1.23s.31,1.16.31,1.88v5.29h-1.21l-.12-1.03h-.05c-.41.34-.86.64-1.33.88s-.98.36-1.53.36ZM288.78,505.24c.43,0,.82-.09,1.2-.28.37-.19.77-.47,1.18-.83v-2.32c-.97.12-1.74.27-2.3.45-.56.18-.97.41-1.21.68-.25.27-.37.6-.37.98,0,.47.15.81.44,1.02s.65.31,1.06.31Z"/>
      <path class="st0" d="M297.93,506.45c-.63,0-1.22-.11-1.78-.33s-1.04-.52-1.43-.91l.67-.85c.38.31.77.54,1.18.71.41.17.88.25,1.41.25.57,0,.99-.13,1.28-.4.28-.27.43-.58.43-.95,0-.29-.1-.54-.29-.74-.2-.19-.44-.36-.73-.5-.29-.14-.6-.26-.93-.38-.43-.15-.83-.33-1.22-.54-.39-.21-.71-.47-.95-.78-.24-.31-.36-.71-.36-1.18,0-.7.26-1.28.79-1.75.53-.47,1.26-.7,2.19-.7.53,0,1.03.09,1.49.27.46.18.86.42,1.19.7l-.67.83c-.31-.21-.62-.38-.94-.5s-.67-.18-1.06-.18c-.54,0-.94.12-1.2.37-.25.25-.38.54-.38.87,0,.26.08.48.23.65.15.17.37.32.65.45.28.13.59.25.95.37.45.17.88.35,1.29.56.41.21.74.47.99.8s.38.75.38,1.27c0,.47-.12.9-.36,1.29-.24.38-.6.7-1.06.93-.47.24-1.04.35-1.73.35Z"/>
      <path class="st0" d="M307.36,509.87v-12.26h1.21l.12.99h.05c.39-.33.82-.62,1.29-.85.47-.24.96-.35,1.45-.35.73,0,1.35.18,1.86.54.51.36.89.87,1.15,1.53.26.66.39,1.43.39,2.33,0,.97-.17,1.8-.52,2.5s-.81,1.23-1.38,1.6c-.57.37-1.18.55-1.83.55-.39,0-.79-.09-1.19-.27-.4-.18-.8-.42-1.21-.73l.04,1.51v2.91h-1.45ZM310.93,505.22c.47,0,.9-.14,1.27-.41.37-.27.67-.67.88-1.18s.32-1.13.32-1.84c0-.63-.08-1.18-.23-1.66s-.4-.85-.73-1.12c-.33-.27-.77-.4-1.31-.4-.35,0-.72.1-1.1.29-.38.19-.78.49-1.21.88v4.52c.4.33.78.57,1.14.7s.68.2.97.2Z"/>
      <path class="st0" d="M320.92,506.45c-.7,0-1.35-.18-1.96-.53s-1.1-.87-1.47-1.54-.56-1.48-.56-2.43.19-1.79.56-2.46.86-1.19,1.47-1.54c.61-.36,1.26-.53,1.96-.53s1.37.18,1.97.53c.6.35,1.09.87,1.46,1.54s.56,1.5.56,2.46-.19,1.76-.56,2.43-.86,1.19-1.46,1.54c-.6.35-1.26.53-1.97.53ZM320.92,505.24c.5,0,.93-.14,1.31-.42.38-.28.67-.67.87-1.16.2-.5.3-1.07.3-1.72s-.1-1.24-.3-1.75c-.2-.5-.49-.89-.87-1.17-.38-.28-.82-.42-1.31-.42s-.93.14-1.3.42c-.37.28-.66.67-.87,1.17-.21.5-.31,1.08-.31,1.75s.1,1.22.31,1.72c.21.5.5.88.87,1.16.37.28.81.42,1.3.42Z"/>
      <path class="st0" d="M327.53,506.23v-8.62h1.21l.12,1.56h.05c.28-.54.64-.98,1.06-1.29.43-.32.89-.48,1.38-.48.19,0,.35.01.5.04.14.02.28.07.43.14l-.32,1.24c-.13-.04-.25-.06-.36-.08s-.26-.03-.43-.03c-.37,0-.75.15-1.14.44-.4.3-.74.81-1.04,1.54v5.53h-1.45Z"/>
      <path class="st0" d="M340.2,506.45c-.63,0-1.22-.11-1.78-.33s-1.04-.52-1.43-.91l.67-.85c.38.31.77.54,1.18.71.41.17.88.25,1.41.25.57,0,.99-.13,1.28-.4.28-.27.43-.58.43-.95,0-.29-.1-.54-.29-.74-.2-.19-.44-.36-.73-.5-.29-.14-.6-.26-.93-.38-.43-.15-.83-.33-1.22-.54-.39-.21-.71-.47-.95-.78-.24-.31-.36-.71-.36-1.18,0-.7.26-1.28.79-1.75.53-.47,1.26-.7,2.19-.7.53,0,1.03.09,1.49.27.46.18.86.42,1.19.7l-.67.83c-.31-.21-.62-.38-.94-.5s-.67-.18-1.06-.18c-.54,0-.94.12-1.2.37-.25.25-.38.54-.38.87,0,.26.08.48.23.65.15.17.37.32.65.45.28.13.59.25.95.37.45.17.88.35,1.29.56.41.21.74.47.99.8s.38.75.38,1.27c0,.47-.12.9-.36,1.29-.24.38-.6.7-1.06.93-.47.24-1.04.35-1.73.35Z"/>
      <path class="st0" d="M349.22,506.45c-.77,0-1.47-.18-2.1-.54s-1.13-.88-1.5-1.54c-.37-.67-.55-1.48-.55-2.44s.19-1.74.57-2.41.86-1.19,1.45-1.56c.59-.37,1.22-.55,1.88-.55.73,0,1.36.17,1.87.5.51.34.9.81,1.16,1.41.26.6.39,1.31.39,2.13,0,.15,0,.3,0,.44s-.03.28-.06.43h-6.21v-1.15h4.97c0-.83-.18-1.46-.54-1.91s-.88-.67-1.55-.67c-.39,0-.77.11-1.15.33s-.69.57-.93,1.05c-.24.49-.36,1.13-.36,1.93,0,.73.13,1.35.38,1.84.25.5.6.87,1.04,1.13.44.25.92.38,1.44.38.41,0,.8-.06,1.16-.18.36-.12.69-.28.98-.48l.53.96c-.38.26-.8.47-1.27.64-.47.17-1,.25-1.59.25Z"/>
      <path class="st0" d="M354.88,506.23v-8.62h1.21l.12,1.24h.05c.38-.4.79-.75,1.23-1.03.44-.28.92-.43,1.45-.43.66,0,1.18.15,1.55.44s.65.7.82,1.21c.45-.5.9-.9,1.37-1.2s.95-.45,1.47-.45c.9,0,1.56.29,1.99.86.43.57.64,1.41.64,2.51v5.46h-1.45v-5.27c0-.82-.13-1.4-.39-1.77-.26-.36-.66-.54-1.21-.54-.34,0-.69.11-1.04.33-.35.22-.72.55-1.13,1v6.24h-1.45v-5.27c0-.82-.13-1.4-.39-1.77-.26-.36-.67-.54-1.22-.54-.65,0-1.37.44-2.16,1.33v6.24h-1.45Z"/>
      <path class="st0" d="M371.93,506.45c-.47,0-.9-.1-1.29-.29-.38-.2-.69-.47-.91-.83-.23-.36-.34-.8-.34-1.32,0-.97.43-1.7,1.28-2.2.85-.5,2.2-.84,4.04-1.05-.01-.36-.07-.7-.17-1.03s-.28-.6-.54-.8-.62-.3-1.08-.3c-.5,0-.96.09-1.4.28-.44.18-.83.39-1.17.61l-.57-.99c.26-.18.57-.35.92-.52.35-.17.74-.31,1.15-.43.41-.11.85-.17,1.31-.17.7,0,1.27.14,1.71.43.44.29.77.7.98,1.23s.31,1.16.31,1.88v5.29h-1.21l-.12-1.03h-.05c-.41.34-.86.64-1.33.88s-.98.36-1.53.36ZM372.33,505.24c.43,0,.82-.09,1.2-.28.37-.19.77-.47,1.18-.83v-2.32c-.97.12-1.74.27-2.3.45-.56.18-.97.41-1.21.68-.25.27-.37.6-.37.98,0,.47.15.81.44,1.02s.65.31,1.06.31Z"/>
      <path class="st0" d="M379.23,506.23v-8.62h1.21l.12,1.24h.05c.41-.41.85-.76,1.31-1.04.46-.28.99-.42,1.58-.42.91,0,1.58.29,2,.86.42.57.63,1.41.63,2.51v5.46h-1.45v-5.27c0-.82-.13-1.4-.38-1.77-.25-.36-.67-.54-1.25-.54-.44,0-.83.11-1.18.34-.35.23-.74.56-1.18.99v6.24h-1.45Z"/>
      <path class="st0" d="M391.28,506.45c-.47,0-.9-.1-1.29-.29-.38-.2-.69-.47-.91-.83-.22-.36-.34-.8-.34-1.32,0-.97.43-1.7,1.28-2.2.85-.5,2.2-.84,4.04-1.05-.01-.36-.07-.7-.17-1.03-.1-.33-.28-.6-.54-.8-.26-.2-.62-.3-1.08-.3-.5,0-.96.09-1.4.28-.44.18-.83.39-1.17.61l-.57-.99c.26-.18.57-.35.92-.52.36-.17.74-.31,1.15-.43s.85-.17,1.31-.17c.7,0,1.27.14,1.71.43s.77.7.98,1.23c.21.53.31,1.16.31,1.88v5.29h-1.21l-.12-1.03h-.05c-.41.34-.86.64-1.33.88-.47.24-.98.36-1.53.36ZM391.69,505.24c.43,0,.83-.09,1.2-.28.37-.19.77-.47,1.18-.83v-2.32c-.97.12-1.74.27-2.3.45-.56.18-.97.41-1.21.68-.25.27-.37.6-.37.98,0,.47.15.81.44,1.02.29.21.65.31,1.06.31Z"/>
    </g>
  </g>
  <g>
    <g>
      <g>
        <path class="st0" d="M475.75,40.48v-11.64h1.86l2.2,6.23c.14.39.28.78.4,1.17s.25.8.38,1.24h.07c.13-.44.25-.85.37-1.24s.24-.78.37-1.17l2.2-6.23h1.84v11.64h-1.38v-6.4c0-.34.01-.73.04-1.15.02-.43.05-.85.08-1.27s.06-.8.1-1.14h-.07l-.91,2.8-2.18,6.01h-1.08l-2.18-6.01-.9-2.8h-.07c.04.34.07.72.1,1.14s.06.84.08,1.27c.02.43.04.81.04,1.15v6.4h-1.35Z"/>
        <path class="st0" d="M491.37,40.7c-.91,0-1.58-.29-2-.86-.42-.57-.63-1.41-.63-2.51v-5.46h1.46v5.27c0,.8.13,1.39.38,1.75.25.36.67.54,1.23.54.44,0,.83-.12,1.18-.35.35-.23.73-.59,1.14-1.09v-6.12h1.45v8.62h-1.21l-.12-1.35h-.05c-.39.47-.81.85-1.27,1.14s-.98.43-1.57.43Z"/>
        <path class="st0" d="M500.4,40.64c-.37,0-.66-.07-.89-.22-.22-.15-.39-.37-.5-.66s-.16-.64-.16-1.06v-10.85h1.46v10.96c0,.24.04.4.12.49.08.09.18.13.3.13.05,0,.09,0,.13,0,.04,0,.1-.02.17-.03l.21,1.1c-.11.04-.23.07-.36.1-.14.03-.3.04-.49.04Z"/>
        <path class="st0" d="M503.74,40.48v-12.63h1.46v3.44l-.05,1.77c.41-.39.85-.72,1.3-1s.98-.42,1.57-.42c.91,0,1.58.29,2,.86.42.57.63,1.41.63,2.51v5.46h-1.46v-5.27c0-.82-.13-1.4-.38-1.76-.25-.36-.67-.54-1.25-.54-.44,0-.83.11-1.18.34-.35.22-.74.56-1.18.99v6.24h-1.46Z"/>
        <path class="st0" d="M517.23,40.7c-.77,0-1.47-.18-2.1-.54s-1.13-.88-1.5-1.54c-.37-.67-.55-1.48-.55-2.44s.19-1.74.57-2.41c.38-.67.86-1.19,1.45-1.56.59-.37,1.22-.55,1.88-.55.73,0,1.36.17,1.87.51.51.34.9.81,1.16,1.41s.39,1.31.39,2.13c0,.15,0,.3,0,.44,0,.14-.03.28-.06.43h-6.21v-1.15h4.97c0-.83-.18-1.46-.54-1.91-.36-.44-.88-.67-1.55-.67-.39,0-.77.11-1.15.33-.38.22-.69.57-.93,1.06s-.36,1.13-.36,1.93c0,.73.13,1.35.38,1.84.25.5.6.87,1.04,1.13.44.25.92.38,1.44.38.41,0,.8-.06,1.16-.18.36-.12.69-.28.98-.48l.53.96c-.38.26-.8.47-1.27.64s-1,.25-1.59.25Z"/>
        <path class="st0" d="M522.89,40.48v-8.62h1.21l.12,1.56h.05c.28-.54.64-.98,1.06-1.29s.89-.48,1.38-.48c.19,0,.35.01.5.04.14.02.28.07.43.14l-.32,1.24c-.13-.04-.25-.06-.36-.08s-.26-.03-.43-.03c-.37,0-.75.15-1.14.44s-.74.81-1.04,1.54v5.53h-1.46Z"/>
        <path class="st0" d="M532.72,40.7c-.77,0-1.47-.18-2.1-.54s-1.13-.88-1.5-1.54c-.37-.67-.55-1.48-.55-2.44s.19-1.74.57-2.41c.38-.67.86-1.19,1.45-1.56.59-.37,1.22-.55,1.88-.55.73,0,1.36.17,1.87.51.51.34.9.81,1.16,1.41s.39,1.31.39,2.13c0,.15,0,.3,0,.44,0,.14-.03.28-.06.43h-6.21v-1.15h4.97c0-.83-.18-1.46-.54-1.91-.36-.44-.88-.67-1.55-.67-.39,0-.77.11-1.15.33-.38.22-.69.57-.93,1.06s-.36,1.13-.36,1.93c0,.73.13,1.35.38,1.84.25.5.6.87,1.04,1.13.44.25.92.38,1.44.38.41,0,.8-.06,1.16-.18.36-.12.69-.28.98-.48l.53.96c-.38.26-.8.47-1.27.64s-1,.25-1.59.25Z"/>
        <path class="st0" d="M540.63,40.7c-.63,0-1.22-.11-1.78-.33-.56-.22-1.04-.52-1.43-.91l.67-.85c.38.31.77.54,1.18.71.41.17.88.25,1.41.25.57,0,.99-.13,1.28-.4.28-.27.43-.58.43-.95,0-.3-.1-.54-.29-.74-.2-.2-.44-.36-.73-.5-.29-.14-.6-.26-.93-.38-.43-.15-.83-.33-1.22-.54s-.71-.47-.95-.78c-.24-.31-.36-.71-.36-1.18,0-.7.26-1.28.79-1.75.53-.47,1.26-.7,2.19-.7.53,0,1.03.09,1.49.27.46.18.86.42,1.19.7l-.67.83c-.31-.21-.62-.38-.94-.5s-.67-.18-1.06-.18c-.54,0-.94.12-1.2.37-.25.25-.38.54-.38.87,0,.26.08.48.23.65.15.17.37.32.65.45.28.13.59.25.95.37.45.17.88.35,1.29.56.41.21.74.47.99.8.25.33.38.75.38,1.27,0,.47-.12.9-.36,1.29-.24.38-.6.69-1.06.93-.47.24-1.04.35-1.73.35Z"/>
      </g>
      <rect class="st3" x="398.17" y="28.41" width="67.65" height="17.06" rx="4.81" ry="4.81"/>
    </g>
    <g>
      <g>
        <path class="st0" d="M677.37,40.48v-11.64h1.47v4.88h5.43v-4.88h1.47v11.64h-1.47v-5.48h-5.43v5.48h-1.47Z"/>
        <path class="st0" d="M692.5,40.7c-.7,0-1.35-.18-1.96-.53-.61-.35-1.1-.87-1.47-1.54-.37-.67-.56-1.48-.56-2.43s.19-1.79.56-2.47c.37-.67.86-1.19,1.47-1.54.61-.35,1.26-.53,1.96-.53s1.37.18,1.97.53c.6.35,1.09.87,1.46,1.54.37.67.56,1.5.56,2.47s-.19,1.76-.56,2.43c-.37.67-.86,1.19-1.46,1.54-.6.35-1.26.53-1.97.53ZM692.5,39.49c.5,0,.93-.14,1.31-.42.38-.28.67-.67.87-1.16s.3-1.07.3-1.72-.1-1.24-.3-1.75-.49-.89-.87-1.17c-.38-.28-.82-.42-1.31-.42s-.93.14-1.3.42c-.37.28-.66.67-.87,1.17s-.31,1.08-.31,1.75.1,1.22.31,1.72.5.88.87,1.16c.37.28.81.42,1.3.42Z"/>
        <path class="st0" d="M699.11,40.48v-8.62h1.21l.12,1.24h.05c.38-.4.79-.75,1.23-1.03.44-.28.93-.43,1.45-.43.66,0,1.18.15,1.55.44s.65.7.83,1.21c.45-.5.9-.9,1.37-1.2.46-.3.95-.45,1.47-.45.9,0,1.56.29,1.99.86.43.57.64,1.41.64,2.51v5.46h-1.45v-5.27c0-.82-.13-1.4-.39-1.76-.26-.36-.66-.54-1.21-.54-.34,0-.69.11-1.04.33s-.72.55-1.13,1v6.24h-1.45v-5.27c0-.82-.13-1.4-.39-1.76-.26-.36-.67-.54-1.22-.54-.65,0-1.37.44-2.16,1.33v6.24h-1.46Z"/>
        <path class="st0" d="M717.67,40.7c-.77,0-1.47-.18-2.1-.54s-1.13-.88-1.5-1.54c-.37-.67-.55-1.48-.55-2.44s.19-1.74.57-2.41c.38-.67.86-1.19,1.45-1.56.59-.37,1.22-.55,1.88-.55.73,0,1.36.17,1.87.51.51.34.9.81,1.16,1.41s.39,1.31.39,2.13c0,.15,0,.3,0,.44,0,.14-.03.28-.06.43h-6.21v-1.15h4.97c0-.83-.18-1.46-.54-1.91-.36-.44-.88-.67-1.55-.67-.39,0-.77.11-1.15.33-.38.22-.69.57-.93,1.06s-.36,1.13-.36,1.93c0,.73.13,1.35.38,1.84.25.5.6.87,1.04,1.13.44.25.92.38,1.44.38.41,0,.8-.06,1.16-.18.36-.12.69-.28.98-.48l.53.96c-.38.26-.8.47-1.27.64s-1,.25-1.59.25Z"/>
        <path class="st0" d="M723.32,40.48v-8.62h1.21l.12,1.24h.05c.41-.41.85-.76,1.31-1.04s.99-.42,1.58-.42c.91,0,1.58.29,2,.86.42.57.63,1.41.63,2.51v5.46h-1.46v-5.27c0-.82-.13-1.4-.38-1.76-.25-.36-.67-.54-1.25-.54-.44,0-.83.11-1.18.34-.35.22-.74.56-1.18.99v6.24h-1.46Z"/>
        <path class="st0" d="M735.63,40.7c-.63,0-1.22-.11-1.78-.33-.56-.22-1.04-.52-1.43-.91l.67-.85c.38.31.77.54,1.18.71.41.17.88.25,1.41.25.57,0,.99-.13,1.28-.4.28-.27.43-.58.43-.95,0-.3-.1-.54-.29-.74-.2-.2-.44-.36-.73-.5-.29-.14-.6-.26-.93-.38-.43-.15-.83-.33-1.22-.54s-.71-.47-.95-.78c-.24-.31-.36-.71-.36-1.18,0-.7.26-1.28.79-1.75.53-.47,1.26-.7,2.19-.7.53,0,1.03.09,1.49.27.46.18.86.42,1.19.7l-.67.83c-.31-.21-.62-.38-.94-.5s-.67-.18-1.06-.18c-.54,0-.94.12-1.2.37-.25.25-.38.54-.38.87,0,.26.08.48.23.65.15.17.37.32.65.45.28.13.59.25.95.37.45.17.88.35,1.29.56.41.21.74.47.99.8.25.33.38.75.38,1.27,0,.47-.12.9-.36,1.29-.24.38-.6.69-1.06.93-.47.24-1.04.35-1.73.35Z"/>
      </g>
      <rect class="st1" x="599.78" y="28.41" width="67.65" height="17.06" rx="4.81" ry="4.81"/>
    </g>
  </g>
</svg>