<?xml version="1.0" encoding="UTF-8"?>
<svg id="Layer_1" xmlns="http://www.w3.org/2000/svg" version="1.1" viewBox="0 0 383 386">
  <!-- Generator: Adobe Illustrator 29.8.2, SVG Export Plug-In . SVG Version: 2.1.1 Build 3)  -->
  <defs>
    <style>
      .st0 {
        fill: #e65a23;
      }

      .st1 {
        fill: #fff;
      }

      .st2 {
        fill: #ff6637;
      }

      .st3 {
        fill: #49ac4f;
      }
    </style>
  </defs>
  <g>
    <path class="st1" d="M66.64,25.33v-13.8h3.93c1.04,0,1.94.13,2.71.39s1.37.68,1.81,1.27c.43.59.65,1.39.65,2.4s-.21,1.76-.64,2.39-1.02,1.09-1.79,1.41-1.65.47-2.66.47h-2.27v5.47h-1.75ZM68.38,18.43h2.06c1.21,0,2.1-.23,2.68-.69.58-.46.87-1.18.87-2.15s-.31-1.69-.92-2.07c-.61-.39-1.52-.58-2.72-.58h-1.98v5.49Z"/>
    <path class="st1" d="M81.85,25.58c-.83,0-1.6-.21-2.32-.63-.72-.42-1.3-1.03-1.75-1.83-.44-.8-.66-1.76-.66-2.88s.22-2.12.66-2.92c.44-.8,1.02-1.41,1.75-1.83.72-.42,1.5-.63,2.32-.63s1.62.21,2.33.63c.72.42,1.29,1.03,1.74,1.83.44.8.66,1.77.66,2.92s-.22,2.08-.66,2.88c-.44.8-1.02,1.41-1.74,1.83-.71.42-1.49.63-2.33.63ZM81.85,24.15c.59,0,1.11-.17,1.56-.5.45-.33.79-.79,1.03-1.38.24-.59.36-1.27.36-2.04s-.12-1.48-.36-2.07c-.24-.6-.58-1.06-1.03-1.39-.45-.33-.97-.49-1.56-.49s-1.1.17-1.55.49c-.44.33-.79.79-1.03,1.39s-.37,1.29-.37,2.07.12,1.45.37,2.04c.25.59.59,1.05,1.03,1.38.44.33.96.5,1.55.5Z"/>
    <path class="st1" d="M89.27,25.33v-10.22h1.43l.15,1.85h.06c.34-.64.76-1.16,1.26-1.54.5-.38,1.05-.57,1.64-.57.22,0,.42.01.59.04.17.03.34.08.5.17l-.38,1.47c-.15-.04-.3-.07-.43-.09-.13-.02-.3-.03-.51-.03-.44,0-.89.18-1.36.53s-.88.96-1.23,1.83v6.56h-1.73Z"/>
    <path class="st1" d="M100.42,25.58c-.91,0-1.73-.21-2.46-.63-.73-.42-1.3-1.03-1.73-1.83s-.63-1.76-.63-2.88.23-2.12.68-2.92c.46-.8,1.06-1.41,1.81-1.83.75-.42,1.56-.63,2.43-.63.67,0,1.25.11,1.74.34s.9.51,1.25.86l-.86,1.07c-.25-.25-.55-.45-.89-.6-.34-.15-.73-.22-1.17-.22-.6,0-1.15.17-1.63.5-.48.33-.87.79-1.15,1.38-.28.59-.42,1.28-.42,2.06s.13,1.45.4,2.04c.27.59.64,1.05,1.12,1.38.48.33,1.03.5,1.66.5.48,0,.92-.09,1.33-.27.41-.18.76-.41,1.05-.69l.76,1.05c-.44.41-.93.73-1.47.98-.55.25-1.15.37-1.81.37Z"/>
    <path class="st1" d="M109.66,25.58c-.91,0-1.74-.21-2.49-.64-.75-.43-1.34-1.04-1.78-1.83-.43-.79-.65-1.76-.65-2.89s.22-2.06.67-2.86c.45-.8,1.02-1.42,1.72-1.85s1.44-.65,2.23-.65c.87,0,1.61.2,2.22.6.61.4,1.07.96,1.38,1.67.31.71.46,1.56.46,2.52,0,.18,0,.36,0,.53,0,.17-.03.34-.07.5h-7.36v-1.37h5.89c0-.98-.21-1.74-.64-2.26-.43-.53-1.04-.79-1.84-.79-.46,0-.92.13-1.37.39-.45.26-.82.68-1.1,1.25-.29.58-.43,1.34-.43,2.29,0,.87.15,1.6.45,2.19.3.59.71,1.03,1.23,1.34.52.3,1.09.45,1.7.45.49,0,.95-.07,1.38-.21.43-.14.82-.33,1.17-.57l.63,1.14c-.45.31-.95.56-1.5.76s-1.18.29-1.88.29Z"/>
    <path class="st1" d="M115.95,25.33v-10.22h1.43l.15,1.47h.06c.49-.49,1.01-.9,1.56-1.23.55-.33,1.17-.49,1.87-.49,1.08,0,1.87.34,2.37,1.02.5.68.75,1.67.75,2.98v6.48h-1.72v-6.25c0-.97-.15-1.67-.45-2.09-.3-.43-.8-.64-1.48-.64-.52,0-.99.13-1.4.4-.41.27-.88.66-1.4,1.18v7.41h-1.73Z"/>
    <path class="st1" d="M130.67,25.52c-1.08,0-1.84-.32-2.27-.95-.43-.63-.65-1.45-.65-2.46v-5.6h-1.51v-1.3l1.6-.1.21-3.28h1.45v3.28h2.78v1.41h-2.78v5.62c0,.62.12,1.1.35,1.45.23.35.64.53,1.23.53.18,0,.37-.02.57-.05s.39-.1.59-.2l.38,1.22c-.27.13-.57.23-.9.32-.34.08-.68.13-1.03.13Z"/>
    <path class="st1" d="M136.48,25.58c-.56,0-1.07-.12-1.53-.35-.46-.23-.82-.56-1.08-.99s-.4-.95-.4-1.57c0-1.15.5-2.02,1.51-2.61,1.01-.59,2.61-1,4.8-1.24-.01-.42-.08-.83-.2-1.22-.12-.39-.33-.71-.64-.95-.31-.24-.74-.36-1.28-.36-.59,0-1.14.11-1.66.33-.52.22-.98.46-1.39.73l-.67-1.18c.31-.21.67-.42,1.09-.62s.88-.37,1.37-.5c.49-.13,1.01-.2,1.56-.2.83,0,1.5.17,2.03.52.53.34.91.83,1.16,1.46.25.63.37,1.38.37,2.23v6.27h-1.43l-.15-1.22h-.06c-.49.41-1.02.75-1.58,1.04-.56.29-1.16.43-1.81.43ZM136.96,24.15c.5,0,.98-.11,1.42-.34.44-.22.91-.55,1.4-.99v-2.76c-1.15.14-2.06.32-2.72.54-.67.22-1.15.49-1.44.81-.29.32-.44.71-.44,1.16,0,.56.17.96.53,1.21s.77.37,1.26.37Z"/>
    <path class="st1" d="M148.17,30.04c-.83,0-1.56-.11-2.2-.33-.64-.22-1.14-.53-1.49-.94-.36-.41-.54-.9-.54-1.49,0-.43.13-.85.4-1.25.27-.4.63-.75,1.09-1.06v-.08c-.25-.17-.47-.39-.64-.66-.18-.27-.26-.61-.26-1,0-.43.12-.81.37-1.14.25-.32.49-.58.75-.76v-.08c-.32-.28-.62-.66-.9-1.14-.28-.48-.42-1.02-.42-1.62,0-.74.18-1.39.54-1.94.36-.55.83-.97,1.41-1.26.58-.29,1.22-.44,1.9-.44.28,0,.55.02.8.07.25.05.47.11.65.18h3.55v1.33h-2.12v.08c.25.22.46.5.62.84.16.34.24.74.24,1.2,0,.73-.17,1.36-.5,1.88-.34.53-.79.93-1.35,1.22s-1.19.43-1.89.43c-.25,0-.51-.03-.78-.09-.27-.06-.52-.15-.76-.26-.17.15-.32.32-.45.5-.13.18-.2.42-.2.72,0,.32.13.59.39.8.26.21.73.32,1.42.32h1.98c1.19,0,2.09.19,2.68.58s.89,1.01.89,1.86c0,.63-.21,1.21-.63,1.75-.42.53-1.02.96-1.8,1.29s-1.69.49-2.75.49ZM148.43,28.84c.64,0,1.21-.1,1.69-.29s.86-.46,1.14-.78c.27-.32.41-.66.41-1.01,0-.48-.18-.81-.54-.99-.36-.18-.87-.27-1.53-.27h-1.77c-.2,0-.41-.01-.64-.04s-.46-.07-.68-.13c-.38.27-.65.55-.81.84-.16.29-.24.59-.24.88,0,.55.26.98.79,1.3.53.32,1.25.48,2.18.48ZM148.17,20.93c.39,0,.75-.1,1.08-.31.33-.2.59-.49.79-.85.2-.36.29-.79.29-1.28,0-.76-.21-1.34-.63-1.76-.42-.41-.93-.62-1.54-.62s-1.11.21-1.54.62c-.42.41-.63,1-.63,1.76,0,.49.1.92.29,1.28.2.37.46.65.79.85.33.2.69.31,1.08.31Z"/>
    <path class="st1" d="M159.18,25.58c-.91,0-1.74-.21-2.49-.64-.75-.43-1.34-1.04-1.78-1.83-.43-.79-.65-1.76-.65-2.89s.22-2.06.67-2.86c.45-.8,1.02-1.42,1.72-1.85s1.44-.65,2.23-.65c.87,0,1.61.2,2.22.6.61.4,1.07.96,1.38,1.67.31.71.46,1.56.46,2.52,0,.18,0,.36,0,.53,0,.17-.03.34-.07.5h-7.36v-1.37h5.89c0-.98-.21-1.74-.64-2.26-.43-.53-1.04-.79-1.84-.79-.46,0-.92.13-1.37.39-.45.26-.82.68-1.1,1.25-.29.58-.43,1.34-.43,2.29,0,.87.15,1.6.45,2.19.3.59.71,1.03,1.23,1.34.52.3,1.09.45,1.7.45.49,0,.95-.07,1.38-.21.43-.14.82-.33,1.17-.57l.63,1.14c-.45.31-.95.56-1.5.76s-1.18.29-1.88.29Z"/>
    <path class="st1" d="M165.47,25.33v-10.22h1.43l.15,1.47h.06c.45-.48.94-.88,1.46-1.22.53-.34,1.1-.5,1.71-.5.79,0,1.4.18,1.84.53.44.35.77.83.98,1.43.53-.59,1.07-1.06,1.62-1.42.55-.36,1.13-.54,1.75-.54,1.07,0,1.85.34,2.36,1.02s.76,1.67.76,2.98v6.48h-1.72v-6.25c0-.97-.15-1.67-.46-2.09s-.79-.64-1.43-.64c-.41,0-.82.13-1.23.39-.41.26-.86.66-1.34,1.19v7.41h-1.73v-6.25c0-.97-.15-1.67-.46-2.09s-.79-.64-1.45-.64c-.77,0-1.63.53-2.57,1.58v7.41h-1.73Z"/>
    <path class="st1" d="M190.61,25.58c-1.29,0-2.32-.47-3.08-1.4-.76-.93-1.15-2.25-1.15-3.94,0-1.11.21-2.07.62-2.87.41-.81.96-1.43,1.63-1.86.67-.43,1.4-.65,2.19-.65.6,0,1.12.1,1.55.3.43.2.87.5,1.32.87l-.08-1.75v-3.93h1.75v14.98h-1.43l-.15-1.2h-.06c-.39.39-.86.73-1.39,1.02s-1.1.43-1.7.43ZM190.99,24.13c.48,0,.93-.12,1.35-.36s.84-.59,1.26-1.05v-5.34c-.42-.39-.83-.67-1.24-.83-.41-.16-.82-.24-1.24-.24-.55,0-1.04.17-1.48.5-.44.33-.8.79-1.06,1.37s-.4,1.27-.4,2.05c0,1.22.25,2.18.74,2.87.49.69,1.18,1.04,2.08,1.04Z"/>
    <path class="st1" d="M202.93,25.58c-.91,0-1.74-.21-2.49-.64-.75-.43-1.34-1.04-1.78-1.83-.43-.79-.65-1.76-.65-2.89s.22-2.06.67-2.86c.45-.8,1.02-1.42,1.72-1.85s1.44-.65,2.23-.65c.87,0,1.61.2,2.22.6.61.4,1.07.96,1.38,1.67.31.71.46,1.56.46,2.52,0,.18,0,.36,0,.53,0,.17-.03.34-.07.5h-7.36v-1.37h5.89c0-.98-.21-1.74-.64-2.26-.43-.53-1.04-.79-1.84-.79-.46,0-.92.13-1.37.39-.45.26-.82.68-1.1,1.25-.29.58-.43,1.34-.43,2.29,0,.87.15,1.6.45,2.19.3.59.71,1.03,1.23,1.34.52.3,1.09.45,1.7.45.49,0,.95-.07,1.38-.21.43-.14.82-.33,1.17-.57l.63,1.14c-.45.31-.95.56-1.5.76s-1.18.29-1.88.29Z"/>
    <path class="st1" d="M213.43,25.33v-10.22h1.43l.15,1.47h.06c.45-.48.94-.88,1.46-1.22.53-.34,1.1-.5,1.71-.5.79,0,1.4.18,1.84.53.44.35.77.83.98,1.43.53-.59,1.07-1.06,1.62-1.42.55-.36,1.13-.54,1.75-.54,1.07,0,1.85.34,2.36,1.02s.76,1.67.76,2.98v6.48h-1.72v-6.25c0-.97-.15-1.67-.46-2.09s-.79-.64-1.43-.64c-.41,0-.82.13-1.23.39-.41.26-.86.66-1.34,1.19v7.41h-1.73v-6.25c0-.97-.15-1.67-.46-2.09s-.79-.64-1.45-.64c-.77,0-1.63.53-2.57,1.58v7.41h-1.73Z"/>
    <path class="st1" d="M233.23,25.58c-.56,0-1.07-.12-1.53-.35-.46-.23-.82-.56-1.08-.99s-.4-.95-.4-1.57c0-1.15.5-2.02,1.51-2.61,1.01-.59,2.61-1,4.8-1.24-.01-.42-.08-.83-.2-1.22-.12-.39-.33-.71-.64-.95-.31-.24-.74-.36-1.28-.36-.59,0-1.14.11-1.66.33-.52.22-.98.46-1.39.73l-.67-1.18c.31-.21.67-.42,1.09-.62s.88-.37,1.37-.5c.49-.13,1.01-.2,1.56-.2.83,0,1.5.17,2.03.52.53.34.91.83,1.16,1.46.25.63.37,1.38.37,2.23v6.27h-1.43l-.15-1.22h-.06c-.49.41-1.02.75-1.58,1.04-.56.29-1.16.43-1.81.43ZM233.71,24.15c.5,0,.98-.11,1.42-.34.44-.22.91-.55,1.4-.99v-2.76c-1.15.14-2.06.32-2.72.54-.67.22-1.15.49-1.44.81-.29.32-.44.71-.44,1.16,0,.56.17.96.53,1.21s.77.37,1.26.37Z"/>
    <path class="st1" d="M244.4,25.52c-1.08,0-1.84-.32-2.27-.95-.43-.63-.65-1.45-.65-2.46v-5.6h-1.51v-1.3l1.6-.1.21-3.28h1.45v3.28h2.78v1.41h-2.78v5.62c0,.62.12,1.1.35,1.45.23.35.64.53,1.23.53.18,0,.37-.02.57-.05s.39-.1.59-.2l.38,1.22c-.27.13-.57.23-.9.32-.34.08-.68.13-1.03.13Z"/>
    <path class="st1" d="M248.29,25.33v-10.22h1.43l.15,1.85h.06c.34-.64.76-1.16,1.26-1.54.5-.38,1.05-.57,1.64-.57.22,0,.42.01.59.04.17.03.34.08.5.17l-.38,1.47c-.15-.04-.3-.07-.43-.09-.13-.02-.3-.03-.51-.03-.44,0-.89.18-1.36.53s-.88.96-1.23,1.83v6.56h-1.73Z"/>
    <path class="st1" d="M254.83,13.34l2.71-3.47h1.89l.1.19-3.32,3.28h-1.39ZM255.59,25.33v-10.22h1.73v10.22h-1.73Z"/>
    <path class="st1" d="M264.83,25.58c-.91,0-1.73-.21-2.46-.63-.73-.42-1.3-1.03-1.73-1.83s-.63-1.76-.63-2.88.23-2.12.68-2.92c.46-.8,1.06-1.41,1.81-1.83.75-.42,1.56-.63,2.43-.63.67,0,1.25.11,1.74.34s.9.51,1.25.86l-.86,1.07c-.25-.25-.55-.45-.89-.6-.34-.15-.73-.22-1.17-.22-.6,0-1.15.17-1.63.5-.48.33-.87.79-1.15,1.38-.28.59-.42,1.28-.42,2.06s.13,1.45.4,2.04c.27.59.64,1.05,1.12,1.38.48.33,1.03.5,1.66.5.48,0,.92-.09,1.33-.27.41-.18.76-.41,1.05-.69l.76,1.05c-.44.41-.93.73-1.47.98-.55.25-1.15.37-1.81.37Z"/>
    <path class="st1" d="M273.34,25.58c-1.08,0-1.87-.34-2.37-1.02-.5-.68-.75-1.67-.75-2.98v-6.48h1.73v6.25c0,.95.15,1.64.45,2.07.3.43.79.64,1.46.64.52,0,.99-.14,1.4-.41.41-.27.87-.7,1.36-1.29v-7.26h1.72v10.22h-1.43l-.15-1.6h-.06c-.46.56-.96,1.01-1.5,1.35-.54.34-1.16.51-1.86.51Z"/>
    <path class="st1" d="M283.63,25.52c-.44,0-.79-.09-1.05-.26-.27-.18-.46-.43-.59-.78-.13-.34-.19-.76-.19-1.25v-12.88h1.73v13c0,.28.05.47.15.58.1.11.22.16.36.16.06,0,.11,0,.16-.01.05,0,.12-.02.2-.03l.25,1.3c-.13.04-.27.08-.43.12s-.35.05-.58.05Z"/>
    <path class="st1" d="M289.52,25.58c-.56,0-1.07-.12-1.53-.35-.46-.23-.82-.56-1.08-.99s-.4-.95-.4-1.57c0-1.15.5-2.02,1.51-2.61,1.01-.59,2.61-1,4.8-1.24-.01-.42-.08-.83-.2-1.22-.12-.39-.33-.71-.64-.95-.31-.24-.74-.36-1.28-.36-.59,0-1.14.11-1.66.33-.52.22-.98.46-1.39.73l-.67-1.18c.31-.21.67-.42,1.09-.62s.88-.37,1.37-.5c.49-.13,1.01-.2,1.56-.2.83,0,1.5.17,2.03.52.53.34.91.83,1.16,1.46.25.63.37,1.38.37,2.23v6.27h-1.43l-.15-1.22h-.06c-.49.41-1.02.75-1.58,1.04-.56.29-1.16.43-1.81.43ZM290.01,24.15c.5,0,.98-.11,1.42-.34.44-.22.91-.55,1.4-.99v-2.76c-1.15.14-2.06.32-2.72.54-.67.22-1.15.49-1.44.81-.29.32-.44.71-.44,1.16,0,.56.17.96.53,1.21s.77.37,1.26.37Z"/>
    <path class="st1" d="M300.44,25.58c-.74,0-1.45-.13-2.11-.39s-1.23-.62-1.69-1.08l.8-1.01c.45.36.92.64,1.4.84.48.2,1.04.29,1.67.29.67,0,1.18-.16,1.51-.47s.5-.69.5-1.12c0-.35-.12-.64-.35-.87-.23-.23-.52-.43-.86-.59-.34-.16-.71-.31-1.1-.45-.5-.18-.99-.4-1.45-.64-.46-.25-.84-.55-1.13-.93-.29-.37-.43-.84-.43-1.4,0-.83.31-1.52.94-2.07s1.49-.83,2.6-.83c.63,0,1.22.11,1.77.33.55.22,1.02.49,1.41.83l-.8.99c-.36-.25-.74-.45-1.12-.59-.38-.14-.8-.21-1.26-.21-.65,0-1.12.15-1.42.44-.3.29-.45.64-.45,1.03,0,.31.09.56.27.77.18.2.44.38.77.54.33.15.71.3,1.12.44.53.2,1.04.42,1.53.66.48.25.88.56,1.18.95.3.39.45.89.45,1.5,0,.56-.14,1.07-.43,1.53s-.71.82-1.26,1.1c-.55.28-1.24.42-2.05.42Z"/>
    <path class="st1" d="M22.04,50.83c-1.29,0-2.32-.47-3.08-1.4-.76-.93-1.15-2.25-1.15-3.94,0-1.11.21-2.07.62-2.87.41-.81.96-1.43,1.63-1.86.67-.43,1.4-.65,2.19-.65.6,0,1.12.1,1.55.3.43.2.87.5,1.32.87l-.08-1.75v-3.93h1.75v14.98h-1.43l-.15-1.2h-.06c-.39.39-.86.73-1.39,1.02s-1.1.43-1.7.43ZM22.42,49.37c.48,0,.93-.12,1.35-.36s.84-.59,1.26-1.05v-5.34c-.42-.39-.83-.67-1.24-.83-.41-.16-.82-.24-1.24-.24-.55,0-1.04.17-1.48.5-.44.33-.8.79-1.06,1.37s-.4,1.27-.4,2.05c0,1.22.25,2.18.74,2.87.49.69,1.18,1.04,2.08,1.04Z"/>
    <path class="st1" d="M34.37,50.83c-.91,0-1.74-.21-2.49-.64-.75-.43-1.34-1.04-1.78-1.83-.43-.79-.65-1.76-.65-2.89s.22-2.06.67-2.86c.45-.8,1.02-1.42,1.72-1.85s1.44-.65,2.23-.65c.87,0,1.61.2,2.22.6.61.4,1.07.96,1.38,1.67.31.71.46,1.56.46,2.52,0,.18,0,.36,0,.53,0,.17-.03.34-.07.5h-7.36v-1.37h5.89c0-.98-.21-1.74-.64-2.26-.43-.53-1.04-.79-1.84-.79-.46,0-.92.13-1.37.39-.45.26-.82.68-1.1,1.25-.29.58-.43,1.34-.43,2.29,0,.87.15,1.6.45,2.19.3.59.71,1.03,1.23,1.34.52.3,1.09.45,1.7.45.49,0,.95-.07,1.38-.21.43-.14.82-.33,1.17-.57l.63,1.14c-.45.31-.95.56-1.5.76s-1.18.29-1.88.29Z"/>
    <path class="st1" d="M48.92,50.83c-.91,0-1.73-.21-2.46-.63-.73-.42-1.3-1.03-1.73-1.83s-.63-1.76-.63-2.88.23-2.12.68-2.92c.46-.8,1.06-1.41,1.81-1.83.75-.42,1.56-.63,2.43-.63.67,0,1.25.11,1.74.34s.9.51,1.25.86l-.86,1.07c-.25-.25-.55-.45-.89-.6-.34-.15-.73-.22-1.17-.22-.6,0-1.15.17-1.63.5-.48.33-.87.79-1.15,1.38-.28.59-.42,1.28-.42,2.06s.13,1.45.4,2.04c.27.59.64,1.05,1.12,1.38.48.33,1.03.5,1.66.5.48,0,.92-.09,1.33-.27.41-.18.76-.41,1.05-.69l.76,1.05c-.44.41-.93.73-1.47.98-.55.25-1.15.37-1.81.37Z"/>
    <path class="st1" d="M54.46,50.57v-10.22h1.43l.15,1.85h.06c.34-.64.76-1.16,1.26-1.54.5-.38,1.05-.57,1.64-.57.22,0,.42.01.59.04.17.03.34.08.5.17l-.38,1.47c-.15-.04-.3-.07-.43-.09-.13-.02-.3-.03-.51-.03-.44,0-.89.18-1.36.53s-.88.96-1.23,1.83v6.56h-1.73Z"/>
    <path class="st1" d="M62.62,38.24c-.34,0-.61-.1-.83-.32-.22-.21-.33-.48-.33-.82s.11-.61.33-.82c.22-.21.49-.32.83-.32s.61.1.83.32c.22.21.33.48.33.82s-.11.61-.33.82c-.22.21-.5.32-.83.32ZM61.76,50.57v-10.22h1.73v10.22h-1.73Z"/>
    <path class="st1" d="M69.29,50.83c-.56,0-1.07-.12-1.53-.35-.46-.23-.82-.56-1.08-.99s-.4-.95-.4-1.57c0-1.15.5-2.02,1.51-2.61,1.01-.59,2.61-1,4.8-1.24-.01-.42-.08-.83-.2-1.22-.12-.39-.33-.71-.64-.95-.31-.24-.74-.36-1.28-.36-.59,0-1.14.11-1.66.33-.52.22-.98.46-1.39.73l-.67-1.18c.31-.21.67-.42,1.09-.62s.88-.37,1.37-.5c.49-.13,1.01-.2,1.56-.2.83,0,1.5.17,2.03.52.53.34.91.83,1.16,1.46.25.63.37,1.38.37,2.23v6.27h-1.43l-.15-1.22h-.06c-.49.41-1.02.75-1.58,1.04-.56.29-1.16.43-1.81.43ZM69.77,49.4c.5,0,.98-.11,1.42-.34.44-.22.91-.55,1.4-.99v-2.76c-1.15.14-2.06.32-2.72.54-.67.22-1.15.49-1.44.81-.29.32-.44.71-.44,1.16,0,.56.17.96.53,1.21s.77.37,1.26.37Z"/>
    <path class="st1" d="M77.53,50.57v-10.22h1.43l.15,1.47h.06c.49-.49,1.01-.9,1.56-1.23.55-.33,1.17-.49,1.87-.49,1.08,0,1.87.34,2.37,1.02.5.68.75,1.67.75,2.98v6.48h-1.72v-6.25c0-.97-.15-1.67-.45-2.09-.3-.43-.8-.64-1.48-.64-.52,0-.99.13-1.4.4-.41.27-.88.66-1.4,1.18v7.41h-1.73Z"/>
    <path class="st1" d="M93.1,50.83c-.91,0-1.73-.21-2.46-.63-.73-.42-1.3-1.03-1.73-1.83s-.63-1.76-.63-2.88.23-2.12.68-2.92c.46-.8,1.06-1.41,1.81-1.83.75-.42,1.56-.63,2.43-.63.67,0,1.25.11,1.74.34s.9.51,1.25.86l-.86,1.07c-.25-.25-.55-.45-.89-.6-.34-.15-.73-.22-1.17-.22-.6,0-1.15.17-1.63.5-.48.33-.87.79-1.15,1.38-.28.59-.42,1.28-.42,2.06s.13,1.45.4,2.04c.27.59.64,1.05,1.12,1.38.48.33,1.03.5,1.66.5.48,0,.92-.09,1.33-.27.41-.18.76-.41,1.05-.69l.76,1.05c-.44.41-.93.73-1.47.98-.55.25-1.15.37-1.81.37ZM91.08,55.33l-.17-.84c.88-.07,1.49-.19,1.81-.35.32-.16.48-.4.48-.7,0-.28-.12-.5-.36-.65-.24-.15-.66-.27-1.26-.36l.93-1.92h1.12l-.61,1.41c.49.11.87.28,1.14.5.27.22.4.55.4.99,0,.6-.3,1.06-.89,1.37-.6.31-1.46.49-2.58.55Z"/>
    <path class="st1" d="M100.78,50.83c-.56,0-1.07-.12-1.53-.35-.46-.23-.82-.56-1.08-.99s-.4-.95-.4-1.57c0-1.15.5-2.02,1.51-2.61,1.01-.59,2.61-1,4.8-1.24-.01-.42-.08-.83-.2-1.22-.12-.39-.33-.71-.64-.95-.31-.24-.74-.36-1.28-.36-.59,0-1.14.11-1.66.33-.52.22-.98.46-1.39.73l-.67-1.18c.31-.21.67-.42,1.09-.62s.88-.37,1.37-.5c.49-.13,1.01-.2,1.56-.2.83,0,1.5.17,2.03.52.53.34.91.83,1.16,1.46.25.63.37,1.38.37,2.23v6.27h-1.43l-.15-1.22h-.06c-.49.41-1.02.75-1.58,1.04-.56.29-1.16.43-1.81.43ZM101.26,49.4c.5,0,.98-.11,1.42-.34.44-.22.91-.55,1.4-.99v-2.76c-1.15.14-2.06.32-2.72.54-.67.22-1.15.49-1.44.81-.29.32-.44.71-.44,1.16,0,.56.17.96.53,1.21s.77.37,1.26.37Z"/>
    <path class="st1" d="M111.7,50.83c-.74,0-1.45-.13-2.11-.39s-1.23-.62-1.69-1.08l.8-1.01c.45.36.92.64,1.4.84.48.2,1.04.29,1.67.29.67,0,1.18-.16,1.51-.47s.5-.69.5-1.12c0-.35-.12-.64-.35-.87-.23-.23-.52-.43-.86-.59-.34-.16-.71-.31-1.1-.45-.5-.18-.99-.4-1.45-.64-.46-.25-.84-.55-1.13-.93-.29-.37-.43-.84-.43-1.4,0-.83.31-1.52.94-2.07s1.49-.83,2.6-.83c.63,0,1.22.11,1.77.33.55.22,1.02.49,1.41.83l-.8.99c-.36-.25-.74-.45-1.12-.59-.38-.14-.8-.21-1.26-.21-.65,0-1.12.15-1.42.44-.3.29-.45.64-.45,1.03,0,.31.09.56.27.77.18.2.44.38.77.54.33.15.71.3,1.12.44.53.2,1.04.42,1.53.66.48.25.88.56,1.18.95.3.39.45.89.45,1.5,0,.56-.14,1.07-.43,1.53s-.71.82-1.26,1.1c-.55.28-1.24.42-2.05.42Z"/>
    <path class="st1" d="M126.19,50.83c-.91,0-1.74-.21-2.49-.64-.75-.43-1.34-1.04-1.78-1.83-.43-.79-.65-1.76-.65-2.89s.22-2.06.67-2.86c.45-.8,1.02-1.42,1.72-1.85s1.44-.65,2.23-.65c.87,0,1.61.2,2.22.6.61.4,1.07.96,1.38,1.67.31.71.46,1.56.46,2.52,0,.18,0,.36,0,.53,0,.17-.03.34-.07.5h-7.36v-1.37h5.89c0-.98-.21-1.74-.64-2.26-.43-.53-1.04-.79-1.84-.79-.46,0-.92.13-1.37.39-.45.26-.82.68-1.1,1.25-.29.58-.43,1.34-.43,2.29,0,.87.15,1.6.45,2.19.3.59.71,1.03,1.23,1.34.52.3,1.09.45,1.7.45.49,0,.95-.07,1.38-.21.43-.14.82-.33,1.17-.57l.63,1.14c-.45.31-.95.56-1.5.76s-1.18.29-1.88.29Z"/>
    <path class="st1" d="M132.48,50.57v-10.22h1.43l.15,1.47h.06c.45-.48.94-.88,1.46-1.22.53-.34,1.1-.5,1.71-.5.79,0,1.4.18,1.84.53.44.35.77.83.98,1.43.53-.59,1.07-1.06,1.62-1.42.55-.36,1.13-.54,1.75-.54,1.07,0,1.85.34,2.36,1.02s.76,1.67.76,2.98v6.48h-1.72v-6.25c0-.97-.15-1.67-.46-2.09s-.79-.64-1.43-.64c-.41,0-.82.13-1.23.39-.41.26-.86.66-1.34,1.19v7.41h-1.73v-6.25c0-.97-.15-1.67-.46-2.09s-.79-.64-1.45-.64c-.77,0-1.63.53-2.57,1.58v7.41h-1.73Z"/>
    <path class="st1" d="M158.19,50.83c-.91,0-1.73-.21-2.46-.63-.73-.42-1.3-1.03-1.73-1.83s-.63-1.76-.63-2.88.23-2.12.68-2.92c.46-.8,1.06-1.41,1.81-1.83.75-.42,1.56-.63,2.43-.63.67,0,1.25.11,1.74.34s.9.51,1.25.86l-.86,1.07c-.25-.25-.55-.45-.89-.6-.34-.15-.73-.22-1.17-.22-.6,0-1.15.17-1.63.5-.48.33-.87.79-1.15,1.38-.28.59-.42,1.28-.42,2.06s.13,1.45.4,2.04c.27.59.64,1.05,1.12,1.38.48.33,1.03.5,1.66.5.48,0,.92-.09,1.33-.27.41-.18.76-.41,1.05-.69l.76,1.05c-.44.41-.93.73-1.47.98-.55.25-1.15.37-1.81.37Z"/>
    <path class="st1" d="M163.72,50.57v-10.22h1.43l.15,1.85h.06c.34-.64.76-1.16,1.26-1.54.5-.38,1.05-.57,1.64-.57.22,0,.42.01.59.04.17.03.34.08.5.17l-.38,1.47c-.15-.04-.3-.07-.43-.09-.13-.02-.3-.03-.51-.03-.44,0-.89.18-1.36.53s-.88.96-1.23,1.83v6.56h-1.73Z"/>
    <path class="st1" d="M174.96,50.83c-.91,0-1.74-.21-2.49-.64-.75-.43-1.34-1.04-1.78-1.83-.43-.79-.65-1.76-.65-2.89s.22-2.06.67-2.86c.45-.8,1.02-1.42,1.72-1.85s1.44-.65,2.23-.65c.87,0,1.61.2,2.22.6.61.4,1.07.96,1.38,1.67.31.71.46,1.56.46,2.52,0,.18,0,.36,0,.53,0,.17-.03.34-.07.5h-7.36v-1.37h5.89c0-.98-.21-1.74-.64-2.26-.43-.53-1.04-.79-1.84-.79-.46,0-.92.13-1.37.39-.45.26-.82.68-1.1,1.25-.29.58-.43,1.34-.43,2.29,0,.87.15,1.6.45,2.19.3.59.71,1.03,1.23,1.34.52.3,1.09.45,1.7.45.49,0,.95-.07,1.38-.21.43-.14.82-.33,1.17-.57l.63,1.14c-.45.31-.95.56-1.5.76s-1.18.29-1.88.29Z"/>
    <path class="st1" d="M185.31,50.83c-.91,0-1.73-.21-2.46-.63-.73-.42-1.3-1.03-1.73-1.83s-.63-1.76-.63-2.88.23-2.12.68-2.92c.46-.8,1.06-1.41,1.81-1.83.75-.42,1.56-.63,2.43-.63.67,0,1.25.11,1.74.34s.9.51,1.25.86l-.86,1.07c-.25-.25-.55-.45-.89-.6-.34-.15-.73-.22-1.17-.22-.6,0-1.15.17-1.63.5-.48.33-.87.79-1.15,1.38-.28.59-.42,1.28-.42,2.06s.13,1.45.4,2.04c.27.59.64,1.05,1.12,1.38.48.33,1.03.5,1.66.5.48,0,.92-.09,1.33-.27.41-.18.76-.41,1.05-.69l.76,1.05c-.44.41-.93.73-1.47.98-.55.25-1.15.37-1.81.37Z"/>
    <path class="st1" d="M190.84,50.57v-14.98h1.73v4.08l-.06,2.1c.49-.46,1.01-.86,1.55-1.19.54-.33,1.16-.49,1.86-.49,1.08,0,1.87.34,2.37,1.02.5.68.75,1.67.75,2.98v6.48h-1.72v-6.25c0-.97-.15-1.67-.45-2.09-.3-.43-.8-.64-1.48-.64-.52,0-.99.13-1.4.4-.41.27-.88.66-1.4,1.18v7.41h-1.73Z"/>
    <path class="st1" d="M206.43,50.83c-.91,0-1.74-.21-2.49-.64-.75-.43-1.34-1.04-1.78-1.83-.43-.79-.65-1.76-.65-2.89s.22-2.06.67-2.86c.45-.8,1.02-1.42,1.72-1.85s1.44-.65,2.23-.65c.87,0,1.61.2,2.22.6.61.4,1.07.96,1.38,1.67.31.71.46,1.56.46,2.52,0,.18,0,.36,0,.53,0,.17-.03.34-.07.5h-7.36v-1.37h5.89c0-.98-.21-1.74-.64-2.26-.43-.53-1.04-.79-1.84-.79-.46,0-.92.13-1.37.39-.45.26-.82.68-1.1,1.25-.29.58-.43,1.34-.43,2.29,0,.87.15,1.6.45,2.19.3.59.71,1.03,1.23,1.34.52.3,1.09.45,1.7.45.49,0,.95-.07,1.38-.21.43-.14.82-.33,1.17-.57l.63,1.14c-.45.31-.95.56-1.5.76s-1.18.29-1.88.29Z"/>
    <path class="st1" d="M215.39,50.83c-.74,0-1.45-.13-2.11-.39s-1.23-.62-1.69-1.08l.8-1.01c.45.36.92.64,1.4.84.48.2,1.04.29,1.67.29.67,0,1.18-.16,1.51-.47s.5-.69.5-1.12c0-.35-.12-.64-.35-.87-.23-.23-.52-.43-.86-.59-.34-.16-.71-.31-1.1-.45-.5-.18-.99-.4-1.45-.64-.46-.25-.84-.55-1.13-.93-.29-.37-.43-.84-.43-1.4,0-.83.31-1.52.94-2.07s1.49-.83,2.6-.83c.63,0,1.22.11,1.77.33.55.22,1.02.49,1.41.83l-.8.99c-.36-.25-.74-.45-1.12-.59-.38-.14-.8-.21-1.26-.21-.65,0-1.12.15-1.42.44-.3.29-.45.64-.45,1.03,0,.31.09.56.27.77.18.2.44.38.77.54.33.15.71.3,1.12.44.53.2,1.04.42,1.53.66.48.25.88.56,1.18.95.3.39.45.89.45,1.5,0,.56-.14,1.07-.43,1.53s-.71.82-1.26,1.1c-.55.28-1.24.42-2.05.42Z"/>
    <path class="st1" d="M225.74,50.57v-10.22h1.43l.15,1.47h.06c.49-.49,1.01-.9,1.56-1.23.55-.33,1.17-.49,1.87-.49,1.08,0,1.87.34,2.37,1.02.5.68.75,1.67.75,2.98v6.48h-1.72v-6.25c0-.97-.15-1.67-.45-2.09-.3-.43-.8-.64-1.48-.64-.52,0-.99.13-1.4.4-.41.27-.88.66-1.4,1.18v7.41h-1.73Z"/>
    <path class="st1" d="M241.22,50.83c-.83,0-1.6-.21-2.32-.63-.72-.42-1.3-1.03-1.75-1.83-.44-.8-.66-1.76-.66-2.88s.22-2.12.66-2.92c.44-.8,1.02-1.41,1.75-1.83.72-.42,1.5-.63,2.32-.63s1.62.21,2.33.63c.72.42,1.29,1.03,1.74,1.83.44.8.66,1.77.66,2.92s-.22,2.08-.66,2.88c-.44.8-1.02,1.41-1.74,1.83-.71.42-1.49.63-2.33.63ZM241.22,49.4c.59,0,1.11-.17,1.56-.5.45-.33.79-.79,1.03-1.38.24-.59.36-1.27.36-2.04s-.12-1.48-.36-2.07c-.24-.6-.58-1.06-1.03-1.39-.45-.33-.97-.49-1.56-.49s-1.1.17-1.55.49c-.44.33-.79.79-1.03,1.39s-.37,1.29-.37,2.07.12,1.45.37,2.04c.25.59.59,1.05,1.03,1.38.44.33.96.5,1.55.5Z"/>
    <path class="st1" d="M255.21,50.83c-.56,0-1.07-.12-1.53-.35-.46-.23-.82-.56-1.08-.99s-.4-.95-.4-1.57c0-1.15.5-2.02,1.51-2.61,1.01-.59,2.61-1,4.8-1.24-.01-.42-.08-.83-.2-1.22-.12-.39-.33-.71-.64-.95-.31-.24-.74-.36-1.28-.36-.59,0-1.14.11-1.66.33-.52.22-.98.46-1.39.73l-.67-1.18c.31-.21.67-.42,1.09-.62s.88-.37,1.37-.5c.49-.13,1.01-.2,1.56-.2.83,0,1.5.17,2.03.52.53.34.91.83,1.16,1.46.25.63.37,1.38.37,2.23v6.27h-1.43l-.15-1.22h-.06c-.49.41-1.02.75-1.58,1.04-.56.29-1.16.43-1.81.43ZM255.7,49.4c.5,0,.98-.11,1.42-.34.44-.22.91-.55,1.4-.99v-2.76c-1.15.14-2.06.32-2.72.54-.67.22-1.15.49-1.44.81-.29.32-.44.71-.44,1.16,0,.56.17.96.53,1.21s.77.37,1.26.37Z"/>
    <path class="st1" d="M263.46,50.57v-10.22h1.43l.15,1.47h.06c.49-.49,1.01-.9,1.56-1.23.55-.33,1.17-.49,1.87-.49,1.08,0,1.87.34,2.37,1.02.5.68.75,1.67.75,2.98v6.48h-1.72v-6.25c0-.97-.15-1.67-.45-2.09-.3-.43-.8-.64-1.48-.64-.52,0-.99.13-1.4.4-.41.27-.88.66-1.4,1.18v7.41h-1.73Z"/>
    <path class="st1" d="M278.94,50.83c-.83,0-1.6-.21-2.32-.63-.72-.42-1.3-1.03-1.75-1.83-.44-.8-.66-1.76-.66-2.88s.22-2.12.66-2.92c.44-.8,1.02-1.41,1.75-1.83.72-.42,1.5-.63,2.32-.63s1.62.21,2.33.63c.72.42,1.29,1.03,1.74,1.83.44.8.66,1.77.66,2.92s-.22,2.08-.66,2.88c-.44.8-1.02,1.41-1.74,1.83-.71.42-1.49.63-2.33.63ZM278.94,49.4c.59,0,1.11-.17,1.56-.5.45-.33.79-.79,1.03-1.38.24-.59.36-1.27.36-2.04s-.12-1.48-.36-2.07c-.24-.6-.58-1.06-1.03-1.39-.45-.33-.97-.49-1.56-.49s-1.1.17-1.55.49c-.44.33-.79.79-1.03,1.39s-.37,1.29-.37,2.07.12,1.45.37,2.04c.25.59.59,1.05,1.03,1.38.44.33.96.5,1.55.5Z"/>
    <path class="st1" d="M294.07,50.83c-1.29,0-2.32-.47-3.08-1.4-.76-.93-1.15-2.25-1.15-3.94,0-1.11.21-2.07.62-2.87.41-.81.96-1.43,1.63-1.86.67-.43,1.4-.65,2.19-.65.6,0,1.12.1,1.55.3.43.2.87.5,1.32.87l-.08-1.75v-3.93h1.75v14.98h-1.43l-.15-1.2h-.06c-.39.39-.86.73-1.39,1.02s-1.1.43-1.7.43ZM294.45,49.37c.48,0,.93-.12,1.35-.36s.84-.59,1.26-1.05v-5.34c-.42-.39-.83-.67-1.24-.83-.41-.16-.82-.24-1.24-.24-.55,0-1.04.17-1.48.5-.44.33-.8.79-1.06,1.37s-.4,1.27-.4,2.05c0,1.22.25,2.18.74,2.87.49.69,1.18,1.04,2.08,1.04Z"/>
    <path class="st1" d="M306.39,50.83c-.91,0-1.74-.21-2.49-.64-.75-.43-1.34-1.04-1.78-1.83-.43-.79-.65-1.76-.65-2.89s.22-2.06.67-2.86c.45-.8,1.02-1.42,1.72-1.85s1.44-.65,2.23-.65c.87,0,1.61.2,2.22.6.61.4,1.07.96,1.38,1.67.31.71.46,1.56.46,2.52,0,.18,0,.36,0,.53,0,.17-.03.34-.07.5h-7.36v-1.37h5.89c0-.98-.21-1.74-.64-2.26-.43-.53-1.04-.79-1.84-.79-.46,0-.92.13-1.37.39-.45.26-.82.68-1.1,1.25-.29.58-.43,1.34-.43,2.29,0,.87.15,1.6.45,2.19.3.59.71,1.03,1.23,1.34.52.3,1.09.45,1.7.45.49,0,.95-.07,1.38-.21.43-.14.82-.33,1.17-.57l.63,1.14c-.45.31-.95.56-1.5.76s-1.18.29-1.88.29Z"/>
    <path class="st1" d="M316.01,50.57v-1.05c1.33-1.32,2.47-2.49,3.42-3.5.95-1.02,1.67-1.94,2.16-2.77.49-.83.74-1.6.74-2.31,0-.77-.21-1.4-.63-1.89s-1.06-.74-1.91-.74c-.56,0-1.08.15-1.56.46-.48.31-.91.69-1.3,1.16l-.97-.95c.56-.63,1.16-1.14,1.8-1.51.64-.38,1.38-.57,2.24-.57s1.54.17,2.15.49c.6.33,1.07.79,1.39,1.38s.48,1.28.48,2.06c0,.87-.24,1.73-.73,2.59-.48.86-1.15,1.75-1.99,2.69-.84.94-1.81,1.97-2.9,3.09.36-.04.74-.07,1.14-.09.39-.02.76-.03,1.12-.03h4.04v1.49h-8.67Z"/>
    <path class="st1" d="M330.86,50.83c-1.35,0-2.4-.61-3.17-1.82-.76-1.21-1.15-2.94-1.15-5.19s.38-3.98,1.15-5.15c.76-1.18,1.82-1.77,3.17-1.77s2.38.59,3.15,1.78c.76,1.19,1.15,2.9,1.15,5.14s-.38,3.97-1.15,5.19c-.76,1.21-1.81,1.82-3.15,1.82ZM330.86,49.44c.52,0,.97-.2,1.37-.59s.7-1,.92-1.83c.22-.83.33-1.89.33-3.2s-.11-2.38-.33-3.2-.52-1.41-.92-1.78c-.39-.37-.85-.56-1.37-.56s-1,.19-1.39.56c-.39.37-.7.96-.92,1.78s-.33,1.88-.33,3.2.11,2.37.33,3.2c.22.83.52,1.44.92,1.83s.86.59,1.39.59Z"/>
    <path class="st1" d="M336.92,50.57v-1.05c1.33-1.32,2.47-2.49,3.42-3.5.95-1.02,1.67-1.94,2.16-2.77.49-.83.74-1.6.74-2.31,0-.77-.21-1.4-.63-1.89s-1.06-.74-1.91-.74c-.56,0-1.08.15-1.56.46-.48.31-.91.69-1.3,1.16l-.97-.95c.56-.63,1.16-1.14,1.8-1.51.64-.38,1.38-.57,2.24-.57s1.54.17,2.15.49c.6.33,1.07.79,1.39,1.38s.48,1.28.48,2.06c0,.87-.24,1.73-.73,2.59-.48.86-1.15,1.75-1.99,2.69-.84.94-1.81,1.97-2.9,3.09.36-.04.74-.07,1.14-.09.39-.02.76-.03,1.12-.03h4.04v1.49h-8.67Z"/>
    <path class="st1" d="M352.93,50.57v-8.98c0-.35.01-.78.04-1.29s.05-.94.06-1.29h-.08c-.17.32-.34.63-.53.94-.18.3-.37.62-.57.96l-3.13,4.59h7.68v1.39h-9.51v-1.14l5.74-8.58h1.94v13.42h-1.64Z"/>
  </g>
  <g>
    <g>
      <g>
        <circle class="st2" cx="129.45" cy="103.04" r="11.52" transform="translate(-.42 205.56) rotate(-76.81)"/>
        <path class="st2" d="M154.02,136.6l-10.68-16.23c-1.48-2.25-3.99-3.6-6.68-3.6l-14.43.02c-2.68,0-5.18,1.35-6.66,3.59l-10.68,16.21c-1.2,1.82-.69,4.26,1.13,5.46h0c1.82,1.19,4.26.69,5.45-1.13l5.58-8.49c.27-.4.89-.22.89.27v46.1c0,2.77,2.02,5.24,4.78,5.5,3.16.3,5.82-2.18,5.82-5.27v-20.59c0-.51.41-.92.92-.92s.92.41.92.92v20.59c0,2.93,2.37,5.3,5.3,5.3h0c2.93,0,5.3-2.37,5.3-5.3v-46.33c0-.48.63-.67.89-.27l5.58,8.49c1.19,1.82,3.63,2.32,5.45,1.13h0c1.82-1.2,2.32-3.64,1.13-5.46Z"/>
      </g>
      <g>
        <circle class="st2" cx="129.45" cy="103.04" r="11.52" transform="translate(-.42 205.56) rotate(-76.81)"/>
        <path class="st2" d="M154.02,136.6l-10.68-16.23c-1.48-2.25-3.99-3.6-6.68-3.6l-14.43.02c-2.68,0-5.18,1.35-6.66,3.59l-10.68,16.21c-1.2,1.82-.69,4.26,1.13,5.46h0c1.82,1.19,4.26.69,5.45-1.13l5.58-8.49c.27-.4.89-.22.89.27v46.1c0,2.77,2.02,5.24,4.78,5.5,3.16.3,5.82-2.18,5.82-5.27v-20.59c0-.51.41-.92.92-.92s.92.41.92.92v20.59c0,2.93,2.37,5.3,5.3,5.3h0c2.93,0,5.3-2.37,5.3-5.3v-46.33c0-.48.63-.67.89-.27l5.58,8.49c1.19,1.82,3.63,2.32,5.45,1.13h0c1.82-1.2,2.32-3.64,1.13-5.46Z"/>
      </g>
    </g>
    <g>
      <g>
        <circle class="st2" cx="72.01" cy="103.04" r="11.52" transform="translate(-44.75 149.64) rotate(-76.81)"/>
        <path class="st2" d="M96.59,136.6l-10.68-16.23c-1.48-2.25-3.99-3.6-6.68-3.6l-14.43.02c-2.68,0-5.18,1.35-6.66,3.59l-10.68,16.21c-1.2,1.82-.69,4.26,1.13,5.46h0c1.82,1.19,4.26.69,5.45-1.13l5.58-8.49c.27-.4.89-.22.89.27v46.1c0,2.77,2.02,5.24,4.78,5.5,3.16.3,5.82-2.18,5.82-5.27v-20.59c0-.51.41-.92.92-.92s.92.41.92.92v20.59c0,2.93,2.37,5.3,5.3,5.3h0c2.93,0,5.3-2.37,5.3-5.3v-46.33c0-.48.63-.67.89-.27l5.58,8.49c1.19,1.82,3.63,2.32,5.45,1.13h0c1.82-1.2,2.32-3.64,1.13-5.46Z"/>
      </g>
      <g>
        <circle class="st2" cx="72.01" cy="103.04" r="11.52" transform="translate(-44.75 149.64) rotate(-76.81)"/>
        <path class="st2" d="M96.59,136.6l-10.68-16.23c-1.48-2.25-3.99-3.6-6.68-3.6l-14.43.02c-2.68,0-5.18,1.35-6.66,3.59l-10.68,16.21c-1.2,1.82-.69,4.26,1.13,5.46h0c1.82,1.19,4.26.69,5.45-1.13l5.58-8.49c.27-.4.89-.22.89.27v46.1c0,2.77,2.02,5.24,4.78,5.5,3.16.3,5.82-2.18,5.82-5.27v-20.59c0-.51.41-.92.92-.92s.92.41.92.92v20.59c0,2.93,2.37,5.3,5.3,5.3h0c2.93,0,5.3-2.37,5.3-5.3v-46.33c0-.48.63-.67.89-.27l5.58,8.49c1.19,1.82,3.63,2.32,5.45,1.13h0c1.82-1.2,2.32-3.64,1.13-5.46Z"/>
      </g>
    </g>
    <g>
      <g>
        <circle class="st2" cx="301.99" cy="103.04" r="11.52" transform="translate(132.74 373.55) rotate(-76.81)"/>
        <path class="st2" d="M326.56,136.6l-10.68-16.23c-1.48-2.25-3.99-3.6-6.68-3.6l-14.43.02c-2.68,0-5.18,1.35-6.66,3.59l-10.68,16.21c-1.2,1.82-.69,4.26,1.13,5.46h0c1.82,1.19,4.26.69,5.45-1.13l5.58-8.49c.27-.4.89-.22.89.27v46.1c0,2.77,2.02,5.24,4.78,5.5,3.16.3,5.82-2.18,5.82-5.27v-20.59c0-.51.41-.92.92-.92s.92.41.92.92v20.59c0,2.93,2.37,5.3,5.3,5.3h0c2.93,0,5.3-2.37,5.3-5.3v-46.33c0-.48.63-.67.89-.27l5.58,8.49c1.19,1.82,3.63,2.32,5.45,1.13h0c1.82-1.2,2.32-3.64,1.13-5.46Z"/>
      </g>
      <g>
        <circle class="st2" cx="301.99" cy="103.04" r="11.52" transform="translate(132.74 373.55) rotate(-76.81)"/>
        <path class="st2" d="M326.56,136.6l-10.68-16.23c-1.48-2.25-3.99-3.6-6.68-3.6l-14.43.02c-2.68,0-5.18,1.35-6.66,3.59l-10.68,16.21c-1.2,1.82-.69,4.26,1.13,5.46h0c1.82,1.19,4.26.69,5.45-1.13l5.58-8.49c.27-.4.89-.22.89.27v46.1c0,2.77,2.02,5.24,4.78,5.5,3.16.3,5.82-2.18,5.82-5.27v-20.59c0-.51.41-.92.92-.92s.92.41.92.92v20.59c0,2.93,2.37,5.3,5.3,5.3h0c2.93,0,5.3-2.37,5.3-5.3v-46.33c0-.48.63-.67.89-.27l5.58,8.49c1.19,1.82,3.63,2.32,5.45,1.13h0c1.82-1.2,2.32-3.64,1.13-5.46Z"/>
      </g>
    </g>
    <g>
      <g>
        <circle class="st2" cx="186.33" cy="103.04" r="11.52" transform="translate(43.48 260.94) rotate(-76.81)"/>
        <path class="st2" d="M210.9,136.6l-10.68-16.23c-1.48-2.25-3.99-3.6-6.68-3.6l-14.43.02c-2.68,0-5.18,1.35-6.66,3.59l-10.68,16.21c-1.2,1.82-.69,4.26,1.13,5.46h0c1.82,1.19,4.26.69,5.45-1.13l5.58-8.49c.27-.4.89-.22.89.27v46.1c0,2.77,2.02,5.24,4.78,5.5,3.16.3,5.82-2.18,5.82-5.27v-20.59c0-.51.41-.92.92-.92s.92.41.92.92v20.59c0,2.93,2.37,5.3,5.3,5.3h0c2.93,0,5.3-2.37,5.3-5.3v-46.33c0-.48.63-.67.89-.27l5.58,8.49c1.19,1.82,3.63,2.32,5.45,1.13h0c1.82-1.2,2.32-3.64,1.13-5.46Z"/>
      </g>
      <g>
        <circle class="st2" cx="186.33" cy="103.04" r="11.52" transform="translate(43.48 260.94) rotate(-76.81)"/>
        <path class="st2" d="M210.9,136.6l-10.68-16.23c-1.48-2.25-3.99-3.6-6.68-3.6l-14.43.02c-2.68,0-5.18,1.35-6.66,3.59l-10.68,16.21c-1.2,1.82-.69,4.26,1.13,5.46h0c1.82,1.19,4.26.69,5.45-1.13l5.58-8.49c.27-.4.89-.22.89.27v46.1c0,2.77,2.02,5.24,4.78,5.5,3.16.3,5.82-2.18,5.82-5.27v-20.59c0-.51.41-.92.92-.92s.92.41.92.92v20.59c0,2.93,2.37,5.3,5.3,5.3h0c2.93,0,5.3-2.37,5.3-5.3v-46.33c0-.48.63-.67.89-.27l5.58,8.49c1.19,1.82,3.63,2.32,5.45,1.13h0c1.82-1.2,2.32-3.64,1.13-5.46Z"/>
      </g>
    </g>
    <g>
      <g>
        <circle class="st2" cx="244.35" cy="103.04" r="11.52" transform="translate(88.26 317.43) rotate(-76.81)"/>
        <path class="st2" d="M268.92,136.6l-10.68-16.23c-1.48-2.25-3.99-3.6-6.68-3.6l-14.43.02c-2.68,0-5.18,1.35-6.66,3.59l-10.68,16.21c-1.2,1.82-.69,4.26,1.13,5.46h0c1.82,1.19,4.26.69,5.45-1.13l5.58-8.49c.27-.4.89-.22.89.27v46.1c0,2.77,2.02,5.24,4.78,5.5,3.16.3,5.82-2.18,5.82-5.27v-20.59c0-.51.41-.92.92-.92s.92.41.92.92v20.59c0,2.93,2.37,5.3,5.3,5.3h0c2.93,0,5.3-2.37,5.3-5.3v-46.33c0-.48.63-.67.89-.27l5.58,8.49c1.19,1.82,3.63,2.32,5.45,1.13h0c1.82-1.2,2.32-3.64,1.13-5.46Z"/>
      </g>
      <g>
        <circle class="st2" cx="244.35" cy="103.04" r="11.52" transform="translate(88.26 317.43) rotate(-76.81)"/>
        <path class="st2" d="M268.92,136.6l-10.68-16.23c-1.48-2.25-3.99-3.6-6.68-3.6l-14.43.02c-2.68,0-5.18,1.35-6.66,3.59l-10.68,16.21c-1.2,1.82-.69,4.26,1.13,5.46h0c1.82,1.19,4.26.69,5.45-1.13l5.58-8.49c.27-.4.89-.22.89.27v46.1c0,2.77,2.02,5.24,4.78,5.5,3.16.3,5.82-2.18,5.82-5.27v-20.59c0-.51.41-.92.92-.92s.92.41.92.92v20.59c0,2.93,2.37,5.3,5.3,5.3h0c2.93,0,5.3-2.37,5.3-5.3v-46.33c0-.48.63-.67.89-.27l5.58,8.49c1.19,1.82,3.63,2.32,5.45,1.13h0c1.82-1.2,2.32-3.64,1.13-5.46Z"/>
      </g>
    </g>
  </g>
  <g>
    <g>
      <g>
        <circle class="st0" cx="129.45" cy="207.22" r="11.52" transform="translate(-101.84 285.96) rotate(-76.81)"/>
        <path class="st0" d="M154.02,240.78l-10.68-16.23c-1.48-2.25-3.99-3.6-6.68-3.6l-14.43.02c-2.68,0-5.18,1.35-6.66,3.59l-10.68,16.21c-1.2,1.82-.69,4.26,1.13,5.46h0c1.82,1.19,4.26.69,5.45-1.13l5.58-8.49c.27-.4.89-.22.89.27v46.1c0,2.77,2.02,5.24,4.78,5.5,3.16.3,5.82-2.18,5.82-5.27v-20.59c0-.51.41-.92.92-.92s.92.41.92.92v20.59c0,2.93,2.37,5.3,5.3,5.3h0c2.93,0,5.3-2.37,5.3-5.3v-46.33c0-.48.63-.67.89-.27l5.58,8.49c1.19,1.82,3.63,2.32,5.45,1.13h0c1.82-1.2,2.32-3.64,1.13-5.46Z"/>
      </g>
      <g>
        <circle class="st2" cx="129.45" cy="207.22" r="11.52" transform="translate(-101.84 285.96) rotate(-76.81)"/>
        <path class="st2" d="M154.02,240.78l-10.68-16.23c-1.48-2.25-3.99-3.6-6.68-3.6l-14.43.02c-2.68,0-5.18,1.35-6.66,3.59l-10.68,16.21c-1.2,1.82-.69,4.26,1.13,5.46h0c1.82,1.19,4.26.69,5.45-1.13l5.58-8.49c.27-.4.89-.22.89.27v46.1c0,2.77,2.02,5.24,4.78,5.5,3.16.3,5.82-2.18,5.82-5.27v-20.59c0-.51.41-.92.92-.92s.92.41.92.92v20.59c0,2.93,2.37,5.3,5.3,5.3h0c2.93,0,5.3-2.37,5.3-5.3v-46.33c0-.48.63-.67.89-.27l5.58,8.49c1.19,1.82,3.63,2.32,5.45,1.13h0c1.82-1.2,2.32-3.64,1.13-5.46Z"/>
      </g>
    </g>
    <g>
      <g>
        <circle class="st0" cx="72.01" cy="207.22" r="11.52" transform="translate(-146.17 230.04) rotate(-76.81)"/>
        <path class="st0" d="M96.59,240.78l-10.68-16.23c-1.48-2.25-3.99-3.6-6.68-3.6l-14.43.02c-2.68,0-5.18,1.35-6.66,3.59l-10.68,16.21c-1.2,1.82-.69,4.26,1.13,5.46h0c1.82,1.19,4.26.69,5.45-1.13l5.58-8.49c.27-.4.89-.22.89.27v46.1c0,2.77,2.02,5.24,4.78,5.5,3.16.3,5.82-2.18,5.82-5.27v-20.59c0-.51.41-.92.92-.92s.92.41.92.92v20.59c0,2.93,2.37,5.3,5.3,5.3h0c2.93,0,5.3-2.37,5.3-5.3v-46.33c0-.48.63-.67.89-.27l5.58,8.49c1.19,1.82,3.63,2.32,5.45,1.13h0c1.82-1.2,2.32-3.64,1.13-5.46Z"/>
      </g>
      <g>
        <circle class="st2" cx="72.01" cy="207.22" r="11.52" transform="translate(-146.17 230.04) rotate(-76.81)"/>
        <path class="st2" d="M96.59,240.78l-10.68-16.23c-1.48-2.25-3.99-3.6-6.68-3.6l-14.43.02c-2.68,0-5.18,1.35-6.66,3.59l-10.68,16.21c-1.2,1.82-.69,4.26,1.13,5.46h0c1.82,1.19,4.26.69,5.45-1.13l5.58-8.49c.27-.4.89-.22.89.27v46.1c0,2.77,2.02,5.24,4.78,5.5,3.16.3,5.82-2.18,5.82-5.27v-20.59c0-.51.41-.92.92-.92s.92.41.92.92v20.59c0,2.93,2.37,5.3,5.3,5.3h0c2.93,0,5.3-2.37,5.3-5.3v-46.33c0-.48.63-.67.89-.27l5.58,8.49c1.19,1.82,3.63,2.32,5.45,1.13h0c1.82-1.2,2.32-3.64,1.13-5.46Z"/>
      </g>
    </g>
    <g>
      <g>
        <circle class="st3" cx="301.99" cy="207.22" r="11.52" transform="translate(31.32 453.95) rotate(-76.81)"/>
        <path class="st3" d="M326.56,240.78l-10.68-16.23c-1.48-2.25-3.99-3.6-6.68-3.6l-14.43.02c-2.68,0-5.18,1.35-6.66,3.59l-10.68,16.21c-1.2,1.82-.69,4.26,1.13,5.46h0c1.82,1.19,4.26.69,5.45-1.13l5.58-8.49c.27-.4.89-.22.89.27v46.1c0,2.77,2.02,5.24,4.78,5.5,3.16.3,5.82-2.18,5.82-5.27v-20.59c0-.51.41-.92.92-.92s.92.41.92.92v20.59c0,2.93,2.37,5.3,5.3,5.3h0c2.93,0,5.3-2.37,5.3-5.3v-46.33c0-.48.63-.67.89-.27l5.58,8.49c1.19,1.82,3.63,2.32,5.45,1.13h0c1.82-1.2,2.32-3.64,1.13-5.46Z"/>
      </g>
      <g>
        <circle class="st3" cx="301.99" cy="207.22" r="11.52" transform="translate(31.32 453.95) rotate(-76.81)"/>
        <path class="st3" d="M326.56,240.78l-10.68-16.23c-1.48-2.25-3.99-3.6-6.68-3.6l-14.43.02c-2.68,0-5.18,1.35-6.66,3.59l-10.68,16.21c-1.2,1.82-.69,4.26,1.13,5.46h0c1.82,1.19,4.26.69,5.45-1.13l5.58-8.49c.27-.4.89-.22.89.27v46.1c0,2.77,2.02,5.24,4.78,5.5,3.16.3,5.82-2.18,5.82-5.27v-20.59c0-.51.41-.92.92-.92s.92.41.92.92v20.59c0,2.93,2.37,5.3,5.3,5.3h0c2.93,0,5.3-2.37,5.3-5.3v-46.33c0-.48.63-.67.89-.27l5.58,8.49c1.19,1.82,3.63,2.32,5.45,1.13h0c1.82-1.2,2.32-3.64,1.13-5.46Z"/>
      </g>
    </g>
    <g>
      <g>
        <circle class="st3" cx="186.33" cy="207.22" r="11.52" transform="translate(-57.95 341.34) rotate(-76.81)"/>
        <path class="st3" d="M210.9,240.78l-10.68-16.23c-1.48-2.25-3.99-3.6-6.68-3.6l-14.43.02c-2.68,0-5.18,1.35-6.66,3.59l-10.68,16.21c-1.2,1.82-.69,4.26,1.13,5.46h0c1.82,1.19,4.26.69,5.45-1.13l5.58-8.49c.27-.4.89-.22.89.27v46.1c0,2.77,2.02,5.24,4.78,5.5,3.16.3,5.82-2.18,5.82-5.27v-20.59c0-.51.41-.92.92-.92s.92.41.92.92v20.59c0,2.93,2.37,5.3,5.3,5.3h0c2.93,0,5.3-2.37,5.3-5.3v-46.33c0-.48.63-.67.89-.27l5.58,8.49c1.19,1.82,3.63,2.32,5.45,1.13h0c1.82-1.2,2.32-3.64,1.13-5.46Z"/>
      </g>
      <g>
        <circle class="st3" cx="186.33" cy="207.22" r="11.52" transform="translate(-57.95 341.34) rotate(-76.81)"/>
        <path class="st3" d="M210.9,240.78l-10.68-16.23c-1.48-2.25-3.99-3.6-6.68-3.6l-14.43.02c-2.68,0-5.18,1.35-6.66,3.59l-10.68,16.21c-1.2,1.82-.69,4.26,1.13,5.46h0c1.82,1.19,4.26.69,5.45-1.13l5.58-8.49c.27-.4.89-.22.89.27v46.1c0,2.77,2.02,5.24,4.78,5.5,3.16.3,5.82-2.18,5.82-5.27v-20.59c0-.51.41-.92.92-.92s.92.41.92.92v20.59c0,2.93,2.37,5.3,5.3,5.3h0c2.93,0,5.3-2.37,5.3-5.3v-46.33c0-.48.63-.67.89-.27l5.58,8.49c1.19,1.82,3.63,2.32,5.45,1.13h0c1.82-1.2,2.32-3.64,1.13-5.46Z"/>
      </g>
    </g>
    <g>
      <g>
        <circle class="st3" cx="244.35" cy="207.22" r="11.52" transform="translate(-13.17 397.83) rotate(-76.81)"/>
        <path class="st3" d="M268.92,240.78l-10.68-16.23c-1.48-2.25-3.99-3.6-6.68-3.6l-14.43.02c-2.68,0-5.18,1.35-6.66,3.59l-10.68,16.21c-1.2,1.82-.69,4.26,1.13,5.46h0c1.82,1.19,4.26.69,5.45-1.13l5.58-8.49c.27-.4.89-.22.89.27v46.1c0,2.77,2.02,5.24,4.78,5.5,3.16.3,5.82-2.18,5.82-5.27v-20.59c0-.51.41-.92.92-.92s.92.41.92.92v20.59c0,2.93,2.37,5.3,5.3,5.3h0c2.93,0,5.3-2.37,5.3-5.3v-46.33c0-.48.63-.67.89-.27l5.58,8.49c1.19,1.82,3.63,2.32,5.45,1.13h0c1.82-1.2,2.32-3.64,1.13-5.46Z"/>
      </g>
      <g>
        <circle class="st3" cx="244.35" cy="207.22" r="11.52" transform="translate(-13.17 397.83) rotate(-76.81)"/>
        <path class="st3" d="M268.92,240.78l-10.68-16.23c-1.48-2.25-3.99-3.6-6.68-3.6l-14.43.02c-2.68,0-5.18,1.35-6.66,3.59l-10.68,16.21c-1.2,1.82-.69,4.26,1.13,5.46h0c1.82,1.19,4.26.69,5.45-1.13l5.58-8.49c.27-.4.89-.22.89.27v46.1c0,2.77,2.02,5.24,4.78,5.5,3.16.3,5.82-2.18,5.82-5.27v-20.59c0-.51.41-.92.92-.92s.92.41.92.92v20.59c0,2.93,2.37,5.3,5.3,5.3h0c2.93,0,5.3-2.37,5.3-5.3v-46.33c0-.48.63-.67.89-.27l5.58,8.49c1.19,1.82,3.63,2.32,5.45,1.13h0c1.82-1.2,2.32-3.64,1.13-5.46Z"/>
      </g>
    </g>
  </g>
  <g>
    <g>
      <g>
        <path class="st1" d="M86.79,336.52c.06-1.26.17-2.42.35-3.48s.42-2.05.74-2.99.72-1.84,1.2-2.74,1.07-1.8,1.76-2.72h-6.71v-1.49h8.65v1.07c-.8,1.01-1.46,1.98-1.99,2.91-.53.93-.94,1.88-1.24,2.83s-.52,1.96-.66,3.03c-.14,1.07-.24,2.26-.29,3.58h-1.79Z"/>
        <path class="st1" d="M98.89,336.77c-1.35,0-2.4-.61-3.17-1.82-.76-1.21-1.15-2.94-1.15-5.19s.38-3.98,1.15-5.15c.76-1.18,1.82-1.77,3.17-1.77s2.38.59,3.15,1.78c.76,1.19,1.15,2.9,1.15,5.14s-.38,3.97-1.15,5.19c-.76,1.21-1.81,1.82-3.15,1.82ZM98.89,335.38c.52,0,.97-.2,1.37-.59s.7-1,.92-1.83c.22-.83.33-1.89.33-3.2s-.11-2.38-.33-3.2-.52-1.41-.92-1.78c-.39-.37-.85-.56-1.37-.56s-1,.19-1.39.56c-.39.37-.7.96-.92,1.78s-.33,1.88-.33,3.2.11,2.37.33,3.2c.22.83.52,1.44.92,1.83s.86.59,1.39.59Z"/>
        <path class="st1" d="M105.52,340.09l-.42-1.01c.6-.27,1.07-.63,1.41-1.08.34-.46.5-.96.48-1.53l-.19-1.56.86,1.26c-.13.13-.26.22-.41.27-.15.06-.31.08-.47.08-.34,0-.63-.11-.87-.32-.25-.21-.37-.5-.37-.88s.13-.68.39-.89c.26-.22.56-.33.89-.33.46,0,.82.18,1.07.54.25.36.38.86.38,1.5,0,.9-.25,1.69-.74,2.38s-1.16,1.21-2.02,1.56Z"/>
        <path class="st1" d="M114.27,336.77c-.72,0-1.35-.09-1.89-.26-.55-.17-1.02-.4-1.43-.68-.41-.28-.76-.58-1.07-.88l.84-1.14c.41.39.88.75,1.41,1.06.53.32,1.19.47,1.98.47.55,0,1.04-.13,1.48-.38.44-.25.8-.61,1.06-1.06s.4-1,.4-1.63c0-.92-.26-1.65-.78-2.17-.52-.52-1.21-.78-2.08-.78-.45,0-.84.07-1.18.21-.34.14-.71.34-1.11.61l-.93-.59.44-6.46h6.71v1.49h-5.2l-.36,3.98c.32-.17.64-.3.97-.4.32-.1.69-.15,1.09-.15.77,0,1.47.15,2.1.44.63.29,1.13.75,1.5,1.38.37.62.56,1.42.56,2.39s-.21,1.79-.64,2.47c-.43.68-.99,1.2-1.67,1.55-.69.35-1.42.53-2.21.53Z"/>
        <path class="st1" d="M123.67,331.17c-.63,0-1.18-.17-1.65-.51-.47-.34-.83-.84-1.09-1.49-.26-.65-.39-1.44-.39-2.37,0-1.39.29-2.46.86-3.21.58-.75,1.33-1.12,2.27-1.12s1.7.38,2.27,1.12c.58.75.86,1.82.86,3.21,0,.92-.13,1.71-.39,2.37s-.62,1.15-1.09,1.49c-.47.34-1.02.51-1.65.51ZM123.67,330.1c.55,0,.99-.28,1.31-.83s.49-1.38.49-2.47-.17-1.93-.49-2.46-.77-.8-1.31-.8-.97.27-1.32.8-.51,1.35-.51,2.46.17,1.92.51,2.47.78.83,1.32.83ZM124.07,336.77l7.62-14.31h1.18l-7.62,14.31h-1.18ZM133.29,336.77c-.63,0-1.18-.17-1.65-.52-.47-.34-.83-.84-1.09-1.49s-.39-1.44-.39-2.37c0-1.39.29-2.46.86-3.21.58-.75,1.33-1.13,2.27-1.13s1.7.38,2.27,1.13c.58.75.86,1.82.86,3.21,0,.93-.13,1.71-.39,2.37-.26.65-.62,1.15-1.09,1.49-.47.34-1.02.52-1.65.52ZM133.29,335.69c.55,0,.98-.28,1.31-.83.33-.55.49-1.38.49-2.47s-.17-1.93-.49-2.46c-.33-.53-.77-.8-1.31-.8s-.97.27-1.32.8c-.34.53-.52,1.35-.52,2.46s.17,1.92.52,2.47.78.83,1.32.83Z"/>
        <path class="st1" d="M143.07,336.52v-10.22h1.43l.15,1.47h.06c.49-.49,1.01-.9,1.56-1.23.55-.33,1.17-.49,1.87-.49,1.08,0,1.87.34,2.37,1.02.5.68.75,1.67.75,2.98v6.48h-1.72v-6.25c0-.97-.15-1.67-.45-2.09-.3-.43-.8-.64-1.48-.64-.52,0-.99.13-1.4.4-.41.27-.88.66-1.4,1.18v7.41h-1.73Z"/>
        <path class="st1" d="M156.93,336.77c-.56,0-1.07-.12-1.53-.35-.46-.23-.82-.56-1.08-.99s-.4-.95-.4-1.57c0-1.15.5-2.02,1.51-2.61,1.01-.59,2.61-1,4.8-1.24-.01-.42-.08-.83-.2-1.22-.12-.39-.33-.71-.64-.95-.31-.24-.74-.36-1.28-.36-.59,0-1.14.11-1.66.33-.52.22-.98.46-1.39.73l-.67-1.18c.31-.21.67-.42,1.09-.62s.88-.37,1.37-.5c.49-.13,1.01-.2,1.56-.2.83,0,1.5.17,2.03.52.53.34.91.83,1.16,1.46.25.63.37,1.38.37,2.23v6.27h-1.43l-.15-1.22h-.06c-.49.41-1.02.75-1.58,1.04-.56.29-1.16.43-1.81.43ZM159.98,324.38c-.37,0-.68-.09-.96-.26-.27-.17-.52-.38-.75-.62-.22-.24-.44-.44-.64-.62-.2-.17-.42-.26-.66-.26-.31,0-.54.15-.69.45s-.25.7-.29,1.21l-1.16-.06c.01-.56.1-1.06.25-1.48s.38-.76.68-1.01c.3-.25.7-.37,1.19-.37.38,0,.7.09.97.26.27.18.51.38.74.62.22.24.44.45.64.62.2.18.43.26.68.26.31,0,.54-.15.69-.46.15-.31.25-.71.27-1.2l1.16.08c-.01.53-.1,1.01-.25,1.44s-.38.77-.68,1.02c-.3.25-.7.38-1.19.38ZM157.41,335.34c.5,0,.98-.11,1.42-.34.44-.22.91-.55,1.4-.99v-2.76c-1.15.14-2.06.32-2.72.54-.67.22-1.15.49-1.44.81-.29.32-.44.71-.44,1.16,0,.56.17.96.53,1.21s.77.37,1.26.37Z"/>
        <path class="st1" d="M169.15,336.77c-.83,0-1.6-.21-2.32-.63-.72-.42-1.3-1.03-1.75-1.83-.44-.8-.66-1.76-.66-2.88s.22-2.12.66-2.92c.44-.8,1.02-1.41,1.75-1.83.72-.42,1.5-.63,2.32-.63s1.62.21,2.33.63c.72.42,1.29,1.03,1.74,1.83.44.8.66,1.77.66,2.92s-.22,2.08-.66,2.88c-.44.8-1.02,1.41-1.74,1.83-.71.42-1.49.63-2.33.63ZM169.15,335.34c.59,0,1.11-.17,1.56-.5.45-.33.79-.79,1.03-1.38.24-.59.36-1.27.36-2.04s-.12-1.48-.36-2.07c-.24-.6-.58-1.06-1.03-1.39-.45-.33-.97-.49-1.56-.49s-1.1.17-1.55.49c-.44.33-.79.79-1.03,1.39s-.37,1.29-.37,2.07.12,1.45.37,2.04c.25.59.59,1.05,1.03,1.38.44.33.96.5,1.55.5Z"/>
        <path class="st1" d="M184.93,336.77c-.91,0-1.74-.21-2.49-.64-.75-.43-1.34-1.04-1.78-1.83-.43-.79-.65-1.76-.65-2.89s.22-2.06.67-2.86c.45-.8,1.02-1.42,1.72-1.85s1.44-.65,2.23-.65c.87,0,1.61.2,2.22.6.61.4,1.07.96,1.38,1.67.31.71.46,1.56.46,2.52,0,.18,0,.36,0,.53,0,.17-.03.34-.07.5h-7.36v-1.37h5.89c0-.98-.21-1.74-.64-2.26-.43-.53-1.04-.79-1.84-.79-.46,0-.92.13-1.37.39-.45.26-.82.68-1.1,1.25-.29.58-.43,1.34-.43,2.29,0,.87.15,1.6.45,2.19.3.59.71,1.03,1.23,1.34.52.3,1.09.45,1.7.45.49,0,.95-.07,1.38-.21.43-.14.82-.33,1.17-.57l.63,1.14c-.45.31-.95.56-1.5.76s-1.18.29-1.88.29Z"/>
        <path class="st1" d="M193.89,336.77c-.74,0-1.45-.13-2.11-.39s-1.23-.62-1.69-1.08l.8-1.01c.45.36.92.64,1.4.84.48.2,1.04.29,1.67.29.67,0,1.18-.16,1.51-.47s.5-.69.5-1.12c0-.35-.12-.64-.35-.87-.23-.23-.52-.43-.86-.59-.34-.16-.71-.31-1.1-.45-.5-.18-.99-.4-1.45-.64-.46-.25-.84-.55-1.13-.93-.29-.37-.43-.84-.43-1.4,0-.83.31-1.52.94-2.07s1.49-.83,2.6-.83c.63,0,1.22.11,1.77.33.55.22,1.02.49,1.41.83l-.8.99c-.36-.25-.74-.45-1.12-.59-.38-.14-.8-.21-1.26-.21-.65,0-1.12.15-1.42.44-.3.29-.45.64-.45,1.03,0,.31.09.56.27.77.18.2.44.38.77.54.33.15.71.3,1.12.44.53.2,1.04.42,1.53.66.48.25.88.56,1.18.95.3.39.45.89.45,1.5,0,.56-.14,1.07-.43,1.53s-.71.82-1.26,1.1c-.55.28-1.24.42-2.05.42Z"/>
        <path class="st1" d="M202.83,336.7c-1.08,0-1.84-.32-2.27-.95-.43-.63-.65-1.45-.65-2.46v-5.6h-1.51v-1.3l1.6-.1.21-3.28h1.45v3.28h2.78v1.41h-2.78v5.62c0,.62.12,1.1.35,1.45.23.35.64.53,1.23.53.18,0,.37-.02.57-.05s.39-.1.59-.2l.38,1.22c-.27.13-.57.23-.9.32-.34.08-.68.13-1.03.13Z"/>
        <path class="st1" d="M208.64,336.77c-.56,0-1.07-.12-1.53-.35-.46-.23-.82-.56-1.08-.99s-.4-.95-.4-1.57c0-1.15.5-2.02,1.51-2.61,1.01-.59,2.61-1,4.8-1.24-.01-.42-.08-.83-.2-1.22-.12-.39-.33-.71-.64-.95-.31-.24-.74-.36-1.28-.36-.59,0-1.14.11-1.66.33-.52.22-.98.46-1.39.73l-.67-1.18c.31-.21.67-.42,1.09-.62s.88-.37,1.37-.5c.49-.13,1.01-.2,1.56-.2.83,0,1.5.17,2.03.52.53.34.91.83,1.16,1.46.25.63.37,1.38.37,2.23v6.27h-1.43l-.15-1.22h-.06c-.49.41-1.02.75-1.58,1.04-.56.29-1.16.43-1.81.43ZM209.12,335.34c.5,0,.98-.11,1.42-.34.44-.22.91-.55,1.4-.99v-2.76c-1.15.14-2.06.32-2.72.54-.67.22-1.15.49-1.44.81-.29.32-.44.71-.44,1.16,0,.56.17.96.53,1.21s.77.37,1.26.37Z"/>
        <path class="st1" d="M219.09,336.52l-3.68-10.22h1.79l1.93,5.81c.15.49.31.99.47,1.5.16.51.32,1.01.47,1.5h.08c.14-.49.29-.99.46-1.5.17-.51.32-1.01.46-1.5l1.94-5.81h1.7l-3.62,10.22h-2.02Z"/>
        <path class="st1" d="M228.65,336.77c-.56,0-1.07-.12-1.53-.35-.46-.23-.82-.56-1.08-.99s-.4-.95-.4-1.57c0-1.15.5-2.02,1.51-2.61,1.01-.59,2.61-1,4.8-1.24-.01-.42-.08-.83-.2-1.22-.12-.39-.33-.71-.64-.95-.31-.24-.74-.36-1.28-.36-.59,0-1.14.11-1.66.33-.52.22-.98.46-1.39.73l-.67-1.18c.31-.21.67-.42,1.09-.62s.88-.37,1.37-.5c.49-.13,1.01-.2,1.56-.2.83,0,1.5.17,2.03.52.53.34.91.83,1.16,1.46.25.63.37,1.38.37,2.23v6.27h-1.43l-.15-1.22h-.06c-.49.41-1.02.75-1.58,1.04-.56.29-1.16.43-1.81.43ZM229.13,335.34c.5,0,.98-.11,1.42-.34.44-.22.91-.55,1.4-.99v-2.76c-1.15.14-2.06.32-2.72.54-.67.22-1.15.49-1.44.81-.29.32-.44.71-.44,1.16,0,.56.17.96.53,1.21s.77.37,1.26.37Z"/>
        <path class="st1" d="M236.89,336.52v-10.22h1.43l.15,1.47h.06c.45-.48.94-.88,1.46-1.22.53-.34,1.1-.5,1.71-.5.79,0,1.4.18,1.84.53.44.35.77.83.98,1.43.53-.59,1.07-1.06,1.62-1.42.55-.36,1.13-.54,1.75-.54,1.07,0,1.85.34,2.36,1.02s.76,1.67.76,2.98v6.48h-1.72v-6.25c0-.97-.15-1.67-.46-2.09s-.79-.64-1.43-.64c-.41,0-.82.13-1.23.39-.41.26-.86.66-1.34,1.19v7.41h-1.73v-6.25c0-.97-.15-1.67-.46-2.09s-.79-.64-1.45-.64c-.77,0-1.63.53-2.57,1.58v7.41h-1.73Z"/>
        <path class="st1" d="M258.54,336.52v-10.22h1.43l.15,1.47h.06c.45-.48.94-.88,1.46-1.22.53-.34,1.1-.5,1.71-.5.79,0,1.4.18,1.84.53.44.35.77.83.98,1.43.53-.59,1.07-1.06,1.62-1.42.55-.36,1.13-.54,1.75-.54,1.07,0,1.85.34,2.36,1.02s.76,1.67.76,2.98v6.48h-1.72v-6.25c0-.97-.15-1.67-.46-2.09s-.79-.64-1.43-.64c-.41,0-.82.13-1.23.39-.41.26-.86.66-1.34,1.19v7.41h-1.73v-6.25c0-.97-.15-1.67-.46-2.09s-.79-.64-1.45-.64c-.77,0-1.63.53-2.57,1.58v7.41h-1.73Z"/>
        <path class="st1" d="M278.33,336.77c-.56,0-1.07-.12-1.53-.35-.46-.23-.82-.56-1.08-.99s-.4-.95-.4-1.57c0-1.15.5-2.02,1.51-2.61,1.01-.59,2.61-1,4.8-1.24-.01-.42-.08-.83-.2-1.22-.12-.39-.33-.71-.64-.95-.31-.24-.74-.36-1.28-.36-.59,0-1.14.11-1.66.33-.52.22-.98.46-1.39.73l-.67-1.18c.31-.21.67-.42,1.09-.62s.88-.37,1.37-.5c.49-.13,1.01-.2,1.56-.2.83,0,1.5.17,2.03.52.53.34.91.83,1.16,1.46.25.63.37,1.38.37,2.23v6.27h-1.43l-.15-1.22h-.06c-.49.41-1.02.75-1.58,1.04-.56.29-1.16.43-1.81.43ZM278.82,335.34c.5,0,.98-.11,1.42-.34.44-.22.91-.55,1.4-.99v-2.76c-1.15.14-2.06.32-2.72.54-.67.22-1.15.49-1.44.81-.29.32-.44.71-.44,1.16,0,.56.17.96.53,1.21s.77.37,1.26.37Z"/>
        <path class="st1" d="M289.51,336.7c-1.08,0-1.84-.32-2.27-.95-.43-.63-.65-1.45-.65-2.46v-5.6h-1.51v-1.3l1.6-.1.21-3.28h1.45v3.28h2.78v1.41h-2.78v5.62c0,.62.12,1.1.35,1.45.23.35.64.53,1.23.53.18,0,.37-.02.57-.05s.39-.1.59-.2l.38,1.22c-.27.13-.57.23-.9.32-.34.08-.68.13-1.03.13Z"/>
        <path class="st1" d="M293.4,336.52v-10.22h1.43l.15,1.85h.06c.34-.64.76-1.16,1.26-1.54.5-.38,1.05-.57,1.64-.57.22,0,.42.01.59.04.17.03.34.08.5.17l-.38,1.47c-.15-.04-.3-.07-.43-.09-.13-.02-.3-.03-.51-.03-.44,0-.89.18-1.36.53s-.88.96-1.23,1.83v6.56h-1.73Z"/>
        <path class="st1" d="M301.56,324.19c-.34,0-.61-.1-.83-.32-.22-.21-.33-.48-.33-.82s.11-.61.33-.82c.22-.21.49-.32.83-.32s.61.1.83.32c.22.21.33.48.33.82s-.11.61-.33.82c-.22.21-.5.32-.83.32ZM300.7,336.52v-10.22h1.73v10.22h-1.73Z"/>
        <path class="st1" d="M309.93,336.77c-.91,0-1.73-.21-2.46-.63-.73-.42-1.3-1.03-1.73-1.83s-.63-1.76-.63-2.88.23-2.12.68-2.92c.46-.8,1.06-1.41,1.81-1.83.75-.42,1.56-.63,2.43-.63.67,0,1.25.11,1.74.34s.9.51,1.25.86l-.86,1.07c-.25-.25-.55-.45-.89-.6-.34-.15-.73-.22-1.17-.22-.6,0-1.15.17-1.63.5-.48.33-.87.79-1.15,1.38-.28.59-.42,1.28-.42,2.06s.13,1.45.4,2.04c.27.59.64,1.05,1.12,1.38.48.33,1.03.5,1.66.5.48,0,.92-.09,1.33-.27.41-.18.76-.41,1.05-.69l.76,1.05c-.44.41-.93.73-1.47.98-.55.25-1.15.37-1.81.37Z"/>
        <path class="st1" d="M318.45,336.77c-1.08,0-1.87-.34-2.37-1.02-.5-.68-.75-1.67-.75-2.98v-6.48h1.73v6.25c0,.95.15,1.64.45,2.07.3.43.79.64,1.46.64.52,0,.99-.14,1.4-.41.41-.27.87-.7,1.36-1.29v-7.26h1.72v10.22h-1.43l-.15-1.6h-.06c-.46.56-.96,1.01-1.5,1.35-.54.34-1.16.51-1.86.51Z"/>
        <path class="st1" d="M328.74,336.7c-.44,0-.79-.09-1.05-.26-.27-.18-.46-.43-.59-.78-.13-.34-.19-.76-.19-1.25v-12.88h1.73v13c0,.28.05.47.15.58.1.11.22.16.36.16.06,0,.11,0,.16-.01.05,0,.12-.02.2-.03l.25,1.3c-.13.04-.27.08-.43.12s-.35.05-.58.05Z"/>
        <path class="st1" d="M334.63,336.77c-.56,0-1.07-.12-1.53-.35-.46-.23-.82-.56-1.08-.99s-.4-.95-.4-1.57c0-1.15.5-2.02,1.51-2.61,1.01-.59,2.61-1,4.8-1.24-.01-.42-.08-.83-.2-1.22-.12-.39-.33-.71-.64-.95-.31-.24-.74-.36-1.28-.36-.59,0-1.14.11-1.66.33-.52.22-.98.46-1.39.73l-.67-1.18c.31-.21.67-.42,1.09-.62s.88-.37,1.37-.5c.49-.13,1.01-.2,1.56-.2.83,0,1.5.17,2.03.52.53.34.91.83,1.16,1.46.25.63.37,1.38.37,2.23v6.27h-1.43l-.15-1.22h-.06c-.49.41-1.02.75-1.58,1.04-.56.29-1.16.43-1.81.43ZM335.11,335.34c.5,0,.98-.11,1.42-.34.44-.22.91-.55,1.4-.99v-2.76c-1.15.14-2.06.32-2.72.54-.67.22-1.15.49-1.44.81-.29.32-.44.71-.44,1.16,0,.56.17.96.53,1.21s.77.37,1.26.37Z"/>
        <path class="st1" d="M346.37,336.77c-1.29,0-2.32-.47-3.08-1.4-.76-.93-1.15-2.25-1.15-3.94,0-1.11.21-2.07.62-2.87.41-.81.96-1.43,1.63-1.86.67-.43,1.4-.65,2.19-.65.6,0,1.12.1,1.55.3.43.2.87.5,1.32.87l-.08-1.75v-3.93h1.75v14.98h-1.43l-.15-1.2h-.06c-.39.39-.86.73-1.39,1.02s-1.1.43-1.7.43ZM346.75,335.32c.48,0,.93-.12,1.35-.36s.84-.59,1.26-1.05v-5.34c-.42-.39-.83-.67-1.24-.83-.41-.16-.82-.24-1.24-.24-.55,0-1.04.17-1.48.5-.44.33-.8.79-1.06,1.37s-.4,1.27-.4,2.05c0,1.22.25,2.18.74,2.87.49.69,1.18,1.04,2.08,1.04Z"/>
        <path class="st1" d="M356.91,336.77c-.56,0-1.07-.12-1.53-.35-.46-.23-.82-.56-1.08-.99s-.4-.95-.4-1.57c0-1.15.5-2.02,1.51-2.61,1.01-.59,2.61-1,4.8-1.24-.01-.42-.08-.83-.2-1.22-.12-.39-.33-.71-.64-.95-.31-.24-.74-.36-1.28-.36-.59,0-1.14.11-1.66.33-.52.22-.98.46-1.39.73l-.67-1.18c.31-.21.67-.42,1.09-.62s.88-.37,1.37-.5c.49-.13,1.01-.2,1.56-.2.83,0,1.5.17,2.03.52.53.34.91.83,1.16,1.46.25.63.37,1.38.37,2.23v6.27h-1.43l-.15-1.22h-.06c-.49.41-1.02.75-1.58,1.04-.56.29-1.16.43-1.81.43ZM357.39,335.34c.5,0,.98-.11,1.42-.34.44-.22.91-.55,1.4-.99v-2.76c-1.15.14-2.06.32-2.72.54-.67.22-1.15.49-1.44.81-.29.32-.44.71-.44,1.16,0,.56.17.96.53,1.21s.77.37,1.26.37Z"/>
        <path class="st1" d="M367.83,336.77c-.74,0-1.45-.13-2.11-.39s-1.23-.62-1.69-1.08l.8-1.01c.45.36.92.64,1.4.84.48.2,1.04.29,1.67.29.67,0,1.18-.16,1.51-.47s.5-.69.5-1.12c0-.35-.12-.64-.35-.87-.23-.23-.52-.43-.86-.59-.34-.16-.71-.31-1.1-.45-.5-.18-.99-.4-1.45-.64-.46-.25-.84-.55-1.13-.93-.29-.37-.43-.84-.43-1.4,0-.83.31-1.52.94-2.07s1.49-.83,2.6-.83c.63,0,1.22.11,1.77.33.55.22,1.02.49,1.41.83l-.8.99c-.36-.25-.74-.45-1.12-.59-.38-.14-.8-.21-1.26-.21-.65,0-1.12.15-1.42.44-.3.29-.45.64-.45,1.03,0,.31.09.56.27.77.18.2.44.38.77.54.33.15.71.3,1.12.44.53.2,1.04.42,1.53.66.48.25.88.56,1.18.95.3.39.45.89.45,1.5,0,.56-.14,1.07-.43,1.53s-.71.82-1.26,1.1c-.55.28-1.24.42-2.05.42Z"/>
      </g>
      <rect class="st0" x="16.36" y="325.28" width="53.49" height="13.49" rx="4.81" ry="4.81"/>
    </g>
    <g>
      <g>
        <path class="st1" d="M85.33,370.3v-1.05c1.33-1.32,2.47-2.49,3.42-3.5.95-1.02,1.67-1.94,2.16-2.77.49-.83.74-1.6.74-2.31,0-.77-.21-1.4-.63-1.89s-1.06-.74-1.91-.74c-.56,0-1.08.15-1.56.46-.48.31-.91.69-1.3,1.16l-.97-.95c.56-.63,1.16-1.14,1.8-1.51.64-.38,1.38-.57,2.24-.57s1.54.17,2.15.49c.6.33,1.07.79,1.39,1.38s.48,1.28.48,2.06c0,.87-.24,1.73-.73,2.59-.48.86-1.15,1.75-1.99,2.69-.84.94-1.81,1.97-2.9,3.09.36-.04.74-.07,1.14-.09.39-.02.76-.03,1.12-.03h4.04v1.49h-8.67Z"/>
        <path class="st1" d="M99.26,370.56c-.71,0-1.34-.14-1.87-.41s-.99-.61-1.37-1l.97-1.09c.28.32.61.58,1,.78s.79.29,1.21.29c.64,0,1.23-.19,1.77-.58s.96-1.02,1.29-1.89c.33-.88.49-2.06.49-3.57,0-1.11-.12-2.04-.36-2.79s-.58-1.32-1.02-1.71c-.44-.39-.99-.59-1.63-.59-.44,0-.83.12-1.18.37s-.63.59-.84,1.03c-.21.44-.32.96-.32,1.55s.09,1.08.28,1.5.47.76.83.99c.36.23.82.35,1.37.35.43,0,.91-.14,1.43-.43.52-.29,1-.77,1.45-1.46l.06,1.37c-.41.56-.9,1.01-1.49,1.34-.59.33-1.17.5-1.75.5-.77,0-1.45-.15-2.02-.46-.58-.31-1.02-.77-1.33-1.39-.31-.62-.46-1.38-.46-2.29,0-.86.18-1.61.54-2.26s.84-1.16,1.44-1.51c.6-.36,1.26-.54,1.98-.54.66,0,1.27.13,1.84.4.57.27,1.06.67,1.47,1.21.41.54.74,1.21.97,2.02s.35,1.75.35,2.83c0,1.35-.14,2.5-.42,3.45s-.66,1.72-1.14,2.31c-.48.59-1.02,1.02-1.63,1.29-.61.27-1.25.41-1.92.41Z"/>
        <path class="st1" d="M106.81,373.88l-.42-1.01c.6-.27,1.07-.63,1.41-1.08.34-.46.5-.96.48-1.53l-.19-1.56.86,1.26c-.13.13-.26.22-.41.27-.15.06-.31.08-.47.08-.34,0-.63-.11-.87-.32-.25-.21-.37-.5-.37-.88s.13-.68.39-.89c.26-.22.56-.33.89-.33.46,0,.82.18,1.07.54.25.36.38.86.38,1.5,0,.9-.25,1.69-.74,2.38s-1.16,1.21-2.02,1.56Z"/>
        <path class="st1" d="M115.56,370.56c-.72,0-1.35-.09-1.89-.26-.55-.17-1.02-.4-1.43-.68-.41-.28-.76-.58-1.07-.88l.84-1.14c.41.39.88.75,1.41,1.06.53.32,1.19.47,1.98.47.55,0,1.04-.13,1.48-.38.44-.25.8-.61,1.06-1.06s.4-1,.4-1.63c0-.92-.26-1.65-.78-2.17-.52-.52-1.21-.78-2.08-.78-.45,0-.84.07-1.18.21-.34.14-.71.34-1.11.61l-.93-.59.44-6.46h6.71v1.49h-5.2l-.36,3.98c.32-.17.64-.3.97-.4.32-.1.69-.15,1.09-.15.77,0,1.47.15,2.1.44.63.29,1.13.75,1.5,1.38.37.62.56,1.42.56,2.39s-.21,1.79-.64,2.47c-.43.68-.99,1.2-1.67,1.55-.69.35-1.42.53-2.21.53Z"/>
        <path class="st1" d="M124.96,364.96c-.63,0-1.18-.17-1.65-.51-.47-.34-.83-.84-1.09-1.49-.26-.65-.39-1.44-.39-2.37,0-1.39.29-2.46.86-3.21.58-.75,1.33-1.12,2.27-1.12s1.7.38,2.27,1.12c.58.75.86,1.82.86,3.21,0,.92-.13,1.71-.39,2.37s-.62,1.15-1.09,1.49c-.47.34-1.02.51-1.65.51ZM124.96,363.89c.55,0,.99-.28,1.31-.83s.49-1.38.49-2.47-.17-1.93-.49-2.46-.77-.8-1.31-.8-.97.27-1.32.8-.51,1.35-.51,2.46.17,1.92.51,2.47.78.83,1.32.83ZM125.36,370.56l7.62-14.31h1.18l-7.62,14.31h-1.18ZM134.58,370.56c-.63,0-1.18-.17-1.65-.52-.47-.34-.83-.84-1.09-1.49s-.39-1.44-.39-2.37c0-1.39.29-2.46.86-3.21.58-.75,1.33-1.13,2.27-1.13s1.7.38,2.27,1.13c.58.75.86,1.82.86,3.21,0,.93-.13,1.71-.39,2.37-.26.65-.62,1.15-1.09,1.49-.47.34-1.02.52-1.65.52ZM134.58,369.48c.55,0,.98-.28,1.31-.83.33-.55.49-1.38.49-2.47s-.17-1.93-.49-2.46c-.33-.53-.77-.8-1.31-.8s-.97.27-1.32.8c-.34.53-.52,1.35-.52,2.46s.17,1.92.52,2.47.78.83,1.32.83Z"/>
        <path class="st1" d="M148.5,370.56c-.91,0-1.74-.21-2.49-.64-.75-.43-1.34-1.04-1.78-1.83-.43-.79-.65-1.76-.65-2.89s.22-2.06.67-2.86c.45-.8,1.02-1.42,1.72-1.85s1.44-.65,2.23-.65c.87,0,1.61.2,2.22.6.61.4,1.07.96,1.38,1.67.31.71.46,1.56.46,2.52,0,.18,0,.36,0,.53,0,.17-.03.34-.07.5h-7.36v-1.37h5.89c0-.98-.21-1.74-.64-2.26-.43-.53-1.04-.79-1.84-.79-.46,0-.92.13-1.37.39-.45.26-.82.68-1.1,1.25-.29.58-.43,1.34-.43,2.29,0,.87.15,1.6.45,2.19.3.59.71,1.03,1.23,1.34.52.3,1.09.45,1.7.45.49,0,.95-.07,1.38-.21.43-.14.82-.33,1.17-.57l.63,1.14c-.45.31-.95.56-1.5.76s-1.18.29-1.88.29Z"/>
        <path class="st1" d="M157.46,370.56c-.74,0-1.45-.13-2.11-.39s-1.23-.62-1.69-1.08l.8-1.01c.45.36.92.64,1.4.84.48.2,1.04.29,1.67.29.67,0,1.18-.16,1.51-.47s.5-.69.5-1.12c0-.35-.12-.64-.35-.87-.23-.23-.52-.43-.86-.59-.34-.16-.71-.31-1.1-.45-.5-.18-.99-.4-1.45-.64-.46-.25-.84-.55-1.13-.93-.29-.37-.43-.84-.43-1.4,0-.83.31-1.52.94-2.07s1.49-.83,2.6-.83c.63,0,1.22.11,1.77.33.55.22,1.02.49,1.41.83l-.8.99c-.36-.25-.74-.45-1.12-.59-.38-.14-.8-.21-1.26-.21-.65,0-1.12.15-1.42.44-.3.29-.45.64-.45,1.03,0,.31.09.56.27.77.18.2.44.38.77.54.33.15.71.3,1.12.44.53.2,1.04.42,1.53.66.48.25.88.56,1.18.95.3.39.45.89.45,1.5,0,.56-.14,1.07-.43,1.53s-.71.82-1.26,1.1c-.55.28-1.24.42-2.05.42Z"/>
        <path class="st1" d="M166.41,370.49c-1.08,0-1.84-.32-2.27-.95-.43-.63-.65-1.45-.65-2.46v-5.6h-1.51v-1.3l1.6-.1.21-3.28h1.45v3.28h2.78v1.41h-2.78v5.62c0,.62.12,1.1.35,1.45.23.35.64.53,1.23.53.18,0,.37-.02.57-.05s.39-.1.59-.2l.38,1.22c-.27.13-.57.23-.9.32-.34.08-.68.13-1.03.13Z"/>
        <path class="st1" d="M172.21,370.56c-.56,0-1.07-.12-1.53-.35-.46-.23-.82-.56-1.08-.99s-.4-.95-.4-1.57c0-1.15.5-2.02,1.51-2.61,1.01-.59,2.61-1,4.8-1.24-.01-.42-.08-.83-.2-1.22-.12-.39-.33-.71-.64-.95-.31-.24-.74-.36-1.28-.36-.59,0-1.14.11-1.66.33-.52.22-.98.46-1.39.73l-.67-1.18c.31-.21.67-.42,1.09-.62s.88-.37,1.37-.5c.49-.13,1.01-.2,1.56-.2.83,0,1.5.17,2.03.52.53.34.91.83,1.16,1.46.25.63.37,1.38.37,2.23v6.27h-1.43l-.15-1.22h-.06c-.49.41-1.02.75-1.58,1.04-.56.29-1.16.43-1.81.43ZM172.7,369.12c.5,0,.98-.11,1.42-.34.44-.22.91-.55,1.4-.99v-2.76c-1.15.14-2.06.32-2.72.54-.67.22-1.15.49-1.44.81-.29.32-.44.71-.44,1.16,0,.56.17.96.53,1.21s.77.37,1.26.37Z"/>
        <path class="st1" d="M182.67,370.3l-3.68-10.22h1.79l1.93,5.81c.15.49.31.99.47,1.5.16.51.32,1.01.47,1.5h.08c.14-.49.29-.99.46-1.5.17-.51.32-1.01.46-1.5l1.94-5.81h1.7l-3.62,10.22h-2.02Z"/>
        <path class="st1" d="M192.22,370.56c-.56,0-1.07-.12-1.53-.35-.46-.23-.82-.56-1.08-.99s-.4-.95-.4-1.57c0-1.15.5-2.02,1.51-2.61,1.01-.59,2.61-1,4.8-1.24-.01-.42-.08-.83-.2-1.22-.12-.39-.33-.71-.64-.95s-.74-.36-1.28-.36c-.59,0-1.14.11-1.66.33-.52.22-.98.46-1.39.73l-.67-1.18c.31-.21.67-.42,1.09-.62s.88-.37,1.37-.5c.49-.13,1.01-.2,1.56-.2.83,0,1.5.17,2.03.52s.91.83,1.16,1.46c.24.63.37,1.38.37,2.23v6.27h-1.43l-.15-1.22h-.06c-.49.41-1.02.75-1.58,1.04s-1.16.43-1.81.43ZM192.7,369.12c.5,0,.98-.11,1.42-.34.44-.22.91-.55,1.4-.99v-2.76c-1.15.14-2.06.32-2.72.54-.67.22-1.15.49-1.44.81-.29.32-.44.71-.44,1.16,0,.56.17.96.53,1.21s.77.37,1.26.37Z"/>
        <path class="st1" d="M200.46,370.3v-10.22h1.43l.15,1.47h.06c.45-.48.94-.88,1.46-1.22.53-.34,1.1-.5,1.71-.5.79,0,1.4.18,1.84.53s.77.83.98,1.43c.53-.59,1.07-1.06,1.62-1.42.55-.36,1.13-.54,1.75-.54,1.07,0,1.85.34,2.36,1.02.5.68.76,1.67.76,2.98v6.48h-1.72v-6.25c0-.97-.15-1.67-.46-2.09s-.79-.64-1.43-.64c-.41,0-.82.13-1.23.39-.41.26-.86.66-1.34,1.19v7.41h-1.73v-6.25c0-.97-.15-1.67-.46-2.09s-.79-.64-1.45-.64c-.77,0-1.63.53-2.57,1.58v7.41h-1.72Z"/>
        <path class="st1" d="M222.11,370.3v-10.22h1.43l.15,1.47h.06c.45-.48.94-.88,1.46-1.22s1.1-.5,1.71-.5c.79,0,1.4.18,1.84.53.44.35.77.83.98,1.43.53-.59,1.07-1.06,1.62-1.42.55-.36,1.13-.54,1.75-.54,1.06,0,1.85.34,2.36,1.02.51.68.76,1.67.76,2.98v6.48h-1.72v-6.25c0-.97-.15-1.67-.46-2.09s-.79-.64-1.43-.64c-.41,0-.82.13-1.23.39s-.86.66-1.34,1.19v7.41h-1.72v-6.25c0-.97-.15-1.67-.46-2.09s-.79-.64-1.45-.64c-.77,0-1.63.53-2.57,1.58v7.41h-1.73Z"/>
        <path class="st1" d="M241.91,370.56c-.56,0-1.07-.12-1.53-.35s-.82-.56-1.08-.99c-.27-.43-.4-.95-.4-1.57,0-1.15.5-2.02,1.51-2.61,1.01-.59,2.61-1,4.8-1.24-.01-.42-.08-.83-.2-1.22-.12-.39-.33-.71-.64-.95s-.74-.36-1.28-.36c-.59,0-1.14.11-1.66.33-.52.22-.98.46-1.39.73l-.67-1.18c.31-.21.67-.42,1.09-.62.42-.2.88-.37,1.37-.5.49-.13,1.01-.2,1.56-.2.83,0,1.5.17,2.03.52s.91.83,1.16,1.46c.24.63.37,1.38.37,2.23v6.27h-1.43l-.15-1.22h-.06c-.49.41-1.02.75-1.58,1.04s-1.16.43-1.81.43ZM242.39,369.12c.5,0,.98-.11,1.42-.34.44-.22.91-.55,1.4-.99v-2.76c-1.15.14-2.06.32-2.72.54s-1.15.49-1.44.81c-.29.32-.44.71-.44,1.16,0,.56.18.96.53,1.21.35.25.77.37,1.26.37Z"/>
        <path class="st1" d="M253.08,370.49c-1.08,0-1.84-.32-2.27-.95-.43-.63-.65-1.45-.65-2.46v-5.6h-1.51v-1.3l1.6-.1.21-3.28h1.45v3.28h2.78v1.41h-2.78v5.62c0,.62.12,1.1.35,1.45s.64.53,1.23.53c.18,0,.37-.02.57-.05.2-.04.39-.1.59-.2l.38,1.22c-.27.13-.57.23-.9.32-.34.08-.68.13-1.03.13Z"/>
        <path class="st1" d="M256.97,370.3v-10.22h1.43l.15,1.85h.06c.34-.64.76-1.16,1.26-1.54.51-.38,1.05-.57,1.64-.57.22,0,.42.01.59.04s.34.08.51.17l-.38,1.47c-.15-.04-.3-.07-.43-.09-.13-.02-.3-.03-.52-.03-.44,0-.89.18-1.36.53-.47.35-.88.96-1.23,1.83v6.56h-1.72Z"/>
        <path class="st1" d="M265.13,357.97c-.34,0-.61-.1-.83-.32-.22-.21-.33-.48-.33-.82s.11-.61.33-.82c.22-.21.49-.32.83-.32s.61.1.83.32c.22.21.32.48.32.82s-.11.61-.32.82c-.22.21-.5.32-.83.32ZM264.27,370.3v-10.22h1.73v10.22h-1.73Z"/>
        <path class="st1" d="M273.51,370.56c-.91,0-1.73-.21-2.46-.63-.73-.42-1.3-1.03-1.73-1.83-.42-.8-.63-1.76-.63-2.88s.23-2.12.68-2.92c.46-.8,1.06-1.41,1.81-1.83.75-.42,1.56-.63,2.43-.63.67,0,1.25.11,1.73.34.48.22.9.51,1.25.86l-.86,1.07c-.25-.25-.55-.45-.89-.6-.34-.15-.73-.22-1.17-.22-.6,0-1.15.17-1.63.5-.48.33-.87.79-1.15,1.38-.28.59-.42,1.28-.42,2.06s.13,1.45.4,2.04c.27.59.64,1.05,1.12,1.38.48.33,1.03.5,1.66.5.48,0,.92-.09,1.33-.27.41-.18.76-.41,1.05-.69l.76,1.05c-.44.41-.93.73-1.47.98-.55.25-1.15.37-1.81.37Z"/>
        <path class="st1" d="M282.03,370.56c-1.08,0-1.87-.34-2.37-1.02-.5-.68-.75-1.67-.75-2.98v-6.48h1.72v6.25c0,.95.15,1.64.45,2.07.3.43.79.64,1.46.64.52,0,.99-.14,1.4-.41.41-.27.87-.7,1.36-1.29v-7.26h1.72v10.22h-1.43l-.15-1.6h-.06c-.46.56-.96,1.01-1.5,1.35-.54.34-1.16.51-1.86.51Z"/>
        <path class="st1" d="M292.31,370.49c-.44,0-.79-.09-1.05-.26-.27-.18-.46-.43-.59-.78s-.19-.76-.19-1.25v-12.88h1.72v13c0,.28.05.47.15.58.1.11.22.16.36.16.05,0,.11,0,.16-.01.05,0,.12-.02.2-.03l.25,1.3c-.13.04-.27.08-.43.12-.16.04-.35.05-.58.05Z"/>
        <path class="st1" d="M298.2,370.56c-.56,0-1.07-.12-1.53-.35s-.82-.56-1.08-.99c-.27-.43-.4-.95-.4-1.57,0-1.15.5-2.02,1.51-2.61,1.01-.59,2.61-1,4.8-1.24-.01-.42-.08-.83-.2-1.22-.12-.39-.33-.71-.64-.95s-.74-.36-1.28-.36c-.59,0-1.14.11-1.66.33-.52.22-.98.46-1.39.73l-.67-1.18c.31-.21.67-.42,1.09-.62.42-.2.88-.37,1.37-.5.49-.13,1.01-.2,1.56-.2.83,0,1.5.17,2.03.52s.91.83,1.16,1.46c.24.63.37,1.38.37,2.23v6.27h-1.43l-.15-1.22h-.06c-.49.41-1.02.75-1.58,1.04s-1.16.43-1.81.43ZM298.69,369.12c.5,0,.98-.11,1.42-.34.44-.22.91-.55,1.4-.99v-2.76c-1.15.14-2.06.32-2.72.54s-1.15.49-1.44.81c-.29.32-.44.71-.44,1.16,0,.56.18.96.53,1.21.35.25.77.37,1.26.37Z"/>
        <path class="st1" d="M309.94,370.56c-1.29,0-2.32-.47-3.08-1.4s-1.15-2.25-1.15-3.94c0-1.11.21-2.07.62-2.87.41-.81.96-1.43,1.63-1.86.67-.43,1.4-.65,2.19-.65.6,0,1.12.1,1.54.3.43.2.87.5,1.32.87l-.09-1.75v-3.93h1.75v14.98h-1.43l-.15-1.2h-.06c-.39.39-.86.73-1.39,1.02s-1.1.43-1.7.43ZM310.32,369.1c.48,0,.93-.12,1.35-.36.42-.24.84-.59,1.26-1.05v-5.34c-.42-.39-.83-.67-1.24-.83s-.82-.24-1.24-.24c-.55,0-1.04.17-1.48.5-.44.33-.79.79-1.06,1.37-.27.58-.4,1.27-.4,2.05,0,1.22.24,2.18.74,2.87.49.69,1.18,1.04,2.08,1.04Z"/>
        <path class="st1" d="M320.48,370.56c-.56,0-1.07-.12-1.53-.35-.46-.23-.82-.56-1.08-.99-.27-.43-.4-.95-.4-1.57,0-1.15.51-2.02,1.52-2.61,1.01-.59,2.61-1,4.79-1.24-.01-.42-.08-.83-.2-1.22s-.33-.71-.64-.95c-.31-.24-.74-.36-1.28-.36-.59,0-1.14.11-1.66.33-.52.22-.98.46-1.39.73l-.67-1.18c.31-.21.67-.42,1.09-.62.42-.2.88-.37,1.37-.5.49-.13,1.01-.2,1.56-.2.83,0,1.5.17,2.03.52.53.34.91.83,1.16,1.46s.37,1.38.37,2.23v6.27h-1.43l-.15-1.22h-.06c-.49.41-1.02.75-1.58,1.04-.56.29-1.16.43-1.81.43ZM320.96,369.12c.51,0,.98-.11,1.42-.34s.91-.55,1.4-.99v-2.76c-1.15.14-2.06.32-2.72.54-.67.22-1.15.49-1.44.81-.29.32-.44.71-.44,1.16,0,.56.17.96.53,1.21.35.25.77.37,1.26.37Z"/>
        <path class="st1" d="M331.4,370.56c-.74,0-1.45-.13-2.11-.39s-1.23-.62-1.69-1.08l.8-1.01c.45.36.92.64,1.4.84.48.2,1.04.29,1.67.29.67,0,1.18-.16,1.51-.47.34-.32.51-.69.51-1.12,0-.35-.12-.64-.35-.87s-.52-.43-.86-.59c-.34-.16-.71-.31-1.1-.45-.51-.18-.99-.4-1.45-.64-.46-.25-.84-.55-1.13-.93-.29-.37-.43-.84-.43-1.4,0-.83.31-1.52.94-2.07.62-.55,1.49-.83,2.6-.83.63,0,1.22.11,1.77.33s1.02.49,1.41.83l-.8.99c-.36-.25-.74-.45-1.12-.59-.38-.14-.8-.21-1.26-.21-.64,0-1.12.15-1.42.44-.3.29-.45.64-.45,1.03,0,.31.09.56.27.77.18.2.44.38.77.54.33.15.71.3,1.12.44.53.2,1.04.42,1.53.66.48.25.88.56,1.18.95s.45.89.45,1.5c0,.56-.14,1.07-.43,1.53s-.71.82-1.26,1.1c-.55.28-1.24.42-2.05.42Z"/>
      </g>
      <rect class="st3" x="17.65" y="359.06" width="53.49" height="13.49" rx="4.81" ry="4.81"/>
    </g>
  </g>
</svg>