<?xml version="1.0" encoding="UTF-8"?>
<svg id="Layer_1" xmlns="http://www.w3.org/2000/svg" version="1.1" viewBox="0 0 830 320">
  <!-- Generator: Adobe Illustrator 29.8.2, SVG Export Plug-In . SVG Version: 2.1.1 Build 3)  -->
  <defs>
    <style>
      .st0 {
        opacity: .5;
      }

      .st0, .st1, .st2 {
        fill: none;
        stroke: #fff;
        stroke-miterlimit: 10;
      }

      .st3 {
        fill: #fff;
      }

      .st1 {
        stroke-width: 1.5px;
      }

      .st4 {
        fill: #ff6637;
      }

      .st2 {
        stroke-width: 2px;
      }
    </style>
  </defs>
  <line class="st0" x1="381.48" y1="30.91" x2="381.48" y2="256.57"/>
  <line class="st0" x1="418.89" y1="30.91" x2="418.89" y2="256.57"/>
  <line class="st0" x1="456.3" y1="30.91" x2="456.3" y2="256.57"/>
  <line class="st1" x1="493.71" y1="30.91" x2="493.71" y2="256.57"/>
  <line class="st0" x1="531.12" y1="30.91" x2="531.12" y2="256.57"/>
  <line class="st0" x1="568.53" y1="30.91" x2="568.53" y2="256.57"/>
  <line class="st0" x1="605.94" y1="30.91" x2="605.94" y2="256.57"/>
  <line class="st1" x1="643.34" y1="30.91" x2="643.34" y2="256.57"/>
  <line class="st0" x1="680.75" y1="30.91" x2="680.75" y2="256.57"/>
  <line class="st0" x1="718.16" y1="30.91" x2="718.16" y2="256.57"/>
  <line class="st0" x1="755.57" y1="30.91" x2="755.57" y2="256.57"/>
  <line class="st1" x1="792.98" y1="30.91" x2="792.98" y2="256.57"/>
  <g>
    <path class="st4" d="M344.27,38.49h423.4c8.49,0,15.37,5.62,15.37,12.56v9.96c0,6.94-6.88,12.56-15.37,12.56h-423.4v-35.08Z"/>
    <path class="st4" d="M344.27,82.62h381.09c6.93,0,12.56,5.63,12.56,12.56v9.96c0,6.93-5.63,12.56-12.56,12.56h-381.09v-35.08h0Z"/>
    <path class="st4" d="M344.27,126.89h349.44c8.47,0,15.34,5.62,15.34,12.56v9.96c0,6.94-6.87,12.56-15.34,12.56h-349.44s0-35.08,0-35.08Z"/>
    <path class="st4" d="M344.27,170.95h301.63c6.93,0,12.56,5.63,12.56,12.56v9.96c0,6.93-5.63,12.56-12.56,12.56h-301.63v-35.08h0Z"/>
    <path class="st4" d="M344.27,213.97h300.86c6.93,0,12.56,5.63,12.56,12.56v9.96c0,6.93-5.63,12.56-12.56,12.56h-300.86v-35.08h0Z"/>
  </g>
  <line class="st2" x1="344.11" y1="30.91" x2="344.11" y2="256.57"/>
  <path class="st3" d="M343.59,275.68c-.77,0-1.43-.13-1.97-.4-.54-.27-.98-.63-1.31-1.09-.33-.46-.58-1-.73-1.6-.15-.61-.23-1.25-.23-1.93v-.76c0-.95.15-1.81.45-2.57.3-.76.76-1.37,1.38-1.82.63-.45,1.43-.67,2.41-.67s1.78.22,2.4.67c.62.45,1.08,1.05,1.38,1.82.3.76.45,1.62.45,2.57v.76c0,.68-.08,1.32-.23,1.93-.15.61-.39,1.14-.73,1.6-.33.46-.77.83-1.31,1.09-.54.27-1.19.4-1.96.4ZM343.59,274.44c.98,0,1.7-.33,2.16-1s.69-1.72.69-3.16-.23-2.59-.7-3.24c-.47-.65-1.18-.98-2.14-.98s-1.69.33-2.16.98c-.47.65-.7,1.72-.7,3.21s.23,2.51.69,3.18,1.18,1,2.16,1Z"/>
  <path class="st3" d="M492.21,275.43v-9.64l.62.48h-2.91v-1.16h3.65v10.32h-1.36Z"/>
  <path class="st3" d="M640.37,275.43v-1.7c0-.42.06-.77.18-1.06.12-.29.32-.56.61-.8s.69-.47,1.19-.7l1.94-.89c.47-.22.84-.5,1.12-.84s.41-.79.41-1.34c0-.66-.18-1.17-.55-1.54-.37-.37-.89-.55-1.55-.55s-1.18.18-1.55.55-.57.88-.57,1.54h-1.33c0-.59.12-1.14.37-1.64.25-.5.63-.9,1.14-1.19s1.15-.45,1.94-.45,1.42.15,1.93.45.88.69,1.13,1.17c.25.48.37,1,.37,1.57v.2c0,.75-.21,1.37-.64,1.88s-1.01.93-1.73,1.26l-1.94.89c-.43.2-.73.4-.88.59-.15.2-.23.46-.23.79v1.3l-.37-.65h5.91v1.16h-6.9Z"/>
  <path class="st3" d="M793.58,275.68c-.77,0-1.43-.15-1.96-.45-.54-.3-.94-.7-1.22-1.2-.28-.5-.42-1.04-.42-1.62h1.33c0,.64.21,1.15.61,1.53.41.38.96.57,1.66.57.46,0,.86-.08,1.2-.25.34-.17.6-.41.79-.73.19-.32.28-.69.28-1.11,0-.64-.21-1.16-.62-1.55-.41-.4-.96-.59-1.65-.59-.29,0-.54.04-.76.11-.21.07-.4.16-.56.26l-.68-1.22,3.94-2.88-.14-.25h-5.02v-1.16h6.29v1.88l-3.26,2.37-.99.04c.16-.06.34-.1.53-.14.19-.04.42-.06.69-.06.75,0,1.39.14,1.92.42.53.28.93.66,1.21,1.13.28.47.42.98.42,1.54v.2c0,.55-.14,1.06-.42,1.55-.28.49-.68.88-1.22,1.18-.53.3-1.19.45-1.97.45Z"/>
  <g>
    <path class="st3" d="M68.31,52.2h1.72l1.68,5.05,1.68-5.05h1.72v11.9h-1.62v-8.11l-1.77,5.24h-.05l-1.77-5.24v8.11h-1.6v-11.9Z"/>
    <path class="st3" d="M76.61,59.8v-.42c0-2.89,1.19-4.47,2.74-4.47s2.72,1.58,2.72,4.47v.42c0,2.89-1.19,4.45-2.72,4.45s-2.74-1.56-2.74-4.45ZM80.45,59.81v-.48c0-1.95-.46-2.99-1.1-2.99s-1.12,1.04-1.12,2.99v.48c0,1.96.46,2.99,1.12,2.99s1.1-1.04,1.1-2.99Z"/>
    <path class="st3" d="M83.51,55.04h1.61v1.16c.34-.71.83-1.31,1.68-1.31,1.17,0,1.84.99,1.84,2.52v6.7h-1.62v-6.36c0-.92-.34-1.41-.9-1.41s-1,.54-1,1.44v6.32h-1.61v-9.06Z"/>
    <path class="st3" d="M90.28,52.09h1.67v1.77h-1.67v-1.77ZM90.31,55.04h1.62v9.06h-1.62v-9.06Z"/>
    <path class="st3" d="M93.88,62.55v-6.17h-.65v-1.34h.65v-2.38h1.62v2.38h1.17v1.34h-1.17v5.66c0,.53.24.7.66.7.17,0,.36-.03.51-.1v1.33c-.26.14-.66.24-1,.24-.97,0-1.79-.34-1.79-1.65Z"/>
    <path class="st3" d="M97.62,59.8v-.42c0-2.89,1.19-4.47,2.74-4.47s2.72,1.58,2.72,4.47v.42c0,2.89-1.19,4.45-2.72,4.45s-2.74-1.56-2.74-4.45ZM101.46,59.81v-.48c0-1.95-.46-2.99-1.1-2.99s-1.12,1.04-1.12,2.99v.48c0,1.96.46,2.99,1.12,2.99s1.1-1.04,1.1-2.99Z"/>
    <path class="st3" d="M104.52,55.04h1.61v1.19c.29-.78.8-1.34,1.65-1.29v1.92h-.03c-1,0-1.62.66-1.62,2.04v5.2h-1.61v-9.06Z"/>
    <path class="st3" d="M108.45,61.55v-.24c0-1.94.83-2.89,2.12-2.89.48,0,.9.14,1.29.34v-.71c0-1.04-.49-1.6-1.39-1.6-.56,0-1.05.19-1.56.43v-1.55c.58-.25,1.11-.39,1.84-.39,1.73,0,2.72,1.04,2.72,2.99v6.17h-1.61v-1.07c-.36.8-.85,1.22-1.56,1.22-1.07,0-1.84-1.07-1.84-2.7ZM111.87,61.58v-1.63c-.25-.12-.59-.24-.88-.24-.61,0-.97.51-.97,1.5v.2c0,1,.34,1.48.87,1.48.56,0,.99-.54.99-1.31Z"/>
    <path class="st3" d="M115.06,55.04h1.61v1.19c.29-.78.8-1.34,1.65-1.29v1.92h-.03c-1,0-1.62.66-1.62,2.04v5.2h-1.61v-9.06Z"/>
    <path class="st3" d="M122.43,59.8v-.42c0-2.89,1.19-4.47,2.74-4.47s2.72,1.58,2.72,4.47v.42c0,2.89-1.19,4.45-2.72,4.45s-2.74-1.56-2.74-4.45ZM126.27,59.81v-.48c0-1.95-.46-2.99-1.1-2.99s-1.12,1.04-1.12,2.99v.48c0,1.96.46,2.99,1.12,2.99s1.1-1.04,1.1-2.99Z"/>
    <path class="st3" d="M129.28,61.75v-6.71h1.61v6.36c0,.92.34,1.41.9,1.41s1-.54,1-1.44v-6.32h1.61v9.06h-1.61v-1.16c-.34.71-.83,1.31-1.68,1.31-1.17,0-1.83-.99-1.83-2.5Z"/>
    <path class="st3" d="M139.41,56.38h-.66v-1.34h.66v-.77c0-1.51.8-2.21,2.12-2.21.29,0,.51.03.7.07v1.38c-.1-.02-.22-.03-.32-.03-.56,0-.87.32-.87,1.02v.54h1.16v1.34h-1.16v7.72h-1.63v-7.72Z"/>
    <path class="st3" d="M142.88,61.55v-.24c0-1.94.83-2.89,2.12-2.89.48,0,.9.14,1.29.34v-.71c0-1.04-.49-1.6-1.39-1.6-.56,0-1.05.19-1.56.43v-1.55c.58-.25,1.11-.39,1.84-.39,1.73,0,2.72,1.04,2.72,2.99v6.17h-1.61v-1.07c-.36.8-.85,1.22-1.56,1.22-1.07,0-1.84-1.07-1.84-2.7ZM146.29,61.58v-1.63c-.25-.12-.59-.24-.88-.24-.61,0-.97.51-.97,1.5v.2c0,1,.34,1.48.87,1.48.56,0,.99-.54.99-1.31Z"/>
    <path class="st3" d="M149.1,62.97l2.65-6.56h-2.53v-1.38h4.27v1.14l-2.65,6.54h2.63v1.38h-4.37v-1.12Z"/>
    <path class="st3" d="M154.33,59.78v-.36c0-2.98,1.22-4.52,2.67-4.52s2.5,1.58,2.5,4.52v.88h-3.55c.08,1.73.8,2.43,1.63,2.43.6,0,.99-.22,1.58-.61l.14,1.5c-.68.42-1.19.63-1.94.63-1.63,0-3.03-1.51-3.03-4.47ZM157.97,59.01c0-1.68-.36-2.67-.97-2.67s-1.02.83-1.07,2.67h2.04Z"/>
    <path class="st3" d="M160.86,55.04h1.61v1.19c.29-.78.8-1.34,1.65-1.29v1.92h-.03c-1,0-1.62.66-1.62,2.04v5.2h-1.61v-9.06Z"/>
    <path class="st3" d="M168.22,59.8v-.42c0-2.97,1.26-4.45,2.82-4.45.54,0,.83.07,1.21.25v1.67c-.34-.2-.66-.36-1.04-.36-.71,0-1.36.8-1.36,2.86v.49c0,2.06.63,2.86,1.41,2.86.31,0,.66-.17.99-.41v1.61c-.41.24-.75.36-1.24.36-1.61,0-2.79-1.46-2.79-4.45Z"/>
    <path class="st3" d="M173.22,59.8v-.42c0-2.89,1.19-4.47,2.74-4.47s2.72,1.58,2.72,4.47v.42c0,2.89-1.19,4.45-2.72,4.45s-2.74-1.56-2.74-4.45ZM177.06,59.81v-.48c0-1.95-.46-2.99-1.1-2.99s-1.12,1.04-1.12,2.99v.48c0,1.96.46,2.99,1.12,2.99s1.1-1.04,1.1-2.99Z"/>
    <path class="st3" d="M180.12,55.04h1.61v1.16c.37-.76.87-1.31,1.67-1.31s1.29.53,1.6,1.19c.34-.56.87-1.19,1.73-1.19,1.05,0,1.94.87,1.94,2.53v6.68h-1.61v-6.36c0-.92-.32-1.41-.88-1.41s-.97.54-.97,1.44v6.32h-1.61v-6.36c0-.92-.32-1.41-.88-1.41s-.97.54-.97,1.44v6.32h-1.61v-9.06Z"/>
    <path class="st3" d="M190.32,55.04h1.61v1.33c.31-.7.8-1.48,1.68-1.48,1.12,0,2.06,1.19,2.06,4.35v.66c0,3.13-.94,4.35-2.06,4.35-.88,0-1.36-.75-1.68-1.45v3.5h-1.61v-11.27ZM194.06,59.83v-.51c0-1.89-.41-2.91-1.04-2.91s-1.1,1.02-1.1,2.87v.56c0,1.85.48,2.87,1.1,2.87s1.04-1.02,1.04-2.89Z"/>
    <path class="st3" d="M196.8,61.55v-.24c0-1.94.83-2.89,2.12-2.89.48,0,.9.14,1.29.34v-.71c0-1.04-.49-1.6-1.39-1.6-.56,0-1.05.19-1.56.43v-1.55c.58-.25,1.11-.39,1.84-.39,1.73,0,2.72,1.04,2.72,2.99v6.17h-1.61v-1.07c-.36.8-.85,1.22-1.56,1.22-1.07,0-1.84-1.07-1.84-2.7ZM200.22,61.58v-1.63c-.25-.12-.59-.24-.88-.24-.61,0-.97.51-.97,1.5v.2c0,1,.34,1.48.87,1.48.56,0,.99-.54.99-1.31Z"/>
    <path class="st3" d="M203.41,55.04h1.61v1.16c.34-.71.83-1.31,1.68-1.31,1.17,0,1.84.99,1.84,2.52v6.7h-1.62v-6.36c0-.92-.34-1.41-.9-1.41s-1,.54-1,1.44v6.32h-1.61v-9.06Z"/>
    <path class="st3" d="M210.16,52.09h1.61v4.1c.34-.71.83-1.31,1.68-1.31,1.17,0,1.84.99,1.84,2.52v6.7h-1.62v-6.36c0-.92-.34-1.41-.9-1.41s-1,.54-1,1.44v6.32h-1.61v-12Z"/>
    <path class="st3" d="M216.93,52.09h1.67v1.77h-1.67v-1.77ZM216.96,55.04h1.62v9.06h-1.62v-9.06Z"/>
    <path class="st3" d="M219.92,61.55v-.24c0-1.94.83-2.89,2.12-2.89.48,0,.9.14,1.29.34v-.71c0-1.04-.49-1.6-1.39-1.6-.56,0-1.05.19-1.56.43v-1.55c.58-.25,1.11-.39,1.84-.39,1.73,0,2.72,1.04,2.72,2.99v6.17h-1.61v-1.07c-.36.8-.85,1.22-1.56,1.22-1.07,0-1.84-1.07-1.84-2.7ZM223.34,61.58v-1.63c-.25-.12-.59-.24-.88-.24-.61,0-.97.51-.97,1.5v.2c0,1,.34,1.48.87,1.48.56,0,.99-.54.99-1.31Z"/>
    <path class="st3" d="M229.42,59.9v-.66c0-3.13.92-4.35,2.06-4.35.88,0,1.36.76,1.67,1.45v-4.23h1.63v12h-1.63v-1.31c-.31.68-.78,1.46-1.67,1.46-1.14,0-2.06-1.19-2.06-4.35ZM233.18,59.85v-.56c0-1.85-.48-2.87-1.1-2.87s-1.04,1.04-1.04,2.91v.51c0,1.87.39,2.89,1.04,2.89s1.1-1,1.1-2.87Z"/>
    <path class="st3" d="M236.19,59.78v-.36c0-2.98,1.22-4.52,2.67-4.52s2.5,1.58,2.5,4.52v.88h-3.55c.08,1.73.8,2.43,1.63,2.43.6,0,.99-.22,1.58-.61l.14,1.5c-.68.42-1.19.63-1.94.63-1.63,0-3.03-1.51-3.03-4.47ZM239.83,59.01c0-1.68-.36-2.67-.97-2.67s-1.02.83-1.07,2.67h2.04Z"/>
    <path class="st3" d="M242.72,55.04h1.61v1.16c.34-.71.83-1.31,1.68-1.31,1.17,0,1.84.99,1.84,2.52v6.7h-1.62v-6.36c0-.92-.34-1.41-.9-1.41s-1,.54-1,1.44v6.32h-1.61v-9.06Z"/>
    <path class="st3" d="M249.64,62.55v-6.17h-.65v-1.34h.65v-2.38h1.62v2.38h1.17v1.34h-1.17v5.66c0,.53.24.7.66.7.17,0,.36-.03.51-.1v1.33c-.26.14-.66.24-1,.24-.97,0-1.79-.34-1.79-1.65Z"/>
    <path class="st3" d="M253.77,55.04h1.61v1.19c.29-.78.8-1.34,1.65-1.29v1.92h-.03c-1,0-1.62.66-1.62,2.04v5.2h-1.61v-9.06Z"/>
    <path class="st3" d="M257.76,59.8v-.42c0-2.89,1.19-4.47,2.74-4.47s2.72,1.58,2.72,4.47v.42c0,2.89-1.19,4.45-2.72,4.45s-2.74-1.56-2.74-4.45ZM261.6,59.81v-.48c0-1.95-.46-2.99-1.1-2.99s-1.12,1.04-1.12,2.99v.48c0,1.96.46,2.99,1.12,2.99s1.1-1.04,1.1-2.99Z"/>
    <path class="st3" d="M267.55,59.9v-.66c0-3.13.92-4.35,2.06-4.35.88,0,1.36.76,1.67,1.45v-4.23h1.63v12h-1.63v-1.31c-.31.68-.78,1.46-1.67,1.46-1.14,0-2.06-1.19-2.06-4.35ZM271.31,59.85v-.56c0-1.85-.48-2.87-1.1-2.87s-1.04,1.04-1.04,2.91v.51c0,1.87.39,2.89,1.04,2.89s1.1-1,1.1-2.87Z"/>
    <path class="st3" d="M274.35,59.8v-.42c0-2.89,1.19-4.47,2.74-4.47s2.72,1.58,2.72,4.47v.42c0,2.89-1.19,4.45-2.72,4.45s-2.74-1.56-2.74-4.45ZM278.2,59.81v-.48c0-1.95-.46-2.99-1.1-2.99s-1.12,1.04-1.12,2.99v.48c0,1.96.46,2.99,1.12,2.99s1.1-1.04,1.1-2.99Z"/>
    <path class="st3" d="M284.15,59.9v-.66c0-3.13.92-4.35,2.06-4.35.88,0,1.36.76,1.67,1.45v-4.23h1.63v12h-1.63v-1.31c-.31.68-.78,1.46-1.67,1.46-1.14,0-2.06-1.19-2.06-4.35ZM287.9,59.85v-.56c0-1.85-.48-2.87-1.1-2.87s-1.04,1.04-1.04,2.91v.51c0,1.87.39,2.89,1.04,2.89s1.1-1,1.1-2.87Z"/>
    <path class="st3" d="M290.95,59.8v-.42c0-2.89,1.19-4.47,2.74-4.47s2.72,1.58,2.72,4.47v.42c0,2.89-1.19,4.45-2.72,4.45s-2.74-1.56-2.74-4.45ZM294.79,59.81v-.48c0-1.95-.46-2.99-1.1-2.99s-1.12,1.04-1.12,2.99v.48c0,1.96.46,2.99,1.12,2.99s1.1-1.04,1.1-2.99Z"/>
    <path class="st3" d="M297.85,55.04h1.61v1.16c.37-.76.87-1.31,1.67-1.31s1.29.53,1.6,1.19c.34-.56.87-1.19,1.73-1.19,1.05,0,1.94.87,1.94,2.53v6.68h-1.61v-6.36c0-.92-.32-1.41-.88-1.41s-.97.54-.97,1.44v6.32h-1.61v-6.36c0-.92-.32-1.41-.88-1.41s-.97.54-.97,1.44v6.32h-1.61v-9.06Z"/>
    <path class="st3" d="M308.06,52.09h1.67v1.77h-1.67v-1.77ZM308.1,55.04h1.62v9.06h-1.62v-9.06Z"/>
    <path class="st3" d="M311.19,59.8v-.42c0-2.97,1.26-4.45,2.82-4.45.54,0,.83.07,1.21.25v1.67c-.34-.2-.66-.36-1.04-.36-.71,0-1.36.8-1.36,2.86v.49c0,2.06.63,2.86,1.41,2.86.31,0,.66-.17.99-.41v1.61c-.41.24-.75.36-1.24.36-1.61,0-2.79-1.46-2.79-4.45Z"/>
    <path class="st3" d="M316.63,55.04h1.62v9.06h-1.62v-9.06ZM318.13,51.92l1.34.71-1.58,1.68h-1.1l1.34-2.4Z"/>
    <path class="st3" d="M320,52.09h1.62v12h-1.62v-12Z"/>
    <path class="st3" d="M323.33,52.09h1.67v1.77h-1.67v-1.77ZM323.37,55.04h1.62v9.06h-1.62v-9.06Z"/>
    <path class="st3" d="M326.46,59.8v-.42c0-2.89,1.19-4.47,2.74-4.47s2.72,1.58,2.72,4.47v.42c0,2.89-1.19,4.45-2.72,4.45s-2.74-1.56-2.74-4.45ZM330.3,59.81v-.48c0-1.95-.46-2.99-1.1-2.99s-1.12,1.04-1.12,2.99v.48c0,1.96.46,2.99,1.12,2.99s1.1-1.04,1.1-2.99Z"/>
  </g>
  <g>
    <path class="st3" d="M706.48,63.65v-1.68c1.43-1.29,2.68-2.47,3.73-3.54s1.87-2.03,2.44-2.91c.58-.88.87-1.69.87-2.45,0-.8-.22-1.44-.65-1.9s-1.07-.7-1.92-.7c-.6,0-1.15.17-1.65.5-.5.33-.96.73-1.38,1.18l-1.52-1.44c.7-.76,1.43-1.34,2.2-1.76s1.67-.63,2.71-.63,1.86.19,2.59.57c.73.38,1.3.91,1.71,1.6s.61,1.49.61,2.42-.27,1.85-.79,2.77-1.24,1.85-2.14,2.8-1.89,1.96-2.98,3.02c.41-.05.85-.09,1.33-.12.48-.03.91-.05,1.28-.05h4.06v2.32h-10.51Z"/>
    <path class="st3" d="M719.11,67.95l-.61-1.49c.8-.3,1.41-.71,1.84-1.23.43-.52.64-1.09.62-1.7l-.12-2.06,1.07,1.7c-.16.14-.34.25-.54.32-.2.07-.41.11-.63.11-.47,0-.89-.15-1.26-.44-.37-.29-.55-.71-.55-1.24s.19-.93.56-1.23c.37-.3.81-.45,1.32-.45.67,0,1.19.24,1.55.73.37.49.55,1.18.55,2.06,0,1.17-.33,2.18-1,3.04-.67.86-1.6,1.49-2.81,1.88Z"/>
    <path class="st3" d="M728.64,63.93c-.93,0-1.74-.17-2.42-.51-.68-.34-1.26-.74-1.73-1.19l1.51-1.66c.29.32.66.58,1.11.8.45.22.91.33,1.38.33.67,0,1.28-.19,1.83-.57s1-1.01,1.33-1.89c.33-.88.5-2.08.5-3.6,0-1.23-.13-2.24-.38-3.02s-.6-1.35-1.05-1.7-.97-.53-1.58-.53c-.42,0-.81.11-1.16.33-.35.22-.63.54-.84.96s-.32.93-.32,1.55.1,1.1.29,1.49c.2.39.48.69.84.9.37.21.81.31,1.33.31.46,0,.94-.14,1.44-.43.5-.28.98-.76,1.42-1.44l.12,1.92c-.44.58-.99,1.05-1.65,1.4-.66.35-1.28.52-1.87.52-.88,0-1.66-.17-2.35-.51-.68-.34-1.22-.85-1.6-1.54-.38-.69-.57-1.56-.57-2.61,0-.99.22-1.86.67-2.6.45-.74,1.04-1.31,1.77-1.72.73-.4,1.55-.6,2.44-.6.77,0,1.49.15,2.16.44.68.29,1.27.74,1.79,1.34.51.6.92,1.36,1.22,2.28.3.92.45,2.02.45,3.28,0,1.47-.17,2.72-.5,3.77s-.79,1.9-1.36,2.57c-.57.66-1.22,1.15-1.96,1.47-.73.32-1.5.47-2.3.47Z"/>
    <path class="st3" d="M741.08,63.65v-11.62h2.32l.2,1.58h.1c.5-.52,1.05-.96,1.65-1.32s1.27-.54,2.02-.54c.89,0,1.6.18,2.12.54s.92.88,1.2,1.54c.57-.6,1.17-1.1,1.79-1.49.62-.39,1.31-.59,2.08-.59,1.27,0,2.21.4,2.81,1.21.6.8.9,1.94.9,3.41v7.29h-2.83v-6.93c0-.96-.15-1.64-.44-2.03-.29-.39-.76-.59-1.39-.59-.39,0-.79.12-1.2.35-.41.24-.85.6-1.32,1.09v8.11h-2.81v-6.93c0-.96-.15-1.64-.45-2.03-.3-.39-.77-.59-1.4-.59-.75,0-1.59.48-2.52,1.44v8.11h-2.81Z"/>
    <path class="st3" d="M762.34,50c-.49,0-.89-.14-1.21-.43-.32-.28-.48-.66-.48-1.14s.16-.85.48-1.12c.32-.28.72-.41,1.21-.41s.91.14,1.22.41c.31.28.46.65.46,1.12s-.16.85-.46,1.14c-.31.28-.72.43-1.22.43ZM760.95,63.65v-11.62h2.81v11.62h-2.81Z"/>
  </g>
  <g>
    <path class="st3" d="M662.27,106.4v-1.68c1.43-1.29,2.68-2.47,3.73-3.54s1.87-2.03,2.44-2.91.87-1.69.87-2.45c0-.8-.22-1.44-.65-1.9-.43-.46-1.07-.7-1.92-.7-.6,0-1.15.17-1.65.5-.5.33-.96.73-1.38,1.18l-1.51-1.44c.7-.76,1.43-1.34,2.2-1.76.77-.42,1.67-.63,2.71-.63s1.86.19,2.59.57c.73.38,1.3.91,1.71,1.6.41.69.61,1.49.61,2.42s-.26,1.85-.79,2.77-1.24,1.85-2.14,2.8c-.9.95-1.89,1.96-2.98,3.02.41-.05.85-.09,1.33-.12s.91-.05,1.28-.05h4.06v2.32h-10.51Z"/>
    <path class="st3" d="M674.91,110.71l-.61-1.49c.8-.3,1.41-.71,1.85-1.23.43-.52.64-1.09.62-1.7l-.12-2.06,1.08,1.7c-.16.14-.34.25-.54.32-.2.07-.41.11-.63.11-.47,0-.89-.15-1.26-.44-.37-.29-.55-.71-.55-1.24s.19-.93.56-1.23c.38-.3.81-.45,1.32-.45.67,0,1.18.24,1.55.73.37.49.55,1.17.55,2.06,0,1.17-.33,2.18-1,3.04-.67.86-1.61,1.49-2.81,1.88Z"/>
    <path class="st3" d="M685.85,106.69c-.77,0-1.49-.15-2.16-.44-.68-.29-1.28-.74-1.8-1.34-.52-.6-.93-1.36-1.23-2.29-.3-.93-.45-2.03-.45-3.29,0-1.45.17-2.7.5-3.75s.79-1.9,1.37-2.57c.58-.66,1.23-1.15,1.96-1.47.72-.32,1.49-.47,2.29-.47.94,0,1.76.17,2.44.5s1.25.73,1.71,1.21l-1.52,1.66c-.28-.33-.64-.6-1.09-.82-.45-.21-.91-.32-1.38-.32-.67,0-1.28.19-1.84.57-.56.38-1.01,1.01-1.33,1.89-.33.88-.49,2.07-.49,3.57,0,1.25.13,2.26.38,3.03.25.77.6,1.34,1.05,1.7.45.36.97.54,1.55.54.44,0,.83-.11,1.19-.33.35-.22.63-.54.83-.97.2-.43.3-.95.3-1.56s-.1-1.1-.29-1.49c-.2-.39-.47-.69-.83-.89s-.8-.3-1.32-.3c-.46,0-.94.14-1.45.41-.51.28-.99.76-1.43,1.45l-.1-1.92c.44-.62.99-1.09,1.64-1.43.65-.34,1.27-.51,1.86-.51.9,0,1.69.17,2.37.51.68.34,1.22.86,1.6,1.55.38.69.57,1.56.57,2.6s-.22,1.88-.67,2.63c-.45.74-1.04,1.31-1.78,1.71-.74.4-1.55.6-2.43.6Z"/>
    <path class="st3" d="M696.88,106.4v-11.61h2.32l.2,1.58h.1c.5-.52,1.05-.96,1.65-1.32s1.27-.54,2.02-.54c.9,0,1.6.18,2.13.54.52.36.92.88,1.2,1.54.57-.6,1.16-1.1,1.78-1.49.62-.39,1.31-.59,2.08-.59,1.27,0,2.21.4,2.81,1.21.6.8.9,1.94.9,3.41v7.29h-2.83v-6.93c0-.96-.15-1.64-.44-2.03-.29-.39-.76-.59-1.39-.59-.39,0-.79.12-1.2.35-.41.24-.85.6-1.32,1.09v8.11h-2.81v-6.93c0-.96-.15-1.64-.45-2.03-.3-.39-.77-.59-1.41-.59-.75,0-1.59.48-2.52,1.44v8.11h-2.81Z"/>
    <path class="st3" d="M718.14,92.75c-.49,0-.89-.14-1.21-.43-.32-.28-.48-.66-.48-1.14s.16-.85.48-1.12.72-.41,1.21-.41.91.14,1.22.41.46.65.46,1.12-.15.85-.46,1.14c-.31.28-.72.43-1.22.43ZM716.74,106.4v-11.61h2.81v11.61h-2.81Z"/>
  </g>
  <g>
    <path class="st3" d="M633.85,151.25v-1.68c1.43-1.29,2.67-2.47,3.72-3.54,1.05-1.06,1.86-2.03,2.44-2.91.58-.88.87-1.69.87-2.45,0-.8-.21-1.44-.65-1.9-.43-.46-1.07-.7-1.91-.7-.6,0-1.15.17-1.65.5-.5.33-.96.73-1.38,1.18l-1.51-1.44c.7-.76,1.43-1.34,2.19-1.76.76-.42,1.67-.63,2.71-.63s1.85.19,2.58.57c.73.38,1.3.91,1.71,1.6.41.69.61,1.49.61,2.42s-.26,1.85-.79,2.77-1.24,1.85-2.13,2.8c-.89.95-1.89,1.96-2.97,3.02.41-.05.85-.09,1.33-.12s.91-.05,1.28-.05h4.05v2.32h-10.48Z"/>
    <path class="st3" d="M646.45,155.55l-.61-1.49c.8-.3,1.41-.71,1.84-1.23.43-.52.64-1.09.62-1.7l-.12-2.06,1.07,1.7c-.16.14-.34.25-.54.32-.2.07-.41.11-.63.11-.47,0-.89-.15-1.26-.44-.37-.29-.55-.71-.55-1.24s.19-.93.56-1.23c.37-.3.81-.45,1.32-.45.67,0,1.18.24,1.55.73.37.49.55,1.17.55,2.06,0,1.17-.33,2.18-1,3.04-.67.86-1.6,1.49-2.8,1.88Z"/>
    <path class="st3" d="M657.96,151.25v-9.39c0-.43.02-.95.05-1.56.03-.62.06-1.14.07-1.56h-.1c-.19.38-.4.76-.61,1.15-.21.39-.43.78-.66,1.19l-2.83,4.19h8.66v2.11h-11.44v-1.85l6.14-9.32h3.34v15.04h-2.63Z"/>
    <path class="st3" d="M668.37,151.25v-11.61h2.32l.19,1.58h.1c.5-.52,1.05-.96,1.65-1.32s1.26-.54,2.01-.54c.89,0,1.6.18,2.12.54.52.36.92.88,1.19,1.54.57-.6,1.16-1.1,1.78-1.49.62-.39,1.31-.59,2.07-.59,1.27,0,2.2.4,2.8,1.21.6.8.9,1.94.9,3.41v7.29h-2.83v-6.93c0-.96-.15-1.64-.44-2.03-.29-.39-.76-.59-1.39-.59-.39,0-.79.12-1.19.35-.41.24-.84.6-1.32,1.09v8.11h-2.8v-6.93c0-.96-.15-1.64-.45-2.03-.3-.39-.77-.59-1.4-.59-.75,0-1.58.48-2.51,1.44v8.11h-2.8Z"/>
    <path class="st3" d="M689.58,137.6c-.49,0-.89-.14-1.21-.43-.32-.28-.47-.66-.47-1.14s.16-.85.47-1.12c.32-.28.72-.41,1.21-.41s.91.14,1.22.41.46.65.46,1.12-.16.85-.46,1.14c-.31.28-.71.43-1.22.43ZM688.19,151.25v-11.61h2.8v11.61h-2.8Z"/>
  </g>
  <g>
    <path class="st3" d="M583.05,197.21v-1.68c1.39-1.29,2.59-2.47,3.61-3.54,1.02-1.06,1.81-2.04,2.37-2.91s.84-1.69.84-2.45c0-.8-.21-1.44-.63-1.9-.42-.46-1.04-.7-1.86-.7-.58,0-1.12.17-1.6.5-.48.33-.93.73-1.34,1.18l-1.47-1.44c.68-.76,1.39-1.34,2.13-1.76s1.62-.63,2.63-.63,1.8.19,2.51.57c.71.38,1.26.91,1.66,1.6.39.69.59,1.49.59,2.42s-.26,1.85-.77,2.77c-.51.91-1.2,1.85-2.07,2.8s-1.83,1.96-2.89,3.02c.39-.05.82-.09,1.29-.12.46-.03.88-.05,1.24-.05h3.93v2.32h-10.17Z"/>
    <path class="st3" d="M595.28,201.52l-.59-1.49c.77-.3,1.37-.71,1.79-1.23s.62-1.09.6-1.7l-.12-2.06,1.04,1.7c-.16.14-.33.25-.52.32-.19.07-.39.11-.62.11-.46,0-.86-.15-1.22-.44-.36-.29-.53-.71-.53-1.24s.18-.93.54-1.23c.36-.3.79-.45,1.28-.45.65,0,1.15.24,1.5.73.35.49.53,1.17.53,2.06,0,1.17-.32,2.18-.97,3.04-.65.86-1.55,1.49-2.72,1.88Z"/>
    <path class="st3" d="M601.12,197.21v-2.22h3.36v-9.89h-2.77v-1.7c.74-.14,1.39-.31,1.94-.51.55-.2,1.07-.44,1.54-.72h2.03v12.82h2.96v2.22h-9.06Z"/>
    <path class="st3" d="M616.54,197.21v-11.62h2.25l.19,1.58h.09c.49-.52,1.02-.96,1.6-1.32.58-.36,1.23-.54,1.95-.54.87,0,1.55.18,2.06.54.5.36.89.88,1.16,1.54.55-.6,1.13-1.1,1.73-1.49.6-.39,1.27-.59,2.01-.59,1.23,0,2.14.4,2.72,1.21s.88,1.94.88,3.41v7.29h-2.74v-6.93c0-.96-.14-1.64-.43-2.03-.28-.39-.73-.59-1.35-.59-.38,0-.77.12-1.16.35-.39.24-.82.6-1.28,1.09v8.11h-2.72v-6.93c0-.96-.15-1.64-.44-2.03-.29-.39-.75-.59-1.36-.59-.73,0-1.54.48-2.44,1.44v8.11h-2.72Z"/>
    <path class="st3" d="M637.12,183.56c-.47,0-.86-.14-1.17-.43s-.46-.66-.46-1.14.15-.85.46-1.12c.31-.28.7-.41,1.17-.41s.88.14,1.18.41c.3.28.45.65.45,1.12s-.15.85-.45,1.14-.69.43-1.18.43ZM635.77,197.21v-11.62h2.72v11.62h-2.72Z"/>
  </g>
  <g>
    <path class="st3" d="M583.05,239.24v-1.68c1.39-1.29,2.59-2.47,3.61-3.54,1.02-1.06,1.81-2.04,2.37-2.91s.84-1.69.84-2.45c0-.8-.21-1.44-.63-1.9-.42-.46-1.04-.7-1.86-.7-.58,0-1.12.17-1.6.5-.48.33-.93.73-1.34,1.18l-1.47-1.44c.68-.76,1.39-1.34,2.13-1.76s1.62-.63,2.63-.63,1.8.19,2.51.57c.71.38,1.26.91,1.66,1.6.39.69.59,1.49.59,2.42s-.26,1.85-.77,2.77c-.51.91-1.2,1.85-2.07,2.8s-1.83,1.96-2.89,3.02c.39-.05.82-.09,1.29-.12.46-.03.88-.05,1.24-.05h3.93v2.32h-10.17Z"/>
    <path class="st3" d="M595.28,243.55l-.59-1.49c.77-.3,1.37-.71,1.79-1.23s.62-1.09.6-1.7l-.12-2.06,1.04,1.7c-.16.14-.33.25-.52.32-.19.07-.39.11-.62.11-.46,0-.86-.15-1.22-.44-.36-.29-.53-.71-.53-1.24s.18-.93.54-1.23c.36-.3.79-.45,1.28-.45.65,0,1.15.24,1.5.73.35.49.53,1.17.53,2.06,0,1.17-.32,2.18-.97,3.04-.65.86-1.55,1.49-2.72,1.88Z"/>
    <path class="st3" d="M601.12,239.24v-2.22h3.36v-9.89h-2.77v-1.7c.74-.14,1.39-.31,1.94-.51.55-.2,1.07-.44,1.54-.72h2.03v12.82h2.96v2.22h-9.06Z"/>
    <path class="st3" d="M616.54,239.24v-11.62h2.25l.19,1.58h.09c.49-.52,1.02-.96,1.6-1.32.58-.36,1.23-.54,1.95-.54.87,0,1.55.18,2.06.54.5.36.89.88,1.16,1.54.55-.6,1.13-1.1,1.73-1.49.6-.39,1.27-.59,2.01-.59,1.23,0,2.14.4,2.72,1.21s.88,1.94.88,3.41v7.29h-2.74v-6.93c0-.96-.14-1.64-.43-2.03-.28-.39-.73-.59-1.35-.59-.38,0-.77.12-1.16.35-.39.24-.82.6-1.28,1.09v8.11h-2.72v-6.93c0-.96-.15-1.64-.44-2.03-.29-.39-.75-.59-1.36-.59-.73,0-1.54.48-2.44,1.44v8.11h-2.72Z"/>
    <path class="st3" d="M637.12,225.59c-.47,0-.86-.14-1.17-.43s-.46-.66-.46-1.14.15-.85.46-1.12c.31-.28.7-.41,1.17-.41s.88.14,1.18.41c.3.28.45.65.45,1.12s-.15.85-.45,1.14-.69.43-1.18.43ZM635.77,239.24v-11.62h2.72v11.62h-2.72Z"/>
  </g>
  <g>
    <path class="st3" d="M174.56,96.82h1.79l2.36,11.93h-1.68l-.48-2.65h-2.24l-.48,2.65h-1.63l2.36-11.93ZM176.3,104.59l-.87-4.78-.87,4.78h1.73Z"/>
    <path class="st3" d="M179.78,106.41v-6.71h1.61v6.36c0,.92.34,1.41.9,1.41s1-.54,1-1.44v-6.32h1.61v9.06h-1.61v-1.16c-.34.71-.83,1.31-1.68,1.31-1.17,0-1.83-.99-1.83-2.5Z"/>
    <path class="st3" d="M187.91,104.1l-1.68-4.4h1.67l1.02,3.01,1-3.01h1.65l-1.68,4.4,1.75,4.66h-1.7l-1.05-3.23-1.05,3.23h-1.67l1.75-4.66Z"/>
    <path class="st3" d="M192.89,96.75h1.67v1.77h-1.67v-1.77ZM192.92,99.7h1.62v9.06h-1.62v-9.06Z"/>
    <path class="st3" d="M196.29,96.75h1.62v12h-1.62v-12Z"/>
    <path class="st3" d="M199.62,96.75h1.67v1.77h-1.67v-1.77ZM199.66,99.7h1.62v9.06h-1.62v-9.06Z"/>
    <path class="st3" d="M202.61,106.21v-.24c0-1.94.83-2.89,2.12-2.89.48,0,.9.14,1.29.34v-.71c0-1.04-.49-1.6-1.39-1.6-.56,0-1.05.19-1.56.43v-1.55c.58-.25,1.11-.39,1.84-.39,1.73,0,2.72,1.04,2.72,2.99v6.17h-1.61v-1.07c-.36.8-.85,1.22-1.56,1.22-1.07,0-1.84-1.07-1.84-2.7ZM206.03,106.24v-1.63c-.25-.12-.59-.24-.88-.24-.61,0-.97.51-.97,1.5v.2c0,1,.34,1.48.87,1.48.56,0,.99-.54.99-1.31Z"/>
    <path class="st3" d="M209.23,99.7h1.61v1.19c.29-.78.8-1.34,1.65-1.29v1.92h-.03c-1,0-1.62.66-1.62,2.04v5.2h-1.61v-9.06Z"/>
    <path class="st3" d="M216.81,99.7h1.61v1.16c.34-.71.83-1.31,1.68-1.31,1.17,0,1.84.99,1.84,2.52v6.7h-1.62v-6.36c0-.92-.34-1.41-.9-1.41s-1,.54-1,1.44v6.32h-1.61v-9.06Z"/>
    <path class="st3" d="M223.34,104.45v-.42c0-2.89,1.19-4.47,2.74-4.47s2.72,1.58,2.72,4.47v.42c0,2.89-1.19,4.45-2.72,4.45s-2.74-1.56-2.74-4.45ZM227.18,104.47v-.48c0-1.95-.46-2.99-1.1-2.99s-1.12,1.04-1.12,2.99v.48c0,1.96.46,2.99,1.12,2.99s1.1-1.04,1.1-2.99Z"/>
    <path class="st3" d="M229.9,108.48v-1.62c.66.36,1.24.56,1.75.56s.92-.34.92-.87v-.03c0-.46-.2-.85-1.14-1.73-1.04-1.02-1.58-1.8-1.58-2.87v-.03c0-1.43,1-2.31,2.41-2.31.56,0,.99.07,1.48.25v1.6c-.46-.24-.94-.39-1.41-.39-.54,0-.9.32-.9.8v.03c0,.44.2.75,1.17,1.72,1.17,1.12,1.55,1.85,1.55,2.87v.03c0,1.48-1.07,2.41-2.41,2.41-.63,0-1.26-.17-1.84-.42Z"/>
    <path class="st3" d="M238.23,104.45v-.42c0-2.97,1.26-4.45,2.82-4.45.54,0,.83.07,1.21.25v1.67c-.34-.2-.66-.36-1.04-.36-.71,0-1.36.8-1.36,2.86v.49c0,2.06.63,2.86,1.41,2.86.31,0,.66-.17.99-.41v1.61c-.41.24-.75.36-1.24.36-1.61,0-2.79-1.46-2.79-4.45Z"/>
    <path class="st3" d="M243.57,106.41v-6.71h1.61v6.36c0,.92.34,1.41.9,1.41s1-.54,1-1.44v-6.32h1.61v9.06h-1.61v-1.16c-.34.71-.83,1.31-1.68,1.31-1.17,0-1.84-.99-1.84-2.5Z"/>
    <path class="st3" d="M250.38,96.75h1.67v1.77h-1.67v-1.77ZM250.42,99.7h1.62v9.06h-1.62v-9.06Z"/>
    <path class="st3" d="M253.55,104.56v-.66c0-3.13.92-4.35,2.06-4.35.88,0,1.36.76,1.67,1.45v-4.23h1.63v12h-1.63v-1.31c-.31.68-.78,1.46-1.67,1.46-1.14,0-2.06-1.19-2.06-4.35ZM257.3,104.51v-.56c0-1.85-.48-2.87-1.1-2.87s-1.04,1.04-1.04,2.91v.51c0,1.87.39,2.89,1.04,2.89s1.1-1,1.1-2.87Z"/>
    <path class="st3" d="M260.21,106.21v-.24c0-1.94.83-2.89,2.12-2.89.48,0,.9.14,1.29.34v-.71c0-1.04-.49-1.6-1.39-1.6-.56,0-1.05.19-1.56.43v-1.55c.58-.25,1.11-.39,1.84-.39,1.73,0,2.72,1.04,2.72,2.99v6.17h-1.61v-1.07c-.36.8-.85,1.22-1.56,1.22-1.07,0-1.84-1.07-1.84-2.7ZM263.63,106.24v-1.63c-.25-.12-.59-.24-.88-.24-.61,0-.97.51-.97,1.5v.2c0,1,.34,1.48.87,1.48.56,0,.99-.54.99-1.31Z"/>
    <path class="st3" d="M266.64,104.56v-.66c0-3.13.92-4.35,2.06-4.35.88,0,1.36.76,1.67,1.45v-4.23h1.63v12h-1.63v-1.31c-.31.68-.78,1.46-1.67,1.46-1.14,0-2.06-1.19-2.06-4.35ZM270.39,104.51v-.56c0-1.85-.48-2.87-1.1-2.87s-1.04,1.04-1.04,2.91v.51c0,1.87.39,2.89,1.04,2.89s1.1-1,1.1-2.87Z"/>
    <path class="st3" d="M273.44,104.45v-.42c0-2.89,1.19-4.47,2.74-4.47s2.72,1.58,2.72,4.47v.42c0,2.89-1.19,4.45-2.72,4.45s-2.74-1.56-2.74-4.45ZM277.28,104.47v-.48c0-1.95-.46-2.99-1.1-2.99s-1.12,1.04-1.12,2.99v.48c0,1.96.46,2.99,1.12,2.99s1.1-1.04,1.1-2.99Z"/>
    <path class="st3" d="M280,108.48v-1.62c.66.36,1.24.56,1.75.56s.92-.34.92-.87v-.03c0-.46-.2-.85-1.14-1.73-1.04-1.02-1.58-1.8-1.58-2.87v-.03c0-1.43,1-2.31,2.41-2.31.56,0,.99.07,1.48.25v1.6c-.46-.24-.94-.39-1.41-.39-.54,0-.9.32-.9.8v.03c0,.44.2.75,1.17,1.72,1.17,1.12,1.55,1.85,1.55,2.87v.03c0,1.48-1.07,2.41-2.41,2.41-.63,0-1.26-.17-1.84-.42Z"/>
    <path class="st3" d="M288.55,99.7h1.61v1.33c.31-.7.8-1.48,1.68-1.48,1.12,0,2.06,1.19,2.06,4.35v.66c0,3.13-.94,4.35-2.06,4.35-.88,0-1.36-.75-1.68-1.45v3.5h-1.61v-11.27ZM292.29,104.49v-.51c0-1.89-.41-2.91-1.04-2.91s-1.1,1.02-1.1,2.87v.56c0,1.85.48,2.87,1.1,2.87s1.04-1.02,1.04-2.89Z"/>
    <path class="st3" d="M295.13,104.44v-.36c0-2.98,1.22-4.52,2.67-4.52s2.5,1.58,2.5,4.52v.88h-3.55c.08,1.73.8,2.43,1.63,2.43.6,0,.99-.22,1.58-.61l.14,1.5c-.68.42-1.19.63-1.94.63-1.63,0-3.03-1.51-3.03-4.47ZM298.77,103.67c0-1.68-.36-2.67-.97-2.67s-1.02.83-1.07,2.67h2.04Z"/>
    <path class="st3" d="M301.32,108.48v-1.62c.66.36,1.24.56,1.75.56s.92-.34.92-.87v-.03c0-.46-.2-.85-1.14-1.73-1.04-1.02-1.58-1.8-1.58-2.87v-.03c0-1.43,1-2.31,2.41-2.31.56,0,.99.07,1.48.25v1.6c-.46-.24-.94-.39-1.41-.39-.54,0-.9.32-.9.8v.03c0,.44.2.75,1.17,1.72,1.17,1.12,1.55,1.85,1.55,2.87v.03c0,1.48-1.07,2.41-2.41,2.41-.63,0-1.26-.17-1.84-.42Z"/>
    <path class="st3" d="M306.45,108.48v-1.62c.66.36,1.24.56,1.75.56s.92-.34.92-.87v-.03c0-.46-.2-.85-1.14-1.73-1.04-1.02-1.58-1.8-1.58-2.87v-.03c0-1.43,1-2.31,2.41-2.31.56,0,.99.07,1.48.25v1.6c-.46-.24-.94-.39-1.41-.39-.54,0-.9.32-.9.8v.03c0,.44.2.75,1.17,1.72,1.17,1.12,1.55,1.85,1.55,2.87v.03c0,1.48-1.07,2.41-2.41,2.41-.63,0-1.26-.17-1.84-.42Z"/>
    <path class="st3" d="M311.7,104.45v-.42c0-2.89,1.19-4.47,2.74-4.47s2.72,1.58,2.72,4.47v.42c0,2.89-1.19,4.45-2.72,4.45s-2.74-1.56-2.74-4.45ZM315.55,104.47v-.48c0-1.95-.46-2.99-1.1-2.99s-1.12,1.04-1.12,2.99v.48c0,1.96.46,2.99,1.12,2.99s1.1-1.04,1.1-2.99Z"/>
    <path class="st3" d="M318.25,106.21v-.24c0-1.94.83-2.89,2.12-2.89.48,0,.9.14,1.29.34v-.71c0-1.04-.49-1.6-1.39-1.6-.56,0-1.05.19-1.56.43v-1.55c.58-.25,1.11-.39,1.84-.39,1.73,0,2.72,1.04,2.72,2.99v6.17h-1.61v-1.07c-.36.8-.85,1.22-1.56,1.22-1.07,0-1.84-1.07-1.84-2.7ZM321.67,106.24v-1.63c-.25-.12-.59-.24-.88-.24-.61,0-.97.51-.97,1.5v.2c0,1,.34,1.48.87,1.48.56,0,.99-.54.99-1.31Z"/>
    <path class="st3" d="M324.88,96.75h1.67v1.77h-1.67v-1.77ZM324.91,99.7h1.62v9.06h-1.62v-9.06Z"/>
    <path class="st3" d="M327.89,108.48v-1.62c.66.36,1.24.56,1.75.56s.92-.34.92-.87v-.03c0-.46-.2-.85-1.14-1.73-1.04-1.02-1.58-1.8-1.58-2.87v-.03c0-1.43,1-2.31,2.41-2.31.56,0,.99.07,1.48.25v1.6c-.46-.24-.94-.39-1.41-.39-.54,0-.9.32-.9.8v.03c0,.44.2.75,1.17,1.72,1.17,1.12,1.55,1.85,1.55,2.87v.03c0,1.48-1.07,2.41-2.41,2.41-.63,0-1.26-.17-1.84-.42Z"/>
  </g>
  <g>
    <path class="st3" d="M143.77,184.96h1.79l2.36,11.93h-1.68l-.48-2.65h-2.24l-.48,2.65h-1.63l2.36-11.93ZM145.51,192.72l-.87-4.78-.87,4.78h1.73Z"/>
    <path class="st3" d="M148.99,194.54v-6.71h1.61v6.36c0,.92.34,1.41.9,1.41s1-.54,1-1.44v-6.32h1.61v9.06h-1.61v-1.16c-.34.71-.83,1.31-1.68,1.31-1.17,0-1.83-.99-1.83-2.5Z"/>
    <path class="st3" d="M157.12,192.23l-1.68-4.4h1.67l1.02,3.01,1-3.01h1.65l-1.68,4.4,1.75,4.66h-1.7l-1.05-3.23-1.05,3.23h-1.67l1.75-4.66Z"/>
    <path class="st3" d="M162.1,184.89h1.67v1.77h-1.67v-1.77ZM162.14,187.83h1.62v9.06h-1.62v-9.06Z"/>
    <path class="st3" d="M165.5,184.89h1.62v12h-1.62v-12Z"/>
    <path class="st3" d="M168.83,184.89h1.67v1.77h-1.67v-1.77ZM168.87,187.83h1.62v9.06h-1.62v-9.06Z"/>
    <path class="st3" d="M171.83,194.34v-.24c0-1.94.83-2.89,2.12-2.89.48,0,.9.14,1.29.34v-.71c0-1.04-.49-1.6-1.39-1.6-.56,0-1.05.19-1.56.42v-1.55c.58-.25,1.11-.39,1.84-.39,1.73,0,2.72,1.04,2.72,2.99v6.17h-1.61v-1.07c-.36.8-.85,1.22-1.56,1.22-1.07,0-1.84-1.07-1.84-2.7ZM175.24,194.37v-1.63c-.25-.12-.59-.24-.88-.24-.61,0-.97.51-.97,1.5v.2c0,1,.34,1.48.87,1.48.56,0,.99-.54.99-1.31Z"/>
    <path class="st3" d="M178.44,187.83h1.61v1.19c.29-.78.8-1.34,1.65-1.29v1.92h-.03c-1,0-1.62.66-1.62,2.04v5.2h-1.61v-9.06Z"/>
    <path class="st3" d="M186.02,187.83h1.61v1.16c.34-.71.83-1.31,1.68-1.31,1.17,0,1.84.99,1.84,2.52v6.7h-1.62v-6.36c0-.92-.34-1.41-.9-1.41s-1,.54-1,1.45v6.32h-1.61v-9.06Z"/>
    <path class="st3" d="M192.41,194.34v-.24c0-1.94.83-2.89,2.12-2.89.48,0,.9.14,1.29.34v-.71c0-1.04-.49-1.6-1.39-1.6-.56,0-1.05.19-1.56.42v-1.55c.58-.25,1.11-.39,1.84-.39,1.73,0,2.72,1.04,2.72,2.99v6.17h-1.61v-1.07c-.36.8-.85,1.22-1.56,1.22-1.07,0-1.84-1.07-1.84-2.7ZM195.83,194.37v-1.63c-.25-.12-.59-.24-.88-.24-.61,0-.97.51-.97,1.5v.2c0,1,.34,1.48.87,1.48.56,0,.99-.54.99-1.31Z"/>
    <path class="st3" d="M198.69,196.62v-1.62c.66.36,1.24.56,1.75.56s.92-.34.92-.87v-.03c0-.46-.2-.85-1.14-1.73-1.04-1.02-1.58-1.8-1.58-2.87v-.03c0-1.43,1-2.31,2.41-2.31.56,0,.99.07,1.48.25v1.6c-.46-.24-.94-.39-1.41-.39-.54,0-.9.32-.9.8v.03c0,.44.2.75,1.17,1.72,1.17,1.12,1.55,1.85,1.55,2.87v.03c0,1.48-1.07,2.41-2.41,2.41-.63,0-1.26-.17-1.84-.42Z"/>
    <path class="st3" d="M206.88,194.34v-.24c0-1.94.83-2.89,2.12-2.89.48,0,.9.14,1.29.34v-.71c0-1.04-.49-1.6-1.39-1.6-.56,0-1.05.19-1.56.42v-1.55c.58-.25,1.11-.39,1.84-.39,1.73,0,2.72,1.04,2.72,2.99v6.17h-1.61v-1.07c-.36.8-.85,1.22-1.56,1.22-1.07,0-1.84-1.07-1.84-2.7ZM210.3,194.37v-1.63c-.25-.12-.59-.24-.88-.24-.61,0-.97.51-.97,1.5v.2c0,1,.34,1.48.87,1.48.56,0,.99-.54.99-1.31Z"/>
    <path class="st3" d="M213.66,195.34v-6.17h-.65v-1.34h.65v-2.38h1.62v2.38h1.17v1.34h-1.17v5.66c0,.53.24.7.66.7.17,0,.36-.03.51-.1v1.33c-.26.14-.66.24-1,.24-.97,0-1.79-.34-1.79-1.65Z"/>
    <path class="st3" d="M217.81,184.89h1.67v1.77h-1.67v-1.77ZM217.85,187.83h1.62v9.06h-1.62v-9.06Z"/>
    <path class="st3" d="M220.75,187.83h1.62l1.19,6.46,1.19-6.46h1.58l-1.97,9.09h-1.61l-1.99-9.09Z"/>
    <path class="st3" d="M227.6,184.89h1.67v1.77h-1.67v-1.77ZM227.64,187.83h1.62v9.06h-1.62v-9.06Z"/>
    <path class="st3" d="M230.77,192.69v-.66c0-3.13.92-4.35,2.06-4.35.88,0,1.36.76,1.67,1.44v-4.23h1.63v12h-1.63v-1.31c-.31.68-.78,1.46-1.67,1.46-1.14,0-2.06-1.19-2.06-4.35ZM234.52,192.64v-.56c0-1.85-.48-2.87-1.1-2.87s-1.04,1.04-1.04,2.91v.51c0,1.87.39,2.89,1.04,2.89s1.1-1,1.1-2.87Z"/>
    <path class="st3" d="M237.43,194.34v-.24c0-1.94.83-2.89,2.12-2.89.48,0,.9.14,1.29.34v-.71c0-1.04-.49-1.6-1.39-1.6-.56,0-1.05.19-1.56.42v-1.55c.58-.25,1.11-.39,1.84-.39,1.73,0,2.72,1.04,2.72,2.99v6.17h-1.61v-1.07c-.36.8-.85,1.22-1.56,1.22-1.07,0-1.84-1.07-1.84-2.7ZM240.85,194.37v-1.63c-.25-.12-.59-.24-.88-.24-.61,0-.97.51-.97,1.5v.2c0,1,.34,1.48.87,1.48.56,0,.99-.54.99-1.31Z"/>
    <path class="st3" d="M243.86,192.69v-.66c0-3.13.92-4.35,2.06-4.35.88,0,1.36.76,1.67,1.44v-4.23h1.63v12h-1.63v-1.31c-.31.68-.78,1.46-1.67,1.46-1.14,0-2.06-1.19-2.06-4.35ZM247.61,192.64v-.56c0-1.85-.48-2.87-1.1-2.87s-1.04,1.04-1.04,2.91v.51c0,1.87.39,2.89,1.04,2.89s1.1-1,1.1-2.87Z"/>
    <path class="st3" d="M250.62,192.57v-.36c0-2.97,1.22-4.52,2.67-4.52s2.5,1.58,2.5,4.52v.88h-3.55c.08,1.73.8,2.43,1.63,2.43.6,0,.99-.22,1.58-.61l.14,1.5c-.68.42-1.19.63-1.94.63-1.63,0-3.03-1.51-3.03-4.47ZM254.26,191.81c0-1.68-.36-2.67-.97-2.67s-1.02.83-1.07,2.67h2.04Z"/>
    <path class="st3" d="M256.81,196.62v-1.62c.66.36,1.24.56,1.75.56s.92-.34.92-.87v-.03c0-.46-.2-.85-1.14-1.73-1.04-1.02-1.58-1.8-1.58-2.87v-.03c0-1.43,1-2.31,2.41-2.31.56,0,.99.07,1.48.25v1.6c-.46-.24-.94-.39-1.41-.39-.54,0-.9.32-.9.8v.03c0,.44.2.75,1.17,1.72,1.17,1.12,1.55,1.85,1.55,2.87v.03c0,1.48-1.07,2.41-2.41,2.41-.63,0-1.26-.17-1.84-.42Z"/>
    <path class="st3" d="M265.11,192.57v-.36c0-2.97,1.22-4.52,2.67-4.52s2.5,1.58,2.5,4.52v.88h-3.55c.08,1.73.8,2.43,1.63,2.43.6,0,.99-.22,1.58-.61l.14,1.5c-.68.42-1.19.63-1.94.63-1.63,0-3.03-1.51-3.03-4.47ZM268.75,191.81c0-1.68-.36-2.67-.97-2.67s-1.02.83-1.07,2.67h2.04Z"/>
    <path class="st3" d="M271.45,192.69v-.66c0-3.13.92-4.35,2.06-4.35.88,0,1.36.76,1.67,1.44v-4.23h1.63v12h-1.63v-1.31c-.31.68-.78,1.46-1.67,1.46-1.14,0-2.06-1.19-2.06-4.35ZM275.2,192.64v-.56c0-1.85-.48-2.87-1.1-2.87s-1.04,1.04-1.04,2.91v.51c0,1.87.39,2.89,1.04,2.89s1.1-1,1.1-2.87Z"/>
    <path class="st3" d="M278.42,194.54v-6.71h1.61v6.36c0,.92.34,1.41.9,1.41s1-.54,1-1.44v-6.32h1.61v9.06h-1.61v-1.16c-.34.71-.83,1.31-1.68,1.31-1.17,0-1.83-.99-1.83-2.5Z"/>
    <path class="st3" d="M285,192.59v-.42c0-2.97,1.26-4.45,2.82-4.45.54,0,.83.07,1.21.25v1.67c-.34-.2-.66-.36-1.04-.36-.71,0-1.36.8-1.36,2.86v.49c0,2.06.63,2.86,1.41,2.86.31,0,.66-.17.99-.41v1.61c-.41.24-.75.36-1.24.36-1.61,0-2.79-1.46-2.79-4.45Z"/>
    <path class="st3" d="M290.03,194.34v-.24c0-1.94.83-2.89,2.12-2.89.48,0,.9.14,1.29.34v-.71c0-1.04-.49-1.6-1.39-1.6-.56,0-1.05.19-1.56.42v-1.55c.58-.25,1.11-.39,1.84-.39,1.73,0,2.72,1.04,2.72,2.99v6.17h-1.61v-1.07c-.36.8-.85,1.22-1.56,1.22-1.07,0-1.84-1.07-1.84-2.7ZM293.45,194.37v-1.63c-.25-.12-.59-.24-.88-.24-.61,0-.97.51-.97,1.5v.2c0,1,.34,1.48.87,1.48.56,0,.99-.54.99-1.31Z"/>
    <path class="st3" d="M296.42,192.59v-.42c0-2.97,1.26-4.45,2.82-4.45.54,0,.83.07,1.21.25v1.67c-.34-.2-.66-.36-1.04-.36-.71,0-1.36.8-1.36,2.86v.49c0,2.06.63,2.86,1.41,2.86.31,0,.66-.17.99-.41v1.61c-.41.24-.75.36-1.24.36-1.61,0-2.79-1.46-2.79-4.45Z"/>
    <path class="st3" d="M301.83,184.89h1.67v1.77h-1.67v-1.77ZM301.86,187.83h1.62v9.06h-1.62v-9.06Z"/>
    <path class="st3" d="M304.96,192.59v-.42c0-2.89,1.19-4.47,2.74-4.47s2.72,1.58,2.72,4.47v.42c0,2.89-1.19,4.45-2.72,4.45s-2.74-1.56-2.74-4.45ZM308.8,192.61v-.48c0-1.95-.46-2.99-1.1-2.99s-1.12,1.04-1.12,2.99v.48c0,1.95.46,2.99,1.12,2.99s1.1-1.04,1.1-2.99Z"/>
    <path class="st3" d="M311.86,187.83h1.61v1.16c.34-.71.83-1.31,1.68-1.31,1.17,0,1.84.99,1.84,2.52v6.7h-1.62v-6.36c0-.92-.34-1.41-.9-1.41s-1,.54-1,1.45v6.32h-1.61v-9.06Z"/>
    <path class="st3" d="M318.25,194.34v-.24c0-1.94.83-2.89,2.12-2.89.48,0,.9.14,1.29.34v-.71c0-1.04-.49-1.6-1.39-1.6-.56,0-1.05.19-1.56.42v-1.55c.58-.25,1.11-.39,1.84-.39,1.73,0,2.72,1.04,2.72,2.99v6.17h-1.61v-1.07c-.36.8-.85,1.22-1.56,1.22-1.07,0-1.84-1.07-1.84-2.7ZM321.67,194.37v-1.63c-.25-.12-.59-.24-.88-.24-.61,0-.97.51-.97,1.5v.2c0,1,.34,1.48.87,1.48.56,0,.99-.54.99-1.31Z"/>
    <path class="st3" d="M324.88,184.89h1.67v1.77h-1.67v-1.77ZM324.91,187.83h1.62v9.06h-1.62v-9.06Z"/>
    <path class="st3" d="M327.89,196.62v-1.62c.66.36,1.24.56,1.75.56s.92-.34.92-.87v-.03c0-.46-.2-.85-1.14-1.73-1.04-1.02-1.58-1.8-1.58-2.87v-.03c0-1.43,1-2.31,2.41-2.31.56,0,.99.07,1.48.25v1.6c-.46-.24-.94-.39-1.41-.39-.54,0-.9.32-.9.8v.03c0,.44.2.75,1.17,1.72,1.17,1.12,1.55,1.85,1.55,2.87v.03c0,1.48-1.07,2.41-2.41,2.41-.63,0-1.26-.17-1.84-.42Z"/>
  </g>
  <g>
    <path class="st3" d="M55.32,224.13h-1.61v-1.58h4.88v1.58h-1.6v10.32h-1.67v-10.32Z"/>
    <path class="st3" d="M59.25,225.39h1.61v1.19c.29-.78.8-1.34,1.65-1.29v1.92h-.03c-1,0-1.62.66-1.62,2.04v5.2h-1.61v-9.06Z"/>
    <path class="st3" d="M63.18,231.9v-.24c0-1.94.83-2.89,2.12-2.89.48,0,.9.14,1.29.34v-.71c0-1.04-.49-1.6-1.39-1.6-.56,0-1.05.19-1.56.42v-1.55c.58-.25,1.11-.39,1.84-.39,1.73,0,2.72,1.04,2.72,2.99v6.17h-1.61v-1.07c-.36.8-.85,1.22-1.56,1.22-1.07,0-1.84-1.07-1.84-2.7ZM66.59,231.94v-1.63c-.25-.12-.59-.24-.88-.24-.61,0-.97.51-.97,1.5v.2c0,1,.34,1.48.87,1.48.56,0,.99-.54.99-1.31Z"/>
    <path class="st3" d="M69.79,225.39h1.61v1.16c.34-.71.83-1.31,1.68-1.31,1.17,0,1.84.99,1.84,2.52v6.7h-1.62v-6.36c0-.92-.34-1.41-.9-1.41s-1,.54-1,1.45v6.32h-1.61v-9.06Z"/>
    <path class="st3" d="M76.2,234.18v-1.62c.66.36,1.24.56,1.75.56s.92-.34.92-.87v-.03c0-.46-.2-.85-1.14-1.73-1.04-1.02-1.58-1.8-1.58-2.87v-.03c0-1.43,1-2.31,2.41-2.31.56,0,.99.07,1.48.25v1.6c-.46-.24-.94-.39-1.41-.39-.54,0-.9.32-.9.8v.03c0,.44.2.75,1.17,1.72,1.17,1.12,1.55,1.85,1.55,2.87v.03c0,1.48-1.07,2.41-2.41,2.41-.63,0-1.26-.17-1.84-.42Z"/>
    <path class="st3" d="M81.67,225.39h1.61v1.33c.31-.7.8-1.48,1.68-1.48,1.12,0,2.06,1.19,2.06,4.35v.66c0,3.13-.94,4.35-2.06,4.35-.88,0-1.36-.75-1.68-1.45v3.5h-1.61v-11.27ZM85.41,230.18v-.51c0-1.89-.41-2.91-1.04-2.91s-1.1,1.02-1.1,2.87v.56c0,1.85.48,2.87,1.1,2.87s1.04-1.02,1.04-2.89Z"/>
    <path class="st3" d="M88.29,230.15v-.42c0-2.89,1.19-4.47,2.74-4.47s2.72,1.58,2.72,4.47v.42c0,2.89-1.19,4.45-2.72,4.45s-2.74-1.56-2.74-4.45ZM92.13,230.17v-.48c0-1.95-.46-2.99-1.1-2.99s-1.12,1.04-1.12,2.99v.48c0,1.95.46,2.99,1.12,2.99s1.1-1.04,1.1-2.99Z"/>
    <path class="st3" d="M95.19,225.39h1.61v1.19c.29-.78.8-1.34,1.65-1.29v1.92h-.03c-1,0-1.62.66-1.62,2.04v5.2h-1.61v-9.06Z"/>
    <path class="st3" d="M99.95,232.9v-6.17h-.65v-1.34h.65v-2.38h1.62v2.38h1.17v1.34h-1.17v5.66c0,.53.24.7.66.7.17,0,.36-.03.51-.1v1.33c-.26.14-.66.24-1,.24-.97,0-1.79-.34-1.79-1.65Z"/>
    <path class="st3" d="M103.72,231.9v-.24c0-1.94.83-2.89,2.12-2.89.48,0,.9.14,1.29.34v-.71c0-1.04-.49-1.6-1.39-1.6-.56,0-1.05.19-1.56.42v-1.55c.58-.25,1.11-.39,1.84-.39,1.73,0,2.72,1.04,2.72,2.99v6.17h-1.61v-1.07c-.36.8-.85,1.22-1.56,1.22-1.07,0-1.84-1.07-1.84-2.7ZM107.14,231.94v-1.63c-.25-.12-.59-.24-.88-.24-.61,0-.97.51-.97,1.5v.2c0,1,.34,1.48.87,1.48.56,0,.99-.54.99-1.31Z"/>
    <path class="st3" d="M110.34,225.39h1.61v1.19c.29-.78.8-1.34,1.65-1.29v1.92h-.03c-1,0-1.62.66-1.62,2.04v5.2h-1.61v-9.06Z"/>
    <path class="st3" d="M117.7,230.15v-.42c0-2.89,1.19-4.47,2.74-4.47s2.72,1.58,2.72,4.47v.42c0,2.89-1.19,4.45-2.72,4.45s-2.74-1.56-2.74-4.45ZM121.54,230.17v-.48c0-1.95-.46-2.99-1.1-2.99s-1.12,1.04-1.12,2.99v.48c0,1.95.46,2.99,1.12,2.99s1.1-1.04,1.1-2.99Z"/>
    <path class="st3" d="M124.55,232.11v-6.71h1.61v6.36c0,.92.34,1.41.9,1.41s1-.54,1-1.44v-6.32h1.61v9.06h-1.61v-1.16c-.34.71-.83,1.31-1.68,1.31-1.17,0-1.84-.99-1.84-2.5Z"/>
    <path class="st3" d="M134.07,231.9v-.24c0-1.94.83-2.89,2.12-2.89.48,0,.9.14,1.29.34v-.71c0-1.04-.49-1.6-1.39-1.6-.56,0-1.05.19-1.56.42v-1.55c.58-.25,1.11-.39,1.84-.39,1.73,0,2.72,1.04,2.72,2.99v6.17h-1.61v-1.07c-.36.8-.85,1.22-1.56,1.22-1.07,0-1.84-1.07-1.84-2.7ZM137.48,231.94v-1.63c-.25-.12-.59-.24-.88-.24-.61,0-.97.51-.97,1.5v.2c0,1,.34,1.48.87,1.48.56,0,.99-.54.99-1.31Z"/>
    <path class="st3" d="M140.46,230.15v-.42c0-2.97,1.26-4.45,2.82-4.45.54,0,.83.07,1.21.25v1.67c-.34-.2-.66-.36-1.04-.36-.71,0-1.36.8-1.36,2.86v.49c0,2.06.63,2.86,1.41,2.86.31,0,.66-.17.99-.41v1.61c-.41.24-.75.36-1.24.36-1.61,0-2.79-1.46-2.79-4.45Z"/>
    <path class="st3" d="M145.46,230.15v-.42c0-2.89,1.19-4.47,2.74-4.47s2.72,1.58,2.72,4.47v.42c0,2.89-1.19,4.45-2.72,4.45s-2.74-1.56-2.74-4.45ZM149.3,230.17v-.48c0-1.95-.46-2.99-1.1-2.99s-1.12,1.04-1.12,2.99v.48c0,1.95.46,2.99,1.12,2.99s1.1-1.04,1.1-2.99Z"/>
    <path class="st3" d="M152.36,225.39h1.61v1.16c.37-.76.87-1.31,1.67-1.31s1.29.53,1.6,1.19c.34-.56.87-1.19,1.73-1.19,1.05,0,1.94.87,1.94,2.53v6.68h-1.61v-6.36c0-.92-.32-1.41-.88-1.41s-.97.54-.97,1.45v6.32h-1.61v-6.36c0-.92-.32-1.41-.88-1.41s-.97.54-.97,1.45v6.32h-1.61v-9.06Z"/>
    <path class="st3" d="M162.56,225.39h1.61v1.33c.31-.7.8-1.48,1.68-1.48,1.12,0,2.06,1.19,2.06,4.35v.66c0,3.13-.94,4.35-2.06,4.35-.88,0-1.36-.75-1.68-1.45v3.5h-1.61v-11.27ZM166.3,230.18v-.51c0-1.89-.41-2.91-1.04-2.91s-1.1,1.02-1.1,2.87v.56c0,1.85.48,2.87,1.1,2.87s1.04-1.02,1.04-2.89Z"/>
    <path class="st3" d="M169.04,231.9v-.24c0-1.94.83-2.89,2.12-2.89.48,0,.9.14,1.29.34v-.71c0-1.04-.49-1.6-1.39-1.6-.56,0-1.05.19-1.56.42v-1.55c.58-.25,1.11-.39,1.84-.39,1.73,0,2.72,1.04,2.72,2.99v6.17h-1.61v-1.07c-.36.8-.85,1.22-1.56,1.22-1.07,0-1.84-1.07-1.84-2.7ZM172.45,231.94v-1.63c-.25-.12-.59-.24-.88-.24-.61,0-.97.51-.97,1.5v.2c0,1,.34,1.48.87,1.48.56,0,.99-.54.99-1.31Z"/>
    <path class="st3" d="M175.65,225.39h1.61v1.16c.34-.71.83-1.31,1.68-1.31,1.17,0,1.84.99,1.84,2.52v6.7h-1.62v-6.36c0-.92-.34-1.41-.9-1.41s-1,.54-1,1.45v6.32h-1.61v-9.06Z"/>
    <path class="st3" d="M182.4,222.45h1.61v4.1c.34-.71.83-1.31,1.68-1.31,1.17,0,1.84.99,1.84,2.52v6.7h-1.62v-6.36c0-.92-.34-1.41-.9-1.41s-1,.54-1,1.45v6.32h-1.61v-12Z"/>
    <path class="st3" d="M188.79,231.9v-.24c0-1.94.83-2.89,2.12-2.89.48,0,.9.14,1.29.34v-.71c0-1.04-.49-1.6-1.39-1.6-.56,0-1.05.19-1.56.42v-1.55c.58-.25,1.11-.39,1.84-.39,1.73,0,2.72,1.04,2.72,2.99v6.17h-1.61v-1.07c-.36.8-.85,1.22-1.56,1.22-1.07,0-1.84-1.07-1.84-2.7ZM192.21,231.94v-1.63c-.25-.12-.59-.24-.88-.24-.61,0-.97.51-.97,1.5v.2c0,1,.34,1.48.87,1.48.56,0,.99-.54.99-1.31Z"/>
    <path class="st3" d="M195.4,225.39h1.61v1.19c.29-.78.8-1.34,1.65-1.29v1.92h-.03c-1,0-1.62.66-1.62,2.04v5.2h-1.61v-9.06Z"/>
    <path class="st3" d="M203,229.54c0-3.55,1.26-6.1,3.33-7.26v.83c-1.39,1.16-2.29,3.25-2.29,6.43s.9,5.25,2.29,6.41v.85c-2.07-1.16-3.33-3.72-3.33-7.26Z"/>
    <path class="st3" d="M207.3,230.15v-.24c0-3.04,1.17-4.57,2.53-4.57s2.4,1.58,2.4,4.42v.68h-3.88c.07,2.14.93,3.14,2.01,3.14.56,0,.97-.17,1.56-.56l.1,1.02c-.65.39-1.11.54-1.82.54-1.55,0-2.91-1.5-2.91-4.44ZM211.21,229.56c0-1.92-.56-3.25-1.38-3.25s-1.43,1.07-1.48,3.25h2.86Z"/>
    <path class="st3" d="M213.47,234.15v-1.07c.63.32,1.24.53,1.79.53.66,0,1.19-.44,1.19-1.16v-.03c0-.56-.31-1.1-1.31-2.06-1.21-1.16-1.68-1.89-1.68-2.86v-.03c0-1.33.99-2.11,2.18-2.11.58,0,1,.08,1.48.29v1.07c-.49-.25-.97-.37-1.48-.37-.65,0-1.12.41-1.12,1.07v.03c0,.56.29.99,1.33,2.01,1.21,1.21,1.67,1.94,1.67,2.91v.03c0,1.34-1.04,2.18-2.23,2.18-.66,0-1.22-.15-1.8-.42Z"/>
    <path class="st3" d="M218.69,230.12v-.27c0-3.04,1.31-4.49,2.75-4.49.48,0,.83.1,1.12.29v1.12c-.32-.24-.66-.39-1.07-.39-.83,0-1.73,1.04-1.73,3.43v.34c0,2.45.87,3.42,1.8,3.42.34,0,.7-.17,1-.41v1.07c-.32.22-.66.36-1.14.36-1.48,0-2.74-1.41-2.74-4.47Z"/>
    <path class="st3" d="M223.66,230.1v-.25c0-2.84,1.19-4.5,2.62-4.5s2.6,1.67,2.6,4.5v.25c0,2.84-1.19,4.5-2.62,4.5s-2.6-1.67-2.6-4.5ZM227.81,230.1v-.27c0-2.19-.68-3.52-1.55-3.52s-1.55,1.33-1.55,3.52v.27c0,2.19.68,3.54,1.55,3.54s1.55-1.34,1.55-3.54Z"/>
    <path class="st3" d="M230.59,222.45h1.07v12h-1.07v-12Z"/>
    <path class="st3" d="M233.3,231.87v-.17c0-1.77.85-2.87,2.26-2.87.56,0,1.02.15,1.43.34v-.97c0-1.16-.54-1.82-1.6-1.82-.59,0-1.09.14-1.62.41v-1.02c.53-.25,1.07-.39,1.75-.39,1.56,0,2.52.95,2.52,2.72v6.36h-1.07v-1.21c-.36.85-.9,1.36-1.72,1.36-1.14,0-1.95-1.14-1.95-2.74ZM236.98,231.77v-1.72c-.39-.19-.82-.32-1.24-.32-.92,0-1.41.76-1.41,1.9v.17c0,1.12.44,1.89,1.22,1.89.85,0,1.43-.9,1.43-1.92Z"/>
    <path class="st3" d="M239.43,235.93c.83-.27,1.09-.8,1.02-1.48h-.61v-1.65h1.39v1.39c0,1.26-.46,1.89-1.6,2.28l-.2-.54Z"/>
    <path class="st3" d="M246.23,225.48h1.05v1.24c.34-.75.85-1.39,1.73-1.39s1.41.63,1.7,1.39c.32-.66.88-1.39,1.89-1.39,1.14,0,1.99.93,1.99,2.7v6.43h-1.05v-6.27c0-1.26-.46-1.92-1.21-1.92s-1.39.8-1.39,2.02v6.17h-1.05v-6.27c0-1.26-.46-1.92-1.21-1.92s-1.39.8-1.39,2.02v6.17h-1.05v-8.97Z"/>
    <path class="st3" d="M256.2,230.15v-.24c0-3.04,1.17-4.57,2.53-4.57s2.4,1.58,2.4,4.42v.68h-3.88c.07,2.14.93,3.14,2.01,3.14.56,0,.97-.17,1.56-.56l.1,1.02c-.65.39-1.11.54-1.82.54-1.55,0-2.91-1.5-2.91-4.44ZM260.1,229.56c0-1.92-.56-3.25-1.38-3.25s-1.43,1.07-1.48,3.25h2.86ZM259.48,222.43l1.02.54-1.48,1.68h-.73l1.19-2.23Z"/>
    <path class="st3" d="M262.52,230.18v-.44c0-2.96,1.04-4.42,2.21-4.42.9,0,1.46.82,1.8,1.7v-4.57h1.07v12h-1.07v-1.56c-.34.9-.9,1.72-1.8,1.72-1.17,0-2.21-1.43-2.21-4.42ZM266.56,230.2v-.48c0-2.19-.75-3.42-1.55-3.42s-1.45,1.24-1.45,3.47v.37c0,2.23.63,3.47,1.45,3.47s1.55-1.22,1.55-3.42Z"/>
    <path class="st3" d="M269.61,222.45h1.1v1.39h-1.1v-1.39ZM269.62,225.48h1.07v8.97h-1.07v-8.97Z"/>
    <path class="st3" d="M272.43,230.12v-.27c0-3.04,1.31-4.49,2.75-4.49.48,0,.83.1,1.12.29v1.12c-.32-.24-.66-.39-1.07-.39-.83,0-1.73,1.04-1.73,3.43v.34c0,2.45.87,3.42,1.8,3.42.34,0,.7-.17,1-.41v1.07c-.32.22-.66.36-1.14.36-1.48,0-2.74-1.41-2.74-4.47Z"/>
    <path class="st3" d="M277.39,230.1v-.25c0-2.84,1.19-4.5,2.62-4.5s2.6,1.67,2.6,4.5v.25c0,2.84-1.19,4.5-2.62,4.5s-2.6-1.67-2.6-4.5ZM281.54,230.1v-.27c0-2.19-.68-3.52-1.55-3.52s-1.55,1.33-1.55,3.52v.27c0,2.19.68,3.54,1.55,3.54s1.55-1.34,1.55-3.54Z"/>
    <path class="st3" d="M283.68,235.93c.83-.27,1.09-.8,1.02-1.48h-.61v-1.65h1.39v1.39c0,1.26-.46,1.89-1.6,2.28l-.2-.54Z"/>
    <path class="st3" d="M290.16,230.15v-.24c0-3.04,1.17-4.57,2.53-4.57s2.4,1.58,2.4,4.42v.68h-3.88c.07,2.14.93,3.14,2.01,3.14.56,0,.97-.17,1.56-.56l.1,1.02c-.65.39-1.11.54-1.82.54-1.55,0-2.91-1.5-2.91-4.44ZM294.07,229.56c0-1.92-.56-3.25-1.38-3.25s-1.43,1.07-1.48,3.25h2.86Z"/>
    <path class="st3" d="M297.95,229.83l-1.78-4.35h1.09l1.33,3.42,1.33-3.42h1.07l-1.77,4.32,1.89,4.66h-1.11l-1.43-3.69-1.43,3.69h-1.07l1.89-4.62Z"/>
    <path class="st3" d="M302.03,231.87v-.17c0-1.77.85-2.87,2.26-2.87.56,0,1.02.15,1.43.34v-.97c0-1.16-.54-1.82-1.6-1.82-.6,0-1.09.14-1.62.41v-1.02c.53-.25,1.07-.39,1.75-.39,1.56,0,2.52.95,2.52,2.72v6.36h-1.07v-1.21c-.36.85-.9,1.36-1.72,1.36-1.14,0-1.95-1.14-1.95-2.74ZM305.71,231.77v-1.72c-.39-.19-.82-.32-1.24-.32-.92,0-1.41.76-1.41,1.9v.17c0,1.12.44,1.89,1.22,1.89.85,0,1.43-.9,1.43-1.92Z"/>
    <path class="st3" d="M308.66,225.48h1.05v1.24c.34-.75.85-1.39,1.73-1.39s1.41.63,1.7,1.39c.32-.66.88-1.39,1.89-1.39,1.14,0,1.99.93,1.99,2.7v6.43h-1.05v-6.27c0-1.26-.46-1.92-1.21-1.92s-1.39.8-1.39,2.02v6.17h-1.05v-6.27c0-1.26-.46-1.92-1.21-1.92s-1.39.8-1.39,2.02v6.17h-1.05v-8.97Z"/>
    <path class="st3" d="M318.62,230.15v-.24c0-3.04,1.17-4.57,2.53-4.57s2.4,1.58,2.4,4.42v.68h-3.88c.07,2.14.93,3.14,2.01,3.14.56,0,.97-.17,1.56-.56l.1,1.02c-.65.39-1.11.54-1.82.54-1.55,0-2.91-1.5-2.91-4.44ZM322.53,229.56c0-1.92-.56-3.25-1.38-3.25s-1.43,1.07-1.48,3.25h2.86Z"/>
    <path class="st3" d="M324.79,234.15v-1.07c.63.32,1.24.53,1.79.53.66,0,1.19-.44,1.19-1.16v-.03c0-.56-.31-1.1-1.31-2.06-1.21-1.16-1.68-1.89-1.68-2.86v-.03c0-1.33.99-2.11,2.18-2.11.58,0,1,.08,1.48.29v1.07c-.49-.25-.97-.37-1.48-.37-.65,0-1.12.41-1.12,1.07v.03c0,.56.29.99,1.33,2.01,1.21,1.21,1.67,1.94,1.67,2.91v.03c0,1.34-1.04,2.18-2.23,2.18-.66,0-1.22-.15-1.8-.42Z"/>
    <path class="st3" d="M329.82,235.93c.83-.27,1.09-.8,1.02-1.48h-.61v-1.65h1.39v1.39c0,1.26-.46,1.89-1.6,2.28l-.2-.54Z"/>
    <path class="st3" d="M99,241.48h1.05v1.56c.34-.9.9-1.72,1.8-1.72,1.19,0,2.23,1.43,2.23,4.42v.44c0,2.96-1.04,4.42-2.23,4.42-.9,0-1.46-.82-1.8-1.7v3.76h-1.05v-11.18ZM103.01,246.15v-.37c0-2.23-.63-3.47-1.44-3.47s-1.55,1.22-1.55,3.42v.48c0,2.19.75,3.42,1.55,3.42s1.44-1.24,1.44-3.47Z"/>
    <path class="st3" d="M105.35,247.87v-.17c0-1.77.85-2.87,2.26-2.87.56,0,1.02.15,1.43.34v-.97c0-1.16-.54-1.82-1.6-1.82-.59,0-1.09.14-1.62.41v-1.02c.53-.25,1.07-.39,1.75-.39,1.56,0,2.52.95,2.52,2.72v6.36h-1.07v-1.21c-.36.85-.9,1.36-1.72,1.36-1.14,0-1.95-1.14-1.95-2.74ZM109.04,247.77v-1.72c-.39-.19-.82-.32-1.24-.32-.92,0-1.41.76-1.41,1.9v.17c0,1.12.44,1.89,1.22,1.89.85,0,1.43-.9,1.43-1.92Z"/>
    <path class="st3" d="M111.98,241.48h1.05v1.26c.32-.8.95-1.43,1.92-1.36v1.21h-.03c-1.07,0-1.89.7-1.89,2.19v5.68h-1.05v-8.97Z"/>
    <path class="st3" d="M119.82,248.89c-.34.9-.9,1.72-1.8,1.72-1.17,0-2.21-1.43-2.21-4.42v-.44c0-2.96,1.04-4.42,2.21-4.42.9,0,1.46.82,1.8,1.7v-1.55h1.07v11.18h-1.07v-3.77ZM119.85,246.2v-.48c0-2.19-.75-3.42-1.55-3.42s-1.45,1.24-1.45,3.47v.37c0,2.23.63,3.47,1.45,3.47s1.55-1.22,1.55-3.42Z"/>
    <path class="st3" d="M122.78,247.9v-6.42h1.05v6.24c0,1.26.46,1.95,1.26,1.95s1.43-.82,1.43-2.04v-6.15h1.05v8.97h-1.05v-1.24c-.32.73-.85,1.39-1.78,1.39-1.19,0-1.96-1-1.96-2.7Z"/>
    <path class="st3" d="M129.22,246.15v-.24c0-3.04,1.17-4.57,2.53-4.57s2.4,1.58,2.4,4.42v.68h-3.88c.07,2.14.93,3.14,2.01,3.14.56,0,.97-.17,1.56-.56l.1,1.02c-.65.39-1.11.54-1.82.54-1.55,0-2.91-1.5-2.91-4.44ZM133.13,245.56c0-1.92-.56-3.25-1.38-3.25s-1.43,1.07-1.48,3.25h2.86Z"/>
    <path class="st3" d="M135.15,251.93c.83-.27,1.09-.8,1.02-1.48h-.61v-1.65h1.39v1.39c0,1.26-.46,1.89-1.6,2.28l-.2-.54Z"/>
    <path class="st3" d="M141.95,241.48h1.05v1.56c.34-.9.9-1.72,1.8-1.72,1.19,0,2.23,1.43,2.23,4.42v.44c0,2.96-1.04,4.42-2.23,4.42-.9,0-1.46-.82-1.8-1.7v3.76h-1.05v-11.18ZM145.97,246.15v-.37c0-2.23-.63-3.47-1.44-3.47s-1.55,1.22-1.55,3.42v.48c0,2.19.75,3.42,1.55,3.42s1.44-1.24,1.44-3.47Z"/>
    <path class="st3" d="M148.72,241.48h1.05v1.26c.32-.8.95-1.43,1.92-1.36v1.21h-.03c-1.07,0-1.89.7-1.89,2.19v5.68h-1.05v-8.97Z"/>
    <path class="st3" d="M152.41,247.87v-.17c0-1.77.85-2.87,2.26-2.87.56,0,1.02.15,1.43.34v-.97c0-1.16-.54-1.82-1.6-1.82-.59,0-1.09.14-1.62.41v-1.02c.53-.25,1.07-.39,1.75-.39,1.56,0,2.52.95,2.52,2.72v6.36h-1.07v-1.21c-.36.85-.9,1.36-1.72,1.36-1.14,0-1.95-1.14-1.95-2.74ZM156.1,247.77v-1.72c-.39-.19-.82-.32-1.24-.32-.92,0-1.41.76-1.41,1.9v.17c0,1.12.44,1.89,1.22,1.89.85,0,1.43-.9,1.43-1.92Z"/>
    <path class="st3" d="M159.8,251.98l.92-1.53c-1.12-.39-1.99-1.8-1.99-4.33v-.27c0-3.04,1.31-4.49,2.75-4.49.48,0,.83.1,1.12.29v1.12c-.32-.24-.66-.39-1.07-.39-.83,0-1.73,1.04-1.73,3.43v.34c0,2.45.87,3.42,1.8,3.42.34,0,.7-.17,1-.41v1.07c-.32.22-.66.36-1.14.36l-.63,1.82-1.04-.42Z"/>
    <path class="st3" d="M163.77,247.87v-.17c0-1.77.85-2.87,2.26-2.87.56,0,1.02.15,1.43.34v-.97c0-1.16-.54-1.82-1.6-1.82-.59,0-1.09.14-1.62.41v-1.02c.53-.25,1.07-.39,1.75-.39,1.56,0,2.52.95,2.52,2.72v6.36h-1.07v-1.21c-.36.85-.9,1.36-1.72,1.36-1.14,0-1.95-1.14-1.95-2.74ZM167.45,247.77v-1.72c-.39-.19-.82-.32-1.24-.32-.92,0-1.41.76-1.41,1.9v.17c0,1.12.44,1.89,1.22,1.89.85,0,1.43-.9,1.43-1.92Z"/>
    <path class="st3" d="M169.9,251.93c.83-.27,1.09-.8,1.02-1.48h-.61v-1.65h1.39v1.39c0,1.26-.46,1.89-1.6,2.28l-.2-.54Z"/>
    <path class="st3" d="M176.29,247.87v-.17c0-1.77.85-2.87,2.26-2.87.56,0,1.02.15,1.43.34v-.97c0-1.16-.54-1.82-1.6-1.82-.6,0-1.09.14-1.62.41v-1.02c.53-.25,1.07-.39,1.75-.39,1.56,0,2.52.95,2.52,2.72v6.36h-1.07v-1.21c-.36.85-.9,1.36-1.72,1.36-1.14,0-1.95-1.14-1.95-2.74ZM179.98,247.77v-1.72c-.39-.19-.82-.32-1.24-.32-.92,0-1.41.76-1.41,1.9v.17c0,1.12.44,1.89,1.22,1.89.85,0,1.43-.9,1.43-1.92Z"/>
    <path class="st3" d="M183.09,248.94v-6.54h-.77v-.92h.77v-2.46h1.07v2.46h1.34v.92h-1.34v6.29c0,.68.31.87.83.87.15,0,.37-.03.53-.08v.92c-.2.08-.53.15-.77.15-.97,0-1.67-.39-1.67-1.6Z"/>
    <path class="st3" d="M187.14,238.45h1.1v1.39h-1.1v-1.39ZM187.16,241.48h1.07v8.97h-1.07v-8.97Z"/>
    <path class="st3" d="M189.83,241.48h1.07l1.55,7.22,1.56-7.22h1.04l-2.11,9.03h-.99l-2.12-9.03Z"/>
    <path class="st3" d="M196.64,238.45h1.1v1.39h-1.1v-1.39ZM196.66,241.48h1.07v8.97h-1.07v-8.97Z"/>
    <path class="st3" d="M199.5,246.18v-.44c0-2.96,1.04-4.42,2.21-4.42.9,0,1.46.82,1.8,1.7v-4.57h1.07v12h-1.07v-1.56c-.34.9-.9,1.72-1.8,1.72-1.17,0-2.21-1.43-2.21-4.42ZM203.54,246.2v-.48c0-2.19-.75-3.42-1.55-3.42s-1.45,1.24-1.45,3.47v.37c0,2.23.63,3.47,1.45,3.47s1.55-1.22,1.55-3.42Z"/>
    <path class="st3" d="M206.13,247.87v-.17c0-1.77.85-2.87,2.26-2.87.56,0,1.02.15,1.43.34v-.97c0-1.16-.54-1.82-1.6-1.82-.6,0-1.09.14-1.62.41v-1.02c.53-.25,1.07-.39,1.75-.39,1.56,0,2.52.95,2.52,2.72v6.36h-1.07v-1.21c-.36.85-.9,1.36-1.72,1.36-1.14,0-1.95-1.14-1.95-2.74ZM209.82,247.77v-1.72c-.39-.19-.82-.32-1.24-.32-.92,0-1.41.76-1.41,1.9v.17c0,1.12.44,1.89,1.22,1.89.85,0,1.43-.9,1.43-1.92Z"/>
    <path class="st3" d="M212.49,246.18v-.44c0-2.96,1.04-4.42,2.21-4.42.9,0,1.46.82,1.8,1.7v-4.57h1.07v12h-1.07v-1.56c-.34.9-.9,1.72-1.8,1.72-1.17,0-2.21-1.43-2.21-4.42ZM216.53,246.2v-.48c0-2.19-.75-3.42-1.55-3.42s-1.45,1.24-1.45,3.47v.37c0,2.23.63,3.47,1.45,3.47s1.55-1.22,1.55-3.42Z"/>
    <path class="st3" d="M219.2,246.15v-.24c0-3.04,1.17-4.57,2.53-4.57s2.4,1.58,2.4,4.42v.68h-3.88c.07,2.14.93,3.14,2.01,3.14.56,0,.97-.17,1.56-.56l.1,1.02c-.65.39-1.11.54-1.82.54-1.55,0-2.91-1.5-2.91-4.44ZM223.11,245.56c0-1.92-.56-3.25-1.38-3.25s-1.43,1.07-1.48,3.25h2.86Z"/>
    <path class="st3" d="M225.37,250.15v-1.07c.63.32,1.24.53,1.79.53.66,0,1.19-.44,1.19-1.16v-.03c0-.56-.31-1.1-1.31-2.06-1.21-1.16-1.68-1.89-1.68-2.86v-.03c0-1.33.99-2.11,2.18-2.11.58,0,1,.08,1.48.29v1.07c-.49-.25-.97-.37-1.48-.37-.65,0-1.12.41-1.12,1.07v.03c0,.56.29.99,1.33,2.01,1.21,1.21,1.67,1.94,1.67,2.91v.03c0,1.34-1.04,2.18-2.23,2.18-.66,0-1.22-.15-1.8-.42Z"/>
    <path class="st3" d="M233.58,250.15v-1.07c.63.32,1.24.53,1.79.53.66,0,1.19-.44,1.19-1.16v-.03c0-.56-.31-1.1-1.31-2.06-1.21-1.16-1.68-1.89-1.68-2.86v-.03c0-1.33.99-2.11,2.18-2.11.58,0,1,.08,1.48.29v1.07c-.49-.25-.97-.37-1.48-.37-.65,0-1.12.41-1.12,1.07v.03c0,.56.29.99,1.33,2.01,1.21,1.21,1.67,1.94,1.67,2.91v.03c0,1.34-1.04,2.18-2.23,2.18-.66,0-1.22-.15-1.8-.42Z"/>
    <path class="st3" d="M238.8,246.1v-.25c0-2.84,1.19-4.5,2.62-4.5s2.6,1.67,2.6,4.5v.25c0,2.84-1.19,4.5-2.62,4.5s-2.6-1.67-2.6-4.5ZM242.95,246.1v-.27c0-2.19-.68-3.52-1.55-3.52s-1.55,1.33-1.55,3.52v.27c0,2.19.68,3.54,1.55,3.54s1.55-1.34,1.55-3.54Z"/>
    <path class="st3" d="M245.36,246.12v-.27c0-3.04,1.31-4.49,2.75-4.49.48,0,.83.1,1.12.29v1.12c-.32-.24-.66-.39-1.07-.39-.83,0-1.73,1.04-1.73,3.43v.34c0,2.45.87,3.42,1.8,3.42.34,0,.7-.17,1-.41v1.07c-.32.22-.66.36-1.14.36-1.48,0-2.74-1.41-2.74-4.47Z"/>
    <path class="st3" d="M250.85,238.45h1.1v1.39h-1.1v-1.39ZM250.87,241.48h1.07v8.97h-1.07v-8.97Z"/>
    <path class="st3" d="M253.57,247.87v-.17c0-1.77.85-2.87,2.26-2.87.56,0,1.02.15,1.43.34v-.97c0-1.16-.54-1.82-1.6-1.82-.6,0-1.09.14-1.62.41v-1.02c.53-.25,1.07-.39,1.75-.39,1.56,0,2.52.95,2.52,2.72v6.36h-1.07v-1.21c-.36.85-.9,1.36-1.72,1.36-1.14,0-1.95-1.14-1.95-2.74ZM257.26,247.77v-1.72c-.39-.19-.82-.32-1.24-.32-.92,0-1.41.76-1.41,1.9v.17c0,1.12.44,1.89,1.22,1.89.85,0,1.43-.9,1.43-1.92Z"/>
    <path class="st3" d="M260.25,238.45h1.1v1.39h-1.1v-1.39ZM260.27,241.48h1.07v8.97h-1.07v-8.97Z"/>
    <path class="st3" d="M262.96,250.15v-1.07c.63.32,1.24.53,1.79.53.66,0,1.19-.44,1.19-1.16v-.03c0-.56-.31-1.1-1.31-2.06-1.21-1.16-1.68-1.89-1.68-2.86v-.03c0-1.33.99-2.11,2.18-2.11.58,0,1,.08,1.48.29v1.07c-.49-.25-.97-.37-1.48-.37-.65,0-1.12.41-1.12,1.07v.03c0,.56.29.99,1.33,2.01,1.21,1.21,1.67,1.94,1.67,2.91v.03c0,1.34-1.04,2.18-2.23,2.18-.66,0-1.22-.15-1.8-.42Z"/>
    <path class="st3" d="M267.99,251.93c.83-.27,1.09-.8,1.02-1.48h-.61v-1.65h1.39v1.39c0,1.26-.46,1.89-1.6,2.28l-.2-.54Z"/>
    <path class="st3" d="M274.48,246.12v-.27c0-3.04,1.31-4.49,2.75-4.49.48,0,.83.1,1.12.29v1.12c-.32-.24-.66-.39-1.07-.39-.83,0-1.73,1.04-1.73,3.43v.34c0,2.45.87,3.42,1.8,3.42.34,0,.7-.17,1-.41v1.07c-.32.22-.66.36-1.14.36-1.48,0-2.74-1.41-2.74-4.47Z"/>
    <path class="st3" d="M279.85,247.9v-6.42h1.05v6.24c0,1.26.46,1.95,1.26,1.95s1.43-.82,1.43-2.04v-6.15h1.05v8.97h-1.05v-1.24c-.32.73-.85,1.39-1.78,1.39-1.19,0-1.96-1-1.96-2.7Z"/>
    <path class="st3" d="M286.69,238.45h1.07v12h-1.07v-12Z"/>
    <path class="st3" d="M290.05,248.94v-6.54h-.77v-.92h.77v-2.46h1.07v2.46h1.34v.92h-1.34v6.29c0,.68.31.87.83.87.15,0,.37-.03.53-.08v.92c-.2.08-.53.15-.77.15-.97,0-1.67-.39-1.67-1.6Z"/>
    <path class="st3" d="M293.98,247.9v-6.42h1.05v6.24c0,1.26.46,1.95,1.26,1.95s1.43-.82,1.43-2.04v-6.15h1.05v8.97h-1.05v-1.24c-.32.73-.85,1.39-1.78,1.39-1.19,0-1.96-1-1.96-2.7Z"/>
    <path class="st3" d="M300.75,241.48h1.05v1.26c.32-.8.95-1.43,1.92-1.36v1.21h-.03c-1.07,0-1.89.7-1.89,2.19v5.68h-1.05v-8.97Z"/>
    <path class="st3" d="M304.44,247.87v-.17c0-1.77.85-2.87,2.26-2.87.56,0,1.02.15,1.43.34v-.97c0-1.16-.54-1.82-1.6-1.82-.59,0-1.09.14-1.62.41v-1.02c.53-.25,1.07-.39,1.75-.39,1.56,0,2.52.95,2.52,2.72v6.36h-1.07v-1.21c-.36.85-.9,1.36-1.72,1.36-1.14,0-1.95-1.14-1.95-2.74ZM308.12,247.77v-1.72c-.39-.19-.82-.32-1.24-.32-.92,0-1.41.76-1.41,1.9v.17c0,1.12.44,1.89,1.22,1.89.85,0,1.43-.9,1.43-1.92Z"/>
    <path class="st3" d="M311.12,238.45h1.1v1.39h-1.1v-1.39ZM311.13,241.48h1.07v8.97h-1.07v-8.97Z"/>
    <path class="st3" d="M313.82,250.15v-1.07c.63.32,1.24.53,1.79.53.66,0,1.19-.44,1.19-1.16v-.03c0-.56-.31-1.1-1.31-2.06-1.21-1.16-1.68-1.89-1.68-2.86v-.03c0-1.33.99-2.11,2.18-2.11.58,0,1,.08,1.48.29v1.07c-.49-.25-.97-.37-1.48-.37-.65,0-1.12.41-1.12,1.07v.03c0,.56.29.99,1.33,2.01,1.21,1.21,1.67,1.94,1.67,2.91v.03c0,1.34-1.04,2.18-2.23,2.18-.66,0-1.22-.15-1.8-.42Z"/>
    <path class="st3" d="M319.29,248.75h1.43v1.7h-1.43v-1.7ZM322.42,248.75h1.43v1.7h-1.43v-1.7ZM325.53,248.75h1.43v1.7h-1.43v-1.7Z"/>
    <path class="st3" d="M328.37,251.95c1.41-1.16,2.29-3.23,2.29-6.41s-.88-5.27-2.29-6.43v-.83c2.09,1.16,3.35,3.71,3.35,7.26s-1.26,6.1-3.35,7.26v-.85Z"/>
  </g>
  <g>
    <path class="st3" d="M233.38,139.15h1.68v10.32h2.43v1.58h-4.11v-11.9Z"/>
    <path class="st3" d="M237.92,146.73v-.36c0-2.97,1.22-4.52,2.67-4.52s2.5,1.58,2.5,4.52v.88h-3.55c.08,1.73.8,2.43,1.63,2.43.6,0,.99-.22,1.58-.61l.14,1.5c-.68.42-1.19.63-1.94.63-1.63,0-3.03-1.51-3.03-4.47ZM241.56,145.97c0-1.68-.36-2.67-.97-2.67s-1.02.83-1.07,2.67h2.04Z"/>
    <path class="st3" d="M244.11,141.99h1.61v1.19c.29-.78.8-1.34,1.65-1.29v1.92h-.03c-1,0-1.62.66-1.62,2.04v5.2h-1.61v-9.06Z"/>
    <path class="st3" d="M247.34,152.78c1.07-.27,1.33-1.02,1.26-1.73h-.88v-2.07h1.95v1.72c0,1.58-.7,2.52-2.16,2.81l-.17-.71Z"/>
    <path class="st3" d="M252.79,153.22v-1.29c.07.02.15.02.22.02.61,0,.87-.34.87-.99v-8.98h1.62v9.16c0,1.39-.68,2.16-2.02,2.16-.32,0-.46-.03-.68-.08ZM253.87,139.05h1.65v1.77h-1.65v-1.77Z"/>
    <path class="st3" d="M256.65,146.75v-.42c0-2.89,1.19-4.47,2.74-4.47s2.72,1.58,2.72,4.47v.42c0,2.89-1.19,4.45-2.72,4.45s-2.74-1.56-2.74-4.45ZM260.49,146.76v-.48c0-1.95-.46-2.99-1.1-2.99s-1.12,1.04-1.12,2.99v.48c0,1.95.46,2.99,1.12,2.99s1.1-1.04,1.1-2.99Z"/>
    <path class="st3" d="M263.4,152.99v-1.51c.58.22,1.33.39,1.79.39.99,0,1.56-.44,1.56-1.55v-1.26c-.31.7-.8,1.46-1.68,1.46-1.12,0-2.04-1.21-2.04-4.28v-.12c0-3.08.92-4.28,2.04-4.28.88,0,1.38.75,1.68,1.44v-1.29h1.63v8.43c0,2.06-1.17,2.87-3.03,2.87-.76,0-1.33-.12-1.96-.31ZM266.78,146.22v-.07c0-1.82-.51-2.79-1.1-2.79s-1.04.95-1.04,2.79v.05c0,1.85.42,2.79,1.04,2.79s1.1-.95,1.1-2.77Z"/>
    <path class="st3" d="M269.35,148.5v-.24c0-1.94.83-2.89,2.12-2.89.48,0,.9.14,1.29.34v-.71c0-1.04-.49-1.6-1.39-1.6-.56,0-1.05.19-1.56.42v-1.55c.58-.25,1.11-.39,1.84-.39,1.73,0,2.72,1.04,2.72,2.99v6.17h-1.61v-1.07c-.36.8-.85,1.22-1.56,1.22-1.07,0-1.84-1.07-1.84-2.7ZM272.77,148.53v-1.63c-.25-.12-.59-.24-.88-.24-.61,0-.97.51-.97,1.5v.2c0,1,.34,1.48.87,1.48.56,0,.99-.54.99-1.31Z"/>
    <path class="st3" d="M275.63,141.99h1.61v1.19c.29-.78.8-1.34,1.65-1.29v1.92h-.03c-1,0-1.62.66-1.62,2.04v5.2h-1.61v-9.06Z"/>
    <path class="st3" d="M282.31,146.75v-.42c0-2.89,1.19-4.47,2.74-4.47s2.72,1.58,2.72,4.47v.42c0,2.89-1.19,4.45-2.72,4.45s-2.74-1.56-2.74-4.45ZM286.15,146.76v-.48c0-1.95-.46-2.99-1.1-2.99s-1.12,1.04-1.12,2.99v.48c0,1.95.46,2.99,1.12,2.99s1.1-1.04,1.1-2.99Z"/>
    <path class="st3" d="M288.82,148.7v-6.71h1.61v6.36c0,.92.34,1.41.9,1.41s1-.54,1-1.44v-6.32h1.61v9.06h-1.61v-1.16c-.34.71-.83,1.31-1.68,1.31-1.17,0-1.84-.99-1.84-2.5Z"/>
    <path class="st3" d="M299.63,149.76v1.29h-1.61v-12h1.61v4.27c.31-.7.8-1.48,1.68-1.48,1.12,0,2.06,1.19,2.06,4.35v.66c0,3.13-.94,4.35-2.06,4.35-.88,0-1.36-.75-1.68-1.45ZM301.75,146.78v-.51c0-1.89-.41-2.91-1.04-2.91s-1.1,1.02-1.1,2.87v.56c0,1.85.48,2.87,1.1,2.87s1.04-1.02,1.04-2.89Z"/>
    <path class="st3" d="M304.51,141.99h1.61v1.19c.29-.78.8-1.34,1.65-1.29v1.92h-.03c-1,0-1.62.66-1.62,2.04v5.2h-1.61v-9.06Z"/>
    <path class="st3" d="M308.69,139.05h1.67v1.77h-1.67v-1.77ZM308.73,141.99h1.62v9.06h-1.62v-9.06Z"/>
    <path class="st3" d="M311.7,141.99h1.61v1.16c.34-.71.83-1.31,1.68-1.31,1.17,0,1.84.99,1.84,2.52v6.7h-1.62v-6.36c0-.92-.34-1.41-.9-1.41s-1,.54-1,1.45v6.32h-1.61v-9.06Z"/>
    <path class="st3" d="M317.89,146.75v-.42c0-2.97,1.26-4.45,2.82-4.45.54,0,.83.07,1.21.25v1.67c-.34-.2-.66-.36-1.04-.36-.71,0-1.36.8-1.36,2.86v.49c0,2.06.63,2.86,1.41,2.86.31,0,.66-.17.99-.41v1.61c-.41.24-.75.36-1.24.36-1.61,0-2.79-1.46-2.79-4.45Z"/>
    <path class="st3" d="M322.58,148.5v-.24c0-1.94.83-2.89,2.12-2.89.48,0,.9.14,1.29.34v-.71c0-1.04-.49-1.6-1.39-1.6-.56,0-1.05.19-1.56.42v-1.55c.58-.25,1.11-.39,1.84-.39,1.73,0,2.72,1.04,2.72,2.99v6.17h-1.61v-1.07c-.36.8-.85,1.22-1.56,1.22-1.07,0-1.84-1.07-1.84-2.7ZM326,148.53v-1.63c-.25-.12-.59-.24-.88-.24-.61,0-.97.51-.97,1.5v.2c0,1,.34,1.48.87,1.48.56,0,.99-.54.99-1.31Z"/>
    <path class="st3" d="M328.85,141.99h1.61v1.19c.29-.78.8-1.34,1.65-1.29v1.92h-.03c-1,0-1.62.66-1.62,2.04v5.2h-1.61v-9.06Z"/>
  </g>
  <g>
    <path class="st3" d="M339.58,302.45v-10.5h1.46l3.73,6.53c.2.35.39.72.58,1.1.18.38.36.77.54,1.16h.06c-.03-.54-.07-1.1-.11-1.67-.04-.57-.06-1.12-.06-1.66v-5.46h1.28v10.5h-1.46l-3.73-6.53c-.19-.35-.39-.72-.58-1.1s-.38-.77-.55-1.15h-.06c.04.52.08,1.06.12,1.62.04.55.06,1.11.06,1.68v5.49h-1.26Z"/>
    <path class="st3" d="M352.4,302.64c-.82,0-1.42-.26-1.8-.78-.38-.52-.57-1.27-.57-2.26v-4.93h1.31v4.75c0,.73.11,1.25.34,1.58.23.33.6.49,1.11.49.39,0,.75-.1,1.06-.31s.66-.54,1.03-.98v-5.52h1.31v7.78h-1.09l-.11-1.22h-.05c-.35.43-.73.77-1.14,1.02-.41.26-.88.38-1.42.38ZM351.92,293.33l2.06-2.64h1.44l.08.14-2.53,2.5h-1.06Z"/>
    <path class="st3" d="M359.15,302.45v-7.78h1.09l.11,1.12h.05c.34-.36.71-.67,1.11-.93.4-.26.83-.38,1.3-.38.6,0,1.06.13,1.4.4.34.27.58.63.74,1.09.41-.45.82-.81,1.23-1.08.42-.27.86-.41,1.33-.41.81,0,1.41.26,1.79.78.38.52.58,1.27.58,2.26v4.93h-1.31v-4.75c0-.74-.12-1.27-.35-1.59s-.6-.49-1.09-.49c-.31,0-.62.1-.94.3-.32.2-.65.5-1.02.9v5.63h-1.31v-4.75c0-.74-.12-1.27-.35-1.59s-.6-.49-1.1-.49c-.59,0-1.24.4-1.95,1.2v5.63h-1.31Z"/>
    <path class="st3" d="M375.89,302.64c-.69,0-1.33-.16-1.9-.49-.57-.33-1.02-.79-1.35-1.39-.33-.6-.5-1.34-.5-2.2s.17-1.57.51-2.18c.34-.61.78-1.08,1.31-1.41.53-.33,1.1-.5,1.7-.5.66,0,1.22.15,1.69.46.46.3.81.73,1.05,1.27.24.54.35,1.18.35,1.92,0,.14,0,.27,0,.4,0,.13-.02.26-.06.38h-5.6v-1.04h4.48c0-.75-.16-1.32-.49-1.72-.33-.4-.79-.6-1.4-.6-.35,0-.7.1-1.04.3s-.62.51-.84.95c-.22.44-.33,1.02-.33,1.74,0,.66.11,1.22.34,1.66s.54.79.94,1.02.83.34,1.3.34c.37,0,.72-.05,1.05-.16s.62-.25.89-.43l.48.86c-.34.24-.72.43-1.14.58-.42.15-.9.22-1.43.22Z"/>
    <path class="st3" d="M380.99,302.45v-7.78h1.09l.11,1.41h.05c.26-.49.58-.88.96-1.17.38-.29.8-.43,1.25-.43.17,0,.32.01.45.03s.26.06.38.13l-.29,1.12c-.12-.03-.23-.06-.33-.07-.1-.02-.23-.02-.39-.02-.33,0-.67.13-1.03.4s-.67.73-.94,1.39v4.99h-1.31Z"/>
    <path class="st3" d="M389.73,302.64c-.63,0-1.22-.16-1.77-.48-.55-.32-.99-.78-1.33-1.39-.34-.61-.5-1.34-.5-2.19s.17-1.62.5-2.22c.34-.61.78-1.07,1.33-1.39.55-.32,1.14-.48,1.77-.48s1.23.16,1.78.48c.54.32.98.78,1.32,1.39.34.61.5,1.35.5,2.22s-.17,1.58-.5,2.19c-.34.61-.78,1.07-1.32,1.39s-1.14.48-1.78.48ZM389.73,301.55c.45,0,.84-.12,1.18-.38.34-.25.6-.6.78-1.05.18-.45.27-.96.27-1.55s-.09-1.12-.27-1.58c-.18-.45-.44-.8-.78-1.06-.34-.25-.74-.38-1.18-.38s-.84.12-1.18.38-.6.6-.78,1.06c-.19.45-.28.98-.28,1.58s.09,1.1.28,1.55c.19.45.45.8.78,1.05.34.25.73.38,1.18.38Z"/>
    <path class="st3" d="M401.87,302.64c-.98,0-1.76-.35-2.34-1.06-.58-.71-.87-1.71-.87-3,0-.84.16-1.57.47-2.18s.73-1.09,1.24-1.42c.51-.33,1.07-.5,1.66-.5.46,0,.85.08,1.18.23.33.16.66.38,1,.66l-.06-1.33v-2.99h1.33v11.39h-1.09l-.11-.91h-.05c-.3.3-.65.56-1.06.78-.41.22-.84.33-1.3.33ZM402.16,301.53c.36,0,.7-.09,1.02-.27.32-.18.64-.45.96-.8v-4.06c-.32-.3-.63-.51-.94-.63-.31-.12-.62-.18-.94-.18-.42,0-.79.13-1.13.38-.34.25-.61.6-.81,1.04-.2.44-.3.96-.3,1.56,0,.93.19,1.66.56,2.18s.9.79,1.58.79Z"/>
    <path class="st3" d="M411.56,302.64c-.69,0-1.33-.16-1.9-.49-.57-.33-1.02-.79-1.35-1.39-.33-.6-.5-1.34-.5-2.2s.17-1.57.51-2.18c.34-.61.78-1.08,1.31-1.41.53-.33,1.1-.5,1.7-.5.66,0,1.22.15,1.69.46.46.3.81.73,1.05,1.27.24.54.35,1.18.35,1.92,0,.14,0,.27,0,.4,0,.13-.02.26-.06.38h-5.6v-1.04h4.48c0-.75-.16-1.32-.49-1.72-.33-.4-.79-.6-1.4-.6-.35,0-.7.1-1.04.3s-.62.51-.84.95c-.22.44-.33,1.02-.33,1.74,0,.66.11,1.22.34,1.66s.54.79.94,1.02.83.34,1.3.34c.37,0,.72-.05,1.05-.16s.62-.25.89-.43l.48.86c-.34.24-.72.43-1.14.58-.42.15-.9.22-1.43.22Z"/>
    <path class="st3" d="M420.19,305.73v-11.06h1.09l.11.9h.05c.35-.3.74-.55,1.17-.77.43-.21.86-.32,1.31-.32.66,0,1.22.16,1.68.49.46.33.81.78,1.04,1.38.23.59.35,1.29.35,2.1,0,.88-.16,1.63-.47,2.26-.31.63-.73,1.11-1.24,1.44-.51.33-1.06.5-1.65.5-.35,0-.71-.08-1.07-.24-.36-.16-.73-.38-1.09-.66l.03,1.36v2.62h-1.31ZM423.4,301.53c.43,0,.81-.12,1.14-.37.34-.25.6-.6.79-1.06.19-.46.29-1.02.29-1.66,0-.57-.07-1.06-.21-1.5s-.36-.77-.66-1.01-.69-.36-1.18-.36c-.32,0-.65.09-.99.26-.34.18-.7.44-1.09.79v4.08c.36.3.71.51,1.03.63.33.12.62.18.87.18Z"/>
    <path class="st3" d="M432.54,302.64c-.69,0-1.33-.16-1.9-.49-.57-.33-1.02-.79-1.35-1.39-.33-.6-.5-1.34-.5-2.2s.17-1.57.51-2.18c.34-.61.78-1.08,1.31-1.41.53-.33,1.1-.5,1.7-.5.66,0,1.22.15,1.69.46.46.3.81.73,1.05,1.27.24.54.35,1.18.35,1.92,0,.14,0,.27,0,.4,0,.13-.02.26-.06.38h-5.6v-1.04h4.48c0-.75-.16-1.32-.49-1.72-.33-.4-.79-.6-1.4-.6-.35,0-.7.1-1.04.3s-.62.51-.84.95c-.22.44-.33,1.02-.33,1.74,0,.66.11,1.22.34,1.66s.54.79.94,1.02.83.34,1.3.34c.37,0,.72-.05,1.05-.16s.62-.25.89-.43l.48.86c-.34.24-.72.43-1.14.58-.42.15-.9.22-1.43.22Z"/>
    <path class="st3" d="M439.68,302.64c-.57,0-1.1-.1-1.61-.3-.51-.2-.94-.47-1.29-.82l.61-.77c.34.28.7.49,1.06.64s.79.22,1.27.22c.51,0,.9-.12,1.15-.36.26-.24.38-.52.38-.86,0-.27-.09-.49-.26-.66s-.39-.33-.66-.45c-.26-.12-.54-.24-.84-.34-.38-.14-.75-.3-1.1-.49-.35-.19-.64-.42-.86-.7-.22-.28-.33-.64-.33-1.06,0-.63.24-1.15.71-1.58.47-.42,1.13-.63,1.98-.63.48,0,.93.08,1.34.25s.77.38,1.07.63l-.61.75c-.28-.19-.56-.34-.85-.45s-.61-.16-.96-.16c-.49,0-.85.11-1.08.34-.23.22-.34.49-.34.78,0,.24.07.43.21.58.14.16.33.29.58.41.25.12.54.23.86.34.41.15.79.32,1.16.5s.67.43.9.72c.23.29.34.67.34,1.14,0,.43-.11.81-.33,1.16-.22.35-.54.63-.96.84-.42.21-.94.32-1.56.32Z"/>
    <path class="st3" d="M446.7,302.64c-.57,0-1.1-.1-1.61-.3-.51-.2-.94-.47-1.29-.82l.61-.77c.34.28.7.49,1.06.64s.79.22,1.27.22c.51,0,.9-.12,1.15-.36.26-.24.38-.52.38-.86,0-.27-.09-.49-.26-.66s-.39-.33-.66-.45c-.26-.12-.54-.24-.84-.34-.38-.14-.75-.3-1.1-.49-.35-.19-.64-.42-.86-.7-.22-.28-.33-.64-.33-1.06,0-.63.24-1.15.71-1.58.47-.42,1.13-.63,1.98-.63.48,0,.93.08,1.34.25s.77.38,1.07.63l-.61.75c-.28-.19-.56-.34-.85-.45s-.61-.16-.96-.16c-.49,0-.85.11-1.08.34-.23.22-.34.49-.34.78,0,.24.07.43.21.58.14.16.33.29.58.41.25.12.54.23.86.34.41.15.79.32,1.16.5s.67.43.9.72c.23.29.34.67.34,1.14,0,.43-.11.81-.33,1.16-.22.35-.54.63-.96.84-.42.21-.94.32-1.56.32Z"/>
    <path class="st3" d="M454.72,302.64c-.63,0-1.22-.16-1.77-.48-.55-.32-.99-.78-1.33-1.39-.34-.61-.5-1.34-.5-2.19s.17-1.62.5-2.22c.34-.61.78-1.07,1.33-1.39.55-.32,1.14-.48,1.77-.48s1.23.16,1.78.48c.54.32.98.78,1.32,1.39.34.61.5,1.35.5,2.22s-.17,1.58-.5,2.19c-.34.61-.78,1.07-1.32,1.39s-1.14.48-1.78.48ZM454.72,301.55c.45,0,.84-.12,1.18-.38.34-.25.6-.6.78-1.05.18-.45.27-.96.27-1.55s-.09-1.12-.27-1.58c-.18-.45-.44-.8-.78-1.06-.34-.25-.74-.38-1.18-.38s-.84.12-1.18.38-.6.6-.78,1.06c-.19.45-.28.98-.28,1.58s.09,1.1.28,1.55c.19.45.45.8.78,1.05.34.25.73.38,1.18.38Z"/>
    <path class="st3" d="M462.25,302.64c-.43,0-.81-.09-1.16-.26-.35-.18-.62-.43-.82-.75-.2-.33-.3-.72-.3-1.19,0-.88.38-1.54,1.15-1.98.77-.45,1.98-.76,3.65-.94-.01-.32-.06-.63-.15-.93s-.25-.54-.49-.72c-.23-.18-.56-.27-.98-.27-.45,0-.87.08-1.26.25-.4.17-.75.35-1.06.55l-.51-.9c.23-.16.51-.32.83-.47.32-.16.67-.28,1.04-.38.37-.1.77-.15,1.18-.15.63,0,1.14.13,1.54.39.4.26.69.63.88,1.11.19.48.28,1.04.28,1.7v4.77h-1.09l-.11-.93h-.05c-.37.31-.77.57-1.2.79-.43.22-.89.33-1.38.33ZM462.62,301.55c.38,0,.74-.08,1.08-.26.34-.17.69-.42,1.06-.75v-2.1c-.88.11-1.57.24-2.07.41s-.87.37-1.1.62c-.22.25-.34.54-.34.88,0,.43.13.73.4.92s.59.28.96.28Z"/>
    <path class="st3" d="M470.88,302.64c-.57,0-1.1-.1-1.61-.3-.51-.2-.94-.47-1.29-.82l.61-.77c.34.28.7.49,1.06.64s.79.22,1.27.22c.51,0,.9-.12,1.15-.36.26-.24.38-.52.38-.86,0-.27-.09-.49-.26-.66s-.39-.33-.66-.45c-.26-.12-.54-.24-.84-.34-.38-.14-.75-.3-1.1-.49-.35-.19-.64-.42-.86-.7-.22-.28-.33-.64-.33-1.06,0-.63.24-1.15.71-1.58.47-.42,1.13-.63,1.98-.63.48,0,.93.08,1.34.25s.77.38,1.07.63l-.61.75c-.28-.19-.56-.34-.85-.45s-.61-.16-.96-.16c-.49,0-.85.11-1.08.34-.23.22-.34.49-.34.78,0,.24.07.43.21.58.14.16.33.29.58.41.25.12.54.23.86.34.41.15.79.32,1.16.5s.67.43.9.72c.23.29.34.67.34,1.14,0,.43-.11.81-.33,1.16-.22.35-.54.63-.96.84-.42.21-.94.32-1.56.32Z"/>
    <path class="st3" d="M484.32,305.73v-2.77l.06-1.41c-.31.3-.66.56-1.06.77-.4.21-.82.32-1.27.32-.98,0-1.76-.35-2.34-1.06-.58-.71-.87-1.71-.87-3,0-.84.16-1.57.47-2.18s.73-1.09,1.24-1.42c.51-.33,1.07-.5,1.66-.5.45,0,.85.08,1.19.24.35.16.69.39,1.03.69h.03l.13-.74h1.06v11.06h-1.33ZM482.33,301.53c.36,0,.7-.09,1.02-.27.32-.18.64-.45.96-.8v-4.06c-.32-.3-.63-.51-.94-.63-.31-.12-.62-.18-.94-.18-.42,0-.79.13-1.13.38-.34.25-.61.6-.81,1.04-.2.44-.3.96-.3,1.56,0,.93.19,1.66.56,2.18s.9.79,1.58.79Z"/>
    <path class="st3" d="M490.86,302.64c-.82,0-1.42-.26-1.8-.78-.38-.52-.57-1.27-.57-2.26v-4.93h1.31v4.75c0,.73.11,1.25.34,1.58.23.33.6.49,1.11.49.39,0,.75-.1,1.06-.31s.66-.54,1.03-.98v-5.52h1.31v7.78h-1.09l-.11-1.22h-.05c-.35.43-.73.77-1.14,1.02-.41.26-.88.38-1.42.38Z"/>
    <path class="st3" d="M500.76,302.64c-.69,0-1.33-.16-1.9-.49-.57-.33-1.02-.79-1.35-1.39-.33-.6-.5-1.34-.5-2.2s.17-1.57.51-2.18c.34-.61.78-1.08,1.31-1.41.53-.33,1.1-.5,1.7-.5.66,0,1.22.15,1.69.46.46.3.81.73,1.05,1.27.24.54.35,1.18.35,1.92,0,.14,0,.27,0,.4,0,.13-.02.26-.06.38h-5.6v-1.04h4.48c0-.75-.16-1.32-.49-1.72-.33-.4-.79-.6-1.4-.6-.35,0-.7.1-1.04.3s-.62.51-.84.95c-.22.44-.33,1.02-.33,1.74,0,.66.11,1.22.34,1.66s.54.79.94,1.02.83.34,1.3.34c.37,0,.72-.05,1.05-.16s.62-.25.89-.43l.48.86c-.34.24-.72.43-1.14.58-.42.15-.9.22-1.43.22Z"/>
    <path class="st3" d="M509.39,302.45v-7.78h1.09l.11,1.41h.05c.26-.49.58-.88.96-1.17.38-.29.8-.43,1.25-.43.17,0,.32.01.45.03s.26.06.38.13l-.29,1.12c-.12-.03-.23-.06-.33-.07-.1-.02-.23-.02-.39-.02-.33,0-.67.13-1.03.4s-.67.73-.94,1.39v4.99h-1.31Z"/>
    <path class="st3" d="M518.25,302.64c-.69,0-1.33-.16-1.9-.49-.57-.33-1.02-.79-1.35-1.39-.33-.6-.5-1.34-.5-2.2s.17-1.57.51-2.18c.34-.61.78-1.08,1.31-1.41.53-.33,1.1-.5,1.7-.5.66,0,1.22.15,1.69.46.46.3.81.73,1.05,1.27.24.54.35,1.18.35,1.92,0,.14,0,.27,0,.4,0,.13-.02.26-.06.38h-5.6v-1.04h4.48c0-.75-.16-1.32-.49-1.72-.33-.4-.79-.6-1.4-.6-.35,0-.7.1-1.04.3s-.62.51-.84.95c-.22.44-.33,1.02-.33,1.74,0,.66.11,1.22.34,1.66s.54.79.94,1.02.83.34,1.3.34c.37,0,.72-.05,1.05-.16s.62-.25.89-.43l.48.86c-.34.24-.72.43-1.14.58-.42.15-.9.22-1.43.22Z"/>
    <path class="st3" d="M524.92,302.64c-.43,0-.81-.09-1.16-.26-.35-.18-.62-.43-.82-.75-.2-.33-.3-.72-.3-1.19,0-.88.38-1.54,1.15-1.98.77-.45,1.98-.76,3.65-.94-.01-.32-.06-.63-.15-.93s-.25-.54-.49-.72c-.23-.18-.56-.27-.98-.27-.45,0-.87.08-1.26.25-.4.17-.75.35-1.06.55l-.51-.9c.23-.16.51-.32.83-.47.32-.16.67-.28,1.04-.38.37-.1.77-.15,1.18-.15.63,0,1.14.13,1.54.39.4.26.69.63.88,1.11.19.48.28,1.04.28,1.7v4.77h-1.09l-.11-.93h-.05c-.37.31-.77.57-1.2.79-.43.22-.89.33-1.38.33ZM525.29,301.55c.38,0,.74-.08,1.08-.26.34-.17.69-.42,1.06-.75v-2.1c-.88.11-1.57.24-2.07.41s-.87.37-1.1.62c-.22.25-.34.54-.34.88,0,.43.13.73.4.92s.59.28.96.28Z"/>
    <path class="st3" d="M532.91,302.59c-.33,0-.6-.07-.8-.2-.2-.13-.35-.33-.45-.59-.1-.26-.14-.58-.14-.95v-9.79h1.31v9.89c0,.21.04.36.11.44.07.08.17.12.27.12.04,0,.08,0,.12,0,.04,0,.09-.01.15-.02l.19.99c-.1.03-.21.06-.33.09-.12.03-.27.04-.44.04Z"/>
    <path class="st3" d="M536.57,293.07c-.26,0-.47-.08-.63-.24s-.25-.37-.25-.62.08-.46.25-.62.38-.24.63-.24.47.08.63.24c.17.16.25.37.25.62s-.08.46-.25.62c-.17.16-.38.24-.63.24ZM535.91,302.45v-7.78h1.31v7.78h-1.31Z"/>
    <path class="st3" d="M539.35,302.45v-.7l4.1-6h-3.65v-1.07h5.31v.7l-4.1,6h4.22v1.07h-5.89Z"/>
    <path class="st3" d="M548.71,302.64c-.43,0-.81-.09-1.16-.26-.35-.18-.62-.43-.82-.75-.2-.33-.3-.72-.3-1.19,0-.88.38-1.54,1.15-1.98.77-.45,1.98-.76,3.65-.94-.01-.32-.06-.63-.15-.93s-.25-.54-.49-.72c-.23-.18-.56-.27-.98-.27-.45,0-.87.08-1.26.25-.4.17-.75.35-1.06.55l-.51-.9c.23-.16.51-.32.83-.47.32-.16.67-.28,1.04-.38.37-.1.77-.15,1.18-.15.63,0,1.14.13,1.54.39.4.26.69.63.88,1.11.19.48.28,1.04.28,1.7v4.77h-1.09l-.11-.93h-.05c-.37.31-.77.57-1.2.79-.43.22-.89.33-1.38.33ZM549.08,301.55c.38,0,.74-.08,1.08-.26.34-.17.69-.42,1.06-.75v-2.1c-.88.11-1.57.24-2.07.41s-.87.37-1.1.62c-.22.25-.34.54-.34.88,0,.43.13.73.4.92s.59.28.96.28Z"/>
    <path class="st3" d="M555.31,302.45v-7.78h1.09l.11,1.12h.05c.34-.36.71-.67,1.11-.93.4-.26.83-.38,1.3-.38.6,0,1.06.13,1.4.4.34.27.58.63.74,1.09.41-.45.82-.81,1.23-1.08.42-.27.86-.41,1.33-.41.81,0,1.41.26,1.79.78.38.52.58,1.27.58,2.26v4.93h-1.31v-4.75c0-.74-.12-1.27-.35-1.59s-.6-.49-1.09-.49c-.31,0-.62.1-.94.3-.32.2-.65.5-1.02.9v5.63h-1.31v-4.75c0-.74-.12-1.27-.35-1.59s-.6-.49-1.1-.49c-.59,0-1.24.4-1.95,1.2v5.63h-1.31Z"/>
    <path class="st3" d="M574.2,302.64c-.43,0-.81-.09-1.16-.26-.35-.18-.62-.43-.82-.75-.2-.33-.3-.72-.3-1.19,0-.88.38-1.54,1.15-1.98.77-.45,1.98-.76,3.65-.94-.01-.32-.06-.63-.15-.93s-.25-.54-.49-.72c-.23-.18-.56-.27-.98-.27-.45,0-.87.08-1.26.25-.4.17-.75.35-1.06.55l-.51-.9c.23-.16.51-.32.83-.47.32-.16.67-.28,1.04-.38.37-.1.77-.15,1.18-.15.63,0,1.14.13,1.54.39.4.26.69.63.88,1.11.19.48.28,1.04.28,1.7v4.77h-1.09l-.11-.93h-.05c-.37.31-.77.57-1.2.79-.43.22-.89.33-1.38.33ZM574.57,301.55c.38,0,.74-.08,1.08-.26.34-.17.69-.42,1.06-.75v-2.1c-.88.11-1.57.24-2.07.41s-.87.37-1.1.62c-.22.25-.34.54-.34.88,0,.43.13.73.4.92s.59.28.96.28Z"/>
    <path class="st3" d="M586.11,302.64c-.43,0-.81-.09-1.16-.26-.35-.18-.62-.43-.82-.75-.2-.33-.3-.72-.3-1.19,0-.88.38-1.54,1.15-1.98.77-.45,1.98-.76,3.65-.94-.01-.32-.06-.63-.15-.93s-.25-.54-.49-.72c-.23-.18-.56-.27-.98-.27-.45,0-.87.08-1.26.25-.4.17-.75.35-1.06.55l-.51-.9c.23-.16.51-.32.83-.47.32-.16.67-.28,1.04-.38.37-.1.77-.15,1.18-.15.63,0,1.14.13,1.54.39.4.26.69.63.88,1.11.19.48.28,1.04.28,1.7v4.77h-1.09l-.11-.93h-.05c-.37.31-.77.57-1.2.79-.43.22-.89.33-1.38.33ZM586.47,301.55c.38,0,.74-.08,1.08-.26.34-.17.69-.42,1.06-.75v-2.1c-.88.11-1.57.24-2.07.41s-.87.37-1.1.62c-.22.25-.34.54-.34.88,0,.43.13.73.4.92s.59.28.96.28Z"/>
    <path class="st3" d="M594.92,302.59c-.82,0-1.4-.24-1.73-.72-.33-.48-.5-1.1-.5-1.87v-4.26h-1.15v-.99l1.22-.08.16-2.5h1.1v2.5h2.11v1.07h-2.11v4.27c0,.47.09.84.26,1.1s.49.4.94.4c.14,0,.28-.01.43-.04s.3-.08.45-.15l.29.93c-.2.1-.43.18-.69.24-.26.06-.52.1-.78.1Z"/>
    <path class="st3" d="M598.86,293.07c-.26,0-.47-.08-.63-.24s-.25-.37-.25-.62.08-.46.25-.62.38-.24.63-.24.47.08.63.24c.17.16.25.37.25.62s-.08.46-.25.62c-.17.16-.38.24-.63.24ZM598.2,302.45v-7.78h1.31v7.78h-1.31Z"/>
    <path class="st3" d="M604.14,302.45l-2.8-7.78h1.36l1.47,4.42c.12.37.24.75.36,1.14.12.39.24.77.36,1.14h.06c.11-.37.22-.75.35-1.14s.25-.77.35-1.14l1.47-4.42h1.3l-2.75,7.78h-1.54Z"/>
    <path class="st3" d="M610.91,293.07c-.26,0-.47-.08-.63-.24s-.25-.37-.25-.62.08-.46.25-.62.38-.24.63-.24.47.08.63.24c.17.16.25.37.25.62s-.08.46-.25.62c-.17.16-.38.24-.63.24ZM610.25,302.45v-7.78h1.31v7.78h-1.31Z"/>
    <path class="st3" d="M617.16,302.64c-.98,0-1.76-.35-2.34-1.06-.58-.71-.87-1.71-.87-3,0-.84.16-1.57.47-2.18s.73-1.09,1.24-1.42c.51-.33,1.07-.5,1.66-.5.46,0,.85.08,1.18.23.33.16.66.38,1,.66l-.06-1.33v-2.99h1.33v11.39h-1.09l-.11-.91h-.05c-.3.3-.65.56-1.06.78-.41.22-.84.33-1.3.33ZM617.45,301.53c.36,0,.7-.09,1.02-.27.32-.18.64-.45.96-.8v-4.06c-.32-.3-.63-.51-.94-.63-.31-.12-.62-.18-.94-.18-.42,0-.79.13-1.13.38-.34.25-.61.6-.81,1.04-.2.44-.3.96-.3,1.56,0,.93.19,1.66.56,2.18s.9.79,1.58.79Z"/>
    <path class="st3" d="M625.5,302.64c-.43,0-.81-.09-1.16-.26-.35-.18-.62-.43-.82-.75-.2-.33-.3-.72-.3-1.19,0-.88.38-1.54,1.15-1.98.77-.45,1.98-.76,3.65-.94-.01-.32-.06-.63-.15-.93s-.25-.54-.49-.72c-.23-.18-.56-.27-.98-.27-.45,0-.87.08-1.26.25-.4.17-.75.35-1.06.55l-.51-.9c.23-.16.51-.32.83-.47.32-.16.67-.28,1.04-.38.37-.1.77-.15,1.18-.15.63,0,1.14.13,1.54.39.4.26.69.63.88,1.11.19.48.28,1.04.28,1.7v4.77h-1.09l-.11-.93h-.05c-.37.31-.77.57-1.2.79-.43.22-.89.33-1.38.33ZM625.87,301.55c.38,0,.74-.08,1.08-.26.34-.17.69-.42,1.06-.75v-2.1c-.88.11-1.57.24-2.07.41s-.87.37-1.1.62c-.22.25-.34.54-.34.88,0,.43.13.73.4.92s.59.28.96.28Z"/>
    <path class="st3" d="M634.75,302.64c-.98,0-1.76-.35-2.34-1.06-.58-.71-.87-1.71-.87-3,0-.84.16-1.57.47-2.18s.73-1.09,1.24-1.42c.51-.33,1.07-.5,1.66-.5.46,0,.85.08,1.18.23.33.16.66.38,1,.66l-.06-1.33v-2.99h1.33v11.39h-1.09l-.11-.91h-.05c-.3.3-.65.56-1.06.78-.41.22-.84.33-1.3.33ZM635.03,301.53c.36,0,.7-.09,1.02-.27.32-.18.64-.45.96-.8v-4.06c-.32-.3-.63-.51-.94-.63-.31-.12-.62-.18-.94-.18-.42,0-.79.13-1.13.38-.34.25-.61.6-.81,1.04-.2.44-.3.96-.3,1.56,0,.93.19,1.66.56,2.18s.9.79,1.58.79Z"/>
    <path class="st3" d="M644.44,302.64c-.69,0-1.33-.16-1.9-.49-.57-.33-1.02-.79-1.35-1.39-.33-.6-.5-1.34-.5-2.2s.17-1.57.51-2.18c.34-.61.78-1.08,1.31-1.41.53-.33,1.1-.5,1.7-.5.66,0,1.22.15,1.69.46.46.3.81.73,1.05,1.27.24.54.35,1.18.35,1.92,0,.14,0,.27,0,.4,0,.13-.02.26-.06.38h-5.6v-1.04h4.48c0-.75-.16-1.32-.49-1.72-.33-.4-.79-.6-1.4-.6-.35,0-.7.1-1.04.3s-.62.51-.84.95c-.22.44-.33,1.02-.33,1.74,0,.66.11,1.22.34,1.66s.54.79.94,1.02.83.34,1.3.34c.37,0,.72-.05,1.05-.16s.62-.25.89-.43l.48.86c-.34.24-.72.43-1.14.58-.42.15-.9.22-1.43.22Z"/>
    <path class="st3" d="M655.18,305.26c-.66-1.08-1.18-2.21-1.55-3.38-.37-1.18-.56-2.47-.56-3.88s.19-2.7.56-3.89c.37-1.18.89-2.31,1.55-3.38l.82.38c-.62,1.01-1.08,2.11-1.38,3.29-.3,1.18-.46,2.38-.46,3.59s.15,2.41.46,3.58c.3,1.17.76,2.27,1.38,3.3l-.82.38Z"/>
    <path class="st3" d="M661.39,302.64c-.69,0-1.33-.16-1.9-.49-.57-.33-1.02-.79-1.35-1.39-.33-.6-.5-1.34-.5-2.2s.17-1.57.51-2.18c.34-.61.78-1.08,1.31-1.41.53-.33,1.1-.5,1.7-.5.66,0,1.22.15,1.69.46.46.3.81.73,1.05,1.27.24.54.35,1.18.35,1.92,0,.14,0,.27,0,.4,0,.13-.02.26-.06.38h-5.6v-1.04h4.48c0-.75-.16-1.32-.49-1.72-.33-.4-.79-.6-1.4-.6-.35,0-.7.1-1.04.3s-.62.51-.84.95c-.22.44-.33,1.02-.33,1.74,0,.66.11,1.22.34,1.66s.54.79.94,1.02.83.34,1.3.34c.37,0,.72-.05,1.05-.16s.62-.25.89-.43l.48.86c-.34.24-.72.43-1.14.58-.42.15-.9.22-1.43.22Z"/>
    <path class="st3" d="M666.49,302.45v-7.78h1.09l.11,1.12h.05c.34-.36.71-.67,1.11-.93.4-.26.83-.38,1.3-.38.6,0,1.06.13,1.4.4.34.27.58.63.74,1.09.41-.45.82-.81,1.23-1.08.42-.27.86-.41,1.33-.41.81,0,1.41.26,1.79.78.38.52.58,1.27.58,2.26v4.93h-1.31v-4.75c0-.74-.12-1.27-.35-1.59s-.6-.49-1.09-.49c-.31,0-.62.1-.94.3-.32.2-.65.5-1.02.9v5.63h-1.31v-4.75c0-.74-.12-1.27-.35-1.59s-.6-.49-1.1-.49c-.59,0-1.24.4-1.95,1.2v5.63h-1.31Z"/>
    <path class="st3" d="M683.59,302.45v-7.78h1.09l.11,1.12h.05c.34-.36.71-.67,1.11-.93.4-.26.83-.38,1.3-.38.6,0,1.06.13,1.4.4.34.27.58.63.74,1.09.41-.45.82-.81,1.23-1.08.42-.27.86-.41,1.33-.41.81,0,1.41.26,1.79.78.38.52.58,1.27.58,2.26v4.93h-1.31v-4.75c0-.74-.12-1.27-.35-1.59s-.6-.49-1.09-.49c-.31,0-.62.1-.94.3-.32.2-.65.5-1.02.9v5.63h-1.31v-4.75c0-.74-.12-1.27-.35-1.59s-.6-.49-1.1-.49c-.59,0-1.24.4-1.95,1.2v5.63h-1.31Z"/>
    <path class="st3" d="M697.83,293.07c-.26,0-.47-.08-.63-.24s-.25-.37-.25-.62.08-.46.25-.62.38-.24.63-.24.47.08.63.24c.17.16.25.37.25.62s-.08.46-.25.62c-.17.16-.38.24-.63.24ZM697.18,302.45v-7.78h1.31v7.78h-1.31Z"/>
    <path class="st3" d="M702.82,302.59c-.33,0-.6-.07-.8-.2-.2-.13-.35-.33-.45-.59-.1-.26-.14-.58-.14-.95v-9.79h1.31v9.89c0,.21.04.36.11.44.07.08.17.12.27.12.04,0,.08,0,.12,0,.04,0,.09-.01.15-.02l.19.99c-.1.03-.21.06-.33.09-.12.03-.27.04-.44.04Z"/>
    <path class="st3" d="M705.83,302.45v-11.39h1.31v3.1l-.05,1.6c.37-.35.76-.65,1.18-.9.41-.25.88-.38,1.42-.38.82,0,1.42.26,1.8.78.38.52.57,1.27.57,2.26v4.93h-1.31v-4.75c0-.74-.11-1.27-.34-1.59s-.61-.49-1.13-.49c-.39,0-.75.1-1.06.3-.32.2-.67.5-1.06.9v5.63h-1.31Z"/>
    <path class="st3" d="M717.88,302.64c-.63,0-1.22-.16-1.77-.48-.55-.32-.99-.78-1.33-1.39-.34-.61-.5-1.34-.5-2.19s.17-1.62.5-2.22c.34-.61.78-1.07,1.33-1.39.55-.32,1.14-.48,1.77-.48s1.23.16,1.78.48c.54.32.98.78,1.32,1.39.34.61.5,1.35.5,2.22s-.17,1.58-.5,2.19c-.34.61-.78,1.07-1.32,1.39s-1.14.48-1.78.48ZM719.03,293.21c-.28,0-.52-.07-.73-.2-.21-.13-.4-.29-.57-.47-.17-.18-.33-.34-.49-.47-.16-.13-.32-.2-.5-.2-.24,0-.41.12-.53.34-.12.23-.19.54-.22.92l-.88-.05c0-.43.07-.8.19-1.13.12-.33.29-.58.52-.77.23-.19.53-.28.9-.28.29,0,.53.07.74.2.2.13.39.29.56.47.17.18.33.34.49.47.15.13.33.2.52.2.23,0,.41-.12.53-.35s.19-.54.21-.91l.88.06c-.01.41-.07.77-.19,1.1s-.29.58-.52.78c-.23.19-.53.29-.9.29ZM717.88,301.55c.45,0,.84-.12,1.18-.38.34-.25.6-.6.78-1.05.18-.45.27-.96.27-1.55s-.09-1.12-.27-1.58c-.18-.45-.44-.8-.78-1.06-.34-.25-.74-.38-1.18-.38s-.84.12-1.18.38-.6.6-.78,1.06c-.19.45-.28.98-.28,1.58s.09,1.1.28,1.55c.19.45.45.8.78,1.05.34.25.73.38,1.18.38Z"/>
    <path class="st3" d="M727,302.64c-.69,0-1.33-.16-1.9-.49-.57-.33-1.02-.79-1.35-1.39-.33-.6-.5-1.34-.5-2.2s.17-1.57.51-2.18c.34-.61.78-1.08,1.31-1.41.53-.33,1.1-.5,1.7-.5.66,0,1.22.15,1.69.46.46.3.81.73,1.05,1.27.24.54.35,1.18.35,1.92,0,.14,0,.27,0,.4,0,.13-.02.26-.06.38h-5.6v-1.04h4.48c0-.75-.16-1.32-.49-1.72-.33-.4-.79-.6-1.4-.6-.35,0-.7.1-1.04.3s-.62.51-.84.95c-.22.44-.33,1.02-.33,1.74,0,.66.11,1.22.34,1.66s.54.79.94,1.02.83.34,1.3.34c.37,0,.72-.05,1.05-.16s.62-.25.89-.43l.48.86c-.34.24-.72.43-1.14.58-.42.15-.9.22-1.43.22Z"/>
    <path class="st3" d="M734.14,302.64c-.57,0-1.1-.1-1.61-.3-.51-.2-.94-.47-1.29-.82l.61-.77c.34.28.7.49,1.06.64s.79.22,1.27.22c.51,0,.9-.12,1.15-.36.26-.24.38-.52.38-.86,0-.27-.09-.49-.26-.66s-.39-.33-.66-.45c-.26-.12-.54-.24-.84-.34-.38-.14-.75-.3-1.1-.49-.35-.19-.64-.42-.86-.7-.22-.28-.33-.64-.33-1.06,0-.63.24-1.15.71-1.58.47-.42,1.13-.63,1.98-.63.48,0,.93.08,1.34.25s.77.38,1.07.63l-.61.75c-.28-.19-.56-.34-.85-.45s-.61-.16-.96-.16c-.49,0-.85.11-1.08.34-.23.22-.34.49-.34.78,0,.24.07.43.21.58.14.16.33.29.58.41.25.12.54.23.86.34.41.15.79.32,1.16.5s.67.43.9.72c.23.29.34.67.34,1.14,0,.43-.11.81-.33,1.16-.22.35-.54.63-.96.84-.42.21-.94.32-1.56.32Z"/>
    <path class="st3" d="M739.24,305.26l-.82-.38c.62-1.02,1.08-2.12,1.38-3.3.3-1.17.46-2.37.46-3.58s-.15-2.41-.46-3.59-.77-2.27-1.38-3.29l.82-.38c.67,1.07,1.19,2.19,1.56,3.38.37,1.18.55,2.48.55,3.89s-.18,2.7-.55,3.88c-.37,1.18-.89,2.31-1.56,3.38Z"/>
  </g>
</svg>