<?xml version="1.0" encoding="UTF-8"?>
<svg id="Layer_1" xmlns="http://www.w3.org/2000/svg" version="1.1" viewBox="0 0 440 301">
  <!-- Generator: Adobe Illustrator 29.8.2, SVG Export Plug-In . SVG Version: 2.1.1 Build 3)  -->
  <defs>
    <style>
      .st0 {
        fill: #231f20;
      }

      .st1 {
        fill: #fffaf0;
      }

      .st2 {
        fill: #e65b25;
      }

      .st3 {
        fill: #c6c5c4;
      }

      .st4 {
        fill: #7251a0;
      }

      .st5 {
        fill: #434343;
      }
    </style>
  </defs>
  <g>
    <rect class="st5" x="89.57" y="186.19" width="327.7" height="1"/>
    <rect class="st5" x="89.57" y="120.76" width="327.7" height="1"/>
    <rect class="st5" x="89.57" y="55.32" width="327.7" height="1"/>
    <rect class="st3" x="89.57" y="86.4" width="327.7" height="1"/>
    <rect class="st3" x="89.57" y="152.73" width="327.7" height="1"/>
    <rect class="st3" x="89.57" y="220.09" width="327.7" height="1"/>
  </g>
  <g>
    <g>
      <path class="st0" d="M205.28,25.52v-9.18h1.47l1.74,4.91c.11.31.22.62.31.92.1.31.2.63.3.98h.06c.1-.34.2-.67.29-.98.09-.31.19-.62.29-.92l1.74-4.91h1.46v9.18h-1.09v-5.05c0-.27,0-.57.03-.91s.04-.67.06-1,.05-.63.08-.9h-.06l-.71,2.21-1.72,4.74h-.85l-1.72-4.74-.71-2.21h-.06c.03.27.05.57.08.9s.04.67.06,1,.03.64.03.91v5.05h-1.06Z"/>
      <path class="st0" d="M217.61,25.69c-.72,0-1.24-.23-1.57-.68s-.5-1.11-.5-1.98v-4.31h1.15v4.16c0,.63.1,1.09.3,1.38.2.29.52.43.97.43.34,0,.66-.09.93-.27.27-.18.58-.47.9-.86v-4.83h1.15v6.8h-.95l-.1-1.06h-.04c-.31.37-.64.67-1,.9-.36.22-.77.34-1.24.34Z"/>
      <path class="st0" d="M224.74,25.64c-.29,0-.52-.06-.7-.17-.18-.12-.31-.29-.39-.52s-.13-.51-.13-.83v-8.57h1.15v8.65c0,.19.03.31.1.38s.14.1.24.1c.04,0,.07,0,.11,0,.03,0,.08-.01.13-.02l.17.87c-.08.03-.18.05-.29.08s-.24.04-.38.04Z"/>
      <path class="st0" d="M227.37,25.52v-9.96h1.15v2.71l-.04,1.4c.33-.31.67-.57,1.03-.79.36-.22.77-.33,1.24-.33.72,0,1.24.23,1.58.68.33.45.5,1.11.5,1.98v4.31h-1.15v-4.16c0-.64-.1-1.11-.3-1.39-.2-.28-.53-.43-.99-.43-.35,0-.66.09-.93.27-.28.18-.59.44-.93.78v4.93h-1.15Z"/>
      <path class="st0" d="M238.02,25.69c-.61,0-1.16-.14-1.66-.43s-.89-.69-1.18-1.22-.43-1.17-.43-1.92.15-1.37.45-1.9c.3-.53.68-.94,1.15-1.23.47-.29.96-.43,1.48-.43.58,0,1.07.13,1.48.4s.71.64.92,1.11c.21.48.31,1.04.31,1.68,0,.12,0,.24,0,.35,0,.11-.02.22-.05.34h-4.9v-.91h3.92c0-.65-.14-1.15-.43-1.5-.28-.35-.69-.52-1.22-.52-.31,0-.61.09-.91.26-.3.17-.54.45-.74.83s-.29.89-.29,1.53c0,.58.1,1.06.3,1.46.2.39.47.69.82.89.34.2.72.3,1.13.3.33,0,.63-.05.92-.14.28-.09.54-.22.78-.38l.42.76c-.3.21-.63.37-1,.5-.37.13-.79.2-1.25.2Z"/>
      <path class="st0" d="M242.48,25.52v-6.8h.95l.1,1.23h.04c.22-.43.5-.77.84-1.02s.7-.38,1.09-.38c.15,0,.28,0,.39.03.11.02.22.06.34.11l-.25.98c-.1-.03-.2-.05-.29-.06-.09-.01-.2-.02-.34-.02-.29,0-.59.12-.9.35-.31.23-.59.64-.82,1.22v4.37h-1.15Z"/>
      <path class="st0" d="M250.24,25.69c-.61,0-1.16-.14-1.66-.43s-.89-.69-1.18-1.22-.43-1.17-.43-1.92.15-1.37.45-1.9c.3-.53.68-.94,1.15-1.23.47-.29.96-.43,1.48-.43.58,0,1.07.13,1.48.4s.71.64.92,1.11c.21.48.31,1.04.31,1.68,0,.12,0,.24,0,.35,0,.11-.02.22-.05.34h-4.9v-.91h3.92c0-.65-.14-1.15-.43-1.5-.28-.35-.69-.52-1.22-.52-.31,0-.61.09-.91.26-.3.17-.54.45-.74.83s-.29.89-.29,1.53c0,.58.1,1.06.3,1.46.2.39.47.69.82.89.34.2.72.3,1.13.3.33,0,.63-.05.92-.14.28-.09.54-.22.78-.38l.42.76c-.3.21-.63.37-1,.5-.37.13-.79.2-1.25.2Z"/>
      <path class="st0" d="M256.48,25.69c-.49,0-.96-.09-1.41-.26s-.82-.41-1.13-.72l.53-.67c.3.24.61.43.93.56s.69.2,1.11.2c.45,0,.78-.11,1.01-.32.22-.21.34-.46.34-.75,0-.23-.08-.43-.23-.58s-.35-.29-.57-.39c-.23-.11-.47-.21-.73-.3-.34-.12-.66-.26-.97-.43s-.56-.37-.75-.62c-.19-.25-.29-.56-.29-.93,0-.55.21-1.01.62-1.38.42-.37.99-.55,1.73-.55.42,0,.81.07,1.18.22s.68.33.94.55l-.53.66c-.24-.17-.49-.3-.74-.39-.25-.09-.53-.14-.84-.14-.43,0-.74.1-.94.29-.2.2-.3.42-.3.69,0,.21.06.38.18.51.12.14.29.25.51.36.22.1.47.2.75.29.35.13.69.28,1.01.44.32.16.58.37.78.63.2.26.3.59.3,1,0,.37-.1.71-.29,1.01-.19.3-.47.55-.84.73-.37.19-.82.28-1.37.28Z"/>
    </g>
    <rect class="st4" x="144.07" y="15.99" width="53.38" height="13.46" rx="4.81" ry="4.81"/>
  </g>
  <g>
    <g>
      <path class="st0" d="M364.37,25.52v-9.18h1.16v3.85h4.28v-3.85h1.16v9.18h-1.16v-4.33h-4.28v4.33h-1.16Z"/>
      <path class="st0" d="M376.31,25.69c-.55,0-1.07-.14-1.55-.42s-.87-.69-1.16-1.22c-.29-.53-.44-1.17-.44-1.92s.15-1.41.44-1.95c.29-.53.68-.94,1.16-1.22.48-.28,1-.42,1.55-.42s1.08.14,1.55.42c.48.28.86.69,1.15,1.22.29.53.44,1.18.44,1.95s-.15,1.39-.44,1.92c-.29.53-.68.94-1.15,1.22s-.99.42-1.55.42ZM376.31,24.73c.39,0,.74-.11,1.04-.33.3-.22.53-.53.69-.92.16-.39.24-.84.24-1.36s-.08-.98-.24-1.38c-.16-.4-.39-.7-.69-.92-.3-.22-.64-.33-1.04-.33s-.73.11-1.03.33c-.29.22-.52.53-.69.92s-.25.86-.25,1.38.08.97.25,1.36.39.7.69.92c.29.22.64.33,1.03.33Z"/>
      <path class="st0" d="M381.53,25.52v-6.8h.95l.1.98h.04c.3-.32.62-.59.97-.81.35-.22.73-.34,1.14-.34.52,0,.93.12,1.22.35s.51.55.65.95c.35-.39.71-.71,1.08-.95.36-.24.75-.36,1.16-.36.71,0,1.23.23,1.57.68.34.45.5,1.11.5,1.98v4.31h-1.15v-4.16c0-.64-.1-1.11-.31-1.39-.21-.28-.52-.43-.95-.43-.27,0-.54.09-.82.26-.27.17-.57.44-.89.79v4.93h-1.15v-4.16c0-.64-.1-1.11-.31-1.39-.21-.28-.53-.43-.97-.43-.51,0-1.08.35-1.71,1.05v4.93h-1.15Z"/>
      <path class="st0" d="M396.17,25.69c-.61,0-1.16-.14-1.66-.43s-.89-.69-1.18-1.22-.43-1.17-.43-1.92.15-1.37.45-1.9c.3-.53.68-.94,1.15-1.23.47-.29.96-.43,1.48-.43.58,0,1.07.13,1.48.4s.71.64.92,1.11c.21.48.31,1.04.31,1.68,0,.12,0,.24,0,.35,0,.11-.02.22-.05.34h-4.9v-.91h3.92c0-.65-.14-1.15-.43-1.5-.28-.35-.69-.52-1.22-.52-.31,0-.61.09-.91.26-.3.17-.54.45-.74.83s-.29.89-.29,1.53c0,.58.1,1.06.3,1.46.2.39.47.69.82.89.34.2.72.3,1.13.3.33,0,.63-.05.92-.14.28-.09.54-.22.78-.38l.42.76c-.3.21-.63.37-1,.5-.37.13-.79.2-1.25.2Z"/>
      <path class="st0" d="M400.64,25.52v-6.8h.95l.1.98h.04c.33-.33.67-.6,1.04-.82.36-.22.78-.33,1.25-.33.72,0,1.24.23,1.58.68.33.45.5,1.11.5,1.98v4.31h-1.15v-4.16c0-.64-.1-1.11-.3-1.39-.2-.28-.53-.43-.99-.43-.35,0-.66.09-.93.27-.28.18-.59.44-.93.78v4.93h-1.15Z"/>
      <path class="st0" d="M410.35,25.69c-.49,0-.96-.09-1.41-.26s-.82-.41-1.13-.72l.53-.67c.3.24.61.43.93.56s.69.2,1.11.2c.45,0,.78-.11,1.01-.32.22-.21.34-.46.34-.75,0-.23-.08-.43-.23-.58s-.35-.29-.57-.39c-.23-.11-.47-.21-.73-.3-.34-.12-.66-.26-.97-.43s-.56-.37-.75-.62c-.19-.25-.29-.56-.29-.93,0-.55.21-1.01.62-1.38.42-.37.99-.55,1.73-.55.42,0,.81.07,1.18.22s.68.33.94.55l-.53.66c-.24-.17-.49-.3-.74-.39-.25-.09-.53-.14-.84-.14-.43,0-.74.1-.94.29-.2.2-.3.42-.3.69,0,.21.06.38.18.51.12.14.29.25.51.36.22.1.47.2.75.29.35.13.69.28,1.01.44.32.16.58.37.78.63.2.26.3.59.3,1,0,.37-.1.71-.29,1.01-.19.3-.47.55-.84.73-.37.19-.82.28-1.37.28Z"/>
    </g>
    <rect class="st2" x="303.16" y="15.99" width="53.38" height="13.46" rx="4.81" ry="4.81"/>
  </g>
  <g>
    <path class="st0" d="M51.31,61.96c-.77,0-1.43-.15-1.97-.45s-.95-.7-1.22-1.2c-.28-.5-.42-1.04-.42-1.63h1.33c0,.64.21,1.15.62,1.53.41.38.97.57,1.66.57.46,0,.86-.08,1.2-.25s.6-.41.79-.73.28-.69.28-1.11c0-.64-.21-1.16-.62-1.56-.41-.4-.96-.59-1.65-.59-.29,0-.55.04-.76.11-.21.07-.4.16-.56.26l-.68-1.22,3.95-2.89-.14-.25h-5.03v-1.16h6.3v1.88l-3.27,2.38-.99.04c.16-.06.34-.1.53-.14s.42-.06.69-.06c.76,0,1.4.14,1.93.42.53.28.93.66,1.21,1.13.28.47.42.99.42,1.54v.2c0,.55-.14,1.06-.42,1.55-.28.49-.69.88-1.22,1.18s-1.19.45-1.98.45Z"/>
    <path class="st0" d="M60.47,61.96c-.77,0-1.43-.13-1.98-.4-.54-.27-.98-.63-1.32-1.1s-.58-1-.73-1.61c-.15-.61-.23-1.25-.23-1.93v-.76c0-.95.15-1.81.45-2.58.3-.77.76-1.37,1.39-1.82s1.43-.67,2.42-.67,1.78.22,2.41.67,1.08,1.05,1.38,1.82c.3.76.45,1.62.45,2.58v.76c0,.68-.08,1.32-.23,1.93-.15.61-.39,1.14-.73,1.61s-.77.83-1.31,1.1c-.54.27-1.19.4-1.97.4ZM60.47,60.72c.98,0,1.7-.33,2.16-1,.46-.67.69-1.72.69-3.17s-.23-2.59-.7-3.24-1.18-.98-2.15-.98-1.69.33-2.16.98c-.47.65-.7,1.72-.7,3.21s.23,2.52.69,3.19c.46.67,1.18,1.01,2.17,1.01Z"/>
  </g>
  <g>
    <path class="st0" d="M48.12,126.23v-1.7c0-.42.06-.77.18-1.06s.32-.56.62-.8c.29-.24.69-.47,1.19-.7l1.94-.89c.47-.22.85-.5,1.12-.84s.41-.79.41-1.34c0-.66-.18-1.18-.55-1.54s-.89-.55-1.56-.55-1.18.18-1.56.55c-.38.37-.57.88-.57,1.54h-1.33c0-.59.12-1.14.38-1.64.25-.5.63-.9,1.14-1.2s1.16-.45,1.94-.45,1.43.15,1.93.45.88.69,1.13,1.17c.25.48.38,1.01.38,1.57v.2c0,.75-.21,1.37-.64,1.88s-1.01.93-1.74,1.26l-1.94.89c-.43.2-.73.4-.88.6-.15.2-.23.46-.23.79v1.3l-.37-.65h5.92v1.16h-6.91Z"/>
    <path class="st0" d="M60.5,126.49c-.77,0-1.43-.13-1.98-.4-.54-.27-.98-.63-1.32-1.1s-.58-1-.73-1.61c-.15-.61-.23-1.25-.23-1.93v-.76c0-.95.15-1.81.45-2.58.3-.77.76-1.37,1.39-1.82s1.43-.67,2.42-.67,1.78.22,2.41.67,1.08,1.05,1.38,1.82c.3.76.45,1.62.45,2.58v.76c0,.68-.08,1.32-.23,1.93-.15.61-.39,1.14-.73,1.61s-.77.83-1.31,1.1c-.54.27-1.19.4-1.97.4ZM60.5,125.24c.98,0,1.7-.33,2.16-1,.46-.67.69-1.72.69-3.17s-.23-2.59-.7-3.24-1.18-.98-2.15-.98-1.69.33-2.16.98c-.47.65-.7,1.72-.7,3.21s.23,2.52.69,3.19c.46.67,1.18,1.01,2.17,1.01Z"/>
  </g>
  <g>
    <path class="st0" d="M51.34,192.56v-9.66l.62.48h-2.92v-1.16h3.65v10.34h-1.36Z"/>
    <path class="st0" d="M59.1,192.81c-.77,0-1.43-.13-1.98-.4-.54-.27-.98-.63-1.32-1.1s-.58-1-.73-1.61c-.15-.61-.23-1.25-.23-1.93v-.76c0-.95.15-1.81.45-2.58.3-.77.76-1.37,1.39-1.82s1.43-.67,2.42-.67,1.78.22,2.41.67,1.08,1.05,1.38,1.82c.3.76.45,1.62.45,2.58v.76c0,.68-.08,1.32-.23,1.93-.15.61-.39,1.14-.73,1.61s-.77.83-1.31,1.1c-.54.27-1.19.4-1.97.4ZM59.1,191.56c.98,0,1.7-.33,2.16-1,.46-.67.69-1.72.69-3.17s-.23-2.59-.7-3.24-1.18-.98-2.15-.98-1.69.33-2.16.98c-.47.65-.7,1.72-.7,3.21s.23,2.52.69,3.19c.46.67,1.18,1.01,2.17,1.01Z"/>
  </g>
  <path class="st0" d="M56.41,257.06c-.77,0-1.43-.13-1.98-.4-.54-.27-.98-.63-1.32-1.1s-.58-1-.73-1.61c-.15-.61-.23-1.25-.23-1.93v-.76c0-.95.15-1.81.45-2.58.3-.77.76-1.37,1.39-1.82s1.43-.67,2.42-.67,1.78.22,2.41.67,1.08,1.05,1.38,1.82c.3.76.45,1.62.45,2.58v.76c0,.68-.08,1.32-.23,1.93-.15.61-.39,1.14-.73,1.61s-.77.83-1.31,1.1c-.54.27-1.19.4-1.97.4ZM56.41,255.81c.98,0,1.7-.33,2.16-1,.46-.67.69-1.72.69-3.17s-.23-2.59-.7-3.24-1.18-.98-2.15-.98-1.69.33-2.16.98c-.47.65-.7,1.72-.7,3.21s.23,2.52.69,3.19c.46.67,1.18,1.01,2.17,1.01Z"/>
  <g>
    <g>
      <path class="st0" d="M229.85,277.26v-1.7c0-.42.06-.77.18-1.06s.32-.56.62-.8c.29-.24.69-.47,1.19-.7l1.94-.89c.47-.22.85-.5,1.12-.84s.41-.79.41-1.34c0-.66-.18-1.18-.55-1.54s-.89-.55-1.56-.55-1.18.18-1.56.55c-.38.37-.57.88-.57,1.54h-1.33c0-.59.12-1.14.38-1.64.25-.5.63-.9,1.14-1.2s1.16-.45,1.94-.45,1.43.15,1.93.45.88.69,1.13,1.17c.25.48.38,1.01.38,1.57v.2c0,.75-.21,1.37-.64,1.88s-1.01.93-1.74,1.26l-1.94.89c-.43.2-.73.4-.88.6-.15.2-.23.46-.23.79v1.3l-.37-.65h5.92v1.16h-6.91Z"/>
      <path class="st0" d="M242.22,277.51c-.77,0-1.43-.13-1.98-.4-.54-.27-.98-.63-1.32-1.1s-.58-1-.73-1.61c-.15-.61-.23-1.25-.23-1.93v-.76c0-.95.15-1.81.45-2.58.3-.77.76-1.37,1.39-1.82s1.43-.67,2.42-.67,1.78.22,2.41.67,1.08,1.05,1.38,1.82c.3.76.45,1.62.45,2.58v.76c0,.68-.08,1.32-.23,1.93-.15.61-.39,1.14-.73,1.61s-.77.83-1.31,1.1c-.54.27-1.19.4-1.97.4ZM242.22,276.27c.98,0,1.7-.33,2.16-1,.46-.67.69-1.72.69-3.17s-.23-2.59-.7-3.24-1.18-.98-2.15-.98-1.69.33-2.16.98c-.47.65-.7,1.72-.7,3.21s.23,2.52.69,3.19c.46.67,1.18,1.01,2.17,1.01Z"/>
      <path class="st0" d="M247.99,277.26v-1.7c0-.42.06-.77.18-1.06s.32-.56.62-.8c.29-.24.69-.47,1.19-.7l1.94-.89c.47-.22.85-.5,1.12-.84s.41-.79.41-1.34c0-.66-.18-1.18-.55-1.54s-.89-.55-1.56-.55-1.18.18-1.56.55c-.38.37-.57.88-.57,1.54h-1.33c0-.59.12-1.14.38-1.64.25-.5.63-.9,1.14-1.2s1.16-.45,1.94-.45,1.43.15,1.93.45.88.69,1.13,1.17c.25.48.38,1.01.38,1.57v.2c0,.75-.21,1.37-.64,1.88s-1.01.93-1.74,1.26l-1.94.89c-.43.2-.73.4-.88.6-.15.2-.23.46-.23.79v1.3l-.37-.65h5.92v1.16h-6.91Z"/>
      <path class="st0" d="M256.17,277.26v-1.7c0-.42.06-.77.18-1.06s.32-.56.62-.8c.29-.24.69-.47,1.19-.7l1.94-.89c.47-.22.85-.5,1.12-.84s.41-.79.41-1.34c0-.66-.18-1.18-.55-1.54s-.89-.55-1.56-.55-1.18.18-1.56.55c-.38.37-.57.88-.57,1.54h-1.33c0-.59.12-1.14.38-1.64.25-.5.63-.9,1.14-1.2s1.16-.45,1.94-.45,1.43.15,1.93.45.88.69,1.13,1.17c.25.48.38,1.01.38,1.57v.2c0,.75-.21,1.37-.64,1.88s-1.01.93-1.74,1.26l-1.94.89c-.43.2-.73.4-.88.6-.15.2-.23.46-.23.79v1.3l-.37-.65h5.92v1.16h-6.91Z"/>
    </g>
    <g>
      <path class="st2" d="M266.15,181.44h13.89c9.59,0,17.38,7.79,17.38,17.38v54.35h-48.64v-54.35c0-9.59,7.79-17.38,17.38-17.38Z"/>
      <path class="st4" d="M212.58,99.95h13.89c9.59,0,17.38,7.79,17.38,17.38v135.84h-48.64V117.33c0-9.59,7.79-17.38,17.38-17.38Z"/>
      <g>
        <path class="st1" d="M201.62,137.97v-1.19c1.5-1.49,2.79-2.8,3.85-3.95,1.07-1.15,1.88-2.18,2.43-3.12.55-.93.83-1.8.83-2.61,0-.87-.24-1.58-.71-2.13-.47-.55-1.19-.83-2.16-.83-.63,0-1.22.17-1.75.52s-1.03.78-1.47,1.3l-1.09-1.07c.63-.71,1.31-1.28,2.03-1.71.72-.43,1.56-.64,2.52-.64s1.74.19,2.42.56c.68.37,1.2.89,1.56,1.55.36.66.54,1.44.54,2.32,0,.98-.27,1.95-.82,2.92-.55.96-1.29,1.98-2.24,3.03-.95,1.06-2.04,2.22-3.27,3.49.41-.05.84-.08,1.28-.11.44-.02.86-.04,1.26-.04h4.55v1.68h-9.77Z"/>
        <path class="st1" d="M216.87,138.26c-.81,0-1.52-.1-2.15-.31s-1.17-.47-1.62-.78c-.46-.32-.86-.66-1.21-1.04l1-1.28c.46.47.99.89,1.6,1.26.61.36,1.36.55,2.26.55s1.67-.25,2.25-.76.88-1.18.88-2.02c0-.6-.15-1.13-.46-1.58-.31-.45-.81-.8-1.52-1.06-.7-.25-1.66-.38-2.86-.38v-1.49c1.07,0,1.92-.13,2.55-.38.62-.25,1.07-.59,1.34-1.01.27-.42.4-.9.4-1.43,0-.74-.23-1.33-.7-1.75-.47-.43-1.1-.64-1.91-.64-.63,0-1.22.14-1.75.43-.54.28-1.03.66-1.47,1.11l-1.04-1.23c.58-.55,1.23-1.01,1.94-1.36.71-.36,1.51-.53,2.39-.53s1.67.15,2.35.45c.68.3,1.21.74,1.6,1.3.39.57.58,1.26.58,2.09,0,.92-.25,1.67-.76,2.25-.51.58-1.17,1.04-1.99,1.35v.09c.62.14,1.17.38,1.66.72.49.34.88.77,1.17,1.29.29.52.44,1.13.44,1.83,0,.9-.22,1.67-.66,2.31-.44.64-1.04,1.13-1.8,1.48-.76.35-1.6.52-2.51.52Z"/>
        <path class="st1" d="M223.46,142l-.47-1.14c.68-.3,1.21-.71,1.59-1.22.38-.51.56-1.09.54-1.72l-.21-1.75.97,1.42c-.14.14-.3.25-.46.31-.17.06-.34.09-.53.09-.38,0-.71-.12-.98-.36-.28-.24-.42-.57-.42-1s.15-.76.44-1.01c.29-.25.63-.37,1.01-.37.52,0,.92.2,1.21.61.28.4.43.97.43,1.69,0,1.01-.28,1.9-.83,2.68-.55.77-1.31,1.36-2.28,1.75Z"/>
        <path class="st1" d="M228.46,137.97v-1.61h3.46v-11.14h-2.75v-1.26c.68-.13,1.28-.28,1.8-.46s.99-.4,1.4-.65h1.49v13.51h3.13v1.61h-8.53Z"/>
      </g>
      <g>
        <path class="st1" d="M255.53,213.63v-1.61h3.46v-11.14h-2.75v-1.26c.68-.13,1.28-.28,1.8-.46s.99-.4,1.4-.65h1.49v13.51h3.13v1.61h-8.53Z"/>
        <path class="st1" d="M270.16,213.92c-1.52,0-2.71-.68-3.57-2.05-.86-1.37-1.29-3.31-1.29-5.84s.43-4.48,1.29-5.81c.86-1.33,2.05-1.99,3.57-1.99s2.68.67,3.54,2c.86,1.33,1.29,3.27,1.29,5.8s-.43,4.48-1.29,5.84c-.86,1.37-2.04,2.05-3.54,2.05ZM270.16,212.35c.58,0,1.1-.22,1.54-.66.44-.44.79-1.13,1.03-2.06s.37-2.13.37-3.6-.12-2.69-.37-3.6c-.25-.92-.59-1.58-1.03-2s-.96-.63-1.54-.63-1.12.21-1.56.63c-.44.42-.79,1.09-1.03,2-.25.92-.37,2.12-.37,3.6s.12,2.67.37,3.6c.24.93.59,1.62,1.03,2.06.44.44.96.66,1.56.66Z"/>
        <path class="st1" d="M276.44,217.67l-.47-1.14c.68-.3,1.21-.71,1.59-1.22.38-.51.56-1.09.54-1.72l-.21-1.75.97,1.42c-.14.14-.3.25-.46.31-.17.06-.34.09-.53.09-.38,0-.71-.12-.98-.36-.28-.24-.42-.57-.42-1s.15-.76.44-1.01c.29-.25.63-.37,1.01-.37.52,0,.92.2,1.21.61.28.4.43.97.43,1.69,0,1.01-.28,1.9-.83,2.68-.55.77-1.31,1.36-2.28,1.75Z"/>
        <path class="st1" d="M284.43,213.92c-.81,0-1.51-.15-2.11-.46s-1.11-.68-1.54-1.13l1.09-1.23c.32.36.69.66,1.13.88.43.22.89.33,1.36.33.73,0,1.39-.22,1.99-.65s1.09-1.15,1.46-2.13c.37-.99.56-2.33.56-4.02,0-1.25-.13-2.3-.4-3.14-.27-.84-.65-1.49-1.15-1.93-.5-.44-1.11-.66-1.84-.66-.49,0-.93.14-1.33.42-.4.28-.71.66-.95,1.16-.24.5-.36,1.08-.36,1.74s.11,1.21.32,1.7c.21.48.53.85.94,1.11s.92.39,1.54.39c.49,0,1.03-.16,1.61-.49.58-.32,1.13-.87,1.64-1.65l.07,1.54c-.46.63-1.02,1.13-1.68,1.51s-1.32.56-1.97.56c-.87,0-1.63-.17-2.28-.52-.65-.35-1.15-.87-1.49-1.56s-.52-1.56-.52-2.58c0-.96.2-1.81.6-2.55.4-.73.94-1.3,1.62-1.71s1.42-.6,2.23-.6c.74,0,1.43.15,2.07.45.64.3,1.19.75,1.66,1.36.47.61.83,1.37,1.09,2.28s.39,1.97.39,3.19c0,1.52-.16,2.81-.47,3.89-.32,1.08-.74,1.94-1.28,2.61-.54.66-1.15,1.15-1.84,1.46s-1.41.46-2.17.46Z"/>
      </g>
    </g>
    <g>
      <path class="st1" d="M199.54,154.33v-8.17h1.1v8.17h-1.1ZM200.41,150.76v-.99h4.88v.99h-4.88ZM205.07,154.33v-8.17h1.1v8.17h-1.1Z"/>
      <path class="st1" d="M212.2,154.53c-.73,0-1.36-.13-1.89-.39-.53-.26-.97-.6-1.31-1.03-.34-.42-.6-.88-.77-1.37-.17-.48-.25-.95-.25-1.4v-.25c0-.49.09-.97.26-1.47s.43-.94.78-1.35c.35-.41.79-.73,1.32-.98.53-.25,1.15-.37,1.86-.37s1.34.12,1.86.37.96.57,1.32.98c.35.41.61.86.78,1.35.17.49.26.98.26,1.47v.25c0,.45-.08.92-.25,1.4-.17.49-.42.94-.77,1.37-.34.43-.78.77-1.31,1.03-.53.26-1.16.39-1.89.39ZM212.2,153.52c.48,0,.91-.09,1.29-.27.38-.18.71-.42.98-.73.27-.31.47-.66.62-1.05.14-.39.21-.8.21-1.24,0-.46-.07-.88-.21-1.28-.14-.4-.35-.74-.62-1.05-.27-.3-.6-.54-.98-.71-.38-.17-.82-.26-1.29-.26s-.91.09-1.29.26c-.38.17-.71.41-.98.71-.27.3-.47.65-.62,1.05-.14.4-.21.82-.21,1.28,0,.43.07.84.21,1.24.14.39.35.74.62,1.05.27.31.6.55.98.73.38.18.82.27,1.29.27Z"/>
      <path class="st1" d="M218.23,154.33v-8.22h1.1v8.22h-1.1ZM218.91,151.37v-.97h2.19c.34,0,.64-.07.88-.21s.44-.34.57-.59c.13-.25.2-.54.2-.86s-.07-.61-.2-.86c-.13-.25-.33-.45-.57-.59s-.54-.22-.88-.22h-2.19v-.96h1.99c.6,0,1.12.09,1.57.27.45.18.79.46,1.04.83s.37.85.37,1.44v.18c0,.59-.12,1.07-.38,1.44-.25.37-.6.65-1.04.83-.44.18-.96.27-1.56.27h-1.99ZM223.28,154.33l-2.71-3.64h1.29l2.75,3.64h-1.33Z"/>
      <path class="st1" d="M225.19,154.33l2.94-8.17h1.86l3.03,8.17h-1.13l-2.74-7.46.54.27h-1.32l.57-.27-2.65,7.46h-1.1ZM226.95,151.89l.37-.98h3.53l.37.98h-4.27Z"/>
      <path class="st1" d="M237.12,154.53c-.68,0-1.26-.11-1.74-.34-.48-.22-.84-.53-1.1-.93s-.38-.84-.38-1.34h1.1c0,.25.07.49.2.74.13.25.35.45.66.62s.73.25,1.26.25c.49,0,.9-.07,1.21-.22s.54-.34.69-.57.22-.49.22-.77c0-.34-.15-.61-.44-.83-.29-.22-.72-.36-1.28-.41l-.91-.08c-.72-.06-1.3-.28-1.74-.67s-.65-.9-.65-1.53c0-.5.12-.94.36-1.31.24-.37.58-.67,1.01-.88.43-.21.94-.32,1.51-.32s1.07.1,1.5.31c.43.21.77.5,1.01.88.24.38.36.83.36,1.35h-1.1c0-.26-.06-.51-.18-.74s-.32-.42-.58-.57c-.26-.15-.6-.22-1.02-.22s-.74.07-1,.21c-.26.14-.46.33-.59.55s-.2.47-.2.73c0,.3.12.56.35.79s.58.37,1.03.4l.91.08c.56.04,1.04.16,1.45.35.41.19.72.44.94.76.22.32.33.7.33,1.14,0,.5-.13.94-.4,1.33-.27.39-.65.69-1.13.91-.49.22-1.05.32-1.69.32Z"/>
    </g>
    <g>
      <path class="st1" d="M253.66,228.46v-8.17h1.1v8.17h-1.1ZM254.53,224.88v-.99h4.88v.99h-4.88ZM259.19,228.46v-8.17h1.1v8.17h-1.1Z"/>
      <path class="st1" d="M266.32,228.66c-.73,0-1.36-.13-1.89-.39-.53-.26-.97-.6-1.31-1.03-.34-.42-.6-.88-.77-1.37-.17-.48-.25-.95-.25-1.4v-.25c0-.49.09-.97.26-1.47s.43-.94.78-1.35c.35-.41.79-.73,1.32-.98.53-.25,1.15-.37,1.86-.37s1.34.12,1.86.37.96.57,1.32.98c.35.41.61.86.78,1.35.17.49.26.98.26,1.47v.25c0,.45-.08.92-.25,1.4-.17.49-.42.94-.77,1.37-.34.43-.78.77-1.31,1.03-.53.26-1.16.39-1.89.39ZM266.32,227.65c.48,0,.91-.09,1.29-.27.38-.18.71-.42.98-.73.27-.31.47-.66.62-1.05.14-.39.21-.8.21-1.24,0-.46-.07-.88-.21-1.28-.14-.4-.35-.74-.62-1.05-.27-.3-.6-.54-.98-.71-.38-.17-.82-.26-1.29-.26s-.91.09-1.29.26c-.38.17-.71.41-.98.71-.27.3-.47.65-.62,1.05-.14.4-.21.82-.21,1.28,0,.43.07.84.21,1.24.14.39.35.74.62,1.05.27.31.6.55.98.73.38.18.82.27,1.29.27Z"/>
      <path class="st1" d="M272.35,228.46v-8.22h1.1v8.22h-1.1ZM273.03,225.5v-.97h2.19c.34,0,.64-.07.88-.21s.44-.34.57-.59c.13-.25.2-.54.2-.86s-.07-.61-.2-.86c-.13-.25-.33-.45-.57-.59s-.54-.22-.88-.22h-2.19v-.96h1.99c.6,0,1.12.09,1.57.27.45.18.79.46,1.04.83s.37.85.37,1.44v.18c0,.59-.12,1.07-.38,1.44-.25.37-.6.65-1.04.83-.44.18-.96.27-1.56.27h-1.99ZM277.4,228.46l-2.71-3.64h1.29l2.75,3.64h-1.33Z"/>
      <path class="st1" d="M279.31,228.46l2.94-8.17h1.86l3.03,8.17h-1.13l-2.74-7.46.54.27h-1.32l.57-.27-2.65,7.46h-1.1ZM281.07,226.01l.37-.98h3.53l.37.98h-4.27Z"/>
      <path class="st1" d="M291.24,228.66c-.68,0-1.26-.11-1.74-.34-.48-.22-.84-.53-1.1-.93s-.38-.84-.38-1.34h1.1c0,.25.07.49.2.74.13.25.35.45.66.62s.73.25,1.26.25c.49,0,.9-.07,1.21-.22s.54-.34.69-.57.22-.49.22-.77c0-.34-.15-.61-.44-.83-.29-.22-.72-.36-1.28-.41l-.91-.08c-.72-.06-1.3-.28-1.74-.67s-.65-.9-.65-1.53c0-.5.12-.94.36-1.31.24-.37.58-.67,1.01-.88.43-.21.94-.32,1.51-.32s1.07.1,1.5.31c.43.21.77.5,1.01.88.24.38.36.83.36,1.35h-1.1c0-.26-.06-.51-.18-.74s-.32-.42-.58-.57c-.26-.15-.6-.22-1.02-.22s-.74.07-1,.21c-.26.14-.46.33-.59.55s-.2.47-.2.73c0,.3.12.56.35.79s.58.37,1.03.4l.91.08c.56.04,1.04.16,1.45.35.41.19.72.44.94.76.22.32.33.7.33,1.14,0,.5-.13.94-.4,1.33-.27.39-.65.69-1.13.91-.49.22-1.05.32-1.69.32Z"/>
    </g>
  </g>
  <rect class="st5" x="89.57" y="252.05" width="327.7" height="2"/>
  <g>
    <path class="st0" d="M31.49,230.78h-9.18v-1.16h3.85v-4.28h-3.85v-1.16h9.18v1.16h-4.33v4.28h4.33v1.16Z"/>
    <path class="st0" d="M31.66,218.84c0,.55-.14,1.07-.42,1.55s-.69.87-1.22,1.16c-.53.29-1.17.44-1.92.44s-1.41-.15-1.95-.44c-.53-.29-.94-.68-1.22-1.16-.28-.48-.42-1-.42-1.55s.14-1.08.42-1.55c.28-.48.69-.86,1.22-1.15.53-.29,1.18-.44,1.95-.44s1.39.15,1.92.44c.53.29.94.68,1.22,1.15s.42.99.42,1.55ZM30.71,218.84c0-.39-.11-.74-.33-1.04-.22-.3-.53-.53-.92-.69-.39-.16-.84-.24-1.36-.24s-.98.08-1.38.24c-.4.16-.7.39-.92.69-.22.3-.33.64-.33,1.04s.11.73.33,1.03c.22.29.53.52.92.69s.86.25,1.38.25.97-.08,1.36-.25.7-.39.92-.69c.22-.29.33-.64.33-1.03Z"/>
    <path class="st0" d="M31.49,213.62h-6.8v-.95l1.23-.1v-.04c-.43-.22-.77-.5-1.02-.84s-.38-.7-.38-1.09c0-.15,0-.28.03-.39.02-.11.06-.22.11-.34l.98.25c-.03.1-.05.2-.06.29-.01.09-.02.2-.02.34,0,.29.12.59.35.9.23.31.64.59,1.22.82h4.37v1.15Z"/>
    <path class="st0" d="M31.66,207.25c0,.37-.08.71-.23,1.01-.15.3-.37.54-.66.72-.28.18-.63.27-1.04.27-.76,0-1.34-.34-1.74-1.01s-.67-1.74-.83-3.19c-.28,0-.55.05-.81.13-.26.08-.47.22-.63.43-.16.21-.24.49-.24.85,0,.39.07.76.22,1.11.14.35.31.65.48.92l-.78.45c-.14-.21-.28-.45-.41-.73-.14-.28-.25-.58-.34-.91s-.13-.67-.13-1.04c0-.55.11-1,.34-1.35.23-.35.55-.61.97-.77s.91-.25,1.48-.25h4.17v.95l-.81.1v.04c.27.33.5.68.69,1.05s.29.77.29,1.2ZM30.71,206.93c0-.34-.07-.65-.22-.94s-.37-.6-.66-.93h-1.83c.09.77.21,1.37.36,1.81.15.44.33.76.54.96.21.2.47.29.77.29.37,0,.64-.12.8-.35s.24-.51.24-.84Z"/>
    <path class="st0" d="M31.66,199.71c0,.49-.09.96-.26,1.41s-.41.82-.72,1.13l-.67-.53c.24-.3.43-.61.56-.93s.2-.69.2-1.11c0-.45-.11-.78-.32-1.01-.21-.22-.46-.34-.75-.34-.23,0-.43.08-.58.23s-.29.35-.39.57c-.11.23-.21.47-.3.73-.12.34-.26.66-.43.97s-.37.56-.62.75c-.25.19-.56.29-.93.29-.55,0-1.01-.21-1.38-.62-.37-.42-.55-.99-.55-1.73,0-.42.07-.81.22-1.18s.33-.68.55-.94l.66.53c-.17.24-.3.49-.39.74-.09.25-.14.53-.14.84,0,.43.1.74.29.94.2.2.42.3.69.3.21,0,.38-.06.51-.18.14-.12.25-.29.36-.51.1-.22.2-.47.29-.75.13-.35.28-.69.44-1.01.16-.32.37-.58.63-.78.26-.2.59-.3,1-.3.37,0,.71.1,1.01.29.3.19.55.47.73.84.19.37.28.82.28,1.37Z"/>
    <path class="st0" d="M31.66,189.94c0,.86-.31,1.54-.93,2.05-.62.51-1.5.76-2.62.76-.74,0-1.37-.14-1.91-.41-.54-.28-.95-.64-1.24-1.08-.29-.45-.43-.93-.43-1.46,0-.4.07-.74.2-1.03.14-.28.33-.58.58-.88l-1.16.06h-2.62v-1.16h9.96v.95l-.8.1v.04c.26.26.49.57.68.92s.29.73.29,1.13ZM30.69,189.69c0-.32-.08-.62-.24-.9-.16-.28-.39-.56-.7-.84h-3.56c-.26.28-.45.55-.55.83-.11.27-.16.55-.16.83,0,.36.11.69.33.99.22.29.52.53.91.71.39.18.84.27,1.36.27.81,0,1.45-.16,1.91-.49.46-.33.69-.79.69-1.39Z"/>
    <path class="st0" d="M31.66,181.46c0,.61-.14,1.16-.43,1.66s-.69.89-1.22,1.18-1.17.43-1.92.43-1.37-.15-1.9-.45c-.53-.3-.94-.68-1.23-1.15-.29-.47-.43-.96-.43-1.48,0-.58.13-1.07.4-1.48s.64-.71,1.11-.92c.48-.21,1.04-.31,1.68-.31.12,0,.24,0,.35,0,.11,0,.22.02.34.05v4.9h-.91v-3.92c-.65,0-1.15.14-1.5.43-.35.28-.52.69-.52,1.22,0,.31.09.61.26.91.17.3.45.54.83.74s.89.29,1.53.29c.58,0,1.06-.1,1.46-.3.39-.2.69-.47.89-.82.2-.34.3-.72.3-1.13,0-.33-.05-.63-.14-.92-.09-.28-.22-.54-.38-.78l.76-.42c.21.3.37.63.5,1,.13.37.2.79.2,1.25Z"/>
    <path class="st0" d="M31.66,174.67c0,.86-.31,1.54-.93,2.05-.62.51-1.5.76-2.62.76-.74,0-1.37-.14-1.91-.41-.54-.28-.95-.64-1.24-1.08-.29-.45-.43-.93-.43-1.46,0-.4.07-.74.2-1.03.14-.28.33-.58.58-.88l-1.16.06h-2.62v-1.16h9.96v.95l-.8.1v.04c.26.26.49.57.68.92s.29.73.29,1.13ZM30.69,174.42c0-.32-.08-.62-.24-.9-.16-.28-.39-.56-.7-.84h-3.56c-.26.28-.45.55-.55.83-.11.27-.16.55-.16.83,0,.36.11.69.33.99.22.29.52.53.91.71.39.18.84.27,1.36.27.81,0,1.45-.16,1.91-.49.46-.33.69-.79.69-1.39Z"/>
    <path class="st0" d="M23.29,168.37c0,.22-.07.41-.21.55-.14.15-.32.22-.55.22s-.41-.07-.54-.22c-.14-.14-.21-.33-.21-.55s.07-.41.21-.55c.14-.14.32-.22.54-.22s.41.07.55.22c.14.14.21.33.21.55ZM31.49,168.95h-6.8v-1.15h6.8v1.15Z"/>
    <path class="st0" d="M31.66,162.52c0,.61-.14,1.15-.42,1.64-.28.48-.69.87-1.22,1.15-.53.28-1.17.42-1.92.42s-1.41-.15-1.95-.46c-.53-.3-.94-.7-1.22-1.2-.28-.5-.42-1.04-.42-1.62,0-.45.07-.83.22-1.15.15-.32.34-.6.57-.83l.71.57c-.17.17-.3.37-.4.6s-.15.49-.15.78c0,.4.11.76.33,1.08.22.32.53.58.92.76s.85.28,1.37.28.97-.09,1.36-.27c.39-.18.7-.42.92-.74.22-.32.33-.69.33-1.11,0-.32-.06-.61-.18-.88-.12-.27-.28-.5-.46-.7l.7-.5c.27.29.49.62.65.98.16.36.25.77.25,1.2Z"/>
    <path class="st0" d="M31.66,157.13c0,.37-.08.71-.23,1.01-.15.3-.37.54-.66.72-.28.18-.63.27-1.04.27-.76,0-1.34-.34-1.74-1.01s-.67-1.74-.83-3.19c-.28,0-.55.05-.81.13-.26.08-.47.22-.63.43-.16.21-.24.49-.24.85,0,.39.07.76.22,1.11.14.35.31.65.48.92l-.78.45c-.14-.21-.28-.45-.41-.73-.14-.28-.25-.58-.34-.91s-.13-.67-.13-1.04c0-.55.11-1,.34-1.35.23-.35.55-.61.97-.77s.91-.25,1.48-.25h4.17v.95l-.81.1v.04c.27.33.5.68.69,1.05s.29.77.29,1.2ZM30.71,156.81c0-.34-.07-.65-.22-.94s-.37-.6-.66-.93h-1.83c.09.77.21,1.37.36,1.81.15.44.33.76.54.96.21.2.47.29.77.29.37,0,.64-.12.8-.35s.24-.51.24-.84Z"/>
    <path class="st0" d="M31.66,149.59c0,.49-.09.96-.26,1.41s-.41.82-.72,1.13l-.67-.53c.24-.3.43-.61.56-.93s.2-.69.2-1.11c0-.45-.11-.78-.32-1.01-.21-.22-.46-.34-.75-.34-.23,0-.43.08-.58.23s-.29.35-.39.57c-.11.23-.21.47-.3.73-.12.34-.26.66-.43.97s-.37.56-.62.75c-.25.19-.56.29-.93.29-.55,0-1.01-.21-1.38-.62-.37-.42-.55-.99-.55-1.73,0-.42.07-.81.22-1.18s.33-.68.55-.94l.66.53c-.17.24-.3.49-.39.74-.09.25-.14.53-.14.84,0,.43.1.74.29.94.2.2.42.3.69.3.21,0,.38-.06.51-.18.14-.12.25-.29.36-.51.1-.22.2-.47.29-.75.13-.35.28-.69.44-1.01.16-.32.37-.58.63-.78.26-.2.59-.3,1-.3.37,0,.71.1,1.01.29.3.19.55.47.73.84.19.37.28.82.28,1.37Z"/>
    <path class="st0" d="M34.36,142.14h-9.67v-.95l.78-.1v-.04c-.26-.31-.48-.65-.67-1.02-.19-.37-.28-.76-.28-1.15,0-.58.14-1.07.43-1.47.28-.4.69-.71,1.2-.91.52-.21,1.13-.31,1.84-.31.77,0,1.42.14,1.97.41.55.28.97.64,1.26,1.08.29.45.43.93.43,1.44,0,.31-.07.62-.21.94s-.33.63-.57.95l1.19-.03h2.29v1.15ZM30.69,139.33c0-.37-.11-.71-.32-1-.21-.29-.52-.52-.93-.69-.41-.17-.89-.25-1.45-.25-.49,0-.93.06-1.31.18s-.67.31-.88.57c-.21.26-.31.61-.31,1.04,0,.28.08.57.23.87s.38.62.69.95h3.57c.26-.32.45-.62.55-.9.11-.28.16-.54.16-.76Z"/>
    <path class="st0" d="M31.66,131.45c0,.55-.14,1.07-.42,1.55s-.69.87-1.22,1.16c-.53.29-1.17.44-1.92.44s-1.41-.15-1.95-.44c-.53-.29-.94-.68-1.22-1.16-.28-.48-.42-1-.42-1.55s.14-1.08.42-1.55c.28-.48.69-.86,1.22-1.15.53-.29,1.18-.44,1.95-.44s1.39.15,1.92.44c.53.29.94.68,1.22,1.15s.42.99.42,1.55ZM30.71,131.45c0-.39-.11-.74-.33-1.04-.22-.3-.53-.53-.92-.69-.39-.16-.84-.24-1.36-.24s-.98.08-1.38.24c-.4.16-.7.39-.92.69-.22.3-.33.64-.33,1.04s.11.73.33,1.03c.22.29.53.52.92.69s.86.25,1.38.25.97-.08,1.36-.25.7-.39.92-.69c.22-.29.33-.64.33-1.03Z"/>
    <path class="st0" d="M31.49,126.23h-6.8v-.95l1.23-.1v-.04c-.43-.22-.77-.5-1.02-.84s-.38-.7-.38-1.09c0-.15,0-.28.03-.39.02-.11.06-.22.11-.34l.98.25c-.03.1-.05.2-.06.29-.01.09-.02.2-.02.34,0,.29.12.59.35.9.23.31.64.59,1.22.82h4.37v1.15Z"/>
    <path class="st0" d="M31.66,116.24c0,.49-.09.96-.26,1.41s-.41.82-.72,1.13l-.67-.53c.24-.3.43-.61.56-.93s.2-.69.2-1.11c0-.45-.11-.78-.32-1.01-.21-.22-.46-.34-.75-.34-.23,0-.43.08-.58.23s-.29.35-.39.57c-.11.23-.21.47-.3.73-.12.34-.26.66-.43.97s-.37.56-.62.75c-.25.19-.56.29-.93.29-.55,0-1.01-.21-1.38-.62-.37-.42-.55-.99-.55-1.73,0-.42.07-.81.22-1.18s.33-.68.55-.94l.66.53c-.17.24-.3.49-.39.74-.09.25-.14.53-.14.84,0,.43.1.74.29.94.2.2.42.3.69.3.21,0,.38-.06.51-.18.14-.12.25-.29.36-.51.1-.22.2-.47.29-.75.13-.35.28-.69.44-1.01.16-.32.37-.58.63-.78.26-.2.59-.3,1-.3.37,0,.71.1,1.01.29.3.19.55.47.73.84.19.37.28.82.28,1.37Z"/>
    <path class="st0" d="M31.66,109.11c0,.61-.14,1.16-.43,1.66s-.69.89-1.22,1.18-1.17.43-1.92.43-1.37-.15-1.9-.45c-.53-.3-.94-.68-1.23-1.15-.29-.47-.43-.96-.43-1.48,0-.58.13-1.07.4-1.48s.64-.71,1.11-.92c.48-.21,1.04-.31,1.68-.31.12,0,.24,0,.35,0,.11,0,.22.02.34.05v4.9h-.91v-3.92c-.65,0-1.15.14-1.5.43-.35.28-.52.69-.52,1.22,0,.31.09.61.26.91.17.3.45.54.83.74s.89.29,1.53.29c.58,0,1.06-.1,1.46-.3.39-.2.69-.47.89-.82.2-.34.3-.72.3-1.13,0-.33-.05-.63-.14-.92-.09-.28-.22-.54-.38-.78l.76-.42c.21.3.37.63.5,1,.13.37.2.79.2,1.25Z"/>
    <path class="st0" d="M31.49,104.65h-6.8v-.95l.98-.1v-.04c-.32-.3-.59-.62-.81-.97-.22-.35-.34-.73-.34-1.14,0-.52.12-.93.35-1.22s.55-.51.95-.65c-.39-.35-.71-.71-.95-1.08-.24-.36-.36-.75-.36-1.16,0-.71.23-1.23.68-1.57.45-.34,1.11-.5,1.98-.5h4.31v1.15h-4.16c-.64,0-1.11.1-1.39.31-.28.21-.43.52-.43.95,0,.27.09.54.26.82.17.27.44.57.79.89h4.93v1.15h-4.16c-.64,0-1.11.1-1.39.31-.28.21-.43.53-.43.97,0,.51.35,1.08,1.05,1.71h4.93v1.15Z"/>
    <path class="st0" d="M31.66,91.2c0,.37-.08.71-.23,1.01-.15.3-.37.54-.66.72-.28.18-.63.27-1.04.27-.76,0-1.34-.34-1.74-1.01s-.67-1.74-.83-3.19c-.28,0-.55.05-.81.13-.26.08-.47.22-.63.43-.16.21-.24.49-.24.85,0,.39.07.76.22,1.11.14.35.31.65.48.92l-.78.45c-.14-.21-.28-.45-.41-.73-.14-.28-.25-.58-.34-.91s-.13-.67-.13-1.04c0-.55.11-1,.34-1.35.23-.35.55-.61.97-.77s.91-.25,1.48-.25h4.17v.95l-.81.1v.04c.27.33.5.68.69,1.05s.29.77.29,1.2ZM30.71,90.88c0-.34-.07-.65-.22-.94s-.37-.6-.66-.93h-1.83c.09.77.21,1.37.36,1.81.15.44.33.76.54.96.21.2.47.29.77.29.37,0,.64-.12.8-.35s.24-.51.24-.84Z"/>
    <path class="st0" d="M31.49,85.43h-6.8v-.95l.98-.1v-.04c-.33-.33-.6-.67-.82-1.04-.22-.36-.33-.78-.33-1.25,0-.72.23-1.24.68-1.58.45-.33,1.11-.5,1.98-.5h4.31v1.15h-4.16c-.64,0-1.11.1-1.39.3-.28.2-.43.53-.43.99,0,.35.09.66.27.93.18.28.44.59.78.93h4.93v1.15Z"/>
    <path class="st0" d="M31.66,75.93c0,.37-.08.71-.23,1.01-.15.3-.37.54-.66.72-.28.18-.63.27-1.04.27-.76,0-1.34-.34-1.74-1.01s-.67-1.74-.83-3.19c-.28,0-.55.05-.81.13-.26.08-.47.22-.63.43-.16.21-.24.49-.24.85,0,.39.07.76.22,1.11.14.35.31.65.48.92l-.78.45c-.14-.21-.28-.45-.41-.73-.14-.28-.25-.58-.34-.91s-.13-.67-.13-1.04c0-.55.11-1,.34-1.35.23-.35.55-.61.97-.77s.91-.25,1.48-.25h4.17v.95l-.81.1v.04c.27.33.5.68.69,1.05s.29.77.29,1.2ZM30.71,75.61c0-.34-.07-.65-.22-.94s-.37-.6-.66-.93h-1.83c.09.77.21,1.37.36,1.81.15.44.33.76.54.96.21.2.47.29.77.29.37,0,.64-.12.8-.35s.24-.51.24-.84Z"/>
  </g>
</svg>