<?xml version="1.0" encoding="UTF-8"?>
<svg id="Layer_1" xmlns="http://www.w3.org/2000/svg" version="1.1" viewBox="0 0 383 386">
  <!-- Generator: Adobe Illustrator 29.6.1, SVG Export Plug-In . SVG Version: 2.1.1 Build 9)  -->
  <defs>
    <style>
      .st0 {
        fill: #ff6219;
      }

      .st1 {
        fill: #e65a23;
      }

      .st2 {
        fill: #fff;
      }

      .st3 {
        fill: #ff6637;
      }

      .st4 {
        fill: #49ac4f;
      }
    </style>
  </defs>
  <g>
    <path class="st2" d="M66.6,25.3v-13.8h3.9c1,0,1.9.1,2.7.4s1.4.7,1.8,1.3c.4.6.7,1.4.7,2.4s-.2,1.8-.6,2.4-1,1.1-1.8,1.4-1.7.5-2.7.5h-2.3v5.5h-1.8,0ZM68.4,18.4h2.1c1.2,0,2.1-.2,2.7-.7.6-.5.9-1.2.9-2.1s-.3-1.7-.9-2.1c-.6-.4-1.5-.6-2.7-.6h-2v5.5h0Z"/>
    <path class="st2" d="M81.8,25.6c-.8,0-1.6-.2-2.3-.6s-1.3-1-1.8-1.8c-.4-.8-.7-1.8-.7-2.9s.2-2.1.7-2.9c.4-.8,1-1.4,1.8-1.8.7-.4,1.5-.6,2.3-.6s1.6.2,2.3.6c.7.4,1.3,1,1.7,1.8.4.8.7,1.8.7,2.9s-.2,2.1-.7,2.9c-.4.8-1,1.4-1.7,1.8-.7.4-1.5.6-2.3.6ZM81.8,24.1c.6,0,1.1-.2,1.6-.5s.8-.8,1-1.4c.2-.6.4-1.3.4-2s-.1-1.5-.4-2.1c-.2-.6-.6-1.1-1-1.4s-1-.5-1.6-.5-1.1.2-1.6.5c-.4.3-.8.8-1,1.4s-.4,1.3-.4,2.1.1,1.5.4,2,.6,1,1,1.4,1,.5,1.6.5Z"/>
    <path class="st2" d="M89.3,25.3v-10.2h1.4l.2,1.8h0c.3-.6.8-1.2,1.3-1.5s1.1-.6,1.6-.6.4,0,.6,0,.3,0,.5.2l-.4,1.5c-.2,0-.3,0-.4,0s-.3,0-.5,0c-.4,0-.9.2-1.4.5s-.9,1-1.2,1.8v6.6h-1.7,0Z"/>
    <path class="st2" d="M100.4,25.6c-.9,0-1.7-.2-2.5-.6-.7-.4-1.3-1-1.7-1.8s-.6-1.8-.6-2.9.2-2.1.7-2.9c.5-.8,1.1-1.4,1.8-1.8s1.6-.6,2.4-.6,1.2.1,1.7.3.9.5,1.2.9l-.9,1.1c-.2-.2-.6-.5-.9-.6s-.7-.2-1.2-.2-1.2.2-1.6.5c-.5.3-.9.8-1.2,1.4-.3.6-.4,1.3-.4,2.1s.1,1.5.4,2c.3.6.6,1,1.1,1.4s1,.5,1.7.5.9,0,1.3-.3.8-.4,1.1-.7l.8,1c-.4.4-.9.7-1.5,1-.6.2-1.2.4-1.8.4h0Z"/>
    <path class="st2" d="M109.7,25.6c-.9,0-1.7-.2-2.5-.6s-1.3-1-1.8-1.8c-.4-.8-.7-1.8-.7-2.9s.2-2.1.7-2.9c.4-.8,1-1.4,1.7-1.9s1.4-.6,2.2-.6,1.6.2,2.2.6c.6.4,1.1,1,1.4,1.7.3.7.5,1.6.5,2.5v.5c0,.2,0,.3,0,.5h-7.4v-1.4h5.9c0-1-.2-1.7-.6-2.3-.4-.5-1-.8-1.8-.8s-.9.1-1.4.4c-.4.3-.8.7-1.1,1.2-.3.6-.4,1.3-.4,2.3s.2,1.6.4,2.2c.3.6.7,1,1.2,1.3.5.3,1.1.5,1.7.5s.9,0,1.4-.2.8-.3,1.2-.6l.6,1.1c-.4.3-.9.6-1.5.8s-1.2.3-1.9.3h0Z"/>
    <path class="st2" d="M115.9,25.3v-10.2h1.4l.2,1.5h0c.5-.5,1-.9,1.6-1.2.6-.3,1.2-.5,1.9-.5,1.1,0,1.9.3,2.4,1s.8,1.7.8,3v6.5h-1.7v-6.2c0-1-.2-1.7-.4-2.1-.3-.4-.8-.6-1.5-.6s-1,.1-1.4.4-.9.7-1.4,1.2v7.4h-1.7Z"/>
    <path class="st2" d="M130.7,25.5c-1.1,0-1.8-.3-2.3-1-.4-.6-.7-1.5-.7-2.5v-5.6h-1.5v-1.3h1.6c0-.1.2-3.4.2-3.4h1.4v3.3h2.8v1.4h-2.8v5.6c0,.6.1,1.1.4,1.5.2.4.6.5,1.2.5s.4,0,.6,0,.4-.1.6-.2l.4,1.2c-.3.1-.6.2-.9.3-.3,0-.7.1-1,.1h0Z"/>
    <path class="st2" d="M136.5,25.6c-.6,0-1.1-.1-1.5-.4-.5-.2-.8-.6-1.1-1s-.4-1-.4-1.6c0-1.1.5-2,1.5-2.6s2.6-1,4.8-1.2c0-.4,0-.8-.2-1.2s-.3-.7-.6-1c-.3-.2-.7-.4-1.3-.4s-1.1.1-1.7.3-1,.5-1.4.7l-.7-1.2c.3-.2.7-.4,1.1-.6s.9-.4,1.4-.5c.5-.1,1-.2,1.6-.2.8,0,1.5.2,2,.5.5.3.9.8,1.2,1.5s.4,1.4.4,2.2v6.3h-1.4v-1.2h-.2c-.5.4-1,.8-1.6,1-.6.3-1.2.4-1.8.4h0ZM137,24.1c.5,0,1-.1,1.4-.3.4-.2.9-.5,1.4-1v-2.8c-1.1.1-2.1.3-2.7.5-.7.2-1.1.5-1.4.8-.3.3-.4.7-.4,1.2s.2,1,.5,1.2.8.4,1.3.4h0Z"/>
    <path class="st2" d="M148.2,30c-.8,0-1.6-.1-2.2-.3s-1.1-.5-1.5-.9c-.4-.4-.5-.9-.5-1.5s.1-.9.4-1.2c.3-.4.6-.8,1.1-1.1h0c-.2-.2-.5-.5-.6-.7-.2-.3-.3-.6-.3-1s.1-.8.4-1.1c.2-.3.5-.6.8-.8h0c-.3-.4-.6-.7-.9-1.2s-.4-1-.4-1.6.2-1.4.5-1.9c.4-.5.8-1,1.4-1.3s1.2-.4,1.9-.4.6,0,.8,0c.2,0,.5.1.6.2h3.6v1.3h-2.1c.2.3.5.6.6.9.2.3.2.7.2,1.2,0,.7-.2,1.4-.5,1.9-.3.5-.8.9-1.4,1.2s-1.2.4-1.9.4-.5,0-.8,0-.5-.1-.8-.3c-.2.1-.3.3-.4.5-.1.2-.2.4-.2.7s.1.6.4.8.7.3,1.4.3h2c1.2,0,2.1.2,2.7.6s.9,1,.9,1.9-.2,1.2-.6,1.8c-.4.5-1,1-1.8,1.3s-1.7.5-2.8.5h0ZM148.4,28.8c.6,0,1.2-.1,1.7-.3s.9-.5,1.1-.8c.3-.3.4-.7.4-1s-.2-.8-.5-1-.9-.3-1.5-.3h-1.8c-.2,0-.4,0-.6,0s-.5,0-.7-.1c-.4.3-.6.5-.8.8s-.2.6-.2.9c0,.5.3,1,.8,1.3s1.2.5,2.2.5h0ZM148.2,20.9c.4,0,.8-.1,1.1-.3.3-.2.6-.5.8-.9s.3-.8.3-1.3c0-.8-.2-1.3-.6-1.8-.4-.4-.9-.6-1.5-.6s-1.1.2-1.5.6c-.4.4-.6,1-.6,1.8s.1.9.3,1.3c.2.4.5.6.8.9.3.2.7.3,1.1.3h0Z"/>
    <path class="st2" d="M159.2,25.6c-.9,0-1.7-.2-2.5-.6s-1.3-1-1.8-1.8c-.4-.8-.6-1.8-.6-2.9s.2-2.1.7-2.9c.4-.8,1-1.4,1.7-1.9s1.4-.6,2.2-.6,1.6.2,2.2.6c.6.4,1.1,1,1.4,1.7.3.7.5,1.6.5,2.5v.5c0,.2,0,.3,0,.5h-7.4v-1.4h5.9c0-1-.2-1.7-.6-2.3-.4-.5-1-.8-1.8-.8s-.9.1-1.4.4-.8.7-1.1,1.2c-.3.6-.4,1.3-.4,2.3s.1,1.6.4,2.2.7,1,1.2,1.3c.5.3,1.1.5,1.7.5s.9,0,1.4-.2c.4-.1.8-.3,1.2-.6l.6,1.1c-.4.3-.9.6-1.5.8s-1.2.3-1.9.3h0Z"/>
    <path class="st2" d="M165.5,25.3v-10.2h1.4v1.5h.2c.4-.5.9-.9,1.5-1.2.5-.3,1.1-.5,1.7-.5s1.4.2,1.8.5c.4.4.8.8,1,1.4.5-.6,1.1-1.1,1.6-1.4.6-.4,1.1-.5,1.8-.5,1.1,0,1.9.3,2.4,1,.5.7.8,1.7.8,3v6.5h-1.7v-6.2c0-1-.1-1.7-.5-2.1s-.8-.6-1.4-.6-.8.1-1.2.4c-.4.3-.9.7-1.3,1.2v7.4h-1.7v-6.2c0-1-.1-1.7-.5-2.1s-.8-.6-1.4-.6-1.6.5-2.6,1.6v7.4h-1.7,0Z"/>
    <path class="st2" d="M190.6,25.6c-1.3,0-2.3-.5-3.1-1.4s-1.1-2.2-1.1-3.9.2-2.1.6-2.9c.4-.8,1-1.4,1.6-1.9.7-.4,1.4-.6,2.2-.6s1.1.1,1.6.3c.4.2.9.5,1.3.9v-1.8c0,0,0-3.9,0-3.9h1.8v15h-1.4v-1.2h-.2c-.4.4-.9.7-1.4,1s-1.1.4-1.7.4h0ZM191,24.1c.5,0,.9-.1,1.4-.4s.8-.6,1.3-1v-5.3c-.4-.4-.8-.7-1.2-.8s-.8-.2-1.2-.2-1,.2-1.5.5-.8.8-1.1,1.4-.4,1.3-.4,2c0,1.2.2,2.2.7,2.9.5.7,1.2,1,2.1,1h0Z"/>
    <path class="st2" d="M202.9,25.6c-.9,0-1.7-.2-2.5-.6s-1.3-1-1.8-1.8c-.4-.8-.6-1.8-.6-2.9s.2-2.1.7-2.9c.4-.8,1-1.4,1.7-1.9s1.4-.6,2.2-.6,1.6.2,2.2.6c.6.4,1.1,1,1.4,1.7.3.7.5,1.6.5,2.5v.5c0,.2,0,.3,0,.5h-7.4v-1.4h5.9c0-1-.2-1.7-.6-2.3-.4-.5-1-.8-1.8-.8s-.9.1-1.4.4-.8.7-1.1,1.2c-.3.6-.4,1.3-.4,2.3s.1,1.6.4,2.2.7,1,1.2,1.3c.5.3,1.1.5,1.7.5s.9,0,1.4-.2c.4-.1.8-.3,1.2-.6l.6,1.1c-.4.3-.9.6-1.5.8s-1.2.3-1.9.3h0Z"/>
    <path class="st2" d="M213.4,25.3v-10.2h1.4v1.5h.2c.4-.5.9-.9,1.5-1.2.5-.3,1.1-.5,1.7-.5s1.4.2,1.8.5c.4.4.8.8,1,1.4.5-.6,1.1-1.1,1.6-1.4.6-.4,1.1-.5,1.8-.5,1.1,0,1.9.3,2.4,1,.5.7.8,1.7.8,3v6.5h-1.7v-6.2c0-1-.1-1.7-.5-2.1s-.8-.6-1.4-.6-.8.1-1.2.4c-.4.3-.9.7-1.3,1.2v7.4h-1.7v-6.2c0-1-.1-1.7-.5-2.1s-.8-.6-1.4-.6-1.6.5-2.6,1.6v7.4h-1.7,0Z"/>
    <path class="st2" d="M233.2,25.6c-.6,0-1.1-.1-1.5-.4-.5-.2-.8-.6-1.1-1s-.4-1-.4-1.6c0-1.1.5-2,1.5-2.6s2.6-1,4.8-1.2c0-.4,0-.8-.2-1.2s-.3-.7-.6-1c-.3-.2-.7-.4-1.3-.4s-1.1.1-1.7.3-1,.5-1.4.7l-.7-1.2c.3-.2.7-.4,1.1-.6s.9-.4,1.4-.5c.5-.1,1-.2,1.6-.2.8,0,1.5.2,2,.5.5.3.9.8,1.2,1.5s.4,1.4.4,2.2v6.3h-1.4v-1.2h-.2c-.5.4-1,.8-1.6,1-.6.3-1.2.4-1.8.4h0ZM233.7,24.1c.5,0,1-.1,1.4-.3.4-.2.9-.5,1.4-1v-2.8c-1.1.1-2.1.3-2.7.5-.7.2-1.1.5-1.4.8-.3.3-.4.7-.4,1.2s.2,1,.5,1.2.8.4,1.3.4h0Z"/>
    <path class="st2" d="M244.4,25.5c-1.1,0-1.8-.3-2.3-1-.4-.6-.6-1.5-.6-2.5v-5.6h-1.5v-1.3h1.6c0-.1.2-3.4.2-3.4h1.4v3.3h2.8v1.4h-2.8v5.6c0,.6.1,1.1.4,1.5.2.4.6.5,1.2.5s.4,0,.6,0,.4-.1.6-.2l.4,1.2c-.3.1-.6.2-.9.3-.3,0-.7.1-1,.1h0Z"/>
    <path class="st2" d="M248.3,25.3v-10.2h1.4v1.8h.2c.3-.6.8-1.2,1.3-1.5s1.1-.6,1.6-.6.4,0,.6,0,.3,0,.5.2l-.4,1.5c-.1,0-.3,0-.4,0-.1,0-.3,0-.5,0-.4,0-.9.2-1.4.5s-.9,1-1.2,1.8v6.6h-1.7,0Z"/>
    <path class="st2" d="M254.8,13.3l2.7-3.5h1.9v.2c.1,0-3.2,3.3-3.2,3.3h-1.4,0ZM255.6,25.3v-10.2h1.7v10.2h-1.7Z"/>
    <path class="st2" d="M264.8,25.6c-.9,0-1.7-.2-2.5-.6-.7-.4-1.3-1-1.7-1.8s-.6-1.8-.6-2.9.2-2.1.7-2.9c.5-.8,1.1-1.4,1.8-1.8s1.6-.6,2.4-.6,1.2.1,1.7.3.9.5,1.2.9l-.9,1.1c-.2-.2-.5-.5-.9-.6-.3-.1-.7-.2-1.2-.2s-1.1.2-1.6.5-.9.8-1.1,1.4c-.3.6-.4,1.3-.4,2.1s.1,1.5.4,2,.6,1,1.1,1.4c.5.3,1,.5,1.7.5s.9,0,1.3-.3c.4-.2.8-.4,1-.7l.8,1c-.4.4-.9.7-1.5,1-.5.2-1.1.4-1.8.4h0Z"/>
    <path class="st2" d="M273.3,25.6c-1.1,0-1.9-.3-2.4-1s-.8-1.7-.8-3v-6.5h1.7v6.2c0,1,.1,1.6.5,2.1.3.4.8.6,1.5.6s1-.1,1.4-.4.9-.7,1.4-1.3v-7.3h1.7v10.2h-1.4v-1.6h-.2c-.5.6-1,1-1.5,1.4s-1.2.5-1.9.5h0Z"/>
    <path class="st2" d="M283.6,25.5c-.4,0-.8,0-1-.3-.3-.2-.5-.4-.6-.8-.1-.3-.2-.8-.2-1.2v-12.9h1.7v13c0,.3,0,.5.1.6s.2.2.4.2.1,0,.2,0c0,0,.1,0,.2,0l.2,1.3c-.1,0-.3,0-.4.1s-.4,0-.6,0h0Z"/>
    <path class="st2" d="M289.5,25.6c-.6,0-1.1-.1-1.5-.4s-.8-.6-1.1-1-.4-1-.4-1.6c0-1.1.5-2,1.5-2.6s2.6-1,4.8-1.2c0-.4,0-.8-.2-1.2-.1-.4-.3-.7-.6-1-.3-.2-.7-.4-1.3-.4s-1.1.1-1.7.3-1,.5-1.4.7l-.7-1.2c.3-.2.7-.4,1.1-.6s.9-.4,1.4-.5,1-.2,1.6-.2c.8,0,1.5.2,2,.5.5.3.9.8,1.2,1.5s.4,1.4.4,2.2v6.3h-1.4v-1.2h-.2c-.5.4-1,.8-1.6,1-.6.3-1.2.4-1.8.4h0ZM290,24.1c.5,0,1-.1,1.4-.3.4-.2.9-.5,1.4-1v-2.8c-1.1.1-2.1.3-2.7.5-.7.2-1.1.5-1.4.8s-.4.7-.4,1.2.2,1,.5,1.2.8.4,1.3.4h0Z"/>
    <path class="st2" d="M300.4,25.6c-.7,0-1.5-.1-2.1-.4s-1.2-.6-1.7-1.1l.8-1c.5.4.9.6,1.4.8.5.2,1,.3,1.7.3s1.2-.2,1.5-.5.5-.7.5-1.1-.1-.6-.4-.9c-.2-.2-.5-.4-.9-.6s-.7-.3-1.1-.5c-.5-.2-1-.4-1.5-.6-.5-.2-.8-.5-1.1-.9-.3-.4-.4-.8-.4-1.4,0-.8.3-1.5.9-2.1s1.5-.8,2.6-.8,1.2.1,1.8.3,1,.5,1.4.8l-.8,1c-.4-.2-.7-.5-1.1-.6s-.8-.2-1.3-.2-1.1.1-1.4.4c-.3.3-.5.6-.5,1s0,.6.3.8c.2.2.4.4.8.5.3.1.7.3,1.1.4.5.2,1,.4,1.5.7.5.2.9.6,1.2,1,.3.4.5.9.5,1.5s-.1,1.1-.4,1.5-.7.8-1.3,1.1c-.5.3-1.2.4-2,.4h0Z"/>
    <path class="st2" d="M22,50.8c-1.3,0-2.3-.5-3.1-1.4s-1.1-2.2-1.1-3.9.2-2.1.6-2.9c.4-.8,1-1.4,1.6-1.9s1.4-.7,2.2-.7,1.1,0,1.5.3c.4.2.9.5,1.3.9v-1.8c0,0,0-3.9,0-3.9h1.8v15h-1.4v-1.2h-.2c-.4.4-.9.7-1.4,1s-1.1.4-1.7.4h0ZM22.4,49.4c.5,0,.9-.1,1.4-.4s.8-.6,1.3-1v-5.3c-.4-.4-.8-.7-1.2-.8-.4-.2-.8-.2-1.2-.2s-1,.2-1.5.5-.8.8-1.1,1.4-.4,1.3-.4,2c0,1.2.2,2.2.7,2.9s1.2,1,2.1,1h0Z"/>
    <path class="st2" d="M34.4,50.8c-.9,0-1.7-.2-2.5-.6-.8-.4-1.3-1-1.8-1.8-.4-.8-.6-1.8-.6-2.9s.2-2.1.7-2.9,1-1.4,1.7-1.8,1.4-.7,2.2-.7,1.6.2,2.2.6c.6.4,1.1,1,1.4,1.7s.5,1.6.5,2.5v.5c0,.2,0,.3,0,.5h-7.4v-1.4h5.9c0-1-.2-1.7-.6-2.3-.4-.5-1-.8-1.8-.8s-.9.1-1.4.4-.8.7-1.1,1.2c-.3.6-.4,1.3-.4,2.3s.1,1.6.5,2.2c.3.6.7,1,1.2,1.3.5.3,1.1.5,1.7.5s1,0,1.4-.2.8-.3,1.2-.6l.6,1.1c-.5.3-1,.6-1.5.8s-1.2.3-1.9.3h0Z"/>
    <path class="st2" d="M48.9,50.8c-.9,0-1.7-.2-2.5-.6-.7-.4-1.3-1-1.7-1.8s-.6-1.8-.6-2.9.2-2.1.7-2.9c.5-.8,1.1-1.4,1.8-1.8.8-.4,1.6-.6,2.4-.6s1.2.1,1.7.3.9.5,1.2.9l-.9,1.1c-.2-.2-.5-.5-.9-.6-.3-.2-.7-.2-1.2-.2s-1.2.2-1.6.5-.9.8-1.2,1.4c-.3.6-.4,1.3-.4,2.1s.1,1.5.4,2,.6,1,1.1,1.4,1,.5,1.7.5.9,0,1.3-.3c.4-.2.8-.4,1-.7l.8,1c-.4.4-.9.7-1.5,1-.5.2-1.2.4-1.8.4h0Z"/>
    <path class="st2" d="M54.5,50.6v-10.2h1.4l.2,1.8h0c.3-.6.8-1.2,1.3-1.5s1-.6,1.6-.6.4,0,.6,0c.2,0,.3,0,.5.2l-.4,1.5c-.2,0-.3,0-.4,0s-.3,0-.5,0c-.4,0-.9.2-1.4.5s-.9,1-1.2,1.8v6.6h-1.7,0Z"/>
    <path class="st2" d="M62.6,38.2c-.3,0-.6,0-.8-.3-.2-.2-.3-.5-.3-.8s.1-.6.3-.8.5-.3.8-.3.6,0,.8.3c.2.2.3.5.3.8s-.1.6-.3.8-.5.3-.8.3ZM61.8,50.6v-10.2h1.7v10.2h-1.7Z"/>
    <path class="st2" d="M69.3,50.8c-.6,0-1.1-.1-1.5-.3s-.8-.6-1.1-1-.4-1-.4-1.6c0-1.2.5-2,1.5-2.6s2.6-1,4.8-1.2c0-.4,0-.8-.2-1.2-.1-.4-.3-.7-.6-1s-.7-.4-1.3-.4-1.1.1-1.7.3c-.5.2-1,.5-1.4.7l-.7-1.2c.3-.2.7-.4,1.1-.6s.9-.4,1.4-.5c.5-.1,1-.2,1.6-.2.8,0,1.5.2,2,.5.5.3.9.8,1.2,1.5.2.6.4,1.4.4,2.2v6.3h-1.4l-.2-1.2h0c-.5.4-1,.8-1.6,1-.6.3-1.2.4-1.8.4h0ZM69.8,49.4c.5,0,1-.1,1.4-.3.4-.2.9-.5,1.4-1v-2.8c-1.2.1-2.1.3-2.7.5-.7.2-1.2.5-1.4.8s-.4.7-.4,1.2.2,1,.5,1.2.8.4,1.3.4h0Z"/>
    <path class="st2" d="M77.5,50.6v-10.2h1.4l.2,1.5h0c.5-.5,1-.9,1.6-1.2.6-.3,1.2-.5,1.9-.5,1.1,0,1.9.3,2.4,1s.8,1.7.8,3v6.5h-1.7v-6.2c0-1-.2-1.7-.4-2.1-.3-.4-.8-.6-1.5-.6s-1,.1-1.4.4-.9.7-1.4,1.2v7.4h-1.7Z"/>
    <path class="st2" d="M93.1,50.8c-.9,0-1.7-.2-2.5-.6-.7-.4-1.3-1-1.7-1.8s-.6-1.8-.6-2.9.2-2.1.7-2.9c.5-.8,1.1-1.4,1.8-1.8.8-.4,1.6-.6,2.4-.6s1.2.1,1.7.3.9.5,1.2.9l-.9,1.1c-.2-.2-.6-.5-.9-.6-.3-.2-.7-.2-1.2-.2s-1.2.2-1.6.5c-.5.3-.9.8-1.2,1.4s-.4,1.3-.4,2.1.1,1.5.4,2c.3.6.6,1,1.1,1.4s1,.5,1.7.5.9,0,1.3-.3.8-.4,1.1-.7l.8,1c-.4.4-.9.7-1.5,1-.6.2-1.2.4-1.8.4h0ZM91.1,55.3l-.2-.8c.9,0,1.5-.2,1.8-.3s.5-.4.5-.7-.1-.5-.4-.7-.7-.3-1.3-.4l.9-1.9h1.1l-.6,1.4c.5.1.9.3,1.1.5s.4.5.4,1-.3,1.1-.9,1.4c-.6.3-1.5.5-2.6.5h0Z"/>
    <path class="st2" d="M100.8,50.8c-.6,0-1.1-.1-1.5-.3s-.8-.6-1.1-1-.4-1-.4-1.6c0-1.2.5-2,1.5-2.6s2.6-1,4.8-1.2c0-.4,0-.8-.2-1.2-.1-.4-.3-.7-.6-1s-.7-.4-1.3-.4-1.1.1-1.7.3c-.5.2-1,.5-1.4.7l-.7-1.2c.3-.2.7-.4,1.1-.6s.9-.4,1.4-.5c.5-.1,1-.2,1.6-.2.8,0,1.5.2,2,.5.5.3.9.8,1.2,1.5.2.6.4,1.4.4,2.2v6.3h-1.4l-.2-1.2h0c-.5.4-1,.8-1.6,1-.6.3-1.2.4-1.8.4h0ZM101.3,49.4c.5,0,1-.1,1.4-.3.4-.2.9-.5,1.4-1v-2.8c-1.2.1-2.1.3-2.7.5-.7.2-1.2.5-1.4.8s-.4.7-.4,1.2.2,1,.5,1.2.8.4,1.3.4h0Z"/>
    <path class="st2" d="M111.7,50.8c-.7,0-1.4-.1-2.1-.4s-1.2-.6-1.7-1.1l.8-1c.4.4.9.6,1.4.8s1,.3,1.7.3,1.2-.2,1.5-.5.5-.7.5-1.1-.1-.6-.3-.9c-.2-.2-.5-.4-.9-.6-.3-.2-.7-.3-1.1-.5-.5-.2-1-.4-1.4-.6-.5-.2-.8-.5-1.1-.9-.3-.4-.4-.8-.4-1.4,0-.8.3-1.5.9-2.1s1.5-.8,2.6-.8,1.2.1,1.8.3c.6.2,1,.5,1.4.8l-.8,1c-.4-.2-.7-.5-1.1-.6-.4-.1-.8-.2-1.3-.2s-1.1.2-1.4.4c-.3.3-.4.6-.4,1s0,.6.3.8c.2.2.4.4.8.5.3.2.7.3,1.1.4.5.2,1,.4,1.5.7.5.2.9.6,1.2,1s.4.9.4,1.5-.1,1.1-.4,1.5-.7.8-1.3,1.1-1.2.4-2.1.4h0Z"/>
    <path class="st2" d="M126.2,50.8c-.9,0-1.7-.2-2.5-.6s-1.3-1-1.8-1.8c-.4-.8-.7-1.8-.7-2.9s.2-2.1.7-2.9,1-1.4,1.7-1.8,1.4-.7,2.2-.7,1.6.2,2.2.6c.6.4,1.1,1,1.4,1.7s.5,1.6.5,2.5v.5c0,.2,0,.3,0,.5h-7.4v-1.4h5.9c0-1-.2-1.7-.6-2.3-.4-.5-1-.8-1.8-.8s-.9.1-1.4.4c-.4.3-.8.7-1.1,1.2-.3.6-.4,1.3-.4,2.3s.2,1.6.4,2.2c.3.6.7,1,1.2,1.3.5.3,1.1.5,1.7.5s.9,0,1.4-.2.8-.3,1.2-.6l.6,1.1c-.4.3-.9.6-1.5.8s-1.2.3-1.9.3h0Z"/>
    <path class="st2" d="M132.5,50.6v-10.2h1.4v1.5h.2c.4-.5.9-.9,1.5-1.2.5-.3,1.1-.5,1.7-.5s1.4.2,1.8.5.8.8,1,1.4c.5-.6,1.1-1.1,1.6-1.4.6-.4,1.1-.5,1.8-.5,1.1,0,1.9.3,2.4,1s.8,1.7.8,3v6.5h-1.7v-6.2c0-1-.1-1.7-.5-2.1s-.8-.6-1.4-.6-.8.1-1.2.4c-.4.3-.9.7-1.3,1.2v7.4h-1.7v-6.2c0-1-.1-1.7-.5-2.1s-.8-.6-1.4-.6-1.6.5-2.6,1.6v7.4h-1.7,0Z"/>
    <path class="st2" d="M158.2,50.8c-.9,0-1.7-.2-2.5-.6-.7-.4-1.3-1-1.7-1.8s-.6-1.8-.6-2.9.2-2.1.7-2.9c.5-.8,1.1-1.4,1.8-1.8.8-.4,1.6-.6,2.4-.6s1.2.1,1.7.3.9.5,1.2.9l-.9,1.1c-.2-.2-.6-.5-.9-.6-.3-.2-.7-.2-1.2-.2s-1.1.2-1.6.5c-.5.3-.9.8-1.1,1.4s-.4,1.3-.4,2.1.1,1.5.4,2c.3.6.6,1,1.1,1.4s1,.5,1.7.5.9,0,1.3-.3.8-.4,1.1-.7l.8,1c-.4.4-.9.7-1.5,1-.6.2-1.1.4-1.8.4h0Z"/>
    <path class="st2" d="M163.7,50.6v-10.2h1.4v1.8h.2c.3-.6.8-1.2,1.3-1.5s1.1-.6,1.6-.6.4,0,.6,0c.2,0,.3,0,.5.2l-.4,1.5c-.1,0-.3,0-.4,0-.1,0-.3,0-.5,0-.4,0-.9.2-1.4.5s-.9,1-1.2,1.8v6.6h-1.7,0Z"/>
    <path class="st2" d="M175,50.8c-.9,0-1.7-.2-2.5-.6s-1.3-1-1.8-1.8c-.4-.8-.6-1.8-.6-2.9s.2-2.1.7-2.9,1-1.4,1.7-1.8,1.4-.7,2.2-.7,1.6.2,2.2.6c.6.4,1.1,1,1.4,1.7s.5,1.6.5,2.5v.5c0,.2,0,.3,0,.5h-7.4v-1.4h5.9c0-1-.2-1.7-.6-2.3-.4-.5-1-.8-1.8-.8s-.9.1-1.4.4-.8.7-1.1,1.2c-.3.6-.4,1.3-.4,2.3s.1,1.6.4,2.2.7,1,1.2,1.3c.5.3,1.1.5,1.7.5s.9,0,1.4-.2c.4-.1.8-.3,1.2-.6l.6,1.1c-.4.3-.9.6-1.5.8s-1.2.3-1.9.3h0Z"/>
    <path class="st2" d="M185.3,50.8c-.9,0-1.7-.2-2.5-.6-.7-.4-1.3-1-1.7-1.8s-.6-1.8-.6-2.9.2-2.1.7-2.9c.5-.8,1.1-1.4,1.8-1.8.8-.4,1.6-.6,2.4-.6s1.2.1,1.7.3.9.5,1.2.9l-.9,1.1c-.2-.2-.6-.5-.9-.6-.3-.2-.7-.2-1.2-.2s-1.1.2-1.6.5c-.5.3-.9.8-1.1,1.4s-.4,1.3-.4,2.1.1,1.5.4,2c.3.6.6,1,1.1,1.4s1,.5,1.7.5.9,0,1.3-.3.8-.4,1.1-.7l.8,1c-.4.4-.9.7-1.5,1-.6.2-1.1.4-1.8.4h0Z"/>
    <path class="st2" d="M190.8,50.6v-15h1.7v6.2c.4-.5.9-.9,1.5-1.2.5-.3,1.2-.5,1.9-.5,1.1,0,1.9.3,2.4,1s.8,1.7.8,3v6.5h-1.7v-6.2c0-1-.1-1.7-.4-2.1-.3-.4-.8-.6-1.5-.6s-1,.1-1.4.4c-.4.3-.9.7-1.4,1.2v7.4h-1.8Z"/>
    <path class="st2" d="M206.4,50.8c-.9,0-1.7-.2-2.5-.6s-1.3-1-1.8-1.8c-.4-.8-.6-1.8-.6-2.9s.2-2.1.7-2.9,1-1.4,1.7-1.8,1.4-.7,2.2-.7,1.6.2,2.2.6c.6.4,1.1,1,1.4,1.7s.5,1.6.5,2.5v.5c0,.2,0,.3,0,.5h-7.4v-1.4h5.9c0-1-.2-1.7-.6-2.3-.4-.5-1-.8-1.8-.8s-.9.1-1.4.4-.8.7-1.1,1.2c-.3.6-.4,1.3-.4,2.3s.1,1.6.4,2.2.7,1,1.2,1.3c.5.3,1.1.5,1.7.5s.9,0,1.4-.2c.4-.1.8-.3,1.2-.6l.6,1.1c-.4.3-.9.6-1.5.8s-1.2.3-1.9.3h0Z"/>
    <path class="st2" d="M215.4,50.8c-.7,0-1.4-.1-2.1-.4s-1.2-.6-1.7-1.1l.8-1c.4.4.9.6,1.4.8s1,.3,1.7.3,1.2-.2,1.5-.5.5-.7.5-1.1-.1-.6-.4-.9c-.2-.2-.5-.4-.9-.6s-.7-.3-1.1-.5c-.5-.2-1-.4-1.4-.6-.5-.2-.8-.5-1.1-.9-.3-.4-.4-.8-.4-1.4,0-.8.3-1.5.9-2.1s1.5-.8,2.6-.8,1.2.1,1.8.3,1,.5,1.4.8l-.8,1c-.4-.2-.7-.5-1.1-.6-.4-.1-.8-.2-1.3-.2s-1.1.2-1.4.4c-.3.3-.4.6-.4,1s0,.6.3.8c.2.2.4.4.8.5.3.2.7.3,1.1.4.5.2,1,.4,1.5.7.5.2.9.6,1.2,1,.3.4.4.9.4,1.5s-.1,1.1-.4,1.5-.7.8-1.3,1.1c-.6.3-1.2.4-2.1.4h0Z"/>
    <path class="st2" d="M225.7,50.6v-10.2h1.4v1.5h.2c.5-.5,1-.9,1.6-1.2.6-.3,1.2-.5,1.9-.5,1.1,0,1.9.3,2.4,1s.8,1.7.8,3v6.5h-1.7v-6.2c0-1-.1-1.7-.4-2.1-.3-.4-.8-.6-1.5-.6s-1,.1-1.4.4c-.4.3-.9.7-1.4,1.2v7.4h-1.7Z"/>
    <path class="st2" d="M241.2,50.8c-.8,0-1.6-.2-2.3-.6-.7-.4-1.3-1-1.8-1.8-.4-.8-.7-1.8-.7-2.9s.2-2.1.7-2.9,1-1.4,1.8-1.8c.7-.4,1.5-.6,2.3-.6s1.6.2,2.3.6c.7.4,1.3,1,1.7,1.8.4.8.7,1.8.7,2.9s-.2,2.1-.7,2.9-1,1.4-1.7,1.8c-.7.4-1.5.6-2.3.6ZM241.2,49.4c.6,0,1.1-.2,1.6-.5s.8-.8,1-1.4.4-1.3.4-2-.1-1.5-.4-2.1c-.2-.6-.6-1.1-1-1.4-.4-.3-1-.5-1.6-.5s-1.1.2-1.6.5c-.4.3-.8.8-1,1.4s-.4,1.3-.4,2.1.1,1.5.4,2,.6,1,1,1.4,1,.5,1.6.5Z"/>
    <path class="st2" d="M255.2,50.8c-.6,0-1.1-.1-1.5-.3-.5-.2-.8-.6-1.1-1s-.4-1-.4-1.6c0-1.2.5-2,1.5-2.6s2.6-1,4.8-1.2c0-.4,0-.8-.2-1.2-.1-.4-.3-.7-.6-1-.3-.2-.7-.4-1.3-.4s-1.1.1-1.7.3-1,.5-1.4.7l-.7-1.2c.3-.2.7-.4,1.1-.6s.9-.4,1.4-.5c.5-.1,1-.2,1.6-.2.8,0,1.5.2,2,.5.5.3.9.8,1.2,1.5.2.6.4,1.4.4,2.2v6.3h-1.4v-1.2h-.2c-.5.4-1,.8-1.6,1s-1.2.4-1.8.4h0ZM255.7,49.4c.5,0,1-.1,1.4-.3.4-.2.9-.5,1.4-1v-2.8c-1.1.1-2.1.3-2.7.5-.7.2-1.1.5-1.4.8-.3.3-.4.7-.4,1.2s.2,1,.5,1.2.8.4,1.3.4h0Z"/>
    <path class="st2" d="M263.5,50.6v-10.2h1.4v1.5h.2c.5-.5,1-.9,1.6-1.2.5-.3,1.2-.5,1.9-.5,1.1,0,1.9.3,2.4,1s.8,1.7.8,3v6.5h-1.7v-6.2c0-1-.1-1.7-.5-2.1-.3-.4-.8-.6-1.5-.6s-1,.1-1.4.4-.9.7-1.4,1.2v7.4h-1.7Z"/>
    <path class="st2" d="M278.9,50.8c-.8,0-1.6-.2-2.3-.6-.7-.4-1.3-1-1.8-1.8-.4-.8-.7-1.8-.7-2.9s.2-2.1.7-2.9,1-1.4,1.8-1.8c.7-.4,1.5-.6,2.3-.6s1.6.2,2.3.6c.7.4,1.3,1,1.7,1.8.4.8.7,1.8.7,2.9s-.2,2.1-.7,2.9-1,1.4-1.7,1.8c-.7.4-1.5.6-2.3.6ZM278.9,49.4c.6,0,1.1-.2,1.6-.5s.8-.8,1-1.4.4-1.3.4-2-.1-1.5-.4-2.1c-.2-.6-.6-1.1-1-1.4-.5-.3-1-.5-1.6-.5s-1.1.2-1.5.5c-.4.3-.8.8-1,1.4s-.4,1.3-.4,2.1.1,1.5.4,2,.6,1,1,1.4,1,.5,1.5.5Z"/>
    <path class="st2" d="M294.1,50.8c-1.3,0-2.3-.5-3.1-1.4-.8-.9-1.1-2.2-1.1-3.9s.2-2.1.6-2.9c.4-.8,1-1.4,1.6-1.9s1.4-.7,2.2-.7,1.1,0,1.5.3.9.5,1.3.9v-1.8c0,0,0-3.9,0-3.9h1.8v15h-1.4v-1.2h-.2c-.4.4-.9.7-1.4,1s-1.1.4-1.7.4h0ZM294.5,49.4c.5,0,.9-.1,1.4-.4s.8-.6,1.3-1v-5.3c-.4-.4-.8-.7-1.2-.8-.4-.2-.8-.2-1.2-.2s-1,.2-1.5.5-.8.8-1.1,1.4-.4,1.3-.4,2c0,1.2.2,2.2.7,2.9s1.2,1,2.1,1h0Z"/>
    <path class="st2" d="M306.4,50.8c-.9,0-1.7-.2-2.5-.6s-1.3-1-1.8-1.8c-.4-.8-.6-1.8-.6-2.9s.2-2.1.7-2.9,1-1.4,1.7-1.8,1.4-.7,2.2-.7,1.6.2,2.2.6c.6.4,1.1,1,1.4,1.7s.5,1.6.5,2.5v.5c0,.2,0,.3,0,.5h-7.4v-1.4h5.9c0-1-.2-1.7-.6-2.3-.4-.5-1-.8-1.8-.8s-.9.1-1.4.4c-.5.3-.8.7-1.1,1.2-.3.6-.4,1.3-.4,2.3s.1,1.6.5,2.2c.3.6.7,1,1.2,1.3.5.3,1.1.5,1.7.5s1,0,1.4-.2.8-.3,1.2-.6l.6,1.1c-.5.3-1,.6-1.5.8s-1.2.3-1.9.3h0Z"/>
    <path class="st2" d="M316,50.6v-1c1.3-1.3,2.5-2.5,3.4-3.5,1-1,1.7-1.9,2.2-2.8s.7-1.6.7-2.3-.2-1.4-.6-1.9-1.1-.7-1.9-.7-1.1.2-1.6.5c-.5.3-.9.7-1.3,1.2l-1-1c.6-.6,1.2-1.1,1.8-1.5.6-.4,1.4-.6,2.2-.6s1.5.2,2.1.5c.6.3,1.1.8,1.4,1.4s.5,1.3.5,2.1-.2,1.7-.7,2.6c-.5.9-1.1,1.8-2,2.7s-1.8,2-2.9,3.1c.4,0,.7,0,1.1,0,.4,0,.8,0,1.1,0h4v1.5h-8.7Z"/>
    <path class="st2" d="M330.9,50.8c-1.4,0-2.4-.6-3.2-1.8-.8-1.2-1.1-2.9-1.1-5.2s.4-4,1.1-5.2c.8-1.2,1.8-1.8,3.2-1.8s2.4.6,3.1,1.8c.8,1.2,1.1,2.9,1.1,5.1s-.4,4-1.1,5.2c-.8,1.2-1.8,1.8-3.1,1.8ZM330.9,49.4c.5,0,1-.2,1.4-.6s.7-1,.9-1.8.3-1.9.3-3.2-.1-2.4-.3-3.2-.5-1.4-.9-1.8c-.4-.4-.9-.6-1.4-.6s-1,.2-1.4.6c-.4.4-.7,1-.9,1.8s-.3,1.9-.3,3.2.1,2.4.3,3.2.5,1.4.9,1.8.9.6,1.4.6Z"/>
    <path class="st2" d="M336.9,50.6v-1c1.3-1.3,2.5-2.5,3.4-3.5,1-1,1.7-1.9,2.2-2.8s.7-1.6.7-2.3-.2-1.4-.6-1.9-1.1-.7-1.9-.7-1.1.2-1.6.5c-.5.3-.9.7-1.3,1.2l-1-1c.6-.6,1.2-1.1,1.8-1.5.6-.4,1.4-.6,2.2-.6s1.5.2,2.1.5c.6.3,1.1.8,1.4,1.4s.5,1.3.5,2.1-.2,1.7-.7,2.6c-.5.9-1.1,1.8-2,2.7s-1.8,2-2.9,3.1c.4,0,.7,0,1.1,0,.4,0,.8,0,1.1,0h4v1.5h-8.7Z"/>
    <path class="st2" d="M352.9,50.6v-9c0-.3,0-.8,0-1.3s0-.9,0-1.3h0c-.2.3-.3.6-.5.9-.2.3-.4.6-.6,1l-3.1,4.6h7.7v1.4h-9.5v-1.1l5.7-8.6h1.9v13.4h-1.6,0Z"/>
  </g>
  <g>
    <g>
      <circle class="st4" cx="316" cy="207.2" r="11.5" transform="translate(42.1 467.6) rotate(-76.8)"/>
      <path class="st4" d="M340.6,240.8l-10.7-16.2c-1.5-2.2-4-3.6-6.7-3.6h-14.4c-2.7,0-5.2,1.4-6.7,3.6l-10.7,16.2c-1.2,1.8-.7,4.3,1.1,5.5h0c1.8,1.2,4.3.7,5.5-1.1l5.6-8.5c.3-.4.9-.2.9.3v46.1c0,2.8,2,5.2,4.8,5.5,3.2.3,5.8-2.2,5.8-5.3v-20.6c0-.5.4-.9.9-.9s.9.4.9.9v20.6c0,2.9,2.4,5.3,5.3,5.3h0c2.9,0,5.3-2.4,5.3-5.3v-46.3c0-.5.6-.7.9-.3l5.6,8.5c1.2,1.8,3.6,2.3,5.5,1.1h0c1.8-1.2,2.3-3.6,1.1-5.5h0Z"/>
    </g>
    <g>
      <circle class="st4" cx="316" cy="207.2" r="11.5" transform="translate(42.1 467.6) rotate(-76.8)"/>
      <path class="st4" d="M340.6,240.8l-10.7-16.2c-1.5-2.2-4-3.6-6.7-3.6h-14.4c-2.7,0-5.2,1.4-6.7,3.6l-10.7,16.2c-1.2,1.8-.7,4.3,1.1,5.5h0c1.8,1.2,4.3.7,5.5-1.1l5.6-8.5c.3-.4.9-.2.9.3v46.1c0,2.8,2,5.2,4.8,5.5,3.2.3,5.8-2.2,5.8-5.3v-20.6c0-.5.4-.9.9-.9s.9.4.9.9v20.6c0,2.9,2.4,5.3,5.3,5.3h0c2.9,0,5.3-2.4,5.3-5.3v-46.3c0-.5.6-.7.9-.3l5.6,8.5c1.2,1.8,3.6,2.3,5.5,1.1h0c1.8-1.2,2.3-3.6,1.1-5.5h0Z"/>
    </g>
  </g>
  <g>
    <g>
      <circle class="st4" cx="186.3" cy="207.2" r="11.5"/>
      <path class="st4" d="M210.9,240.8l-10.7-16.2c-1.5-2.2-4-3.6-6.7-3.6h-14.4c-2.7,0-5.2,1.4-6.7,3.6l-10.7,16.2c-1.2,1.8-.7,4.3,1.1,5.5h0c1.8,1.2,4.3.7,5.4-1.1l5.6-8.5c.3-.4.9-.2.9.3v46.1c0,2.8,2,5.2,4.8,5.5,3.2.3,5.8-2.2,5.8-5.3v-20.6c0-.5.4-.9.9-.9s.9.4.9.9v20.6c0,2.9,2.4,5.3,5.3,5.3h0c2.9,0,5.3-2.4,5.3-5.3v-46.3c0-.5.6-.7.9-.3l5.6,8.5c1.2,1.8,3.6,2.3,5.4,1.1h0c1.8-1.2,2.3-3.6,1.1-5.5h0Z"/>
    </g>
    <g>
      <circle class="st4" cx="186.3" cy="207.2" r="11.5"/>
      <path class="st4" d="M210.9,240.8l-10.7-16.2c-1.5-2.2-4-3.6-6.7-3.6h-14.4c-2.7,0-5.2,1.4-6.7,3.6l-10.7,16.2c-1.2,1.8-.7,4.3,1.1,5.5h0c1.8,1.2,4.3.7,5.4-1.1l5.6-8.5c.3-.4.9-.2.9.3v46.1c0,2.8,2,5.2,4.8,5.5,3.2.3,5.8-2.2,5.8-5.3v-20.6c0-.5.4-.9.9-.9s.9.4.9.9v20.6c0,2.9,2.4,5.3,5.3,5.3h0c2.9,0,5.3-2.4,5.3-5.3v-46.3c0-.5.6-.7.9-.3l5.6,8.5c1.2,1.8,3.6,2.3,5.4,1.1h0c1.8-1.2,2.3-3.6,1.1-5.5h0Z"/>
    </g>
  </g>
  <g>
    <g>
      <circle class="st4" cx="251.3" cy="207.2" r="11.5"/>
      <path class="st4" d="M275.9,240.8l-10.7-16.2c-1.5-2.2-4-3.6-6.7-3.6h-14.4c-2.7,0-5.2,1.4-6.7,3.6l-10.7,16.2c-1.2,1.8-.7,4.3,1.1,5.5h0c1.8,1.2,4.3.7,5.4-1.1l5.6-8.5c.3-.4.9-.2.9.3v46.1c0,2.8,2,5.2,4.8,5.5,3.2.3,5.8-2.2,5.8-5.3v-20.6c0-.5.4-.9.9-.9s.9.4.9.9v20.6c0,2.9,2.4,5.3,5.3,5.3h0c2.9,0,5.3-2.4,5.3-5.3v-46.3c0-.5.6-.7.9-.3l5.6,8.5c1.2,1.8,3.6,2.3,5.5,1.1h0c1.8-1.2,2.3-3.6,1.1-5.5h0Z"/>
    </g>
    <g>
      <circle class="st4" cx="251.3" cy="207.2" r="11.5"/>
      <path class="st4" d="M275.9,240.8l-10.7-16.2c-1.5-2.2-4-3.6-6.7-3.6h-14.4c-2.7,0-5.2,1.4-6.7,3.6l-10.7,16.2c-1.2,1.8-.7,4.3,1.1,5.5h0c1.8,1.2,4.3.7,5.4-1.1l5.6-8.5c.3-.4.9-.2.9.3v46.1c0,2.8,2,5.2,4.8,5.5,3.2.3,5.8-2.2,5.8-5.3v-20.6c0-.5.4-.9.9-.9s.9.4.9.9v20.6c0,2.9,2.4,5.3,5.3,5.3h0c2.9,0,5.3-2.4,5.3-5.3v-46.3c0-.5.6-.7.9-.3l5.6,8.5c1.2,1.8,3.6,2.3,5.5,1.1h0c1.8-1.2,2.3-3.6,1.1-5.5h0Z"/>
    </g>
  </g>
  <g>
    <g>
      <g>
        <path class="st2" d="M86.8,336.5c0-1.3.2-2.4.3-3.5s.4-2,.7-3,.7-1.8,1.2-2.7,1.1-1.8,1.8-2.7h-6.7v-1.5h8.7v1.1c-.8,1-1.5,2-2,2.9s-.9,1.9-1.2,2.8-.5,2-.7,3c-.1,1.1-.2,2.3-.3,3.6h-1.8Z"/>
        <path class="st2" d="M98.9,336.8c-1.3,0-2.4-.6-3.2-1.8-.8-1.2-1.2-2.9-1.2-5.2s.4-4,1.2-5.1c.8-1.2,1.8-1.8,3.2-1.8s2.4.6,3.2,1.8c.8,1.2,1.2,2.9,1.2,5.1s-.4,4-1.2,5.2c-.8,1.2-1.8,1.8-3.2,1.8h0ZM98.9,335.4c.5,0,1-.2,1.4-.6s.7-1,.9-1.8.3-1.9.3-3.2-.1-2.4-.3-3.2-.5-1.4-.9-1.8c-.4-.4-.8-.6-1.4-.6s-1,.2-1.4.6-.7,1-.9,1.8-.3,1.9-.3,3.2.1,2.4.3,3.2c.2.8.5,1.4.9,1.8s.9.6,1.4.6Z"/>
        <path class="st2" d="M105.5,340.1l-.4-1c.6-.3,1.1-.6,1.4-1.1.3-.5.5-1,.5-1.5l-.2-1.6.9,1.3c-.1.1-.3.2-.4.3-.2,0-.3,0-.5,0-.3,0-.6-.1-.9-.3-.2-.2-.4-.5-.4-.9s.1-.7.4-.9c.3-.2.6-.3.9-.3s.8.2,1.1.5c.2.4.4.9.4,1.5s-.2,1.7-.7,2.4-1.2,1.2-2,1.6h0Z"/>
        <path class="st2" d="M114.3,336.8c-.7,0-1.3,0-1.9-.3-.6-.2-1-.4-1.4-.7s-.8-.6-1.1-.9l.8-1.1c.4.4.9.8,1.4,1.1.5.3,1.2.5,2,.5s1-.1,1.5-.4.8-.6,1.1-1.1.4-1,.4-1.6c0-.9-.3-1.6-.8-2.2-.5-.5-1.2-.8-2.1-.8s-.8,0-1.2.2c-.3.1-.7.3-1.1.6l-.9-.6.4-6.5h6.7v1.5h-5.2l-.4,4c.3-.2.6-.3,1-.4.3-.1.7-.1,1.1-.1.8,0,1.5.1,2.1.4s1.1.8,1.5,1.4c.4.6.6,1.4.6,2.4s-.2,1.8-.6,2.5-1,1.2-1.7,1.5c-.7.4-1.4.5-2.2.5h0Z"/>
        <path class="st2" d="M123.7,331.2c-.6,0-1.2-.2-1.7-.5s-.8-.8-1.1-1.5c-.3-.6-.4-1.4-.4-2.4,0-1.4.3-2.5.9-3.2.6-.8,1.3-1.1,2.3-1.1s1.7.4,2.3,1.1c.6.8.9,1.8.9,3.2s-.1,1.7-.4,2.4-.6,1.1-1.1,1.5c-.5.3-1,.5-1.7.5ZM123.7,330.1c.6,0,1-.3,1.3-.8s.5-1.4.5-2.5-.2-1.9-.5-2.5-.8-.8-1.3-.8-1,.3-1.3.8-.5,1.4-.5,2.5.2,1.9.5,2.5.8.8,1.3.8ZM124.1,336.8l7.6-14.3h1.2l-7.6,14.3s-1.2,0-1.2,0ZM133.3,336.8c-.6,0-1.2-.2-1.6-.5-.5-.3-.8-.8-1.1-1.5s-.4-1.4-.4-2.4c0-1.4.3-2.5.9-3.2.6-.8,1.3-1.1,2.3-1.1s1.7.4,2.3,1.1c.6.8.9,1.8.9,3.2s-.1,1.7-.4,2.4c-.3.6-.6,1.1-1.1,1.5s-1,.5-1.6.5h0ZM133.3,335.7c.6,0,1-.3,1.3-.8s.5-1.4.5-2.5-.2-1.9-.5-2.5c-.3-.5-.8-.8-1.3-.8s-1,.3-1.3.8c-.3.5-.5,1.4-.5,2.5s.2,1.9.5,2.5.8.8,1.3.8Z"/>
        <path class="st2" d="M143.1,336.5v-10.2h1.4v1.5h.2c.5-.5,1-.9,1.6-1.2.6-.3,1.2-.5,1.9-.5,1.1,0,1.9.3,2.4,1s.8,1.7.8,3v6.5h-1.7v-6.2c0-1-.1-1.7-.4-2.1-.3-.4-.8-.6-1.5-.6s-1,.1-1.4.4c-.4.3-.9.7-1.4,1.2v7.4h-1.7Z"/>
        <path class="st2" d="M156.9,336.8c-.6,0-1.1-.1-1.5-.4-.5-.2-.8-.6-1.1-1s-.4-1-.4-1.6c0-1.1.5-2,1.5-2.6s2.6-1,4.8-1.2c0-.4,0-.8-.2-1.2s-.3-.7-.6-1c-.3-.2-.7-.4-1.3-.4s-1.1.1-1.7.3-1,.5-1.4.7l-.7-1.2c.3-.2.7-.4,1.1-.6s.9-.4,1.4-.5c.5-.1,1-.2,1.6-.2.8,0,1.5.2,2,.5.5.3.9.8,1.2,1.5s.4,1.4.4,2.2v6.3h-1.4v-1.2h-.2c-.5.4-1,.8-1.6,1s-1.2.4-1.8.4h0ZM160,324.4c-.4,0-.7,0-1-.3-.3-.2-.5-.4-.8-.6-.2-.2-.4-.4-.6-.6-.2-.2-.4-.3-.7-.3s-.5.1-.7.5-.2.7-.3,1.2h-1.2c0-.6.1-1.1.2-1.5s.4-.8.7-1c.3-.2.7-.4,1.2-.4s.7,0,1,.3c.3.2.5.4.7.6.2.2.4.5.6.6.2.2.4.3.7.3s.5-.1.7-.5c.1-.3.2-.7.3-1.2h1.2c0,.6-.1,1.1-.2,1.5s-.4.8-.7,1c-.3.2-.7.4-1.2.4h0ZM157.4,335.3c.5,0,1-.1,1.4-.3.4-.2.9-.5,1.4-1v-2.8c-1.1.1-2.1.3-2.7.5-.7.2-1.1.5-1.4.8-.3.3-.4.7-.4,1.2s.2,1,.5,1.2.8.4,1.3.4h0Z"/>
        <path class="st2" d="M169.1,336.8c-.8,0-1.6-.2-2.3-.6s-1.3-1-1.8-1.8c-.4-.8-.7-1.8-.7-2.9s.2-2.1.7-2.9c.4-.8,1-1.4,1.8-1.8.7-.4,1.5-.6,2.3-.6s1.6.2,2.3.6c.7.4,1.3,1,1.7,1.8.4.8.7,1.8.7,2.9s-.2,2.1-.7,2.9c-.4.8-1,1.4-1.7,1.8-.7.4-1.5.6-2.3.6ZM169.1,335.3c.6,0,1.1-.2,1.6-.5s.8-.8,1-1.4.4-1.3.4-2-.1-1.5-.4-2.1c-.2-.6-.6-1.1-1-1.4-.4-.3-1-.5-1.6-.5s-1.1.2-1.6.5c-.4.3-.8.8-1,1.4s-.4,1.3-.4,2.1.1,1.5.4,2,.6,1,1,1.4c.4.3,1,.5,1.6.5Z"/>
        <path class="st2" d="M184.9,336.8c-.9,0-1.7-.2-2.5-.6-.8-.4-1.3-1-1.8-1.8-.4-.8-.6-1.8-.6-2.9s.2-2.1.7-2.9,1-1.4,1.7-1.9,1.4-.6,2.2-.6,1.6.2,2.2.6,1.1,1,1.4,1.7c.3.7.5,1.6.5,2.5v.5c0,.2,0,.3,0,.5h-7.4v-1.4h5.9c0-1-.2-1.7-.6-2.3-.4-.5-1-.8-1.8-.8s-.9.1-1.4.4-.8.7-1.1,1.2c-.3.6-.4,1.3-.4,2.3s.1,1.6.4,2.2.7,1,1.2,1.3c.5.3,1.1.5,1.7.5s.9,0,1.4-.2c.4-.1.8-.3,1.2-.6l.6,1.1c-.4.3-.9.6-1.5.8s-1.2.3-1.9.3h0Z"/>
        <path class="st2" d="M193.9,336.8c-.7,0-1.4-.1-2.1-.4s-1.2-.6-1.7-1.1l.8-1c.4.4.9.6,1.4.8.5.2,1,.3,1.7.3s1.2-.2,1.5-.5.5-.7.5-1.1-.1-.6-.4-.9c-.2-.2-.5-.4-.9-.6s-.7-.3-1.1-.5c-.5-.2-1-.4-1.4-.6-.5-.2-.8-.5-1.1-.9-.3-.4-.4-.8-.4-1.4,0-.8.3-1.5.9-2.1s1.5-.8,2.6-.8,1.2.1,1.8.3,1,.5,1.4.8l-.8,1c-.4-.2-.7-.5-1.1-.6-.4-.1-.8-.2-1.3-.2s-1.1.1-1.4.4-.4.6-.4,1,0,.6.3.8c.2.2.4.4.8.5.3.1.7.3,1.1.4.5.2,1,.4,1.5.7.5.2.9.6,1.2,1,.3.4.4.9.4,1.5s-.1,1.1-.4,1.5-.7.8-1.3,1.1c-.6.3-1.2.4-2.1.4h0Z"/>
        <path class="st2" d="M202.8,336.7c-1.1,0-1.8-.3-2.3-1-.4-.6-.6-1.5-.6-2.5v-5.6h-1.5v-1.3h1.6c0-.1.2-3.4.2-3.4h1.4v3.3h2.8v1.4h-2.8v5.6c0,.6.1,1.1.4,1.5.2.4.6.5,1.2.5s.4,0,.6,0,.4-.1.6-.2l.4,1.2c-.3.1-.6.2-.9.3-.3,0-.7.1-1,.1h0Z"/>
        <path class="st2" d="M208.6,336.8c-.6,0-1.1-.1-1.5-.4-.5-.2-.8-.6-1.1-1s-.4-1-.4-1.6c0-1.1.5-2,1.5-2.6s2.6-1,4.8-1.2c0-.4,0-.8-.2-1.2s-.3-.7-.6-1c-.3-.2-.7-.4-1.3-.4s-1.1.1-1.7.3-1,.5-1.4.7l-.7-1.2c.3-.2.7-.4,1.1-.6s.9-.4,1.4-.5c.5-.1,1-.2,1.6-.2.8,0,1.5.2,2,.5.5.3.9.8,1.2,1.5s.4,1.4.4,2.2v6.3h-1.4v-1.2h-.2c-.5.4-1,.8-1.6,1s-1.2.4-1.8.4h0ZM209.1,335.3c.5,0,1-.1,1.4-.3.4-.2.9-.5,1.4-1v-2.8c-1.1.1-2.1.3-2.7.5-.7.2-1.1.5-1.4.8-.3.3-.4.7-.4,1.2s.2,1,.5,1.2.8.4,1.3.4h0Z"/>
        <path class="st2" d="M219.1,336.5l-3.7-10.2h1.8l1.9,5.8c.1.5.3,1,.5,1.5s.3,1,.5,1.5h0c.1-.5.3-1,.5-1.5.2-.5.3-1,.5-1.5l1.9-5.8h1.7l-3.6,10.2h-2,0Z"/>
        <path class="st2" d="M228.6,336.8c-.6,0-1.1-.1-1.5-.4-.5-.2-.8-.6-1.1-1s-.4-1-.4-1.6c0-1.1.5-2,1.5-2.6s2.6-1,4.8-1.2c0-.4,0-.8-.2-1.2s-.3-.7-.6-1c-.3-.2-.7-.4-1.3-.4s-1.1.1-1.7.3-1,.5-1.4.7l-.7-1.2c.3-.2.7-.4,1.1-.6s.9-.4,1.4-.5c.5-.1,1-.2,1.6-.2.8,0,1.5.2,2,.5.5.3.9.8,1.2,1.5s.4,1.4.4,2.2v6.3h-1.4v-1.2h-.2c-.5.4-1,.8-1.6,1s-1.2.4-1.8.4h0ZM229.1,335.3c.5,0,1-.1,1.4-.3.4-.2.9-.5,1.4-1v-2.8c-1.1.1-2.1.3-2.7.5-.7.2-1.1.5-1.4.8-.3.3-.4.7-.4,1.2s.2,1,.5,1.2.8.4,1.3.4h0Z"/>
        <path class="st2" d="M236.9,336.5v-10.2h1.4v1.5h.2c.4-.5.9-.9,1.5-1.2.5-.3,1.1-.5,1.7-.5s1.4.2,1.8.5.8.8,1,1.4c.5-.6,1.1-1.1,1.6-1.4.6-.4,1.1-.5,1.8-.5,1.1,0,1.9.3,2.4,1s.8,1.7.8,3v6.5h-1.7v-6.2c0-1-.1-1.7-.5-2.1s-.8-.6-1.4-.6-.8.1-1.2.4c-.4.3-.9.7-1.3,1.2v7.4h-1.7v-6.2c0-1-.1-1.7-.5-2.1s-.8-.6-1.4-.6-1.6.5-2.6,1.6v7.4h-1.7,0Z"/>
        <path class="st2" d="M258.5,336.5v-10.2h1.4v1.5h.2c.5-.5.9-.9,1.5-1.2.5-.3,1.1-.5,1.7-.5s1.4.2,1.8.5.8.8,1,1.4c.5-.6,1.1-1.1,1.6-1.4.5-.4,1.1-.5,1.8-.5,1.1,0,1.9.3,2.4,1s.8,1.7.8,3v6.5h-1.7v-6.2c0-1-.1-1.7-.5-2.1s-.8-.6-1.4-.6-.8.1-1.2.4-.9.7-1.3,1.2v7.4h-1.7v-6.2c0-1-.1-1.7-.5-2.1s-.8-.6-1.5-.6-1.6.5-2.6,1.6v7.4h-1.7,0Z"/>
        <path class="st2" d="M278.3,336.8c-.6,0-1.1-.1-1.5-.4s-.8-.6-1.1-1-.4-1-.4-1.6c0-1.1.5-2,1.5-2.6s2.6-1,4.8-1.2c0-.4,0-.8-.2-1.2-.1-.4-.3-.7-.6-1-.3-.2-.7-.4-1.3-.4s-1.1.1-1.7.3-1,.5-1.4.7l-.7-1.2c.3-.2.7-.4,1.1-.6s.9-.4,1.4-.5,1-.2,1.6-.2c.8,0,1.5.2,2,.5.5.3.9.8,1.2,1.5s.4,1.4.4,2.2v6.3h-1.4v-1.2h-.2c-.5.4-1,.8-1.6,1s-1.2.4-1.8.4h0ZM278.8,335.3c.5,0,1-.1,1.4-.3.4-.2.9-.5,1.4-1v-2.8c-1.1.1-2.1.3-2.7.5-.7.2-1.1.5-1.4.8s-.4.7-.4,1.2.2,1,.5,1.2.8.4,1.3.4h0Z"/>
        <path class="st2" d="M289.5,336.7c-1.1,0-1.8-.3-2.3-1s-.6-1.5-.6-2.5v-5.6h-1.5v-1.3h1.6c0-.1.2-3.4.2-3.4h1.5v3.3h2.8v1.4h-2.8v5.6c0,.6.1,1.1.4,1.5s.6.5,1.2.5.4,0,.6,0,.4-.1.6-.2l.4,1.2c-.3.1-.6.2-.9.3-.3,0-.7.1-1,.1h0Z"/>
        <path class="st2" d="M293.4,336.5v-10.2h1.4v1.9h.2c.3-.6.8-1.2,1.3-1.5s1-.6,1.6-.6.4,0,.6,0c.2,0,.3,0,.5.2l-.4,1.5c-.1,0-.3,0-.4,0s-.3,0-.5,0c-.4,0-.9.2-1.4.5s-.9,1-1.2,1.8v6.6h-1.7,0Z"/>
        <path class="st2" d="M301.6,324.2c-.3,0-.6-.1-.8-.3-.2-.2-.3-.5-.3-.8s.1-.6.3-.8c.2-.2.5-.3.8-.3s.6.1.8.3c.2.2.3.5.3.8s-.1.6-.3.8c-.2.2-.5.3-.8.3ZM300.7,336.5v-10.2h1.7v10.2h-1.7Z"/>
        <path class="st2" d="M309.9,336.8c-.9,0-1.7-.2-2.5-.6-.7-.4-1.3-1-1.7-1.8s-.6-1.8-.6-2.9.2-2.1.7-2.9c.5-.8,1.1-1.4,1.8-1.8.8-.4,1.6-.6,2.4-.6s1.2.1,1.7.3.9.5,1.2.9l-.9,1.1c-.2-.2-.5-.5-.9-.6-.3-.1-.7-.2-1.2-.2s-1.1.2-1.6.5-.9.8-1.1,1.4-.4,1.3-.4,2.1.1,1.5.4,2,.6,1,1.1,1.4c.5.3,1,.5,1.7.5s.9,0,1.3-.3c.4-.2.8-.4,1-.7l.8,1c-.4.4-.9.7-1.5,1-.5.2-1.1.4-1.8.4h0Z"/>
        <path class="st2" d="M318.5,336.8c-1.1,0-1.9-.3-2.4-1s-.8-1.7-.8-3v-6.5h1.7v6.2c0,1,.1,1.6.5,2.1.3.4.8.6,1.5.6s1-.1,1.4-.4.9-.7,1.4-1.3v-7.3h1.7v10.2h-1.4v-1.6h-.2c-.5.6-1,1-1.5,1.4s-1.2.5-1.9.5h0Z"/>
        <path class="st2" d="M328.7,336.7c-.4,0-.8,0-1-.3-.3-.2-.5-.4-.6-.8-.1-.3-.2-.8-.2-1.2v-12.9h1.7v13c0,.3,0,.5.1.6s.2.2.4.2.1,0,.2,0c0,0,.1,0,.2,0l.2,1.3c-.1,0-.3,0-.4.1s-.4,0-.6,0h0Z"/>
        <path class="st2" d="M334.6,336.8c-.6,0-1.1-.1-1.5-.4s-.8-.6-1.1-1-.4-1-.4-1.6c0-1.1.5-2,1.5-2.6s2.6-1,4.8-1.2c0-.4,0-.8-.2-1.2-.1-.4-.3-.7-.6-1-.3-.2-.7-.4-1.3-.4s-1.1.1-1.7.3-1,.5-1.4.7l-.7-1.2c.3-.2.7-.4,1.1-.6s.9-.4,1.4-.5,1-.2,1.6-.2c.8,0,1.5.2,2,.5.5.3.9.8,1.2,1.5s.4,1.4.4,2.2v6.3h-1.4v-1.2h-.2c-.5.4-1,.8-1.6,1s-1.2.4-1.8.4h0ZM335.1,335.3c.5,0,1-.1,1.4-.3.4-.2.9-.5,1.4-1v-2.8c-1.1.1-2.1.3-2.7.5-.7.2-1.1.5-1.4.8s-.4.7-.4,1.2.2,1,.5,1.2.8.4,1.3.4h0Z"/>
        <path class="st2" d="M346.4,336.8c-1.3,0-2.3-.5-3.1-1.4-.8-.9-1.1-2.2-1.1-3.9s.2-2.1.6-2.9c.4-.8,1-1.4,1.6-1.9s1.4-.6,2.2-.6,1.1.1,1.5.3c.4.2.9.5,1.3.9v-1.8c0,0,0-3.9,0-3.9h1.8v15h-1.4v-1.2h-.2c-.4.4-.9.7-1.4,1s-1.1.4-1.7.4h0ZM346.8,335.3c.5,0,.9-.1,1.4-.4s.8-.6,1.3-1v-5.3c-.4-.4-.8-.7-1.2-.8-.4-.2-.8-.2-1.2-.2s-1,.2-1.5.5-.8.8-1.1,1.4-.4,1.3-.4,2c0,1.2.2,2.2.7,2.9s1.2,1,2.1,1h0Z"/>
        <path class="st2" d="M356.9,336.8c-.6,0-1.1-.1-1.5-.4s-.8-.6-1.1-1-.4-1-.4-1.6c0-1.1.5-2,1.5-2.6s2.6-1,4.8-1.2c0-.4,0-.8-.2-1.2-.1-.4-.3-.7-.6-1-.3-.2-.7-.4-1.3-.4s-1.1.1-1.7.3-1,.5-1.4.7l-.7-1.2c.3-.2.7-.4,1.1-.6s.9-.4,1.4-.5,1-.2,1.6-.2c.8,0,1.5.2,2,.5.5.3.9.8,1.2,1.5s.4,1.4.4,2.2v6.3h-1.4v-1.2h-.2c-.5.4-1,.8-1.6,1s-1.2.4-1.8.4h0ZM357.4,335.3c.5,0,1-.1,1.4-.3.4-.2.9-.5,1.4-1v-2.8c-1.1.1-2.1.3-2.7.5-.7.2-1.1.5-1.4.8s-.4.7-.4,1.2.2,1,.5,1.2.8.4,1.3.4h0Z"/>
        <path class="st2" d="M367.8,336.8c-.7,0-1.5-.1-2.1-.4s-1.2-.6-1.7-1.1l.8-1c.5.4.9.6,1.4.8.5.2,1,.3,1.7.3s1.2-.2,1.5-.5.5-.7.5-1.1-.1-.6-.4-.9c-.2-.2-.5-.4-.9-.6s-.7-.3-1.1-.5c-.5-.2-1-.4-1.5-.6-.5-.2-.8-.5-1.1-.9-.3-.4-.4-.8-.4-1.4,0-.8.3-1.5.9-2.1s1.5-.8,2.6-.8,1.2.1,1.8.3,1,.5,1.4.8l-.8,1c-.4-.2-.7-.5-1.1-.6-.4-.1-.8-.2-1.3-.2s-1.1.1-1.4.4c-.3.3-.5.6-.5,1s0,.6.3.8c.2.2.4.4.8.5.3.1.7.3,1.1.4.5.2,1,.4,1.5.7.5.2.9.6,1.2,1s.5.9.5,1.5-.1,1.1-.4,1.5-.7.8-1.3,1.1c-.5.3-1.2.4-2,.4h0Z"/>
      </g>
      <rect class="st1" x="16.4" y="325.3" width="53.5" height="13.5" rx="4.8" ry="4.8"/>
    </g>
    <g>
      <g>
        <path class="st2" d="M85.3,370.3v-1c1.3-1.3,2.5-2.5,3.4-3.5.9-1,1.7-1.9,2.2-2.8.5-.8.7-1.6.7-2.3s-.2-1.4-.6-1.9-1.1-.7-1.9-.7-1.1.1-1.6.5c-.5.3-.9.7-1.3,1.2l-1-1c.6-.6,1.2-1.1,1.8-1.5.6-.4,1.4-.6,2.2-.6s1.5.2,2.2.5c.6.3,1.1.8,1.4,1.4s.5,1.3.5,2.1-.2,1.7-.7,2.6c-.5.9-1.2,1.8-2,2.7s-1.8,2-2.9,3.1c.4,0,.7,0,1.1,0,.4,0,.8,0,1.1,0h4v1.5h-8.7Z"/>
        <path class="st2" d="M99.3,370.6c-.7,0-1.3-.1-1.9-.4s-1-.6-1.4-1l1-1.1c.3.3.6.6,1,.8s.8.3,1.2.3c.6,0,1.2-.2,1.8-.6s1-1,1.3-1.9c.3-.9.5-2.1.5-3.6s-.1-2-.4-2.8-.6-1.3-1-1.7c-.4-.4-1-.6-1.6-.6s-.8.1-1.2.4-.6.6-.8,1-.3,1-.3,1.5,0,1.1.3,1.5.5.8.8,1c.4.2.8.4,1.4.4s.9-.1,1.4-.4c.5-.3,1-.8,1.4-1.5v1.4c-.4.6-.8,1-1.4,1.3s-1.2.5-1.8.5-1.4-.1-2-.5c-.6-.3-1-.8-1.3-1.4-.3-.6-.5-1.4-.5-2.3s.2-1.6.5-2.3.8-1.2,1.4-1.5c.6-.4,1.3-.5,2-.5s1.3.1,1.8.4,1.1.7,1.5,1.2c.4.5.7,1.2,1,2s.3,1.8.3,2.8-.1,2.5-.4,3.5-.7,1.7-1.1,2.3c-.5.6-1,1-1.6,1.3-.6.3-1.2.4-1.9.4h0Z"/>
        <path class="st2" d="M106.8,373.9l-.4-1c.6-.3,1.1-.6,1.4-1.1.3-.5.5-1,.5-1.5l-.2-1.6.9,1.3c-.1.1-.3.2-.4.3-.2,0-.3,0-.5,0-.3,0-.6-.1-.9-.3-.2-.2-.4-.5-.4-.9s.1-.7.4-.9c.3-.2.6-.3.9-.3s.8.2,1.1.5c.2.4.4.9.4,1.5s-.2,1.7-.7,2.4-1.2,1.2-2,1.6h0Z"/>
        <path class="st2" d="M115.6,370.6c-.7,0-1.3,0-1.9-.3-.6-.2-1-.4-1.4-.7s-.8-.6-1.1-.9l.8-1.1c.4.4.9.8,1.4,1.1.5.3,1.2.5,2,.5s1-.1,1.5-.4.8-.6,1.1-1.1.4-1,.4-1.6c0-.9-.3-1.6-.8-2.2-.5-.5-1.2-.8-2.1-.8s-.8,0-1.2.2c-.3.1-.7.3-1.1.6l-.9-.6.4-6.5h6.7v1.5h-5.2l-.4,4c.3-.2.6-.3,1-.4.3-.1.7-.1,1.1-.1.8,0,1.5.1,2.1.4s1.1.8,1.5,1.4c.4.6.6,1.4.6,2.4s-.2,1.8-.6,2.5-1,1.2-1.7,1.5c-.7.4-1.4.5-2.2.5h0Z"/>
        <path class="st2" d="M125,365c-.6,0-1.2-.2-1.7-.5s-.8-.8-1.1-1.5c-.3-.6-.4-1.4-.4-2.4,0-1.4.3-2.5.9-3.2.6-.8,1.3-1.1,2.3-1.1s1.7.4,2.3,1.1c.6.8.9,1.8.9,3.2s-.1,1.7-.4,2.4-.6,1.1-1.1,1.5c-.5.3-1,.5-1.7.5ZM125,363.9c.6,0,1-.3,1.3-.8s.5-1.4.5-2.5-.2-1.9-.5-2.5-.8-.8-1.3-.8-1,.3-1.3.8-.5,1.4-.5,2.5.2,1.9.5,2.5.8.8,1.3.8ZM125.4,370.6l7.6-14.3h1.2l-7.6,14.3h-1.2,0ZM134.6,370.6c-.6,0-1.2-.2-1.6-.5-.5-.3-.8-.8-1.1-1.5s-.4-1.4-.4-2.4c0-1.4.3-2.5.9-3.2.6-.8,1.3-1.1,2.3-1.1s1.7.4,2.3,1.1c.6.8.9,1.8.9,3.2s-.1,1.7-.4,2.4c-.3.6-.6,1.1-1.1,1.5s-1,.5-1.6.5h0ZM134.6,369.5c.6,0,1-.3,1.3-.8s.5-1.4.5-2.5-.2-1.9-.5-2.5c-.3-.5-.8-.8-1.3-.8s-1,.3-1.3.8c-.3.5-.5,1.4-.5,2.5s.2,1.9.5,2.5.8.8,1.3.8Z"/>
        <path class="st2" d="M148.5,370.6c-.9,0-1.7-.2-2.5-.6-.8-.4-1.3-1-1.8-1.8-.4-.8-.6-1.8-.6-2.9s.2-2.1.7-2.9,1-1.4,1.7-1.9,1.4-.6,2.2-.6,1.6.2,2.2.6,1.1,1,1.4,1.7c.3.7.5,1.6.5,2.5v.5c0,.2,0,.3,0,.5h-7.4v-1.4h5.9c0-1-.2-1.7-.6-2.3-.4-.5-1-.8-1.8-.8s-.9.1-1.4.4-.8.7-1.1,1.2c-.3.6-.4,1.3-.4,2.3s.1,1.6.4,2.2.7,1,1.2,1.3c.5.3,1.1.5,1.7.5s.9,0,1.4-.2c.4-.1.8-.3,1.2-.6l.6,1.1c-.4.3-.9.6-1.5.8s-1.2.3-1.9.3h0Z"/>
        <path class="st2" d="M157.5,370.6c-.7,0-1.4-.1-2.1-.4s-1.2-.6-1.7-1.1l.8-1c.4.4.9.6,1.4.8.5.2,1,.3,1.7.3s1.2-.2,1.5-.5.5-.7.5-1.1-.1-.6-.4-.9c-.2-.2-.5-.4-.9-.6s-.7-.3-1.1-.5c-.5-.2-1-.4-1.4-.6-.5-.2-.8-.5-1.1-.9-.3-.4-.4-.8-.4-1.4,0-.8.3-1.5.9-2.1s1.5-.8,2.6-.8,1.2.1,1.8.3,1,.5,1.4.8l-.8,1c-.4-.2-.7-.5-1.1-.6-.4-.1-.8-.2-1.3-.2s-1.1.1-1.4.4-.4.6-.4,1,0,.6.3.8c.2.2.4.4.8.5.3.1.7.3,1.1.4.5.2,1,.4,1.5.7.5.2.9.6,1.2,1,.3.4.4.9.4,1.5s-.1,1.1-.4,1.5-.7.8-1.3,1.1c-.6.3-1.2.4-2.1.4h0Z"/>
        <path class="st2" d="M166.4,370.5c-1.1,0-1.8-.3-2.3-1-.4-.6-.6-1.5-.6-2.5v-5.6h-1.5v-1.3h1.6c0-.1.2-3.4.2-3.4h1.4v3.3h2.8v1.4h-2.8v5.6c0,.6.1,1.1.4,1.5.2.4.6.5,1.2.5s.4,0,.6,0,.4-.1.6-.2l.4,1.2c-.3.1-.6.2-.9.3-.3,0-.7.1-1,.1h0Z"/>
        <path class="st2" d="M172.2,370.6c-.6,0-1.1-.1-1.5-.4-.5-.2-.8-.6-1.1-1s-.4-1-.4-1.6c0-1.1.5-2,1.5-2.6s2.6-1,4.8-1.2c0-.4,0-.8-.2-1.2s-.3-.7-.6-1c-.3-.2-.7-.4-1.3-.4s-1.1.1-1.7.3-1,.5-1.4.7l-.7-1.2c.3-.2.7-.4,1.1-.6s.9-.4,1.4-.5c.5-.1,1-.2,1.6-.2.8,0,1.5.2,2,.5.5.3.9.8,1.2,1.5s.4,1.4.4,2.2v6.3h-1.4v-1.2h-.2c-.5.4-1,.8-1.6,1s-1.2.4-1.8.4h0ZM172.7,369.1c.5,0,1-.1,1.4-.3.4-.2.9-.5,1.4-1v-2.8c-1.1.1-2.1.3-2.7.5-.7.2-1.1.5-1.4.8-.3.3-.4.7-.4,1.2s.2,1,.5,1.2.8.4,1.3.4h0Z"/>
        <path class="st2" d="M182.7,370.3l-3.7-10.2h1.8l1.9,5.8c.1.5.3,1,.5,1.5s.3,1,.5,1.5h0c.1-.5.3-1,.5-1.5.2-.5.3-1,.5-1.5l1.9-5.8h1.7l-3.6,10.2h-2,0Z"/>
        <path class="st2" d="M192.2,370.6c-.6,0-1.1-.1-1.5-.4-.5-.2-.8-.6-1.1-1s-.4-1-.4-1.6c0-1.1.5-2,1.5-2.6s2.6-1,4.8-1.2c0-.4,0-.8-.2-1.2s-.3-.7-.6-1-.7-.4-1.3-.4-1.1.1-1.7.3-1,.5-1.4.7l-.7-1.2c.3-.2.7-.4,1.1-.6s.9-.4,1.4-.5c.5-.1,1-.2,1.6-.2.8,0,1.5.2,2,.5s.9.8,1.2,1.5c.2.6.4,1.4.4,2.2v6.3h-1.4v-1.2h-.2c-.5.4-1,.8-1.6,1s-1.2.4-1.8.4h0ZM192.7,369.1c.5,0,1-.1,1.4-.3.4-.2.9-.5,1.4-1v-2.8c-1.1.1-2.1.3-2.7.5-.7.2-1.1.5-1.4.8-.3.3-.4.7-.4,1.2s.2,1,.5,1.2.8.4,1.3.4h0Z"/>
        <path class="st2" d="M200.5,370.3v-10.2h1.4v1.5h.2c.4-.5.9-.9,1.5-1.2.5-.3,1.1-.5,1.7-.5s1.4.2,1.8.5.8.8,1,1.4c.5-.6,1.1-1.1,1.6-1.4.6-.4,1.1-.5,1.8-.5,1.1,0,1.9.3,2.4,1,.5.7.8,1.7.8,3v6.5h-1.7v-6.2c0-1-.1-1.7-.5-2.1s-.8-.6-1.4-.6-.8.1-1.2.4c-.4.3-.9.7-1.3,1.2v7.4h-1.7v-6.2c0-1-.1-1.7-.5-2.1s-.8-.6-1.4-.6-1.6.5-2.6,1.6v7.4h-1.7Z"/>
        <path class="st2" d="M222.1,370.3v-10.2h1.4v1.5h.2c.4-.5.9-.9,1.5-1.2s1.1-.5,1.7-.5,1.4.2,1.8.5.8.8,1,1.4c.5-.6,1.1-1.1,1.6-1.4.6-.4,1.1-.5,1.8-.5,1.1,0,1.9.3,2.4,1s.8,1.7.8,3v6.5h-1.7v-6.2c0-1-.1-1.7-.5-2.1s-.8-.6-1.4-.6-.8.1-1.2.4-.9.7-1.3,1.2v7.4h-1.7v-6.2c0-1-.1-1.7-.5-2.1s-.8-.6-1.4-.6-1.6.5-2.6,1.6v7.4h-1.7Z"/>
        <path class="st2" d="M241.9,370.6c-.6,0-1.1-.1-1.5-.4s-.8-.6-1.1-1c-.3-.4-.4-1-.4-1.6,0-1.1.5-2,1.5-2.6s2.6-1,4.8-1.2c0-.4,0-.8-.2-1.2s-.3-.7-.6-1-.7-.4-1.3-.4-1.1.1-1.7.3-1,.5-1.4.7l-.7-1.2c.3-.2.7-.4,1.1-.6.4-.2.9-.4,1.4-.5.5-.1,1-.2,1.6-.2.8,0,1.5.2,2,.5s.9.8,1.2,1.5c.2.6.4,1.4.4,2.2v6.3h-1.4v-1.2h-.2c-.5.4-1,.8-1.6,1s-1.2.4-1.8.4h0ZM242.4,369.1c.5,0,1-.1,1.4-.3.4-.2.9-.5,1.4-1v-2.8c-1.1.1-2.1.3-2.7.5s-1.1.5-1.4.8c-.3.3-.4.7-.4,1.2s.2,1,.5,1.2.8.4,1.3.4h0Z"/>
        <path class="st2" d="M253.1,370.5c-1.1,0-1.8-.3-2.3-1-.4-.6-.6-1.5-.6-2.5v-5.6h-1.5v-1.3h1.6c0-.1.2-3.4.2-3.4h1.4v3.3h2.8v1.4h-2.8v5.6c0,.6.1,1.1.4,1.5s.6.5,1.2.5.4,0,.6,0c.2,0,.4-.1.6-.2l.4,1.2c-.3.1-.6.2-.9.3-.3,0-.7.1-1,.1h0Z"/>
        <path class="st2" d="M257,370.3v-10.2h1.4v1.9h.2c.3-.6.8-1.2,1.3-1.5.5-.4,1-.6,1.6-.6s.4,0,.6,0,.3,0,.5.2l-.4,1.5c-.1,0-.3,0-.4,0s-.3,0-.5,0c-.4,0-.9.2-1.4.5-.5.4-.9,1-1.2,1.8v6.6h-1.7Z"/>
        <path class="st2" d="M265.1,358c-.3,0-.6-.1-.8-.3-.2-.2-.3-.5-.3-.8s.1-.6.3-.8c.2-.2.5-.3.8-.3s.6.1.8.3c.2.2.3.5.3.8s-.1.6-.3.8c-.2.2-.5.3-.8.3ZM264.3,370.3v-10.2h1.7v10.2h-1.7Z"/>
        <path class="st2" d="M273.5,370.6c-.9,0-1.7-.2-2.5-.6-.7-.4-1.3-1-1.7-1.8-.4-.8-.6-1.8-.6-2.9s.2-2.1.7-2.9c.5-.8,1.1-1.4,1.8-1.8.8-.4,1.6-.6,2.4-.6s1.2.1,1.7.3c.5.2.9.5,1.2.9l-.9,1.1c-.2-.2-.5-.5-.9-.6-.3-.1-.7-.2-1.2-.2s-1.1.2-1.6.5-.9.8-1.1,1.4-.4,1.3-.4,2.1.1,1.5.4,2,.6,1,1.1,1.4c.5.3,1,.5,1.7.5s.9,0,1.3-.3c.4-.2.8-.4,1-.7l.8,1c-.4.4-.9.7-1.5,1-.5.2-1.1.4-1.8.4h0Z"/>
        <path class="st2" d="M282,370.6c-1.1,0-1.9-.3-2.4-1s-.8-1.7-.8-3v-6.5h1.7v6.2c0,1,.1,1.6.5,2.1.3.4.8.6,1.5.6s1-.1,1.4-.4.9-.7,1.4-1.3v-7.3h1.7v10.2h-1.4v-1.6h-.2c-.5.6-1,1-1.5,1.4s-1.2.5-1.9.5h0Z"/>
        <path class="st2" d="M292.3,370.5c-.4,0-.8,0-1-.3-.3-.2-.5-.4-.6-.8s-.2-.8-.2-1.2v-12.9h1.7v13c0,.3,0,.5.1.6s.2.2.4.2.1,0,.2,0c0,0,.1,0,.2,0l.2,1.3c-.1,0-.3,0-.4.1s-.4,0-.6,0h0Z"/>
        <path class="st2" d="M298.2,370.6c-.6,0-1.1-.1-1.5-.4s-.8-.6-1.1-1c-.3-.4-.4-1-.4-1.6,0-1.1.5-2,1.5-2.6s2.6-1,4.8-1.2c0-.4,0-.8-.2-1.2-.1-.4-.3-.7-.6-1s-.7-.4-1.3-.4-1.1.1-1.7.3-1,.5-1.4.7l-.7-1.2c.3-.2.7-.4,1.1-.6.4-.2.9-.4,1.4-.5s1-.2,1.6-.2c.8,0,1.5.2,2,.5s.9.8,1.2,1.5c.2.6.4,1.4.4,2.2v6.3h-1.4v-1.2h-.2c-.5.4-1,.8-1.6,1s-1.2.4-1.8.4h0ZM298.7,369.1c.5,0,1-.1,1.4-.3.4-.2.9-.5,1.4-1v-2.8c-1.1.1-2.1.3-2.7.5s-1.1.5-1.4.8-.4.7-.4,1.2.2,1,.5,1.2.8.4,1.3.4h0Z"/>
        <path class="st2" d="M309.9,370.6c-1.3,0-2.3-.5-3.1-1.4s-1.1-2.2-1.1-3.9.2-2.1.6-2.9c.4-.8,1-1.4,1.6-1.9s1.4-.6,2.2-.6,1.1.1,1.5.3c.4.2.9.5,1.3.9v-1.8c0,0,0-3.9,0-3.9h1.8v15h-1.4v-1.2h-.2c-.4.4-.9.7-1.4,1s-1.1.4-1.7.4h0ZM310.3,369.1c.5,0,.9-.1,1.4-.4s.8-.6,1.3-1v-5.3c-.4-.4-.8-.7-1.2-.8s-.8-.2-1.2-.2-1,.2-1.5.5-.8.8-1.1,1.4-.4,1.3-.4,2c0,1.2.2,2.2.7,2.9.5.7,1.2,1,2.1,1h0Z"/>
        <path class="st2" d="M320.5,370.6c-.6,0-1.1-.1-1.5-.4s-.8-.6-1.1-1c-.3-.4-.4-1-.4-1.6,0-1.1.5-2,1.5-2.6,1-.6,2.6-1,4.8-1.2,0-.4,0-.8-.2-1.2s-.3-.7-.6-1c-.3-.2-.7-.4-1.3-.4s-1.1.1-1.7.3-1,.5-1.4.7l-.7-1.2c.3-.2.7-.4,1.1-.6.4-.2.9-.4,1.4-.5s1-.2,1.6-.2c.8,0,1.5.2,2,.5.5.3.9.8,1.2,1.5s.4,1.4.4,2.2v6.3h-1.4v-1.2h-.2c-.5.4-1,.8-1.6,1s-1.2.4-1.8.4h0ZM321,369.1c.5,0,1-.1,1.4-.3s.9-.5,1.4-1v-2.8c-1.1.1-2.1.3-2.7.5-.7.2-1.1.5-1.4.8s-.4.7-.4,1.2.2,1,.5,1.2c.4.2.8.4,1.3.4h0Z"/>
        <path class="st2" d="M331.4,370.6c-.7,0-1.5-.1-2.1-.4s-1.2-.6-1.7-1.1l.8-1c.5.4.9.6,1.4.8.5.2,1,.3,1.7.3s1.2-.2,1.5-.5c.3-.3.5-.7.5-1.1s-.1-.6-.4-.9-.5-.4-.9-.6-.7-.3-1.1-.5c-.5-.2-1-.4-1.5-.6-.5-.2-.8-.5-1.1-.9-.3-.4-.4-.8-.4-1.4,0-.8.3-1.5.9-2.1.6-.5,1.5-.8,2.6-.8s1.2.1,1.8.3,1,.5,1.4.8l-.8,1c-.4-.2-.7-.5-1.1-.6-.4-.1-.8-.2-1.3-.2s-1.1.1-1.4.4c-.3.3-.5.6-.5,1s0,.6.3.8c.2.2.4.4.8.5.3.1.7.3,1.1.4.5.2,1,.4,1.5.7.5.2.9.6,1.2,1s.5.9.5,1.5-.1,1.1-.4,1.5-.7.8-1.3,1.1c-.5.3-1.2.4-2,.4h0Z"/>
      </g>
      <rect class="st4" x="17.6" y="359.1" width="53.5" height="13.5" rx="4.8" ry="4.8"/>
    </g>
  </g>
  <g>
    <path class="st0" d="M330.4,104.3v25.7h23.2v-25.7h-23.2ZM350.7,127h-17.2v-19.7h17.2v19.7Z"/>
    <g>
      <path class="st3" d="M347.2,105.8c0-.8,0-1.7,0-2.5,0-2.2-1.8-4-4-4s-4,1.8-4,4,0,1.7,0,2.5h8Z"/>
      <path class="st3" d="M331.9,116.7c-.4,0-.9,0-1.3,0h-14c-2.2,0-4,1.8-4,4s1.8,4,4,4h14c.4,0,.8,0,1.3,0v-8Z"/>
    </g>
    <circle class="st3" cx="316" cy="103" r="11.5" transform="translate(143.6 387.2) rotate(-76.8)"/>
    <circle class="st3" cx="316" cy="103" r="11.5" transform="translate(143.6 387.2) rotate(-76.8)"/>
    <path class="st3" d="M323.2,116.8h-14.4c-2.7,0-5.2,1.4-6.7,3.6l-10.7,16.2c-1.2,1.8-.7,4.3,1.1,5.5h0c1.8,1.2,4.3.7,5.5-1.1l5.6-8.5c.3-.4.9-.2.9.3v46.1c0,2.8,2,5.2,4.8,5.5,3.2.3,5.8-2.2,5.8-5.3v-20.6c0-.5.4-.9.9-.9s.9.4.9.9v20.6c0,2.9,2.4,5.3,5.3,5.3h0c2.9,0,5.3-2.4,5.3-5.3v-46.3s.7-15.9-4.3-15.9Z"/>
  </g>
  <g>
    <path class="st0" d="M265.8,104.3v25.7h23.2v-25.7h-23.2ZM286.1,127h-17.2v-19.7h17.2v19.7Z"/>
    <g>
      <path class="st3" d="M282.6,105.8c0-.8,0-1.7,0-2.5,0-2.2-1.8-4-4-4s-4,1.8-4,4,0,1.7,0,2.5h8Z"/>
      <path class="st3" d="M267.3,116.7c-.4,0-.9,0-1.3,0h-14c-2.2,0-4,1.8-4,4s1.8,4,4,4h14c.4,0,.8,0,1.3,0v-8Z"/>
    </g>
    <circle class="st3" cx="251.4" cy="103" r="11.5" transform="translate(93.7 324.3) rotate(-76.8)"/>
    <circle class="st3" cx="251.4" cy="103" r="11.5" transform="translate(93.7 324.3) rotate(-76.8)"/>
    <path class="st3" d="M258.6,116.8h-14.4c-2.7,0-5.2,1.4-6.7,3.6l-10.7,16.2c-1.2,1.8-.7,4.3,1.1,5.5h0c1.8,1.2,4.3.7,5.5-1.1l5.6-8.5c.3-.4.9-.2.9.3v46.1c0,2.8,2,5.2,4.8,5.5,3.2.3,5.8-2.2,5.8-5.3v-20.6c0-.5.4-.9.9-.9s.9.4.9.9v20.6c0,2.9,2.4,5.3,5.3,5.3h0c2.9,0,5.3-2.4,5.3-5.3v-46.3s.7-15.9-4.3-15.9Z"/>
  </g>
  <g>
    <path class="st0" d="M200.8,104.3v25.7h23.2v-25.7h-23.2ZM221,127h-17.2v-19.7h17.2v19.7Z"/>
    <g>
      <path class="st3" d="M217.6,105.8c0-.8,0-1.7,0-2.5,0-2.2-1.8-4-4-4s-4,1.8-4,4,0,1.7,0,2.5h8Z"/>
      <path class="st3" d="M202.3,116.7c-.4,0-.9,0-1.3,0h-14c-2.2,0-4,1.8-4,4s1.8,4,4,4h14c.4,0,.8,0,1.3,0v-8Z"/>
    </g>
    <circle class="st3" cx="186.3" cy="103" r="11.5" transform="translate(43.5 260.9) rotate(-76.8)"/>
    <circle class="st3" cx="186.3" cy="103" r="11.5" transform="translate(43.5 260.9) rotate(-76.8)"/>
    <path class="st3" d="M193.6,116.8h-14.4c-2.7,0-5.2,1.4-6.7,3.6l-10.7,16.2c-1.2,1.8-.7,4.3,1.1,5.5h0c1.8,1.2,4.3.7,5.5-1.1l5.6-8.5c.3-.4.9-.2.9.3v46.1c0,2.8,2,5.2,4.8,5.5,3.2.3,5.8-2.2,5.8-5.3v-20.6c0-.5.4-.9.9-.9s.9.4.9.9v20.6c0,2.9,2.4,5.3,5.3,5.3h0c2.9,0,5.3-2.4,5.3-5.3v-46.3s.7-15.9-4.3-15.9Z"/>
  </g>
  <g>
    <path class="st0" d="M137.1,104.3v25.7h23.2v-25.7h-23.2ZM157.3,127h-17.2v-19.7h17.2v19.7Z"/>
    <g>
      <path class="st3" d="M153.9,105.8c0-.8,0-1.7,0-2.5,0-2.2-1.8-4-4-4s-4,1.8-4,4,0,1.7,0,2.5h8Z"/>
      <path class="st3" d="M138.6,116.7c-.4,0-.9,0-1.3,0h-14c-2.2,0-4,1.8-4,4s1.8,4,4,4h14c.4,0,.8,0,1.3,0v-8Z"/>
    </g>
    <circle class="st3" cx="122.6" cy="103" r="11.5" transform="translate(-5.7 198.9) rotate(-76.8)"/>
    <circle class="st3" cx="122.6" cy="103" r="11.5" transform="translate(-5.7 198.9) rotate(-76.8)"/>
    <path class="st3" d="M129.8,116.8h-14.4c-2.7,0-5.2,1.4-6.7,3.6l-10.7,16.2c-1.2,1.8-.7,4.3,1.1,5.5h0c1.8,1.2,4.3.7,5.5-1.1l5.6-8.5c.3-.4.9-.2.9.3v46.1c0,2.8,2,5.2,4.8,5.5,3.2.3,5.8-2.2,5.8-5.3v-20.6c0-.5.4-.9.9-.9s.9.4.9.9v20.6c0,2.9,2.4,5.3,5.3,5.3h0c2.9,0,5.3-2.4,5.3-5.3v-46.3s.7-15.9-4.3-15.9Z"/>
  </g>
  <g>
    <path class="st0" d="M73.3,104.3v25.7h23.2v-25.7h-23.2ZM93.6,127h-17.2v-19.7h17.2v19.7Z"/>
    <g>
      <path class="st3" d="M90.2,105.8c0-.8,0-1.7,0-2.5,0-2.2-1.8-4-4-4s-4,1.8-4,4,0,1.7,0,2.5h8Z"/>
      <path class="st3" d="M74.8,116.7c-.4,0-.9,0-1.3,0h-14c-2.2,0-4,1.8-4,4s1.8,4,4,4h14c.4,0,.8,0,1.3,0v-8Z"/>
    </g>
    <circle class="st3" cx="58.9" cy="103" r="11.5" transform="translate(-54.9 136.9) rotate(-76.8)"/>
    <circle class="st3" cx="58.9" cy="103" r="11.5" transform="translate(-54.9 136.9) rotate(-76.8)"/>
    <path class="st3" d="M66.1,116.8h-14.4c-2.7,0-5.2,1.4-6.7,3.6l-10.7,16.2c-1.2,1.8-.7,4.3,1.1,5.5h0c1.8,1.2,4.3.7,5.5-1.1l5.6-8.5c.3-.4.9-.2.9.3v46.1c0,2.8,2,5.2,4.8,5.5,3.2.3,5.8-2.2,5.8-5.3v-20.6c0-.5.4-.9.9-.9s.9.4.9.9v20.6c0,2.9,2.4,5.3,5.3,5.3h0c2.9,0,5.3-2.4,5.3-5.3v-46.3s.7-15.9-4.3-15.9Z"/>
  </g>
  <g>
    <path class="st0" d="M137.1,208.6v25.7h23.2v-25.7h-23.2ZM157.3,231.3h-17.2v-19.7h17.2v19.7Z"/>
    <g>
      <path class="st3" d="M153.9,210.1c0-.8,0-1.7,0-2.5,0-2.2-1.8-4-4-4s-4,1.8-4,4,0,1.7,0,2.5h8Z"/>
      <path class="st3" d="M138.6,221c-.4,0-.9,0-1.3,0h-14c-2.2,0-4,1.8-4,4s1.8,4,4,4h14c.4,0,.8,0,1.3,0v-8Z"/>
    </g>
    <circle class="st3" cx="122.6" cy="207.3" r="11.5" transform="translate(-107.2 279.4) rotate(-76.8)"/>
    <circle class="st3" cx="122.6" cy="207.3" r="11.5" transform="translate(-107.2 279.4) rotate(-76.8)"/>
    <path class="st3" d="M129.8,221.1h-14.4c-2.7,0-5.2,1.4-6.7,3.6l-10.7,16.2c-1.2,1.8-.7,4.3,1.1,5.5h0c1.8,1.2,4.3.7,5.5-1.1l5.6-8.5c.3-.4.9-.2.9.3v46.1c0,2.8,2,5.2,4.8,5.5,3.2.3,5.8-2.2,5.8-5.3v-20.6c0-.5.4-.9.9-.9s.9.4.9.9v20.6c0,2.9,2.4,5.3,5.3,5.3h0c2.9,0,5.3-2.4,5.3-5.3v-46.3s.7-15.9-4.3-15.9Z"/>
  </g>
  <g>
    <path class="st0" d="M73.3,208.6v25.7h23.2v-25.7h-23.2ZM93.6,231.3h-17.2v-19.7h17.2v19.7Z"/>
    <g>
      <path class="st3" d="M90.2,210.1c0-.8,0-1.7,0-2.5,0-2.2-1.8-4-4-4s-4,1.8-4,4,0,1.7,0,2.5h8Z"/>
      <path class="st3" d="M74.8,221c-.4,0-.9,0-1.3,0h-14c-2.2,0-4,1.8-4,4s1.8,4,4,4h14c.4,0,.8,0,1.3,0v-8Z"/>
    </g>
    <circle class="st3" cx="58.9" cy="207.3" r="11.5" transform="translate(-156.4 217.3) rotate(-76.8)"/>
    <circle class="st3" cx="58.9" cy="207.3" r="11.5" transform="translate(-156.4 217.3) rotate(-76.8)"/>
    <path class="st3" d="M66.1,221.1h-14.4c-2.7,0-5.2,1.4-6.7,3.6l-10.7,16.2c-1.2,1.8-.7,4.3,1.1,5.5h0c1.8,1.2,4.3.7,5.5-1.1l5.6-8.5c.3-.4.9-.2.9.3v46.1c0,2.8,2,5.2,4.8,5.5,3.2.3,5.8-2.2,5.8-5.3v-20.6c0-.5.4-.9.9-.9s.9.4.9.9v20.6c0,2.9,2.4,5.3,5.3,5.3h0c2.9,0,5.3-2.4,5.3-5.3v-46.3s.7-15.9-4.3-15.9Z"/>
  </g>
</svg>