<?xml version="1.0" encoding="UTF-8"?>
<svg id="Layer_1" xmlns="http://www.w3.org/2000/svg" xmlns:xlink="http://www.w3.org/1999/xlink" version="1.1" viewBox="0 0 490.79 571.27">
  <!-- Generator: Adobe Illustrator 29.8.2, SVG Export Plug-In . SVG Version: 2.1.1 Build 3)  -->
  <defs>
    <style>
      .st0 {
        fill: none;
      }

      .st1 {
        fill: #0c0907;
      }

      .st2 {
        fill: #6d4524;
      }

      .st3 {
        fill: #d69e46;
      }

      .st4 {
        fill: #e7cda9;
      }

      .st5 {
        fill: #db9c2f;
      }

      .st6 {
        fill: #889594;
      }

      .st7 {
        fill: #271911;
      }

      .st8 {
        fill: #9f7541;
      }

      .st9 {
        fill: #a56d3f;
      }

      .st10 {
        fill: #959049;
      }

      .st11 {
        fill: #ffff06;
      }

      .st12 {
        fill: #fc85ff;
      }

      .st13 {
        fill: #a06e4b;
      }

      .st14 {
        fill: #8ca794;
      }

      .st15 {
        fill: #976d3b;
      }

      .st16 {
        fill: #edb2be;
      }

      .st17 {
        fill: #ffcb70;
      }

      .st18 {
        fill: #c7e5da;
      }

      .st19 {
        fill: #3a2313;
      }

      .st20 {
        fill: #fff;
      }

      .st21 {
        fill: #f5cf89;
      }

      .st22 {
        fill: #f26a3b;
      }

      .st23 {
        fill: #a17443;
      }

      .st24 {
        fill: #b77f55;
      }

      .st25 {
        fill: #8b9a9f;
      }

      .st26 {
        fill: #b26c2a;
      }

      .st27 {
        fill: #96875d;
      }

      .st28 {
        fill: #c06a30;
      }

      .st29 {
        fill: #2a2520;
      }

      .st30 {
        fill: #e29f3e;
      }

      .st31 {
        clip-path: url(#clippath);
      }

      .st32 {
        fill: #894a20;
      }

      .st33 {
        fill: #443723;
      }
    </style>
    <clipPath id="clippath">
      <path class="st0" d="M16.63,368.83h455.08S542.07,66.87,254.64,66.87,18.11,368.82,16.63,368.83"/>
    </clipPath>
  </defs>
  <g>
    <path class="st11" d="M327.11,8.84l5.22,16.06c4.6,14.17,17.81,23.76,32.71,23.76h16.88c4.7,0,6.66,6.02,2.85,8.78l-13.66,9.92c-12.05,8.76-17.1,24.28-12.49,38.45l5.22,16.06c1.45,4.47-3.66,8.19-7.47,5.43l-13.66-9.92c-12.05-8.76-28.37-8.76-40.43,0l-13.66,9.92c-3.8,2.76-8.92-.95-7.47-5.43l5.22-16.06c4.6-14.17-.44-29.69-12.49-38.45l-13.66-9.92c-3.8-2.76-1.85-8.78,2.85-8.78h16.88c14.9,0,28.1-9.59,32.71-23.76l5.22-16.06c1.45-4.47,7.78-4.47,9.23,0Z"/>
    <path class="st7" d="M285.77,128.74c-1.1,0-2.19-.35-3.15-1.04-1.91-1.39-2.67-3.74-1.94-5.98l5.22-16.06c4.55-14.01-.4-29.23-12.31-37.89l-13.66-9.92c-1.91-1.39-2.67-3.74-1.94-5.98s2.73-3.7,5.09-3.7h16.88c14.73,0,27.68-9.41,32.23-23.42l5.22-16.06c.73-2.25,2.73-3.7,5.09-3.7s4.36,1.45,5.09,3.7l5.22,16.06c4.55,14.01,17.5,23.42,32.23,23.42h16.88c2.36,0,4.36,1.45,5.09,3.7s-.03,4.6-1.94,5.98l-13.66,9.92c-11.92,8.66-16.86,23.88-12.31,37.89l5.22,16.06c.73,2.25-.03,4.6-1.94,5.98-1.91,1.39-4.38,1.39-6.29,0l-13.66-9.92c-11.91-8.66-27.92-8.66-39.84,0l-13.66,9.92c-.96.69-2.05,1.04-3.15,1.04ZM263.07,49.16c-1.92,0-3.55,1.18-4.14,3.01-.59,1.83.03,3.74,1.58,4.87l13.66,9.92c12.27,8.91,17.36,24.59,12.67,39.01l-5.22,16.06c-.59,1.83.03,3.74,1.58,4.87,1.55,1.13,3.56,1.13,5.12,0l13.66-9.92c12.27-8.91,28.75-8.91,41.01,0l13.66,9.92c1.55,1.13,3.56,1.13,5.12,0,1.55-1.13,2.17-3.04,1.58-4.87l-5.22-16.06c-4.69-14.42.41-30.09,12.67-39.01l13.66-9.92c1.55-1.13,2.17-3.04,1.58-4.87s-2.22-3.01-4.14-3.01h-16.88c-15.16,0-28.5-9.69-33.18-24.11l-5.22-16.06c-.59-1.83-2.22-3.01-4.14-3.01s-3.55,1.18-4.14,3.01l-5.22,16.06c-4.69,14.42-18.02,24.11-33.18,24.11h-16.88Z"/>
  </g>
  <g class="st31">
    <g>
      <polygon class="st27" points="411.41 372.47 329.71 288.42 167.77 284.87 77.94 345.47 -33.84 386.58 411.41 372.47"/>
      <path class="st1" d="M-36.91,387.18l114.63-42.16,89.91-60.66h.16s162.15,3.56,162.15,3.56l.14.15,82.48,84.86-1.13.04-448.34,14.21ZM167.92,285.37l-89.75,60.55-.06.02-108.88,40.04,441.02-13.98-80.76-83.09-161.58-3.55Z"/>
    </g>
    <g>
      <rect class="st21" x="97.04" y="42.06" width="361.84" height="201.02"/>
      <g>
        <polygon class="st8" points="14.06 366.84 205.68 295.84 201.83 272.6 -.19 318.93 14.06 366.84"/>
        <path class="st1" d="M13.74,367.49L-.82,318.56l203.06-46.57,4,24.17-.39.14L13.74,367.49ZM.44,319.3l13.95,46.88,190.73-70.67-3.69-22.31L.44,319.3Z"/>
      </g>
      <g>
        <polygon class="st32" points="42.86 294.13 95.33 309.52 95.33 101.94 42.86 108.78 42.86 294.13"/>
        <path class="st1" d="M95.83,310.19l-53.47-15.69V108.35l53.47-6.97v208.82ZM43.36,293.75l51.47,15.1V102.51l-51.47,6.71v184.53Z"/>
      </g>
      <g>
        <polygon class="st8" points="411.41 373.11 483.26 373.11 460.81 338.46 358.8 305.1 314.32 306.39 411.41 373.11"/>
        <path class="st1" d="M484.18,373.61h-72.93l-98.48-67.68,46.1-1.33.08.03,102.18,33.42.1.15,22.95,35.42ZM411.56,372.61h70.78l-21.86-33.72-101.76-33.28-42.86,1.24,95.7,65.77Z"/>
      </g>
      <g>
        <polygon class="st15" points="411.41 372.47 426.8 372.47 310.68 305.75 309.18 312.37 411.41 372.47"/>
        <path class="st1" d="M428.68,372.97h-17.41l-.12-.07-102.54-60.28,1.73-7.65,118.34,67.99ZM411.54,371.97h13.39l-113.91-65.45-1.27,5.61,101.79,59.84Z"/>
      </g>
      <g>
        <polygon class="st15" points="-37.26 389.36 -41.54 376.53 70.35 342.55 169.64 306.03 174.88 312.37 -37.26 389.36"/>
        <path class="st1" d="M-37.57,390.01l-4.6-13.81.49-.15,111.89-33.98,99.6-36.63,5.92,7.16-213.29,77.41ZM-40.9,376.86l3.95,11.86,211-76.57-4.57-5.52-98.96,36.4-111.42,33.84Z"/>
      </g>
      <g>
        <line class="st8" x1="381.89" y1="336.54" x2="406.92" y2="337.18"/>
        <rect class="st1" x="393.91" y="324.35" width="1" height="25.03" transform="translate(47.55 722.51) rotate(-88.53)"/>
      </g>
      <g>
        <polygon class="st3" points="190.71 152.41 205.68 152.41 205.68 145.57 230.49 139.15 286.09 163.1 317.74 163.1 317.74 173.8 345.54 173.8 345.54 205.02 375.48 205.02 375.48 217 401.57 217 401.14 308.95 153.5 301.25 190.71 152.41"/>
        <path class="st1" d="M401.14,309.45s-.01,0-.02,0l-247.64-7.7c-.15,0-.29-.08-.38-.2s-.12-.28-.09-.42l37.21-148.84c.06-.22.26-.38.48-.38h14.47v-6.34c0-.23.15-.43.38-.48l24.81-6.42c.11-.03.22-.02.32.02l55.51,23.91h31.55c.28,0,.5.22.5.5v10.19h27.3c.28,0,.5.22.5.5v30.72h29.44c.28,0,.5.22.5.5v11.48h25.59c.13,0,.26.05.35.15s.15.22.15.35l-.43,91.96c0,.13-.06.26-.15.36-.09.09-.22.14-.35.14ZM154.13,300.77l246.51,7.66.42-90.94h-25.59c-.28,0-.5-.22-.5-.5v-11.48h-29.44c-.28,0-.5-.22-.5-.5v-30.72h-27.3c-.28,0-.5-.22-.5-.5v-10.19h-31.15c-.07,0-.14-.01-.2-.04l-55.45-23.88-24.27,6.28v6.46c0,.28-.22.5-.5.5h-14.58l-36.97,147.86Z"/>
      </g>
      <g>
        <path class="st10" d="M363.93,249.29s1.92-11.55,14.76-11.55c0,0,.64-20.53,11.55-17.32,0,0,3.21-17.96,10.27-10.91,0,0,17-42.02,33.36-25.66,0,0-4.49-14.76,1.28-19.89,5.77-5.13,12.83,5.13,12.83,5.13,0,0,7.06-14.76,23.74-11.55,16.68,3.21,7.7,207.23,7.7,207.23,0,0-19.89,7.06-28.23-11.55,0,0-17.96-.64-23.74-10.91,0,0-26.3,2.57-26.3-12.83,0,0-8.34,5.77-14.11-2.57,0,0-31.44,7.7-34-14.76-2.57-22.45,10.91-62.87,10.91-62.87Z"/>
        <path class="st1" d="M470.89,366.54c-6.54,0-15.17-2.27-20.04-12.84-2.48-.14-18.05-1.36-23.68-10.87-2.36.19-16.24,1.02-22.96-5.07-2.17-1.96-3.36-4.46-3.55-7.42-.88.48-2.45,1.2-4.35,1.47-2.64.38-6.41-.08-9.51-4.34-2.53.57-17.92,3.67-27.33-2.88-4-2.78-6.34-6.95-6.96-12.38-2.52-22.01,10.44-61.62,10.92-63.05.7-4.08,4.67-11.69,14.77-11.92.13-2.4.99-12.8,5.99-16.42,1.62-1.18,3.53-1.52,5.65-1.02.47-2.29,2.49-11.02,6.48-12.27,1.29-.41,2.62-.02,3.98,1.13,1.8-4.25,11.74-26.48,23.54-28.88,3.18-.65,6.23.21,9.08,2.55-1-4.08-2.95-14.45,1.88-18.74,1.36-1.21,2.91-1.73,4.6-1.52,3.82.46,7.27,4.5,8.5,6.1,1.72-2.95,9.19-13.94,23.89-11.11,7.19,1.38,10.72,36.81,10.51,105.31-.16,50.83-2.38,101.92-2.41,102.43l-.02.34-.32.11c-.09.03-3.8,1.3-8.69,1.3ZM427.72,341.78l.16.28c5.57,9.9,23.14,10.65,23.32,10.65h.31s.13.3.13.3c7.49,16.71,24.73,12.16,27.29,11.38.2-4.59,2.24-53.44,2.39-102.04.12-38.24-.98-102.64-9.7-104.32-16.11-3.1-23.12,11.13-23.19,11.27l-.37.78-.49-.71c-.04-.06-4.04-5.8-8.28-6.32-1.41-.17-2.65.25-3.81,1.27-5.47,4.86-1.18,19.23-1.14,19.37l.58,1.91-1.41-1.41c-2.96-2.96-6.14-4.12-9.46-3.45-12.25,2.49-22.98,28.68-23.09,28.94l-.28.7-.53-.53c-1.26-1.26-2.44-1.72-3.52-1.39-3.26,1.02-5.37,9.03-5.9,12.03l-.1.55-.53-.16c-2.03-.6-3.81-.35-5.31.73-5.15,3.73-5.59,16-5.6,16.12l-.02.48h-.48c-5.14,0-9.09,1.86-11.76,5.53-2,2.76-2.5,5.57-2.5,5.6l-.02.08c-.13.4-13.41,40.57-10.88,62.66.59,5.14,2.79,9.06,6.53,11.68,9.68,6.75,26.68,2.69,26.85,2.65l.33-.08.2.28c2.28,3.29,5.23,4.71,8.74,4.2,2.66-.38,4.66-1.75,4.68-1.76l.78-.54v.95c0,3.05,1.09,5.59,3.25,7.54,6.87,6.23,22.35,4.81,22.51,4.79l.33-.03Z"/>
      </g>
      <g>
        <polyline class="st15" points="415.26 298.05 415.26 103.01 424.24 106.22 424.24 296.76"/>
        <polygon class="st1" points="415.76 298.05 414.76 298.05 414.76 102.3 424.74 105.87 424.74 296.76 423.74 296.76 423.74 106.57 415.76 103.72 415.76 298.05"/>
      </g>
      <g>
        <path class="st10" d="M406.92,307.67s2.57-16.68,26.95-9.62"/>
        <path class="st1" d="M407.41,307.75l-.99-.15c.04-.23.93-5.7,6.31-9.13,5.04-3.22,12.2-3.52,21.26-.9l-.28.96c-8.77-2.54-15.65-2.28-20.43.77-5,3.18-5.87,8.4-5.88,8.45Z"/>
      </g>
      <g>
        <line class="st8" x1="414.61" y1="355.15" x2="439.64" y2="355.79"/>
        <rect class="st1" x="426.62" y="342.95" width="1" height="25.03" transform="translate(60.83 773.34) rotate(-88.53)"/>
      </g>
      <g>
        <polygon class="st28" points="196.27 216.35 196.27 110.5 94.9 101.51 95.33 309.52 193.7 297.26 196.27 216.35"/>
        <path class="st1" d="M95.33,310.02c-.12,0-.24-.04-.33-.12-.11-.09-.17-.23-.17-.37l-.43-208.01c0-.14.06-.27.16-.37.1-.09.24-.14.38-.13l101.37,8.98c.26.02.46.24.46.5v105.86s0,.01,0,.02l-2.57,80.91c0,.25-.19.45-.44.48l-98.37,12.26s-.04,0-.06,0ZM95.4,102.06l.43,206.9,97.39-12.14,2.55-80.47v-105.39l-100.37-8.89ZM196.27,216.35h.01-.01Z"/>
      </g>
      <g>
        <g>
          <polygon class="st14" points="128.12 125.61 160.91 128.74 160.91 156.4 127.84 154.98 128.12 125.61"/>
          <path class="st1" d="M161.41,156.92l-34.08-1.47.3-30.4,33.79,3.23v28.63ZM128.34,154.5l32.07,1.38v-26.68l-31.8-3.04-.27,28.34Z"/>
        </g>
        <g>
          <line class="st14" x1="145.51" y1="127.75" x2="145.66" y2="155.98"/>
          <rect class="st1" x="145.08" y="127.75" width="1" height="28.23" transform="translate(-.71 .74) rotate(-.29)"/>
        </g>
        <g>
          <line class="st14" x1="160.91" y1="136.87" x2="128.26" y2="134.59"/>
          <rect class="st1" x="144.09" y="119.37" width="1" height="32.73" transform="translate(-.89 270.5) rotate(-86)"/>
        </g>
        <g>
          <line class="st14" x1="160.96" y1="148.56" x2="128.26" y2="146.71"/>
          <rect class="st1" x="144.11" y="131.26" width="1" height="32.75" transform="translate(-10.97 283.66) rotate(-86.76)"/>
        </g>
        <g>
          <polygon class="st26" points="128.26 122.9 128.12 125.61 160.91 128.74 160.91 156.4 163.33 156.83 163.33 125.47 128.26 122.9"/>
          <path class="st1" d="M163.83,157.43l-3.42-.6v-27.62l-32.82-3.14.19-3.7,36.04,2.64v32.43ZM161.41,155.98l1.42.25v-30.3l-34.1-2.5-.09,1.72,32.77,3.13v27.69Z"/>
        </g>
      </g>
      <g>
        <g>
          <polygon class="st14" points="105.65 235.97 124.29 236.21 124.62 254.03 105.49 254.03 105.65 235.97"/>
          <path class="st1" d="M125.12,254.53h-20.14l.17-19.06,19.63.26.34,18.81ZM105.99,253.53h18.11l-.3-16.82-17.66-.23-.16,17.05Z"/>
        </g>
        <g>
          <line class="st14" x1="115.71" y1="235.92" x2="115.79" y2="254.03"/>
          <rect class="st1" x="115.25" y="235.92" width="1" height="18.11" transform="translate(-1.12 .53) rotate(-.26)"/>
        </g>
        <g>
          <line class="st14" x1="124.62" y1="244.9" x2="105.73" y2="244.59"/>
          <rect class="st1" x="114.67" y="235.3" width="1" height="18.88" transform="translate(-131.46 355.81) rotate(-89.04)"/>
        </g>
        <g>
          <polygon class="st26" points="105.73 234.4 105.65 235.97 124.29 236.21 124.62 254.03 126.02 254.03 125.7 234.32 105.73 234.4"/>
          <path class="st1" d="M126.53,254.53h-2.4l-.32-17.82-18.68-.24.13-2.56,20.93-.09.34,20.71ZM125.11,253.53h.4l-.3-18.71-19,.08-.03.58,18.61.24.32,17.81Z"/>
        </g>
      </g>
      <g>
        <g>
          <line class="st14" x1="101.8" y1="217.43" x2="145.16" y2="217.41"/>
          <rect class="st1" x="101.8" y="216.92" width="43.36" height="1"/>
        </g>
        <g>
          <line class="st14" x1="106.45" y1="209.89" x2="141.8" y2="208.94"/>
          <rect class="st1" x="106.45" y="208.92" width="35.36" height="1" transform="translate(-5.48 3.34) rotate(-1.51)"/>
        </g>
        <g>
          <line class="st14" x1="111.08" y1="201.49" x2="135.6" y2="201.41"/>
          <rect class="st1" x="111.08" y="200.95" width="24.53" height="1" transform="translate(-.79 .48) rotate(-.22)"/>
        </g>
        <g>
          <line class="st14" x1="112.64" y1="217.43" x2="112.44" y2="209.73"/>
          <rect class="st1" x="112.04" y="209.73" width="1" height="7.7" transform="translate(-5.69 3.1) rotate(-1.54)"/>
        </g>
        <g>
          <line class="st14" x1="129.46" y1="216.97" x2="129.25" y2="209.28"/>
          <rect class="st1" x="128.86" y="209.28" width="1" height="7.7" transform="translate(-5.66 3.54) rotate(-1.53)"/>
        </g>
        <g>
          <line class="st14" x1="120.98" y1="209.22" x2="120.77" y2="201.52"/>
          <rect class="st1" x="120.38" y="201.52" width="1" height="7.7" transform="translate(-5.47 3.32) rotate(-1.54)"/>
        </g>
      </g>
      <g>
        <g>
          <line class="st14" x1="124.42" y1="284.89" x2="167.77" y2="284.87"/>
          <rect class="st1" x="124.42" y="284.38" width="43.36" height="1"/>
        </g>
        <g>
          <line class="st14" x1="129.06" y1="277.35" x2="164.41" y2="276.4"/>
          <rect class="st1" x="129.06" y="276.37" width="35.36" height="1" transform="translate(-7.25 3.96) rotate(-1.51)"/>
        </g>
        <g>
          <line class="st14" x1="133.69" y1="268.95" x2="158.22" y2="268.86"/>
          <rect class="st1" x="133.69" y="268.41" width="24.53" height="1" transform="translate(-1.05 .57) rotate(-.22)"/>
        </g>
        <g>
          <line class="st14" x1="135.25" y1="284.88" x2="135.05" y2="277.19"/>
          <rect class="st1" x="134.65" y="277.18" width="1" height="7.7" transform="translate(-7.49 3.73) rotate(-1.54)"/>
        </g>
        <g>
          <line class="st14" x1="152.07" y1="284.43" x2="151.87" y2="276.73"/>
          <rect class="st1" x="151.47" y="276.73" width="1" height="7.7" transform="translate(-7.45 4.17) rotate(-1.53)"/>
        </g>
        <g>
          <line class="st14" x1="143.59" y1="276.67" x2="143.39" y2="268.98"/>
          <rect class="st1" x="142.99" y="268.97" width="1" height="7.7" transform="translate(-7.27 3.95) rotate(-1.54)"/>
        </g>
      </g>
      <g>
        <g>
          <line class="st28" x1="158.34" y1="183.21" x2="193.42" y2="186.06"/>
          <rect class="st1" x="175.38" y="167.04" width="1" height="35.19" transform="translate(-22.4 344.97) rotate(-85.35)"/>
        </g>
        <g>
          <line class="st28" x1="172.03" y1="175.22" x2="193.42" y2="177.22"/>
          <rect class="st1" x="182.22" y="165.48" width="1" height="21.48" transform="translate(-9.71 341.78) rotate(-84.67)"/>
        </g>
        <g>
          <line class="st28" x1="170.04" y1="167.52" x2="193.13" y2="169.23"/>
          <rect class="st1" x="181.08" y="156.8" width="1" height="23.16" transform="translate(.25 337.03) rotate(-85.76)"/>
        </g>
        <g>
          <line class="st28" x1="175.74" y1="159.54" x2="192.85" y2="160.68"/>
          <rect class="st1" x="183.79" y="151.54" width="1" height="17.15" transform="translate(12.28 333.34) rotate(-86.19)"/>
        </g>
        <g>
          <line class="st28" x1="180.3" y1="159.82" x2="180.3" y2="167.81"/>
          <rect class="st1" x="179.8" y="159.82" width="1" height="7.98"/>
        </g>
        <g>
          <line class="st28" x1="186.29" y1="168.95" x2="186.29" y2="176.93"/>
          <rect class="st1" x="185.79" y="168.95" width="1" height="7.98"/>
        </g>
        <g>
          <line class="st28" x1="176.59" y1="184.35" x2="176.59" y2="190.62"/>
          <rect class="st1" x="176.09" y="184.35" width="1" height="6.27"/>
        </g>
      </g>
      <polygon class="st1" points="84.11 131.49 83.74 130.56 94.39 126.24 114.46 127.1 114.41 128.1 94.56 127.25 84.11 131.49"/>
      <polygon class="st1" points="121.54 120.69 94.51 119.55 88.87 120.68 88.67 119.7 94.43 118.55 121.58 119.69 121.54 120.69"/>
      <rect class="st1" x="109.09" y="120.28" width="1" height="7.61"/>
      <polygon class="st1" points="117.17 120.01 117.08 112.12 103.81 111.59 103.81 119.05 102.81 119.05 102.81 110.55 118.06 111.16 118.17 120 117.17 120.01"/>
      <g>
        <polygon class="st26" points="201.69 108.21 196.27 111.35 94.9 102.37 94.9 97.29 201.69 108.21"/>
        <path class="st1" d="M196.27,111.85s-.03,0-.04,0l-101.37-8.98c-.26-.02-.46-.24-.46-.5v-5.08c0-.14.06-.28.17-.37s.25-.14.39-.13l106.79,10.93c.22.02.39.18.44.39s-.05.43-.24.54l-5.42,3.14c-.08.04-.16.07-.25.07ZM95.4,101.91l100.75,8.93,3.95-2.28-104.7-10.72v4.07Z"/>
      </g>
      <g>
        <g>
          <polygon class="st5" points="9.22 327.49 15.49 188.91 77.08 191.19 77.65 314.66 9.22 327.49"/>
          <path class="st1" d="M8.69,328.1l6.32-139.7,62.56,2.32v.48s.57,123.88.57,123.88l-69.46,13.02ZM15.97,189.43l-6.22,137.45,67.4-12.64-.57-122.57-60.62-2.24Z"/>
        </g>
        <g>
          <polygon class="st26" points="83.64 188.34 77.08 191.19 15.49 188.91 18.63 185.49 83.64 188.34"/>
          <path class="st1" d="M77.08,191.69s-.01,0-.02,0l-61.59-2.28c-.19,0-.37-.13-.44-.31s-.04-.39.09-.53l3.14-3.42c.1-.11.24-.17.39-.16l65.01,2.85c.23.01.43.18.47.41.04.23-.08.46-.29.55l-6.56,2.85c-.06.03-.13.04-.2.04ZM16.59,188.45l60.4,2.24,4.47-1.94-62.62-2.75-2.25,2.45Z"/>
        </g>
        <g>
          <polygon class="st23" points="83.92 182.92 83.64 188.34 18.63 185.49 18.34 179.78 83.92 182.92"/>
          <path class="st1" d="M84.11,188.86l-65.96-2.89-.34-6.71,66.63,3.19-.34,6.41ZM19.1,185.01l64.06,2.81.23-4.42-64.53-3.09.23,4.7Z"/>
        </g>
        <g>
          <polygon class="st26" points="28.61 303.18 35.66 305.1 35.02 314.09 41.44 316.65 41.65 326.7 27.96 323.92 28.61 303.18"/>
          <path class="st1" d="M41.65,327.2s-.07,0-.1,0l-13.69-2.78c-.24-.05-.41-.26-.4-.51l.64-20.74c0-.15.08-.3.2-.39s.28-.12.43-.08l7.06,1.92c.23.06.38.28.37.52l-.62,8.62,6.08,2.43c.19.07.31.25.31.45l.21,10.05c0,.15-.06.3-.18.39-.09.08-.2.12-.32.12ZM28.48,323.52l12.66,2.57-.19-9.1-6.11-2.44c-.2-.08-.33-.28-.31-.5l.61-8.57-6.05-1.65-.61,19.69Z"/>
        </g>
        <g>
          <polygon class="st23" points="73.52 319 41.65 326.7 41.44 316.65 73.09 310.66 73.52 319"/>
          <path class="st1" d="M41.65,327.2c-.11,0-.22-.04-.31-.1-.12-.09-.19-.23-.19-.39l-.21-10.05c0-.24.17-.46.41-.5l31.65-5.99c.14-.03.29,0,.4.1.11.09.18.22.19.37l.43,8.34c.01.24-.15.46-.38.51l-31.86,7.7s-.08.01-.12.01ZM41.95,317.06l.19,9.01,30.86-7.46-.38-7.35-30.67,5.8Z"/>
        </g>
        <g>
          <polygon class="st28" points="73.09 310.66 65.6 308.31 35.02 314.09 41.44 316.65 73.09 310.66"/>
          <path class="st1" d="M41.44,317.15c-.06,0-.13-.01-.19-.04l-6.42-2.57c-.21-.08-.33-.29-.31-.51s.19-.4.4-.44l30.58-5.77c.08-.02.16-.01.24.01l7.48,2.35c.22.07.36.28.35.51-.01.23-.18.42-.41.46l-31.65,5.99s-.06,0-.09,0ZM36.8,314.26l4.69,1.88,29.55-5.59-5.46-1.72-28.77,5.43Z"/>
        </g>
        <g>
          <polygon class="st23" points="65.6 308.31 66.67 301.04 35.66 305.1 35.02 314.09 65.6 308.31"/>
          <path class="st1" d="M35.02,314.59c-.12,0-.24-.04-.33-.13-.12-.1-.18-.25-.17-.41l.64-8.98c.02-.24.2-.43.43-.46l31.01-4.06c.16-.02.31.03.42.15.11.11.16.27.14.42l-1.07,7.27c-.03.21-.19.38-.4.42l-30.58,5.77s-.06,0-.09,0ZM36.13,305.55l-.57,7.93,29.59-5.59.92-6.26-29.95,3.92ZM65.6,308.31h0,0Z"/>
        </g>
        <g>
          <polygon class="st28" points="35.66 305.1 66.67 301.04 60.9 299.12 28.61 303.18 35.66 305.1"/>
          <path class="st1" d="M35.66,305.6s-.09,0-.13-.02l-7.06-1.92c-.23-.06-.38-.28-.37-.52.02-.24.2-.43.44-.46l32.29-4.06c.07,0,.15,0,.22.02l5.77,1.92c.22.07.36.29.34.52-.02.23-.2.42-.43.45l-31.01,4.06s-.04,0-.06,0ZM31.17,303.36l4.53,1.23,28.75-3.77-3.6-1.2-29.68,3.73Z"/>
        </g>
        <g>
          <polygon class="st28" points="28.61 303.18 28.61 230.9 54.91 231.11 55.12 299.54 28.61 303.18"/>
          <path class="st1" d="M28.61,303.68c-.12,0-.24-.04-.33-.12-.11-.1-.17-.23-.17-.38v-72.28c0-.13.05-.26.15-.35s.26-.15.36-.15l26.3.21c.27,0,.5.22.5.5l.21,68.43c0,.25-.18.46-.43.5l-26.52,3.64s-.05,0-.07,0ZM29.11,231.4v71.21l25.52-3.5-.21-67.5-25.31-.21Z"/>
        </g>
        <g>
          <rect class="st19" x="47.92" y="265.04" width="1.5" height="7.27" rx=".75" ry=".75" transform="translate(-220 317.35) rotate(-90)"/>
          <path class="st1" d="M51.56,269.93h-5.77c-.69,0-1.25-.56-1.25-1.25s.56-1.25,1.25-1.25h5.77c.69,0,1.25.56,1.25,1.25s-.56,1.25-1.25,1.25ZM45.79,268.43c-.14,0-.25.11-.25.25s.11.25.25.25h5.77c.14,0,.25-.11.25-.25s-.11-.25-.25-.25h-5.77Z"/>
        </g>
        <g>
          <polygon class="st23" points="28.61 230.9 28.61 225.55 60.9 226.19 60.9 299.12 55.12 299.54 54.91 231.11 28.61 230.9"/>
          <path class="st1" d="M54.63,300.08l-.21-68.48-26.31-.21v-6.35l33.29.66v73.88l-6.77.5ZM29.11,230.4l26.3.21.21,68.39,4.78-.35v-71.97l-31.29-.62v4.34Z"/>
        </g>
      </g>
      <g>
        <polygon class="st26" points="95.33 101.94 95.33 97.29 42.58 104.36 42.58 108.78 95.33 101.94"/>
        <path class="st1" d="M42.08,109.35v-5.43l53.75-7.21v5.67l-53.75,6.97ZM43.08,104.8v3.41l51.75-6.71v-3.64l-51.75,6.94Z"/>
      </g>
      <g>
        <polygon class="st32" points="201.69 103.65 201.69 108.21 94.9 97.29 42.58 104.36 42.58 99.52 95.33 92.39 201.69 103.65"/>
        <path class="st1" d="M201.69,108.71s-.03,0-.05,0l-106.73-10.92-52.26,7.07c-.14.02-.29-.02-.4-.12-.11-.09-.17-.23-.17-.38v-4.85c0-.25.19-.46.43-.5l52.75-7.13s.08,0,.12,0l106.36,11.26c.25.03.45.24.45.5v4.56c0,.14-.06.28-.17.37-.09.08-.21.13-.33.13ZM94.9,96.79s.03,0,.05,0l106.23,10.87v-3.56l-105.85-11.21-52.26,7.06v3.84l51.76-7s.04,0,.07,0Z"/>
      </g>
      <path class="st1" d="M268.94,151.81c-2.55,0-5.11-.06-7.68-.19-.28-.01-.49-.25-.48-.52s.25-.5.52-.48c77.6,3.81,148.23-51.94,148.93-52.5.22-.17.53-.14.7.08.17.22.14.53-.08.7-.68.55-67.03,52.9-141.92,52.9Z"/>
      <path class="st1" d="M274.97,148.21c-.23,0-.44-.16-.49-.39-.06-.27.11-.54.38-.6,48.11-10.55,112.53-53.39,113.17-53.82.23-.15.54-.09.69.14.15.23.09.54-.14.69-.65.43-65.22,43.37-113.51,53.96-.04,0-.07.01-.11.01Z"/>
      <path class="st1" d="M296.77,99.32c-36.66,0-86.99-5.15-140.46-25.99-.26-.1-.38-.39-.28-.65.1-.26.39-.38.65-.28,61.11,23.83,118.12,27.09,155.18,25.63,35.68-1.4,60.23-7.33,65.44-8.69l-4.48-3.1c-72.46,18.5-185.83-18.51-186.97-18.89-.26-.09-.4-.37-.32-.63.09-.26.37-.41.63-.32,1.14.38,114.47,37.38,186.63,18.81.14-.04.29,0,.41.07l5.56,3.85c.16.11.24.3.21.49s-.17.35-.36.4c-.26.07-26.4,7.41-66.68,9-4.74.19-9.8.3-15.16.3Z"/>
    </g>
  </g>
  <path class="st1" d="M472.11,369.33H16.63v-.5s-.47-.12-.47-.12c.03-.25-.12-1.78-.32-3.71-1.22-12.18-4.94-49.26.72-93.81,7.19-56.63,26.43-102.58,57.2-136.59,40.96-45.27,101.82-68.23,180.88-68.23s141.56,24.18,179.42,71.87c36.71,46.24,45.12,106.51,45.71,148.93.64,45.94-7.49,81.42-7.58,81.77l-.09.39ZM17.15,368.33h454.16c.88-3.97,8.07-37.92,7.46-81.17-.59-42.26-8.97-102.29-45.5-148.3-37.66-47.44-97.76-71.49-178.63-71.49s-139.37,22.84-180.14,67.9c-30.63,33.86-49.79,79.63-56.95,136.05-5.64,44.44-1.93,81.43-.71,93.58.19,1.88.29,2.87.32,3.43Z"/>
  <g>
    <line class="st8" x1="19.62" y1="340.18" x2="44" y2="340.6"/>
    <rect class="st1" x="31.31" y="328.2" width="1" height="24.38" transform="translate(-309.08 366.23) rotate(-88.99)"/>
  </g>
  <g>
    <line class="st8" x1="79.93" y1="321.36" x2="104.31" y2="321.78"/>
    <rect class="st1" x="91.62" y="309.38" width="1" height="24.38" transform="translate(-231.02 408.04) rotate(-88.99)"/>
  </g>
  <g>
    <path class="st4" d="M212.52,468.92s-101.8,9.41-85.54,58.17c16.25,48.76,107.78,14.54,152.26,14.54s96.66,32.51,121.47-17.96c24.81-50.47-108.64-76.99-188.19-54.75Z"/>
    <path class="st1" d="M177.33,553.84c-24.17,0-43.96-6.02-50.82-26.6-3.08-9.25-2.15-17.76,2.77-25.29,5.13-7.86,17.69-18.93,48.39-27.1,17.83-4.74,33.8-6.33,34.77-6.43,29.74-8.31,69.51-10.21,106.41-5.09,37.82,5.25,66.54,16.71,78.79,31.46,7.44,8.95,8.62,18.74,3.54,29.09-17.89,36.41-49.45,30.13-82.86,23.49-12.99-2.58-26.41-5.25-39.06-5.25s-27.78,2.55-44.38,5.26c-19.25,3.14-39.6,6.45-57.54,6.45ZM277.28,461.5c-23.37,0-45.98,2.68-64.62,7.89l-.09.02c-.16.01-16.43,1.56-34.66,6.41-16.77,4.46-38.68,12.71-47.79,26.68-4.75,7.27-5.64,15.49-2.66,24.43,11.68,35.05,62.46,26.77,107.25,19.47,16.64-2.71,32.36-5.27,44.54-5.27s26.22,2.68,39.26,5.27c33.02,6.56,64.21,12.76,81.76-22.95,4.9-9.97,3.75-19.39-3.41-28.01-12.09-14.55-40.58-25.89-78.16-31.1-13.63-1.89-27.66-2.82-41.42-2.82Z"/>
  </g>
  <g>
    <path class="st12" d="M147.85,320.25l5.22,16.06c4.6,14.17,17.81,23.76,32.71,23.76h16.88c4.7,0,6.66,6.02,2.85,8.78l-13.66,9.92c-12.05,8.76-17.1,24.28-12.49,38.45l5.22,16.06c1.45,4.47-3.66,8.19-7.47,5.43l-13.66-9.92c-12.05-8.76-28.37-8.76-40.43,0l-13.66,9.92c-3.8,2.76-8.92-.95-7.47-5.43l5.22-16.06c4.6-14.17-.44-29.69-12.49-38.45l-13.66-9.92c-3.8-2.76-1.85-8.78,2.85-8.78h16.88c14.9,0,28.1-9.59,32.71-23.76l5.22-16.06c1.45-4.47,7.78-4.47,9.23,0Z"/>
    <path class="st7" d="M179.96,440.15c-1.1,0-2.19-.35-3.15-1.04l-13.66-9.92c-11.91-8.66-27.92-8.66-39.84,0l-13.66,9.92c-1.91,1.39-4.38,1.39-6.29,0-1.91-1.39-2.67-3.74-1.94-5.98l5.22-16.06c4.55-14.01-.4-29.23-12.31-37.89l-13.66-9.92c-1.91-1.39-2.67-3.74-1.94-5.98s2.73-3.7,5.09-3.7h16.88c14.73,0,27.68-9.41,32.23-23.42l5.22-16.06c.73-2.25,2.73-3.7,5.09-3.7s4.36,1.45,5.09,3.7l5.22,16.06c4.55,14.01,17.5,23.42,32.23,23.42h16.88c2.36,0,4.36,1.45,5.09,3.7s-.03,4.6-1.94,5.98l-13.66,9.92c-11.91,8.66-16.86,23.88-12.31,37.89l5.22,16.06c.73,2.25-.03,4.59-1.94,5.98-.96.7-2.05,1.04-3.15,1.04ZM143.23,421.69c7.19,0,14.37,2.23,20.51,6.68l13.66,9.92c1.55,1.13,3.56,1.13,5.12,0,1.55-1.13,2.17-3.04,1.58-4.87l-5.22-16.06c-4.69-14.42.41-30.09,12.67-39.01l13.66-9.92c1.55-1.13,2.17-3.04,1.58-4.87-.59-1.83-2.22-3.01-4.14-3.01h-16.88c-15.16,0-28.5-9.69-33.18-24.11l-5.22-16.06c-.59-1.83-2.22-3.01-4.14-3.01s-3.55,1.18-4.14,3.01l-5.22,16.06c-4.69,14.42-18.02,24.11-33.18,24.11h-16.88c-1.92,0-3.55,1.18-4.14,3.01-.59,1.83.03,3.74,1.58,4.87l13.66,9.92c12.27,8.91,17.36,24.59,12.67,39.01l-5.22,16.06c-.59,1.83.03,3.74,1.58,4.87,1.55,1.13,3.56,1.13,5.12,0l13.66-9.92c6.13-4.46,13.32-6.68,20.51-6.68Z"/>
  </g>
  <g>
    <g>
      <g>
        <path class="st17" d="M279.69,496.08s-10.27,9.84.43,18.39c10.69,8.55,33.79,9.41,42.34,13.26,8.55,3.85,26.52,7.27,40.63,2.57,14.11-4.7,33.79-11.98,13.26-30.8-20.53-18.82-96.66-3.42-96.66-3.42Z"/>
        <path class="st1" d="M347.63,533.09c-10.29,0-20.06-2.51-25.37-4.9-3.08-1.39-8.06-2.38-13.83-3.52-9.69-1.92-21.75-4.31-28.62-9.81-3.2-2.56-4.9-5.5-5.04-8.73-.25-5.71,4.38-10.22,4.58-10.41l.1-.1.14-.03c.19-.04,19.31-3.87,40.7-5.35,28.81-2,47.78,1,56.4,8.9,6.98,6.39,9.86,11.87,8.83,16.73-1.59,7.44-11.87,11.44-22.27,14.91-4.99,1.66-10.37,2.32-15.62,2.32ZM279.94,496.54c-.66.68-4.39,4.74-4.18,9.55.13,2.93,1.7,5.62,4.67,7.99,6.68,5.34,18.6,7.71,28.19,9.61,5.83,1.16,10.86,2.15,14.05,3.59,7.88,3.55,25.78,7.38,40.27,2.55,7.48-2.49,20-6.67,21.6-14.17.94-4.42-1.92-9.73-8.52-15.78-19.68-18.04-92.3-4.07-96.08-3.33Z"/>
      </g>
      <g>
        <g>
          <path class="st22" d="M354.3,180.4s26.53-11.67,27.74,9.01c1.54,26.21-45.87,24.3-45.87,24.3,0,0-28.22-38.07-3.91-48.48,21.24-9.09,22.03,15.17,22.03,15.17Z"/>
          <path class="st1" d="M338.24,214.23c-1.3,0-2.05-.03-2.08-.03h-.24s-.14-.2-.14-.2c-.04-.06-4.38-5.94-8.16-13.61-5.1-10.34-6.81-18.83-5.08-25.23,1.28-4.75,4.49-8.25,9.53-10.4,6.24-2.67,11.39-2.77,15.29-.28,6.05,3.85,7.18,12.6,7.39,15.18,2.96-1.19,14.97-5.56,22.27-1.09,3.36,2.05,5.21,5.69,5.52,10.81.32,5.39-1.38,10.02-5.06,13.76-6.23,6.34-17.15,9.01-25.21,10.13-5.94.83-11.25.96-14.04.96ZM336.44,213.21c2.81.07,29.33.44,40.34-10.77,3.46-3.53,5.07-7.9,4.77-13-.28-4.77-1.98-8.14-5.04-10.01-7.75-4.74-21.86,1.37-22.01,1.43l-.68.3-.02-.74c0-.11-.44-10.93-6.98-15.09-3.61-2.3-8.44-2.17-14.36.36-4.75,2.03-7.76,5.31-8.96,9.75-3.79,14,11.3,35.51,12.94,37.78Z"/>
        </g>
        <g>
          <path class="st9" d="M271.57,412.68s11.41,64.73,9.98,67.86c-1.43,3.14-14.26,21.1,5.99,28.23,20.24,7.13,50.75,16.54,55.32,16.54s12.26,3.42,16.25-3.42c0,0,10.27,1.71,10.27-4.28,0,0,4.85,2,8.55-2.85,0,0,7.13-1.43,5.7-8.55-1.43-7.13-13.97-14.54-21.1-16.82-7.13-2.28-25.38-10.84-25.66-17.11-.29-6.27-5.13-68.43-5.13-68.43l-60.16,8.84Z"/>
          <path class="st1" d="M351.21,526.67c-1.64,0-3.3-.25-4.82-.48-1.29-.2-2.51-.38-3.54-.38-4.89,0-36.54-9.9-55.48-16.57-5.67-2-9.32-5.04-10.83-9.04-2.63-6.94,1.88-15.03,3.81-18.48.33-.6.6-1.07.74-1.39.99-2.24-5.45-41.64-10.02-67.57l-.09-.51.51-.08,60.69-8.92.04.53c.05.62,4.85,62.24,5.13,68.45.11,2.51,3.67,5.93,10.02,9.64,5.5,3.22,11.79,5.89,15.3,7.01,6.5,2.08,19.89,9.49,21.44,17.2,1.37,6.85-4.74,8.79-5.9,9.1-3.06,3.88-6.88,3.44-8.38,3.07-.14,1.09-.62,1.99-1.44,2.69-2.56,2.17-7.65,1.66-9.02,1.47-2.11,3.39-5.12,4.24-8.15,4.24ZM272.15,413.1c1.52,8.65,11.27,64.53,9.85,67.65-.16.34-.43.84-.78,1.46-1.86,3.33-6.21,11.12-3.75,17.63,1.4,3.71,4.85,6.56,10.23,8.45,20.67,7.28,50.78,16.51,55.15,16.51,1.1,0,2.36.19,3.69.39,4.33.65,9.24,1.39,12.13-3.56l.17-.3.34.06c.06.01,6,.97,8.55-1.2.76-.64,1.13-1.49,1.13-2.58v-.74l.69.28c.18.08,4.55,1.78,7.97-2.69l.11-.15.18-.04c.27-.05,6.62-1.42,5.31-7.97-1.39-6.97-14.06-14.3-20.76-16.44-7.28-2.33-25.71-10.98-26.01-17.56-.27-5.88-4.62-61.79-5.09-67.88l-59.13,8.69Z"/>
        </g>
        <path class="st1" d="M359.59,522l-.97-.23c.85-3.52.35-6.49-1.48-8.84-4.66-5.99-16.45-6.22-16.57-6.22v-1c.52,0,12.41.23,17.36,6.6,2.03,2.61,2.59,5.87,1.67,9.7Z"/>
        <path class="st1" d="M369.85,518.31l-.96-.27c2.97-10.8-13.19-15.88-13.35-15.93l.29-.96c.17.05,17.25,5.41,14.02,17.15Z"/>
        <path class="st1" d="M378.12,515.18l-.96-.27c2.97-10.8-13.19-15.88-13.35-15.93l.29-.96c.17.05,17.25,5.41,14.02,17.15Z"/>
        <g>
          <path class="st18" d="M355.75,511.1c-3.38-1.94-7.17,1.95-4.99,5.18.03.05.06.09.1.14,3.35,4.77,10.14,5.51,10.32,1.05.11-2.64-2.93-4.94-5.43-6.37Z"/>
          <path class="st1" d="M357.83,520.93c-2.36,0-5.39-1.39-7.38-4.23l-.1-.15c-1.1-1.64-.95-3.64.41-5.09,1.15-1.24,3.22-1.96,5.25-.8h0c2.66,1.52,5.8,3.95,5.68,6.83-.07,1.63-.97,2.82-2.47,3.26-.42.12-.89.19-1.38.19ZM353.87,511.07c-.99,0-1.85.5-2.38,1.07-.78.83-1.32,2.34-.31,3.85l.09.14c2.12,3.02,5.63,4.25,7.66,3.66,1.1-.32,1.7-1.13,1.75-2.34.1-2.38-2.76-4.53-5.18-5.92h0c-.57-.32-1.12-.46-1.64-.46Z"/>
        </g>
        <g>
          <path class="st18" d="M367.05,508.77c-2.68-1.76-5.95,1.26-4.31,4.03.02.04.05.08.07.12,2.52,4.09,8.04,5.03,8.4,1.36.21-2.17-2.18-4.21-4.15-5.51Z"/>
          <path class="st1" d="M368.58,517.07c-2,0-4.61-1.31-6.2-3.89l-.08-.14c-.85-1.44-.62-3.13.6-4.29,1.02-.98,2.79-1.47,4.42-.4h0c2.13,1.4,4.61,3.57,4.38,5.98-.13,1.38-.95,2.35-2.24,2.65-.27.06-.57.1-.88.1ZM365.37,508.74c-.72,0-1.35.33-1.78.73-.66.63-1.17,1.81-.42,3.07l.07.11c1.58,2.56,4.34,3.73,6,3.35.87-.2,1.38-.81,1.47-1.77.2-2.02-2.38-4.03-3.93-5.05-.48-.32-.96-.44-1.41-.44Z"/>
        </g>
        <g>
          <path class="st18" d="M374.46,504.49c-2.68-1.76-5.95,1.26-4.31,4.03.02.04.05.08.07.12,2.52,4.09,8.04,5.03,8.4,1.36.21-2.17-2.18-4.21-4.15-5.51Z"/>
          <path class="st1" d="M376,512.8c-2,0-4.61-1.31-6.2-3.89l-.06-.09c-.88-1.49-.65-3.18.57-4.34,1.02-.97,2.79-1.48,4.42-.4h0c2.12,1.4,4.61,3.57,4.38,5.98-.13,1.38-.95,2.35-2.24,2.65-.27.06-.57.1-.88.1ZM372.78,504.47c-.72,0-1.35.33-1.78.73-.66.63-1.17,1.81-.42,3.07l.07.11c1.58,2.56,4.34,3.73,6,3.35.87-.2,1.38-.81,1.47-1.77.19-2.02-2.38-4.03-3.93-5.05-.48-.32-.96-.45-1.41-.45Z"/>
        </g>
        <g>
          <path class="st18" d="M380.94,500.24c-2.05-1.35-4.56.97-3.31,3.09.02.03.04.06.06.09,1.93,3.14,6.16,3.86,6.43,1.05.16-1.67-1.67-3.23-3.18-4.22Z"/>
          <path class="st1" d="M382.12,506.72c-1.57,0-3.61-1.02-4.85-3.04l-.06-.1c-.68-1.14-.48-2.52.48-3.44.82-.78,2.23-1.18,3.53-.32h0c1.66,1.09,3.59,2.79,3.41,4.69-.11,1.11-.77,1.89-1.81,2.13-.22.05-.45.08-.7.08ZM379.65,500.34c-.52,0-.98.24-1.28.53-.48.45-.84,1.3-.31,2.21l.05.09c1.18,1.92,3.24,2.8,4.47,2.51.62-.14.97-.56,1.04-1.25.14-1.48-1.79-2.99-2.96-3.76h0c-.35-.23-.69-.32-1.02-.32Z"/>
        </g>
        <g>
          <path class="st17" d="M320.33,524.31s-2.57-21.81,31.22-40.2l-11.55-6.84s-29.51,11.98-31.65,39.78"/>
          <path class="st1" d="M319.83,524.37c-.03-.22-2.18-22.02,30.71-40.28l-10.58-6.27c-2.73,1.19-29.12,13.37-31.12,39.26l-1-.08c2.14-27.79,31.66-40.08,31.96-40.2l.23-.09,12.52,7.42-.77.42c-33.11,18.02-30.99,39.49-30.97,39.71l-.99.12Z"/>
        </g>
      </g>
      <g>
        <path class="st17" d="M247.93,496.94s10.27,9.84-.43,18.39c-10.69,8.55-33.79,9.41-42.34,13.26s-26.52,7.27-40.63,2.57c-14.11-4.7-33.79-11.98-13.26-30.8,20.53-18.82,96.66-3.42,96.66-3.42Z"/>
        <path class="st1" d="M179.99,533.95c-5.25,0-10.64-.66-15.62-2.32-10.4-3.47-20.68-7.47-22.27-14.91-1.04-4.86,1.85-10.33,8.83-16.73,8.62-7.9,27.6-10.9,56.4-8.9,21.38,1.48,40.51,5.32,40.7,5.35l.14.03.1.1c.2.19,4.84,4.7,4.58,10.41-.14,3.23-1.84,6.17-5.04,8.73-6.87,5.5-18.93,7.88-28.62,9.81-5.77,1.14-10.75,2.13-13.83,3.52-5.31,2.39-15.09,4.9-25.37,4.9ZM191.36,491.54c-16.48,0-32.11,2.18-39.76,9.19-6.6,6.05-9.47,11.36-8.52,15.78,1.6,7.5,14.12,11.67,21.6,14.17,14.48,4.83,32.39,1,40.27-2.55,3.19-1.43,8.22-2.43,14.05-3.59,9.58-1.9,21.51-4.26,28.19-9.61,2.96-2.37,4.54-5.06,4.67-7.99.22-4.81-3.51-8.87-4.18-9.55-2.31-.46-30.37-5.86-56.32-5.86Z"/>
      </g>
      <g>
        <g>
          <path class="st9" d="M256.05,413.53s-11.41,64.73-9.98,67.86,14.26,21.1-5.99,28.23c-20.24,7.13-50.75,16.54-55.32,16.54-4.56,0-12.26,3.42-16.25-3.42,0,0-10.27,1.71-10.27-4.28,0,0-4.85,2-8.55-2.85,0,0-7.13-1.43-5.7-8.55,1.43-7.13,13.97-14.54,21.1-16.82s25.38-10.84,25.66-17.11c.29-6.27,5.13-68.43,5.13-68.43l60.16,8.84Z"/>
          <path class="st1" d="M176.41,527.52c-3.04,0-6.04-.85-8.15-4.24-1.37.19-6.47.69-9.02-1.47-.82-.7-1.31-1.6-1.44-2.69-1.5.37-5.32.81-8.38-3.07-1.17-.3-7.28-2.24-5.91-9.1,1.54-7.71,14.94-15.12,21.44-17.2,3.51-1.12,9.8-3.8,15.3-7.01,6.35-3.71,9.9-7.13,10.02-9.64.28-6.21,5.09-67.83,5.13-68.45l.04-.53.53.08,60.67,8.92-.09.51c-4.57,25.93-11.01,65.33-10.02,67.57.14.32.41.79.74,1.39,1.93,3.45,6.44,11.53,3.81,18.48-1.51,4-5.16,7.04-10.83,9.04-18.94,6.67-50.59,16.57-55.48,16.57-1.03,0-2.25.18-3.54.38-1.52.23-3.18.48-4.82.48ZM168.77,522.19l.17.3c2.89,4.96,7.8,4.22,12.13,3.56,1.33-.2,2.59-.39,3.69-.39,4.37,0,34.48-9.23,55.15-16.51,5.38-1.89,8.82-4.74,10.23-8.45,2.46-6.51-1.89-14.3-3.75-17.63-.35-.63-.62-1.12-.78-1.46-1.42-3.12,8.33-59,9.85-67.65l-59.13-8.69c-.47,6.09-4.82,62-5.09,67.88-.3,6.59-18.73,15.23-26.01,17.56-6.7,2.14-19.37,9.47-20.76,16.44-1.31,6.56,5.04,7.91,5.31,7.97l.18.04.11.15c3.44,4.49,7.92,2.71,7.97,2.69l.69-.29v.75c0,1.09.37,1.94,1.13,2.58,2.55,2.17,8.49,1.21,8.55,1.2l.34-.06Z"/>
        </g>
        <path class="st1" d="M168.03,522.86c-.92-3.83-.36-7.09,1.67-9.7,4.96-6.37,16.84-6.6,17.35-6.6v1c-.11,0-11.9.23-16.56,6.22-1.83,2.35-2.33,5.33-1.48,8.84l-.97.23Z"/>
        <path class="st1" d="M157.77,519.17c-3.23-11.74,13.85-17.1,14.02-17.15l.29.96c-.16.05-16.32,5.12-13.35,15.93l-.96.27Z"/>
        <path class="st1" d="M149.5,516.03c-3.23-11.74,13.85-17.1,14.02-17.15l.29.96c-.16.05-16.32,5.12-13.35,15.93l-.96.27Z"/>
        <g>
          <path class="st18" d="M171.87,511.95c3.38-1.94,7.17,1.95,4.99,5.18-.03.05-.06.09-.1.14-3.35,4.77-10.14,5.51-10.32,1.05-.11-2.64,2.93-4.94,5.43-6.37Z"/>
          <path class="st1" d="M169.79,521.79c-.5,0-.96-.06-1.38-.18-1.5-.44-2.4-1.63-2.47-3.26-.12-2.88,3.02-5.3,5.68-6.82h0c2.03-1.16,4.1-.43,5.25.8,1.35,1.45,1.51,3.45.41,5.09l-.09.13c-2,2.85-5.03,4.24-7.39,4.24ZM172.12,512.39h0c-1.98,1.13-5.28,3.41-5.18,5.92.05,1.21.66,2.02,1.75,2.34,2.03.59,5.54-.63,7.66-3.66l.09-.13c1.02-1.51.47-3.02-.31-3.85-.82-.88-2.36-1.57-4.02-.62Z"/>
        </g>
        <g>
          <path class="st18" d="M160.57,509.63c2.68-1.76,5.95,1.26,4.31,4.03-.02.04-.05.08-.07.12-2.52,4.09-8.04,5.03-8.4,1.36-.21-2.17,2.18-4.21,4.15-5.51Z"/>
          <path class="st1" d="M159.04,517.93c-.31,0-.61-.03-.88-.1-1.29-.3-2.11-1.26-2.24-2.65-.23-2.41,2.25-4.58,4.38-5.98h0c1.64-1.08,3.4-.58,4.42.4,1.22,1.16,1.45,2.85.6,4.3l-.08.13c-1.59,2.58-4.2,3.89-6.2,3.89ZM160.85,510.04h0c-1.55,1.02-4.13,3.03-3.93,5.05.09.95.6,1.57,1.47,1.77,1.66.39,4.42-.79,6-3.35l.07-.11c.74-1.26.24-2.44-.42-3.07-.68-.65-1.92-1.12-3.18-.29Z"/>
        </g>
        <g>
          <path class="st18" d="M153.16,505.35c2.68-1.76,5.95,1.26,4.31,4.03-.02.04-.05.08-.07.12-2.52,4.09-8.04,5.03-8.4,1.36-.21-2.17,2.18-4.21,4.15-5.51Z"/>
          <path class="st1" d="M151.62,513.65c-.31,0-.61-.03-.88-.1-1.29-.3-2.11-1.26-2.24-2.65-.23-2.41,2.25-4.58,4.38-5.98h0c1.64-1.08,3.4-.58,4.42.4,1.22,1.16,1.45,2.85.6,4.3l-.08.13c-1.59,2.58-4.2,3.89-6.2,3.89ZM154.84,505.32c-.45,0-.93.13-1.41.45h0c-1.55,1.02-4.13,3.03-3.93,5.05.09.95.6,1.57,1.47,1.77,1.66.39,4.43-.79,6-3.35l.07-.11c.74-1.26.24-2.44-.42-3.07-.42-.4-1.06-.73-1.77-.73Z"/>
        </g>
        <g>
          <path class="st18" d="M146.68,501.1c2.05-1.35,4.56.97,3.31,3.09-.02.03-.04.06-.06.09-1.93,3.14-6.16,3.86-6.43,1.05-.16-1.67,1.67-3.23,3.18-4.22Z"/>
          <path class="st1" d="M145.5,507.57c-.25,0-.48-.03-.7-.08-1.04-.24-1.7-1.02-1.81-2.13-.18-1.9,1.75-3.6,3.41-4.69,1.31-.86,2.72-.46,3.53.32.96.92,1.15,2.3.48,3.44l-.06.1c-1.24,2.01-3.29,3.04-4.86,3.04ZM147.97,501.19c-.32,0-.67.09-1.02.32h0c-2.01,1.32-3.07,2.66-2.96,3.76.07.69.42,1.11,1.04,1.25,1.24.29,3.29-.59,4.47-2.51l.05-.09c.53-.9.17-1.75-.31-2.21-.3-.29-.76-.53-1.28-.53Z"/>
        </g>
        <g>
          <path class="st17" d="M207.29,525.17s2.57-21.81-31.22-40.2l11.55-6.84s29.51,11.98,31.65,39.78"/>
          <path class="st1" d="M207.79,525.23l-.99-.12c.02-.21,2.09-21.71-30.97-39.71l-.77-.42,12.52-7.42.23.09c.3.12,29.82,12.41,31.96,40.2l-1,.08c-1.99-25.89-28.39-38.07-31.11-39.26l-10.58,6.27c17.03,9.45,24.48,19.77,27.73,26.81,3.6,7.79,3.01,13.25,2.98,13.47Z"/>
        </g>
      </g>
      <g>
        <g>
          <g>
            <path class="st6" d="M191.16,322c-5.99,23.52-22.67,117.19-22.67,117.19,0,0,46.62,14.97,99.66,14.97s91.53-17.54,91.53-17.54c0,0-35.93-149.27-44.05-160.39"/>
            <path class="st1" d="M268.15,454.67c-52.51,0-99.34-14.84-99.81-14.99l-.42-.13.08-.43c.17-.94,16.75-93.96,22.68-117.23l.97.25c-5.71,22.42-21.34,109.77-22.58,116.72,4.77,1.47,49.38,14.82,99.09,14.82s86.82-15.54,90.95-17.33c-2.09-8.66-36.11-149.18-43.87-159.81l.81-.59c8.09,11.07,42.67,154.47,44.14,160.57l.1.4-.38.17c-.39.18-39.2,17.58-91.74,17.58Z"/>
          </g>
          <g>
            <path class="st16" d="M326.7,269.09c-8.13-11.12-33.32-74.98-33.32-74.98h-72.28l-20.1,62.45.64,4.81s-4.49,37.1-10.48,60.63h147.51l-11.98-52.91Z"/>
            <path class="st1" d="M339.3,322.5h-148.78l.16-.62c5.8-22.77,10.25-58.76,10.46-60.5l-.65-4.86,20.25-62.9h72.99l.12.32c.25.64,25.26,63.92,33.25,74.86l.08.18,12.11,53.52ZM191.8,321.5h146.25l-11.81-52.2c-7.92-10.98-31.05-69.28-33.19-74.69h-71.58l-19.96,61.99.63,4.76v.06c-.05.37-4.49,36.75-10.34,60.07Z"/>
          </g>
        </g>
        <g>
          <line class="st16" x1="209.5" y1="323.84" x2="187.26" y2="441.89"/>
          <rect class="st1" x="138.32" y="382.37" width="120.12" height="1" transform="translate(-214.65 506.75) rotate(-79.3)"/>
        </g>
        <g>
          <line class="st16" x1="262.54" y1="451.11" x2="260.26" y2="322.7"/>
          <rect class="st1" x="260.9" y="322.69" width="1" height="128.43" transform="translate(-6.83 4.7) rotate(-1.02)"/>
        </g>
        <g>
          <line class="st16" x1="313.01" y1="322.13" x2="340.38" y2="441.89"/>
          <rect class="st1" x="326.2" y="320.59" width="1" height="122.85" transform="translate(-76.91 82.4) rotate(-12.88)"/>
        </g>
        <g>
          <line class="st16" x1="204.37" y1="446.17" x2="224.9" y2="320.42"/>
          <rect class="st1" x="150.93" y="382.79" width="127.41" height="1" transform="translate(-198.08 533.79) rotate(-80.79)"/>
        </g>
        <g>
          <line class="st16" x1="230.89" y1="447.88" x2="240.87" y2="322.13"/>
          <rect class="st1" x="172.81" y="384.5" width="126.14" height="1" transform="translate(-166.77 589.3) rotate(-85.41)"/>
        </g>
        <g>
          <line class="st16" x1="291.62" y1="451.3" x2="281.36" y2="319.56"/>
          <rect class="st1" x="285.99" y="319.36" width="1" height="132.13" transform="translate(-29.08 23.42) rotate(-4.46)"/>
        </g>
        <g>
          <line class="st16" x1="315.58" y1="447.02" x2="296.76" y2="321.27"/>
          <rect class="st1" x="305.67" y="320.57" width="1" height="127.15" transform="translate(-53.49 49.55) rotate(-8.51)"/>
        </g>
      </g>
      <path class="st1" d="M251.4,286c-19.07,0-33.82-3.66-34.06-3.72l.25-.97c.4.1,40.66,10.07,74.11-3.19l.37.93c-13.46,5.33-28.02,6.94-40.66,6.94Z"/>
      <g>
        <path class="st9" d="M235,174.66s5.73,11.03,1.02,20.01c0,0,7.1,45.85,23.36,45.85s14.54-49.61,14.54-49.61c0,0-1.78-14.98-.86-23.95s-38.07,7.7-38.07,7.7Z"/>
        <path class="st1" d="M259.38,241.03c-6.98,0-13.12-7.83-18.25-23.27-3.78-11.37-5.58-22.89-5.6-23.01l-.03-.16.08-.15c4.53-8.64-.97-19.44-1.02-19.55l-.25-.48.49-.21c1.31-.56,32.18-13.69,37.79-9.55.74.54,1.07,1.36.97,2.37-.91,8.81.84,23.69.85,23.84.06,1.55,1.16,37.01-8.83,47.35-1.81,1.87-3.9,2.82-6.21,2.82ZM236.54,194.76c.48,2.97,7.67,45.27,22.84,45.27,2.03,0,3.87-.85,5.49-2.52,9.7-10.04,8.57-46.22,8.56-46.58-.01-.11-1.77-15.1-.85-24.02.07-.66-.11-1.12-.57-1.46-4.2-3.09-27.18,5.59-36.32,9.46,1.06,2.26,5,11.73.86,19.84Z"/>
      </g>
      <g>
        <g>
          <g>
            <path class="st29" d="M269.89,119.17s-4.71-8.77,3.07-13.96c7.78-5.19,9.79,1.64,9.79,1.64,0,0,.18-8.8,9.24-6.91,7.14,1.49,5.94,9.73,5.94,9.73,0,0,9.25-4.71,13.49,6.5,4.24,11.21-7.5,11.06-7.5,11.06,0,0,7.13,5.57,1.79,11.23-5.34,5.66-12.22-.15-12.22-.15,0,0,1.61,4.48-4.86,3.7-13.46-1.61-18.75-22.84-18.75-22.84Z"/>
            <path class="st1" d="M290.03,142.6c-.45,0-.93-.03-1.45-.09-5.67-.68-10.79-4.93-14.8-12.28-2.83-5.2-4.2-10.28-4.36-10.88-.4-.79-4.46-9.4,3.27-14.55,2.81-1.87,5.23-2.45,7.22-1.73,1.24.45,2.06,1.32,2.58,2.1.3-1.36,1.01-3.26,2.64-4.56,1.72-1.37,4.07-1.76,6.97-1.16,6.1,1.27,6.48,7.21,6.4,9.44,1.34-.5,4.2-1.25,7.15-.11,2.74,1.06,4.85,3.49,6.26,7.21,1.33,3.51,1.27,6.33-.17,8.38-1.7,2.42-4.84,3.09-6.58,3.28,1.11,1.11,2.84,3.24,3.04,5.83.14,1.89-.56,3.68-2.1,5.31-4.36,4.63-9.72,2.01-11.91.6,0,.59-.12,1.3-.61,1.91-.68.85-1.87,1.28-3.54,1.28ZM278.15,103.77c-1.4,0-3.05.62-4.91,1.87-7.32,4.88-3.1,12.96-2.91,13.3l.04.12c.05.21,5.36,20.91,18.32,22.46,2.05.25,3.46-.04,4.08-.81.71-.88.25-2.21.25-2.22l-.61-1.73,1.4,1.18c.27.22,6.59,5.44,11.54.19,1.34-1.42,1.95-2.95,1.83-4.55-.25-3.32-3.54-5.92-3.57-5.94l-1.17-.91,1.48.02s4.91.02,6.98-2.93c1.23-1.76,1.25-4.27.05-7.45-1.3-3.44-3.21-5.67-5.67-6.63-3.54-1.38-7.09.38-7.13.4l-.86.43.14-.95c.05-.32,1.04-7.8-5.55-9.17-2.59-.54-4.66-.22-6.14.96-2.39,1.9-2.5,5.44-2.5,5.48l-.07,3.16-.91-3.03s-.7-2.26-2.72-2.99c-.44-.16-.9-.24-1.4-.24Z"/>
          </g>
          <g>
            <path class="st25" d="M266.54,117.79s7.07-7.78,17.9,8.09c8.16,11.96-.54,19.27-.54,19.27l-17.36-27.36Z"/>
            <path class="st1" d="M283.79,145.91l-17.87-28.17.26-.28c.09-.09,2.14-2.3,5.73-2.05,4.18.29,8.54,3.72,12.96,10.19,8.32,12.19-.54,19.86-.63,19.94l-.44.37ZM267.19,117.87l16.81,26.5c1.62-1.64,6.88-8.18.03-18.21-4.17-6.11-8.38-9.48-12.18-9.76-2.44-.18-4.05.94-4.67,1.47Z"/>
          </g>
          <g>
            <path class="st30" d="M226.95,172.51c0-1.96-.13-7.09-6.73-7.09s-6.25,5.47-6.11,8.66c.13,3.19,3.07,6.25,8.2,5.02s4.64-4.64,4.64-6.6Z"/>
            <path class="st7" d="M220.07,179.88c-1.93,0-3.27-.65-4.13-1.3-1.41-1.07-2.26-2.7-2.34-4.48v-.17c-.1-2.11-.24-5.3,1.65-7.27,1.11-1.16,2.78-1.74,4.96-1.74,4.8,0,7.23,2.55,7.23,7.59v.46c.04,2.02.1,5.4-5.03,6.62-.86.21-1.65.29-2.35.29ZM220.22,165.92c-1.9,0-3.33.48-4.24,1.44-1.59,1.66-1.47,4.48-1.38,6.54v.17c.07,1.48.78,2.84,1.95,3.72,1,.76,2.79,1.51,5.64.83,4.35-1.04,4.3-3.69,4.27-5.63v-.48c0-2.83-.65-6.59-6.24-6.59Z"/>
          </g>
          <g>
            <path class="st1" d="M240.52,183.75s-4.64,3.18-2.93,5.87,17.11,4.4,28.11-8.56l-25.18,2.69Z"/>
            <path d="M244.48,186.99c-4.21,0-8.69-.62-12.94-2.34-9.74-3.94-15.96-12.57-18.48-25.66-3.64-18.85,3.76-30.06,10.6-36.16,10.29-9.15,26.29-12.75,38.93-8.74,10,3.18,17.52,10.95,20.62,21.33,3.96,13.24.33,28.09-9.96,40.73l-.78-.63c10.07-12.38,13.63-26.9,9.77-39.81-3-10.06-10.28-17.59-19.97-20.67-12.12-3.85-28.08-.26-37.96,8.53-6.65,5.92-13.84,16.84-10.29,35.22,2.46,12.73,8.48,21.11,17.88,24.92,12.99,5.26,28.13.03,30.23-1.44l.57.82c-1.48,1.04-9.23,3.89-18.24,3.89Z"/>
            <g>
              <path class="st9" d="M272.86,175.85c19.88-24.44,11.99-54.15-10.43-61.27-20.53-6.52-56.06,7.23-48.89,44.32,7.5,38.78,45.63,26.07,48.89,23.79"/>
              <path class="st1" d="M244.48,186.99c-4.21,0-8.69-.62-12.94-2.34-9.74-3.94-15.96-12.57-18.48-25.66-3.64-18.85,3.76-30.06,10.6-36.16,10.29-9.15,26.29-12.75,38.93-8.74,10,3.18,17.52,10.95,20.62,21.33,3.96,13.24.33,28.09-9.96,40.73l-.78-.63c10.07-12.38,13.63-26.9,9.77-39.81-3-10.06-10.28-17.59-19.97-20.67-12.12-3.85-28.08-.26-37.96,8.53-6.65,5.92-13.84,16.84-10.29,35.22,2.46,12.73,8.48,21.11,17.88,24.92,12.99,5.26,28.13.03,30.23-1.44l.57.82c-1.48,1.04-9.23,3.89-18.24,3.89Z"/>
            </g>
            <g>
              <path class="st29" d="M284.18,144.33c-.65-13.89-8.75-25.62-21.75-29.75-14.2-4.51-35.56.68-45.02,16.58,4.91,2.22,12.25,3.68,18.79-2.48,0,0,4.89,7.5,11.73-1.63,0,0,5.87,13.36,16.95,5.87,0,0,3.46,22.89,19.3,11.42Z"/>
              <path class="st1" d="M276.08,148.04c-1.1,0-2.16-.21-3.16-.63-5.78-2.42-7.88-11.05-8.4-13.68-3,1.85-5.91,2.4-8.66,1.6-4.42-1.28-7.1-5.61-8.02-7.36-2.25,2.79-4.57,4.16-6.85,4.09-2.46-.08-4.16-1.8-4.85-2.65-6.61,5.88-13.91,4.46-18.93,2.19l-.51-.23.29-.48c9.67-16.25,31.2-21.37,45.61-16.8,12.95,4.11,21.42,15.69,22.1,30.2v.27s-.21.16-.21.16c-3.05,2.21-5.86,3.31-8.4,3.31ZM265.26,132.05l.12.78c.02.11,1.75,11.07,7.93,13.66,2.9,1.22,6.39.4,10.36-2.42-.75-13.96-8.92-25.07-21.39-29.03-13.89-4.41-34.59.43-44.15,15.87,4.82,2.05,11.63,3.12,17.72-2.62l.43-.41.33.5s1.73,2.58,4.41,2.67c2.13.08,4.31-1.39,6.51-4.32l.51-.68.34.78c.03.06,2.73,6.09,7.75,7.54,2.64.76,5.49.13,8.46-1.88l.66-.44Z"/>
            </g>
            <g>
              <path class="st9" d="M279.87,162.97s13.44,1.96,12.47-11c-.98-12.96-16.74-8.07-18.21-3.67"/>
              <path class="st1" d="M281.73,163.58c-1.09,0-1.84-.1-1.92-.12l.14-.99c.06,0,5.97.82,9.42-2.41,1.91-1.79,2.74-4.5,2.47-8.06-.44-5.83-3.87-7.46-6.68-7.81-4.43-.55-9.8,1.98-10.56,4.26l-.95-.32c.9-2.7,6.55-5.57,11.63-4.94,2.6.32,7.04,1.88,7.55,8.73.29,3.88-.65,6.86-2.79,8.87-2.54,2.37-6.13,2.78-8.32,2.78Z"/>
            </g>
            <g>
              <path class="st9" d="M280.85,155.88s2.69-4.64,6.11-5.87"/>
              <path class="st1" d="M281.28,156.13l-.87-.5c.11-.2,2.82-4.82,6.38-6.09l.34.94c-3.21,1.15-5.82,5.6-5.85,5.65Z"/>
            </g>
            <g>
              <path class="st1" d="M251.18,154.64s-.05,2.09.23,2.75-.08,1.47-.93,1.35-1.65-3.19-1.31-5.61.62-2.63,1.93-2.32-.1,2.45.08,3.84Z"/>
              <path class="st1" d="M250.64,159.25c-.08,0-.15,0-.23-.02-1.41-.2-2.06-3.88-1.74-6.18.21-1.5.41-2.28.95-2.65.46-.32,1.04-.22,1.59-.09.43.1.65.34.77.53.34.56.14,1.33-.07,2.15-.15.57-.3,1.15-.24,1.58v.04s0,.04,0,.04c-.02.82.03,2.16.19,2.54.22.52.16,1.13-.16,1.55-.25.33-.63.51-1.07.51ZM250.37,151.2c-.08,0-.15.01-.19.04-.27.19-.45,1.43-.52,1.96-.33,2.38.49,4.86.91,5.06.23.03.32-.08.34-.12.1-.13.12-.35.03-.55-.3-.7-.28-2.48-.27-2.92-.07-.61.1-1.28.27-1.92.13-.5.3-1.18.18-1.38,0-.01-.03-.05-.14-.07-.21-.05-.44-.1-.61-.1Z"/>
            </g>
            <g>
              <path class="st1" d="M229.81,154.37s-.05,2.09.23,2.75-.08,1.47-.93,1.35-1.65-3.19-1.31-5.61c.34-2.42.62-2.63,1.93-2.32s-.1,2.45.08,3.84Z"/>
              <path class="st1" d="M229.27,158.98c-.08,0-.15,0-.23-.02-1.41-.2-2.06-3.88-1.74-6.18.21-1.5.41-2.28.95-2.65.47-.32,1.04-.22,1.59-.09.43.1.65.34.77.53.34.56.14,1.33-.07,2.15-.15.57-.3,1.15-.24,1.58v.04s0,.04,0,.04c-.02.82.03,2.16.19,2.54.22.52.16,1.13-.16,1.55-.25.33-.63.51-1.07.51ZM229.01,150.93c-.08,0-.15.01-.19.04-.27.19-.45,1.43-.52,1.96-.33,2.38.49,4.86.91,5.06.23.03.32-.08.34-.12.1-.13.12-.35.04-.55-.3-.7-.28-2.48-.27-2.92-.07-.61.1-1.28.27-1.92.13-.5.3-1.18.18-1.38,0-.01-.03-.05-.14-.07-.21-.05-.44-.1-.61-.1Z"/>
            </g>
          </g>
          <g>
            <path class="st30" d="M288.43,168.35c0-1.96-.13-7.09-6.73-7.09s-6.25,5.47-6.11,8.66,3.07,6.25,8.2,5.02c5.13-1.22,4.64-4.64,4.64-6.6Z"/>
            <path class="st7" d="M281.55,175.73c-1.93,0-3.27-.65-4.13-1.3-1.41-1.07-2.26-2.7-2.34-4.48v-.17c-.1-2.11-.23-5.3,1.65-7.27,1.11-1.16,2.78-1.74,4.96-1.74,4.8,0,7.23,2.55,7.23,7.59v.46c.04,2.02.1,5.4-5.03,6.62-.86.21-1.65.29-2.35.29ZM281.69,161.76c-1.9,0-3.33.48-4.24,1.44-1.59,1.66-1.47,4.48-1.38,6.54v.17c.07,1.48.78,2.84,1.95,3.72,1,.76,2.79,1.51,5.64.83,4.35-1.04,4.3-3.69,4.27-5.63v-.48c0-2.83-.65-6.59-6.24-6.59Z"/>
          </g>
          <ellipse class="st2" cx="260.68" cy="159.43" rx="4.89" ry="3.3" transform="translate(-28.52 60.76) rotate(-12.61)"/>
          <ellipse class="st2" cx="220.35" cy="159.92" rx="4.89" ry="3.3" transform="translate(-2.42 3.39) rotate(-.88)"/>
        </g>
        <g>
          <path class="st1" d="M238.54,165.96c-.16-.01-3.92-.32-5.14-2.61-.62-1.17-.46-2.59.47-4.23.92-1.62,2.12-2.55,3.58-2.78,2.9-.45,5.68,2.12,5.79,2.23l-.68.73s-2.56-2.35-4.96-1.97c-1.14.17-2.1.94-2.86,2.28-.75,1.33-.91,2.43-.46,3.27.96,1.8,4.3,2.08,4.34,2.08l-.08,1Z"/>
          <g>
            <path class="st1" d="M246.42,149.95l-.91-.42c.89-1.91,2.05-2.96,3.45-3.12,2.55-.31,4.87,2.54,4.97,2.67l-.78.62s-2.06-2.54-4.07-2.3c-1.03.12-1.93.98-2.66,2.55Z"/>
            <path class="st1" d="M232.83,149.3c-.72-1.11-1.54-1.7-2.41-1.76-1.52-.1-2.89,1.44-2.9,1.45l-.76-.65c.07-.08,1.67-1.94,3.72-1.8,1.21.08,2.28.82,3.19,2.21l-.84.55Z"/>
          </g>
          <path class="st1" d="M241.76,173.27c-3.82-4.69-7.54-2.12-7.69-2l-.59-.81s4.62-3.26,9.05,2.18l-.78.63Z"/>
        </g>
      </g>
      <g>
        <g>
          <path class="st9" d="M216.82,226.62c-5.99,22.67-15.18,34.75-15.18,34.75,0,0-11.44,14.97-7.7,23.2,3.74,8.23,16.79,22.03,31.12,30.58,14.33,8.55,17.86,15.83,16.68,30.26-1.18,14.44-13.58,20.64-16.89,20.1-3.31-.53-2.78-4.38-2.78-4.38-6.09,5.03-12.08,2.57-12.08,2.57-8.87,7.81-14.44,1.39-14.44,1.39-5.67,3.96-12.3,1.92-16.47-4.6-4.17-6.52,1.82-10.69,1.82-10.69-4.7-3.42-7.7-13.26-7.7-13.26,0,0-62.23-28.02-34-88.75,28.23-60.73,81.91-53.68,81.91-53.68,0,0,1.71,9.84-4.28,32.51Z"/>
          <path class="st1" d="M201.46,368.08c-.21,0-.41,0-.61-.02-2.81-.19-4.67-1.65-5.37-2.31-2.51,1.64-5.27,2.22-8.01,1.67-3.37-.67-6.5-3.03-8.82-6.65-3.61-5.65.02-9.69,1.44-10.95-4.17-3.49-6.85-11.46-7.31-12.91-2.59-1.23-28.55-14.11-37.98-39.43-5.68-15.27-4.36-32.05,3.93-49.89,14.66-31.53,36.28-44.53,51.83-49.88,16.86-5.8,30.46-4.1,30.6-4.09l.36.05.06.36c.07.41,1.66,10.2-4.29,32.72-5.94,22.5-15.18,34.8-15.27,34.93-.11.15-11.22,14.83-7.64,22.69,3.57,7.85,16.41,21.7,30.92,30.36,14.2,8.48,18.15,15.66,16.92,30.73-.75,9.24-5.97,14.62-9.01,17-3.42,2.68-6.84,3.82-8.47,3.55-2.37-.38-3.12-2.31-3.23-3.84-5.25,3.79-10.2,2.52-11.45,2.1-2.94,2.52-5.84,3.8-8.62,3.8ZM195.62,364.43l.3.34s1.86,2.09,5.01,2.29c2.76.17,5.7-1.07,8.71-3.73l.23-.2.29.12c.23.09,5.8,2.27,11.58-2.49l.98-.81-.17,1.26c-.02.14-.42,3.37,2.36,3.82,1.37.21,4.53-.88,7.69-3.35,2.91-2.28,7.91-7.44,8.63-16.3,1.19-14.6-2.65-21.56-16.44-29.79-14.68-8.76-27.68-22.81-31.31-30.8-3.82-8.41,7.28-23.09,7.76-23.71.09-.12,9.21-12.28,15.1-34.58,5.25-19.89,4.54-29.94,4.32-31.92-2.3-.22-14.72-1.1-29.81,4.1-15.36,5.29-36.7,18.15-51.2,49.34-8.17,17.59-9.49,34.11-3.91,49.11,9.72,26.13,37.38,38.84,37.66,38.97l.21.09.07.22c.03.1,3,9.72,7.51,13l.57.41-.57.4c-.23.16-5.54,3.98-1.68,10.01,2.16,3.39,5.07,5.59,8.17,6.21,2.59.51,5.21-.09,7.59-1.75l.37-.26Z"/>
        </g>
        <path class="st1" d="M195.82,365.51l-.55-.83c10.3-6.83,2.17-22.18,2.08-22.33l.88-.48c.09.16,8.64,16.31-2.41,23.64Z"/>
        <path class="st1" d="M210.35,364.04l-.75-.66c9.49-10.72,2.99-23.48,2.93-23.6l.89-.46c.07.13,6.89,13.48-3.06,24.73Z"/>
        <path class="st1" d="M222.4,361.51l-.68-.74c11.66-10.73,3.5-27.26,3.42-27.42l.89-.45c.09.17,8.58,17.36-3.64,28.61Z"/>
        <g>
          <path class="st9" d="M185.17,355.79s-1.28-3.42.86-5.56c0,0-2.57,1.28-5.13-.43"/>
          <path class="st1" d="M184.7,355.97c-.05-.13-.97-2.66.09-4.85-1.08.18-2.62.14-4.18-.9l.55-.83c2.28,1.52,4.54.44,4.63.4l2.71-1.33-2.13,2.13c-1.88,1.88-.75,5-.74,5.03l-.94.35Z"/>
        </g>
      </g>
      <g>
        <g>
          <path class="st9" d="M275.15,270.24c20.8,7.71,39.54,22.57,43.28,14.34,3.74-8.23-7.7-23.2-7.7-23.2,0,0-9.2-12.08-15.18-34.75-5.99-22.67-4.28-32.51-4.28-32.51,0,0,53.68-7.06,81.91,53.68,13.51,29.06,7.27,56.22-10.59,72.84-19.47,18.12-52.75,23.73-89.34,5.69,0,0,.17,7.3-7.56,7.78-7.73.48-13.28-3.67-13.43-10.58,0,0-8.46-.7-7.4-12.47,0,0-5.52-3.38-5.06-11.27,0,0-5.87-10.72-1.17-18.42,4.7-7.7,15.72-18.84,36.52-11.13Z"/>
          <path class="st1" d="M316.97,337.9c-12.91,0-27.49-3.12-43.28-10.79-.22,1.99-1.43,7.09-7.98,7.5-4.28.27-8.04-.87-10.57-3.19-2.05-1.89-3.21-4.46-3.37-7.45-.95-.18-3.22-.81-5.04-2.97-1.92-2.28-2.72-5.54-2.4-9.69-1.13-.8-5.4-4.31-5.04-11.41-.69-1.3-5.66-11.3-1.08-18.79,4.67-7.64,15.7-19.28,37.12-11.34h0c7.22,2.68,14.2,6.22,20.36,9.34,8.92,4.52,16.61,8.42,20.32,7.13.9-.31,1.54-.92,1.97-1.86,3.58-7.87-7.53-22.55-7.64-22.69-.09-.12-9.33-12.42-15.27-34.93-5.95-22.52-4.36-32.31-4.29-32.72l.06-.36.36-.05c.13-.02,13.73-1.71,30.59,4.09,15.56,5.35,37.17,18.34,51.83,49.88,12.7,27.33,8.6,55.46-10.7,73.42-10.25,9.53-26.13,16.89-45.96,16.89ZM272.73,325.52l.74.36c39.89,19.66,72.01,9.99,88.78-5.61,18.98-17.66,22.99-45.35,10.48-72.27-14.5-31.19-35.85-44.05-51.2-49.34-15.09-5.2-27.51-4.32-29.81-4.1-.22,1.99-.94,12.04,4.32,31.92,5.89,22.3,15.01,34.46,15.1,34.58.47.62,11.58,15.3,7.76,23.71-.54,1.19-1.4,1.99-2.54,2.39-4.11,1.44-11.61-2.36-21.11-7.18-6.14-3.11-13.09-6.64-20.26-9.3-20.74-7.69-31.41,3.54-35.92,10.93-4.5,7.36,1.12,17.81,1.18,17.92l.07.13v.14c-.44,7.47,4.6,10.68,4.81,10.81l.26.16-.03.31c-.36,4,.35,7.11,2.13,9.24,2.03,2.42,4.78,2.69,4.81,2.7l.45.04v.45c.07,2.9,1.13,5.37,3.08,7.16,2.33,2.14,5.82,3.18,9.83,2.93,7.14-.45,7.1-6.99,7.09-7.27l-.02-.82Z"/>
        </g>
        <path class="st1" d="M251.75,323.56c-.6-13.25,17.48-15.87,17.67-15.9l.14.99c-.17.02-17.36,2.52-16.8,14.86l-1,.05Z"/>
        <path class="st1" d="M245.35,311.16l-.98-.21c3.21-14.67,18.01-17.04,18.16-17.07l.15.99c-.14.02-14.27,2.3-17.33,16.29Z"/>
        <path class="st1" d="M240.3,299.85l-.99-.11c1.87-16.5,20.76-19.79,20.95-19.82l.16.99c-.18.03-18.34,3.2-20.12,18.94Z"/>
        <g>
          <path class="st9" d="M265.88,326.42s3.52-.98,3.98-3.97c0,0,.48,2.83,3.37,3.89"/>
          <path class="st1" d="M266.02,326.9l-.27-.96s3.22-.94,3.62-3.57l.46-2.98.52,2.97c.02.1.48,2.56,3.05,3.51l-.34.94c-1.75-.64-2.69-1.87-3.19-2.84-1.15,2.15-3.73,2.9-3.86,2.93Z"/>
        </g>
      </g>
    </g>
    <g>
      <path class="st17" d="M274.7,221.78s-19.11,2.43-9.4,20.02"/>
      <path class="st1" d="M264.86,242.04c-3.02-5.47-3.61-10.09-1.76-13.72,2.99-5.88,11.19-6.98,11.54-7.03l.13.99c-.08.01-8.03,1.09-10.77,6.49-1.69,3.32-1.1,7.62,1.75,12.78l-.88.48Z"/>
    </g>
    <g>
      <g>
        <path class="st17" d="M274.7,221.78s-16.98,12.74-16.98,47.01c0,0,42.84,21.46,51.63,13.87,8.79-7.58,5.69-55.72-7.35-65.43-13.04-9.7-27.29,4.55-27.29,4.55Z"/>
        <path class="st1" d="M303.34,284.76c-14.65,0-44.36-14.78-45.85-15.53l-.28-.14v-.31c0-17.81,4.65-29.73,8.56-36.6,4.12-7.24,8.19-10.47,8.6-10.78.7-.68,14.95-14.22,27.92-4.57,7.83,5.82,11.9,24.34,12.47,40.12.37,10.18-.78,22.38-5.08,26.09-1.4,1.21-3.61,1.72-6.33,1.72ZM258.21,268.48c3.69,1.82,42.72,20.78,50.8,13.81,3.38-2.91,5.19-12.61,4.74-25.3-.54-15.03-4.54-33.75-12.06-39.35-12.54-9.33-26.5,4.36-26.64,4.5l-.05.05c-.17.13-16.68,12.94-16.78,46.3Z"/>
      </g>
      <g>
        <path class="st24" d="M262.57,265.45s-14.25-7.88-21.83,4.55c-7.58,12.43-4.55,27.6-4.55,27.6,0,0-15.16,10.61-9.1,17.29,6.07,6.67,28.51-12.13,28.51-12.13l6.98-37.3Z"/>
        <path class="st1" d="M230.78,316.79c-1.65,0-3.06-.47-4.06-1.57-1.21-1.33-1.72-2.89-1.52-4.66.65-5.81,8.83-12.02,10.44-13.19-.38-2.28-2.32-16.18,4.67-27.63,7.74-12.7,22.36-4.81,22.5-4.73l.32.17-7.07,37.83-.14.12c-.78.66-16.42,13.66-25.14,13.66ZM252.82,263.49c-5,0-8.92,2.27-11.66,6.78-7.39,12.12-4.52,27.09-4.49,27.24l.06.32-.27.19c-.1.07-9.63,6.81-10.28,12.67-.17,1.48.25,2.75,1.27,3.87,4.67,5.15,21.43-6.85,27.68-12.06l6.87-36.76c-.96-.47-3.99-1.84-7.59-2.17-.54-.05-1.08-.07-1.6-.07Z"/>
      </g>
      <g>
        <path class="st24" d="M280.46,283.04s-14.25-7.88-21.83,4.55c-7.58,12.43-4.55,27.6-4.55,27.6,0,0-15.16,10.61-9.1,17.29,6.07,6.67,28.51-12.13,28.51-12.13l6.98-37.3Z"/>
        <path class="st1" d="M248.67,334.38c-1.65,0-3.06-.47-4.06-1.57-1.21-1.33-1.72-2.89-1.52-4.66.65-5.81,8.83-12.02,10.44-13.19-.38-2.28-2.32-16.18,4.67-27.63,7.74-12.69,22.36-4.81,22.5-4.73l.32.17-7.07,37.83-.14.12c-.78.66-16.42,13.66-25.14,13.66ZM270.71,281.07c-5,0-8.92,2.27-11.66,6.78-7.39,12.12-4.52,27.09-4.49,27.24l.06.32-.27.19c-.1.07-9.63,6.81-10.28,12.67-.17,1.49.25,2.75,1.27,3.87,4.67,5.14,21.43-6.85,27.68-12.06l6.87-36.76c-.96-.47-3.99-1.84-7.59-2.17-.54-.05-1.08-.07-1.6-.07Z"/>
      </g>
      <g>
        <path class="st17" d="M246.11,262.19s20.02,20.24,22.74,33.21c2.73,12.96,26.84-11.6,26.84-11.6,0,0-28.89-35.25-49.58-21.61Z"/>
        <path class="st1" d="M272.92,299.67c-.5,0-.96-.06-1.4-.19-1.63-.48-2.69-1.82-3.15-3.98-2.67-12.67-22.41-32.76-22.61-32.96l-.43-.43.51-.34c8.65-5.71,20.1-3.73,33.12,5.7,9.75,7.06,17.05,15.92,17.12,16.01l.28.35-.31.32c-.66.67-15.33,15.52-23.14,15.52ZM246.9,262.28c3.01,3.11,19.91,20.96,22.45,33.01.38,1.8,1.18,2.86,2.45,3.23,6.19,1.81,20.86-12.41,23.22-14.75-3.05-3.57-29.16-33.15-48.12-21.49Z"/>
      </g>
    </g>
    <g>
      <path class="st9" d="M362.59,320.64c-19.47,18.12-52.75,23.73-89.34,5.69,0,0,.17,7.3-7.56,7.78-7.73.48-13.28-3.67-13.43-10.58,0,0-8.46-.7-7.4-12.47,0,0-5.52-3.38-5.06-11.27,0,0-5.87-10.72-1.17-18.42,4.7-7.7,15.72-18.84,36.52-11.13,20.8,7.71,39.54,22.57,43.28,14.34"/>
      <path class="st1" d="M316.97,337.9c-12.91,0-27.49-3.12-43.28-10.79-.22,1.99-1.43,7.09-7.98,7.5-4.28.27-8.04-.87-10.57-3.19-2.05-1.89-3.21-4.46-3.37-7.45-.95-.18-3.22-.81-5.04-2.97-1.92-2.28-2.72-5.54-2.4-9.69-1.13-.8-5.4-4.31-5.04-11.41-.69-1.3-5.66-11.3-1.08-18.79,4.67-7.64,15.7-19.28,37.12-11.34,7.22,2.68,14.2,6.22,20.36,9.34,8.92,4.52,16.61,8.42,20.32,7.13.9-.31,1.54-.92,1.97-1.86l.91.41c-.54,1.19-1.4,1.99-2.54,2.39-4.11,1.44-11.61-2.36-21.11-7.18-6.14-3.11-13.09-6.64-20.26-9.3-20.74-7.69-31.41,3.54-35.92,10.93-4.5,7.37,1.12,17.81,1.18,17.92l.07.13v.14c-.44,7.47,4.6,10.68,4.81,10.81l.26.16-.03.31c-.36,4,.35,7.11,2.13,9.24,2.03,2.42,4.78,2.69,4.81,2.7l.45.04v.45c.07,2.9,1.13,5.37,3.08,7.16,2.33,2.14,5.82,3.18,9.83,2.93,7.14-.45,7.1-6.99,7.09-7.27l-.02-.82.74.36c39.89,19.66,72.01,9.99,88.78-5.61l.68.73c-10.25,9.53-26.13,16.89-45.96,16.89Z"/>
    </g>
    <path class="st1" d="M251.75,323.56c-.6-13.25,17.48-15.87,17.67-15.9l.14.99c-.17.02-17.36,2.52-16.8,14.86l-1,.05Z"/>
    <path class="st1" d="M245.35,311.16l-.98-.21c3.21-14.67,18.01-17.04,18.16-17.07l.15.99c-.14.02-14.27,2.3-17.33,16.29Z"/>
    <path class="st1" d="M240.3,299.85l-.99-.11c1.87-16.5,20.76-19.79,20.95-19.82l.16.99c-.18.03-18.34,3.2-20.12,18.94Z"/>
    <g>
      <path class="st9" d="M265.88,326.42s3.52-.98,3.98-3.97c0,0,.48,2.83,3.37,3.89"/>
      <path class="st1" d="M266.02,326.9l-.27-.96s3.22-.94,3.62-3.57l.46-2.98.52,2.97c.02.1.48,2.56,3.05,3.51l-.34.94c-1.75-.64-2.69-1.87-3.19-2.84-1.15,2.15-3.73,2.9-3.86,2.93Z"/>
    </g>
    <g>
      <g>
        <g>
          <path class="st24" d="M271.52,198.82s-8.41-7.33-11.9,1.1c-3.49,8.42,4.81,17,11.75,10.7"/>
          <path class="st1" d="M266.29,213.3c-1.4,0-2.79-.45-4.07-1.35-3.12-2.2-5.18-7.11-3.05-12.23.98-2.35,2.42-3.77,4.3-4.21,3.91-.92,8.2,2.77,8.38,2.93l-.66.75s-4.09-3.52-7.5-2.71c-1.55.36-2.76,1.58-3.61,3.62-1.92,4.64-.09,9.06,2.71,11.03,2.56,1.8,5.64,1.47,8.24-.89l.67.74c-1.69,1.54-3.57,2.31-5.42,2.31Z"/>
        </g>
        <g>
          <path class="st30" d="M268.14,209.91c.17-.49.57-1.8-1.09-2.36-1.66-.56-2.04.85-2.28,1.66s.24,1.83,1.64,1.96c1.4.13,1.57-.77,1.73-1.27Z"/>
          <path class="st7" d="M266.66,211.69c-.1,0-.2,0-.3-.01-.8-.07-1.44-.42-1.82-.97-.33-.48-.42-1.08-.26-1.64.19-.64.45-1.55,1.23-1.96.47-.25,1.04-.26,1.69-.04.81.27,2.07,1.03,1.41,2.99l-.04.11c-.15.46-.48,1.51-1.91,1.51ZM266.35,207.92c-.14,0-.26.03-.36.08-.4.21-.59.84-.72,1.31-.09.32-.05.61.11.84.2.3.58.49,1.08.53.89.08,1.01-.31,1.17-.8l.04-.13c.27-.79.24-1.38-.78-1.73-.2-.07-.38-.1-.54-.1Z"/>
        </g>
        <g>
          <path class="st24" d="M269.29,204.47s-.52-5.09-5.22-4.44"/>
          <path class="st1" d="M268.8,204.52s-.25-2.19-1.71-3.33c-.77-.6-1.76-.83-2.95-.66l-.14-.99c1.47-.2,2.71.09,3.71.87,1.8,1.41,2.07,3.91,2.08,4.01l-1,.1Z"/>
        </g>
      </g>
      <g>
        <path class="st24" d="M277.27,228.74s-2.27,5.46,3.87,8.19,16.15-9.33,16.15-9.33l-20.02,1.14Z"/>
        <path class="st1" d="M283.11,237.83c-.75,0-1.48-.14-2.17-.44-6.51-2.89-4.15-8.78-4.12-8.84l.12-.29,21.47-1.22-.73.88c-.37.45-8.31,9.91-14.56,9.91ZM277.63,229.22c-.35,1.11-1.18,5.08,3.71,7.25,4.78,2.12,12.35-5.61,14.78-8.3l-18.49,1.05Z"/>
      </g>
      <g>
        <g>
          <path class="st24" d="M317.76,208.35s4.85-28.51-21.23-30.63c-26.08-2.12-33.59,23.26-33.36,30.93.46,15.29,5.91,23.71,23.65,25.17,22.14,1.82,26.38-13.04,26.38-13.04"/>
          <path class="st1" d="M290.44,234.47c-1.16,0-2.38-.05-3.66-.15-16.62-1.37-23.61-8.8-24.11-25.65-.13-4.33,2.32-15.84,10.73-23.83,6.12-5.81,13.91-8.37,23.17-7.62,7.39.6,13.05,3.36,16.8,8.2,7.13,9.18,4.97,22.45,4.88,23.01l-.99-.17c.02-.13,2.18-13.41-4.68-22.24-3.58-4.6-8.99-7.23-16.09-7.81-8.96-.73-16.5,1.74-22.4,7.35-8.16,7.75-10.54,18.89-10.42,23.07.49,16.43,6.99,23.36,23.2,24.69,21.49,1.78,25.82-12.53,25.86-12.68l.96.27c-.04.14-4.11,13.56-23.25,13.56Z"/>
        </g>
        <g>
          <path class="st24" d="M289.62,202.41s-3.88-1.9-5.55,1.98c-1.67,3.88,5.44,3,5.44,3"/>
          <path class="st1" d="M287.91,207.98c-1.43,0-3.38-.22-4.2-1.32-.49-.65-.52-1.49-.1-2.48.54-1.26,1.36-2.1,2.43-2.5,1.83-.68,3.72.23,3.8.27l-.44.9s-1.59-.76-3.02-.22c-.8.3-1.42.96-1.85,1.95-.41.96-.12,1.35-.02,1.48.72.96,3.41,1.02,4.94.83l.12.99c-.17.02-.83.1-1.66.1Z"/>
        </g>
        <ellipse class="st13" cx="306.16" cy="208.5" rx="2.88" ry="4.27" transform="translate(-15.88 391.52) rotate(-63.87)"/>
        <ellipse class="st13" cx="271.13" cy="202.36" rx="4.27" ry="2.88" transform="translate(-16.8 24.71) rotate(-5.06)"/>
      </g>
      <g>
        <path class="st29" d="M266.13,195.31s7.28.45,8.64-3.18,3.47-2.5,6.51-5.46c3.04-2.96,7.82-7.96,7.82-7.96,0,0-13.19-4.55-22.97,16.6Z"/>
        <path class="st1" d="M266.93,195.83c-.47,0-.78-.02-.83-.02l-.73-.05.31-.66c9.86-21.32,23.45-16.91,23.59-16.87l.74.25-.54.56c-.05.05-4.82,5.04-7.83,7.97-1.32,1.29-2.51,1.85-3.46,2.3-1.33.63-2.21,1.04-2.93,2.98-1.2,3.2-6.28,3.53-8.31,3.53ZM285.97,178.79c-1.25,0-2.83.18-4.59.77-3.92,1.33-9.58,5.06-14.47,15.25,1.82,0,6.42-.27,7.4-2.88.87-2.31,2.06-2.88,3.44-3.53.93-.44,1.98-.94,3.19-2.11,2.37-2.3,5.82-5.88,7.2-7.32-.51-.09-1.26-.19-2.17-.19Z"/>
      </g>
      <g>
        <path class="st29" d="M321.28,207.9s-8.16-2.83-8-7.43c.17-4.6-2.65-4.32-4.63-8.94-1.98-4.62-4.92-12.27-4.92-12.27,0,0,16.49,1.06,17.55,28.63Z"/>
        <path class="st1" d="M321.81,208.62l-.69-.24c-.35-.12-8.51-3.01-8.33-7.92.09-2.48-.73-3.4-1.87-4.66-.83-.92-1.86-2.06-2.72-4.06-1.96-4.57-4.9-12.21-4.93-12.28l-.28-.73.78.05c.17.01,16.96,1.41,18.01,29.11l.03.73ZM304.52,179.9c.81,2.08,3.02,7.76,4.6,11.45.79,1.85,1.72,2.88,2.54,3.79,1.2,1.33,2.23,2.48,2.13,5.37-.12,3.42,5.05,5.88,6.96,6.67-.67-13.55-5.22-20.27-8.96-23.54-2.98-2.6-5.9-3.46-7.27-3.73Z"/>
      </g>
      <g>
        <g>
          <path class="st24" d="M313.82,207.13s10.31-4.25,10.92,4.85c.61,9.1-10.01,14.56-14.56,6.37"/>
          <path class="st1" d="M316.27,222.88c-2.64,0-4.99-1.51-6.53-4.28l.87-.49c1.71,3.07,4.52,4.37,7.52,3.48,3.28-.97,6.43-4.57,6.1-9.58-.15-2.2-.91-3.75-2.25-4.59-2.97-1.85-7.92.14-7.97.16l-.38-.92c.22-.09,5.47-2.21,8.88-.09,1.64,1.02,2.56,2.83,2.73,5.37.37,5.53-3.15,9.52-6.81,10.6-.73.22-1.45.32-2.15.32Z"/>
        </g>
        <g>
          <path class="st30" d="M313.47,218.72c0-.52.04-1.88,1.79-1.88,1.75,0,1.66,1.46,1.62,2.3s-.82,1.66-2.18,1.34-1.23-1.23-1.23-1.75Z"/>
          <path class="st7" d="M315.29,221.05c-.23,0-.46-.03-.7-.09-1.65-.39-1.63-1.61-1.62-2.12v-.12c0-2.08,1.44-2.39,2.29-2.39.68,0,1.22.19,1.58.58.61.64.57,1.58.54,2.2-.03.63-.31,1.16-.77,1.51-.37.28-.82.42-1.33.42ZM315.26,217.34c-1.07,0-1.29.55-1.29,1.39v.13c-.01.52-.02.93.85,1.13.49.12.9.06,1.19-.16.22-.17.36-.43.37-.71.02-.53.05-1.19-.26-1.51-.17-.18-.46-.27-.86-.27Z"/>
        </g>
        <g>
          <path class="st24" d="M314.12,213.2s2.12-4.65,6.37-2.53"/>
          <path class="st1" d="M314.57,213.41l-.91-.42c.04-.1,1.1-2.37,3.26-3.13,1.19-.42,2.47-.3,3.79.36l-.45.89c-1.07-.54-2.08-.64-3-.32-1.75.62-2.68,2.59-2.69,2.61Z"/>
        </g>
      </g>
      <g>
        <path class="st29" d="M293.8,174.23s-9.4.3-8.49,4.55c.91,4.25,3.64,2.73,3.64,2.73,0,0-.3,8.49,5.76,4.55,0,0,2.73,6.98,6.37,1.82,3.64-5.16.61-4.25.61-4.25,0,0,2.73,4.25,5.16.3s-5.16-10.31-13.04-9.7Z"/>
        <path class="st1" d="M298.37,190.28c-.1,0-.2,0-.3-.02-1.81-.22-3.08-2.43-3.58-3.48-1.57.9-2.89,1.06-3.93.47-1.72-.97-2.04-3.73-2.1-5.05-.44.09-1.03.12-1.63-.15-.98-.44-1.65-1.51-2.01-3.17-.19-.9,0-1.71.54-2.41,1.94-2.48,8.02-2.73,8.41-2.74,5.73-.44,11.21,2.67,13.2,5.93.99,1.63,1.1,3.24.3,4.54-.78,1.26-1.69,1.9-2.71,1.91-.58,0-1.1-.19-1.55-.48-.31.69-.81,1.52-1.52,2.53-.99,1.4-2.04,2.11-3.12,2.11ZM294.95,185.3l.22.57c.35.88,1.57,3.22,3.02,3.39.78.1,1.63-.47,2.48-1.68.88-1.25,1.31-2.06,1.52-2.59-.56-.53-.9-1.05-.93-1.1l-.36-.56.64-.19c.11-.03,1.12-.31,1.61.38.2.28.27.65.18,1.12.37.27.78.46,1.22.46.65,0,1.28-.49,1.86-1.44.76-1.24.26-2.58-.3-3.49-1.83-3-6.93-5.86-12.28-5.45h-.02c-1.66.06-6.28.59-7.67,2.36-.36.47-.48.98-.35,1.58.28,1.31.78,2.17,1.44,2.47.72.32,1.46-.07,1.47-.07l.77-.43-.03.88c-.04,1.08.18,4.06,1.6,4.86.79.45,1.93.2,3.39-.75l.51-.33Z"/>
      </g>
      <g>
        <circle class="st22" cx="283.07" cy="219.29" r="8.27"/>
        <path class="st1" d="M283.07,228.06c-4.84,0-8.77-3.93-8.77-8.77s3.93-8.77,8.77-8.77,8.77,3.93,8.77,8.77-3.93,8.77-8.77,8.77ZM283.07,211.52c-4.28,0-7.77,3.49-7.77,7.77s3.49,7.77,7.77,7.77,7.77-3.49,7.77-7.77-3.49-7.77-7.77-7.77Z"/>
      </g>
      <g>
        <circle class="st22" cx="283.53" cy="218.84" r="3"/>
        <path class="st1" d="M283.53,222.33c-1.93,0-3.5-1.57-3.5-3.5s1.57-3.5,3.5-3.5,3.5,1.57,3.5,3.5-1.57,3.5-3.5,3.5ZM283.53,216.34c-1.38,0-2.5,1.12-2.5,2.5s1.12,2.5,2.5,2.5,2.5-1.12,2.5-2.5-1.12-2.5-2.5-2.5Z"/>
      </g>
      <g>
        <path class="st1" d="M298.58,200.76s-.82,1.35-.89,1.88-.61.93-1.12.53c-.51-.4.13-2.71,1.27-4.17,1.14-1.45,1.4-1.48,2.14-.79.74.7-.99,1.57-1.4,2.54Z"/>
        <path class="st1" d="M297,203.84c-.26,0-.51-.09-.74-.27-.54-.43-.38-1.44-.15-2.22.28-.94.78-1.93,1.34-2.65.73-.93,1.17-1.38,1.71-1.42.48-.04.84.27,1.17.58.27.26.34.54.34.72.01.55-.43.99-.89,1.47-.3.31-.61.62-.73.91l-.03.07c-.37.61-.79,1.42-.82,1.69-.06.48-.35.88-.77,1.05-.14.06-.28.08-.42.08ZM299.24,198.28c-.09,0-.34.2-1,1.04-1.06,1.35-1.48,3.18-1.32,3.51.06.03.1,0,.12,0,.07-.03.14-.12.16-.25.07-.59.76-1.75.94-2.05.2-.44.58-.84.93-1.18.22-.23.59-.6.6-.75-.31-.28-.41-.32-.43-.32Z"/>
      </g>
      <g>
        <path class="st1" d="M280.93,197.45s-.82,1.35-.89,1.88-.61.93-1.12.53.13-2.71,1.27-4.17,1.4-1.48,2.14-.79c.74.7-.99,1.57-1.4,2.54Z"/>
        <path class="st1" d="M279.35,200.53c-.26,0-.51-.09-.74-.27-.93-.73.08-3.46,1.19-4.87.73-.93,1.17-1.38,1.71-1.42.48-.03.84.27,1.17.58.27.26.34.54.34.72.01.55-.43.99-.89,1.47-.3.31-.61.62-.73.91l-.03.07c-.37.6-.79,1.42-.82,1.68-.06.48-.35.88-.77,1.05-.14.06-.28.08-.42.08ZM281.58,194.97c-.09,0-.34.2-1,1.04-1.06,1.35-1.47,3.18-1.31,3.51.05.03.1,0,.12,0,.07-.03.14-.12.16-.25.07-.59.76-1.75.94-2.05.2-.44.58-.84.93-1.18.22-.23.59-.6.6-.75-.31-.28-.41-.32-.43-.32Z"/>
      </g>
      <g>
        <path class="st24" d="M294.62,204.94s5.13-1.71,9.2.21"/>
        <path class="st1" d="M303.6,205.6c-3.83-1.81-8.77-.21-8.82-.19l-.32-.95c.22-.07,5.37-1.75,9.57.24l-.43.9Z"/>
      </g>
      <g>
        <path class="st24" d="M280.93,202.59s-1.92-2.99-7.06-2.99"/>
        <path class="st1" d="M280.51,202.86c-.07-.11-1.87-2.77-6.64-2.77v-1c5.34,0,7.39,3.09,7.48,3.22l-.84.54Z"/>
      </g>
    </g>
    <g>
      <g>
        <path class="st24" d="M301.08,252.72s-3.64,13.04-9.7,15.47c-6.07,2.43-14.56,4.25-15.47,10.31-.91,6.07,3.34,3.94,3.34,3.94,0,0,2.12,4.55,4.85,2.73,0,0,3.03,4.25,5.46,1.82,0,0,3.34,2.12,5.16-.61,1.82-2.73,2.43-5.16,2.43-5.16,0,0,20.32-3.34,20.93-23.65.61-20.32-16.98-4.85-16.98-4.85Z"/>
        <path class="st1" d="M292.15,288.27c-.95,0-1.87-.32-2.53-.67-.59.47-1.24.69-1.96.62-1.64-.14-3.09-1.69-3.69-2.41-.61.3-1.25.36-1.89.18-1.52-.42-2.62-2.12-3.07-2.93-.63.21-1.77.45-2.65-.19-.96-.7-1.28-2.2-.94-4.46.79-5.3,6.98-7.51,12.44-9.46,1.15-.41,2.28-.81,3.33-1.24,5.77-2.31,9.37-15.01,9.41-15.14l.04-.14.11-.1c.36-.32,8.86-7.71,14.07-5.26,2.65,1.25,3.91,4.78,3.74,10.5-.57,19.09-18.41,23.52-21.03,24.07-.23.75-.92,2.77-2.41,5-.81,1.21-1.91,1.62-2.98,1.62ZM289.48,286.35l.34.21c.12.08,2.95,1.82,4.47-.46,1.74-2.62,2.35-4.98,2.36-5l.08-.32.32-.05c.2-.03,19.92-3.52,20.51-23.18.16-5.28-.91-8.5-3.17-9.57-4.33-2.04-11.88,4.17-12.87,5.01-.44,1.53-4.02,13.27-9.96,15.65-1.07.43-2.19.83-3.37,1.25-5.45,1.95-11.08,3.96-11.79,8.67-.27,1.83-.09,3.04.54,3.5.63.46,1.72.1,2.08-.08l.46-.23.22.46s1.13,2.38,2.65,2.81c.49.14.98.05,1.47-.28l.4-.27.28.39s1.61,2.22,3.24,2.35c.54.05,1.02-.15,1.46-.6l.28-.28Z"/>
      </g>
      <g>
        <path class="st17" d="M298.35,247.56s.3,8.49-2.73,10.31c0,0,20.02,1.82,24.56,8.49,0,0,6.67-29.11-15.16-40.64,0,0-5.76-1.82-9.4,6.07"/>
        <path class="st1" d="M320.42,267.59l-.64-.95c-4.37-6.4-24-8.26-24.2-8.28l-1.53-.14,1.31-.79c2.28-1.37,2.57-7.58,2.49-9.86l1-.04c.01.32.22,7.13-2.06,9.95,4.13.47,18.23,2.44,23.11,7.71.91-5.27,3.81-29.05-15.11-39.04-.14-.03-5.32-1.53-8.71,5.83l-.91-.42c3.78-8.19,9.94-6.35,10.01-6.33,22,11.6,15.57,40.93,15.5,41.23l-.26,1.12Z"/>
      </g>
      <path class="st1" d="M279.73,282.57l-.96-.27c1.29-4.51,3.19-4.48,3.41-4.46l-.09,1,.05-.5-.02.5s-1.33.06-2.38,3.73Z"/>
      <path class="st1" d="M283.6,285.24c-.49-3.07,1.98-6.04,2.08-6.16l.77.64s-2.27,2.75-1.86,5.36l-.99.16Z"/>
      <path class="st1" d="M289.09,287.17c-1.47-3.76,1.22-6.35,1.34-6.46l.69.73c-.1.09-2.31,2.25-1.09,5.37l-.93.36Z"/>
    </g>
    <g>
      <g>
        <path class="st33" d="M213.88,304.52c-4.46,2.17-34.03,16.29-42.46,32.55.56.93-8.36,1.66-9.84-5.7.04-11.37,34.96-33.77,40.57-34.5,5.62-.73,13.21,6.92,11.72,7.64Z"/>
        <path class="st1" d="M169.63,338.14c-.66,0-1.37-.08-2.02-.21-1.64-.35-5.56-1.68-6.52-6.45v-.1c.03-11.56,35.04-34.22,41-35,5.27-.69,11.79,5.34,12.41,7.4.24.8-.25,1.11-.4,1.19l-.32.16c-12.55,6.11-34.63,18.37-41.83,32.02,0,.14-.04.27-.12.39-.3.42-1.18.6-2.2.6ZM162.09,331.32c.66,3.19,2.79,4.62,4.46,5.25,1.95.74,3.79.62,4.35.42l.08-.15c7.24-13.97,29.65-26.43,42.36-32.62l.22-.11c-.06-.3-.53-1.14-1.83-2.39-2.55-2.45-6.47-4.75-9.51-4.36-5,.65-39.99,22.8-40.13,33.96ZM213.66,304.07h0,0Z"/>
      </g>
      <g>
        <ellipse class="st33" cx="193.92" cy="307.25" rx="9.87" ry="13.07" transform="translate(-168.71 284.7) rotate(-54.18)"/>
        <path class="st1" d="M197.07,318.81c-3.2,0-6.71-1.19-9.74-3.54-3.37-2.62-5.53-6.19-5.92-9.78-.28-2.53.35-4.8,1.82-6.58h0c3.63-4.41,11.39-4.26,17.28.33,3.37,2.62,5.53,6.19,5.92,9.78.28,2.53-.35,4.8-1.82,6.58-1.77,2.15-4.51,3.21-7.54,3.21ZM184,299.53c-1.29,1.57-1.84,3.58-1.59,5.84.37,3.33,2.39,6.64,5.54,9.1,5.47,4.26,12.61,4.48,15.9.49,1.29-1.57,1.84-3.58,1.59-5.84-.37-3.33-2.39-6.64-5.54-9.1-5.47-4.26-12.6-4.48-15.9-.49h0Z"/>
      </g>
      <g>
        <ellipse class="st20" cx="195.44" cy="305.85" rx="9.87" ry="13.07" transform="translate(-166.94 285.36) rotate(-54.18)"/>
        <path class="st1" d="M198.6,317.41c-3.2,0-6.71-1.19-9.74-3.54-3.37-2.62-5.53-6.19-5.92-9.78-.28-2.53.35-4.8,1.82-6.58,3.63-4.41,11.39-4.26,17.28.33,3.37,2.62,5.53,6.19,5.92,9.78.28,2.53-.35,4.8-1.82,6.58-1.77,2.15-4.51,3.21-7.54,3.21ZM192.29,295.28c-2.73,0-5.19.95-6.77,2.86h0c-1.29,1.57-1.84,3.58-1.59,5.84.37,3.33,2.39,6.64,5.54,9.1,5.47,4.26,12.6,4.48,15.9.49,1.29-1.57,1.84-3.58,1.59-5.84-.37-3.33-2.39-6.64-5.54-9.1-2.85-2.22-6.16-3.35-9.13-3.35Z"/>
      </g>
      <polygon class="st1" points="202.78 312.05 194.61 306.49 191.43 297.44 193.32 296.78 196.28 305.21 203.91 310.39 202.78 312.05"/>
    </g>
  </g>
</svg>