<?xml version="1.0" encoding="UTF-8"?>
<svg id="Layer_1" xmlns="http://www.w3.org/2000/svg" xmlns:xlink="http://www.w3.org/1999/xlink" version="1.1" viewBox="0 0 506.9 477.52">
  <!-- Generator: Adobe Illustrator 29.8.2, SVG Export Plug-In . SVG Version: 2.1.1 Build 3)  -->
  <defs>
    <style>
      .st0 {
        fill: none;
      }

      .st1 {
        fill: #0c0907;
      }

      .st2 {
        fill: #6d4524;
      }

      .st3 {
        fill: #c4c65c;
      }

      .st4 {
        fill: #c6a9b1;
      }

      .st5 {
        fill: #271911;
      }

      .st6 {
        fill: #dec49e;
      }

      .st7 {
        fill: #a56d3f;
      }

      .st8 {
        fill: #9ea440;
      }

      .st9 {
        fill: #ccb494;
      }

      .st10 {
        fill: #f989e8;
      }

      .st11 {
        fill: #f7c1d1;
      }

      .st12 {
        fill: #c68d52;
      }

      .st13 {
        fill: #d39e5e;
      }

      .st14 {
        clip-path: url(#clippath-1);
      }

      .st15 {
        fill: #4c412c;
      }

      .st16 {
        fill: #feebbc;
      }

      .st17 {
        fill: #fff;
      }

      .st18 {
        fill: #ac743e;
      }

      .st19 {
        fill: #fdf0b7;
      }

      .st20 {
        fill: #683e1c;
      }

      .st21 {
        fill: #ffd664;
      }

      .st22 {
        fill: #aabcb7;
      }

      .st23 {
        fill: #2a2520;
      }

      .st24 {
        fill: #e29f3e;
      }

      .st25 {
        fill: #f4f471;
      }

      .st26 {
        fill: #985d28;
      }

      .st27 {
        fill: #d87c30;
      }

      .st28 {
        clip-path: url(#clippath);
      }
    </style>
    <clipPath id="clippath">
      <path class="st0" d="M61.8,49.3s-25.21,19.38.7,72.78c25.9,53.39,120.77,21.94,132.23-11.55,11.46-33.5-2.61-77.29-41.53-75.41,0,0-42.14-41.28-91.4,14.19h0Z"/>
    </clipPath>
    <clipPath id="clippath-1">
      <path class="st0" d="M137.14,113.65s19.77,6.19,25.72-16.43c5.95-22.62-2.86-57.87-17.86-60.96-15-3.09-43.1-4.29-49.06,16.67-5.95,20.96,3.1,31.2,3.1,31.2,0,0,3.81,10.95,12.62,18.81l25.48,10.71Z"/>
    </clipPath>
  </defs>
  <g>
    <path class="st25" d="M432.54,21.63l-.37,19.15c-.29,14.9,9.05,28.28,23.13,33.16l18.1,6.27c4.44,1.54,4.32,7.86-.18,9.23l-18.33,5.57c-14.25,4.33-24.1,17.35-24.39,32.24l-.37,19.15c-.09,4.7-6.14,6.54-8.83,2.68l-10.96-15.71c-8.52-12.22-23.94-17.56-38.2-13.23l-18.33,5.57c-4.5,1.37-8.12-3.82-5.28-7.57l11.56-15.28c8.99-11.88,9.3-28.2.78-40.42l-10.96-15.71c-2.69-3.86,1.13-8.9,5.57-7.36l18.1,6.27c14.08,4.88,29.69.13,38.68-11.75l11.56-15.28c2.84-3.75,8.81-1.68,8.72,3.02h0Z"/>
    <path class="st1" d="M425.23,151.67c-1.71,0-3.31-.82-4.34-2.3l-10.96-15.71c-8.42-12.08-23.55-17.32-37.64-13.04l-18.33,5.57c-2.26.69-4.59-.12-5.95-2.06-1.35-1.94-1.3-4.41.12-6.29l11.55-15.28c8.88-11.74,9.19-27.75.77-39.83l-10.96-15.71c-1.35-1.94-1.3-4.41.12-6.29,1.43-1.88,3.79-2.6,6.02-1.83l18.1,6.27c13.91,4.82,29.23.17,38.12-11.58l11.56-15.28c1.42-1.88,3.79-2.6,6.02-1.83,2.23.77,3.65,2.8,3.6,5.16l-.37,19.15c-.28,14.72,8.88,27.85,22.79,32.67l18.1,6.27c2.23.77,3.65,2.8,3.6,5.16-.05,2.36-1.54,4.33-3.8,5.02l-18.33,5.57c-14.09,4.28-23.75,17.05-24.03,31.77l-.37,19.15c-.04,2.36-1.54,4.33-3.8,5.02-.53.16-1.07.24-1.6.24h0ZM382.19,118.14c11.19,0,21.91,5.4,28.57,14.94l10.96,15.71c1.1,1.58,3,2.23,4.84,1.67s3.05-2.16,3.09-4.08l.37-19.15c.29-15.16,10.24-28.3,24.74-32.71l18.33-5.57c1.84-.56,3.05-2.16,3.09-4.08s-1.11-3.57-2.93-4.2l-18.1-6.27c-14.33-4.96-23.75-18.48-23.46-33.64l.37-19.15c.04-1.92-1.11-3.57-2.93-4.2-1.81-.63-3.74-.04-4.9,1.49l-11.56,15.28c-9.15,12.09-24.92,16.88-39.24,11.92l-18.1-6.27c-1.81-.63-3.74-.04-4.9,1.49-1.16,1.53-1.2,3.54-.1,5.12l10.96,15.71c8.67,12.44,8.36,28.91-.79,41.01l-11.55,15.28c-1.16,1.53-1.2,3.54-.1,5.12s3,2.23,4.83,1.67l18.33-5.57c3.37-1.02,6.8-1.52,10.19-1.52h0Z"/>
  </g>
  <g>
    <g>
      <path class="st21" d="M84.97,331.93s-37.05-173.96,18.41-237.87C158.84,30.15,246.14,9.87,333.99,56.05c87.85,46.18,76.27,178.07,90.91,227.32"/>
      <path class="st1" d="M84.49,332.03c-.09-.44-9.3-44.12-11.6-95.05-2.13-47.06,1.37-110.11,30.13-143.25C161.7,26.1,250.3,11.49,334.22,55.61c66.38,34.89,76.12,117.97,83.23,178.62,2.32,19.79,4.32,36.87,7.93,49l-.96.29c-3.63-12.21-5.64-29.33-7.96-49.17-7.08-60.44-16.79-143.21-82.7-177.86C250.26,12.61,162.14,27.12,103.77,94.39c-28.54,32.89-32.01,95.67-29.89,142.54,2.3,50.85,11.49,94.46,11.58,94.9l-.98.21h.01Z"/>
    </g>
    <g>
      <g>
        <circle class="st8" cx="311.67" cy="72.38" r="32.52"/>
        <path class="st1" d="M311.67,105.4c-18.21,0-33.02-14.81-33.02-33.02s14.81-33.02,33.02-33.02,33.02,14.81,33.02,33.02-14.81,33.02-33.02,33.02ZM311.67,40.36c-17.66,0-32.02,14.36-32.02,32.02s14.36,32.02,32.02,32.02,32.02-14.36,32.02-32.02-14.36-32.02-32.02-32.02Z"/>
      </g>
      <g>
        <circle class="st17" cx="311.67" cy="72.38" r="25.46"/>
        <path class="st1" d="M311.67,98.34c-14.32,0-25.96-11.65-25.96-25.96s11.65-25.96,25.96-25.96,25.96,11.65,25.96,25.96-11.65,25.96-25.96,25.96ZM311.67,47.42c-13.76,0-24.96,11.2-24.96,24.96s11.2,24.96,24.96,24.96,24.96-11.2,24.96-24.96-11.2-24.96-24.96-24.96Z"/>
      </g>
      <g>
        <polyline class="st17" points="325 72.38 311.67 72.38 299.94 57.98"/>
        <polygon class="st1" points="325 73.38 311.2 73.38 299.17 58.62 300.72 57.35 312.15 71.38 325 71.38 325 73.38"/>
      </g>
      <g>
        <circle class="st1" cx="311.67" cy="72.38" r="3.73"/>
        <path d="M311.67,76.61c-2.33,0-4.23-1.9-4.23-4.23s1.9-4.23,4.23-4.23,4.23,1.9,4.23,4.23-1.9,4.23-4.23,4.23ZM311.67,69.15c-1.78,0-3.23,1.45-3.23,3.23s1.45,3.23,3.23,3.23,3.23-1.45,3.23-3.23-1.45-3.23-3.23-3.23Z"/>
      </g>
    </g>
    <g>
      <g>
        <g>
          <rect class="st12" x="354.46" y="143.77" width="7.57" height="106.9"/>
          <path class="st1" d="M362.53,251.17h-8.57v-107.9h8.57v107.9h0ZM354.96,250.17h6.57v-105.9h-6.57v105.9h0Z"/>
        </g>
        <g>
          <rect class="st18" x="354.46" y="241.79" width="7.57" height="8.88"/>
          <path class="st1" d="M362.53,251.17h-8.57v-9.88h8.57v9.88ZM354.96,250.17h6.57v-7.88h-6.57v7.88Z"/>
        </g>
        <g>
          <rect class="st12" x="239.99" y="144.53" width="130.08" height="9.08"/>
          <path class="st1" d="M370.57,154.11h-131.08v-10.08h131.08v10.08ZM240.49,153.11h129.08v-8.08h-129.08v8.08Z"/>
        </g>
        <g>
          <path class="st18" d="M413.59,165.16v-20.34s2.37-21.76-23.65-23.18-29.33,12.3-29.33,17.03v67.17l49.67,34.06,3.31-74.74h0Z"/>
          <path class="st1" d="M410.74,240.82l-50.63-34.72v-67.43c0-1.5.36-6.73,5.03-11.15,5.12-4.85,13.48-7,24.82-6.37,8.6.47,15.07,3.19,19.22,8.07,5.79,6.82,4.94,15.3,4.9,15.66v20.3h0s-3.35,75.65-3.35,75.65h.01ZM361.11,205.57l48.71,33.4,3.27-73.82v-20.33c.01-.14.84-8.49-4.68-14.97-3.97-4.66-10.19-7.26-18.5-7.71-11.06-.6-19.17,1.45-24.08,6.1-4.38,4.15-4.72,9.03-4.72,10.43v66.91h0Z"/>
        </g>
        <g>
          <path class="st17" d="M401.29,230.91s4.73.95,8.51-8.99c3.78-9.93-15.61-27.43-25.54-26.73-9.93.71-26.96,9.7-26.02,18.21.95,8.51,25.07,23.18,43.04,17.5h0Z"/>
          <path class="st1" d="M392.59,232.68c-9.35,0-18.79-3.83-25.05-7.9-5.76-3.75-9.43-7.99-9.8-11.32-.25-2.26.64-4.63,2.66-7.05,5.23-6.27,16.75-11.21,23.82-11.71,6.7-.49,16.96,6.89,22.29,14.07,3.77,5.07,5.1,9.8,3.75,13.34-3.58,9.39-8.07,9.41-8.94,9.32-2.83.88-5.78,1.26-8.74,1.26h0ZM384.86,195.67c-.19,0-.38,0-.56.02-6.87.49-18.06,5.28-23.12,11.36-1.83,2.2-2.65,4.32-2.43,6.3.33,3,3.92,7.06,9.35,10.59,8.07,5.26,21.57,10.11,33.05,6.49l.12-.04.12.02c.1.02,4.42.61,7.95-8.67,1.22-3.2-.07-7.6-3.62-12.38-5.63-7.58-15.01-13.69-20.86-13.69h0Z"/>
        </g>
        <g>
          <path class="st19" d="M371.49,226.18s-4.26-44.94-17.5-50.14-74.74,2.73-76.63,41.15,94.13,8.99,94.13,8.99h0Z"/>
          <path class="st1" d="M308.9,237.48c-11.95,0-20.65-2.08-25.98-6.22-4.32-3.36-6.36-8.1-6.06-14.09.6-12.12,6.98-22.2,18.98-29.95,20.31-13.12,49.72-15.02,58.33-11.64,5.66,2.22,10.37,11.43,14.02,27.38,2.7,11.78,3.78,23.07,3.79,23.18l.04.41-.39.12c-.17.05-17.16,5.23-36.46,8.38-10.02,1.63-18.79,2.45-26.27,2.45v-.02ZM343.15,175.12c-12.87,0-32.58,3.77-46.77,12.93-11.71,7.57-17.95,17.38-18.53,29.16-.28,5.65,1.63,10.1,5.68,13.25,19.38,15.08,81.84-3,87.41-4.65-.47-4.5-5-44.54-17.15-49.31-2.28-.9-6.03-1.38-10.65-1.38h0Z"/>
        </g>
        <g>
          <g>
            <rect class="st12" x="259.86" y="158.54" width="7.57" height="73.32"/>
            <path class="st1" d="M267.93,232.35h-8.57v-74.32h8.57v74.32ZM260.36,231.35h6.57v-72.32h-6.57v72.32Z"/>
          </g>
          <g>
            <rect class="st12" x="283.98" y="158.54" width="7.57" height="73.32"/>
            <path class="st1" d="M292.05,232.35h-8.57v-74.32h8.57v74.32ZM284.48,231.35h6.57v-72.32h-6.57v72.32Z"/>
          </g>
          <g>
            <rect class="st12" x="308.11" y="158.54" width="7.57" height="73.32"/>
            <path class="st1" d="M316.17,232.35h-8.57v-74.32h8.57v74.32ZM308.61,231.35h6.57v-72.32h-6.57v72.32Z"/>
          </g>
          <g>
            <rect class="st12" x="332.23" y="158.54" width="7.57" height="73.32"/>
            <path class="st1" d="M340.3,232.35h-8.57v-74.32h8.57v74.32ZM332.73,231.35h6.57v-72.32h-6.57v72.32Z"/>
          </g>
          <g>
            <rect class="st12" x="356.35" y="158.54" width="7.57" height="73.32"/>
            <path class="st1" d="M364.42,232.35h-8.57v-74.32h8.57v74.32ZM356.85,231.35h6.57v-72.32h-6.57v72.32Z"/>
          </g>
          <g>
            <rect class="st12" x="380.48" y="158.54" width="7.57" height="73.32"/>
            <path class="st1" d="M388.55,232.35h-8.57v-74.32h8.57v74.32ZM380.98,231.35h6.57v-72.32h-6.57v72.32Z"/>
          </g>
          <g>
            <rect class="st12" x="243.78" y="221.92" width="166.03" height="20.81"/>
            <path class="st1" d="M410.3,243.23h-167.03v-21.81h167.03v21.81ZM244.28,242.23h165.03v-19.81h-165.03v19.81Z"/>
          </g>
          <g>
            <rect class="st12" x="239.05" y="154.93" width="174.54" height="9.08"/>
            <path class="st1" d="M414.09,164.51h-175.54v-10.08h175.54v10.08ZM239.55,163.51h173.54v-8.08h-173.54v8.08Z"/>
          </g>
          <g>
            <rect class="st12" x="406.02" y="163.74" width="7.57" height="106.9"/>
            <path class="st1" d="M414.09,271.14h-8.57v-107.9h8.57v107.9ZM406.52,270.14h6.57v-105.9h-6.57v105.9Z"/>
          </g>
          <g>
            <rect class="st12" x="239.05" y="163.74" width="7.57" height="106.9"/>
            <path class="st1" d="M247.11,271.14h-8.57v-107.9h8.57v107.9h0ZM239.55,270.14h6.57v-105.9h-6.57v105.9Z"/>
          </g>
          <g>
            <rect class="st18" x="406.02" y="261.76" width="7.57" height="8.88"/>
            <path class="st1" d="M414.09,271.14h-8.57v-9.88h8.57v9.88ZM406.52,270.14h6.57v-7.88h-6.57v7.88Z"/>
          </g>
          <g>
            <rect class="st18" x="239.05" y="261.76" width="7.57" height="8.88"/>
            <path class="st1" d="M247.11,271.14h-8.57v-9.88h8.57v9.88h0ZM239.55,270.14h6.57v-7.88h-6.57v7.88Z"/>
          </g>
        </g>
      </g>
      <g>
        <g>
          <path class="st22" d="M172.58,279.28s-16.48,27.59-24.72,67.57,155.99-19.15,155.99-19.15c0,0-8.79-47.87-21.97-55.75s-109.3,7.32-109.3,7.32h0Z"/>
          <path class="st1" d="M169.3,361.25c-9.21,0-15.58-1.51-19.07-4.54-2.77-2.4-3.73-5.75-2.86-9.96,8.16-39.61,24.61-67.45,24.78-67.73.08-.13.2-.21.35-.24,3.93-.62,96.45-15.14,109.64-7.25,5.58,3.34,11.01,13.8,16.15,31.12,3.81,12.83,6.03,24.85,6.05,24.97.04.24-.09.48-.32.56-.33.12-33.34,11.96-68.57,21.36-29.24,7.8-51.36,11.71-66.15,11.71h0ZM172.89,279.74c-1.5,2.58-16.78,29.55-24.54,67.22-.8,3.88.03,6.83,2.53,9,3.48,3.02,9.92,4.28,18.24,4.28,40.9,0,127.46-30.48,134.15-32.86-.91-4.72-9.46-47.7-21.66-54.99-12.56-7.52-103.44,6.52-108.74,7.35h.02Z"/>
        </g>
        <g>
          <path class="st12" d="M84.97,331.93s81.79,123.53,247.06,86.05c165.28-37.49,92.86-134.61,92.86-134.61l-339.92,48.56Z"/>
          <path class="st1" d="M271.03,425.54c-16.21,0-32.04-1.57-47.42-4.71-27.41-5.59-53.43-16.16-77.35-31.4-40.72-25.95-61.5-56.92-61.7-57.23l-.44-.66.78-.11,340.22-48.6.18.24c.25.34,25.09,34.25,12.11,69.42-11.25,30.49-46.67,52.69-105.26,65.98-20.81,4.72-41.24,7.08-61.11,7.08h0ZM85.84,332.31c3.23,4.61,23.72,32.56,60.99,56.3,23.81,15.17,49.72,25.68,77,31.25,34.11,6.96,70.47,6.16,108.09-2.37,58.24-13.21,93.41-35.2,104.54-65.35,12.22-33.12-9.61-65.16-11.8-68.23l-338.82,48.4h0Z"/>
        </g>
        <g>
          <line class="st0" x1="240.78" y1="328.83" x2="244.16" y2="345.73"/>
          <path class="st1" d="M244.16,346.23c-.23,0-.44-.16-.49-.4l-3.38-16.89c-.05-.27.12-.53.39-.59s.53.12.59.39l3.38,16.89c.05.27-.12.53-.39.59h-.1,0Z"/>
        </g>
        <g>
          <polygon class="st23" points="232.06 316.21 212.35 305.51 208.41 326.91 223.61 333.67 232.06 316.21"/>
          <path class="st1" d="M223.85,334.32l-16.01-7.11,4.14-22.46,20.73,11.26-8.87,18.32h0ZM208.97,326.61l14.4,6.4,8.03-16.59-18.68-10.14-3.75,20.33h0Z"/>
        </g>
        <path class="st20" d="M230.74,389.28s7.6,3.47,11.36,3.1,98.73-23.65,98.73-23.65l-39.04-33.79"/>
        <g>
          <g>
            <path class="st12" d="M329.5,355.14s-18.23-20.12-33.24-28.56c0,0-100.05,17.46-102.86,18.96-2.82,1.5,12.01,17.64,12.01,17.64l25.9,20.65,9.39,1.69,88.41-24.03.4-6.35h0Z"/>
            <path class="st1" d="M240.71,386.03l-9.62-1.73-.1-.08-25.9-20.65c-1.39-1.51-13.09-14.35-12.53-17.62.07-.39.27-.68.6-.86,2.85-1.52,98.93-18.3,103.01-19.01l.18-.03.16.09c14.92,8.39,33.19,28.46,33.37,28.66l.14.16-.43,6.92-88.86,24.15h-.02ZM231.52,383.36l9.15,1.65,87.96-23.9.36-5.78c-1.73-1.88-18.77-20.25-32.82-28.22-27.92,4.87-100.26,17.67-102.54,18.88-.03.01-.06.03-.08.14-.36,2.1,7.31,11.37,12.23,16.72l25.75,20.52h0Z"/>
          </g>
          <g>
            <path class="st18" d="M235.06,381.02l-41.31-35.28c-.45-.39-1.15-.08-1.18.51l-.48,10.95c0,.22.09.44.26.58l38.39,31.5s3.19.38,4.88-2.25-.56-6.01-.56-6.01h0Z"/>
            <path class="st1" d="M231.18,389.8c-.28,0-.47-.02-.5-.02l-.15-.02-.11-.09-38.39-31.5c-.29-.24-.46-.61-.44-.99l.48-10.95c.02-.47.3-.87.73-1.06s.92-.11,1.27.19l41.36,35.32.04.06c.1.15,2.41,3.68.57,6.55-1.44,2.24-3.83,2.5-4.86,2.5h0ZM230.94,388.79c.6.03,2.94.02,4.26-2.04,1.38-2.15-.26-4.98-.52-5.41l-41.25-35.23c-.09-.07-.18-.05-.22-.03-.05.02-.12.07-.13.19l-.48,10.95c0,.07.03.13.08.17l38.27,31.4h0Z"/>
          </g>
          <g>
            <path class="st18" d="M232.37,380.04l-.39,7.71c-.06,1.14.99,2.01,2.1,1.76l96.94-22.65c.72-.17,1.21-.85,1.14-1.59l-.84-8.82c-.09-.9-.95-1.52-1.83-1.3l-95.82,23.32c-.74.18-1.27.82-1.31,1.58h0Z"/>
            <path class="st1" d="M233.69,390.06c-.51,0-1.01-.18-1.41-.52-.54-.45-.83-1.11-.79-1.81l.39-7.71c.05-.97.74-1.81,1.69-2.04l95.82-23.32c.56-.14,1.15-.02,1.62.31s.77.86.83,1.43l.84,8.82c.09.99-.56,1.9-1.53,2.12l-96.94,22.65c-.17.04-.34.06-.51.06h0ZM329.85,355.6c-.08,0-.16,0-.23.03l-95.82,23.32c-.52.13-.9.59-.93,1.12h0l-.39,7.71c-.02.38.14.75.43.99.3.25.68.34,1.06.25l96.94-22.65c.48-.11.8-.56.76-1.05l-.84-8.82c-.03-.29-.18-.54-.41-.71-.17-.12-.37-.18-.57-.18h0Z"/>
          </g>
        </g>
        <g>
          <g>
            <path class="st8" d="M237.31,355.3s2.6,6.47-2.06,10.32c-5.19,4.29-22.37,5.24-21.95-8.14l24.01-2.18Z"/>
            <path class="st1" d="M225.43,368.96c-2.47,0-4.94-.44-7.01-1.46-2.67-1.31-5.81-4.11-5.62-10.03v-.44l24.84-2.26.14.34c.03.07,2.68,6.86-2.21,10.9-2.15,1.78-6.13,2.94-10.14,2.94h0ZM213.79,357.94c0,4.04,1.74,7.03,5.07,8.66,5.1,2.5,12.82,1.32,16.07-1.36,3.73-3.08,2.47-8.05,2.04-9.41l-23.18,2.11h0Z"/>
          </g>
          <g>
            <ellipse class="st8" cx="225.29" cy="357.14" rx="7.98" ry="12.39" transform="translate(-137.47 573.26) rotate(-88.54)"/>
            <path class="st1" d="M225.58,365.61c-.3,0-.59,0-.89-.02-4.36-.2-8.28-1.8-10.49-4.29-1.28-1.45-1.9-3.09-1.78-4.77.34-4.66,6.39-8.19,13.47-7.87,4.36.2,8.28,1.8,10.49,4.29,1.28,1.45,1.9,3.09,1.78,4.77-.32,4.46-5.88,7.89-12.58,7.89h0ZM224.99,349.64c-6.17,0-11.28,3.02-11.57,6.96-.1,1.4.43,2.79,1.53,4.03,2.04,2.29,5.7,3.77,9.79,3.96,6.55.29,12.13-2.82,12.43-6.94.1-1.4-.43-2.79-1.53-4.03-2.04-2.29-5.7-3.77-9.79-3.96-.29-.01-.58-.02-.86-.02h0Z"/>
          </g>
        </g>
        <g>
          <g>
            <path class="st8" d="M255.68,361.71s2.04,5.07-1.62,8.1c-4.07,3.37-17.55,4.11-17.21-6.38l18.83-1.71h0Z"/>
            <path class="st1" d="M246.35,372.52c-1.95,0-3.9-.35-5.54-1.15-2.12-1.04-4.62-3.27-4.47-7.97v-.44l19.65-1.79.14.34s2.13,5.45-1.76,8.67c-1.7,1.41-4.85,2.33-8.02,2.33h0ZM237.34,363.88c.02,3.11,1.33,5.33,3.91,6.6,3.96,1.94,9.96,1.03,12.48-1.06,2.84-2.35,1.96-6.03,1.59-7.18l-17.99,1.64h.01Z"/>
          </g>
          <g>
            <ellipse class="st8" cx="246.25" cy="363.15" rx="6.26" ry="9.71" transform="translate(-123.06 600.07) rotate(-88.54)"/>
            <path class="st1" d="M246.48,369.9c-.23,0-.47,0-.7-.02-3.44-.15-6.55-1.43-8.3-3.4-1.03-1.16-1.52-2.48-1.42-3.82.27-3.71,5.05-6.54,10.68-6.27,3.44.16,6.55,1.43,8.3,3.4,1.03,1.16,1.52,2.48,1.42,3.82h0c-.26,3.56-4.67,6.29-9.97,6.29h0ZM246.01,357.38c-4.79,0-8.74,2.32-8.96,5.36-.08,1.07.33,2.13,1.17,3.08,1.58,1.78,4.42,2.92,7.6,3.07,5.09.23,9.4-2.17,9.63-5.34h0c.08-1.07-.33-2.13-1.17-3.08-1.58-1.78-4.42-2.92-7.6-3.07-.22,0-.45-.01-.67-.01h0Z"/>
          </g>
        </g>
        <ellipse class="st20" cx="367.11" cy="346.01" rx="40.92" ry="11.45"/>
        <g>
          <g>
            <g>
              <path class="st6" d="M318.31,323.49s-.95,21.34,22.5,26.99c23.45,5.64,52.97.43,58.18-3.47s13.55-16.62,13.55-21.83"/>
              <path class="st1" d="M363.84,353.46c-7.69,0-15.73-.7-23.16-2.49-23.57-5.68-22.89-27.28-22.88-27.5l1,.04c-.04.86-.64,21,22.11,26.48,23.29,5.61,52.56.52,57.76-3.39,5.07-3.8,13.35-16.39,13.35-21.43h1c0,5.41-8.45,18.25-13.75,22.23-3.64,2.73-18.73,6.05-35.44,6.05h.01Z"/>
            </g>
            <g>
              <ellipse class="st6" cx="365.77" cy="323.49" rx="47.46" ry="15.2"/>
              <path class="st1" d="M365.77,339.19c-26.9,0-47.96-6.9-47.96-15.7s21.07-15.7,47.96-15.7,47.96,6.9,47.96,15.7-21.07,15.7-47.96,15.7ZM365.77,308.79c-25.9,0-46.96,6.59-46.96,14.7s21.07,14.7,46.96,14.7,46.96-6.59,46.96-14.7-21.07-14.7-46.96-14.7Z"/>
            </g>
            <g>
              <ellipse class="st6" cx="365.77" cy="329.28" rx="35.98" ry="9.54"/>
              <path class="st1" d="M365.77,339.32c-20.46,0-36.49-4.41-36.49-10.04s16.03-10.04,36.49-10.04,36.48,4.41,36.48,10.04-16.03,10.04-36.48,10.04ZM365.77,320.23c-21.23,0-35.49,4.68-35.49,9.04s14.26,9.04,35.49,9.04,35.48-4.68,35.48-9.04-14.26-9.04-35.48-9.04Z"/>
            </g>
          </g>
          <g>
            <g>
              <path class="st27" d="M387.85,322.64s2.6,6.47-2.06,10.32c-5.19,4.29-22.37,5.24-21.95-8.14l24.01-2.18Z"/>
              <path class="st1" d="M375.97,336.29c-2.47,0-4.94-.44-7.01-1.46-2.67-1.31-5.81-4.11-5.62-10.03v-.44l24.84-2.26.14.34c.03.07,2.68,6.86-2.21,10.9-2.15,1.78-6.13,2.94-10.14,2.94h0ZM364.33,325.28c0,4.04,1.74,7.03,5.07,8.66,5.1,2.5,12.82,1.32,16.07-1.36,3.78-3.12,2.49-8.05,2.04-9.41l-23.18,2.11h0Z"/>
            </g>
            <g>
              <ellipse class="st27" cx="375.84" cy="324.47" rx="7.98" ry="12.39" transform="translate(41.9 691.92) rotate(-88.54)"/>
              <path class="st1" d="M376.12,332.95c-.29,0-.59,0-.89-.02-4.36-.2-8.28-1.8-10.49-4.29-1.28-1.45-1.9-3.09-1.78-4.77.34-4.66,6.38-8.2,13.47-7.87,4.36.2,8.28,1.8,10.49,4.29,1.28,1.45,1.9,3.09,1.78,4.77-.33,4.46-5.88,7.89-12.58,7.89h0ZM375.53,316.98c-6.17,0-11.28,3.02-11.57,6.96-.1,1.4.43,2.79,1.53,4.03,2.04,2.29,5.7,3.77,9.79,3.96,6.58.29,12.13-2.82,12.43-6.94.1-1.4-.43-2.79-1.53-4.03-2.04-2.29-5.7-3.77-9.79-3.96-.29-.01-.58-.02-.86-.02Z"/>
            </g>
          </g>
          <g>
            <g>
              <path class="st27" d="M349.12,320.53s3.39,4.29.73,8.22c-2.96,4.38-15.67,8.9-18.31-1.26l17.58-6.96Z"/>
              <path class="st1" d="M339.31,334.14c-.58,0-1.16-.04-1.71-.14-2.33-.4-5.35-1.83-6.54-6.38l-.11-.43,18.34-7.26.23.29s3.58,4.63.75,8.81c-1.76,2.61-6.61,5.1-10.96,5.1h0ZM332.15,327.79c.9,2.98,2.79,4.74,5.62,5.22,4.35.74,9.85-1.83,11.68-4.54,2.04-3.02.16-6.34-.5-7.33l-16.8,6.65Z"/>
            </g>
            <g>
              <ellipse class="st27" cx="340.48" cy="324.6" rx="9.71" ry="6.26" transform="translate(-72.17 98.75) rotate(-14.94)"/>
              <path class="st1" d="M338.38,331.61c-2.05,0-3.94-.46-5.37-1.36-1.31-.82-2.16-1.95-2.44-3.26-.79-3.64,3.01-7.69,8.47-9.03,3.34-.82,6.68-.48,8.92.92,1.31.82,2.16,1.95,2.44,3.26.79,3.64-3.01,7.69-8.47,9.03-1.2.3-2.4.44-3.55.44h0ZM342.61,318.52c-1.07,0-2.19.14-3.32.41-4.94,1.21-8.41,4.74-7.73,7.85.23,1.04.92,1.95,1.99,2.62,2.02,1.26,5.06,1.56,8.16.8,4.94-1.22,8.41-4.74,7.73-7.85-.23-1.04-.92-1.95-1.99-2.63-1.28-.8-2.97-1.21-4.83-1.21h-.01Z"/>
            </g>
          </g>
          <g>
            <g>
              <path class="st8" d="M362.79,325.67s2.04,5.07-1.62,8.1c-4.07,3.37-17.55,4.11-17.21-6.38l18.83-1.71h0Z"/>
              <path class="st1" d="M353.47,336.48c-1.95,0-3.91-.35-5.54-1.15-2.12-1.04-4.62-3.27-4.47-7.97v-.44l19.66-1.79.14.34s2.13,5.45-1.76,8.67c-1.7,1.41-4.85,2.33-8.02,2.33h-.01ZM344.46,327.84c.02,3.11,1.33,5.33,3.91,6.59,3.96,1.94,9.96,1.03,12.48-1.05,2.84-2.35,1.96-6.03,1.59-7.18l-17.99,1.64h0Z"/>
            </g>
            <g>
              <ellipse class="st8" cx="353.37" cy="327.1" rx="6.26" ry="9.71" transform="translate(17.37 672.02) rotate(-88.54)"/>
              <path class="st1" d="M353.59,333.86c-.23,0-.46,0-.7-.02-3.44-.16-6.55-1.43-8.3-3.4-1.03-1.16-1.52-2.48-1.42-3.82.27-3.71,5.04-6.53,10.68-6.27,3.44.15,6.55,1.43,8.3,3.4,1.03,1.16,1.52,2.48,1.42,3.82h0c-.26,3.56-4.67,6.29-9.98,6.29h0ZM353.13,321.34c-4.79,0-8.74,2.32-8.96,5.36-.08,1.07.33,2.13,1.17,3.08,1.58,1.78,4.42,2.92,7.6,3.07,5.07.22,9.4-2.17,9.63-5.35h0c.08-1.07-.33-2.13-1.17-3.08-1.58-1.78-4.42-2.92-7.6-3.07-.23,0-.45-.01-.67-.01h0Z"/>
            </g>
          </g>
          <g>
            <g>
              <path class="st8" d="M359.51,318.73s2.04,5.07-1.62,8.1c-4.07,3.37-17.55,4.11-17.21-6.38l18.83-1.71h0Z"/>
              <path class="st1" d="M350.19,329.54c-1.95,0-3.9-.35-5.54-1.15-2.12-1.04-4.62-3.27-4.47-7.97v-.44l19.65-1.79.14.34s2.13,5.45-1.76,8.67c-1.7,1.41-4.85,2.33-8.02,2.33h0ZM341.18,320.89c.02,3.11,1.33,5.33,3.91,6.6,3.96,1.94,9.96,1.03,12.48-1.05,2.84-2.35,1.96-6.03,1.59-7.18l-17.99,1.64h0Z"/>
            </g>
            <g>
              <ellipse class="st8" cx="350.1" cy="320.16" rx="6.26" ry="9.71" transform="translate(21.12 661.99) rotate(-88.54)"/>
              <path class="st1" d="M350.31,326.92c-.23,0-.46,0-.7-.02-3.44-.16-6.55-1.43-8.3-3.4-1.03-1.16-1.52-2.48-1.42-3.82.27-3.71,5.04-6.52,10.68-6.27,3.44.16,6.55,1.43,8.3,3.4,1.03,1.16,1.52,2.48,1.42,3.82-.26,3.56-4.67,6.29-9.98,6.29h0ZM349.85,314.4c-4.79,0-8.74,2.33-8.96,5.36-.08,1.07.33,2.13,1.17,3.08,1.58,1.78,4.42,2.92,7.6,3.07,5.08.22,9.4-2.17,9.63-5.35h0c.08-1.07-.33-2.13-1.17-3.08-1.58-1.78-4.42-2.92-7.6-3.07-.22,0-.45-.01-.67-.01h0Z"/>
            </g>
          </g>
          <g>
            <g>
              <path class="st8" d="M362.04,313.28s2.04,5.07-1.62,8.1c-4.07,3.37-17.55,4.11-17.21-6.38l18.83-1.71h0Z"/>
              <path class="st1" d="M352.72,324.1c-1.95,0-3.9-.35-5.54-1.15-2.12-1.04-4.62-3.27-4.47-7.97v-.44l19.66-1.79.14.34s2.13,5.45-1.76,8.67c-1.7,1.41-4.85,2.33-8.02,2.33h-.01ZM343.7,315.45c.02,3.11,1.33,5.33,3.92,6.6,3.96,1.94,9.96,1.03,12.48-1.06,2.84-2.35,1.96-6.03,1.59-7.18l-17.99,1.64h0Z"/>
            </g>
            <g>
              <ellipse class="st8" cx="352.61" cy="314.71" rx="6.26" ry="9.71" transform="translate(29.02 659.19) rotate(-88.54)"/>
              <path class="st1" d="M352.84,321.48c-.23,0-.46,0-.7-.02-3.44-.16-6.55-1.43-8.3-3.4-1.03-1.16-1.52-2.48-1.42-3.82.27-3.71,5.04-6.53,10.68-6.27,3.44.15,6.55,1.43,8.3,3.4,1.03,1.16,1.52,2.48,1.42,3.82h0c-.26,3.56-4.67,6.29-9.98,6.29h0ZM352.38,308.95c-4.79,0-8.74,2.32-8.96,5.36-.08,1.07.33,2.13,1.17,3.08,1.58,1.78,4.42,2.92,7.6,3.07,5.08.22,9.4-2.17,9.63-5.34.08-1.07-.33-2.13-1.17-3.08-1.58-1.78-4.42-2.92-7.6-3.07-.23,0-.45-.01-.67-.01h0Z"/>
            </g>
          </g>
          <g>
            <g>
              <path class="st8" d="M399.4,321.5s2.04,5.07-1.62,8.1c-4.07,3.37-17.55,4.11-17.21-6.38l18.83-1.71h0Z"/>
              <path class="st1" d="M390.08,332.31c-1.95,0-3.9-.35-5.54-1.15-2.12-1.04-4.62-3.27-4.47-7.97v-.44l19.65-1.79.14.34s2.13,5.45-1.76,8.67c-1.7,1.41-4.85,2.33-8.02,2.33h0ZM381.07,323.67c.02,3.11,1.33,5.33,3.92,6.6,3.96,1.94,9.96,1.03,12.48-1.06,2.84-2.35,1.96-6.03,1.59-7.18l-17.99,1.64h0Z"/>
            </g>
            <g>
              <ellipse class="st8" cx="389.98" cy="322.93" rx="6.26" ry="9.71" transform="translate(57.22 704.56) rotate(-88.54)"/>
              <path class="st1" d="M390.2,329.69c-.23,0-.47,0-.7-.02-3.44-.15-6.55-1.43-8.3-3.4-1.03-1.16-1.52-2.48-1.42-3.82.27-3.71,5.05-6.52,10.68-6.27,3.44.16,6.55,1.43,8.3,3.4,1.03,1.16,1.52,2.48,1.42,3.82-.26,3.56-4.67,6.29-9.97,6.29h0ZM389.74,317.17c-4.79,0-8.74,2.32-8.96,5.36-.08,1.07.33,2.13,1.17,3.08,1.58,1.78,4.42,2.92,7.6,3.07,5.1.22,9.4-2.17,9.63-5.34.08-1.07-.33-2.13-1.17-3.08-1.58-1.78-4.42-2.92-7.6-3.07-.22,0-.45-.01-.67-.01h0Z"/>
            </g>
          </g>
          <g>
            <g>
              <path class="st27" d="M389.32,318.54s2.04,5.07-1.62,8.1c-4.07,3.37-17.55,4.11-17.21-6.38l18.83-1.71h0Z"/>
              <path class="st1" d="M380,329.35c-1.95,0-3.91-.35-5.54-1.15-2.12-1.04-4.62-3.27-4.47-7.97v-.44l19.66-1.79.14.34s2.13,5.45-1.76,8.67c-1.7,1.41-4.85,2.33-8.02,2.33h-.01ZM370.99,320.71c.02,3.11,1.33,5.33,3.91,6.59,3.96,1.94,9.96,1.03,12.48-1.05,2.84-2.35,1.96-6.03,1.59-7.18l-17.99,1.64h0Z"/>
            </g>
            <g>
              <ellipse class="st27" cx="379.91" cy="319.98" rx="6.26" ry="9.71" transform="translate(50.35 691.61) rotate(-88.54)"/>
              <path class="st1" d="M380.12,326.73c-.23,0-.46,0-.7-.02-3.44-.16-6.55-1.43-8.3-3.4-1.03-1.16-1.52-2.48-1.42-3.82.27-3.71,5.04-6.53,10.68-6.27,3.44.15,6.55,1.43,8.3,3.4,1.03,1.16,1.52,2.48,1.42,3.82h0c-.26,3.56-4.67,6.29-9.98,6.29h0ZM379.66,314.21c-4.79,0-8.74,2.32-8.96,5.36-.08,1.07.33,2.13,1.17,3.08,1.58,1.78,4.42,2.92,7.6,3.07,5.07.22,9.4-2.17,9.63-5.35h0c.08-1.07-.33-2.13-1.17-3.08-1.58-1.78-4.42-2.92-7.6-3.07-.23,0-.45-.01-.67-.01h0Z"/>
            </g>
          </g>
          <g>
            <g>
              <path class="st27" d="M379.91,310.02s3.39,4.29.73,8.22c-2.96,4.38-15.67,8.9-18.31-1.26l17.58-6.96Z"/>
              <path class="st1" d="M370.09,323.63c-.58,0-1.16-.04-1.71-.14-2.33-.4-5.35-1.83-6.54-6.38l-.11-.43,18.34-7.26.23.29s3.58,4.63.75,8.81c-1.76,2.61-6.61,5.1-10.96,5.1h0ZM362.93,317.28c.9,2.98,2.79,4.74,5.62,5.22,4.35.74,9.85-1.83,11.68-4.54,2.06-3.05.18-6.34-.5-7.34l-16.8,6.65h0Z"/>
            </g>
            <g>
              <ellipse class="st27" cx="371.26" cy="314.1" rx="9.71" ry="6.26" transform="translate(-68.43 106.33) rotate(-14.94)"/>
              <path class="st1" d="M369.17,321.1c-2.05,0-3.94-.46-5.37-1.36-1.31-.82-2.16-1.95-2.44-3.26-.79-3.64,3.01-7.69,8.47-9.03,3.35-.82,6.68-.48,8.92.92,1.31.82,2.16,1.95,2.44,3.26.79,3.64-3.01,7.69-8.47,9.03-1.2.3-2.4.44-3.55.44h0ZM373.39,308.01c-1.07,0-2.2.14-3.33.41-4.94,1.21-8.41,4.74-7.73,7.85.23,1.04.92,1.95,1.99,2.62,2.02,1.26,5.07,1.55,8.16.79,4.94-1.22,8.41-4.74,7.73-7.85-.23-1.04-.92-1.95-1.99-2.63-1.28-.8-2.97-1.21-4.83-1.21v.02Z"/>
            </g>
          </g>
        </g>
        <g>
          <path class="st7" d="M229.33,167.59s-45.98-9.64-69.26,10.63-38.86,62.57-38.48,79.84c.38,17.27,9.39,45.05,39.42,52.56,0,0-.71,12.44,5.02,17.5,6.05,5.35,9.62-.99,9.62-.99,0,0,.19,5.96,5.44,6.34s7.07-4.08,7.07-4.08c0,0,2.92,5.49,7.43,4.36,4.5-1.13,5.58-4.36,5.58-4.36-1.08,4.08,1.85,7.55,7.37,6.34s11.68-12.75,11.68-25.62c0-18.72-16.05-30.64-19.8-34.02s-22.38-14.27-19.33-22.15c2.14-5.54,4.6-4.79,6.95-15.77s100.24-9.01,106.8,9.57,0,41.11-12.95,44.11c-3,.75-29.28,10.89-25.53,43.92,0,0,1.13,9.01,9.76,5.63,0,0,4.5,11.26,11.26,6.38,0,0,2.63,4.13,6.76,4.88s10.89-10.14,10.89-10.14c0,0,3.38,7.13,8.63,2.25s12.01-8.26,16.52-11.64c4.5-3.38,6.95-6.95,8.26-13.51,50.31-38.1-1.5-114.88-9.39-123.89s-30.03-28.16-59.32-26.28c-29.28,1.88-30.41-1.88-30.41-1.88v.02Z"/>
          <path class="st1" d="M284.56,353.21c-.17,0-.34-.01-.5-.04-3.54-.64-5.98-3.57-6.8-4.68-1.57,1-3.15,1.28-4.72.82-3.64-1.06-6.02-5.77-6.69-7.26-2.53.89-4.69.83-6.41-.2-3.01-1.79-3.55-5.83-3.57-6.01-4.02-35.36,25.6-44.4,25.9-44.47,4.25-.99,7.96-4.17,10.72-9.21,5.09-9.28,5.85-23.04,1.88-34.25-1.98-5.61-13.28-10.29-31.82-13.2-15.78-2.48-35.4-3.38-51.2-2.35-13.69.89-22.22,3.1-22.82,5.92-1.52,7.11-3.08,9.37-4.59,11.55-.83,1.2-1.62,2.34-2.37,4.29-2.29,5.92,9.16,14.2,15.31,18.65,1.73,1.25,3.1,2.24,3.89,2.95.32.29.74.65,1.23,1.07,5.12,4.38,18.73,16,18.73,33.32,0,11.07-5.16,24.58-12.08,26.11-2.85.63-5.26.11-6.77-1.47-.85-.88-1.33-2.02-1.41-3.28-.88,1.02-2.36,2.18-4.76,2.78-3.8.95-6.49-2.31-7.53-3.85-.85,1.35-3.03,3.88-7.13,3.58-4.05-.29-5.33-3.65-5.73-5.54-.73.86-1.99,1.97-3.73,2.27-1.9.32-3.89-.42-5.9-2.2-5.32-4.7-5.28-15.24-5.21-17.49-28.38-7.31-38.97-33.04-39.4-52.93-.4-18.4,15.65-60.2,38.65-80.23,23.19-20.2,69.23-10.84,69.69-10.75l.29.06.07.24c.21.28,3.09,3.29,29.91,1.57,33.68-2.16,57.16,23.51,59.72,26.45,5.52,6.31,34.68,49.05,30.87,86.34-1.61,15.72-8.81,28.55-21.41,38.16-1.29,6.3-3.58,10.01-8.41,13.63-1.67,1.25-3.64,2.5-5.73,3.82-3.5,2.21-7.46,4.73-10.75,7.78-1.59,1.47-3.19,2.06-4.76,1.77-2.11-.41-3.56-2.32-4.24-3.41-1.61,2.47-6.65,9.7-10.45,9.7h.03ZM277.52,347.08l.29.45s2.57,3.96,6.43,4.66c3.11.56,8.54-6.96,10.37-9.91l.48-.78.39.83s1.53,3.15,3.95,3.62c1.25.24,2.55-.27,3.89-1.52,3.36-3.12,7.36-5.65,10.89-7.89,2.07-1.31,4.02-2.55,5.67-3.78,4.65-3.49,6.84-7.07,8.07-13.21l.04-.19.15-.11c12.46-9.44,19.59-22.08,21.17-37.58,3.78-36.94-25.15-79.32-30.63-85.58-2.54-2.9-25.72-28.24-58.91-26.11-25.21,1.61-29.88-.88-30.75-1.93-3.34-.65-46.59-8.63-68.63,10.56-22.42,19.53-38.7,61.66-38.31,79.45.43,19.63,10.91,45.05,39.04,52.08l.4.1-.02.41c0,.12-.63,12.25,4.85,17.1,1.78,1.57,3.48,2.23,5.07,1.96,2.4-.41,3.77-2.8,3.78-2.82l.87-1.55.06,1.78c0,.23.24,5.51,4.98,5.85,4.81.36,6.5-3.6,6.57-3.77l.4-.98.5.93s2.79,5.14,6.87,4.11c4.16-1.04,5.19-3.92,5.23-4.04l.96.29c-.47,1.77-.12,3.42.94,4.54,1.26,1.31,3.33,1.74,5.83,1.18,5.22-1.15,11.29-12.38,11.29-25.13,0-16.86-13.36-28.27-18.38-32.56-.5-.43-.92-.79-1.25-1.09-.75-.67-2.16-1.7-3.81-2.89-6.82-4.93-18.23-13.18-15.66-19.82.8-2.06,1.65-3.3,2.48-4.5,1.46-2.11,2.96-4.28,4.44-11.19.98-4.56,15.29-6.16,23.73-6.71,31.21-2.02,79.46,3.3,84.03,16.22,4.11,11.64,3.35,25.4-1.95,35.07-2.9,5.29-6.83,8.65-11.36,9.7-.28.07-29.07,8.86-25.14,43.38,0,.03.5,3.73,3.1,5.27,1.55.92,3.56.9,5.99-.04l.46-.18.18.46c.02.06,2.46,6.03,6.23,7.12,1.39.41,2.83.08,4.27-.96l.43-.31h.03Z"/>
        </g>
        <path class="st1" d="M175.65,327.64c-.1,0-.19-.03-.28-.09-.23-.15-.29-.46-.13-.69,3.8-5.63-.34-17.03-.38-17.15-.1-.26.04-.55.3-.64.26-.1.55.04.64.3.18.49,4.36,12,.27,18.05-.1.14-.25.22-.42.22h0Z"/>
        <path class="st1" d="M188.17,329.9c-.05,0-.11,0-.16-.03-.26-.09-.4-.37-.31-.63,4.03-11.81.15-23.09.11-23.2-.09-.26.04-.55.31-.64.26-.09.55.04.64.31.04.12,4.03,11.72-.11,23.85-.07.21-.27.34-.47.34h0Z"/>
        <path class="st1" d="M201.18,329.9c-.09,0-.18-.02-.26-.07-.24-.14-.31-.45-.17-.69,6.24-10.25,1.17-28.42,1.12-28.6-.08-.27.08-.54.34-.62.27-.08.54.08.62.34.22.76,5.24,18.77-1.23,29.4-.09.16-.26.24-.43.24h0Z"/>
        <g>
          <path class="st4" d="M212.21,329.12c-.42-1.27-4.36-4.36-6.48-2.82s-4.36,5.07-.7,7.04,7.6-2.96,7.18-4.22Z"/>
          <path class="st1" d="M206.83,334.3c-.71,0-1.39-.17-2.04-.52-1.71-.92-2.14-2.13-2.2-2.98-.13-1.85,1.34-3.8,2.84-4.91.78-.57,1.84-.68,3.04-.29,1.91.61,3.86,2.33,4.2,3.35h0c.33.98-.83,2.71-2.15,3.81-1.2,1.01-2.48,1.52-3.71,1.52l.02.02ZM207.11,326.37c-.43,0-.79.11-1.09.33-1.25.91-2.54,2.56-2.44,4.03.06.87.62,1.6,1.68,2.17,1.89,1.02,3.71-.12,4.63-.89,1.4-1.17,1.93-2.46,1.84-2.73-.21-.62-1.81-2.16-3.56-2.71-.39-.12-.74-.18-1.06-.18v-.02Z"/>
        </g>
        <g>
          <path class="st4" d="M298.72,335.73c1.21-.02,4.94,2.26,4.15,4.4s-3.26,4.95-5.94,2.57.58-6.95,1.79-6.97Z"/>
          <path class="st1" d="M299.03,344.11c-.69,0-1.54-.23-2.44-1.03-1.23-1.09-1.53-2.72-.84-4.57.57-1.53,1.92-3.25,2.95-3.27h.02c1.04,0,3.14,1.18,4.13,2.57.6.85.77,1.72.47,2.5-.57,1.55-1.9,3.29-3.56,3.71-.22.05-.47.09-.74.09h0ZM298.73,336.23c-.32,0-1.47,1.08-2.04,2.65-.37,1.01-.57,2.43.58,3.45.75.67,1.51.91,2.27.72,1.3-.33,2.4-1.83,2.87-3.09.17-.47.06-1-.35-1.58-.89-1.25-2.69-2.15-3.31-2.15h-.02Z"/>
        </g>
        <path class="st1" d="M266.13,341.91c-.27,0-.49-.21-.5-.49-.56-19.54,13.83-31.72,13.98-31.84.21-.17.53-.15.7.07.18.21.15.53-.07.7-.14.12-14.17,12-13.62,31.04,0,.28-.21.51-.49.51h-.01,0Z"/>
        <path class="st1" d="M277.39,348.29h-.05c-.27-.03-.47-.28-.44-.55,2.53-23.52,17.81-33.86,17.96-33.96.23-.16.54-.09.69.14s.09.54-.14.69c-.15.1-15.04,10.21-17.52,33.24-.03.26-.24.45-.5.45h0Z"/>
        <path class="st1" d="M295.03,343.04h-.09c-.27-.05-.45-.31-.4-.58,1.72-9.64,6.01-15.39,9.31-18.53,3.59-3.42,6.75-4.52,6.88-4.57.26-.09.54.05.63.31s-.05.55-.31.64c-.12.04-12.34,4.46-15.53,22.33-.04.24-.25.41-.49.41h0Z"/>
        <g>
          <path class="st7" d="M270.63,149.76s-14.45,17.27,6.01,19.33,19.9,27.41,19.9,27.41l-61.38,41.67-24.21-60.25s-11.64-14.64,3.75-15.2,9.76-16.33,20.46-20.27,35.48,7.32,35.48,7.32h-.01Z"/>
          <path class="st1" d="M234.92,238.93l-24.42-60.76c-.6-.76-5.88-7.75-3.79-12.29,1.05-2.28,3.73-3.51,7.96-3.66,8.33-.31,10.22-5.14,12.22-10.26,1.57-4.02,3.19-8.18,8.08-9.98,10.77-3.97,34.84,6.87,35.86,7.33l.6.27-.42.5c-.07.08-6.59,7.98-4.38,13.4,1.16,2.84,4.54,4.56,10.05,5.11,20.68,2.09,20.35,27.66,20.35,27.91v.26l-62.11,42.16h0ZM240.73,142.1c-2.03,0-3.87.24-5.4.81-4.47,1.65-5.94,5.42-7.5,9.41-2.03,5.2-4.13,10.57-13.12,10.9-3.83.14-6.22,1.18-7.09,3.08-1.91,4.16,3.66,11.24,3.71,11.31l.07.12,23.98,59.68,60.65-41.17c-.02-2.63-.77-24.76-19.45-26.64-5.92-.6-9.58-2.53-10.88-5.73-2.11-5.19,2.65-11.98,4.13-13.9-3.19-1.39-18.61-7.85-29.11-7.85v-.02Z"/>
        </g>
        <g>
          <path class="st11" d="M200.43,216.77c-3.38,14.27-16.52,34.16-16.52,34.16-8.26-14.64-55.19-30.78-55.19-30.78,5.63-12.01,17.27-33.6,31.53-45.61,14.27-12.01,54.43-11.83,54.43-11.83-.38,35.29,35.66,58.56,35.66,58.56,0,0,24.4-21.77,26.28-52.18,0,0,20.82-2.11,39.04,13.33,10.93,9.26,18.77,26.37,26.65,49.74,0,0-25.9,3-47.3,21.02l-3-1.88c-4.5,9.39-.38,24.78-5.26,25.53s-42.05,12.39-82.59,3c0,0-20.27-16.14-22.15-18.4s-7.41-6.59.33-12.93"/>
          <path class="st1" d="M237.29,283.97c-10.36,0-21.66-.97-33.22-3.64l-.2-.1c-.83-.66-20.33-16.2-22.22-18.47-.19-.23-.42-.48-.67-.75-1.32-1.44-3.31-3.62-3.11-6.45.14-2,1.39-4.03,3.7-6.04-11.69-13.57-52.57-27.75-53.01-27.9l-.53-.18.24-.5c4.45-9.5,16.45-32.97,31.67-45.78,5.99-5.05,17.04-8.59,32.83-10.53,11.72-1.44,21.83-1.41,21.93-1.41h.5v.51c-.35,32.83,31.55,55.49,35.11,57.92,2.72-2.56,24.1-23.5,25.83-51.58l.03-.42.42-.04c.21-.02,21.24-1.95,39.42,13.44,9.77,8.27,17.78,23.21,26.8,49.96l.2.59-.61.07c-.26.03-26.01,3.2-47.04,20.91l-.28.23-2.83-1.77c-1.91,4.36-2.06,9.88-2.19,14.77-.15,5.63-.27,10.07-3.21,10.52-.61.09-1.76.37-3.37.75-7.33,1.74-24.75,5.89-46.2,5.89h0ZM204.4,279.38c35.19,8.11,68.04.3,78.85-2.27,1.63-.39,2.8-.67,3.45-.77,2.11-.32,2.22-4.61,2.36-9.56.13-4.93.3-11.06,2.52-15.69l.24-.5,3.17,1.98c19.4-16.19,42.64-20.22,46.68-20.82-8.88-26.21-16.76-40.86-26.31-48.95-16.44-13.93-35.22-13.43-38.25-13.24-2.07,30.04-26.17,51.87-26.42,52.09l-.28.25-.32-.21c-.36-.23-35.92-23.61-35.9-58.48-4.67.03-40.5.67-53.61,11.71-14.8,12.47-26.57,35.2-31.17,44.94,5.36,1.88,45.68,16.36,54.51,30.13,2.3-3.58,13.04-20.78,16.02-33.33l.97.23c-3.36,14.19-16.46,34.12-16.59,34.32l-.45.68-.4-.71c-.35-.62-.78-1.25-1.27-1.88-2.09,1.82-3.22,3.62-3.34,5.34-.17,2.39,1.57,4.3,2.85,5.7.26.29.5.55.7.79,1.76,2.11,20.53,17.09,21.99,18.25Z"/>
        </g>
        <g>
          <g>
            <g>
              <path class="st23" d="M254.26,90.88s9.35-3.55,6.86-12.63-8.51-5.21-8.51-5.21c0,0,5.66-6.8-2.46-11.34-6.4-3.57-10.93,3.48-10.93,3.48,0,0-3.92-9.68-14.53-3.96s-1.59,13.34-1.59,13.34c0,0-9.09-.47-8.76,7.35s9.38,7.94,9.38,7.94c0,0-4.18,2.34,1.25,6.02,11.28,7.64,29.29-4.99,29.29-4.99h0Z"/>
              <path class="st1" d="M233.63,98.81c-3.44,0-6.46-.84-8.94-2.53-2.05-1.39-3.06-2.8-3-4.19.03-.79.4-1.41.8-1.86-2.59-.37-8.39-1.91-8.65-8.3-.09-2.25.55-4.07,1.91-5.42,1.86-1.84,4.59-2.31,6.16-2.42-1.2-1.28-3.15-3.87-2.84-6.83.26-2.5,2.08-4.68,5.4-6.47,3.52-1.9,6.72-2.36,9.5-1.35,2.99,1.08,4.67,3.54,5.35,4.8,1.41-1.75,5.6-6.02,11.08-2.96,2.6,1.45,4.13,3.29,4.53,5.47.38,2.07-.33,3.98-1,5.21.91-.25,2.11-.38,3.35.1,1.98.76,3.44,2.8,4.34,6.07,2.47,9.01-6.28,12.86-7.11,13.2-.51.35-4.9,3.31-10.48,5.39-3.76,1.4-7.25,2.1-10.39,2.1h-.01ZM222.83,75.06c-.93,0-4.35.15-6.39,2.17-1.15,1.14-1.69,2.71-1.61,4.66.3,7.26,8.54,7.45,8.89,7.46l1.84.02-1.6.91s-1.23.71-1.28,1.85c-.04,1,.85,2.15,2.57,3.31,10.86,7.36,28.54-4.86,28.72-4.99l.11-.06c.36-.14,8.9-3.51,6.56-12.03-.81-2.94-2.06-4.76-3.72-5.4-2.02-.78-4.02.47-4.04.48l-2.67,1.7,2.02-2.44s2.28-2.79,1.71-5.81c-.35-1.87-1.71-3.47-4.03-4.77-5.92-3.31-10.09,3.04-10.26,3.31l-.52.81-.36-.89s-1.55-3.71-5.15-5c-2.5-.9-5.42-.46-8.68,1.3-3.01,1.62-4.65,3.54-4.88,5.69-.38,3.6,3.33,6.79,3.37,6.82l1.13.95-1.47-.07h-.24l-.02.02Z"/>
            </g>
            <g>
              <path class="st16" d="M257.71,92.04s-.25-10.57-18.93-5.65c-14.08,3.71-12.29,14.99-12.29,14.99,0,0,31.22-9.34,31.22-9.34Z"/>
              <path class="st1" d="M226.09,102.02l-.09-.56c-.02-.12-1.7-11.78,12.66-15.56,7.62-2.01,13.19-1.74,16.56.8,2.89,2.18,2.99,5.2,3,5.33v.38l-32.12,9.61h-.01ZM247.5,85.59c-2.47,0-5.35.43-8.59,1.28-11.82,3.11-12.13,11.55-11.98,13.86l30.24-9.05c-.12-.8-.6-2.72-2.58-4.19-1.69-1.26-4.08-1.89-7.09-1.89h0Z"/>
            </g>
            <g>
              <path class="st24" d="M274.79,149.31c0-1.97.14-7.13,6.77-7.13s6.28,5.5,6.14,8.71-3.09,6.28-8.25,5.05-4.67-4.67-4.67-6.64h.01Z"/>
              <path class="st5" d="M281.71,156.72c-.71,0-1.49-.09-2.36-.29-5.16-1.23-5.1-4.63-5.06-6.66v-.47c0-5.06,2.45-7.63,7.28-7.63,2.19,0,3.87.59,4.99,1.75,1.9,1.98,1.76,5.19,1.67,7.31v.17c-.08,1.79-.94,3.43-2.36,4.5-.86.65-2.21,1.31-4.15,1.31h-.01ZM281.56,142.68c-5.62,0-6.27,3.78-6.27,6.63v.48c-.04,1.95-.09,4.62,4.29,5.67,2.87.68,4.67-.08,5.68-.84,1.18-.89,1.89-2.26,1.95-3.75v-.17c.1-2.07.22-4.9-1.38-6.57-.92-.96-2.35-1.44-4.26-1.44h-.01Z"/>
            </g>
            <g>
              <path class="st23" d="M261.15,160.61s4.67,3.2,2.95,5.9-17.21,4.42-28.27-8.6l25.32,2.7h0Z"/>
              <path d="M257.16,163.87c-9.06,0-16.84-2.87-18.34-3.91l.57-.82c2.11,1.48,17.34,6.74,30.4,1.45,9.46-3.83,15.5-12.26,17.98-25.06,3.57-18.49-3.65-29.47-10.34-35.42-9.93-8.84-25.99-12.45-38.17-8.58-9.74,3.09-17.06,10.67-20.08,20.78-3.88,12.99-.3,27.58,9.83,40.04l-.78.63c-10.34-12.71-13.99-27.64-10.01-40.95,3.12-10.44,10.68-18.26,20.74-21.45,12.7-4.03,28.8-.42,39.14,8.79,6.88,6.13,14.32,17.41,10.66,36.36-2.54,13.15-8.79,21.83-18.58,25.8-4.27,1.73-8.78,2.36-13.01,2.36v-.02Z"/>
              <g>
                <path class="st7" d="M228.62,152.67c-19.99-24.58-12.06-54.45,10.49-61.61,20.65-6.55,56.37,7.27,49.16,44.57-7.21,37.3-45.88,26.22-49.16,23.92"/>
                <path class="st1" d="M257.16,163.87c-9.06,0-16.84-2.87-18.34-3.91l.57-.82c2.11,1.48,17.34,6.74,30.4,1.45,9.46-3.83,15.5-12.26,17.98-25.06,3.57-18.49-3.65-29.47-10.34-35.42-9.93-8.84-25.99-12.45-38.17-8.58-9.74,3.09-17.06,10.67-20.08,20.78-3.88,12.99-.3,27.58,9.83,40.04l-.78.63c-10.34-12.71-13.99-27.64-10.01-40.95,3.12-10.44,10.68-18.26,20.74-21.45,12.7-4.03,28.8-.42,39.14,8.79,6.88,6.13,14.32,17.41,10.66,36.36-2.54,13.15-8.79,21.83-18.58,25.8-4.27,1.73-8.78,2.36-13.01,2.36v-.02Z"/>
              </g>
              <g>
                <path class="st23" d="M239.34,90.85c-13.19,4.19-21.36,16.15-21.89,30.27,15.75,11.18,19.2-11.64,19.2-11.64,11.14,7.54,17.04-5.9,17.04-5.9,6.88,9.18,11.8,1.64,11.8,1.64,6.7,6.31,14.23,4.67,19.17,2.37-9.49-16.04-31.02-21.28-45.32-16.74Z"/>
                <path class="st1" d="M225.39,124.71c-2.5,0-5.25-1.06-8.23-3.18l-.22-.16v-.27c.56-14.78,9.08-26.55,22.24-30.73,14.52-4.61,36.2.57,45.9,16.97l.28.47-.5.23c-5.12,2.39-12.57,3.92-19.31-2.08-.7.86-2.41,2.59-4.88,2.67-2.34.08-4.62-1.31-6.89-4.11-.93,1.76-3.62,6.12-8.07,7.4-2.76.8-5.69.25-8.71-1.61-.52,2.64-2.62,11.29-8.41,13.75-1.02.43-2.09.65-3.21.65h0ZM217.96,120.87c3.93,2.73,7.37,3.49,10.25,2.27,6.2-2.63,7.93-13.62,7.95-13.73l.12-.78.66.44c2.99,2.02,5.86,2.66,8.51,1.89,5.05-1.46,7.76-7.52,7.79-7.58l.34-.78.51.69c2.22,2.96,4.41,4.41,6.55,4.35,2.7-.09,4.41-2.66,4.43-2.68l.33-.5.44.41c6.22,5.85,13.19,4.67,18.1,2.51-9.59-15.6-30.44-20.49-44.45-16.04h0c-12.67,4.02-20.9,15.33-21.53,29.54h0Z"/>
              </g>
              <g>
                <path class="st7" d="M221.58,139.72s-13.52,1.97-12.54-11.06c.98-13.03,16.84-8.11,18.31-3.69"/>
                <path class="st1" d="M219.71,140.33c-2.2,0-5.81-.41-8.36-2.8-2.16-2.01-3.1-5.01-2.81-8.91.52-6.88,4.98-8.45,7.59-8.77,5.1-.64,10.79,2.25,11.69,4.96l-.95.32c-.77-2.3-6.15-4.84-10.62-4.29-2.82.35-6.27,2-6.72,7.85-.27,3.58.57,6.31,2.49,8.11,3.48,3.25,9.41,2.43,9.47,2.42l.14.99c-.09,0-.84.12-1.94.12h.02Z"/>
              </g>
              <g>
                <path class="st7" d="M220.59,132.59s-2.7-4.67-6.14-5.9"/>
                <path class="st1" d="M220.16,132.84s-2.66-4.53-5.88-5.68l.34-.94c3.57,1.28,6.3,5.92,6.41,6.12l-.87.5Z"/>
              </g>
              <path class="st1" d="M254.97,123.35s-1.29-3.45-8.3-4.15l.1-1c7.71.77,9.09,4.66,9.15,4.83l-.95.32Z"/>
              <path class="st1" d="M267.61,126.4l-.7-.72c.23-.22,5.63-5.41,8.91-3.47l-.51.86c-2.18-1.29-6.3,1.97-7.7,3.33h0Z"/>
              <g>
                <path class="st1" d="M250.53,129.75s-.25,2.09-.61,2.7-.12,1.47.74,1.47,2.09-2.95,2.09-5.41-.25-2.7-1.6-2.58-.25,2.46-.61,3.81h0Z"/>
                <path class="st1" d="M250.65,134.43c-.53,0-.98-.24-1.22-.67-.26-.46-.24-1.07.05-1.56.22-.36.45-1.68.55-2.5v-.07c.13-.42.06-1.03,0-1.61-.09-.84-.18-1.63.23-2.15.14-.17.39-.38.84-.42.57-.05,1.15-.07,1.57.31.49.44.57,1.25.57,2.77,0,2.33-1.16,5.91-2.59,5.91h0ZM251.02,129.85c-.05.44-.29,2.21-.68,2.87-.11.18-.13.4-.04.55.02.04.09.16.35.16.42-.13,1.59-2.49,1.59-4.91,0-.54,0-1.8-.25-2.03-.11-.1-.49-.08-.81-.05-.12.01-.14.04-.15.05-.15.19-.07.89-.02,1.4.07.66.15,1.35,0,1.95h0Z"/>
              </g>
              <g>
                <path class="st1" d="M271.84,132.47s-.25,2.09-.61,2.7-.12,1.47.74,1.47,2.09-2.95,2.09-5.41-.25-2.7-1.6-2.58-.25,2.46-.61,3.81h-.01Z"/>
                <path class="st1" d="M271.97,137.15c-.53,0-.98-.24-1.22-.67-.26-.46-.24-1.07.05-1.56.22-.36.45-1.68.55-2.5v-.07c.13-.42.06-1.03,0-1.61-.09-.84-.18-1.63.23-2.15.14-.17.39-.38.84-.42.56-.05,1.15-.07,1.57.31.49.44.57,1.25.57,2.77,0,2.33-1.16,5.91-2.59,5.91h0ZM272.33,132.56c-.05.44-.29,2.21-.68,2.87-.11.18-.13.4-.04.55.02.04.09.16.35.16.42-.13,1.59-2.49,1.59-4.91,0-.54,0-1.8-.25-2.03-.11-.1-.49-.08-.81-.05-.12,0-.14.04-.15.05-.15.19-.07.89-.02,1.4.08.66.15,1.35,0,1.95h0Z"/>
              </g>
              <path class="st1" d="M263.1,149.26s-3.7-4.11-16.66-.81l-.25-.97c13.67-3.48,17.52.95,17.68,1.14l-.77.64Z"/>
            </g>
            <g>
              <path class="st24" d="M212.97,145.13c0-1.97.14-7.13,6.77-7.13s6.28,5.5,6.14,8.71-3.09,6.28-8.25,5.05-4.67-4.67-4.67-6.64h0Z"/>
              <path class="st5" d="M219.89,152.55c-.71,0-1.49-.09-2.36-.29-5.16-1.23-5.1-4.63-5.06-6.66v-.47c0-5.06,2.45-7.63,7.28-7.63,2.19,0,3.87.59,4.98,1.75,1.9,1.98,1.76,5.19,1.67,7.31v.17c-.08,1.79-.94,3.43-2.36,4.5-.86.65-2.21,1.31-4.15,1.31h0ZM219.75,138.5c-5.62,0-6.27,3.78-6.27,6.63v.48c-.04,1.95-.09,4.62,4.29,5.67,2.87.68,4.67-.08,5.68-.84,1.18-.89,1.89-2.26,1.95-3.75v-.17c.1-2.07.22-4.9-1.38-6.58-.92-.96-2.35-1.44-4.26-1.44h0Z"/>
            </g>
            <ellipse class="st2" cx="240.87" cy="136.16" rx="3.32" ry="4.92" transform="translate(55.41 341.49) rotate(-77.39)"/>
            <ellipse class="st2" cx="281.44" cy="136.65" rx="3.32" ry="4.92" transform="translate(140.48 415.96) rotate(-89.12)"/>
          </g>
          <path class="st1" d="M262.34,144.18c-1.85,0-3.66-.93-3.77-.98l.46-.89s3.04,1.55,4.81.51c.83-.48,1.28-1.51,1.34-3.04.06-1.55-.36-2.71-1.24-3.47-1.87-1.6-5.26-.95-5.29-.94l-.2-.98c.16-.03,3.9-.75,6.13,1.16,1.13.96,1.66,2.4,1.59,4.27-.07,1.9-.69,3.2-1.84,3.87-.61.36-1.31.49-2.01.49h.02Z"/>
        </g>
        <path class="st1" d="M247.98,256.47c-12.95,0-25.32-7.08-25.46-7.16-.24-.14-.32-.44-.18-.68.14-.24.44-.32.68-.18.17.1,17.46,9.99,32.29,6.14.27-.07.54.09.61.36s-.09.54-.36.61c-2.49.64-5.04.92-7.57.92h0Z"/>
        <path class="st1" d="M290.9,253.31c-.06,0-.13,0-.19-.04-.25-.11-.38-.4-.27-.65,6.6-15.96-2.17-40.5-2.26-40.75-.09-.26.04-.55.3-.64.26-.09.55.04.64.3.09.25,9,25.15,2.25,41.47-.08.19-.27.31-.46.31h-.01Z"/>
        <g>
          <g>
            <path class="st9" d="M228.12,310.58s-7.88,24.29-7.88,33.71c0,0,86.91,26.09,88.41,18.66,1.5-7.44-21.31-34.87-80.53-52.37Z"/>
            <path class="st1" d="M304.44,364.76c-6.84,0-21.34-2.86-43.32-8.54-20.76-5.37-40.83-11.38-41.03-11.45l-.36-.11v-.37c0-9.39,7.58-32.87,7.91-33.87l.15-.46.47.14c59.83,17.68,82.4,45.4,80.87,52.95-.09.44-.36.8-.81,1.07-.72.43-2.01.64-3.89.64h.01ZM220.74,343.92c2.8.83,21.42,6.36,40.63,11.33,34.52,8.93,44.31,9.29,46.43,8.01.3-.18.34-.35.35-.41.74-3.68-4.97-12.38-17.31-21.92-10.76-8.31-30.3-20.19-62.4-29.74-1.07,3.36-7.52,23.98-7.71,32.72h.01Z"/>
          </g>
          <g>
            <path class="st9" d="M228.12,339.17s19.15,8.57,69.83,19.27"/>
            <path class="st1" d="M297.84,358.93c-50.15-10.59-69.74-19.22-69.93-19.31l.41-.91c.19.08,19.7,8.68,69.73,19.24l-.21.98h0Z"/>
          </g>
        </g>
        <path class="st1" d="M230.08,212.21c-.12,0-.23-.04-.33-.12-16.85-14.6-19.29-33.91-19.31-34.11-.03-.27.16-.52.44-.56.27-.03.52.16.56.44.02.19,2.44,19.13,18.98,33.47.21.18.23.5.05.71-.1.11-.24.17-.38.17h0Z"/>
        <g>
          <g>
            <path class="st27" d="M238.4,343.96s-.14-7.41,5.45-9.32c6.23-2.13,22.25,3.84,17.24,16.83l-22.69-7.51h0Z"/>
            <path class="st1" d="M261.38,352.09l-23.48-7.77v-.35c0-.32-.08-7.8,5.78-9.81,3.92-1.35,11.3.29,15.61,4.77,2.33,2.42,4.61,6.59,2.25,12.71l-.17.44h.01ZM238.91,343.6l21.88,7.24c1.9-5.39-.13-9.06-2.2-11.21-3.94-4.09-10.94-5.76-14.57-4.52-4.5,1.54-5.04,7.05-5.11,8.49h0Z"/>
          </g>
          <g>
            <path class="st27" d="M238.9,341.47c-1.81,4.2,1.69,10.07,7.83,13.12,6.13,3.05,12.58,2.12,14.39-2.08,1.81-4.2-1.69-10.07-7.83-13.12-6.13-3.05-12.58-2.12-14.39,2.08Z"/>
            <path class="st1" d="M253.88,356.89c-2.35,0-4.93-.63-7.38-1.85-6.36-3.16-9.97-9.34-8.06-13.77h0c.71-1.64,2.08-2.87,3.97-3.56,3.11-1.14,7.26-.68,11.1,1.23,6.36,3.16,9.98,9.34,8.06,13.77-.71,1.64-2.08,2.87-3.97,3.56-1.13.41-2.39.61-3.72.61h0ZM246.14,338.09c-1.22,0-2.36.18-3.38.56-1.62.59-2.8,1.64-3.39,3.02h0c-1.71,3.95,1.7,9.55,7.59,12.48,3.6,1.79,7.45,2.23,10.31,1.19,1.62-.59,2.8-1.64,3.39-3.02,1.71-3.95-1.7-9.55-7.59-12.48-2.31-1.15-4.73-1.75-6.93-1.75h0Z"/>
          </g>
        </g>
      </g>
    </g>
    <g>
      <path class="st17" d="M61.8,49.3s-25.21,19.38.7,72.78c25.9,53.39,120.77,21.94,132.23-11.55,11.46-33.5-2.61-77.29-41.53-75.41,0,0-42.14-41.28-91.4,14.19h0Z"/>
      <path class="st1" d="M114.66,151.25c-33.38,0-47.23-17.87-52.61-28.96-7.42-15.3-15.2-37.57-10.09-56.76,2.98-11.21,8.91-16.14,9.5-16.6,16.58-18.66,34.14-28.43,52.18-29.06,22.34-.78,38.01,13.11,39.75,14.73,14.38-.63,26.36,4.88,34.68,15.94,11.39,15.15,14.26,39.32,7.13,60.14-6.67,19.5-41.47,38.37-74.47,40.38-2.09.13-4.12.19-6.07.19ZM115.45,20.84c-.59,0-1.19.01-1.79.03-17.77.62-35.09,10.3-51.49,28.76l-.07.06c-.25.19-24.56,19.81.84,72.16,13.01,26.82,41.75,29.19,57.72,28.21,32.65-1.99,67.03-20.55,73.59-39.71,7.02-20.52,4.21-44.32-6.99-59.21-8.15-10.84-19.93-16.22-34.04-15.54h-.22l-.16-.14c-.15-.15-15.21-14.62-37.41-14.62h.02Z"/>
    </g>
    <g>
      <circle class="st17" cx="193.17" cy="145.11" r="6.66"/>
      <path class="st1" d="M193.17,152.27c-3.2,0-6.12-2.16-6.95-5.4-.47-1.85-.19-3.78.79-5.43s2.54-2.81,4.39-3.28c1.86-.47,3.78-.19,5.43.79,1.64.98,2.81,2.54,3.28,4.39.97,3.83-1.35,7.74-5.18,8.71-.59.15-1.18.22-1.76.22h0ZM193.18,138.94c-.51,0-1.02.06-1.53.19-1.6.4-2.94,1.41-3.78,2.82s-1.08,3.07-.68,4.67c.84,3.29,4.2,5.3,7.49,4.46,3.29-.84,5.3-4.2,4.46-7.49-.4-1.6-1.41-2.94-2.82-3.78-.97-.58-2.05-.87-3.14-.87h0Z"/>
    </g>
  </g>
  <g>
    <path class="st10" d="M103.48,287.68l10.78,33.16c4.6,14.17,17.81,23.76,32.71,23.76h34.87c4.7,0,6.66,6.02,2.85,8.78l-28.21,20.5c-12.05,8.76-17.1,24.28-12.49,38.45l10.78,33.16c1.45,4.47-3.66,8.19-7.47,5.43l-28.21-20.5c-12.05-8.76-28.37-8.76-40.43,0l-28.21,20.5c-3.8,2.76-8.92-.95-7.47-5.43l10.78-33.16c4.6-14.17-.44-29.69-12.49-38.45l-28.21-20.5c-3.8-2.76-1.85-8.78,2.85-8.78h34.87c14.9,0,28.1-9.59,32.71-23.76l10.78-33.16c1.45-4.47,7.78-4.47,9.23,0h-.02Z"/>
    <path class="st5" d="M47.59,452.35c-1.1,0-2.19-.35-3.15-1.04-1.91-1.39-2.67-3.74-1.94-5.99l10.77-33.16c4.55-14.01-.4-29.23-12.31-37.89l-28.21-20.5c-1.91-1.39-2.67-3.74-1.94-5.98s2.73-3.7,5.09-3.7h34.87c14.73,0,27.68-9.41,32.23-23.42l10.77-33.16c.73-2.25,2.73-3.7,5.09-3.7h0c2.36,0,4.36,1.45,5.09,3.7l10.78,33.16c4.55,14.01,17.5,23.42,32.23,23.42h34.87c2.36,0,4.36,1.45,5.09,3.7s-.03,4.6-1.94,5.98l-28.21,20.5c-11.91,8.66-16.86,23.88-12.31,37.89l10.77,33.16c.73,2.25-.03,4.6-1.94,5.99-1.91,1.39-4.38,1.39-6.29,0l-28.21-20.5c-11.91-8.66-27.92-8.66-39.84,0l-28.21,20.5c-.96.69-2.05,1.04-3.15,1.04h0ZM15.9,345.1c-1.92,0-3.55,1.18-4.14,3.01-.59,1.83.03,3.74,1.58,4.87l28.21,20.5c12.27,8.91,17.36,24.59,12.67,39.01l-10.77,33.16c-.59,1.83.03,3.74,1.58,4.87s3.56,1.13,5.12,0l28.21-20.5c12.27-8.91,28.75-8.91,41.01,0l28.21,20.5c1.55,1.13,3.56,1.13,5.12,0,1.55-1.13,2.18-3.04,1.58-4.87l-10.77-33.16c-4.69-14.42.41-30.09,12.67-39.01l28.21-20.5c1.55-1.13,2.17-3.04,1.58-4.87s-2.22-3.01-4.14-3.01h-34.87c-15.16,0-28.5-9.69-33.18-24.11l-10.78-33.16c-.59-1.83-2.22-3.01-4.14-3.01s-3.55,1.18-4.14,3.01l-10.77,33.16c-4.69,14.42-18.02,24.11-33.18,24.11H15.9Z"/>
  </g>
  <g class="st28">
    <g>
      <g>
        <g>
          <path class="st13" d="M110.98,271.55h-61.26s-8.66,0-8.66-14.23v-75.5s-13.61-15.47-14.23-26.61,0-41.46,0-41.46c0,0-8.04-19.18,24.75-19.18h139.85c20.42,0,32.18,5.57,32.18,30.32s4.95,42.08,25.99,42.08,41.46-4.33,41.46,31.56v60.64l-159.65,1.86"/>
          <path class="st1" d="M110.98,272.05h-61.26c-.09,0-9.16-.17-9.16-14.73v-75.31c-1.46-1.69-13.64-16.03-14.23-26.77-.6-10.71-.04-39.45,0-41.4-.33-.85-2.33-6.52,1.09-11.66,3.58-5.39,11.71-8.12,24.17-8.12h139.85c20.17,0,32.68,5.16,32.68,30.82,0,29.14,7.62,41.58,25.49,41.58,2.07,0,4.13-.04,6.16-.08,11.05-.23,21.48-.44,28.23,6.17,5.1,4.99,7.57,13.49,7.57,25.97v61.14l-160.15,1.86v-1l159.15-1.85v-60.15c0-12.2-2.38-20.46-7.27-25.26-6.45-6.32-16.68-6.11-27.51-5.89-2.04.04-4.11.08-6.18.08-23.34,0-26.49-21.52-26.49-42.58,0-24.83-12.12-29.82-31.68-29.82H51.58c-12.1,0-19.95,2.58-23.33,7.67-3.33,5.01-.98,10.76-.96,10.82l.04.1v.11c0,.3-.61,30.43,0,41.42.6,10.84,13.97,26.15,14.11,26.31l.12.14v75.68c0,13.58,8.08,13.73,8.16,13.73h61.26v1.02Z"/>
        </g>
        <g>
          <path class="st13" d="M149.97,181.2v77.35s8.04,13-9.9,13h-37.13v-94.06l47.03,3.71Z"/>
          <path class="st1" d="M140.07,272.05h-37.63v-95.1l48.03,3.79v77.68c.5.85,3.08,5.62,1,9.36-1.58,2.84-5.42,4.28-11.41,4.28h.01ZM103.44,271.05h36.63c5.6,0,9.14-1.26,10.53-3.76,1.96-3.51-1.02-8.42-1.05-8.47l-.07-.12v-77.03l-46.03-3.63v93.02h0Z"/>
        </g>
      </g>
      <g>
        <path class="st15" d="M268.16,123.65s-45.79,7.12-48.58,10.83-.93,16.71,17.33,14.85,25.06-8.35,25.06-8.35c0,0,9.59-1.55,10.83-2.48s2.48-6.81,2.78-8.97c.31-2.17,2.48-8.04-7.43-5.88h.01Z"/>
        <path class="st1" d="M233.5,150.01c-8.92,0-12.62-3.99-14.07-6.56-2.01-3.56-1.63-7.43-.25-9.28,2.82-3.76,44.11-10.28,48.89-11.02,3.72-.81,6.15-.6,7.43.65,1.42,1.39.99,3.61.71,5.08-.05.26-.1.5-.13.7-.01.08-1.27,8.02-2.98,9.3-1.24.93-8.99,2.23-10.9,2.54-1.01.89-8.09,6.64-25.24,8.38-1.23.13-2.39.18-3.46.18v.03ZM271.89,123.68c-1,0-2.21.15-3.62.46h-.03c-18.33,2.85-46.3,8.04-48.25,10.64-1.21,1.61-1.42,5.11.32,8.18,1.51,2.67,5.66,6.98,16.56,5.87,17.83-1.81,24.7-8.15,24.77-8.22l.11-.11.15-.03c3.66-.59,9.78-1.76,10.61-2.38.91-.68,2.16-5.66,2.59-8.64.03-.22.08-.47.13-.75.26-1.33.61-3.16-.42-4.18-.58-.57-1.56-.85-2.92-.85h0Z"/>
      </g>
      <g>
        <g>
          <path class="st26" d="M188.86,136.84s5.64,10.79,11.81,8.9c6.18-1.9,14.18-8.14,14.18-8.14,0,0,7.02-15.83,19.08-15.9s13.04,7.34,10.29,11.69-12.69-.85-12.69-.85c0,0-8.34,2.22-7.68,8.09s3.46,8.95,11.49,6.73c0,0,2.45-4.66,6.79-2.21,0,0,1.18-9.29,10.82-2.24,0,0,.26-7.74,8.32-4.69,8.06,3.04,3.78,9.88-2.42,8.99,0,0,1.27,5.25-5.85,4.68,0,0,3.45,7.71-12.36,2.55,0,0-6.17,2.82-8.96,2.22,0,0-12.53,24.21-26.15,23.06-13.62-1.15-30.7-10.01-34.23-30.72-3.54-20.71,17.56-12.18,17.56-12.18v.02Z"/>
          <path class="st1" d="M206.49,180.28c-.33,0-.66,0-1-.04-13.75-1.16-31.08-10.01-34.68-31.14-1.03-6.02-.1-10.23,2.76-12.54,5.27-4.25,15.06-.36,15.48-.19.11.04.2.13.26.23.05.1,5.52,10.4,11.22,8.65,5.66-1.74,13-7.27,13.92-7.98.32-.7,2.04-4.28,5.03-7.92,4.37-5.31,9.36-8.13,14.45-8.16,7.18-.06,10.05,2.47,11.22,4.58,1.29,2.33,1.09,5.34-.51,7.88-2.79,4.4-11.73.14-13.16-.58-1.17.36-7.69,2.59-7.14,7.5.34,3.04,1.25,5.02,2.79,6.06,1.72,1.16,4.29,1.26,7.87.3.35-.58,1.5-2.25,3.4-2.81,1.08-.32,2.21-.22,3.37.29.28-1.14,1.07-3.38,3.14-4.27,1.98-.85,4.55-.22,7.64,1.89.2-1.13.77-3.08,2.44-4.19,1.6-1.06,3.77-1.09,6.46-.08,3.52,1.33,5.25,3.59,4.62,6.05-.57,2.21-3.16,4.2-6.63,3.97.05.76-.04,2.02-.92,3.06-.96,1.12-2.57,1.65-4.81,1.6.19.79.28,2.06-.6,3.04-1.63,1.81-5.81,1.65-12.43-.49-1.02.45-5.95,2.55-8.71,2.24-1.56,2.93-12.78,23.05-25.47,23.05h0ZM180.15,135.6c-2.16,0-4.33.43-5.95,1.74-2.55,2.06-3.36,5.96-2.4,11.59,3.51,20.56,20.39,29.18,33.78,30.31,13.14,1.11,25.54-22.56,25.67-22.8.1-.2.33-.31.55-.26,2.59.56,8.59-2.16,8.65-2.19.11-.05.24-.06.36-.02,8.28,2.7,10.79,1.68,11.56.83.93-1.03.2-2.69.19-2.7-.07-.16-.05-.35.05-.49s.28-.22.45-.21c2.28.19,3.85-.22,4.7-1.2,1.01-1.17.63-2.84.63-2.86-.04-.16,0-.33.12-.45s.28-.18.44-.16c3.2.46,5.69-1.28,6.17-3.16.49-1.91-1-3.73-4-4.86-2.37-.89-4.24-.9-5.55-.03-1.98,1.32-2.1,4.24-2.1,4.27,0,.19-.11.35-.28.43s-.36.06-.51-.05c-3.09-2.27-5.56-3.03-7.34-2.27-2.24.96-2.68,4.13-2.68,4.16-.02.17-.12.31-.27.38-.15.07-.32.07-.47,0-1.12-.63-2.19-.8-3.19-.51-1.85.54-2.9,2.49-2.91,2.51-.06.12-.18.21-.31.25-3.98,1.1-6.89.98-8.9-.38-1.8-1.22-2.85-3.43-3.22-6.78-.7-6.23,7.69-8.54,8.05-8.63.12-.03.25-.02.36.04.1.05,9.56,4.93,12.04,1.02,1.1-1.74,1.81-4.46.48-6.86-1.04-1.88-3.73-4.13-10.34-4.07-11.6.07-18.56,15.45-18.63,15.6-.03.08-.08.14-.15.19-.33.26-8.15,6.32-14.34,8.22-6.14,1.88-11.53-7.53-12.31-8.98-.82-.31-4.58-1.64-8.36-1.64l-.04.03Z"/>
        </g>
        <g>
          <path class="st26" d="M214.32,146.55s1.86,9.28,9.9,9.28"/>
          <path class="st1" d="M224.23,156.33c-8.36,0-10.37-9.59-10.39-9.68-.05-.27.12-.53.39-.59.27-.05.53.12.59.39.07.36,1.88,8.88,9.41,8.88.28,0,.5.22.5.5s-.22.5-.5.5Z"/>
        </g>
        <g>
          <path class="st26" d="M235.34,147.37s-1.83,4.03,5.31,7.08"/>
          <path class="st1" d="M240.65,154.95c-.07,0-.13,0-.2-.04-2.93-1.25-4.78-2.83-5.5-4.68-.66-1.71-.09-3.01-.06-3.07.11-.25.41-.37.66-.25.25.11.36.41.25.66h0s-.43,1.01.1,2.32c.62,1.56,2.33,2.98,4.95,4.1.25.11.37.4.26.66-.08.19-.27.3-.46.3h0Z"/>
        </g>
        <g>
          <line class="st0" x1="242.14" y1="145.16" x2="248.96" y2="148.52"/>
          <path class="st1" d="M248.96,149.02c-.07,0-.15-.02-.22-.05l-6.83-3.36c-.25-.12-.35-.42-.23-.67.12-.25.42-.35.67-.23l6.83,3.36c.25.12.35.42.23.67-.09.18-.26.28-.45.28Z"/>
        </g>
        <g>
          <line class="st0" x1="252.95" y1="142.92" x2="256.05" y2="144.14"/>
          <path class="st1" d="M256.05,144.64c-.06,0-.12,0-.18-.03l-3.1-1.22c-.26-.1-.38-.39-.28-.65s.39-.38.65-.28l3.1,1.22c.26.1.38.39.28.65-.08.2-.27.32-.47.32h0Z"/>
        </g>
      </g>
      <g>
        <path class="st26" d="M112.84,89s-14.85,11.14-6.81,23.51c8.04,12.38,35.89,27.23,44.55,20.42s1.24-29.7,1.24-29.7"/>
        <path class="st1" d="M144.55,135.15c-1.14,0-2.38-.11-3.71-.33-12.04-2-29.16-12.7-35.23-22.03-8.2-12.62,6.77-24.07,6.93-24.19.22-.16.53-.12.7.1s.12.53-.1.7c-.04.03-3.69,2.79-6.31,7-3.47,5.56-3.59,10.89-.38,15.84,5.94,9.14,22.73,19.63,34.55,21.59,4.12.68,7.33.24,9.28-1.29,8.29-6.52,1.14-28.93,1.07-29.16-.09-.26.06-.54.32-.63.26-.08.55.06.63.32.31.95,7.43,23.31-1.4,30.25-1.55,1.21-3.67,1.82-6.35,1.82h0Z"/>
      </g>
      <g>
        <g>
          <path class="st3" d="M107.89,96.89s-45.95,6.5-51.05,62.19l49.2,8.82,38.52,11.6s36.36,2.32,46.88-6.03c-2.48-18.26-10.67-22.74-10.67-22.74,0,0,.31-7.12,13.15-9.75,5.41-.77-19.18-43.63-47.03-45.02,0,0,11.14,21.35-8.35,23.67-19.49,2.32-30.63-22.74-30.63-22.74h-.02Z"/>
          <path class="st1" d="M155.83,180.31c-6.21,0-10.79-.28-11.31-.31l-.11-.02-38.52-11.6-49.59-8.89.04-.46c2.65-28.96,16.5-44.45,27.65-52.34,12.08-8.56,23.71-10.28,23.83-10.3l.37-.05.15.34c.03.06,2.82,6.28,7.94,12.13,4.68,5.35,12.33,11.48,22.17,10.31,4.9-.58,8.22-2.45,9.86-5.56,3.57-6.76-1.83-17.28-1.89-17.38l-.4-.77.87.04c24.96,1.25,47.89,36.13,48.25,44.05.07,1.55-.71,1.89-1.18,1.96-10.79,2.21-12.44,7.69-12.68,9,1.54,1.01,8.39,6.38,10.63,22.93l.04.28-.22.18c-6.88,5.47-24.25,6.45-35.91,6.45h0ZM144.64,179c1.62.1,35.91,2.03,46.25-5.76-2.45-17.5-10.3-22.04-10.38-22.09l-.27-.15v-.31c.03-.31.49-7.54,13.56-10.21.27-.04.38-.35.35-.93-.35-7.66-22.32-41.09-46.45-43.04,1.23,2.65,4.77,11.34,1.5,17.53-1.8,3.41-5.38,5.46-10.63,6.09-18.34,2.17-29.51-19.62-30.98-22.68-2.04.36-12.37,2.5-23.07,10.09-10.9,7.73-24.43,22.87-27.15,51.13l48.74,8.74,38.52,11.6h0Z"/>
        </g>
        <g>
          <line class="st0" x1="169.15" y1="125.66" x2="180.75" y2="151.19"/>
          <rect class="st1" x="174.45" y="124.42" width="1" height="28.04" transform="translate(-41.6 84.79) rotate(-24.44)"/>
        </g>
        <g>
          <path class="st8" d="M134.34,151.19s12.53-10.67,33.42-4.64"/>
          <path class="st1" d="M134.67,151.57l-.65-.76c.13-.11,12.97-10.78,33.88-4.74l-.28.96c-20.36-5.88-32.83,4.44-32.95,4.54h0Z"/>
        </g>
        <g>
          <line class="st0" x1="100" y1="159.08" x2="105.57" y2="131.23"/>
          <rect class="st1" x="88.59" y="144.65" width="28.4" height="1" transform="translate(-59.71 217.45) rotate(-78.68)"/>
        </g>
      </g>
      <g>
        <g>
          <path class="st26" d="M60.24,159.39s-11.91,26.45,13.61,32.02c25.53,5.57,46.88-.46,46.88-.46,0,0,1.86-.77,3.71,3.87,1.86,4.64,4.8,16.09,10.67,13.77,0,0,1.7,2.01,4.64,1.86s4.33-2.48,4.33-2.48c0,0,1.24,2.48,4.02,2.32s4.18-3.56,4.18-3.56c0,0,3.09,1.55,5.57-2.17,2.48-3.71-.31-23.67-11.91-29.86s-29.08-11.14-45.33-11.91c0,0-20.89-7.89-40.38-3.4h.01Z"/>
          <path class="st1" d="M139.43,210.95c-2.33,0-3.88-1.23-4.45-1.79-1.08.35-2.13.3-3.13-.16-3.39-1.54-5.47-7.36-6.99-11.61-.32-.9-.62-1.72-.89-2.4-1.6-4.01-3.06-3.59-3.07-3.58-.25.07-21.8,6.02-47.16.48-7.23-1.58-12.19-4.97-14.77-10.07-4.9-9.74.57-22.12.8-22.64.06-.14.19-.25.34-.28,18.83-4.33,39.18,2.88,40.59,3.4,15.39.75,33.23,5.44,45.46,11.97,7.77,4.14,10.91,13.78,11.91,17.73,1.39,5.52,1.47,10.93.19,12.85-2.1,3.14-4.67,2.82-5.73,2.51-.5.98-1.95,3.3-4.41,3.43-2.16.12-3.47-1.14-4.08-1.95-.67.77-2.07,1.99-4.27,2.11h-.35.01ZM135.11,208.08c.14,0,.28.06.38.18.06.07,1.6,1.82,4.23,1.68,2.62-.14,3.88-2.15,3.93-2.23.09-.15.27-.25.45-.24.18,0,.35.11.43.27.05.09,1.15,2.16,3.55,2.05,2.43-.14,3.73-3.22,3.74-3.25.05-.13.16-.23.29-.28.13-.05.28-.04.4.02.11.05,2.74,1.29,4.93-2,.95-1.43,1.16-6.14-.32-12.05-.96-3.82-4-13.13-11.41-17.09-12.14-6.47-29.85-11.13-45.12-11.85-.05,0-.1,0-.15-.03-.21-.08-20.79-7.72-39.84-3.44-.72,1.73-5.06,12.95-.72,21.56,2.43,4.82,7.17,8.03,14.08,9.54,25.1,5.48,46.42-.4,46.63-.46,0,0,.53-.21,1.27.11,1.13.48,2.15,1.84,3.04,4.06.27.69.57,1.52.9,2.43,1.38,3.85,3.46,9.67,6.46,11.03.86.39,1.73.4,2.67.02.06-.02.12-.03.18-.03h0Z"/>
        </g>
        <g>
          <path class="st26" d="M149.5,188.47s4.95,8.97,2.48,18.56"/>
          <path class="st1" d="M151.98,207.54s-.08,0-.13-.02c-.27-.07-.43-.34-.36-.61,2.39-9.28-2.38-18.11-2.43-18.2-.13-.24-.04-.55.2-.68.24-.13.55-.04.68.2.21.37,5.02,9.26,2.52,18.93-.06.23-.26.38-.48.38h0Z"/>
        </g>
        <g>
          <path class="st26" d="M140.53,188.01s6.81,11.45,2.94,21.19"/>
          <path class="st1" d="M143.47,209.7c-.06,0-.12,0-.18-.04-.26-.1-.38-.39-.28-.65,3.73-9.4-2.84-20.64-2.9-20.75-.14-.24-.06-.54.17-.69.24-.14.54-.06.69.17.28.48,6.89,11.77,2.97,21.63-.08.2-.27.32-.46.32h-.01Z"/>
        </g>
        <g>
          <path class="st26" d="M131.09,188.63s5.72,7.58,4.8,19.49"/>
          <path class="st1" d="M135.89,208.62h-.04c-.27-.02-.48-.26-.46-.54.9-11.57-4.64-19.08-4.7-19.15-.17-.22-.12-.53.1-.7s.53-.12.7.1c.24.32,5.83,7.87,4.9,19.83-.02.26-.24.46-.5.46h0Z"/>
        </g>
      </g>
      <g>
        <g>
          <path class="st26" d="M137.14,113.65s19.77,6.19,25.72-16.43-2.86-57.87-17.86-60.96-43.1-4.29-49.06,16.67c-5.95,20.96,3.1,31.2,3.1,31.2,0,0,3.81,10.95,12.62,18.81"/>
          <path class="st1" d="M143.08,114.94c-3.43,0-5.9-.75-6.08-.81-.26-.08-.41-.36-.33-.63.08-.26.36-.41.63-.33.08.02,7.97,2.41,15.07-1.52,4.8-2.66,8.17-7.56,10.01-14.56,4.18-15.89,1.16-38.48-6.88-51.45-3.12-5.04-6.79-8.11-10.6-8.9-4.61-.95-16.55-2.92-27.72-.68-11.2,2.25-18.19,7.97-20.75,17-3.03,10.68-2.06,18.46-.7,23.12,1.46,5.04,3.67,7.59,3.69,7.61.04.05.08.11.1.17.04.11,3.88,10.93,12.48,18.6.21.18.22.5.04.71s-.5.22-.71.04c-8.38-7.47-12.33-17.85-12.73-18.93-.88-1.04-8.9-11.31-3.14-31.59,2.68-9.42,9.92-15.38,21.52-17.71,11.35-2.28,23.45-.28,28.12.69,4.09.84,7.98,4.08,11.25,9.35,8.16,13.17,11.24,36.11,6.99,52.23-1.92,7.29-5.45,12.4-10.51,15.19-3.4,1.88-6.91,2.4-9.76,2.4h0Z"/>
        </g>
        <g class="st14">
          <g>
            <path class="st15" d="M105.71,77.46s9.76,2.38,10-8.81c.24-11.19.24-20.72,12.38-22.62,12.15-1.91,22.15-1.91,26.2-9.29s-43.1-11.91-57.15-5.72-25.72,53.82,8.57,46.44Z"/>
            <path class="st1" d="M99.15,78.71c-7.71,0-13.02-3.56-15.23-10.38-4.3-13.26,4.09-33.83,13.02-37.77,12.24-5.39,51.35-2.98,57.33,3.53,1.06,1.15.83,2.2.46,2.88-3.5,6.39-11.11,7.41-20.75,8.71-1.87.25-3.81.51-5.8.83-11.53,1.81-11.72,10.54-11.95,21.6v.54c-.09,3.67-1.17,6.33-3.24,7.92-2.85,2.19-6.56,1.55-7.28,1.4-2.34.5-4.54.74-6.56.74h0ZM118.6,28.58c-8.61,0-16.65.86-21.26,2.89-9.87,4.35-15.95,25.82-12.48,36.54,1.85,5.72,6.96,11.92,20.74,8.95l.11-.02.11.03s3.84.9,6.56-1.2c1.81-1.39,2.76-3.79,2.83-7.14v-.54c.24-11.07.44-20.62,12.81-22.56,2.01-.31,3.95-.58,5.83-.83,9.36-1.26,16.75-2.26,20.01-8.2.2-.37.39-.95-.32-1.72-3.29-3.58-19.96-6.19-34.93-6.19h0Z"/>
          </g>
        </g>
        <path class="st1" d="M143.08,114.94c-3.43,0-5.9-.75-6.08-.81-.26-.08-.41-.36-.33-.63.08-.26.36-.41.63-.33.08.02,7.97,2.41,15.07-1.52,4.8-2.66,8.17-7.56,10.01-14.56,4.18-15.89,1.16-38.48-6.88-51.45-3.12-5.04-6.79-8.11-10.6-8.9-4.61-.95-16.55-2.92-27.72-.68-11.2,2.25-18.19,7.97-20.75,17-3.03,10.68-2.06,18.46-.7,23.12,1.46,5.04,3.67,7.59,3.69,7.61.04.05.08.11.1.17.04.11,3.88,10.93,12.48,18.6.21.18.22.5.04.71s-.5.22-.71.04c-8.38-7.47-12.33-17.85-12.73-18.93-.88-1.04-8.9-11.31-3.14-31.59,2.68-9.42,9.92-15.38,21.52-17.71,11.35-2.28,23.45-.28,28.12.69,4.09.84,7.98,4.08,11.25,9.35,8.16,13.17,11.24,36.11,6.99,52.23-1.92,7.29-5.45,12.4-10.51,15.19-3.4,1.88-6.91,2.4-9.76,2.4h0Z"/>
        <g>
          <g>
            <path class="st26" d="M109.28,76.27s-6.19-9.29-14.29-5-3.81,25,12.38,21.91"/>
            <path class="st1" d="M104.17,93.99c-6.91,0-11.08-4.59-12.75-9.35-2.04-5.79-.6-11.73,3.34-13.82,8.4-4.45,14.87,5.07,14.94,5.17.15.23.09.54-.14.69-.23.15-.54.09-.69-.14-.24-.36-6.04-8.86-13.64-4.84-3.51,1.86-4.74,7.28-2.87,12.6,1.79,5.08,6.64,9.95,14.92,8.37.27-.05.53.13.58.4.05.27-.13.53-.4.58-1.16.22-2.27.33-3.3.33h.01Z"/>
          </g>
          <g>
            <path class="st26" d="M104.28,82.22s-1.19-5.95-6.91-7.14"/>
            <path class="st1" d="M104.28,82.72c-.23,0-.44-.16-.49-.4-.05-.23-1.2-5.65-6.52-6.75-.27-.06-.44-.32-.39-.59.06-.27.32-.45.59-.39,5.97,1.24,7.28,7.47,7.29,7.54.05.27-.12.53-.39.59h-.1,0Z"/>
          </g>
        </g>
        <path class="st1" d="M145.66,92.7c-6.98,0-12.27-4.57-12.35-4.64-.21-.18-.23-.5-.04-.71.18-.21.5-.23.71-.04.4.35,9.83,8.48,20.05,1.81.23-.15.54-.08.69.15.15.23.09.54-.15.69-3.09,2.02-6.13,2.74-8.91,2.74h0Z"/>
        <path class="st1" d="M148.57,81.9c-3.33,0-6.2-1.58-6.35-1.67-.24-.13-.33-.44-.19-.68s.44-.33.68-.19c.04.02,4.41,2.43,8.34,1.17,2-.64,3.57-2.13,4.66-4.43.84-1.77.88-3.25.12-4.51-2.32-3.85-11.2-4.29-11.29-4.29-.28-.01-.49-.25-.48-.52s.26-.49.52-.48c.39.02,9.51.47,12.1,4.77.93,1.55.91,3.39-.07,5.46-1.21,2.56-2.98,4.23-5.26,4.96-.93.3-1.87.41-2.77.41h0Z"/>
        <path class="st1" d="M126.34,59.52c-.14,0-.28-.06-.38-.17-.18-.21-.16-.52.04-.71,4.04-3.56,9.39-3.61,9.61-3.61.28,0,.5.22.5.5s-.22.5-.5.5c-.05,0-5.2.05-8.95,3.36-.09.08-.21.12-.33.12h0Z"/>
        <path class="st1" d="M144.13,56.86c-.1,0-.21-.03-.29-.1-.22-.16-.27-.48-.11-.7,2.66-3.64,6.24-3.69,6.39-3.69.28,0,.5.22.5.5s-.22.5-.5.5c-.13,0-3.23.06-5.58,3.28-.1.13-.25.21-.4.21h-.01Z"/>
        <g>
          <path class="st1" d="M149.43,63.55s.05,2-.22,2.62c-.26.63.08,1.4.89,1.29s1.57-3.05,1.24-5.36c-.33-2.31-.59-2.51-1.85-2.22s.1,2.34-.07,3.66h.01Z"/>
          <path class="st1" d="M149.95,67.97c-.42,0-.79-.17-1.04-.5-.31-.4-.37-.99-.16-1.5.15-.36.2-1.63.18-2.42v-.08c.05-.41-.09-.97-.23-1.51-.2-.78-.39-1.52-.06-2.07.11-.18.33-.42.75-.51.53-.12,1.09-.22,1.54.09.53.36.71,1.11.92,2.54.27,1.92-.15,4.4-.92,5.42-.22.3-.48.47-.75.5-.08.01-.15.02-.22.02v.02ZM149.93,63.57c0,.42.03,2.13-.26,2.79-.07.18-.06.38.03.5.02.03.1.13.33.1.36-.19,1.14-2.56.82-4.8-.07-.5-.24-1.69-.49-1.86-.13-.09-.58.02-.75.06-.04,0-.1.03-.12.06-.11.19.05.83.18,1.3.16.62.32,1.25.26,1.84h0Z"/>
        </g>
        <g>
          <path class="st1" d="M133.88,65.17s.05,2-.22,2.62.08,1.4.89,1.29,1.57-3.05,1.24-5.36c-.33-2.31-.59-2.51-1.85-2.22s.1,2.34-.07,3.66h.01Z"/>
          <path class="st1" d="M134.4,69.6c-.42,0-.79-.17-1.04-.5-.31-.4-.37-.99-.16-1.5.15-.36.2-1.63.18-2.42v-.08c.05-.41-.09-.97-.23-1.5-.2-.78-.39-1.52-.06-2.07.11-.18.33-.42.75-.51.53-.12,1.09-.22,1.54.09.53.36.71,1.11.92,2.54.27,1.92-.15,4.4-.92,5.42-.22.3-.48.47-.75.5-.08.01-.15.02-.22.02h0ZM134.38,65.2c0,.42.03,2.13-.26,2.8-.07.18-.06.38.03.5.02.03.1.13.33.1.36-.19,1.14-2.56.82-4.8-.07-.5-.24-1.69-.49-1.86-.13-.09-.58.02-.75.06-.04,0-.1.03-.12.06-.11.19.05.83.18,1.3.16.62.32,1.25.26,1.84Z"/>
        </g>
        <ellipse class="st2" cx="123.43" cy="71.43" rx="2.86" ry="4.23" transform="translate(50.78 194.14) rotate(-89.43)"/>
      </g>
      <path class="st1" d="M64.49,155.71h-.06c-.27-.03-.47-.28-.44-.56.05-.44,5.86-44.31,46.82-51.95.28-.05.53.13.58.4.05.27-.13.53-.4.58-40.23,7.5-45.95,50.65-46.01,51.09-.03.25-.25.44-.5.44h.01Z"/>
    </g>
  </g>
  <path class="st1" d="M114.39,151.23c-33.38,0-47.23-17.87-52.61-28.96-7.42-15.3-15.2-37.57-10.09-56.76,2.98-11.21,8.91-16.14,9.5-16.6,16.58-18.66,34.14-28.43,52.18-29.06,22.33-.78,38,13.11,39.75,14.73,14.38-.63,26.36,4.88,34.68,15.94,11.39,15.15,14.26,39.32,7.13,60.14-6.67,19.5-41.47,38.37-74.47,40.38-2.09.13-4.12.19-6.07.19ZM115.18,20.82c-.59,0-1.19.01-1.79.03-17.77.62-35.09,10.3-51.49,28.76l-.07.06c-.25.19-24.56,19.81.84,72.16,13.01,26.82,41.75,29.19,57.72,28.21,32.65-1.99,67.03-20.55,73.59-39.71,7.02-20.52,4.21-44.32-6.99-59.21-8.15-10.84-19.93-16.22-34.04-15.54h-.22l-.16-.14c-.15-.15-15.21-14.62-37.41-14.62h.02Z"/>
  <g>
    <circle class="st17" cx="172.91" cy="132.42" r="14.89"/>
    <path class="st1" d="M172.9,147.83c-6.87,0-13.15-4.65-14.92-11.61-2.09-8.22,2.91-16.61,11.13-18.7,3.98-1.01,8.12-.41,11.65,1.69,3.53,2.1,6.03,5.45,7.04,9.44,2.09,8.22-2.91,16.61-11.13,18.7-1.26.32-2.53.47-3.78.47h.01ZM172.93,118.04c-1.19,0-2.38.15-3.56.45-7.69,1.95-12.36,9.79-10.41,17.48s9.79,12.36,17.48,10.41,12.36-9.79,10.41-17.48c-.94-3.73-3.28-6.86-6.59-8.83-2.26-1.34-4.78-2.03-7.33-2.03Z"/>
  </g>
</svg>