<?xml version="1.0" encoding="UTF-8"?>
<svg id="Layer_1" xmlns="http://www.w3.org/2000/svg" xmlns:xlink="http://www.w3.org/1999/xlink" version="1.1" viewBox="0 0 636.07 755.97">
  <!-- Generator: Adobe Illustrator 29.8.2, SVG Export Plug-In . SVG Version: 2.1.1 Build 3)  -->
  <defs>
    <style>
      .st0 {
        fill: none;
      }

      .st1 {
        fill: #0c0907;
      }

      .st2 {
        fill: #6d4524;
      }

      .st3 {
        fill: #e7cda9;
      }

      .st4 {
        fill: #889594;
      }

      .st5 {
        fill: #271911;
      }

      .st6 {
        fill: #a56d3f;
      }

      .st7 {
        fill: #9ea440;
      }

      .st8 {
        fill: #c68d52;
      }

      .st9 {
        fill: #ffff06;
      }

      .st10 {
        fill: #d39e5e;
      }

      .st11 {
        fill: #ffd2dd;
      }

      .st12 {
        fill: #edb2be;
      }

      .st13 {
        fill: #ffcb70;
      }

      .st14 {
        fill: #c7e5da;
      }

      .st15 {
        clip-path: url(#clippath-1);
      }

      .st16 {
        clip-path: url(#clippath-2);
      }

      .st17 {
        fill: #4c412c;
      }

      .st18 {
        fill: #fff;
      }

      .st19 {
        fill: #ac743e;
      }

      .st20 {
        fill: #f26a3b;
      }

      .st21 {
        fill: #c4a5aa;
      }

      .st22 {
        fill: #2a2520;
      }

      .st23 {
        fill: #e29f3e;
      }

      .st24 {
        fill: #985d28;
      }

      .st25 {
        clip-path: url(#clippath);
      }
    </style>
    <clipPath id="clippath">
      <path class="st0" d="M406.61,34.49S185.91-31.25,93.04,116.38C.18,264.02-13.14,466.34,92.72,500.13c105.87,33.79,132.9,38.29,168.94,69.83,36.04,31.53,247.77,33.79,313.09-36.04,65.32-69.83,127.13-449.42-168.14-499.43Z"/>
    </clipPath>
    <clipPath id="clippath-1">
      <path class="st0" d="M433.32,203.43s19.77,6.19,25.72-16.43c5.95-22.62-2.86-57.87-17.86-60.96-15-3.1-43.1-4.29-49.06,16.67s3.1,31.2,3.1,31.2c0,0,3.81,10.95,12.62,18.81"/>
    </clipPath>
    <clipPath id="clippath-2">
      <path class="st0" d="M156.65,300.87c-4.11,17.34-30,39.81-30,39.81-10.04-17.8-67.08-37.42-67.08-37.42,6.84-14.6,30.92-39.13,48.26-53.73,17.34-14.6,66.17-14.37,66.17-14.37-.46,42.89,12.15,71.19,43.35,71.19s25.18-27.99,27.46-64.95c0,0,29.79-1.04,51.94,17.72,13.29,11.26,22.82,32.06,32.4,60.46,0,0-34.22,6.84-60.23,28.75l-.91-5.48c-5.48,11.41-.46,30.12-6.39,31.03-5.93.91-41.07,17.8-90.35,6.39,0,0-79.15-20.65-46.49-42.52"/>
    </clipPath>
  </defs>
  <g>
    <g>
      <path class="st14" d="M406.61,34.49S185.91-31.25,93.04,116.38C.18,264.02-13.14,466.34,92.72,500.13c105.87,33.79,132.9,38.29,168.94,69.83,36.04,31.53,247.77,33.79,313.09-36.04,65.32-69.83,127.13-449.42-168.14-499.43Z"/>
      <path class="st1" d="M373.27,591.55c-52.42,0-96.9-8.06-111.94-21.21-30.12-26.35-53.55-33.66-123.1-55.36-13.35-4.17-28.49-8.89-45.66-14.37-28.83-9.2-50.57-31.85-62.85-65.49-14.19-38.85-15.75-92.12-4.4-150,11.4-58.1,35.3-118.12,67.3-169,21.24-33.76,50.98-59.09,88.4-75.27,29.92-12.94,64.78-20.1,103.62-21.27,65.48-1.98,120.54,13.97,122.09,14.43,54.12,9.17,99.44,30.06,134.69,62.09,30.93,28.1,54.16,64.72,69.05,108.84,19.3,57.2,24.12,127.05,13.57,196.68-8.83,58.25-28.03,110.32-48.91,132.64-15.35,16.41-39.45,29.75-71.63,39.66-27.75,8.55-61.03,14.26-96.23,16.53-11.55.74-22.95,1.1-33.99,1.1ZM296,20.4c-3.74,0-7.53.05-11.35.17-38.71,1.17-73.44,8.3-103.24,21.19-37.22,16.1-66.81,41.3-87.94,74.88C27.85,220.97,1.43,354.76,30.66,434.77c12.35,33.82,33.29,55.65,62.22,64.88,17.17,5.48,32.3,10.2,45.65,14.37,69.7,21.75,93.18,29.07,123.46,55.56,17.73,15.51,80.16,24.05,145.21,19.87,77.72-5,138.66-25.37,167.19-55.87,20.75-22.19,39.85-74.04,48.66-132.11,10.53-69.48,5.73-139.16-13.52-196.21-14.83-43.96-37.97-80.44-68.77-108.42-35.12-31.91-80.28-52.72-134.22-61.85h-.06c-.52-.17-49.66-14.58-110.48-14.58Z"/>
    </g>
    <g class="st25">
      <g>
        <path class="st13" d="M32.58,254.11s527.08-55.75,645.33-10.14c118.26,45.61-15.2,424.03-256.78,381.79-241.58-42.23-491.6-38.86-491.6-38.86L32.58,254.11Z"/>
        <path class="st1" d="M458.45,629.56c-11.97,0-24.45-1.03-37.4-3.3-238.77-41.74-489.01-38.88-491.51-38.85h-.69s.2-.65.2-.65L32.2,253.64l.33-.03c1.32-.14,133.46-14.03,278.35-22.17,133.76-7.52,306.05-11.52,367.22,12.07,42.29,16.31,55.56,77.52,33.81,155.93-17.74,63.96-54.71,124.95-101.43,167.35-33.14,30.07-84.67,62.78-152.02,62.78ZM-58.44,586.36c52.82,0,270.63,2.37,479.66,38.92,85.46,14.94,149.72-23.97,188.58-59.24,46.58-42.27,83.45-103.1,101.14-166.88,21.6-77.88,8.57-138.61-33.21-154.73-61-23.53-233.14-19.51-366.8-12-141.34,7.94-270.54,21.36-277.97,22.14l-102.75,331.83c1.5-.01,5.37-.04,11.35-.04Z"/>
      </g>
      <g>
        <g>
          <g>
            <path class="st10" d="M407.16,361.32h-61.26s-8.66,0-8.66-14.23v-75.5s-13.61-15.47-14.23-26.61,0-41.46,0-41.46c0,0-8.04-19.18,24.75-19.18h139.85c20.42,0,32.18,5.57,32.18,30.32s4.95,42.08,25.99,42.08,41.46-4.33,41.46,31.56v60.64l-159.65,1.86"/>
            <path class="st1" d="M407.16,361.82h-61.26c-.09,0-9.16-.17-9.16-14.73v-75.31c-1.46-1.69-13.64-16.03-14.23-26.77-.6-10.71-.04-39.45,0-41.4-.33-.85-2.33-6.52,1.09-11.66,3.58-5.39,11.71-8.12,24.17-8.12h139.85c20.17,0,32.68,5.16,32.68,30.82,0,29.14,7.62,41.58,25.49,41.58,2.07,0,4.13-.04,6.16-.08,11.04-.23,21.48-.44,28.22,6.17,5.1,4.99,7.57,13.49,7.57,25.97v61.14l-160.15,1.86v-1s159.15-1.85,159.15-1.85v-60.15c0-12.2-2.38-20.46-7.27-25.26-6.44-6.31-16.68-6.11-27.5-5.89-2.04.04-4.11.08-6.18.08-23.34,0-26.49-21.52-26.49-42.58,0-24.83-12.12-29.82-31.68-29.82h-139.85c-12.09,0-19.94,2.58-23.33,7.66-3.33,5-.99,10.77-.96,10.83l.04.1v.11c0,.3-.61,30.43,0,41.42.6,10.84,13.97,26.15,14.11,26.31l.12.14v75.68c0,13.58,8.08,13.73,8.16,13.73h61.26v1Z"/>
          </g>
          <g>
            <rect class="st10" x="427.58" y="341.52" width="120.05" height="9.9"/>
            <path class="st1" d="M548.13,351.92h-121.05v-10.9h121.05v10.9ZM428.08,350.92h119.05v-8.9h-119.05v8.9Z"/>
          </g>
          <g>
            <path class="st17" d="M519.63,349.41s-10.21,20.42,12.53,23.21c22.74,2.78,45.02,3.25,47.34-2.32,2.32-5.57-5.11-14.39-20.89-17.64l-6.03-6.96-32.95,3.71Z"/>
            <path class="st1" d="M560.56,375.15c-10.07,0-21.63-1.2-28.46-2.04-6.89-.84-11.52-3.38-13.75-7.54-3.77-7.02.64-16.01.83-16.39l.12-.24,33.48-3.77,6.1,7.03c11.69,2.44,18.23,7.81,20.46,12.03,1.18,2.23,1.39,4.39.61,6.25-1.48,3.56-9.76,4.66-19.4,4.66ZM519.96,349.88c-.67,1.47-3.93,9.28-.73,15.23,2.07,3.85,6.44,6.21,12.99,7.01,26.98,3.3,44.92,2.53,46.82-2.02.66-1.58.46-3.44-.57-5.4-2.14-4.04-8.5-9.2-19.95-11.56l-.17-.03-5.97-6.89-32.41,3.65Z"/>
          </g>
          <g>
            <path class="st4" d="M491.32,300.06s17.95,0,21.04,19.18c3.09,19.18,3.09,34.65,3.09,34.65l40.22-3.71-5.57-54.46s-.62-26.61-46.41-31.56c-45.79-4.95-51.36-6.19-51.36-6.19l-38.99,4.33s-21.04,22.28-6.81,36.51c14.23,14.23,21.04,8.04,21.04,8.04"/>
            <path class="st1" d="M514.95,354.44v-.55c0-.15-.04-15.65-3.09-34.57-2.99-18.53-19.83-18.76-20.55-18.76v-1c.18,0,18.41.22,21.53,19.6,2.74,17,3.06,31.26,3.1,34.19l39.18-3.62-5.52-53.95c0-.3-1.19-26.27-45.97-31.11-42.97-4.65-50.48-6.01-51.33-6.18l-38.72,4.3c-1.69,1.86-19.86,22.52-6.69,35.68s20.29,8.08,20.35,8.03l.67.74c-.29.27-7.32,6.34-21.73-8.06-14.41-14.41,6.58-36.98,6.8-37.21l.13-.13.18-.02,39.07-4.34.08.02c.06.01,6.21,1.3,51.31,6.18,13.15,1.42,30.89,5.67,40.71,17.82,5.92,7.32,6.14,13.95,6.14,14.23l5.62,54.92-41.27,3.81Z"/>
          </g>
          <g>
            <path class="st17" d="M474.61,355.44s-10.21,20.42,12.53,23.21c22.74,2.78,45.02,3.25,47.34-2.32,2.32-5.57-5.11-14.39-20.89-17.64l-6.03-6.96-32.95,3.71Z"/>
            <path class="st1" d="M515.54,381.18c-10.07,0-21.63-1.2-28.46-2.04-6.89-.84-11.52-3.38-13.75-7.54-3.77-7.02.64-16.01.83-16.39l.12-.24,33.48-3.77,6.1,7.03c11.68,2.44,18.23,7.81,20.46,12.03,1.18,2.23,1.39,4.39.62,6.25-1.48,3.56-9.76,4.66-19.4,4.66ZM474.94,355.91c-.67,1.47-3.93,9.28-.73,15.23,2.07,3.85,6.44,6.21,12.99,7.01,26.98,3.3,44.92,2.53,46.82-2.02.66-1.58.46-3.44-.58-5.4-2.14-4.04-8.5-9.2-19.95-11.56l-.17-.03-5.97-6.89-32.41,3.65Z"/>
          </g>
          <g>
            <path class="st4" d="M423.87,311.2s24.13,3.09,30.32,5.57c6.19,2.48,17.95,48.27,17.95,48.27l43.32-11.14-14.23-51.36s-3.71-25.37-32.8-26.61"/>
            <path class="st1" d="M471.77,365.64l-.12-.48c-3.25-12.67-12.76-45.97-17.65-47.93-6.06-2.42-29.96-5.51-30.2-5.54l.13-.99c.99.13,24.27,3.13,30.44,5.6,6.07,2.43,16.77,42.93,18.12,48.12l42.34-10.89-14.1-50.87c-.05-.31-4.02-25.04-32.34-26.24l.04-1c15.23.65,23.46,7.96,27.69,13.98,4.58,6.52,5.54,12.79,5.58,13.06l14.36,51.79-44.3,11.39Z"/>
          </g>
          <g>
            <path class="st10" d="M446.14,270.98v77.35s8.04,13-9.9,13h-37.13v-94.06l47.03,3.71Z"/>
            <path class="st1" d="M436.24,361.82h-37.63v-95.1l48.03,3.79v77.68c.5.85,3.08,5.62,1,9.36-1.58,2.84-5.42,4.28-11.41,4.28ZM399.61,360.82h36.63c5.59,0,9.14-1.26,10.53-3.76,1.96-3.51-1.02-8.42-1.05-8.47l-.07-.12v-77.03l-46.03-3.63v93.02Z"/>
          </g>
        </g>
        <g>
          <path class="st17" d="M564.34,213.43s-45.79,7.12-48.58,10.83-.93,16.71,17.33,14.85c18.26-1.86,25.06-8.35,25.06-8.35,0,0,9.59-1.55,10.83-2.48s2.48-6.81,2.78-8.97c.31-2.17,2.48-8.04-7.43-5.88Z"/>
          <path class="st1" d="M529.68,239.79c-8.92,0-12.62-3.99-14.07-6.56-2.01-3.56-1.63-7.43-.25-9.27,2.82-3.76,44.11-10.28,48.89-11.02,3.72-.81,6.15-.6,7.43.65,1.42,1.39.99,3.61.71,5.08-.05.26-.1.5-.13.71-.01.08-1.27,8.02-2.98,9.3-1.24.93-8.99,2.23-10.9,2.55-1.01.89-8.09,6.64-25.24,8.38-1.23.13-2.39.18-3.46.18ZM568.06,213.45c-1,0-2.21.15-3.62.46h-.03c-18.33,2.85-46.3,8.04-48.25,10.64-1.21,1.61-1.42,5.11.32,8.18,1.51,2.67,5.67,6.98,16.56,5.87,17.83-1.81,24.7-8.15,24.77-8.22l.11-.11.15-.03c3.66-.59,9.78-1.76,10.61-2.38.91-.68,2.16-5.66,2.59-8.64.03-.22.08-.47.13-.75.26-1.33.61-3.16-.42-4.17-.58-.57-1.56-.85-2.92-.85Z"/>
        </g>
        <g>
          <g>
            <path class="st24" d="M485.04,226.61s5.64,10.79,11.81,8.9c6.18-1.9,14.18-8.14,14.18-8.14,0,0,7.02-15.83,19.08-15.9s13.04,7.34,10.29,11.69c-2.76,4.35-12.69-.85-12.69-.85,0,0-8.34,2.22-7.68,8.09.66,5.87,3.46,8.95,11.49,6.73,0,0,2.45-4.66,6.79-2.21,0,0,1.18-9.29,10.82-2.24,0,0,.26-7.74,8.32-4.69,8.06,3.04,3.78,9.88-2.42,8.99,0,0,1.27,5.25-5.85,4.68,0,0,3.45,7.71-12.36,2.55,0,0-6.17,2.82-8.96,2.22,0,0-12.53,24.21-26.15,23.06-13.62-1.15-30.7-10.01-34.23-30.72-3.54-20.71,17.56-12.18,17.56-12.18Z"/>
            <path class="st1" d="M502.67,270.05c-.33,0-.66-.01-1-.04-13.74-1.16-31.08-10.01-34.68-31.14-1.03-6.02-.1-10.23,2.76-12.54,5.27-4.25,15.06-.36,15.48-.19.11.04.2.13.26.23.05.1,5.51,10.41,11.23,8.65,5.66-1.74,13-7.27,13.92-7.98.32-.7,2.04-4.28,5.03-7.92,4.37-5.31,9.36-8.13,14.45-8.16,7.17-.06,10.05,2.47,11.22,4.58,1.29,2.33,1.09,5.34-.51,7.88-2.79,4.4-11.73.14-13.16-.58-1.17.36-7.69,2.59-7.14,7.5.34,3.04,1.25,5.02,2.79,6.06,1.71,1.16,4.29,1.26,7.87.3.35-.58,1.5-2.25,3.4-2.81,1.08-.32,2.21-.22,3.36.29.28-1.14,1.07-3.38,3.14-4.27,1.98-.85,4.55-.22,7.64,1.89.2-1.13.77-3.08,2.44-4.19,1.6-1.06,3.77-1.09,6.46-.08,3.52,1.33,5.25,3.59,4.62,6.05-.57,2.21-3.15,4.2-6.64,3.97.05.76-.04,2.02-.92,3.06-.96,1.12-2.6,1.66-4.81,1.6.19.79.28,2.06-.6,3.04-1.63,1.81-5.81,1.65-12.43-.49-1.02.45-5.95,2.54-8.71,2.24-1.56,2.93-12.78,23.05-25.47,23.05ZM476.33,225.37c-2.16,0-4.33.43-5.96,1.74-2.55,2.06-3.36,5.96-2.4,11.59,3.51,20.56,20.39,29.18,33.78,30.31,13.13,1.12,25.54-22.56,25.67-22.8.1-.2.33-.31.55-.26,2.59.56,8.58-2.16,8.65-2.19.11-.05.24-.06.36-.02,8.28,2.7,10.79,1.68,11.56.83.93-1.03.2-2.69.19-2.7-.07-.16-.05-.35.05-.49.1-.15.27-.22.45-.21,2.28.19,3.86-.22,4.7-1.21,1.01-1.18.62-2.83.62-2.85-.04-.16,0-.33.12-.45.11-.12.27-.18.44-.16,3.2.46,5.69-1.28,6.17-3.16.49-1.91-1-3.73-4-4.86-2.37-.89-4.23-.9-5.54-.03-1.97,1.31-2.1,4.25-2.1,4.27,0,.19-.12.35-.28.43-.17.08-.36.06-.51-.05-3.09-2.26-5.56-3.03-7.34-2.27-2.24.96-2.68,4.13-2.68,4.16-.02.17-.12.31-.27.38s-.33.07-.47-.01c-1.12-.63-2.2-.8-3.2-.5-1.86.55-2.9,2.49-2.91,2.51-.06.12-.18.21-.31.25-3.98,1.1-6.89.98-8.9-.38-1.8-1.22-2.85-3.43-3.22-6.78-.7-6.23,7.69-8.54,8.05-8.63.12-.03.25-.02.36.04.1.05,9.56,4.93,12.04,1.02,1.1-1.74,1.81-4.46.48-6.86-1.03-1.86-3.63-4.07-10.15-4.07-.06,0-.12,0-.19,0-11.6.07-18.56,15.45-18.63,15.6-.03.08-.08.14-.15.19-.33.26-8.15,6.32-14.34,8.22-6.13,1.88-11.53-7.53-12.32-8.98-.82-.31-4.58-1.64-8.36-1.64Z"/>
          </g>
          <g>
            <path class="st24" d="M510.5,236.32s1.86,9.28,9.9,9.28"/>
            <path class="st1" d="M520.4,246.1c-8.36,0-10.37-9.59-10.39-9.68-.05-.27.12-.53.39-.59.27-.05.53.12.59.39.07.36,1.88,8.88,9.41,8.88.28,0,.5.22.5.5s-.22.5-.5.5Z"/>
          </g>
          <g>
            <path class="st24" d="M531.52,237.14s-1.83,4.03,5.31,7.08"/>
            <path class="st1" d="M536.82,244.72c-.07,0-.13-.01-.2-.04-2.93-1.25-4.78-2.83-5.5-4.68-.66-1.71-.09-3.01-.06-3.07.11-.25.41-.36.66-.25.25.11.36.41.25.66-.02.05-.42,1.02.1,2.32.62,1.56,2.33,2.98,4.95,4.1.25.11.37.4.26.66-.08.19-.27.3-.46.3Z"/>
          </g>
          <g>
            <line class="st24" x1="538.31" y1="234.93" x2="545.14" y2="238.29"/>
            <path class="st1" d="M545.14,238.79c-.07,0-.15-.02-.22-.05l-6.83-3.36c-.25-.12-.35-.42-.23-.67.12-.25.42-.35.67-.23l6.83,3.36c.25.12.35.42.23.67-.09.18-.26.28-.45.28Z"/>
          </g>
          <g>
            <line class="st24" x1="549.13" y1="232.7" x2="552.23" y2="233.91"/>
            <path class="st1" d="M552.23,234.41c-.06,0-.12-.01-.18-.03l-3.1-1.22c-.26-.1-.38-.39-.28-.65.1-.26.39-.38.65-.28l3.1,1.22c.26.1.38.39.28.65-.08.2-.27.32-.47.32Z"/>
          </g>
        </g>
        <g>
          <path class="st24" d="M409.02,178.77s-14.85,11.14-6.81,23.51c8.04,12.38,35.89,27.23,44.55,20.42,8.66-6.81,1.24-29.7,1.24-29.7"/>
          <path class="st1" d="M440.73,224.92c-1.14,0-2.38-.11-3.71-.33-12.04-2-29.16-12.7-35.22-22.03-8.21-12.62,6.77-24.07,6.93-24.19.22-.16.53-.12.7.1.17.22.12.53-.1.7-.04.03-3.69,2.79-6.31,7-3.47,5.56-3.59,10.89-.38,15.84,5.94,9.14,22.73,19.63,34.55,21.59,4.13.69,7.33.24,9.28-1.29,8.29-6.51,1.14-28.93,1.07-29.16-.08-.26.06-.54.32-.63.27-.09.54.06.63.32.31.95,7.43,23.31-1.4,30.25-1.54,1.21-3.67,1.82-6.35,1.82Z"/>
        </g>
        <g>
          <g>
            <path class="st20" d="M404.06,186.66s-45.95,6.5-51.05,62.19l49.2,8.82,38.52,11.6s36.36,2.32,46.88-6.03c-2.48-18.26-10.67-22.74-10.67-22.74,0,0,.31-7.12,13.15-9.75,5.41-.77-19.18-43.63-47.03-45.02,0,0,11.14,21.35-8.35,23.67-19.49,2.32-30.63-22.74-30.63-22.74Z"/>
            <path class="st1" d="M452.01,270.09c-6.21,0-10.79-.28-11.31-.31l-.11-.02-38.52-11.6-49.59-8.89.04-.46c2.66-28.96,16.5-44.45,27.65-52.34,12.08-8.56,23.71-10.28,23.83-10.3l.37-.05.15.34c.03.06,2.82,6.28,7.94,12.13,4.68,5.35,12.33,11.49,22.17,10.31,4.9-.58,8.22-2.45,9.86-5.56,3.57-6.76-1.83-17.28-1.89-17.39l-.4-.77.87.04c24.96,1.25,47.89,36.13,48.25,44.05.07,1.55-.71,1.89-1.18,1.96-10.79,2.21-12.44,7.69-12.68,9,1.54,1.01,8.39,6.38,10.63,22.93l.04.28-.22.18c-6.88,5.47-24.25,6.45-35.91,6.45ZM440.82,268.78c1.62.1,35.91,2.03,46.25-5.76-2.45-17.5-10.3-22.04-10.38-22.09l-.27-.15v-.31c.03-.31.49-7.54,13.56-10.21.27-.04.38-.35.35-.93-.35-7.66-22.32-41.09-46.45-43.04,1.23,2.65,4.77,11.34,1.5,17.53-1.8,3.41-5.38,5.46-10.62,6.09-18.39,2.19-29.51-19.62-30.98-22.68-2.04.36-12.37,2.5-23.07,10.09-10.9,7.73-24.43,22.87-27.15,51.13l48.74,8.74,38.52,11.6Z"/>
          </g>
          <g>
            <line class="st21" x1="465.33" y1="215.44" x2="476.93" y2="240.96"/>
            <rect class="st1" x="470.63" y="214.18" width="1" height="28.04" transform="translate(-52.2 215.4) rotate(-24.44)"/>
          </g>
          <path class="st5" d="M430.84,241.34l-.65-.76c.13-.11,12.97-10.78,33.88-4.74l-.28.96c-20.39-5.89-32.83,4.44-32.95,4.54Z"/>
          <g>
            <line class="st21" x1="396.17" y1="248.85" x2="401.74" y2="221.01"/>
            <rect class="st1" x="384.76" y="234.43" width="28.4" height="1" transform="translate(90.28 580.01) rotate(-78.68)"/>
          </g>
        </g>
        <g>
          <g>
            <path class="st24" d="M356.42,249.16s-11.91,26.45,13.61,32.02c25.53,5.57,46.88-.46,46.88-.46,0,0,1.86-.77,3.71,3.87s4.8,16.09,10.67,13.77c0,0,1.7,2.01,4.64,1.86s4.33-2.48,4.33-2.48c0,0,1.24,2.48,4.02,2.32,2.78-.15,4.18-3.56,4.18-3.56,0,0,3.09,1.55,5.57-2.17,2.48-3.71-.31-23.67-11.91-29.86-11.6-6.19-29.08-11.14-45.33-11.91,0,0-20.89-7.89-40.38-3.4Z"/>
            <path class="st1" d="M435.61,300.72c-2.33,0-3.88-1.23-4.45-1.79-1.08.35-2.13.3-3.13-.16-3.39-1.54-5.47-7.36-6.99-11.61-.32-.9-.62-1.72-.88-2.4-1.6-4-3.06-3.59-3.07-3.58-.25.07-21.8,6.02-47.16.48-7.23-1.58-12.19-4.97-14.77-10.07-4.9-9.74.57-22.12.8-22.64.06-.14.19-.25.34-.28,18.83-4.33,39.18,2.88,40.59,3.4,15.39.75,33.23,5.44,45.46,11.97,7.76,4.14,10.91,13.77,11.91,17.72,1.39,5.52,1.47,10.93.19,12.85-2.09,3.14-4.67,2.82-5.73,2.51-.5.98-1.95,3.3-4.41,3.43-2.16.12-3.47-1.14-4.08-1.95-.67.77-2.07,1.99-4.27,2.11-.12,0-.24,0-.35,0ZM431.29,297.86c.14,0,.28.06.38.18.06.07,1.61,1.82,4.23,1.68,2.62-.14,3.88-2.15,3.93-2.23.09-.15.25-.26.45-.24.18,0,.35.11.43.27.04.09,1.12,2.17,3.55,2.05,2.43-.14,3.73-3.22,3.74-3.25.05-.13.16-.23.29-.28.13-.05.27-.04.4.02.11.05,2.74,1.29,4.93-2,.95-1.43,1.16-6.14-.32-12.05-.96-3.82-4-13.13-11.41-17.08-12.14-6.47-29.85-11.13-45.12-11.85-.05,0-.1-.01-.15-.03-.21-.08-20.8-7.72-39.84-3.44-.72,1.73-5.06,12.95-.72,21.56,2.43,4.82,7.17,8.03,14.08,9.54,25.11,5.48,46.42-.4,46.63-.46,0,0,.53-.21,1.27.11,1.13.48,2.15,1.84,3.04,4.06.27.69.57,1.52.9,2.43,1.38,3.85,3.46,9.67,6.46,11.03.85.39,1.73.39,2.67.02.06-.02.12-.03.18-.03Z"/>
          </g>
          <g>
            <path class="st24" d="M445.68,278.25s4.95,8.97,2.48,18.56"/>
            <path class="st1" d="M448.16,297.31s-.08,0-.12-.02c-.27-.07-.43-.34-.36-.61,2.4-9.29-2.38-18.11-2.43-18.2-.13-.24-.05-.55.2-.68.24-.13.55-.05.68.2.21.37,5.02,9.26,2.52,18.93-.06.23-.26.38-.48.38Z"/>
          </g>
          <g>
            <path class="st24" d="M436.71,277.78s6.81,11.45,2.94,21.19"/>
            <path class="st1" d="M439.65,299.48c-.06,0-.12-.01-.18-.04-.26-.1-.38-.39-.28-.65,3.73-9.41-2.84-20.64-2.9-20.75-.14-.24-.06-.54.17-.69.24-.14.54-.06.69.17.28.48,6.89,11.77,2.97,21.63-.08.2-.27.32-.46.32Z"/>
          </g>
          <g>
            <path class="st24" d="M427.27,278.4s5.72,7.58,4.8,19.49"/>
            <path class="st1" d="M432.07,298.39s-.03,0-.04,0c-.28-.02-.48-.26-.46-.54.9-11.57-4.64-19.08-4.7-19.15-.17-.22-.12-.53.1-.7.22-.17.53-.12.7.1.24.32,5.83,7.87,4.89,19.83-.02.26-.24.46-.5.46Z"/>
          </g>
        </g>
        <g>
          <g>
            <path class="st24" d="M433.32,203.43s19.77,6.19,25.72-16.43c5.95-22.62-2.86-57.87-17.86-60.96-15-3.1-43.1-4.29-49.06,16.67s3.1,31.2,3.1,31.2c0,0,3.81,10.95,12.62,18.81"/>
            <path class="st1" d="M439.26,204.71c-3.43,0-5.9-.75-6.08-.81-.26-.08-.41-.36-.33-.63.08-.26.36-.41.63-.33.08.02,7.97,2.41,15.07-1.52,4.8-2.66,8.17-7.56,10.01-14.57,4.18-15.89,1.16-38.48-6.88-51.45-3.12-5.04-6.79-8.11-10.6-8.9-4.62-.95-16.55-2.92-27.72-.68-11.2,2.25-18.19,7.97-20.75,17-3.03,10.68-2.06,18.46-.71,23.12,1.46,5.04,3.67,7.59,3.69,7.61.04.05.08.11.1.17.04.11,3.87,10.93,12.48,18.6.21.18.22.5.04.71-.18.21-.5.22-.71.04-8.38-7.47-12.33-17.85-12.73-18.93-.88-1.04-8.9-11.31-3.14-31.59,2.68-9.42,9.92-15.38,21.52-17.71,11.35-2.28,23.45-.28,28.12.69,4.09.84,7.98,4.08,11.25,9.35,8.16,13.17,11.24,36.11,6.99,52.23-1.92,7.29-5.45,12.4-10.51,15.19-3.4,1.88-6.91,2.4-9.76,2.4Z"/>
          </g>
          <g class="st15">
            <g>
              <path class="st17" d="M401.89,167.23s9.76,2.38,10-8.81c.24-11.19.24-20.72,12.38-22.62,12.15-1.91,22.15-1.91,26.2-9.29,4.05-7.38-43.1-11.91-57.15-5.72-14.05,6.19-25.72,53.82,8.57,46.44Z"/>
              <path class="st1" d="M395.32,168.49c-7.71,0-13.02-3.56-15.23-10.38-4.3-13.26,4.09-33.83,13.02-37.77,12.24-5.39,51.36-2.98,57.33,3.53,1.06,1.15.83,2.2.46,2.88-3.5,6.39-11.11,7.41-20.75,8.71-1.87.25-3.81.51-5.8.83-11.53,1.81-11.72,10.54-11.95,21.6v.54c-.09,3.67-1.17,6.33-3.24,7.92-2.85,2.19-6.56,1.55-7.28,1.4-2.34.5-4.54.74-6.56.74ZM414.78,118.36c-8.61,0-16.65.86-21.26,2.89-9.87,4.35-15.95,25.82-12.47,36.54,1.86,5.72,6.96,11.91,20.74,8.95l.11-.02.11.03s3.84.89,6.56-1.2c1.8-1.39,2.76-3.79,2.83-7.14v-.54c.24-11.07.44-20.62,12.81-22.56,2.01-.31,3.95-.58,5.83-.83,9.36-1.26,16.75-2.26,20.01-8.2.2-.37.39-.95-.32-1.72-3.29-3.58-19.96-6.19-34.93-6.19Z"/>
            </g>
          </g>
          <path class="st1" d="M439.26,204.71c-3.43,0-5.9-.75-6.08-.81-.26-.08-.41-.36-.33-.63.08-.26.36-.41.63-.33.08.02,7.97,2.41,15.07-1.52,4.8-2.66,8.17-7.56,10.01-14.57,4.18-15.89,1.16-38.48-6.88-51.45-3.12-5.04-6.79-8.11-10.6-8.9-4.62-.95-16.55-2.92-27.72-.68-11.2,2.25-18.19,7.97-20.75,17-3.03,10.68-2.06,18.46-.71,23.12,1.46,5.04,3.67,7.59,3.69,7.61.04.05.08.11.1.17.04.11,3.87,10.93,12.48,18.6.21.18.22.5.04.71-.18.21-.5.22-.71.04-8.38-7.47-12.33-17.85-12.73-18.93-.88-1.04-8.9-11.31-3.14-31.59,2.68-9.42,9.92-15.38,21.52-17.71,11.35-2.28,23.45-.28,28.12.69,4.09.84,7.98,4.08,11.25,9.35,8.16,13.17,11.24,36.11,6.99,52.23-1.92,7.29-5.45,12.4-10.51,15.19-3.4,1.88-6.91,2.4-9.76,2.4Z"/>
          <g>
            <g>
              <path class="st24" d="M405.46,166.04s-6.19-9.29-14.29-5c-8.1,4.29-3.81,25,12.38,21.91"/>
              <path class="st1" d="M400.34,183.76c-6.91,0-11.08-4.59-12.75-9.35-2.04-5.79-.6-11.73,3.34-13.82,8.4-4.45,14.88,5.07,14.94,5.17.15.23.09.54-.14.69-.23.15-.54.09-.69-.14-.24-.36-6.04-8.86-13.64-4.84-3.51,1.86-4.74,7.28-2.87,12.6,1.79,5.09,6.65,9.95,14.92,8.37.26-.05.53.13.58.4.05.27-.13.53-.4.58-1.16.22-2.27.33-3.3.33Z"/>
            </g>
            <g>
              <path class="st24" d="M400.46,171.99s-1.19-5.95-6.91-7.14"/>
              <path class="st1" d="M400.46,172.49c-.23,0-.44-.16-.49-.4-.05-.23-1.2-5.65-6.52-6.75-.27-.06-.44-.32-.39-.59s.33-.44.59-.39c5.97,1.24,7.28,7.47,7.29,7.54.05.27-.12.53-.39.59-.03,0-.07,0-.1,0Z"/>
            </g>
          </g>
          <path class="st1" d="M441.84,182.47c-6.98,0-12.27-4.57-12.35-4.64-.21-.18-.23-.5-.04-.71.18-.21.5-.23.71-.04.4.35,9.83,8.48,20.05,1.81.23-.15.54-.09.69.15.15.23.09.54-.15.69-3.09,2.02-6.14,2.74-8.91,2.74Z"/>
          <path class="st1" d="M444.75,171.67c-3.33,0-6.2-1.58-6.35-1.67-.24-.13-.33-.44-.19-.68.13-.24.44-.33.68-.19.04.02,4.42,2.43,8.34,1.17,2-.64,3.57-2.13,4.66-4.43.84-1.77.88-3.25.12-4.51-2.32-3.85-11.2-4.29-11.29-4.29-.28-.01-.49-.25-.48-.52.01-.28.2-.51.52-.48.39.02,9.51.47,12.1,4.77.93,1.55.91,3.39-.07,5.46-1.21,2.56-2.99,4.23-5.26,4.96-.93.3-1.87.41-2.77.41Z"/>
          <path class="st1" d="M422.51,149.3c-.14,0-.28-.06-.38-.17-.18-.21-.16-.52.04-.71,4.04-3.56,9.39-3.61,9.61-3.61.28,0,.5.22.5.5s-.22.5-.5.5c-.05,0-5.2.05-8.95,3.36-.1.08-.21.12-.33.12Z"/>
          <path class="st1" d="M440.31,146.63c-.1,0-.21-.03-.29-.1-.22-.16-.27-.48-.11-.7,2.66-3.64,6.24-3.69,6.39-3.69.28,0,.5.22.5.5,0,.28-.22.5-.5.5-.13,0-3.23.06-5.59,3.28-.1.13-.25.21-.4.21Z"/>
          <g>
            <path class="st1" d="M445.6,153.32s.05,2-.22,2.62c-.26.63.08,1.4.89,1.29s1.57-3.05,1.24-5.36c-.33-2.31-.59-2.51-1.85-2.22s.1,2.34-.07,3.66Z"/>
            <path class="st1" d="M446.12,157.75c-.42,0-.79-.17-1.04-.5-.31-.4-.37-.99-.16-1.5.15-.36.2-1.63.18-2.42v-.04s0-.04,0-.04c.05-.41-.09-.97-.23-1.5-.2-.78-.39-1.52-.06-2.07.11-.18.33-.42.75-.52.53-.12,1.09-.22,1.54.09.53.36.71,1.11.92,2.54.27,1.92-.15,4.4-.92,5.42-.22.3-.48.47-.75.5-.08.01-.15.02-.22.02ZM446.1,153.35c0,.42.03,2.13-.26,2.79-.07.18-.06.38.03.5.02.03.1.13.33.1.36-.19,1.14-2.56.82-4.8-.07-.5-.24-1.69-.49-1.86-.12-.08-.58.02-.75.06-.04.01-.1.03-.12.06-.11.19.05.83.17,1.3.16.62.33,1.25.26,1.84Z"/>
          </g>
          <g>
            <path class="st1" d="M430.05,154.95s.05,2-.22,2.62.08,1.4.89,1.29,1.57-3.05,1.24-5.36-.59-2.51-1.85-2.22.1,2.34-.07,3.66Z"/>
            <path class="st1" d="M430.58,159.37c-.42,0-.79-.17-1.04-.5-.31-.4-.37-.99-.16-1.5.15-.36.2-1.63.18-2.42v-.04s0-.04,0-.04c.05-.41-.09-.97-.23-1.5-.2-.78-.39-1.52-.06-2.07.11-.18.33-.42.75-.51.53-.12,1.09-.22,1.54.09.53.36.71,1.11.92,2.54.27,1.92-.15,4.4-.92,5.42-.22.3-.48.47-.75.5-.08.01-.15.02-.22.02ZM430.56,154.97c0,.42.03,2.12-.26,2.8-.07.18-.06.38.03.5.03.03.1.13.33.1.36-.19,1.14-2.56.82-4.8-.07-.5-.24-1.69-.49-1.86-.12-.09-.58.02-.75.06-.04.01-.1.03-.12.06-.11.19.05.83.18,1.3.16.62.32,1.25.26,1.84Z"/>
          </g>
          <ellipse class="st2" cx="419.61" cy="161.21" rx="2.86" ry="4.23" transform="translate(254.22 579.19) rotate(-89.43)"/>
        </g>
        <path class="st1" d="M360.67,245.48s-.04,0-.06,0c-.27-.03-.47-.28-.44-.56.05-.44,5.85-44.31,46.82-51.95.27-.05.53.13.58.4.05.27-.13.53-.4.58-40.25,7.5-45.95,50.65-46.01,51.08-.03.25-.25.44-.5.44Z"/>
        <g>
          <g>
            <path class="st19" d="M583.29,319.24h60.87v63.12h-60.87c-3.29,0-5.96-2.67-5.96-5.96v-51.2c0-3.29,2.67-5.96,5.96-5.96Z"/>
            <path class="st1" d="M644.67,382.86h-61.37c-3.56,0-6.46-2.9-6.46-6.46v-51.2c0-3.56,2.9-6.46,6.46-6.46h61.37v64.12ZM583.29,319.74c-3.01,0-5.46,2.45-5.46,5.46v51.2c0,3.01,2.45,5.46,5.46,5.46h60.37v-62.12h-60.37Z"/>
          </g>
          <g>
            <line class="st17" x1="605.18" y1="329.22" x2="605.18" y2="372.38"/>
            <rect class="st1" x="604.68" y="329.22" width="1" height="43.16"/>
          </g>
          <g>
            <rect class="st17" x="631.63" y="303.93" width="12.53" height="15.32"/>
            <path class="st1" d="M644.67,319.74h-13.53v-16.32h13.53v16.32ZM632.13,318.74h11.53v-14.32h-11.53v14.32Z"/>
          </g>
          <g>
            <g>
              <path class="st17" d="M603.23,218.07h40.94v90.04h-40.94c-2.51,0-4.54-2.04-4.54-4.54v-80.95c0-2.51,2.04-4.54,4.54-4.54Z"/>
              <path class="st1" d="M644.67,308.6h-41.44c-2.78,0-5.04-2.26-5.04-5.04v-80.95c0-2.78,2.26-5.04,5.04-5.04h41.44v91.04ZM603.23,218.57c-2.23,0-4.04,1.81-4.04,4.04v80.95c0,2.23,1.81,4.04,4.04,4.04h40.44v-89.04h-40.44Z"/>
            </g>
            <g>
              <line class="st17" x1="614.46" y1="224.56" x2="614.46" y2="301.14"/>
              <rect class="st1" x="613.96" y="224.56" width="1" height="76.58"/>
            </g>
          </g>
        </g>
      </g>
    </g>
    <path class="st1" d="M373.27,591.55c-52.42,0-96.9-8.06-111.94-21.21-30.12-26.35-53.55-33.66-123.1-55.36-13.35-4.17-28.49-8.89-45.66-14.37-28.83-9.2-50.57-31.85-62.85-65.49-14.19-38.85-15.75-92.12-4.4-150,11.4-58.1,35.3-118.12,67.3-169,21.24-33.76,50.98-59.09,88.4-75.27,29.92-12.94,64.78-20.1,103.62-21.27,65.48-1.98,120.54,13.97,122.09,14.43,54.12,9.17,99.44,30.06,134.69,62.09,30.93,28.1,54.16,64.72,69.05,108.84,19.3,57.2,24.12,127.05,13.57,196.68-8.83,58.25-28.03,110.32-48.91,132.64-15.35,16.41-39.45,29.75-71.63,39.66-27.75,8.55-61.03,14.26-96.23,16.53-11.55.74-22.95,1.1-33.99,1.1ZM296,20.4c-3.74,0-7.53.05-11.35.17-38.71,1.17-73.44,8.3-103.24,21.19-37.22,16.1-66.81,41.3-87.94,74.88C27.85,220.97,1.43,354.76,30.66,434.77c12.35,33.82,33.29,55.65,62.22,64.88,17.17,5.48,32.3,10.2,45.65,14.37,69.7,21.75,93.18,29.07,123.46,55.56,17.73,15.51,80.16,24.05,145.21,19.87,77.72-5,138.66-25.37,167.19-55.87,20.75-22.19,39.85-74.04,48.66-132.11,10.53-69.48,5.73-139.16-13.52-196.21-14.83-43.96-37.97-80.44-68.77-108.42-35.12-31.91-80.28-52.72-134.22-61.85h-.06c-.52-.17-49.66-14.58-110.48-14.58Z"/>
  </g>
  <g>
    <path class="st3" d="M248.55,587.97c-98.24,0-234.99,52.65-234.99,85.1s90.9,92.65,325.28,55.01c234.39-37.64,139.6-88.26,67.21-107.73-72.38-19.47-59.27-32.38-157.5-32.38Z"/>
    <path class="st1" d="M202.03,740.59c-26.02,0-50.24-1.6-72.55-4.79-44.71-6.41-80.49-19.45-100.76-36.72-10.1-8.61-15.67-17.85-15.67-26.01,0-15.53,31.03-36.68,80.98-55.19,51.39-19.04,109.15-30.41,154.51-30.41,66.76,0,82.23,5.98,107.86,15.89,11.83,4.57,26.54,10.26,49.78,16.51,40.36,10.85,83.1,29.94,82.01,50.94-1.17,22.61-51.39,42.04-149.27,57.76-49.85,8-95.64,12.02-136.88,12.02ZM248.55,588.47c-45.24,0-102.87,11.35-154.16,30.35-49.55,18.36-80.33,39.15-80.33,54.25,0,7.87,5.44,16.83,15.32,25.25,11.65,9.93,40.18,27.88,100.25,36.49,57.57,8.25,127.93,5.82,209.13-7.22,51.75-8.31,90.58-17.79,115.4-28.18,21.4-8.96,32.51-18.59,33.03-28.64.49-9.44-8.19-19.14-25.81-28.83-14.15-7.79-33.85-15.28-55.46-21.09-23.29-6.26-38.03-11.96-49.88-16.54-25.52-9.87-40.92-15.82-107.49-15.82Z"/>
  </g>
  <g>
    <g>
      <path class="st6" d="M49.73,636.11c-4.58,6.45-9.36,17.26-8.73,23.29s2.08,13.52,13.93,22.25c11.85,8.73,35.15,23.29,41.8,25.16s12.27,3.12,16.64-2.7c0,0,6.45,3.12,11.23,1.04s5.82-4.58,5.82-4.58c0,0,5.62,3.12,9.36,1.46,3.74-1.66,4.78-4.58,4.78-4.58,0,0,8.53,2.5,12.48-2.5,3.95-4.99,4.78-14.56-11.44-29.74-16.22-15.18-24.96-24.96-24.96-24.96,0,0,2.91-15.6,4.16-17.89,1.25-2.29,23.92-100.86,23.92-100.86l-76.12-6.86s-18.3,115.01-22.88,121.45Z"/>
      <path class="st1" d="M105.16,708.88c-2.56,0-5.39-.69-8.57-1.58-6.88-1.93-30.31-16.66-41.96-25.24-11.78-8.68-13.47-16.22-14.13-22.6-.62-6.04,4.09-16.97,8.82-23.63,4.46-6.28,22.61-120.09,22.79-121.24l.07-.46,77.15,6.96-.13.56c-.93,4.03-22.7,98.67-23.96,100.99-.94,1.73-3.04,12.06-4.06,17.49,1.28,1.41,9.94,10.87,24.76,24.74,17.78,16.64,14.83,26.2,11.49,30.41-3.64,4.6-10.76,3.23-12.59,2.78-.45.91-1.79,3.07-4.86,4.44-3.34,1.49-7.92-.53-9.36-1.25-.55.87-2.1,2.75-5.82,4.37-4.32,1.88-9.8-.24-11.27-.88-2.43,3.08-5.18,4.15-8.36,4.15ZM73.03,515.2c-1.44,9.04-18.4,114.88-22.89,121.2h0c-4.62,6.52-9.25,17.14-8.64,22.95.64,6.17,2.28,13.46,13.73,21.9,11.32,8.34,34.98,23.21,41.64,25.08,6.87,1.93,12.05,2.88,16.1-2.52l.25-.33.37.18c.06.03,6.3,3,10.81,1.03,4.5-1.96,5.55-4.29,5.56-4.31l.22-.51.48.26c.05.03,5.44,2.98,8.91,1.44,3.48-1.55,4.51-4.26,4.52-4.29l.16-.44.45.13c.08.02,8.25,2.34,11.95-2.33,3.13-3.95,5.8-12.97-11.39-29.06-16.05-15.02-24.9-24.89-24.99-24.99l-.16-.18.04-.24c.12-.64,2.94-15.7,4.21-18.03,1-1.96,15.89-66.05,23.74-100.18l-75.08-6.77Z"/>
    </g>
    <g>
      <path class="st6" d="M105.68,682.17s18.09,13.1,7.8,22.15"/>
      <path class="st1" d="M113.81,704.7l-.66-.75c2.1-1.84,3.1-4,2.99-6.42-.35-7.33-10.65-14.87-10.75-14.95l.59-.81c.44.32,10.79,7.9,11.16,15.71.13,2.74-.99,5.17-3.33,7.22Z"/>
    </g>
    <g>
      <path class="st6" d="M120.65,677.18s19.34,15.29,9.05,24.33"/>
      <path class="st1" d="M130.03,701.89l-.66-.75c1.95-1.71,2.91-3.79,2.85-6.18-.21-8.07-11.76-17.29-11.87-17.39l.62-.79c.49.39,12.03,9.6,12.25,18.14.07,2.7-1,5.04-3.19,6.96Z"/>
    </g>
    <g>
      <path class="st6" d="M134.69,673.44s18.72,17.16,8.42,26.2"/>
      <path class="st1" d="M143.44,700.02l-.66-.75c1.91-1.68,2.89-3.78,2.92-6.25.09-8.61-11.24-19.1-11.35-19.21l.68-.74c.48.44,11.77,10.89,11.67,19.95-.03,2.77-1.13,5.12-3.26,7Z"/>
    </g>
    <g>
      <path class="st14" d="M157.41,681.48c-2.88-4.25-9.59-1.81-8.88,3.28.01.07.02.15.03.23,1.2,7.59,8.79,12.38,11.58,7.19,1.66-3.08-.61-7.55-2.74-10.69Z"/>
      <path class="st1" d="M156.78,694.84c-.27,0-.55-.02-.84-.07-3.2-.54-7.03-4.33-7.88-9.71l-.03-.23c-.35-2.52.96-4.73,3.34-5.65,2.01-.77,4.78-.44,6.45,2.02h0c2.23,3.3,4.53,7.93,2.76,11.21-.86,1.59-2.19,2.44-3.8,2.44ZM153.41,679.8c-.6,0-1.18.12-1.68.31-1.46.56-3.05,2.1-2.71,4.58l.03.22c.77,4.88,4.26,8.41,7.06,8.88,1.08.18,2.59.01,3.59-1.85,1.53-2.84-.63-7.1-2.71-10.17-.98-1.45-2.34-1.96-3.59-1.96Z"/>
    </g>
    <g>
      <path class="st14" d="M143.47,687.24c-2.25-3.32-7.49-1.41-6.94,2.56,0,.06.02.12.03.18.94,5.93,6.86,9.67,9.05,5.62,1.29-2.4-.48-5.9-2.14-8.35Z"/>
      <path class="st1" d="M142.96,697.78c-.21,0-.43-.02-.66-.06-2.54-.43-5.57-3.42-6.24-7.68l-.03-.19c-.28-2.02.77-3.79,2.68-4.53,1.61-.62,3.83-.35,5.17,1.62h0c1.76,2.6,3.57,6.26,2.16,8.87-.68,1.27-1.78,1.96-3.08,1.96ZM140.34,686.04c-.46,0-.89.09-1.27.23-1.11.42-2.31,1.58-2.05,3.46l.02.17c.59,3.76,3.28,6.48,5.42,6.85,1.17.2,2.09-.28,2.69-1.39,1.23-2.28-.79-5.89-2.11-7.83h0c-.74-1.1-1.77-1.48-2.71-1.48Z"/>
    </g>
    <g>
      <path class="st14" d="M129.74,690.98c-2.25-3.32-7.49-1.41-6.94,2.56,0,.06.02.12.03.18.94,5.93,6.86,9.67,9.05,5.62,1.29-2.4-.48-5.9-2.14-8.35Z"/>
      <path class="st1" d="M129.24,701.53c-.21,0-.43-.02-.66-.06-2.54-.43-5.57-3.42-6.24-7.68l-.03-.18c-.28-2.02.77-3.8,2.68-4.53,1.61-.62,3.83-.36,5.17,1.62h0c1.76,2.6,3.57,6.26,2.16,8.87-.68,1.27-1.78,1.96-3.08,1.96ZM126.62,689.78c-.46,0-.89.09-1.27.23-1.11.42-2.31,1.58-2.05,3.46l.03.17c.59,3.76,3.28,6.48,5.42,6.85,1.17.2,2.1-.28,2.69-1.39,1.23-2.29-.79-5.89-2.11-7.83h0c-.74-1.1-1.77-1.48-2.71-1.48Z"/>
    </g>
    <g>
      <path class="st14" d="M114.82,693.86c-2.25-3.32-7.49-1.41-6.94,2.56,0,.06.02.12.03.18.94,5.93,6.86,9.67,9.05,5.62,1.29-2.4-.48-5.9-2.14-8.35Z"/>
      <path class="st1" d="M114.31,704.41c-.21,0-.43-.02-.66-.06-2.54-.43-5.57-3.42-6.24-7.68l-.03-.19c-.28-2.02.77-3.79,2.68-4.53,1.61-.62,3.83-.36,5.17,1.62h0c1.76,2.6,3.57,6.26,2.16,8.87-.68,1.27-1.78,1.96-3.08,1.96ZM111.69,692.66c-.46,0-.89.09-1.27.23-1.11.42-2.31,1.58-2.05,3.46l.02.17c.59,3.76,3.28,6.48,5.42,6.85,1.17.2,2.1-.28,2.69-1.39,1.23-2.28-.79-5.89-2.11-7.83h0c-.74-1.1-1.77-1.48-2.71-1.48Z"/>
    </g>
  </g>
  <g>
    <path class="st9" d="M164.89,123.23l10.78,33.16c4.6,14.17,17.81,23.76,32.71,23.76h34.87c4.7,0,6.66,6.02,2.85,8.78l-28.21,20.5c-12.05,8.76-17.1,24.28-12.49,38.45l10.78,33.16c1.45,4.47-3.66,8.19-7.47,5.43l-28.21-20.5c-12.05-8.76-28.37-8.76-40.43,0l-28.21,20.5c-3.8,2.76-8.92-.95-7.47-5.43l10.78-33.16c4.6-14.17-.44-29.69-12.49-38.45l-28.21-20.5c-3.8-2.76-1.85-8.78,2.85-8.78h34.87c14.9,0,28.1-9.59,32.71-23.76l10.78-33.16c1.45-4.47,7.78-4.47,9.23,0Z"/>
    <path class="st5" d="M109,287.91c-1.1,0-2.19-.35-3.15-1.04-1.91-1.39-2.67-3.74-1.94-5.98l10.77-33.16c4.55-14.01-.4-29.23-12.31-37.89l-28.21-20.5c-1.91-1.39-2.67-3.74-1.94-5.98.73-2.25,2.73-3.7,5.09-3.7h34.87c14.73,0,27.68-9.41,32.23-23.42l10.77-33.16c.73-2.25,2.73-3.7,5.09-3.7h0c2.36,0,4.36,1.45,5.09,3.7l10.77,33.16c4.55,14.01,17.5,23.42,32.23,23.42h34.87c2.36,0,4.36,1.45,5.09,3.7.73,2.25-.03,4.6-1.94,5.98l-28.21,20.5c-11.91,8.66-16.86,23.88-12.31,37.89l10.77,33.16c.73,2.25-.03,4.6-1.94,5.98-1.91,1.39-4.38,1.39-6.29,0l-28.21-20.5c-11.91-8.66-27.92-8.66-39.84,0l-28.21,20.5c-.96.69-2.05,1.04-3.15,1.04ZM77.31,180.65c-1.92,0-3.55,1.18-4.14,3.01s.03,3.74,1.58,4.87l28.21,20.5c12.27,8.91,17.36,24.59,12.67,39.01l-10.77,33.16c-.59,1.83.03,3.74,1.58,4.87,1.55,1.13,3.56,1.13,5.12,0l28.21-20.5c12.27-8.91,28.75-8.91,41.01,0l28.21,20.5c1.55,1.13,3.56,1.13,5.12,0,1.55-1.13,2.17-3.04,1.58-4.87l-10.77-33.16c-4.68-14.42.41-30.09,12.67-39.01l28.21-20.5c1.55-1.13,2.17-3.04,1.58-4.87-.59-1.83-2.22-3.01-4.14-3.01h-34.87c-15.16,0-28.5-9.69-33.18-24.11l-10.77-33.16c-.59-1.83-2.22-3.01-4.14-3.01s-3.55,1.18-4.14,3.01l-10.77,33.16c-4.69,14.42-18.02,24.11-33.18,24.11h-34.87Z"/>
  </g>
  <g>
    <path class="st20" d="M449.98,379.05l10.78,33.16c4.6,14.17,17.81,23.76,32.71,23.76h34.87c4.7,0,6.66,6.02,2.85,8.78l-28.21,20.5c-12.05,8.76-17.1,24.28-12.49,38.45l10.78,33.16c1.45,4.47-3.66,8.19-7.47,5.43l-28.21-20.5c-12.05-8.76-28.37-8.76-40.43,0l-28.21,20.5c-3.8,2.76-8.92-.95-7.47-5.43l10.78-33.16c4.6-14.17-.44-29.69-12.49-38.45l-28.21-20.5c-3.8-2.76-1.85-8.78,2.85-8.78h34.87c14.9,0,28.1-9.59,32.71-23.76l10.78-33.16c1.45-4.47,7.78-4.47,9.23,0Z"/>
    <path class="st1" d="M496.64,543.73c-1.1,0-2.19-.35-3.15-1.04l-28.21-20.5c-11.91-8.66-27.92-8.66-39.84,0l-28.21,20.5c-1.91,1.39-4.38,1.39-6.29,0-1.91-1.39-2.67-3.74-1.95-5.98l10.78-33.16c4.55-14.01-.4-29.23-12.31-37.89l-28.21-20.5c-1.91-1.39-2.67-3.74-1.94-5.98.73-2.25,2.73-3.7,5.09-3.7h34.87c14.73,0,27.68-9.41,32.23-23.42l10.78-33.16c.73-2.25,2.73-3.7,5.09-3.7s4.36,1.45,5.09,3.7l10.78,33.16c4.55,14.01,17.5,23.42,32.23,23.42h34.87c2.36,0,4.36,1.45,5.09,3.7.73,2.25-.03,4.6-1.94,5.98l-28.21,20.5c-11.91,8.66-16.86,23.88-12.31,37.89l10.78,33.16c.73,2.25-.03,4.6-1.95,5.98-.96.69-2.05,1.04-3.15,1.04ZM445.36,514.7c7.19,0,14.37,2.23,20.51,6.68l28.21,20.5c1.55,1.13,3.56,1.13,5.12,0,1.55-1.13,2.17-3.04,1.58-4.87l-10.78-33.16c-4.68-14.42.41-30.09,12.67-39.01l28.21-20.5c1.55-1.13,2.17-3.04,1.58-4.87-.59-1.83-2.22-3.01-4.14-3.01h-34.87c-15.16,0-28.5-9.69-33.18-24.11l-10.78-33.16c-.59-1.83-2.22-3.01-4.14-3.01s-3.55,1.18-4.14,3.01l-10.78,33.16c-4.68,14.42-18.02,24.11-33.18,24.11h-34.87c-1.92,0-3.55,1.18-4.14,3.01-.59,1.83.03,3.74,1.58,4.87l28.21,20.5c12.27,8.91,17.36,24.59,12.67,39.01l-10.78,33.16c-.59,1.83.03,3.74,1.58,4.87,1.55,1.13,3.56,1.13,5.12,0l28.21-20.5c6.13-4.46,13.32-6.68,20.51-6.68Z"/>
  </g>
  <g>
    <g>
      <g>
        <path class="st6" d="M210.07,525.72s-9.98,74.45-12.89,79.86c-2.91,5.41-15.81,27.45,6.65,34.11,22.46,6.65,57.4,12.89,57.4,12.89,0,0,10.4,7.07,17.47,5.41,7.07-1.66,7.9-5.41,7.9-5.41,0,0,5.82,3.33,10.4-5.41,0,0,9.15,2.08,13.73-9.15"/>
        <path class="st1" d="M276.36,658.74c-6.58,0-14.34-5.03-15.32-5.69-2.13-.38-35.72-6.48-57.35-12.89-6.24-1.85-10.35-5.05-12.2-9.53-3.68-8.9,2.57-20.38,4.92-24.7l.32-.59c2.83-5.27,12.74-78.95,12.84-79.69l.99.13c-.41,3.04-10.03,74.6-12.95,80.03l-.32.6c-2.29,4.21-8.37,15.39-4.88,23.84,1.73,4.18,5.62,7.19,11.56,8.95,22.18,6.57,57,12.82,57.34,12.88l.19.08c.1.07,10.3,6.92,17.07,5.33,6.62-1.56,7.52-5,7.53-5.03l.15-.64.58.32s1.81.99,4.08.32c2.15-.64,4.04-2.49,5.63-5.52l.18-.34.38.08c.35.08,8.8,1.83,13.15-8.85l.93.38c-4.14,10.17-12.08,9.76-13.92,9.51-1.69,3.1-3.73,5.02-6.08,5.71-1.92.56-3.51.14-4.31-.17-.54,1.18-2.35,3.87-8.07,5.22-.79.19-1.61.27-2.45.27Z"/>
      </g>
      <g>
        <path class="st6" d="M286.61,626.37s13.73,9.15,10.4,20.8"/>
        <path class="st1" d="M297.48,647.31l-.96-.28c3.19-11.16-10.06-20.15-10.19-20.24l.55-.83c.14.09,3.53,2.37,6.56,6.13,4.05,5.03,5.45,10.29,4.04,15.22Z"/>
      </g>
      <g>
        <path class="st6" d="M269.97,632.2s22.04,6.83,16.64,20.38"/>
        <path class="st1" d="M287.07,652.76l-.93-.37c1.14-2.85,1.08-5.6-.16-8.2-3.6-7.55-16.04-11.48-16.17-11.52l.3-.96c.53.16,12.98,4.1,16.77,12.04,1.36,2.86,1.43,5.89.18,9Z"/>
      </g>
      <g>
        <path class="st14" d="M284.02,639.81c-4.29-2.82-9.54,2.02-6.94,6.44.04.06.08.13.12.2,4.03,6.54,12.87,8.05,13.46,2.18.35-3.48-3.47-6.74-6.64-8.82Z"/>
        <path class="st1" d="M286.43,652.79c-3.1,0-7.18-2.05-9.66-6.08l-.12-.2c-1.29-2.19-.93-4.74.91-6.5,1.56-1.48,4.24-2.25,6.73-.61h0c3.33,2.19,7.23,5.58,6.86,9.28-.21,2.11-1.41,3.52-3.38,3.97-.42.1-.87.15-1.35.15ZM281.32,639.47c-1.24,0-2.34.57-3.07,1.27-1.14,1.08-2.01,3.11-.74,5.27l.11.19c2.58,4.2,7.17,6.12,9.93,5.48,1.07-.25,2.4-.98,2.61-3.09.32-3.21-3.31-6.31-6.42-8.35h0c-.83-.54-1.66-.76-2.42-.76Z"/>
      </g>
      <g>
        <path class="st14" d="M294.71,635.83c-3.27-2.15-7.28,1.54-5.29,4.92.03.05.06.1.09.15,3.07,4.99,9.82,6.14,10.27,1.66.26-2.65-2.65-5.14-5.07-6.73Z"/>
        <path class="st1" d="M296.55,645.85c-2.41,0-5.56-1.59-7.47-4.7l-.09-.15c-1.02-1.72-.74-3.73.71-5.11,1.22-1.16,3.33-1.76,5.28-.48h0c2.57,1.69,5.58,4.31,5.29,7.2-.16,1.64-1.13,2.78-2.67,3.13-.33.08-.68.11-1.05.11ZM292.65,635.69c-.92,0-1.72.42-2.26.93-.83.8-1.48,2.29-.54,3.87l.09.14c1.95,3.16,5.38,4.61,7.45,4.13,1.12-.26,1.77-1.04,1.9-2.26.25-2.52-2.93-5-4.84-6.26h0c-.61-.4-1.22-.56-1.79-.56Z"/>
      </g>
    </g>
    <g>
      <g>
        <path class="st4" d="M78.39,382.32s-20.53,46.54-16.43,75.98c4.11,29.43,4.79,77.35,4.79,77.35l-10.37,27.17h102.32s-1.6-16.9.45-25.12c2.05-8.21,10.27-54.07,10.27-54.07l17.8,58.18,2.74,21.95h79.4s.68-34.27-3.42-54.12c-4.11-19.85-16.43-114.99-16.43-114.99l-3.42-30.12-167.7,17.8Z"/>
        <path class="st1" d="M269.85,564.25h-80.33l-2.79-22.39-17.17-56.12c-1.62,8.98-8.12,44.93-9.91,52.07-2.01,8.04-.46,24.78-.44,24.95l.05.55H55.66l10.59-27.76c-.04-2.43-.82-48.75-4.79-77.19-4.08-29.24,16.26-75.78,16.47-76.25l.12-.27.29-.03,168.19-17.85,3.48,30.61c.12.94,12.36,95.34,16.42,114.95,4.07,19.68,3.44,53.89,3.43,54.23v.49ZM190.4,563.25h78.47c.06-4.26.36-35.23-3.42-53.52-4.06-19.64-16.31-114.08-16.43-115.03l-3.37-29.63-166.92,17.71c-1.65,3.82-20.16,47.63-16.28,75.44,4.06,29.13,4.79,76.93,4.8,77.41v.1s-10.14,26.58-10.14,26.58h101.05c-.26-3.02-1.35-17.27.52-24.74,2.03-8.1,10.18-53.58,10.26-54.04l.36-2.04,18.4,60.16,2.7,21.59Z"/>
      </g>
      <path class="st1" d="M73.81,558.2c-.09,0-.17-.03-.25-.07-.41-.17-.58-.61-.07-2.25l.92.29c.83-1.31,2.46-4.19,5.6-10.48,7.5-15.01,2.7-64.69-.16-94.38-.51-5.27-.95-9.82-1.26-13.51-1.07-12.84,3.67-26.57,7.83-35.84,4.5-10.02,9.32-17.12,9.37-17.19l.83.56c-.19.28-19.04,28.2-17.03,52.38.31,3.68.75,8.23,1.25,13.49,2.88,29.79,7.7,79.66.06,94.92-5.38,10.76-6.5,12.07-7.09,12.07Z"/>
      <path class="st1" d="M174.87,464.28l-28.85-8.24.27-.96,28.64,8.18c1.83-.28,26.54-4.13,35.95-10.85l.58.81c-9.92,7.09-35.42,10.88-36.5,11.04l-.11.02Z"/>
      <path class="st1" d="M81.89,419.09l-.16-.99c.39-.06,38.91-6.39,50.97-29.17l.88.47c-12.3,23.22-51.31,29.63-51.7,29.69Z"/>
      <polygon class="st1" points="217.83 417.09 202.51 415.63 199.05 378.94 200.04 378.85 203.43 414.72 216.85 416 217.53 377.52 218.53 377.54 217.83 417.09"/>
      <path class="st1" d="M201.79,563.8c-.08-.87-2.05-21.38-1.36-24.17.29-2.39-15.38-46.57-26-75.69l.94-.34c2.74,7.51,26.73,73.47,26.03,76.27-.54,2.18.81,17.94,1.38,23.83l-1,.1Z"/>
      <g>
        <line class="st4" x1="169.43" y1="464.46" x2="169.43" y2="483.62"/>
        <rect class="st1" x="168.93" y="464.46" width="1" height="19.17"/>
      </g>
      <g>
        <line class="st4" x1="181.07" y1="462.58" x2="217.77" y2="412.75"/>
        <rect class="st1" x="168.48" y="437.17" width="61.88" height="1" transform="translate(-271.23 338.64) rotate(-53.62)"/>
      </g>
      <g>
        <line class="st4" x1="182.43" y1="431.6" x2="163.95" y2="460.35"/>
        <rect class="st1" x="156.11" y="445.48" width="34.18" height="1" transform="translate(-295.57 350.31) rotate(-57.24)"/>
      </g>
    </g>
    <g>
      <g>
        <polygon class="st8" points="249.17 665.02 262.9 660.65 262.9 589.53 248.55 589.53 249.17 665.02"/>
        <path class="st1" d="M248.68,665.7l-.63-76.67h15.35v71.99l-14.72,4.68ZM249.05,590.03l.61,74.31,12.73-4.05v-70.26h-13.35Z"/>
      </g>
      <g>
        <polygon class="st8" points="463.17 464.75 312.81 490.95 235.45 439.17 378.94 416.08 463.17 464.75"/>
        <path class="st1" d="M312.7,491.48l-.17-.11-78.42-52.49,144.93-23.31.15.09,85.42,49.35-151.91,26.48ZM236.78,439.46l76.14,50.96,148.81-25.93-82.88-47.89-142.07,22.85Z"/>
      </g>
      <g>
        <polygon class="st19" points="316.55 710.56 304.08 703.07 304.08 647.55 249.17 604.5 249.17 665.02 236.69 655.66 239.81 451.02 319.67 500.31 316.55 710.56"/>
        <path class="st1" d="M317.04,711.44l-13.46-8.08v-55.57l-53.9-42.26v60.49l-13.48-10.11,3.14-205.77,80.85,49.9v.28s-3.14,211.12-3.14,211.12ZM304.58,702.79l11.49,6.89,3.1-209.1-78.87-48.68-3.1,203.5,11.47,8.61v-60.55l55.9,43.83v55.49Z"/>
      </g>
      <g>
        <polygon class="st19" points="235.45 439.17 235.13 454.45 310.94 505.92 312.81 490.95 235.45 439.17"/>
        <path class="st1" d="M311.33,506.8l-.68-.46-76.03-51.62.34-16.47,78.38,52.46-2.01,16.09ZM235.64,454.19l74.9,50.86,1.73-13.86-76.35-51.1-.29,14.1Z"/>
      </g>
      <g>
        <polyline class="st19" points="438.84 682.49 426.36 673.13 426.36 608.24 440.4 622.28"/>
        <polygon class="st1" points="438.54 682.89 425.86 673.38 425.86 607.03 440.75 621.93 440.04 622.63 426.86 609.45 426.86 672.88 439.14 682.09 438.54 682.89"/>
      </g>
      <g>
        <polygon class="st8" points="315.31 496.56 315.31 710.08 332.15 705.71 331.53 650.04 438.84 628.83 438.84 683.11 452.56 679.37 452.56 471.61 315.31 496.56"/>
        <path class="st1" d="M314.81,710.72v-214.58l.41-.08,137.85-25.06v208.74l-14.73,4.02v-54.33l-106.31,21.01.62,55.64-17.85,4.63ZM315.81,496.98v212.45l15.84-4.11-.62-55.69.41-.08,107.91-21.33v54.23l12.73-3.47v-206.78l-136.26,24.77Z"/>
      </g>
      <g>
        <polygon class="st19" points="463.17 464.75 463.17 479.1 310.94 505.92 310.94 490.95 463.17 464.75"/>
        <path class="st1" d="M310.44,506.52v-15.99l.42-.07,152.82-26.3v15.36l-.41.07-152.82,26.93ZM311.44,491.37v13.96l151.23-26.65v-13.34l-151.23,26.03Z"/>
      </g>
      <g>
        <polygon class="st8" points="306.26 567.06 306.26 517.15 248.55 479.72 248.55 527.45 306.26 567.06"/>
        <path class="st1" d="M306.76,568.02l-58.71-40.3v-48.91l.77.5,57.94,37.58v51.13ZM249.05,527.18l56.71,38.93v-48.69l-56.71-36.79v46.54Z"/>
      </g>
      <g>
        <g>
          <path class="st19" d="M274.95,526.87l-6.11-.09c-2.46-.03-4.42-1.88-4.39-4.12h0c.03-2.24,2.05-4.03,4.5-3.99l6.11.09c2.46.03,4.42,1.88,4.39,4.12h0c-.03,2.24-2.05,4.03-4.5,3.99Z"/>
          <path class="st1" d="M275.01,527.37s-.05,0-.08,0l-6.11-.08c-1.31-.02-2.54-.5-3.46-1.37-.93-.88-1.44-2.03-1.42-3.26.04-2.51,2.32-4.49,5.01-4.49l6.12.09c1.31.02,2.54.5,3.46,1.37.93.88,1.44,2.03,1.42,3.26s-.55,2.37-1.51,3.22c-.93.82-2.14,1.27-3.42,1.27ZM268.87,519.17c-2.15,0-3.91,1.56-3.93,3.5-.01.94.38,1.83,1.1,2.51.74.69,1.73,1.08,2.79,1.1l6.11.08h.06c1.04,0,2.02-.36,2.76-1.02.74-.66,1.16-1.54,1.17-2.48s-.38-1.83-1.1-2.51c-.74-.69-1.73-1.08-2.79-1.1l-6.12-.09h-.06Z"/>
        </g>
        <g>
          <ellipse class="st19" cx="267.88" cy="522.64" rx="7.17" ry="9.98"/>
          <path class="st1" d="M267.88,533.12c-4.23,0-7.67-4.7-7.67-10.48s3.44-10.48,7.67-10.48,7.67,4.7,7.67,10.48-3.44,10.48-7.67,10.48ZM267.88,513.16c-3.68,0-6.67,4.25-6.67,9.48s2.99,9.48,6.67,9.48,6.67-4.25,6.67-9.48-2.99-9.48-6.67-9.48Z"/>
        </g>
      </g>
      <g>
        <polygon class="st8" points="306.26 632.4 306.26 582.49 248.55 540.24 248.55 587.97 306.26 632.4"/>
        <path class="st1" d="M306.76,633.42l-58.71-45.21v-48.96l58.71,42.98v51.18ZM249.05,587.72l56.71,43.67v-48.64l-56.71-41.52v46.5Z"/>
      </g>
      <g>
        <g>
          <path class="st19" d="M274.95,587.52l-6.11-.09c-2.46-.03-4.42-1.88-4.39-4.12h0c.03-2.24,2.05-4.03,4.5-3.99l6.11.09c2.46.03,4.42,1.88,4.39,4.12h0c-.03,2.24-2.05,4.03-4.5,3.99Z"/>
          <path class="st1" d="M275.01,588.02h-.08l-6.11-.09c-1.31-.02-2.54-.5-3.46-1.37-.93-.88-1.44-2.03-1.42-3.26.04-2.49,2.24-4.49,4.93-4.49h.08l6.12.08c1.31.02,2.54.5,3.46,1.37.93.88,1.44,2.03,1.42,3.26s-.55,2.37-1.51,3.22c-.93.82-2.14,1.27-3.42,1.27ZM274.95,587.02c1.11,0,2.07-.35,2.82-1.02.74-.66,1.16-1.54,1.17-2.48.01-.94-.38-1.83-1.1-2.51-.74-.69-1.73-1.08-2.79-1.1l-6.12-.08h-.06c-2.15,0-3.91,1.56-3.93,3.5-.01.94.38,1.83,1.1,2.51.74.69,1.73,1.08,2.79,1.1l6.11.09Z"/>
        </g>
        <g>
          <ellipse class="st19" cx="267.88" cy="583.3" rx="7.17" ry="9.98"/>
          <path class="st1" d="M267.88,593.78c-4.23,0-7.67-4.7-7.67-10.48s3.44-10.48,7.67-10.48,7.67,4.7,7.67,10.48-3.44,10.48-7.67,10.48ZM267.88,573.82c-3.68,0-6.67,4.25-6.67,9.48s2.99,9.48,6.67,9.48,6.67-4.25,6.67-9.48-2.99-9.48-6.67-9.48Z"/>
        </g>
      </g>
    </g>
    <g>
      <path class="st12" d="M301.58,430.72s-30.78-3.74-25.79,14.56c4.99,18.3,14.14,7.07,21.63,16.22s22.46,21.63,42.43,12.89c19.96-8.73,28.7-.83,45.34-3.33,16.64-2.5,14.56-7.07,24.96-9.57,10.4-2.5,14.56-4.99-3.74-16.64-18.3-11.65-38.68-23.29-38.68-23.29l-66.13,9.15Z"/>
      <path class="st1" d="M326.3,477.82c-8.62,0-19.08-3.56-29.26-16.01-2.92-3.56-6.13-3.9-9.24-4.23-4.64-.49-9.44-.99-12.49-12.18-1.12-4.1-.57-7.48,1.63-10.02,6.19-7.16,23.25-5.33,24.63-5.17l66.24-9.17.15.08c.2.12,20.6,11.79,38.7,23.3,9.46,6.02,13.3,9.78,12.83,12.58-.4,2.39-3.69,3.63-9.24,4.96-4.25,1.02-6.37,2.39-8.61,3.84-3.24,2.1-6.59,4.26-16.39,5.73-6.5.98-11.83.38-16.99-.2-8.28-.93-16.1-1.81-28.22,3.49-3.47,1.52-8.24,2.97-13.75,2.97ZM295.46,430.91c-5.75,0-14.04.82-17.77,5.13-1.97,2.28-2.45,5.34-1.42,9.1,2.87,10.52,6.93,10.95,11.63,11.45,3.31.35,6.73.71,9.91,4.59,6.99,8.54,21.72,21.55,41.84,12.75,12.37-5.41,20.31-4.52,28.73-3.57,5.09.57,10.36,1.16,16.73.21,9.59-1.44,12.85-3.55,16-5.59,2.31-1.5,4.5-2.91,8.92-3.97,4.87-1.17,8.18-2.32,8.48-4.16.38-2.25-3.67-6.03-12.38-11.57-17.27-10.99-36.63-22.12-38.51-23.2l-66.03,9.14h-.06c-.07-.02-2.6-.31-6.06-.31Z"/>
    </g>
    <g>
      <path class="st3" d="M156.37,384.26s-11.23,4.99-24.33,24.33c-13.1,19.34-21.21,28.08-16.22,36.81,4.99,8.73,29.95,24.96,40.55,23.08s24.33-31.82,27.45-36.19c3.12-4.37,8.73-29.32,4.99-36.19-3.74-6.86-32.44-11.85-32.44-11.85Z"/>
      <path class="st1" d="M154.58,469.13c-11.62,0-34.49-15.23-39.2-23.48-4.38-7.66.93-15.27,10.55-29.09,1.76-2.52,3.66-5.26,5.69-8.25,13.03-19.24,24.08-24.3,24.54-24.51l.14-.06.15.03c1.18.21,28.98,5.11,32.8,12.11,3.93,7.21-2.07,32.58-5.02,36.72-.66.92-1.85,3.09-3.35,5.84-5.55,10.15-15.88,29.04-24.42,30.55-.58.1-1.21.15-1.87.15ZM156.44,384.78c-1.3.64-11.9,6.24-23.99,24.09-2.03,2.99-3.94,5.73-5.69,8.26-9.39,13.49-14.57,20.92-10.51,28.02,2.36,4.13,9.59,10.3,17.99,15.34,9.19,5.51,17.42,8.31,22.04,7.5,8.07-1.42,18.25-20.04,23.72-30.04,1.58-2.89,2.72-4.97,3.41-5.94,2.81-3.94,8.64-28.9,4.96-35.66-3.45-6.32-29.66-11.16-31.93-11.57Z"/>
    </g>
    <g>
      <path class="st6" d="M67.15,301.6s-59.89,95.46,54.9,111.05c0,0,2.5,12.48,14.35,16.22,17.9,5.65,34.63,17.16,42.63,13.93,1.64-1.56,1.66-5.2,1.04-7.07,0,0,4.13,3.36,7.49,0,3.54-3.54,1.25-8.11,1.25-8.11,0,0,3.74,3.74,8.73-1.87s-1.87-13.41-1.87-13.41c0,0,2.96,2.86,7.49,6.55,4.52,3.69,11.5,8.55,16.85,4.99,5.62-3.74,2.76-9.86-.94-14.35-7.71-9.36-13.41-17.31-24.33-24.49-55.41-36.41-29.64-46.01-29.64-46.01l-29.32-16.85-68.63-20.59Z"/>
      <path class="st1" d="M175.83,443.86c-5.24,0-12.47-3.24-20.6-6.88-5.8-2.6-12.38-5.54-18.99-7.63-10.87-3.43-14.08-14.17-14.61-16.25-34.39-4.73-56.5-17.14-65.74-36.88-15.27-32.64,10.56-74.47,10.82-74.89l.2-.32,69.1,20.74,30.24,17.37-.99.37c-.05.02-5.03,1.95-5.61,7.13-.7,6.28,4.86,17.97,35.34,38,9.57,6.29,15.12,13.12,21.54,21.03.95,1.16,1.91,2.35,2.91,3.56,2.19,2.65,4.68,6.58,4.14,10.24-.29,1.94-1.4,3.57-3.31,4.84-5.57,3.71-12.62-1.09-17.44-5.02-1.78-1.45-3.32-2.78-4.54-3.86,1.51,2.92,2.71,7.19-.38,10.67-1.87,2.11-3.81,3.2-5.75,3.26-.99.02-1.8-.22-2.42-.5.44,1.74.66,4.75-1.84,7.25-2.56,2.56-5.52,1.55-7.08.72.32,2.09.03,4.94-1.46,6.36l-.16.1c-1.01.41-2.14.59-3.39.59ZM67.38,302.19c-2.37,3.95-24.9,42.98-10.57,73.61,9.11,19.47,31.09,31.7,65.31,36.35l.35.05.07.35c.02.12,2.59,12.24,14.01,15.84,6.66,2.1,13.27,5.06,19.09,7.67,9.79,4.38,18.25,8.18,23.11,6.31,1.37-1.41,1.42-4.75.84-6.48l-.54-1.62,1.33,1.08c.15.12,3.82,3.03,6.82.03,3.24-3.24,1.18-7.49,1.15-7.53l-1.38-2.76,2.18,2.18s1.21,1.13,2.99,1.07c1.65-.06,3.34-1.04,5.01-2.92,4.64-5.22-1.81-12.68-1.87-12.75l.72-.69s3,2.89,7.46,6.52c4.57,3.73,11.23,8.31,16.25,4.96,1.66-1.11,2.63-2.51,2.88-4.16.49-3.29-1.86-6.96-3.92-9.46-1-1.21-1.96-2.4-2.91-3.57-6.37-7.84-11.87-14.62-21.31-20.82-17.06-11.21-37.12-27.08-35.78-38.96.5-4.41,3.73-6.66,5.34-7.52l-28.44-16.34-68.2-20.46Z"/>
    </g>
    <g>
      <path class="st6" d="M179.92,435.91s-.31-11.23-27.14-20.59"/>
      <path class="st1" d="M179.42,435.92c0-.11-.72-11.03-26.8-20.13l.33-.94c26.84,9.36,27.46,20.57,27.48,21.05l-1,.03Z"/>
    </g>
    <g>
      <path class="st6" d="M188.97,428.11s-.31-12.79-28.39-25.27"/>
      <path class="st1" d="M188.47,428.12c0-.13-.72-12.66-28.09-24.83l.41-.91c28.04,12.46,28.67,25.18,28.68,25.71l-1,.03Z"/>
    </g>
    <g>
      <path class="st6" d="M198.95,418.13s-7.49-17.16-29.64-26.83"/>
      <path class="st1" d="M198.49,418.33c-.07-.17-7.68-17.1-29.38-26.57l.4-.92c11.53,5.03,19.04,12.12,23.3,17.18,4.63,5.49,6.51,9.73,6.59,9.91l-.92.4Z"/>
    </g>
    <g>
      <path class="st14" d="M216.89,422.48c3.33,3.12,7.95-1.35,7.33-4.06-.62-2.7-2.91-7.95-6.45-5.67-6.45,4.16-3.39,7.38-.88,9.72Z"/>
      <path class="st1" d="M219.43,424.05c-1.04,0-2.04-.4-2.89-1.2-1.68-1.57-3.3-3.29-3.1-5.45.16-1.74,1.48-3.39,4.06-5.06,1.06-.68,2.11-.82,3.12-.41,2.27.92,3.63,4.45,4.08,6.39.39,1.68-.88,3.9-2.88,5.05-.8.46-1.61.69-2.39.69ZM219.47,412.69c-.46,0-.93.16-1.43.48-2.27,1.46-3.48,2.91-3.61,4.31-.16,1.71,1.29,3.23,2.79,4.63h0c1.58,1.48,3.25.87,4.1.38,1.58-.91,2.68-2.72,2.4-3.96-.38-1.63-1.59-4.92-3.48-5.69-.25-.1-.51-.16-.77-.16Z"/>
    </g>
    <g>
      <path class="st6" d="M267.62,339.59s26.2,54.28,26.83,69.88c0,0-10.61,14.35-6.86,25.58,3.74,11.23,18.09,24.33,25.58,18.72,7.49-5.62-1.25-12.48-1.25-12.48,0,0,11.85,10.61,14.97,14.35,3.12,3.74,8.73,18.09,21.21,8.11,0,0,13.31,4.78,15.6-3.12,0,0,7.07,2.91,10.61-8.11,0,0,10.81.42,6.24-16.85-3-11.33-34.31-36.19-34.31-36.19,0,0-3.54-52.41-29.95-97.33"/>
      <path class="st1" d="M339.95,467.71c-.47,0-.92-.04-1.38-.11-4.96-.81-8.21-5.86-10.37-9.2-.65-1-1.21-1.87-1.69-2.45-1.83-2.2-6.76-6.84-10.46-10.24.4.91.66,1.9.65,2.94-.02,2.06-1.11,3.91-3.23,5.5-2.05,1.54-4.75,1.85-7.8.9-7.22-2.26-15.72-11.35-18.56-19.86-3.62-10.87,5.66-24.26,6.83-25.89-.8-15.54-26.51-68.97-26.77-69.51l.9-.43c1.07,2.22,26.26,54.55,26.88,70.07v.18s-.1.14-.1.14c-.1.14-10.41,14.27-6.79,25.12,2.75,8.24,10.95,17.05,17.91,19.22,2.77.86,5.09.61,6.9-.74,1.86-1.39,2.81-2.98,2.83-4.71.03-2.62-2.04-5.04-3.25-6.21-.53-.48-.85-.76-.86-.78l.64-.77c.05.04.45.36.99.89,2.91,2.63,11.44,10.39,14.05,13.53.52.63,1.1,1.52,1.76,2.55,2.18,3.38,5.18,8.02,9.69,8.75,2.75.45,5.8-.65,9.06-3.26l.22-.17.26.09c.08.03,7.84,2.77,12.26.51,1.35-.69,2.26-1.8,2.69-3.3l.15-.53.51.21s2.15.84,4.54-.28c2.34-1.09,4.15-3.63,5.4-7.52l.12-.36h.38s3.04.09,5.03-2.41c2.17-2.73,2.41-7.37.71-13.79-2.93-11.04-33.83-35.67-34.14-35.92l-.17-.14v-.22c-.05-.52-3.85-52.81-29.89-97.11l.86-.51c25.3,43.03,29.7,93.55,30,97.33,2.76,2.2,31.39,25.27,34.32,36.31,1.79,6.76,1.49,11.7-.9,14.68-1.89,2.36-4.48,2.73-5.46,2.78-1.34,3.99-3.31,6.62-5.84,7.79-2.07.96-3.94.68-4.81.45-.56,1.53-1.58,2.68-3.04,3.43-4.37,2.23-11.32.11-12.78-.37-2.89,2.27-5.66,3.41-8.25,3.41Z"/>
    </g>
    <g>
      <path class="st6" d="M301.73,427.56s.42,4.99,10.19,13.73"/>
      <path class="st1" d="M311.58,441.66c-9.81-8.77-10.34-13.85-10.36-14.06l1-.08-.5.04.5-.04s.58,4.96,10.03,13.4l-.67.75Z"/>
    </g>
    <g>
      <path class="st6" d="M358.92,422.57s17.05,18.92,15.39,29.95"/>
      <path class="st1" d="M374.8,452.59l-.99-.15c1.61-10.66-15.1-29.35-15.27-29.54l.74-.67c.7.78,17.19,19.23,15.51,30.36Z"/>
    </g>
    <g>
      <g>
        <path class="st6" d="M241.98,219.41s-17.57,20.99,7.3,23.5c24.87,2.51,24.19,33.31,24.19,33.31l-74.61,50.65-29.43-73.24s-14.15-17.8,4.56-18.48,11.86-19.85,24.87-24.64c13.01-4.79,43.12,8.9,43.12,8.9Z"/>
        <path class="st1" d="M198.63,327.64l-29.64-73.75c-.67-.86-7.13-9.35-4.61-14.84,1.25-2.73,4.48-4.2,9.59-4.39,10.2-.37,12.51-6.28,14.95-12.54,1.9-4.87,3.87-9.9,9.76-12.07,13.04-4.81,42.27,8.35,43.5,8.91l.6.27-.42.5c-.08.1-8.06,9.75-5.34,16.4,1.42,3.49,5.56,5.6,12.31,6.28,25.04,2.53,24.64,33.51,24.64,33.82v.26s-75.34,51.15-75.34,51.15ZM205.63,210c-2.47,0-4.72.29-6.6.99-5.48,2.02-7.27,6.62-9.18,11.5-2.45,6.28-4.99,12.78-15.85,13.18-4.7.17-7.63,1.45-8.71,3.81-2.35,5.11,4.46,13.77,4.53,13.86l.07.12,29.2,72.66,73.88-50.16c-.02-2.94-.81-30.23-23.74-32.55-7.15-.72-11.57-3.04-13.14-6.9-2.59-6.36,3.41-14.74,5.09-16.9-3.58-1.56-22.63-9.61-35.56-9.61Z"/>
      </g>
      <g>
        <path class="st12" d="M156.65,300.87c-4.11,17.34-30,39.81-30,39.81-10.04-17.8-67.08-37.42-67.08-37.42,6.84-14.6,30.92-39.13,48.26-53.73,17.34-14.6,66.17-14.37,66.17-14.37-.46,42.89,12.15,71.19,43.35,71.19s25.18-27.99,27.46-64.95c0,0,29.79-1.04,51.94,17.72,13.29,11.26,22.82,32.06,32.4,60.46,0,0-34.22,6.84-60.23,28.75l-.91-5.48c-5.48,11.41-.46,30.12-6.39,31.03-5.93.91-41.07,17.8-90.35,6.39,0,0-79.15-20.65-46.49-42.52"/>
        <path class="st1" d="M205.46,384.71c-11.46,0-22.94-1.32-34.31-3.95-2.13-.55-51.81-13.7-54.65-30.49-.74-4.37,1.76-8.59,7.43-12.54-14.21-16.54-63.98-33.8-64.51-33.98l-.53-.18.24-.5c6.62-14.12,29.87-38.31,48.39-53.9,17.28-14.55,64.48-14.49,66.49-14.49h.5s0,.51,0,.51c-.31,28.76,5.21,49.08,16.39,60.38,6.76,6.84,15.67,10.3,26.46,10.3,25.22,0,25.64-18.25,26.28-45.87.14-5.94.28-12.09.68-18.61l.03-.45.45-.02c.3,0,30.24-.83,52.28,17.84,11.85,10.04,21.59,28.19,32.55,60.68l.18.54-.56.11c-.34.07-34.4,7.08-60.01,28.64l-.67.56-.78-4.66c-1.97,5.16-2.14,11.46-2.29,17.07-.18,6.79-.33,12.15-3.81,12.69-.92.14-2.65.71-5.05,1.5-6.48,2.13-17.32,5.69-31.94,7.59-6.39.83-12.81,1.25-19.24,1.25ZM124.56,338.49c-5.37,3.73-7.75,7.63-7.08,11.6,2.73,16.16,53.39,29.55,53.9,29.69,41.13,9.52,71.83-.56,84.94-4.86,2.44-.8,4.21-1.38,5.21-1.54,2.65-.41,2.79-5.65,2.96-11.73.16-5.98.36-13.42,3.05-19.02l.68-1.42,1.03,6.17c23.92-19.79,54.73-27.18,59.23-28.18-10.83-31.98-20.43-49.85-32.07-59.71-20.26-17.16-47.34-17.63-51.14-17.61-.38,6.33-.52,12.32-.65,18.11-.63,27.2-1.08,46.85-27.28,46.85-11.07,0-20.21-3.57-27.17-10.6-11.31-11.43-16.92-31.81-16.68-60.58-5.21.03-49.27.73-65.34,14.25-18.22,15.34-41.02,39.01-47.89,53.06,6.09,2.13,56.15,20.04,66.51,36.93,3.46-3.09,25.67-23.42,29.39-39.15l.97.23c-1.72,7.27-7.33,16.23-16.66,26.63-6.93,7.72-13.44,13.39-13.51,13.45l-.46.4-.3-.53c-.46-.81-1.01-1.62-1.66-2.44Z"/>
      </g>
      <g class="st16">
        <g>
          <g>
            <circle class="st11" cx="148.71" cy="299.16" r="20.01"/>
            <path class="st1" d="M148.71,319.67c-11.31,0-20.51-9.2-20.51-20.51s9.2-20.51,20.51-20.51,20.51,9.2,20.51,20.51-9.2,20.51-20.51,20.51ZM148.71,279.64c-10.76,0-19.51,8.75-19.51,19.51s8.75,19.51,19.51,19.51,19.51-8.75,19.51-19.51-8.75-19.51-19.51-19.51Z"/>
          </g>
          <g>
            <circle class="st11" cx="85.64" cy="269.87" r="20.01"/>
            <path class="st1" d="M85.64,290.39c-11.31,0-20.51-9.2-20.51-20.51s9.2-20.51,20.51-20.51,20.51,9.2,20.51,20.51-9.2,20.51-20.51,20.51ZM85.64,250.36c-10.76,0-19.51,8.75-19.51,19.51s8.75,19.51,19.51,19.51,19.51-8.75,19.51-19.51-8.75-19.51-19.51-19.51Z"/>
          </g>
          <g>
            <circle class="st11" cx="168.98" cy="363.35" r="20.01"/>
            <path class="st1" d="M168.98,383.87c-11.31,0-20.51-9.2-20.51-20.51s9.2-20.51,20.51-20.51,20.51,9.2,20.51,20.51-9.2,20.51-20.51,20.51ZM168.98,343.84c-10.76,0-19.51,8.75-19.51,19.51s8.75,19.51,19.51,19.51,19.51-8.75,19.51-19.51-8.75-19.51-19.51-19.51Z"/>
          </g>
          <g>
            <circle class="st11" cx="255.7" cy="366.73" r="20.01"/>
            <path class="st1" d="M255.7,387.25c-11.31,0-20.51-9.2-20.51-20.51s9.2-20.51,20.51-20.51,20.51,9.2,20.51,20.51-9.2,20.51-20.51,20.51ZM255.7,347.22c-10.76,0-19.51,8.75-19.51,19.51s8.75,19.51,19.51,19.51,19.51-8.75,19.51-19.51-8.75-19.51-19.51-19.51Z"/>
          </g>
          <g>
            <circle class="st11" cx="246.69" cy="292.4" r="20.01"/>
            <path class="st1" d="M246.69,312.91c-11.31,0-20.51-9.2-20.51-20.51s9.2-20.51,20.51-20.51,20.51,9.2,20.51,20.51-9.2,20.51-20.51,20.51ZM246.69,272.88c-10.76,0-19.51,8.75-19.51,19.51s8.75,19.51,19.51,19.51,19.51-8.75,19.51-19.51-8.75-19.51-19.51-19.51Z"/>
          </g>
          <g>
            <circle class="st11" cx="321.02" cy="309.29" r="20.01"/>
            <path class="st1" d="M321.02,329.81c-11.31,0-20.51-9.2-20.51-20.51s9.2-20.51,20.51-20.51,20.51,9.2,20.51,20.51-9.2,20.51-20.51,20.51ZM321.02,289.78c-10.76,0-19.51,8.75-19.51,19.51s8.75,19.51,19.51,19.51,19.51-8.75,19.51-19.51-8.75-19.51-19.51-19.51Z"/>
          </g>
        </g>
      </g>
      <path class="st1" d="M205.46,384.71c-11.46,0-22.94-1.32-34.31-3.95-2.13-.55-51.81-13.7-54.65-30.49-.74-4.37,1.76-8.59,7.43-12.54-14.21-16.54-63.98-33.8-64.51-33.98l-.53-.18.24-.5c6.62-14.12,29.87-38.31,48.39-53.9,17.28-14.55,64.48-14.49,66.49-14.49h.5s0,.51,0,.51c-.31,28.76,5.21,49.08,16.39,60.38,6.76,6.84,15.67,10.3,26.46,10.3,25.22,0,25.64-18.25,26.28-45.87.14-5.94.28-12.09.68-18.61l.03-.45.45-.02c.3,0,30.24-.83,52.28,17.84,11.85,10.04,21.59,28.19,32.55,60.68l.18.54-.56.11c-.34.07-34.4,7.08-60.01,28.64l-.67.56-.78-4.66c-1.97,5.16-2.14,11.46-2.29,17.07-.18,6.79-.33,12.15-3.81,12.69-.92.14-2.65.71-5.05,1.5-6.48,2.13-17.32,5.69-31.94,7.59-6.39.83-12.81,1.25-19.24,1.25ZM124.56,338.49c-5.37,3.73-7.75,7.63-7.08,11.6,2.73,16.16,53.39,29.55,53.9,29.69,41.13,9.52,71.83-.56,84.94-4.86,2.44-.8,4.21-1.38,5.21-1.54,2.65-.41,2.79-5.65,2.96-11.73.16-5.98.36-13.42,3.05-19.02l.68-1.42,1.03,6.17c23.92-19.79,54.73-27.18,59.23-28.18-10.83-31.98-20.43-49.85-32.07-59.71-20.26-17.16-47.34-17.63-51.14-17.61-.38,6.33-.52,12.32-.65,18.11-.63,27.2-1.08,46.85-27.28,46.85-11.07,0-20.21-3.57-27.17-10.6-11.31-11.43-16.92-31.81-16.68-60.58-5.21.03-49.27.73-65.34,14.25-18.22,15.34-41.02,39.01-47.89,53.06,6.09,2.13,56.15,20.04,66.51,36.93,3.46-3.09,25.67-23.42,29.39-39.15l.97.23c-1.72,7.27-7.33,16.23-16.66,26.63-6.93,7.72-13.44,13.39-13.51,13.45l-.46.4-.3-.53c-.46-.81-1.01-1.62-1.66-2.44Z"/>
    </g>
    <g>
      <path class="st6" d="M153.09,375.53s28.49-5.41,51.37,17.26"/>
      <path class="st1" d="M204.11,393.14c-22.43-22.23-50.64-17.18-50.92-17.12l-.19-.98c.29-.05,29.01-5.2,51.81,17.4l-.7.71Z"/>
    </g>
    <g>
      <path class="st7" d="M278.26,303.6c-2.74,21.9-6.84,28.06-10.27,39.24"/>
      <path class="st1" d="M268.47,342.99l-.96-.29c.9-2.93,1.86-5.57,2.79-8.13,2.67-7.33,5.44-14.9,7.46-31.03l.99.12c-2.03,16.24-4.81,23.87-7.51,31.25-.97,2.66-1.89,5.17-2.78,8.08Z"/>
    </g>
    <polygon class="st1" points="206.04 549.71 205.37 548.96 211.49 543.46 191.59 539.19 221.28 528.33 221.62 529.27 195.18 538.94 213.61 542.89 206.04 549.71"/>
    <polygon class="st1" points="104.75 544.36 71.55 544.36 71.55 543.36 98.58 543.36 72.76 534.75 73.08 533.8 104.75 544.36"/>
    <g>
      <g>
        <g>
          <path class="st22" d="M228.23,140.1s12.55-4.77,9.21-16.94-11.43-6.99-11.43-6.99c0,0,7.6-9.13-3.3-15.22-8.59-4.8-14.66,4.67-14.66,4.67,0,0-5.26-12.99-19.5-5.31-14.24,7.68-2.14,17.9-2.14,17.9,0,0-12.19-.63-11.76,9.86.43,10.49,12.59,10.65,12.59,10.65,0,0-5.61,3.14,1.68,8.07,15.14,10.26,39.31-6.7,39.31-6.7Z"/>
          <path class="st1" d="M200.55,150.58c-4.58,0-8.6-1.12-11.91-3.36-2.7-1.83-4.03-3.67-3.96-5.47.05-1.15.67-2.04,1.25-2.62-3.24-.4-11.43-2.29-11.79-11.02-.12-2.97.72-5.37,2.51-7.14,2.61-2.58,6.52-3.13,8.52-3.23-1.54-1.59-4.44-5.18-4.02-9.3.34-3.3,2.75-6.18,7.15-8.55,4.68-2.53,8.93-3.13,12.61-1.81,4.16,1.5,6.39,5.01,7.22,6.58,1.68-2.16,7.36-8.29,14.82-4.13,3.44,1.92,5.46,4.35,5.99,7.22.55,2.95-.6,5.65-1.53,7.25,1.22-.4,2.97-.69,4.79,0,2.6,1,4.53,3.7,5.72,8.03,3.3,12.03-8.49,17.13-9.45,17.52-.6.41-6.51,4.42-14.04,7.22-5.03,1.88-9.69,2.81-13.88,2.81ZM186.06,118.71c-1.27,0-5.91.2-8.7,2.96-1.58,1.56-2.32,3.71-2.21,6.39.17,4.13,2.23,7.1,6.13,8.81,2.97,1.3,5.94,1.36,5.97,1.36l1.84.03-1.6.91s-1.74,1-1.8,2.63c-.06,1.41,1.16,3,3.52,4.6,14.68,9.95,38.5-6.53,38.74-6.69l.11-.06s3.09-1.2,5.71-3.82c3.46-3.46,4.53-7.68,3.2-12.53-1.1-4.01-2.82-6.49-5.11-7.37-2.8-1.07-5.54.65-5.56.67l-2.71,1.74,2.06-2.48s3.11-3.81,2.34-7.94c-.48-2.56-2.33-4.75-5.5-6.52-8.07-4.51-13.76,4.13-14,4.5l-.52.81-.36-.89c-.02-.05-2.11-5.05-7.01-6.81-3.4-1.22-7.37-.63-11.79,1.75-4.09,2.21-6.33,4.82-6.63,7.77-.51,4.93,4.53,9.26,4.58,9.3l1.13.96-1.48-.07s-.13,0-.33,0Z"/>
        </g>
        <g>
          <path class="st7" d="M232.86,141.66s-.33-14.18-25.4-7.59c-18.9,4.97-16.49,20.12-16.49,20.12l41.89-12.53Z"/>
          <path class="st1" d="M190.56,154.83l-.09-.56c-.02-.16-2.25-15.65,16.86-20.68,10.17-2.68,17.6-2.33,22.07,1.04,3.81,2.87,3.95,6.85,3.95,7.02v.38s-42.8,12.81-42.8,12.81ZM219.16,132.83c-3.33,0-7.21.57-11.57,1.72-16.17,4.26-16.36,16.22-16.18,18.98l40.92-12.24c-.13-1-.75-3.8-3.54-5.88-2.29-1.72-5.55-2.58-9.63-2.58Z"/>
        </g>
        <g>
          <path class="st23" d="M255.78,218.51c0-2.64.18-9.57,9.09-9.57s8.43,7.39,8.25,11.69-4.14,8.43-11.07,6.78c-6.93-1.65-6.27-6.27-6.27-8.91Z"/>
          <path class="st5" d="M265.07,228.3c-.94,0-1.98-.12-3.13-.39-6.79-1.62-6.71-6.09-6.66-8.76,0-.22,0-.43,0-.63,0-6.68,3.23-10.07,9.59-10.07,2.9,0,5.1.77,6.57,2.3,2.49,2.6,2.31,6.86,2.19,9.68v.23c-.11,2.35-1.24,4.51-3.1,5.91-1.13.86-2.91,1.72-5.47,1.72ZM264.87,209.45c-7.7,0-8.59,5.17-8.59,9.07,0,.2,0,.42,0,.65-.05,2.68-.11,6.34,5.89,7.77,3.92.94,6.38-.11,7.76-1.15,1.62-1.23,2.6-3.11,2.69-5.16v-.23c.13-2.81.3-6.65-1.9-8.95-1.27-1.32-3.23-1.99-5.84-1.99Z"/>
        </g>
        <g>
          <path class="st1" d="M237.48,233.69s6.27,4.29,3.96,7.92c-2.31,3.63-23.09,5.94-37.93-11.54l33.98,3.63Z"/>
          <path d="M232.11,237.89c-12.11,0-22.5-3.83-24.5-5.23l.57-.82c2.85,1.99,23.37,9.08,40.96,1.96,12.75-5.16,20.9-16.52,24.23-33.76,4.81-24.89-4.92-39.67-13.93-47.69-13.37-11.9-34.99-16.76-51.39-11.55-13.12,4.17-22.99,14.37-27.06,28-5.22,17.49-.41,37.13,13.22,53.89l-.78.63c-13.84-17.02-18.73-36.99-13.41-54.8,4.17-13.95,14.27-24.4,27.71-28.67,16.99-5.39,38.52-.56,52.36,11.76,9.21,8.19,19.15,23.28,14.25,48.63-3.4,17.59-11.76,29.2-24.84,34.49-5.72,2.32-11.75,3.15-17.42,3.15Z"/>
          <g>
            <path class="st6" d="M193.83,223.02c-26.83-32.99-16.18-73.08,14.07-82.68,27.71-8.8,75.65,9.76,65.97,59.81-10.12,52.34-61.57,35.18-65.97,32.11"/>
            <path class="st1" d="M232.11,237.89c-12.11,0-22.5-3.83-24.5-5.23l.57-.82c2.85,1.99,23.37,9.08,40.96,1.96,12.75-5.16,20.9-16.52,24.23-33.76,4.81-24.89-4.92-39.67-13.93-47.69-13.37-11.9-34.99-16.76-51.39-11.55-13.12,4.17-22.99,14.37-27.06,28-5.22,17.49-.41,37.13,13.22,53.89l-.78.63c-13.84-17.02-18.73-36.99-13.41-54.8,4.17-13.95,14.27-24.4,27.71-28.67,16.99-5.39,38.52-.56,52.36,11.76,9.21,8.19,19.15,23.28,14.25,48.63-3.4,17.59-11.76,29.2-24.84,34.49-5.72,2.32-11.75,3.15-17.42,3.15Z"/>
          </g>
          <g>
            <path class="st22" d="M208.15,140.45c-17.55,5.57-28.48,21.41-29.35,40.17,21.39,15.5,26.05-15.43,26.05-15.43,14.95,10.12,22.87-7.92,22.87-7.92,9.24,12.31,15.83,2.2,15.83,2.2,8.83,8.31,18.72,6.35,25.35,3.35-12.77-21.45-41.6-28.45-60.76-22.37Z"/>
            <path class="st1" d="M189.74,185.47c-3.39,0-7.16-1.48-11.24-4.44l-.22-.16v-.27c.91-19.53,12.29-35.09,29.71-40.62h0c19.37-6.15,48.33.74,61.34,22.59l.29.48-.51.23c-6.75,3.05-16.6,4.96-25.49-3.05-.84,1.07-3.15,3.55-6.54,3.66-3.14.11-6.21-1.8-9.27-5.66-1.11,2.16-4.73,8.31-10.84,10.08-3.72,1.08-7.67.31-11.76-2.28-.6,3.2-3.36,15.29-11.28,18.61-1.33.56-2.72.83-4.19.83ZM179.31,180.37c5.45,3.89,10.24,5.01,14.23,3.34,8.44-3.54,10.79-18.45,10.81-18.6l.12-.78.66.44c4.06,2.74,7.95,3.61,11.56,2.57,6.85-1.98,10.53-10.19,10.57-10.27l.34-.78.51.68c3.01,4.01,6.02,6,8.93,5.9,3.71-.12,6.06-3.64,6.09-3.68l.33-.5.43.41c8.37,7.87,17.73,6.32,24.29,3.48-12.89-21.05-41.02-27.65-59.89-21.66-16.93,5.37-28.02,20.47-28.99,39.44Z"/>
          </g>
          <g>
            <path class="st6" d="M184.37,205.65s-18.14,2.64-16.82-14.84c1.32-17.48,22.6-10.89,24.57-4.95"/>
            <path class="st1" d="M181.86,206.3c-2.92,0-7.72-.55-11.1-3.71-2.85-2.66-4.1-6.64-3.71-11.82.69-9.11,6.58-11.19,10.04-11.61,6.77-.84,14.31,2.96,15.51,6.55l-.95.32c-1.07-3.21-8.26-6.63-14.44-5.87-3.85.48-8.56,2.72-9.16,10.7-.37,4.86.78,8.57,3.4,11.01,4.73,4.41,12.78,3.31,12.86,3.3l.14.99c-.12.02-1.11.16-2.58.16Z"/>
          </g>
          <g>
            <path class="st6" d="M183.05,196.08s-3.63-6.27-8.25-7.92"/>
            <path class="st1" d="M182.62,196.33c-.04-.06-3.59-6.13-7.98-7.7l.34-.94c4.74,1.69,8.36,7.87,8.51,8.14l-.87.5Z"/>
          </g>
          <g>
            <path class="st1" d="M223.09,194.41s.06,2.82-.31,3.71c-.38.89.11,1.98,1.26,1.82s2.23-4.31,1.77-7.58c-.46-3.27-.83-3.55-2.6-3.13-1.77.42.13,3.31-.11,5.18Z"/>
            <path class="st1" d="M223.82,200.46c-.53,0-1-.22-1.3-.62-.39-.51-.47-1.27-.2-1.91.24-.57.3-2.45.27-3.5v-.04s0-.04,0-.04c.08-.62-.13-1.42-.33-2.2-.27-1.06-.53-2.07-.11-2.76.19-.32.51-.54.92-.63.73-.17,1.44-.29,2.01.09.68.46.93,1.48,1.21,3.45.46,3.28-.54,7.91-2.19,8.14-.1.01-.19.02-.28.02ZM223.59,194.44c0,.43.04,2.95-.35,3.88-.13.32-.11.69.07.91.14.19.36.26.66.22.6-.08,1.81-3.65,1.34-7.01-.21-1.48-.42-2.52-.78-2.77-.18-.12-.52-.11-1.21.05-.22.05-.28.14-.3.18-.2.34.02,1.22.22,2,.22.86.45,1.74.36,2.54Z"/>
          </g>
          <g>
            <path class="st1" d="M251.92,194.05s.06,2.82-.31,3.71.11,1.98,1.26,1.82,2.23-4.31,1.77-7.58c-.46-3.27-.83-3.55-2.6-3.13-1.77.42.13,3.31-.11,5.18Z"/>
            <path class="st1" d="M252.65,200.09c-.53,0-1-.22-1.3-.62-.39-.51-.47-1.27-.2-1.91.24-.57.3-2.45.27-3.5v-.04s0-.04,0-.04c.08-.62-.13-1.42-.33-2.2-.27-1.06-.53-2.07-.11-2.76.2-.32.51-.53.92-.63.73-.17,1.44-.29,2.01.09.68.46.93,1.48,1.2,3.45.22,1.56.11,3.48-.29,5.14-.26,1.06-.85,2.85-1.9,3-.1.01-.19.02-.28.02ZM252.42,194.07c0,.43.04,2.95-.35,3.88-.13.32-.11.69.07.92.14.19.36.26.66.22.14-.02.67-.59,1.07-2.25.37-1.54.48-3.32.27-4.77-.21-1.48-.42-2.52-.78-2.77-.18-.12-.52-.11-1.22.05-.22.05-.28.14-.3.18-.21.34.02,1.22.22,2,.22.86.45,1.74.36,2.54Z"/>
          </g>
        </g>
        <g>
          <path class="st23" d="M172.83,212.91c0-2.64.18-9.57,9.09-9.57,8.91,0,8.43,7.39,8.25,11.69s-4.14,8.43-11.07,6.78c-6.93-1.65-6.27-6.27-6.27-8.91Z"/>
          <path class="st5" d="M182.11,222.69c-.94,0-1.98-.12-3.13-.39-6.79-1.62-6.71-6.09-6.66-8.76,0-.22,0-.43,0-.63,0-6.68,3.23-10.07,9.59-10.07,2.9,0,5.11.77,6.57,2.3,2.49,2.6,2.31,6.86,2.19,9.69v.23c-.11,2.35-1.23,4.51-3.1,5.91-1.13.86-2.91,1.72-5.47,1.72ZM181.91,203.84c-7.7,0-8.59,5.17-8.59,9.07,0,.2,0,.42,0,.65-.05,2.68-.11,6.34,5.89,7.77,3.92.93,6.38-.11,7.76-1.16,1.62-1.23,2.6-3.11,2.69-5.16v-.23c.13-2.81.3-6.65-1.9-8.95-1.27-1.32-3.23-1.99-5.84-1.99Z"/>
        </g>
        <ellipse class="st2" cx="210.26" cy="200.87" rx="4.45" ry="6.6" transform="translate(-31.66 362.2) rotate(-77.39)"/>
        <ellipse class="st2" cx="264.69" cy="201.53" rx="4.45" ry="6.6" transform="translate(59.13 463.1) rotate(-89.12)"/>
      </g>
      <g>
        <path class="st1" d="M237.54,209.5l-.08-1s4.65-.39,5.99-2.9c.64-1.2.43-2.74-.62-4.58-1.05-1.86-2.4-2.92-3.99-3.17-3.34-.51-6.81,2.68-6.84,2.71l-.68-.73c.16-.15,3.84-3.55,7.67-2.97,1.91.29,3.5,1.52,4.71,3.66,1.23,2.16,1.44,4.03.63,5.55-1.6,3-6.58,3.41-6.8,3.43Z"/>
        <rect class="st1" x="214.23" y="187.4" width="14.35" height="1" transform="translate(-4.34 5.24) rotate(-1.34)"/>
        <rect class="st1" x="252.26" y="181.54" width="1" height="14.05" transform="translate(58.32 436.82) rotate(-88.66)"/>
        <path class="st1" d="M232.93,219.55l-.51-.86c4.94-2.9,11.26-2.89,11.55-2.89v1c-.08-.02-6.34-.01-11.05,2.75Z"/>
      </g>
    </g>
    <g>
      <path class="st6" d="M328.97,426.93c.62,0,19.55,18.72,19.13,36.81"/>
      <path class="st1" d="M348.6,463.75l-1-.02c.41-17.63-17.6-35.65-18.82-36.34l.18-.33v-.63c.19,0,.44,0,2.31,1.91,1.81,1.86,17.71,18.62,17.33,35.41Z"/>
    </g>
    <g>
      <path class="st6" d="M345.4,423.81s19.96,21.63,18.3,36.81"/>
      <path class="st1" d="M364.2,460.68l-.99-.11c1.62-14.78-17.97-36.2-18.17-36.42l.73-.68c.05.05,5.07,5.52,9.83,12.78,6.41,9.79,9.31,18.01,8.61,24.43Z"/>
    </g>
    <g>
      <path class="st14" d="M340.73,465.23c2.28,3.95,8,1.02,8.19-1.75.19-2.77-.48-8.45-4.52-7.29-7.38,2.11-5.38,6.08-3.67,9.05Z"/>
      <path class="st1" d="M343.98,467.65c-1.56,0-2.87-.76-3.68-2.17h0c-1.15-1.99-2.2-4.11-1.39-6.12.66-1.62,2.41-2.82,5.35-3.66,1.21-.35,2.26-.17,3.11.51,1.91,1.54,2.19,5.31,2.05,7.3-.12,1.72-1.97,3.48-4.22,4-.42.1-.83.15-1.22.15ZM341.17,464.98c1.08,1.87,2.86,1.78,3.81,1.55,1.78-.41,3.36-1.83,3.45-3.09.16-2.32-.3-5.33-1.68-6.45-.59-.48-1.31-.58-2.2-.33-2.59.74-4.17,1.77-4.7,3.07-.65,1.59.3,3.46,1.33,5.24h0Z"/>
    </g>
    <g>
      <path class="st14" d="M309.7,454.24c3.68,2.69,7.73-2.32,6.78-4.93s-3.86-7.53-7.09-4.83c-5.89,4.92-2.46,7.74.31,9.76Z"/>
      <path class="st1" d="M311.93,455.52c-.87,0-1.73-.29-2.53-.87h0c-1.86-1.35-3.68-2.86-3.75-5.03-.06-1.75,1.06-3.55,3.41-5.52.97-.81,2-1.08,3.05-.79,2.37.64,4.15,3.97,4.83,5.84.59,1.62-.39,3.98-2.24,5.36-.89.67-1.84,1.01-2.78,1.01ZM309.99,453.84c1.74,1.27,3.33.47,4.12-.13,1.46-1.1,2.33-3.03,1.9-4.22-.8-2.19-2.44-4.75-4.15-5.21-.73-.2-1.43,0-2.15.6-2.07,1.73-3.1,3.32-3.05,4.72.06,1.72,1.68,3.04,3.34,4.25h0Z"/>
    </g>
    <g>
      <path class="st14" d="M356.54,463.98c2.28,3.95,8,1.02,8.19-1.75.19-2.77-.48-8.45-4.52-7.29-7.38,2.11-5.38,6.08-3.67,9.05Z"/>
      <path class="st1" d="M359.79,466.4c-1.56,0-2.87-.76-3.68-2.17h0c-1.15-1.99-2.2-4.11-1.39-6.12.66-1.62,2.41-2.82,5.35-3.66,1.21-.35,2.26-.17,3.11.51,1.91,1.54,2.19,5.31,2.05,7.3-.12,1.72-1.97,3.48-4.22,4-.42.1-.83.15-1.22.15ZM356.97,463.73c1.08,1.87,2.85,1.78,3.82,1.55,1.78-.41,3.36-1.83,3.44-3.09.11-1.67-.09-5.17-1.68-6.45-.59-.48-1.31-.58-2.2-.33-2.59.74-4.17,1.77-4.7,3.07-.65,1.59.3,3.46,1.33,5.24h0Z"/>
    </g>
    <g>
      <path class="st14" d="M367.77,456.49c2.28,3.95,8,1.02,8.19-1.75s-.48-8.45-4.52-7.29c-7.38,2.11-5.38,6.08-3.67,9.05Z"/>
      <path class="st1" d="M371.02,458.92c-1.56,0-2.87-.76-3.68-2.17-1.15-1.99-2.2-4.11-1.39-6.12.66-1.62,2.41-2.82,5.35-3.66,1.21-.35,2.26-.17,3.11.51,1.91,1.54,2.19,5.31,2.05,7.3-.12,1.72-1.97,3.48-4.22,4-.42.1-.83.15-1.22.15ZM372.46,447.79c-.27,0-.57.05-.88.14-2.59.74-4.17,1.77-4.7,3.07-.65,1.6.3,3.47,1.33,5.24h0c1.08,1.87,2.85,1.78,3.81,1.55,1.78-.41,3.36-1.83,3.45-3.09.16-2.32-.3-5.34-1.68-6.45-.38-.31-.82-.46-1.32-.46Z"/>
    </g>
    <g>
      <path class="st14" d="M376.88,448.22c1.65,2.86,5.79.73,5.92-1.27s-.34-6.11-3.27-5.27c-5.33,1.52-3.89,4.39-2.65,6.54Z"/>
      <path class="st1" d="M379.25,450.11c-1.18,0-2.19-.58-2.8-1.64-.63-1.09-1.67-2.91-1.01-4.54.49-1.21,1.79-2.1,3.96-2.73.91-.26,1.73-.12,2.37.4,1.42,1.15,1.63,3.93,1.53,5.39-.09,1.3-1.47,2.62-3.16,3.01-.31.07-.61.11-.89.11ZM377.31,447.97c.73,1.27,1.95,1.21,2.61,1.06,1.21-.28,2.33-1.27,2.38-2.11.09-1.37-.14-3.72-1.16-4.55-.39-.32-.87-.38-1.47-.21-1.83.52-2.94,1.24-3.31,2.14-.44,1.1.23,2.41.95,3.67h0Z"/>
    </g>
    <g>
      <g>
        <path class="st18" d="M211.72,385.69l-4.13,10.89-6.76-6.01s6.38-9.39,10.89-4.88Z"/>
        <path class="st1" d="M207.8,397.43l-7.63-6.78.25-.36c.16-.24,4.07-5.92,8.11-6.3,1.33-.12,2.53.33,3.55,1.35l.23.23-4.5,11.87ZM201.5,390.5l5.88,5.22,3.75-9.9c-.75-.66-1.58-.93-2.51-.84-3.03.29-6.21,4.29-7.12,5.51Z"/>
      </g>
      <g>
        <path class="st3" d="M172.67,377.05s7.51-19.15,23.65-10.51c16.14,8.63,31.91,15.39,30.03,19.9s-4.5,7.13-10.14,3.75c-5.63-3.38-15.39.38-15.39.38l-28.16-13.51Z"/>
        <path class="st1" d="M220.72,392.23c-1.39,0-2.96-.53-4.76-1.61-5.36-3.21-14.86.38-14.96.41l-.2.08-.2-.09-28.57-13.72.17-.43c.15-.38,3.77-9.41,11.45-12.24,3.99-1.47,8.33-.97,12.9,1.47,3.19,1.71,6.35,3.33,9.4,4.9,13.08,6.73,22.54,11.59,20.86,15.63-1.27,3.05-2.71,4.75-4.54,5.35-.49.16-1.01.24-1.56.24ZM210.18,388.28c2.21,0,4.45.38,6.3,1.49,2.23,1.34,4.02,1.75,5.49,1.27,1.53-.5,2.78-2.02,3.93-4.79,1.33-3.19-9.22-8.61-20.39-14.35-3.06-1.57-6.22-3.2-9.42-4.91-4.31-2.31-8.37-2.78-12.08-1.42-6.35,2.34-9.87,9.43-10.68,11.24l27.53,13.22c.98-.35,5.09-1.75,9.32-1.75Z"/>
      </g>
      <g>
        <path class="st3" d="M219.98,379.68s-3.75,2.25-3.75,10.51"/>
        <path class="st1" d="M216.72,390.19h-1c0-8.45,3.83-10.84,4-10.94l.51.86-.26-.43.26.43s-3.51,2.26-3.51,10.08Z"/>
      </g>
    </g>
  </g>
  <path class="st1" d="M285.43,158.5c-1.16,0-2.34-.17-3.54-.52-10.14-2.92-17.92-17.42-18.25-18.04l2.65-1.4c.07.14,7.51,14,16.43,16.56,2.59.74,4.99.45,7.34-.9,2.99-1.73,4.33-5.78,4.48-10.77-1.87-.89-3.75-2.02-5.63-3.37-11.16-8.03-20.1-22.82-18.39-30.44.55-2.48,2.23-4.09,4.71-4.55,8.11-1.51,15.16,9.31,18.74,19.02,2.48,6.72,3.56,12.57,3.63,17.42,4.9,1.95,10.59,2.48,16.19-.9,4.43-2.67,6.77-6.57,7.64-11.01-1.43-.6-2.89-1.34-4.38-2.21-13.12-7.73-26.25-25.82-25.56-35.19.25-3.37,2.14-4.82,3.69-5.45,7.69-3.11,18.59,7.65,24.69,19.85,3.29,6.58,5.44,14.17,4.88,21.02,4.02,1.26,8.45,1.46,12.39-1.12l1.64,2.51c-4.12,2.7-9.04,3.23-14.48,1.62-1.07,5-3.83,9.44-8.97,12.54-5.35,3.23-11.49,3.71-17.84,1.48-.51,6.21-2.86,10.37-5.94,12.14-1.96,1.13-4.02,1.7-6.13,1.7ZM276.65,107.94c-.3,0-.59.03-.88.08-1.32.24-2.03.94-2.33,2.26-1.3,5.8,6.39,19.56,17.22,27.35,1.16.83,2.44,1.66,3.8,2.4-.32-4.78-1.53-10.08-3.31-14.9-4.44-12.04-10.3-17.19-14.5-17.19ZM298.01,89.21c-.61,0-1.18.1-1.71.31-.71.29-1.68.9-1.82,2.89-.56,7.6,11.02,24.67,24.09,32.38,1,.59,2.08,1.16,3.22,1.68.29-6.03-1.68-12.7-4.6-18.54-5.35-10.69-13.77-18.73-19.18-18.73Z"/>
</svg>