<?xml version="1.0" encoding="UTF-8"?>
<svg id="Layer_1" xmlns="http://www.w3.org/2000/svg" version="1.1" viewBox="0 0 490.79 488.49">
  <!-- Generator: Adobe Illustrator 29.8.2, SVG Export Plug-In . SVG Version: 2.1.1 Build 3)  -->
  <defs>
    <style>
      .st0 {
        fill: #0c0907;
      }

      .st1 {
        fill: #6d4524;
      }

      .st2 {
        fill: #c4c65c;
      }

      .st3 {
        fill: #889594;
      }

      .st4 {
        fill: #271911;
      }

      .st5 {
        fill: #a56d3f;
      }

      .st6 {
        fill: #9ea440;
      }

      .st7 {
        fill: #c68d52;
      }

      .st8 {
        fill: #fc85ff;
      }

      .st9 {
        fill: #edb2be;
      }

      .st10 {
        fill: #ffcb70;
      }

      .st11 {
        fill: #c7e5da;
      }

      .st12 {
        fill: #fff;
      }

      .st13 {
        fill: #f26a3b;
      }

      .st14 {
        fill: #8b9a9f;
      }

      .st15 {
        fill: #2a2520;
      }

      .st16 {
        fill: #e29f3e;
      }

      .st17 {
        fill: #f4f471;
      }

      .st18 {
        fill: #cdd6b0;
      }

      .st19 {
        fill: #9d9463;
      }
    </style>
  </defs>
  <g>
    <path class="st10" d="M43.62,219.55s-42.43,9.15-33.3,62.26c15.93,92.66,363.4,136.1,445.93,20.27,82.53-115.83-36.2-133.2-36.2-133.2,0,0,8.69-146.23-169.4-157.81C72.57-.52,43.62,219.55,43.62,219.55Z"/>
    <path class="st0" d="M252.15,372.42c-39.56,0-80.33-4.39-117.92-12.97-72.4-16.53-118.9-45.52-124.41-77.56-2.62-15.26-2.43-36.58,13.38-51.49,8.51-8.02,18.06-10.77,19.97-11.26.68-4.74,8.74-57.56,36.75-108.42,17.17-31.17,38.35-55.52,62.98-72.38,30.79-21.08,67.06-30.42,107.79-27.78,40.7,2.65,74.97,12.61,101.83,29.62,21.51,13.62,38.35,31.75,50.06,53.89,18.73,35.43,18.15,70.04,17.99,74.37,4.85.83,47.56,8.97,61.15,40.84,10.25,24.03,1.82,55.34-25.07,93.07-30.33,42.57-91.97,59.2-138.34,65.66-21.09,2.94-43.43,4.39-66.16,4.39ZM237.35,11.13c-35.14,0-66.67,9.41-93.89,28.04-24.49,16.77-45.58,41.01-62.67,72.04-29.12,52.88-36.61,107.86-36.68,108.41l-.05.35-.34.07c-.1.02-10.61,2.38-19.87,11.12-8.53,8.06-17.72,23.37-13.04,50.56,5.44,31.63,51.66,60.32,123.65,76.75,59.06,13.48,126.03,16.61,183.72,8.57,46.18-6.43,107.54-22.98,137.66-65.25,26.67-37.43,35.06-68.41,24.96-92.1-14.13-33.13-60.36-40.25-60.82-40.32l-.45-.07.03-.46c.02-.36,1.93-36.89-17.88-74.34-11.63-21.98-28.35-39.98-49.71-53.49-26.72-16.91-60.81-26.82-101.34-29.45-4.48-.29-8.91-.44-13.28-.44Z"/>
  </g>
  <g>
    <g>
      <rect class="st7" x="149.78" y="68.65" width="85.42" height="95.51"/>
      <path class="st0" d="M235.7,164.66h-86.42v-96.51h86.42v96.51ZM150.28,163.66h84.42v-94.51h-84.42v94.51Z"/>
    </g>
    <g>
      <rect class="st11" x="157.52" y="76.37" width="69.95" height="80.07"/>
      <path class="st4" d="M227.97,156.94h-70.95v-81.07h70.95v81.07ZM158.02,155.94h68.95v-79.07h-68.95v79.07Z"/>
    </g>
    <g>
      <path class="st13" d="M192.59,105.77s19.14-15.34,24.65,1.29c6.99,21.09-32.18,29.9-32.18,29.9,0,0-31.4-24.95-13.8-38.77,15.38-12.08,21.33,7.58,21.33,7.58Z"/>
      <path class="st0" d="M184.94,137.5l-.19-.15c-.79-.63-19.39-15.55-19.35-28.9.01-4.19,1.88-7.77,5.55-10.65,4.54-3.57,8.75-4.78,12.51-3.59,5.73,1.81,8.59,8.56,9.38,10.74,2.3-1.72,11.06-7.76,17.95-5.72,3.22.95,5.55,3.53,6.92,7.68,1.45,4.36,1.07,8.54-1.13,12.42-2.98,5.27-9.18,9.93-18.43,13.84-6.85,2.9-12.92,4.28-12.99,4.29l-.23.05ZM180.59,94.76c-2.77,0-5.79,1.28-9.02,3.82-3.42,2.68-5.15,6-5.17,9.87-.03,12.17,16.81,26.35,18.78,27.97,2.49-.6,24.04-6.1,30.53-17.59,2.05-3.62,2.4-7.53,1.05-11.61-1.26-3.81-3.37-6.18-6.26-7.03-7.33-2.17-17.51,5.89-17.61,5.97l-.58.46-.21-.71c-.03-.09-2.74-8.8-8.95-10.76-.83-.26-1.69-.39-2.57-.39Z"/>
    </g>
  </g>
  <g>
    <g>
      <rect class="st7" x="265.1" y="23.33" width="85.42" height="95.51" transform="translate(236.73 378.89) rotate(-90)"/>
      <path class="st0" d="M259.55,114.29V27.87s96.5,0,96.5,0v86.42s-96.5,0-96.5,0ZM260.55,28.87v84.42s94.51,0,94.51,0V28.87s-94.51,0-94.51,0Z"/>
    </g>
    <g>
      <rect class="st18" x="272.83" y="31.04" width="69.95" height="80.07" transform="translate(236.73 378.89) rotate(-90)"/>
      <path class="st0" d="M267.77,106.55h-.5V35.6s81.07,0,81.07,0v70.95s-80.57,0-80.57,0ZM268.27,36.6v68.95s79.07,0,79.07,0V36.6s-79.07,0-79.07,0Z"/>
    </g>
    <g>
      <path class="st8" d="M310.28,47.31l.43,1.31c2.47,7.6,9.56,12.75,17.55,12.75h1.38c2.52,0,3.57,3.23,1.53,4.71l-1.12.81c-6.47,4.7-9.18,13.03-6.7,20.64l.43,1.31c.78,2.4-1.97,4.4-4.01,2.91l-1.12-.81c-6.47-4.7-15.23-4.7-21.7,0l-1.12.81c-2.04,1.48-4.79-.51-4.01-2.91l.43-1.31c2.47-7.6-.24-15.94-6.7-20.64l-1.12-.81c-2.04-1.48-.99-4.71,1.53-4.71h1.38c8,0,15.08-5.15,17.55-12.75l.43-1.31c.78-2.4,4.17-2.4,4.95,0Z"/>
      <path class="st4" d="M321.3,92.77c-.63,0-1.27-.2-1.82-.6l-1.12-.81c-6.31-4.59-14.8-4.59-21.11,0l-1.12.81c-1.11.81-2.54.8-3.65,0-1.11-.81-1.55-2.17-1.13-3.47l.43-1.31c2.41-7.42-.21-15.49-6.52-20.08l-1.12-.81c-1.11-.8-1.55-2.17-1.13-3.47.42-1.3,1.58-2.15,2.95-2.15h1.38c7.8,0,14.67-4.99,17.08-12.41l.43-1.31c.42-1.3,1.58-2.15,2.95-2.15s2.53.84,2.95,2.15l.43,1.31c2.41,7.42,9.28,12.41,17.08,12.41h1.38c1.37,0,2.53.84,2.95,2.15.42,1.3-.02,2.67-1.13,3.47l-1.12.81c-6.31,4.59-8.93,12.65-6.52,20.08l.43,1.31c.42,1.3-.02,2.67-1.13,3.47-.55.4-1.19.6-1.83.6ZM307.81,86.92c3.91,0,7.81,1.21,11.14,3.63l1.12.81c.91.66,1.88.43,2.47,0s1.11-1.28.76-2.35l-.43-1.31c-2.54-7.83.22-16.35,6.89-21.19l1.12-.81c.91-.66.99-1.65.76-2.35-.23-.7-.87-1.45-2-1.45h-1.38c-8.24,0-15.48-5.26-18.03-13.1l-.43-1.31c-.35-1.07-1.26-1.45-2-1.45s-1.65.38-2,1.45l-.43,1.31c-2.55,7.83-9.79,13.1-18.03,13.1h-1.38c-1.13,0-1.77.75-2,1.45-.23.7-.15,1.69.76,2.35l1.12.81c6.66,4.84,9.43,13.36,6.89,21.19l-.43,1.31c-.35,1.07.17,1.92.76,2.35.6.43,1.56.66,2.47,0l1.12-.81c3.33-2.42,7.24-3.63,11.14-3.63Z"/>
    </g>
  </g>
  <g>
    <path class="st19" d="M266.01,392.57s-153.11-22.8-212.83,11.94c-59.72,34.75,19.55,74.92,58.64,68.41,39.09-6.52,95.56,1.09,131.39,3.26s68.41-11.94,81.44-14.12c13.03-2.17,80.35,16.29,110.76-5.43,30.4-21.72,61.89-93.38-169.4-64.07Z"/>
    <path class="st0" d="M250.77,476.91c-2.51,0-5.05-.07-7.6-.23-8.11-.49-17.3-1.26-27.04-2.08-32.99-2.77-74.05-6.22-104.24-1.18-2.86.48-5.94.71-9.16.71-26.55,0-63.1-15.49-70.34-35.56-3.06-8.5-1.99-21.38,20.53-34.48,17.08-9.94,53.35-21.32,129.08-19.07,44.34,1.32,82.15,6.78,84.01,7.05,61.67-7.81,109.42-9.03,141.91-3.62,26.51,4.42,42.46,13.08,47.42,25.75,2.8,7.15,1.85,15.44-2.74,23.96-3.79,7.04-9.96,13.92-16.91,18.89-22.08,15.77-62.66,10.61-89.51,7.2-10-1.27-17.89-2.27-21.45-1.68-3.42.57-8.14,1.95-14.12,3.7-14.75,4.32-36.32,10.64-59.83,10.64ZM149.04,469.85c22.46,0,46.42,2.01,67.18,3.75,9.73.82,18.92,1.59,27.02,2.08,26.25,1.59,50.83-5.61,67.09-10.38,6.01-1.76,10.75-3.15,14.23-3.73,3.71-.61,11.67.39,21.74,1.68,26.7,3.4,67.04,8.52,88.81-7.02,11.19-7.99,25.56-25.68,19.3-41.67-4.82-12.32-20.52-20.77-46.65-25.12-32.41-5.4-80.08-4.18-141.69,3.63h-.07s-.07,0-.07,0c-.38-.06-38.78-5.71-83.97-7.05-75.49-2.24-111.56,9.06-128.53,18.94-17.35,10.1-24.3,21.6-20.09,33.28,3.63,10.08,15.4,19.88,32.3,26.9,15.87,6.6,33.54,9.4,46.1,7.3,11.26-1.88,24.02-2.58,37.3-2.58Z"/>
  </g>
  <g>
    <path class="st13" d="M85.74,293.86l2.52,7.75c4.6,14.17,17.81,23.76,32.71,23.76h8.15c4.7,0,6.66,6.02,2.85,8.78l-6.59,4.79c-12.05,8.76-17.1,24.28-12.49,38.45l2.52,7.75c1.45,4.47-3.66,8.19-7.47,5.43l-6.59-4.79c-12.05-8.76-28.37-8.76-40.43,0l-6.59,4.79c-3.8,2.76-8.92-.95-7.47-5.43l2.52-7.75c4.6-14.17-.44-29.69-12.49-38.45l-6.59-4.79c-3.8-2.76-1.85-8.78,2.85-8.78h8.15c14.9,0,28.1-9.59,32.71-23.76l2.52-7.75c1.45-4.47,7.78-4.47,9.23,0Z"/>
    <path class="st0" d="M51.46,392.02c-1.1,0-2.19-.35-3.15-1.04-1.91-1.39-2.67-3.74-1.94-5.99l2.52-7.75c4.55-14.01-.4-29.23-12.31-37.89l-6.6-4.79c-1.91-1.39-2.67-3.74-1.94-5.99.73-2.25,2.73-3.7,5.09-3.7h8.15c14.73,0,27.68-9.41,32.23-23.42l2.52-7.75c.73-2.25,2.73-3.7,5.09-3.7h0c2.36,0,4.36,1.45,5.09,3.7l2.52,7.75c4.55,14.01,17.5,23.42,32.23,23.42h8.15c2.36,0,4.36,1.45,5.09,3.7.73,2.25-.03,4.6-1.94,5.99l-6.59,4.79c-11.91,8.66-16.86,23.88-12.31,37.89l2.52,7.75c.73,2.25-.03,4.6-1.94,5.99-1.91,1.39-4.38,1.39-6.29,0l-6.59-4.79c-11.91-8.66-27.92-8.66-39.84,0l-6.6,4.79c-.96.69-2.05,1.04-3.15,1.04ZM81.12,378.69c7.19,0,14.37,2.23,20.51,6.68l6.59,4.79c1.55,1.13,3.56,1.13,5.12,0,1.55-1.13,2.18-3.04,1.58-4.87l-2.52-7.75c-4.69-14.42.41-30.09,12.67-39.01l6.59-4.79c1.55-1.13,2.17-3.04,1.58-4.87s-2.22-3.01-4.14-3.01h-8.15c-15.16,0-28.5-9.69-33.18-24.11l-2.52-7.75c-.59-1.83-2.22-3.01-4.14-3.01-1.92,0-3.55,1.18-4.14,3.01l-2.52,7.75c-4.69,14.42-18.02,24.11-33.18,24.11h-8.15c-1.92,0-3.55,1.18-4.14,3.01s.03,3.74,1.58,4.87l6.6,4.79c12.27,8.91,17.36,24.59,12.67,39.01l-2.52,7.75c-.59,1.83.03,3.74,1.58,4.87,1.55,1.13,3.56,1.13,5.12,0l6.6-4.79c6.13-4.46,13.32-6.68,20.51-6.68Z"/>
  </g>
  <g>
    <g>
      <path class="st0" d="M106.34,128.37c-.94,7.72,1.68,9.05-7.37,11.39-9.05,2.35-20.44,12.4-16.08,20.77,4.36,8.38,15.75,12.4,10.05,15.41s-14.07,9.72-10.72,19.77c3.35,10.05,10.05,24.79,18.43,25.46,8.38.67,58.97-.67,72.71-8.38,13.74-7.71,17.09-29.82,12.4-34.85-4.69-5.03-10.39-10.72-8.38-16.42s3.02-14.74-3.02-18.76-6.03-5.36-14.41-22.11c-4.15-8.3-16.35-10.78-28.81-10.05-12.7.75-23.45,6.7-24.79,17.76Z"/>
      <path class="st0" d="M106.25,221.82c-2.61,0-4.56-.05-5.65-.14-9.51-.76-16.36-18.3-18.86-25.8-1.24-3.72-2.66-13.16,10.96-20.37.81-.43,1.23-.86,1.29-1.33.13-1.11-1.72-2.74-3.86-4.63-2.58-2.27-5.78-5.11-7.69-8.78-1.35-2.59-1.34-5.55,0-8.57,2.83-6.36,10.56-11.4,16.4-12.92,6.63-1.72,6.65-2.65,6.73-6.57.02-1.17.05-2.62.27-4.4,1.26-10.38,10.94-17.36,25.26-18.2,14.9-.88,25.57,2.89,29.29,10.33,1.18,2.35,2.19,4.41,3.08,6.2,5.4,10.93,6.09,12.34,11.16,15.72,6,4,5.48,12.92,3.21,19.35-1.82,5.14,3.19,10.49,7.61,15.2l.66.71c1.96,2.1,2.63,6.95,1.74,12.65-1.23,7.93-5.63,18.13-14.26,22.97-11.99,6.73-51.54,8.58-67.34,8.58ZM106.84,128.43c-.21,1.72-.24,3.15-.26,4.3-.09,4.35-.43,5.69-7.48,7.52-5.69,1.48-13.13,6.5-15.74,12.35-1.23,2.77-1.24,5.36-.03,7.7,1.82,3.51,4.95,6.27,7.47,8.49,2.54,2.25,4.38,3.87,4.19,5.5-.1.81-.69,1.5-1.81,2.09-4.31,2.28-13.96,8.72-10.48,19.17,1.9,5.71,8.82,24.39,17.99,25.12,7.62.61,58.62-.57,72.42-8.31,8.32-4.67,12.57-14.56,13.76-22.25.83-5.32.24-9.96-1.49-11.82l-.66-.71c-4.61-4.92-9.84-10.5-7.82-16.22,2.15-6.09,2.7-14.5-2.82-18.18-5.29-3.53-6.12-5.21-11.5-16.11-.89-1.79-1.9-3.84-3.07-6.2-3.53-7.06-13.86-10.63-28.34-9.78-10.82.64-22.9,5.52-24.33,17.32h0Z"/>
    </g>
    <g>
      <path class="st16" d="M160.62,155.01s15.08,16.59,2.51,19.6-6.03-15.08-6.03-15.08"/>
      <path class="st4" d="M160.56,175.45c-1.74,0-3.1-.54-4.06-1.61-3.59-4.01-.02-14.05.13-14.48l.94.34c-.04.1-3.52,9.9-.33,13.47,1.14,1.28,3.09,1.6,5.77.95,2.41-.58,3.89-1.72,4.4-3.38,1.71-5.54-7.08-15.3-7.17-15.39l.74-.67c.38.42,9.26,10.27,7.38,16.36-.63,2.03-2.35,3.4-5.12,4.06-.98.23-1.88.35-2.69.35Z"/>
    </g>
    <g>
      <g>
        <path class="st18" d="M146.56,416.64s-5.87,7.71.24,14.41c6.11,6.7,19.31,7.37,24.19,10.39,4.89,3.02,15.15,5.7,23.22,2.01,8.06-3.69,19.31-9.38,7.58-24.12-11.73-14.74-55.23-2.68-55.23-2.68Z"/>
        <path class="st0" d="M185.38,445.73c-5.94,0-11.58-1.99-14.65-3.88-1.73-1.07-4.56-1.84-7.83-2.73-5.57-1.51-12.5-3.4-16.47-7.75-6.32-6.93-.33-14.97-.27-15.05l.1-.13.16-.04c.11-.03,11.06-3.04,23.3-4.21,16.56-1.57,27.48.8,32.45,7.05,4.26,5.35,5.87,9.89,4.91,13.86-1.3,5.43-6.97,8.42-12.67,11.03-2.89,1.32-6,1.84-9.04,1.84ZM146.86,417.07c-.75,1.06-5.08,7.72.31,13.63,3.77,4.14,10.26,5.9,15.99,7.46,3.35.91,6.24,1.7,8.1,2.84,4.46,2.75,14.57,5.72,22.75,1.98,5.48-2.5,10.92-5.36,12.12-10.35.86-3.61-.73-7.98-4.72-13.01-11.03-13.86-51.59-3.34-54.54-2.55Z"/>
      </g>
      <g>
        <g>
          <path class="st5" d="M141.91,351.3s6.52,50.71,5.7,53.16-8.15,16.53,3.42,22.11c11.57,5.58,29,12.96,31.61,12.96s7.01,2.68,9.29-2.68c0,0,5.87,1.34,5.87-3.35,0,0,2.77,1.56,4.89-2.23,0,0,4.07-1.12,3.26-6.7-.81-5.58-7.98-11.39-12.06-13.18-4.07-1.79-14.5-8.49-14.66-13.4-.16-4.91-2.93-53.61-2.93-53.61l-34.38,6.92Z"/>
          <path class="st0" d="M187.41,440.7c-.98,0-1.94-.2-2.8-.38-.72-.15-1.41-.29-1.96-.29-2.83,0-20.98-7.77-31.83-13-10.79-5.21-5.76-17.57-4.1-21.63.19-.47.34-.84.42-1.09.56-1.79-3.11-32.64-5.72-52.94l-.06-.46,35.4-7.13.03.58c.03.49,2.77,48.76,2.93,53.62.16,4.68,10.47,11.25,14.36,12.96,3.74,1.64,11.46,7.49,12.35,13.56.76,5.2-2.53,6.84-3.41,7.18-.79,1.35-1.76,2.2-2.88,2.51-.75.21-1.42.14-1.89.01-.13,1.01-.56,1.81-1.27,2.38-1.5,1.19-3.82.99-4.76.84-1.25,2.63-3.05,3.28-4.82,3.28ZM142.47,351.7c.9,6.98,6.43,50.49,5.62,52.92-.09.26-.25.65-.45,1.15-1.73,4.25-6.33,15.56,3.61,20.36,11.78,5.69,28.93,12.91,31.39,12.91.66,0,1.39.15,2.17.31,2.49.51,5.07,1.05,6.66-2.69l.16-.38.41.09s2.83.62,4.32-.57c.63-.5.94-1.25.94-2.29v-.86l.75.42c.09.05,2.37,1.25,4.21-2.04l.1-.18.2-.06c.15-.04,3.63-1.09,2.9-6.15-.79-5.43-7.97-11.13-11.76-12.79-4.19-1.84-14.79-8.65-14.96-13.84-.15-4.56-2.59-47.52-2.9-53.02l-33.36,6.72Z"/>
        </g>
        <path class="st0" d="M192.43,436.94l-.99-.17c.58-3.33.05-6.02-1.58-8-2.92-3.55-8.47-3.7-8.53-3.7l.02-1c.25,0,6.06.15,9.28,4.06,1.83,2.22,2.43,5.18,1.8,8.82Z"/>
        <path class="st0" d="M198.29,434.04l-.98-.2c1.69-8.42-7.15-12.24-7.52-12.4l.39-.92c.1.04,9.97,4.29,8.12,13.51Z"/>
        <path class="st0" d="M203.01,431.59l-.98-.2c1.69-8.42-7.15-12.24-7.52-12.4l.39-.92c.1.04,9.97,4.29,8.12,13.51Z"/>
        <g>
          <path class="st11" d="M190.02,428.4c-1.93-1.52-4.09,1.53-2.85,4.06.02.04.04.07.06.11,1.91,3.74,5.79,4.32,5.9.82.06-2.07-1.68-3.87-3.1-4.99Z"/>
          <path class="st0" d="M191.18,436.22c-1.57,0-3.35-1.35-4.41-3.42l-.06-.12c-.88-1.78-.26-3.77.84-4.66.86-.69,1.89-.7,2.77,0h0c1.54,1.21,3.36,3.13,3.29,5.4-.05,1.49-.73,2.49-1.87,2.75-.18.04-.37.06-.57.06ZM188.94,428.49c-.3,0-.56.14-.75.3-.78.63-1.22,2.13-.57,3.45l.05.11c1.1,2.16,2.82,3.07,3.86,2.84.91-.2,1.07-1.22,1.09-1.81.06-1.85-1.55-3.51-2.91-4.58h0c-.28-.22-.54-.3-.77-.3Z"/>
        </g>
        <g>
          <path class="st11" d="M196.47,426.57c-1.53-1.38-3.4.99-2.47,3.15.01.03.03.06.04.1,1.44,3.21,4.6,3.94,4.8,1.07.12-1.7-1.24-3.3-2.37-4.32Z"/>
          <path class="st0" d="M197.33,433.19c-1.36,0-2.88-1.26-3.74-3.16l-.04-.1c-.68-1.57-.09-3.21.87-3.9.75-.54,1.67-.47,2.39.17h0c1.23,1.11,2.67,2.83,2.54,4.73-.12,1.77-1.19,2.15-1.65,2.23-.12.02-.24.03-.37.03ZM195.51,426.66c-.17,0-.34.06-.5.18-.62.45-1.01,1.6-.54,2.69l.04.09c.8,1.79,2.17,2.7,3.02,2.55.61-.11.79-.78.83-1.31.1-1.49-1.14-2.95-2.21-3.91-.21-.19-.42-.28-.63-.28Z"/>
        </g>
        <g>
          <path class="st11" d="M200.71,423.22c-1.53-1.38-3.4.99-2.47,3.15.01.03.03.06.04.1,1.44,3.21,4.6,3.94,4.8,1.07.12-1.7-1.24-3.3-2.37-4.32Z"/>
          <path class="st0" d="M201.56,429.84c-1.36,0-2.88-1.26-3.74-3.16l-.04-.1c-.67-1.56-.09-3.21.87-3.9.75-.54,1.67-.47,2.39.17,1.23,1.11,2.67,2.83,2.54,4.73-.12,1.77-1.19,2.15-1.65,2.23-.12.02-.24.03-.37.03ZM199.74,423.31c-.17,0-.34.06-.5.18-.62.45-1.01,1.6-.54,2.69.84,1.88,2.2,2.79,3.06,2.64.61-.11.79-.78.83-1.31.1-1.49-1.14-2.95-2.21-3.91h0c-.21-.19-.42-.28-.63-.28Z"/>
        </g>
        <g>
          <path class="st11" d="M204.41,419.89c-1.17-1.06-2.6.76-1.89,2.42.01.02.02.05.03.07,1.1,2.46,3.52,3.02,3.68.82.09-1.3-.95-2.53-1.82-3.31Z"/>
          <path class="st0" d="M205.07,425.08c-1.09,0-2.3-1-2.97-2.49-.58-1.33-.1-2.65.67-3.21.62-.45,1.38-.39,1.97.14h0c.96.87,2.09,2.22,1.98,3.72-.07,1-.58,1.68-1.36,1.81-.1.02-.2.03-.3.03ZM203.67,420.08c-.11,0-.21.04-.32.11-.44.32-.71,1.14-.37,1.92.61,1.37,1.61,2.06,2.21,1.96.4-.07.51-.53.54-.9.08-1.1-.86-2.18-1.65-2.9h0c-.14-.12-.27-.18-.41-.18Z"/>
        </g>
        <g>
          <path class="st18" d="M169.77,438.75s-1.47-17.09,17.84-31.5l-6.6-5.36s-16.86,9.38-18.08,31.16"/>
          <path class="st0" d="M169.28,438.79c-.02-.17-1.25-17.22,17.53-31.55l-5.83-4.74c-2.21,1.37-16.44,10.9-17.54,30.58l-1-.06c1.22-21.8,18.17-31.47,18.34-31.57l.3-.17,7.36,5.98-.51.38c-9.85,7.35-14.12,15.4-15.97,20.86-2,5.92-1.68,10.15-1.67,10.2l-1,.08Z"/>
        </g>
      </g>
      <g>
        <path class="st18" d="M128.41,417.31s5.87,7.71-.24,14.41c-6.11,6.7-19.31,7.37-24.19,10.39-4.89,3.02-15.15,5.7-23.22,2.01-8.06-3.69-19.31-9.38-7.58-24.12s55.23-2.68,55.23-2.68Z"/>
        <path class="st0" d="M89.58,446.4c-3.04,0-6.15-.52-9.04-1.84-5.7-2.61-11.37-5.6-12.67-11.03-.95-3.98.66-8.51,4.91-13.86,4.98-6.25,15.9-8.63,32.45-7.05,12.24,1.16,23.19,4.17,23.3,4.21l.16.04.1.13c.06.08,6.04,8.12-.27,15.05-3.97,4.35-10.9,6.24-16.47,7.75-3.28.89-6.1,1.66-7.83,2.73-3.06,1.89-8.71,3.88-14.65,3.88ZM96.07,413.18c-9.34,0-18.19,1.69-22.5,7.12-4,5.02-5.59,9.4-4.72,13.01,1.19,4.99,6.64,7.85,12.12,10.35,8.17,3.74,18.29.77,22.75-1.98,1.85-1.14,4.75-1.93,8.1-2.84,5.73-1.56,12.22-3.32,15.99-7.46,5.39-5.92,1.06-12.58.31-13.63-1.8-.48-17.52-4.56-32.04-4.56Z"/>
      </g>
      <g>
        <g>
          <path class="st5" d="M133.05,351.97s-6.52,50.71-5.7,53.16,8.15,16.53-3.42,22.11-29,12.96-31.61,12.96c-2.61,0-7.01,2.68-9.29-2.68,0,0-5.87,1.34-5.87-3.35,0,0-2.77,1.56-4.89-2.23,0,0-4.07-1.12-3.26-6.7.81-5.58,7.98-11.39,12.06-13.18,4.07-1.79,14.5-8.49,14.66-13.4.16-4.91,2.93-53.61,2.93-53.61l34.38,6.92Z"/>
          <path class="st0" d="M87.55,441.37c-1.77,0-3.57-.66-4.82-3.29-.93.15-3.26.36-4.76-.84-.71-.57-1.14-1.37-1.27-2.38-.47.12-1.14.2-1.89-.01-1.12-.32-2.09-1.16-2.88-2.51-.88-.34-4.17-1.99-3.41-7.18.89-6.08,8.61-11.92,12.35-13.56,3.89-1.71,14.21-8.28,14.36-12.96.16-4.86,2.91-53.13,2.93-53.62l.03-.58,35.4,7.13-.06.46c-2.61,20.3-6.29,51.15-5.72,52.94.08.25.23.62.42,1.09,1.65,4.06,6.69,16.43-4.1,21.63-10.85,5.24-28.99,13.01-31.83,13.01-.56,0-1.24.14-1.96.29-.86.18-1.82.38-2.8.38ZM83.33,436.94l.16.39c1.59,3.73,4.17,3.2,6.66,2.69.78-.16,1.51-.31,2.17-.31,2.46,0,19.61-7.22,31.39-12.91,9.94-4.8,5.34-16.1,3.61-20.36-.2-.5-.36-.89-.45-1.15-.81-2.43,4.73-45.94,5.62-52.92l-33.36-6.72c-.31,5.5-2.75,48.46-2.9,53.02-.17,5.19-10.77,12.01-14.96,13.84-3.79,1.66-10.97,7.36-11.76,12.79-.74,5.05,2.75,6.11,2.9,6.15l.2.06.1.18c.67,1.21,1.47,1.95,2.37,2.2,1.01.28,1.83-.15,1.83-.16l.75-.42v.86c0,1.04.31,1.79.94,2.29,1.5,1.19,4.29.57,4.32.57l.41-.09Z"/>
        </g>
        <path class="st0" d="M82.54,437.61c-.64-3.63-.03-6.6,1.8-8.82,3.22-3.91,9.03-4.05,9.28-4.06l.02,1c-.06,0-5.6.15-8.53,3.7-1.63,1.98-2.16,4.67-1.58,8l-.99.17Z"/>
        <path class="st0" d="M76.68,434.71c-1.85-9.23,8.02-13.47,8.12-13.51l.39.92c-.38.16-9.21,3.97-7.52,12.4l-.98.2Z"/>
        <path class="st0" d="M71.95,432.26c-1.85-9.23,8.02-13.47,8.12-13.51l.39.92c-.38.16-9.21,3.97-7.52,12.4l-.98.2Z"/>
        <g>
          <path class="st11" d="M84.95,429.07c1.93-1.52,4.09,1.53,2.85,4.06-.02.04-.04.07-.06.11-1.91,3.74-5.79,4.32-5.9.82-.06-2.07,1.68-3.87,3.1-4.99Z"/>
          <path class="st0" d="M83.78,436.89c-.19,0-.38-.02-.57-.06-1.14-.26-1.82-1.26-1.87-2.75-.07-2.27,1.75-4.19,3.29-5.4h0c.88-.69,1.91-.69,2.77,0,1.1.89,1.72,2.88.84,4.67l-.06.12c-1.06,2.07-2.84,3.42-4.41,3.42ZM86.03,429.16c-.23,0-.49.08-.77.3h0c-1.36,1.07-2.97,2.73-2.91,4.58.02.59.18,1.6,1.09,1.81,1.05.23,2.76-.68,3.86-2.84l.5.12-.45-.22c.65-1.32.21-2.82-.57-3.45-.19-.16-.45-.3-.75-.3Z"/>
        </g>
        <g>
          <path class="st11" d="M78.49,427.24c1.53-1.38,3.4.99,2.47,3.15-.01.03-.03.06-.04.1-1.44,3.21-4.6,3.94-4.8,1.07-.12-1.7,1.24-3.3,2.37-4.32Z"/>
          <path class="st0" d="M77.64,433.86c-.12,0-.25-.01-.37-.03-.45-.08-1.52-.46-1.65-2.23-.13-1.89,1.31-3.62,2.54-4.73h0c.72-.65,1.63-.71,2.39-.17.96.69,1.55,2.33.87,3.9l-.04.1c-.85,1.9-2.37,3.16-3.74,3.16ZM78.83,427.62c-1.07.96-2.31,2.42-2.21,3.91.04.54.21,1.21.83,1.32.85.15,2.21-.76,3.02-2.55.51-1.17.12-2.33-.5-2.78-.38-.27-.76-.24-1.13.1h0Z"/>
        </g>
        <g>
          <path class="st11" d="M74.26,423.89c1.53-1.38,3.4.99,2.47,3.15-.01.03-.03.06-.04.1-1.44,3.21-4.6,3.94-4.8,1.07-.12-1.7,1.24-3.3,2.37-4.32Z"/>
          <path class="st0" d="M73.4,430.51c-.12,0-.25-.01-.37-.03-.45-.08-1.52-.46-1.65-2.23-.13-1.9,1.31-3.62,2.54-4.73h0c.72-.65,1.63-.71,2.39-.17.96.69,1.55,2.33.87,3.9l-.05.1c-.85,1.9-2.37,3.16-3.73,3.16ZM75.22,423.98c-.21,0-.42.09-.63.28h0c-1.07.96-2.31,2.42-2.21,3.91.04.54.21,1.21.83,1.32.85.15,2.21-.76,3.02-2.55.51-1.17.12-2.33-.5-2.78-.17-.12-.33-.18-.5-.18Z"/>
        </g>
        <g>
          <path class="st11" d="M70.55,420.56c1.17-1.06,2.6.76,1.89,2.42-.01.02-.02.05-.03.07-1.1,2.46-3.52,3.02-3.68.82-.09-1.3.95-2.53,1.82-3.31Z"/>
          <path class="st0" d="M69.89,425.75c-.1,0-.2,0-.3-.03-.78-.14-1.29-.82-1.36-1.81-.11-1.5,1.02-2.85,1.98-3.72h0c.59-.54,1.35-.59,1.97-.14.77.55,1.25,1.88.71,3.13-.7,1.57-1.92,2.57-3.01,2.57ZM70.89,420.93c-.65.59-1.74,1.75-1.66,2.9.03.37.14.83.54.9.59.1,1.6-.59,2.18-1.89.36-.85.1-1.67-.34-1.98-.24-.17-.48-.15-.72.07h0Z"/>
        </g>
        <g>
          <path class="st18" d="M105.19,439.42s1.47-17.09-17.84-31.5l6.6-5.36s16.86,9.38,18.08,31.16"/>
          <path class="st0" d="M105.69,439.46l-1-.08c.01-.17,1.2-17-17.64-31.05l-.51-.38,7.36-5.98.3.17c.17.09,17.12,9.77,18.34,31.57l-1,.06c-1.1-19.68-15.33-29.21-17.54-30.58l-5.83,4.74c9.71,7.42,13.97,15.49,15.82,21,2.06,6.1,1.72,10.37,1.7,10.55Z"/>
        </g>
      </g>
      <g>
        <g>
          <path class="st18" d="M120.53,180.09h-7.45l-11.49,48.92.37,3.77,2.08,16s-4.64,13.07-8.06,31.5c-3.42,18.43-12.95,72.59-12.95,72.59,0,0,26.64,11.73,56.94,11.73s52.3-13.74,52.3-13.74c0,0-26.49-96.16-31.14-104.87,5.53-16.08-6.74-65.89-6.74-65.89h-33.85Z"/>
          <path class="st0" d="M139.96,365.08c-30.06,0-56.88-11.65-57.15-11.77l-.36-.16.07-.39c.1-.54,9.57-54.38,12.95-72.59,3.22-17.35,7.58-30.12,8.05-31.46l-2.06-15.88-.38-3.87.02-.08,11.58-49.3h42.09l.09.38c.5,2.03,12.14,49.73,6.8,65.97,4.87,9.76,30,100.88,31.08,104.78l.1.36-.32.2c-.22.14-22.46,13.81-52.56,13.81ZM83.58,352.55c3.28,1.38,28.42,11.53,56.38,11.53s48.9-11.81,51.72-13.47c-1.8-6.51-26.58-96.11-31-104.4l-.1-.19.07-.21c5.16-15.02-5.55-60.58-6.66-65.23h-40.51l-11.38,48.45.36,3.69,2.09,16.1-.04.11c-.05.13-4.67,13.25-8.04,31.42-3.23,17.39-12.01,67.25-12.88,72.19Z"/>
        </g>
        <path class="st0" d="M130.4,252.17c-10.95,0-19.42-2.88-19.56-2.93l.33-.95c.23.08,23.12,7.84,42.12-2.48l.48.88c-7.74,4.2-16.1,5.47-23.37,5.47Z"/>
      </g>
      <g>
        <path class="st5" d="M121.02,164.84s2.92,8.09.23,15.13c0,0,4.41,36.47,13.7,36.47s8.31-38.87,8.31-38.87c0,0-1.02-11.74-.49-18.76.53-7.03-21.75,6.03-21.75,6.03Z"/>
        <path class="st0" d="M134.95,216.94c-9.62,0-14.01-35.4-14.2-36.91v-.12s.03-.12.03-.12c2.59-6.78-.2-14.7-.23-14.78l-.14-.39.36-.21c1.79-1.05,17.62-10.19,21.55-7.74.49.3,1.05.93.95,2.18-.52,6.91.48,18.57.49,18.68.03,1.31.71,31.33-5.81,38.03-.9.92-1.9,1.38-2.99,1.38ZM121.76,180.03c1.24,10.11,5.96,35.91,13.19,35.91.82,0,1.57-.35,2.28-1.08,6.23-6.39,5.54-36.96,5.53-37.27,0-.09-1.01-11.83-.49-18.81.06-.82-.25-1.11-.48-1.26-2.83-1.76-15.18,4.67-20.16,7.55.55,1.73,2.48,8.67.14,14.96Z"/>
      </g>
      <g>
        <g>
          <g>
            <path class="st0" d="M142.32,173.48s1.05,3.38-.3,5.48-10.81,2.56-19.43-7.59l19.72,2.11Z"/>
            <path d="M139.22,176.13c-7.09,0-13.19-2.25-14.36-3.07l.57-.82c1.64,1.15,13.44,5.22,23.58,1.12,7.33-2.97,12.02-9.51,13.94-19.44,2.77-14.35-2.83-22.87-8.02-27.49-7.71-6.86-20.17-9.66-29.63-6.66-7.55,2.4-13.23,8.27-15.57,16.12-3.01,10.09-.23,21.42,7.64,31.09l-.78.63c-8.08-9.93-10.93-21.6-7.82-32.01,2.44-8.17,8.35-14.28,16.23-16.78,9.93-3.15,22.51-.33,30.6,6.87,5.38,4.79,11.2,13.61,8.34,28.43-1.99,10.29-6.88,17.08-14.55,20.18-3.34,1.35-6.86,1.84-10.17,1.84Z"/>
            <g>
              <path class="st5" d="M125.15,172.65c2.87,1.22,32.42,11.74,38.3-18.64,5.62-29.06-22.21-39.83-38.3-34.72-17.56,5.58-23.74,28.85-8.17,48,0,0,3.19,3.24,8.17,5.36Z"/>
              <path class="st0" d="M139.51,175.91c-7.86,0-14.46-2.76-14.56-2.8-5.01-2.14-8.2-5.34-8.33-5.47-8.11-9.97-10.96-21.64-7.85-32.04,2.44-8.17,8.35-14.28,16.23-16.78,9.93-3.15,22.51-.33,30.6,6.87,5.38,4.79,11.2,13.61,8.34,28.43-1.79,9.24-5.92,15.64-12.3,19.03-3.92,2.08-8.18,2.78-12.13,2.78ZM117.37,166.97s3.16,3.16,7.98,5.22h0c.14.06,14.69,5.98,25.83.06,6.09-3.24,10.06-9.4,11.78-18.33,2.77-14.35-2.83-22.87-8.02-27.49-7.71-6.86-20.17-9.66-29.63-6.66-7.55,2.4-13.23,8.27-15.57,16.12-3.01,10.09-.23,21.42,7.64,31.09h0Z"/>
            </g>
            <g>
              <path class="st0" d="M125.15,119.29c-10.75,3.41-17.23,13.46-17.07,25.14,29.04,3.61,39.47-18.74,39.47-18.74-1.94,10.21,9.68,21.11,16.21,26.34,3.99-27.55-22.91-37.73-38.62-32.74Z"/>
              <path class="st0" d="M164.13,152.96l-.68-.54c-6.44-5.15-16.67-14.85-16.62-24.48-3.48,5.49-15.05,19.93-38.81,16.98l-.43-.05v-.44c-.17-12.15,6.66-22.21,17.41-25.62,9.64-3.06,22.01-.42,30.07,6.42,5.32,4.51,11.23,12.83,9.19,26.86l-.12.86ZM148.72,122.22l-.68,3.56c-1.81,9.51,8.52,19.72,15.34,25.3,1.6-13.05-3.96-20.83-8.97-25.08-1.72-1.46-3.65-2.72-5.7-3.77ZM108.58,143.98c14.58,1.69,24.25-3.38,29.81-7.96,6.08-5.01,8.68-10.49,8.71-10.55l1.54-3.3c-7.25-3.68-16.09-4.72-23.34-2.42h0c-10.19,3.23-16.71,12.71-16.72,24.22Z"/>
            </g>
            <g>
              <path class="st5" d="M111.49,157.2s-10.53,1.53-9.77-8.62c.77-10.15,13.12-6.32,14.27-2.87"/>
              <path class="st0" d="M110.04,157.79c-1.73,0-4.58-.33-6.59-2.21-1.71-1.59-2.45-3.96-2.22-7.03.41-5.44,3.94-6.68,6.01-6.93,4.02-.5,8.51,1.79,9.23,3.94l-.95.32c-.53-1.58-4.47-3.72-8.16-3.27-2.16.27-4.8,1.53-5.14,6.02-.21,2.75.43,4.85,1.9,6.22,2.67,2.49,7.25,1.87,7.29,1.86l.14.99c-.07.01-.66.09-1.52.09Z"/>
            </g>
            <g>
              <path class="st5" d="M110.72,151.65s-2.11-3.64-4.79-4.6"/>
              <path class="st0" d="M110.29,151.9s-2.05-3.49-4.52-4.38l.34-.94c2.82,1.01,4.96,4.66,5.05,4.82l-.87.5Z"/>
            </g>
            <g>
              <path class="st0" d="M133.97,150.68s.04,1.64-.18,2.15.06,1.15.73,1.06,1.29-2.5,1.03-4.4-.48-2.06-1.51-1.82.08,1.92-.06,3.01Z"/>
              <path class="st0" d="M134.39,154.4c-.37,0-.7-.16-.92-.44-.27-.36-.33-.88-.14-1.32.11-.26.16-1.21.14-1.95v-.04s0-.04,0-.04c.04-.32-.07-.77-.19-1.2-.17-.66-.33-1.28-.04-1.77.1-.16.29-.38.67-.46.45-.11.93-.19,1.33.09.46.31.62.94.79,2.15.26,1.84-.25,4.79-1.45,4.96-.07,0-.13.01-.2.01ZM134.47,150.7c0,.36.02,1.76-.22,2.32-.05.13-.03.26.01.32.01.02.05.06.19.05.26-.19.85-2.05.6-3.83-.16-1.11-.28-1.41-.36-1.46-.01,0-.09-.04-.54.06-.11.14.03.68.11,1.01.12.49.27,1.04.21,1.54Z"/>
            </g>
            <g>
              <path class="st0" d="M150.7,150.47s.04,1.64-.18,2.15.06,1.15.73,1.06,1.29-2.5,1.03-4.4c-.27-1.9-.48-2.06-1.51-1.82s.08,1.92-.06,3.01Z"/>
              <path class="st0" d="M151.12,154.19c-.37,0-.7-.16-.92-.44-.27-.36-.33-.88-.14-1.32.11-.26.16-1.21.14-1.95v-.04s0-.04,0-.04c.04-.32-.07-.77-.19-1.2-.17-.66-.33-1.28-.04-1.77.1-.16.29-.38.67-.46.45-.11.93-.19,1.33.09.46.31.62.94.79,2.15.26,1.84-.25,4.79-1.45,4.96-.07,0-.13.01-.2.01ZM151.2,150.49c0,.36.02,1.76-.22,2.32-.05.13-.03.26.01.32.01.02.05.06.18.05.26-.19.85-2.05.6-3.83-.16-1.11-.28-1.41-.36-1.46-.01,0-.09-.04-.54.06-.11.14.03.68.11,1.01.12.49.27,1.04.21,1.54Z"/>
            </g>
          </g>
          <ellipse class="st1" cx="126.52" cy="154.43" rx="2.59" ry="3.83" transform="translate(-51.81 244.18) rotate(-77.39)"/>
          <ellipse class="st1" cx="158.11" cy="154.81" rx="2.59" ry="3.83" transform="translate(.9 310.53) rotate(-89.12)"/>
        </g>
        <g>
          <path class="st0" d="M143.87,159.65l-.08-1c.72-.06,2.71-.45,3.31-1.57.33-.63.21-1.45-.36-2.46-.58-1.02-1.3-1.6-2.16-1.73-1.84-.28-3.78,1.5-3.8,1.52l-.68-.73c.09-.09,2.31-2.13,4.63-1.78,1.18.18,2.15.93,2.88,2.23.75,1.32.87,2.47.37,3.42-.98,1.84-3.99,2.09-4.11,2.1Z"/>
          <g>
            <path class="st0" d="M137.6,147.05c-.56-1.19-1.23-1.85-2-1.94-1.26-.15-2.66,1.22-3.09,1.76l-.78-.62c.08-.1,1.92-2.38,3.99-2.13,1.14.14,2.07.98,2.79,2.51l-.91.42Z"/>
            <path class="st0" d="M148.43,146.56l-.84-.55c.73-1.12,1.6-1.72,2.58-1.78,1.65-.11,2.95,1.38,3,1.45l-.76.65s-1.04-1.19-2.18-1.1c-.65.04-1.26.49-1.81,1.33Z"/>
          </g>
          <path class="st0" d="M143.43,165.52c-1.57,0-2.66-.77-2.68-.79l.59-.81c.12.08,2.95,2.04,5.88-1.55l.78.63c-1.61,1.98-3.25,2.52-4.56,2.52Z"/>
        </g>
      </g>
      <g>
        <g>
          <path class="st5" d="M110.63,205.55c-3.42,17.76-8.68,27.22-8.68,27.22,0,0-6.54,11.73-4.4,18.18s9.59,17.26,17.78,23.96c8.19,6.7,10.2,12.4,9.53,23.71-.67,11.31-7.76,16.17-9.65,15.75-1.89-.42-1.59-3.43-1.59-3.43-3.48,3.94-6.9,2.01-6.9,2.01-5.07,6.11-8.25,1.09-8.25,1.09-3.24,3.1-7.03,1.51-9.41-3.6-2.38-5.11,1.04-8.38,1.04-8.38-2.69-2.68-4.4-10.39-4.4-10.39,0,0-35.56-21.95-19.43-69.52,16.13-47.58,46.8-42.05,46.8-42.05,0,0,.98,7.71-2.44,25.46Z"/>
          <path class="st0" d="M101.85,316.47c-.09,0-.18,0-.26,0-1.58-.1-2.66-1.1-3.19-1.7-1.33,1.1-2.79,1.54-4.24,1.27-2.14-.4-4.12-2.32-5.55-5.39-2.04-4.38-.02-7.54.82-8.58-2.36-2.75-3.88-8.87-4.17-10.09-2.73-1.81-34.94-24.34-19.46-69.99,4.63-13.66,13.54-31.54,29.71-39.16,9.72-4.58,17.33-3.28,17.65-3.22l.36.07.05.36c.04.32.95,7.99-2.45,25.62l-.49-.09.49.09c-3.4,17.63-8.68,27.28-8.73,27.37-.06.12-6.41,11.61-4.36,17.78,2.04,6.14,9.35,16.96,17.62,23.73,8.15,6.67,10.42,12.3,9.71,24.12-.56,9.43-5.4,13.79-6.87,14.9-1.32,1-2.59,1.49-3.4,1.31-1.41-.31-1.84-1.69-1.96-2.73-2.72,2.42-5.33,1.79-6.28,1.43-1.69,1.94-3.37,2.92-5.01,2.93ZM98.57,313.24l.33.51s1.04,1.6,2.77,1.71c1.46.07,3.03-.87,4.67-2.85l.27-.32.36.21c.12.07,3.13,1.66,6.28-1.91l1.02-1.16-.15,1.54s-.24,2.58,1.2,2.9c.4.09,1.38-.23,2.58-1.13,1.38-1.04,5.93-5.15,6.47-14.16.68-11.43-1.51-16.87-9.35-23.29-8.41-6.88-15.86-17.91-17.94-24.19-2.18-6.58,4.17-18.09,4.44-18.58.05-.09,5.26-9.61,8.62-27.07,2.95-15.3,2.61-23.17,2.47-24.93-3.52-.39-31.03-2-45.87,41.77-8.26,24.37-2.6,41.81,3.6,52.15,6.73,11.21,15.53,16.74,15.62,16.79l.18.11.05.21c.02.08,1.71,7.59,4.26,10.14l.36.36-.37.35c-.13.12-3.13,3.1-.93,7.81,1.29,2.77,3.01,4.49,4.83,4.83,1.28.24,2.59-.24,3.78-1.38l.44-.42Z"/>
        </g>
        <path class="st0" d="M98.81,314.39l-.67-.74c5.85-5.32,1.2-17.33,1.15-17.46l.93-.37c.2.52,4.94,12.78-1.41,18.56Z"/>
        <path class="st0" d="M107.14,313.21l-.84-.54c5.41-8.39,1.7-18.38,1.66-18.48l.93-.36c.16.43,3.94,10.56-1.76,19.38Z"/>
        <path class="st0" d="M114.02,311.24l-.78-.62c6.65-8.38,1.99-21.33,1.94-21.46l.94-.35c.2.55,4.9,13.6-2.09,22.43Z"/>
        <g>
          <path class="st5" d="M92.55,306.74s-.73-2.68.49-4.36c0,0-1.47,1.01-2.93-.34"/>
          <path class="st0" d="M92.06,306.87c-.03-.1-.52-1.96,0-3.64-.68.07-1.52-.09-2.3-.81l.67-.74c1.16,1.06,2.27.32,2.31.29l2.4-1.65-1.72,2.36c-1.06,1.46-.42,3.91-.41,3.93l-.96.26Z"/>
        </g>
      </g>
      <g>
        <g>
          <path class="st5" d="M143.96,239.72c11.88,6.04,22.59,17.68,24.73,11.23,2.14-6.45-4.4-18.18-4.4-18.18,0,0-5.25-9.47-8.68-27.22-3.42-17.76-2.44-25.46-2.44-25.46,0,0,30.67-5.53,46.8,42.05,7.72,22.77,4.16,44.04-6.05,57.06-11.12,14.19-30.14,18.59-51.05,4.46,0,0,.1,5.71-4.32,6.09-4.41.38-7.59-2.88-7.67-8.29,0,0-4.83-.55-4.23-9.77,0,0-3.15-2.65-2.89-8.83,0,0-3.35-8.4-.67-14.43,2.69-6.03,8.98-14.76,20.87-8.72Z"/>
          <path class="st0" d="M168.11,292.82c-7.9,0-16.37-2.73-24.78-8.25-.22,2.23-1.38,5.4-4.74,5.68-2.12.19-4.01-.42-5.46-1.73-1.65-1.49-2.62-3.85-2.74-6.66-1.25-.37-4.7-2.11-4.25-9.97-.71-.71-3.08-3.49-2.88-8.95-.39-1.03-3.23-8.85-.62-14.71,1.67-3.75,4.72-8.59,9.75-10.38,3.53-1.25,7.5-.77,11.8,1.41h0c4.14,2.11,8.14,4.88,11.66,7.34,4.88,3.39,9.1,6.32,11.15,5.64.56-.19.95-.66,1.22-1.45,2.05-6.17-4.3-17.66-4.36-17.78-.05-.1-5.33-9.74-8.73-27.37-3.4-17.63-2.49-25.3-2.45-25.62l.05-.36.36-.07c.31-.05,31.28-5.05,47.36,42.38,7.26,21.4,4.91,43.45-6.13,57.53-6.92,8.83-16.1,13.31-26.21,13.31ZM142.36,282.71l.79.54c18.94,12.8,38.24,11.13,50.38-4.35,10.83-13.82,13.12-35.51,5.97-56.6-4.56-13.45-13.31-31.06-29.13-38.55-8.25-3.91-15.1-3.42-16.74-3.22-.13,1.75-.48,9.62,2.47,24.93,3.36,17.46,8.57,26.98,8.62,27.08.27.49,6.62,11.99,4.44,18.58-.36,1.09-.99,1.8-1.85,2.08-2.54.85-6.73-2.07-12.04-5.76-3.5-2.43-7.47-5.19-11.55-7.27-4.05-2.06-7.75-2.52-11.02-1.36-4.69,1.66-7.58,6.27-9.17,9.84-2.57,5.77.64,13.96.67,14.04l.04.1v.11c-.25,5.87,2.68,8.4,2.71,8.42l.19.16-.02.25c-.57,8.58,3.61,9.22,3.79,9.24l.43.06v.43c.05,2.7.92,4.95,2.44,6.32,1.24,1.12,2.86,1.63,4.7,1.47,3.89-.33,3.86-5.37,3.86-5.59v-.96Z"/>
        </g>
        <path class="st0" d="M130.38,281.48c-.35-10.45,10.15-12.54,10.26-12.56l.18.98c-.4.08-9.76,1.96-9.44,11.54l-1,.03Z"/>
        <path class="st0" d="M127.15,271.77l-.99-.16c1.85-11.57,10.44-13.46,10.53-13.48l.2.98c-.33.07-8.01,1.79-9.75,12.65Z"/>
        <path class="st0" d="M124.26,262.91l-1-.08c1.07-13,12.01-15.6,12.12-15.63l.22.98c-.42.1-10.33,2.49-11.35,14.74Z"/>
        <g>
          <path class="st5" d="M138.67,283.72s2.01-.77,2.28-3.11c0,0,.27,2.22,1.93,3.05"/>
          <path class="st0" d="M138.85,284.19l-.36-.93c.07-.03,1.73-.71,1.96-2.7l.47-4.11.53,4.11s.27,1.96,1.66,2.66l-.45.89c-.85-.43-1.38-1.15-1.7-1.83-.75,1.38-2.03,1.88-2.1,1.91Z"/>
        </g>
      </g>
    </g>
    <g>
      <path class="st16" d="M109.35,153.5s15.08,16.59,2.51,19.6c-12.56,3.02-6.03-15.08-6.03-15.08"/>
      <path class="st4" d="M109.3,173.94c-1.74,0-3.1-.54-4.06-1.61-3.59-4.01-.02-14.05.13-14.48l.94.34c-.04.1-3.52,9.9-.33,13.47,1.14,1.28,3.08,1.6,5.77.95,2.41-.58,3.89-1.72,4.4-3.39,1.71-5.55-7.08-15.3-7.17-15.39l.74-.67c.38.42,9.26,10.27,7.38,16.36-.63,2.03-2.35,3.4-5.12,4.06-.98.23-1.87.35-2.69.35Z"/>
    </g>
  </g>
  <g>
    <g>
      <g>
        <path class="st5" d="M334.57,159.39s9.29,11.1-3.86,12.43c-13.15,1.33-12.79,17.62-12.79,17.62l39.45,26.78,15.56-38.73s7.48-9.41-2.41-9.77c-9.89-.36-6.27-10.5-13.15-13.03-6.88-2.53-22.8,4.71-22.8,4.71Z"/>
        <path class="st0" d="M357.61,216.98l-40.18-27.28v-.26c0-.17-.22-16.77,13.23-18.12,3.47-.35,5.6-1.42,6.32-3.18,1.38-3.39-2.75-8.38-2.79-8.43l-.42-.5.6-.27c.66-.3,16.2-7.29,23.18-4.72,3.22,1.19,4.28,3.9,5.3,6.52,1.26,3.23,2.46,6.29,7.7,6.48,2.8.1,4.57.93,5.27,2.46,1.37,2.98-1.98,7.47-2.44,8.07l-15.77,39.24ZM318.42,189.17l38.72,26.29,15.4-38.28s3.55-4.52,2.36-7.09c-.53-1.16-2.01-1.79-4.4-1.88-5.9-.22-7.27-3.72-8.59-7.12-.99-2.53-1.92-4.91-4.71-5.94-5.88-2.17-18.93,3.18-21.84,4.44,1.09,1.46,3.87,5.66,2.54,8.93-.87,2.13-3.27,3.4-7.14,3.79-5.24.53-8.9,3.54-10.9,8.95-1.29,3.51-1.43,6.95-1.44,7.9Z"/>
      </g>
      <g>
        <path class="st16" d="M396.56,221.96c4.98,4.07-24.58,22.49-24.58,22.49-26.06,6.03-44.64-2.9-47.78-3.38-3.14-.48-.48-10.38-3.38-16.41l-.48,2.9c-13.75-11.58-28.99-8.73-28.99-8.73,2.17-21.72,7.25-32.5,14.27-38.45,11.71-9.92,25.1-8.57,25.1-8.57,1.21,19.55,16.89,33.54,16.89,33.54,0,0,23.17-14.96,22.92-37.64,0,0,25.82-.12,34.99,7.6,0,0,12.87,5.15,11.06,26.14-1.81,20.99-6.15,28.96-3.26,34.02,2.9,5.07-4.34,10.13-4.34,10.13,0,0-68.05,17.37-83.61,8.69"/>
        <path class="st4" d="M340.08,257.25c-6.96,0-11.96-.84-14.95-2.51l.49-.87c14.95,8.35,80.29-7.99,83.15-8.71.72-.53,6.61-5.07,4.12-9.43-1.75-3.07-.99-7.12.26-13.84.91-4.88,2.16-11.55,2.93-20.47.92-10.65-2.06-17.05-4.71-20.55-2.87-3.78-6.01-5.08-6.04-5.09l-.14-.08c-8.23-6.93-30.54-7.44-34.16-7.48-.11,22.41-22.92,37.41-23.16,37.56l-.32.21-.28-.25c-.16-.14-15.62-14.15-17.03-33.44-2.33-.11-14.04-.21-24.3,8.48-7.58,6.42-12.05,18.34-14.03,37.48,3.03-.37,16.09-1.28,28.08,8.38l.6-3.6.68,1.43c1.45,3.01,1.55,6.97,1.64,10.16.08,2.98.16,5.79,1.37,5.97.55.08,1.44.38,2.79.82,6.9,2.27,23.06,7.57,44.72,2.58,6.88-4.29,24.55-16.25,24.84-20.73.02-.38-.1-.67-.38-.9l.63-.77c.53.44.79,1.04.74,1.74-.16,2.53-4.51,6.94-12.91,13.1-6.18,4.53-12.4,8.42-12.46,8.45l-.15.06c-21.97,5.08-38.94-.49-45.33-2.59-1.26-.41-2.17-.71-2.63-.78-2.03-.31-2.11-3.24-2.21-6.94-.07-2.63-.15-5.56-.9-8.07l-.32,1.94-.67-.57c-13.4-11.29-28.43-8.65-28.58-8.62l-.66.12.07-.66c2-20.06,6.46-32.02,14.45-38.78,11.74-9.94,25.33-8.7,25.47-8.68l.42.04.03.42c1.09,17.68,14.33,30.93,16.44,32.94,2.78-1.92,22.59-16.31,22.38-37v-.5s.5,0,.5,0c1.04,0,26.01-.03,35.26,7.67,1.1.5,13.04,6.37,11.29,26.61-.77,8.97-2.03,15.67-2.94,20.57-1.26,6.71-1.95,10.41-.38,13.16,3.09,5.4-4.18,10.58-4.49,10.79l-.16.08c-.17.04-17.25,4.39-36.01,7.61-13.72,2.36-24.75,3.54-33.02,3.54Z"/>
      </g>
      <g>
        <path class="st2" d="M379.7,202.46c2.17,9.17,15.87,21.05,15.87,21.05"/>
        <path class="st0" d="M395.24,223.89c-.56-.49-13.84-12.1-16.02-21.32l.97-.23c2.11,8.91,15.57,20.67,15.71,20.79l-.66.75Z"/>
      </g>
    </g>
    <g>
      <g>
        <g>
          <path class="st15" d="M340.56,120.14s-6.64-2.52-4.87-8.96c1.77-6.44,6.04-3.7,6.04-3.7,0,0-4.02-4.83,1.75-8.05,4.54-2.54,7.75,2.47,7.75,2.47,0,0,2.78-6.87,10.31-2.81,7.53,4.06,1.13,9.46,1.13,9.46,0,0,6.45-.33,6.22,5.21s-6.66,5.63-6.66,5.63c0,0,2.96,1.66-.89,4.27-8.01,5.42-20.79-3.54-20.79-3.54Z"/>
          <path class="st0" d="M355.18,125.94c-6.93,0-14.11-4.84-14.86-5.36-.7-.29-6.88-3.08-5.11-9.53.65-2.37,1.71-3.85,3.17-4.41.78-.3,1.54-.28,2.16-.15-.44-.89-.83-2.15-.58-3.51.3-1.59,1.4-2.93,3.29-3.98,3.82-2.13,6.78.63,7.91,1.97.55-.95,1.75-2.56,3.77-3.28,2.01-.73,4.32-.4,6.86.97,2.4,1.3,3.72,2.88,3.91,4.71.21,2-.99,3.76-1.86,4.74,1.16.12,2.93.51,4.17,1.74.99.98,1.46,2.31,1.4,3.95-.18,4.44-4.04,5.66-6.02,5.99.23.32.42.72.44,1.21.04,1.04-.69,2.08-2.2,3.1-1.97,1.33-4.19,1.84-6.44,1.84ZM339.67,107.41c-.31,0-.63.05-.95.17-1.13.44-1.99,1.7-2.55,3.73-1.63,5.93,4.31,8.26,4.57,8.36l.11.06c.13.09,12.59,8.7,20.22,3.54,1.17-.8,1.78-1.56,1.76-2.22-.03-.73-.83-1.19-.83-1.2l-1.58-.9,1.82-.03c.24,0,5.96-.15,6.17-5.15.06-1.35-.31-2.42-1.1-3.2-1.64-1.62-4.57-1.5-4.6-1.5l-1.47.07,1.12-.95s2.6-2.24,2.34-4.72c-.16-1.48-1.29-2.8-3.39-3.93-2.27-1.23-4.3-1.53-6.04-.91-2.49.89-3.56,3.44-3.57,3.47l-.36.89-.52-.8c-.12-.19-3.02-4.58-7.09-2.3-1.61.9-2.55,2-2.79,3.28-.39,2.07,1.17,3.99,1.19,4.01l2,2.41-2.65-1.67s-.81-.5-1.79-.5Z"/>
        </g>
        <g>
          <path class="st14" d="M338.11,120.97s.17-7.5,13.43-4.01c9.99,2.63,8.72,10.64,8.72,10.64l-22.15-6.63Z"/>
          <path class="st0" d="M360.67,128.24l-23.07-6.9v-.38c.01-.09.09-2.31,2.19-3.89,2.43-1.83,6.42-2.02,11.87-.59,10.31,2.71,9.1,11.12,9.09,11.2l-.09.56ZM338.66,120.61l21.16,6.33c.07-1.83-.41-7.4-8.4-9.5-5.07-1.33-8.88-1.19-11.02.42-1.25.94-1.63,2.15-1.74,2.75Z"/>
        </g>
        <g>
          <path class="st16" d="M325.99,161.61c0-1.4-.1-5.06-4.81-5.06s-4.46,3.91-4.36,6.18,2.19,4.46,5.85,3.58c3.66-.87,3.31-3.31,3.31-4.71Z"/>
          <path class="st4" d="M321.08,167.02c-1.41,0-2.4-.48-3.03-.96-1.04-.79-1.67-1.99-1.72-3.31v-.12c-.07-1.53-.17-3.84,1.22-5.29.82-.85,2.04-1.29,3.64-1.29,3.52,0,5.31,1.87,5.31,5.56v.33c.03,1.39.08,3.97-3.7,4.87-.63.15-1.2.21-1.71.21ZM321.18,157.05c-1.31,0-2.3.33-2.92.98-1.09,1.14-1.01,3.12-.95,4.56v.12c.05,1.01.53,1.94,1.33,2.55.69.52,1.93,1.04,3.91.57,2.99-.71,2.96-2.47,2.93-3.88v-.35c0-1.96-.45-4.56-4.31-4.56Z"/>
        </g>
        <g>
          <path class="st0" d="M335.67,169.63s-3.31,2.27-2.09,4.19,12.21,3.14,20.06-6.1l-17.97,1.92Z"/>
          <path d="M338.49,172.09c-3.02,0-6.23-.45-9.28-1.68-7-2.83-11.46-9.03-13.28-18.41-2.61-13.51,2.7-21.56,7.61-25.94,7.38-6.56,18.86-9.14,27.92-6.27,7.19,2.28,12.58,7.86,14.81,15.32,2.84,9.5.24,20.14-7.13,29.2l-.78-.63c7.16-8.8,9.69-19.11,6.95-28.28-2.13-7.13-7.29-12.47-14.15-14.65-7.38-2.34-19-1.01-26.95,6.06-4.72,4.2-9.82,11.95-7.29,25,1.75,9.03,6.01,14.98,12.67,17.68,9.22,3.73,19.95.03,21.44-1.01l.57.82c-1.07.75-6.64,2.8-13.11,2.8Z"/>
          <g>
            <path class="st5" d="M358.75,163.99c14.19-17.44,8.56-38.64-7.44-43.72-14.65-4.65-40,5.16-34.89,31.63,5.35,27.68,32.56,18.61,34.89,16.98"/>
            <path class="st0" d="M338.49,172.09c-3.02,0-6.23-.45-9.28-1.68-7-2.83-11.46-9.03-13.28-18.41-2.61-13.51,2.7-21.56,7.61-25.94,7.38-6.56,18.86-9.14,27.92-6.27,7.19,2.28,12.58,7.86,14.81,15.32,2.84,9.5.24,20.14-7.13,29.2l-.78-.63c7.16-8.8,9.69-19.11,6.95-28.28-2.13-7.13-7.29-12.47-14.15-14.65-7.38-2.34-19-1.01-26.95,6.06-4.72,4.2-9.82,11.95-7.29,25,1.75,9.03,6.01,14.98,12.67,17.68,9.22,3.73,19.95.03,21.44-1.01l.57.82c-1.07.75-6.64,2.8-13.11,2.8Z"/>
          </g>
          <g>
            <path class="st15" d="M366.83,141.5c-.46-9.91-6.24-18.28-15.52-21.23-10.13-3.22-25.37.49-32.12,11.83,3.51,1.59,8.74,2.62,13.4-1.77,0,0,3.49,5.35,8.37-1.16,0,0,4.19,9.54,12.09,4.19,0,0,2.47,16.33,13.77,8.15Z"/>
            <path class="st0" d="M361.04,144.3c-.81,0-1.58-.15-2.31-.46-4.05-1.7-5.6-7.56-6.04-9.67-2.12,1.26-4.17,1.62-6.12,1.05-3.06-.88-4.96-3.77-5.71-5.13-1.59,1.91-3.18,2.86-4.87,2.8-1.7-.06-2.91-1.18-3.48-1.83-4.74,4.13-9.96,3.12-13.54,1.49l-.51-.23.29-.48c6.94-11.65,22.38-15.33,32.71-12.05,9.3,2.95,15.38,11.26,15.87,21.68v.27s-.21.16-.21.16c-2.2,1.59-4.23,2.39-6.08,2.39ZM353.43,132.49l.12.78c.01.08,1.24,7.82,5.58,9.64,2,.84,4.43.28,7.19-1.66-.56-9.87-6.34-17.71-15.16-20.51-9.82-3.12-24.42.27-31.25,11.12,3.39,1.4,8.11,2.07,12.33-1.91l.43-.41.33.5s1.2,1.78,3.03,1.84c1.46.05,2.98-.97,4.52-3.03l.51-.68.35.78s1.93,4.29,5.44,5.3c1.84.53,3.83.08,5.92-1.33l.66-.44Z"/>
          </g>
          <g>
            <path class="st5" d="M363.75,154.81s9.59,1.4,8.9-7.85c-.7-9.24-11.95-5.76-12.99-2.62"/>
            <path class="st0" d="M365.07,155.38c-.79,0-1.33-.07-1.39-.08l.14-.99s4.19.57,6.61-1.68c1.33-1.24,1.91-3.14,1.72-5.63-.31-4.06-2.69-5.2-4.64-5.44-3.32-.41-6.91,1.51-7.38,2.94l-.95-.32c.73-2.18,5.07-4.04,8.46-3.62,1.9.23,5.14,1.37,5.51,6.36.21,2.81-.47,4.98-2.04,6.44-1.85,1.72-4.45,2.02-6.04,2.02Z"/>
          </g>
          <g>
            <path class="st5" d="M364.45,149.75s1.92-3.31,4.36-4.19"/>
            <path class="st0" d="M364.88,150l-.87-.5c.08-.14,2.04-3.48,4.63-4.41l.34.94c-2.24.8-4.08,3.93-4.1,3.97Z"/>
          </g>
          <g>
            <path class="st0" d="M343.27,148.86s-.03,1.49.17,1.96-.06,1.05-.66.96-1.18-2.28-.93-4.01.44-1.88,1.38-1.66c.94.22-.07,1.75.06,2.74Z"/>
            <path class="st0" d="M342.89,152.3c-.06,0-.12,0-.18-.01-1.12-.16-1.6-2.88-1.36-4.57.16-1.11.31-1.69.74-1.99.38-.26.83-.18,1.25-.08.36.08.54.29.64.44.27.45.13,1.03-.03,1.64-.1.39-.2.8-.17,1.08v.04s0,.04,0,.04c-.01.67.03,1.53.12,1.75.18.42.13.9-.13,1.25-.21.27-.52.42-.88.42ZM342.71,146.54s-.06,0-.07,0c-.06.05-.17.33-.31,1.3-.22,1.57.3,3.26.58,3.46.03,0,.05-.04.06-.05.04-.05.05-.15,0-.25-.22-.51-.21-1.72-.21-2.13-.05-.46.08-.97.2-1.41.07-.28.19-.75.14-.88-.22-.04-.34-.05-.4-.05Z"/>
          </g>
          <g>
            <path class="st0" d="M328.03,148.67s-.03,1.49.17,1.96-.06,1.05-.66.96-1.18-2.28-.93-4.01.44-1.88,1.38-1.66-.07,1.75.06,2.74Z"/>
            <path class="st0" d="M327.65,152.1c-.06,0-.12,0-.19-.01-.53-.07-.93-.67-1.2-1.76-.22-.9-.28-1.95-.16-2.81.16-1.11.31-1.69.74-1.99.38-.26.83-.18,1.25-.08.36.08.54.29.64.44.27.45.13,1.03-.03,1.64-.1.39-.2.8-.17,1.08v.04s0,.04,0,.04c-.01.67.03,1.53.12,1.75.18.43.13.9-.13,1.25-.21.27-.52.42-.87.42ZM327.46,146.35s-.06,0-.07,0c-.06.05-.17.33-.31,1.3-.22,1.57.3,3.26.58,3.46.03,0,.05-.04.06-.05.04-.05.05-.15,0-.25-.22-.51-.21-1.72-.21-2.13-.05-.46.08-.97.2-1.41.07-.28.19-.75.14-.88-.22-.04-.34-.05-.4-.05Z"/>
          </g>
        </g>
        <g>
          <path class="st16" d="M369.86,158.64c0-1.4-.1-5.06-4.81-5.06s-4.46,3.91-4.36,6.18,2.19,4.46,5.85,3.58c3.66-.87,3.31-3.31,3.31-4.71Z"/>
          <path class="st4" d="M364.95,164.05c-1.41,0-2.4-.48-3.03-.96-1.04-.79-1.67-1.99-1.72-3.3v-.12c-.07-1.53-.17-3.85,1.22-5.3.82-.85,2.04-1.29,3.64-1.29,3.52,0,5.31,1.87,5.31,5.56v.33c.03,1.39.08,3.97-3.7,4.87-.63.15-1.2.21-1.71.21ZM365.05,154.08c-1.31,0-2.3.33-2.92.98-1.09,1.14-1.01,3.12-.95,4.56v.12c.05,1.01.53,1.94,1.33,2.55.69.52,1.93,1.04,3.91.57,2.99-.71,2.96-2.47,2.93-3.88v-.35c0-1.96-.45-4.56-4.31-4.56Z"/>
        </g>
        <ellipse class="st1" cx="350.06" cy="152.28" rx="3.49" ry="2.35" transform="translate(-24.8 80.11) rotate(-12.61)"/>
        <ellipse class="st1" cx="321.28" cy="152.62" rx="3.49" ry="2.35" transform="translate(-2.3 4.94) rotate(-.88)"/>
      </g>
      <g>
        <path class="st0" d="M335.62,157.08c-.12,0-2.88-.24-3.78-1.94-.47-.88-.35-1.94.34-3.16.68-1.2,1.57-1.89,2.66-2.05,2.13-.32,4.17,1.55,4.25,1.63l-.68.73s-1.77-1.63-3.42-1.37c-.77.12-1.42.64-1.94,1.56-.51.9-.62,1.64-.32,2.19.54,1.01,2.33,1.36,2.98,1.41l-.08,1Z"/>
        <rect class="st0" x="341.28" y="139.16" width="1" height="5.41" transform="translate(188.95 478.89) rotate(-88.15)"/>
        <rect class="st0" x="325.65" y="141.72" width="4.36" height="1" transform="translate(-5.31 12.92) rotate(-2.24)"/>
        <path class="st0" d="M337.95,162.36c-2.17-1.28-3.08-.59-3.09-.58l-.66-.75c.14-.13,1.45-1.18,4.26.47l-.51.86Z"/>
      </g>
    </g>
    <g>
      <path class="st6" d="M315.39,203.91c1.45,11.58,3.62,14.84,5.43,20.75"/>
      <path class="st0" d="M320.34,224.81c-.47-1.53-.95-2.86-1.46-4.26-1.43-3.92-2.91-7.96-3.98-16.57l.99-.12c1.06,8.5,2.52,12.49,3.93,16.36.49,1.35,1,2.75,1.48,4.31l-.96.29Z"/>
    </g>
  </g>
  <g>
    <path class="st12" d="M225.86,181.43s-7.72-2.9-8.45,1.93c-.72,4.83.72,5.31.72,5.31,0,0-6.27-2.9-7.24,5.07s-.06,7.96-.06,7.96c0,0-5.31.72-4.58,6.27s17.92,12.79,24.19,5.07c0,0,13.03-2.9,13.75-7.48.72-4.58-18.34-24.13-18.34-24.13Z"/>
    <path class="st0" d="M222.16,216.9c-1.78,0-3.71-.28-5.73-.85-5.7-1.62-10.29-5.06-10.67-8.01-.62-4.73,2.84-6.25,4.35-6.68-.2-.83-.29-2.78.3-7.68.33-2.72,1.3-4.55,2.89-5.44,1.28-.71,2.67-.65,3.67-.45-.26-.86-.38-2.25-.04-4.5.18-1.17.73-2.04,1.66-2.58,2.61-1.53,7.26.18,7.46.26.07.03.13.07.18.12,1.97,2.02,19.22,19.86,18.47,24.56-.73,4.62-12.36,7.48-13.97,7.85-1.9,2.24-4.93,3.41-8.57,3.41ZM211.13,201.29c.12.08.2.22.21.37.02.26-.17.49-.43.53-.2.03-4.81.74-4.16,5.71.33,2.54,4.7,5.69,9.95,7.18,5.82,1.65,10.81.77,13.35-2.36.07-.09.17-.15.28-.17,3.53-.79,12.82-3.59,13.37-7.07.5-3.17-10.53-15.83-18.12-23.62-.67-.23-4.49-1.48-6.5-.29-.66.39-1.04,1-1.17,1.87-.6,4.01.34,4.72.42,4.77,0,0,.02,0,.02,0,.24.11.35.39.26.64-.1.25-.37.37-.62.29-.02,0-.06-.02-.09-.04-.32-.14-2.41-.94-4.11.01-1.29.72-2.09,2.3-2.38,4.68-.72,5.95-.37,7.26-.27,7.5ZM210.85,201.2s.02,0,.03,0c-.01,0-.02,0-.03,0ZM210.85,201.2h0,0ZM210.85,201.2h0,0ZM210.84,201.2h0,0Z"/>
  </g>
  <g>
    <g>
      <path class="st5" d="M220.69,410.73s-2,14.7-11.36,17.37c-9.35,2.67-15.36,16.03,9.35,13.36,24.72-2.67,34.07-8.02,33.4-12.69-.67-4.68-4.68-20.71-4.68-20.71"/>
      <path class="st0" d="M212.66,442.32c-9.3,0-11.47-3.1-11.88-5.17-.7-3.59,3.23-8.04,8.41-9.52,8.93-2.55,10.98-16.81,11-16.96l.99.13c-.08.61-2.16,15.05-11.71,17.78-4.63,1.32-8.3,5.31-7.7,8.37.34,1.72,2.65,5.55,16.87,4.01,17.15-1.85,28.86-5.33,32.13-9.52.68-.87.96-1.74.83-2.6-.66-4.6-4.63-20.5-4.67-20.66l.97-.24c.16.66,4.02,16.11,4.69,20.76.16,1.13-.19,2.26-1.04,3.36-3.48,4.48-15.13,7.99-32.81,9.9-2.31.25-4.32.36-6.08.36Z"/>
    </g>
    <g>
      <path class="st11" d="M213.68,421.51s15.7,1.25,22.38,15.94c0,0,12.69-4.68,16.7-8.68s5.34,4.68,1.34,8.68c-4.01,4.01-39.92,23.66-63.46,5.34-12.02-9.35,23.05-21.29,23.05-21.29Z"/>
      <path class="st4" d="M214.62,450.94c-8.43,0-16.97-2.06-24.29-7.75-2.08-1.62-2.97-3.44-2.64-5.42,1.4-8.34,24.83-16.4,25.83-16.74l.1-.03h.1c.16.02,15.76,1.42,22.6,15.82,2.25-.86,12.62-4.93,16.09-8.41.66-.66,1.3-1.05,1.91-1.15.62-.11,1.19.08,1.65.53,1.78,1.78,1.34,7.15-1.51,10.01-3.05,3.05-21.17,13.13-39.83,13.13ZM213.74,422.02c-1.7.59-23.81,8.43-25.06,15.92-.27,1.61.47,3.07,2.26,4.46,23.02,17.91,58.46-.96,62.8-5.3,2.56-2.56,2.81-7.29,1.51-8.59-.23-.23-.47-.31-.77-.26-.39.07-.87.37-1.37.87-4.04,4.04-16.36,8.61-16.88,8.8l-.44.16-.19-.42c-6.2-13.64-20.52-15.5-21.86-15.64Z"/>
    </g>
    <g>
      <path class="st5" d="M288.68,413.49s4.01,16.03,4.68,20.71c.67,4.68-8.68,10.02-33.4,12.69-24.72,2.67-18.71-10.69-9.35-13.36,9.35-2.67,11.36-17.37,11.36-17.37"/>
      <path class="st0" d="M253.93,447.75c-9.3,0-11.47-3.1-11.88-5.17-.7-3.59,3.23-8.04,8.41-9.53,8.93-2.55,10.98-16.81,11-16.96l.99.13c-.08.61-2.16,15.05-11.71,17.78-4.63,1.32-8.3,5.31-7.71,8.37.34,1.72,2.65,5.55,16.87,4.01,17.16-1.86,28.86-5.33,32.13-9.52.68-.87.96-1.75.83-2.6-.66-4.6-4.63-20.5-4.67-20.66l.97-.24c.16.66,4.02,16.11,4.69,20.76.16,1.13-.19,2.26-1.03,3.36-3.48,4.48-15.13,7.99-32.81,9.91-2.3.25-4.32.36-6.08.36Z"/>
    </g>
    <g>
      <path class="st11" d="M254.94,426.94s15.7,1.25,22.38,15.94c0,0,12.69-4.68,16.7-8.68,4.01-4.01,5.34,4.68,1.34,8.68-4.01,4.01-39.92,23.66-63.46,5.34-12.02-9.35,23.05-21.29,23.05-21.29Z"/>
      <path class="st4" d="M255.88,456.37c-8.43,0-16.97-2.06-24.29-7.75-2.08-1.62-2.97-3.44-2.64-5.42,1.4-8.34,24.83-16.4,25.83-16.74l.1-.03h.1c.16.02,15.76,1.42,22.6,15.82,2.25-.86,12.62-4.93,16.09-8.41.66-.66,1.3-1.04,1.91-1.15.62-.11,1.19.08,1.65.53,1.78,1.78,1.34,7.15-1.51,10.01-3.05,3.05-21.17,13.13-39.83,13.13ZM255,427.45c-1.7.59-23.81,8.43-25.06,15.92-.27,1.61.47,3.07,2.26,4.46,23.02,17.91,58.46-.96,62.8-5.3,2.56-2.56,2.81-7.29,1.51-8.59-.23-.23-.47-.31-.77-.26-.39.07-.87.37-1.37.87-4.04,4.04-16.36,8.61-16.88,8.8l-.44.16-.19-.42c-6.2-13.64-20.53-15.5-21.87-15.64Z"/>
    </g>
    <g>
      <path class="st3" d="M223.69,283.26s-20.63,33.12-4.89,126.5c0,0,11.94,11.4,31.49.54l2.71-68.95,4.89,74.92s22.8,15.2,38.01.54c0,0,0-88.5.54-97.73.54-9.23-4.89-28.78-16.29-39.09-11.4-10.32-55.38,0-55.38,0"/>
      <path class="st0" d="M279.76,423.65c-11.51,0-21.99-6.86-22.14-6.96l-.21-.14-.02-.25-4.26-65.38-2.35,59.68-.25.14c-19.64,10.91-31.96-.5-32.08-.62l-.12-.11-.03-.16c-15.6-92.5,4.75-126.52,4.96-126.85l.85.53c-.21.33-20.31,34.06-4.85,125.98,1.28,1.11,12.72,10.25,30.54.5l2.7-68.67h1s4.87,74.66,4.87,74.66c2.29,1.44,23.04,13.86,37.02.61,0-4.87.02-88.62.54-97.54.55-9.35-4.88-28.51-16.12-38.69-11.08-10.02-54.49.01-54.93.12l-.23-.97c1.81-.42,44.37-10.26,55.83.12,11.48,10.38,17.01,29.94,16.45,39.49-.54,9.11-.54,96.81-.54,97.7v.21l-.15.15c-5.02,4.84-10.88,6.47-16.49,6.47Z"/>
    </g>
    <g>
      <polyline class="st3" points="236.36 312.03 253.55 319.09 253.01 342.98"/>
      <polygon class="st0" points="253.51 342.99 252.51 342.97 253.04 319.42 236.17 312.5 236.55 311.57 254.06 318.76 253.51 342.99"/>
    </g>
  </g>
  <path d="M271.02,316.73c-2.35-8.32,1.84-13.71,2.02-13.94l.78.62c-.04.05-4.04,5.24-1.84,13.05l-.96.27Z"/>
  <path d="M276.4,316.41c-1.56-8.39,2.02-11.39,2.18-11.51l.63.78-.31-.39.32.39s-3.27,2.8-1.82,10.55l-.98.18Z"/>
  <g>
    <path class="st12" d="M276.76,182.87s8.71-3.27,9.53,2.18c.82,5.45-.82,5.99-.82,5.99,0,0,7.08-3.27,8.17,5.72,1.09,8.98-4.63,8.98-4.63,8.98,0,0,5.99.82,5.17,7.08-.82,6.26-15.52,14.43-22.6,5.72,0,0-14.7-3.27-15.52-8.44-.82-5.17,20.69-27.23,20.69-27.23Z"/>
    <path class="st0" d="M279.83,222.83c-3.42,0-6.4-1.32-8.52-3.84-1.74-.4-14.91-3.61-15.74-8.81-.83-5.27,18.61-25.38,20.83-27.65.05-.05.11-.09.18-.12.22-.08,5.45-2.01,8.36-.29,1.02.6,1.64,1.57,1.84,2.87.39,2.63.24,4.21-.08,5.15,1.12-.24,2.73-.34,4.2.48,1.77.99,2.86,3.04,3.23,6.09.43,3.52-.11,6.15-1.58,7.81-.55.62-1.16,1.02-1.71,1.27,1.85.8,4.41,2.72,3.84,7.1-.47,3.61-5.25,7.8-10.66,9.33-1.45.41-2.85.61-4.19.61ZM277.03,183.3c-5.99,6.15-21.11,22.69-20.47,26.72.63,3.97,11.14,7.14,15.13,8.03.11.02.21.09.28.17,3.66,4.51,8.95,3.84,11.77,3.03,5.06-1.43,9.52-5.25,9.94-8.5.74-5.68-4.52-6.49-4.75-6.52-.26-.04-.45-.27-.43-.53.02-.26.24-.47.5-.47.06,0,1.6-.03,2.81-1.41,1.27-1.45,1.71-3.81,1.33-7.01-.33-2.71-1.24-4.5-2.72-5.33-1.94-1.08-4.31-.17-4.69-.02-.04.02-.08.03-.1.04-.25.08-.53-.04-.62-.29s.01-.53.25-.64c0,0,.03-.01.06-.03.1-.07,1.15-.93.47-5.44-.15-1-.59-1.7-1.36-2.15-2.31-1.36-6.68.08-7.4.33Z"/>
  </g>
  <path class="st15" d="M278.13,471.05c-2.76,0-5-2.24-5-5v-139.75c0-6.77,1.03-12.13,3.05-15.95,2.27-4.28,5.95-6.74,10.1-6.74,8.75,0,16.43,10.79,16.43,23.09,0,2.76-2.24,5-5,5s-5-2.24-5-5c0-8.01-4.52-13.09-6.43-13.09-.26,0-.77.49-1.27,1.42-.7,1.33-1.88,4.56-1.88,11.27v139.75c0,2.76-2.24,5-5,5Z"/>
  <g>
    <g>
      <path class="st5" d="M192.33,226.29c-11.18,8.29-23.67,21.46-29.13,23.53s-8.43,5.92-9.77,10.81c-1.35,4.89-.52,4.78,1.99,6,0,0,.99,4.6,4.9,2.26,0,0,.11,3.75,3.35,2.35,3.25-1.4,7.81-7.34,10.03-6.72s7.63,2.12,9.01-.48c6.79,3.07,28.79.74,36.97-16.04,8.17-16.78,4.71-29.68,4.71-29.68,0,0-20.88-.33-32.06,7.96Z"/>
      <path d="M162.36,272.06c-.45,0-.85-.11-1.21-.34-.77-.49-1.09-1.4-1.23-2.05-1.02.46-1.94.51-2.76.16-1.39-.61-1.98-2.22-2.17-2.84l-.37-.17c-2.3-1.07-2.97-1.63-1.68-6.31,1.49-5.43,4.89-9.18,10.08-11.15,3.01-1.14,8.29-5.81,14.39-11.22,4.58-4.05,9.76-8.65,14.62-12.25l.3.4-.3-.4c11.19-8.29,31.5-8.07,32.37-8.06h.38s.1.37.1.37c.04.13,3.41,13.27-4.75,30.02-7.98,16.39-29.61,19.44-37.22,16.45-1.85,2.43-7.05.98-9.34.34-1-.28-3.1,1.56-4.95,3.18-1.61,1.42-3.28,2.89-4.75,3.52-.55.24-1.05.35-1.51.35ZM160.79,268.03l.03.85c.01.41.2,1.57.87,2,.42.27,1.02.24,1.78-.09,1.32-.57,2.93-1.98,4.49-3.35,2.33-2.05,4.35-3.82,5.87-3.39,1.98.55,7.24,2.02,8.44-.23l.22-.41.43.19c6.96,3.15,28.44.35,36.31-15.8,7.23-14.84,5.23-26.74,4.77-28.96-2.91.01-21.28.39-31.36,7.86h0c-4.83,3.58-10,8.15-14.55,12.19-6.18,5.47-11.52,10.2-14.7,11.41-4.95,1.87-8.04,5.3-9.47,10.48-1.12,4.08-.78,4.24,1.14,5.13l.81.38.05.24s.42,1.85,1.65,2.39c.68.29,1.52.14,2.5-.45l.73-.44Z"/>
    </g>
    <path d="M155.65,266.53l-.9-.43c3.71-7.81,10.41-9.11,10.7-9.16l.18.98c-.06.01-6.49,1.28-9.97,8.61Z"/>
    <path d="M160.84,269.61l-.86-.51c4.35-7.35,9.03-7.23,9.22-7.23l-.04,1,.02-.5-.02.5s-4.3-.04-8.32,6.74Z"/>
  </g>
  <g>
    <path class="st11" d="M236.36,206.7s-31.76-10.76-44.82,18.76c0,0,16.01,23.91,14.42,38.61,35.29-10.32,30.4-57.37,30.4-57.37Z"/>
    <path class="st4" d="M205.38,264.76l.08-.74c1.56-14.35-14.18-38.04-14.34-38.28l-.15-.23.11-.25c13.1-29.6,45.12-19.14,45.44-19.03l.3.1.03.32c.05.47,4.52,47.59-30.76,57.9l-.72.21ZM192.11,225.42c1.71,2.6,15.39,23.84,14.41,37.96,32.21-10.03,29.7-52.15,29.37-56.3-3.28-.98-31.68-8.58-43.79,18.34Z"/>
  </g>
  <g>
    <path class="st11" d="M236.72,203.45s-21.39,13.8-17.37,36.38c2.1,11.81,2.71,15.75,2.71,15.75,0,0-5.43,20.81-4.34,29.32.99,7.77,67.32,8.87,72.21,7.6,13.21-5.61,10.86-78.18,10.86-78.18,0,0-28.78-29.86-64.07-10.86Z"/>
    <path class="st4" d="M279.2,293.39c-18.32,0-53.38-1.64-60.5-6.46-.89-.6-1.39-1.27-1.48-1.98-1.06-8.29,3.87-27.64,4.33-29.41-.11-.69-.8-4.98-2.7-15.63-4.02-22.64,17.38-36.74,17.6-36.88l.03-.02c35.22-18.96,64.37,10.65,64.66,10.95l.13.14v.19c.1,2.98,2.22,72.98-11.16,78.66-1.06.28-5.17.44-10.93.44ZM236.98,203.88c-.67.44-21,14.13-17.14,35.86,2.08,11.68,2.71,15.72,2.72,15.76l.02.1-.03.1c-.05.21-5.39,20.82-4.33,29.13.05.42.4.84,1.05,1.28,9.22,6.24,66.22,7.02,70.54,5.9,12.35-5.25,10.61-73.29,10.49-77.48-2.17-2.14-30-28.57-63.32-10.64Z"/>
  </g>
  <g>
    <path class="st5" d="M278.17,291.94s-11.94,1.81-13.75,5.07,1.81,8.69,4.34,7.24"/>
    <path d="M267.86,304.99c-.79,0-1.63-.39-2.4-1.15-1.72-1.7-2.75-4.81-1.49-7.07,1.88-3.37,12.87-5.13,14.12-5.32l.15.99c-3.25.49-12.01,2.32-13.39,4.82-1.01,1.82-.1,4.47,1.32,5.87.39.38,1.4,1.22,2.34.69l.5.87c-.36.2-.74.3-1.14.3Z"/>
  </g>
  <g>
    <path class="st5" d="M285.41,263.71c-6.04,12.54-10.97,30.01-14.84,34.39s-6.5,7.59-5.42,12.54c1.08,4.96,3.57,6.05,6.35,5.96,0,0,3.02,3.61,5.39-.28,0,0,1.84,3.27,4.06.52s3.49-10.13,5.75-10.62c2.26-.48,7.74-1.67,7.75-4.62,7.43-.44,25.83-12.75,25.26-31.4-.57-18.65-9.63-28.46-9.63-28.46,0,0-18.63,9.42-24.67,21.96Z"/>
    <path d="M274.32,318.62c-1.43,0-2.61-1.08-3.04-1.52h-.08c-3.51,0-5.59-2.03-6.54-6.35-1.18-5.4,1.93-8.91,5.53-12.98,2.14-2.41,4.63-9,7.52-16.63,2.16-5.71,4.62-12.19,7.24-17.64h0c6.05-12.55,24.13-21.8,24.9-22.19l.34-.17.26.28c.09.1,9.2,10.16,9.77,28.78.56,18.23-17.17,30.98-25.3,31.88-.5,3.01-5.79,4.15-8.11,4.64-1.02.22-2.02,2.82-2.9,5.12-.77,2.01-1.56,4.08-2.57,5.33-.74.92-1.53,1.35-2.4,1.28-.91-.08-1.62-.73-2.04-1.24-.69.88-1.48,1.36-2.37,1.42-.07,0-.14,0-.21,0ZM271.73,316.09l.16.19s1.27,1.44,2.58,1.34c.73-.06,1.41-.58,2-1.56l.44-.73.42.74c.2.36.9,1.3,1.7,1.36.5.03,1.02-.27,1.54-.91.91-1.12,1.67-3.12,2.41-5.05,1.11-2.9,2.07-5.4,3.62-5.74,2.01-.43,7.35-1.58,7.36-4.13v-.47s.47-.03.47-.03c7.62-.46,25.34-12.92,24.79-30.88-.51-16.5-7.81-26.1-9.25-27.85-2.57,1.36-18.65,10.25-24.1,21.55h0c-2.61,5.41-5.05,11.87-7.21,17.56-2.92,7.72-5.45,14.39-7.71,16.94-3.95,4.47-6.32,7.44-5.3,12.1,1.11,5.07,3.71,5.64,5.85,5.56h.24Z"/>
  </g>
  <g>
    <path class="st11" d="M275.45,233.31s-1.63,28.59,5.97,33.3c7.6,4.71,27.87,11.58,38.73-.72,10.86-12.31-3.44-74.92-59.36-67.32"/>
    <path class="st4" d="M303.18,273.29c-8.62,0-17.34-3.36-22.02-6.26-7.76-4.81-6.28-32.57-6.21-33.75l1,.06c-.02.28-1.53,28.35,5.74,32.85,7.92,4.9,27.65,11.2,38.09-.63,5.01-5.68,4.61-23.2-3.98-39.25-6.47-12.09-22.22-31.7-54.94-27.25l-.13-.99c33.32-4.53,49.36,15.46,55.96,27.77,7.05,13.17,10.36,32.99,3.85,40.38-4.62,5.24-10.96,7.08-17.35,7.08Z"/>
  </g>
  <g>
    <path class="st5" d="M236.72,203.45s-4.89,24.69,10.09,23.08c14.98-1.6,22.2-25.94,22.2-25.94l-2.14-10.7"/>
    <path d="M245.46,227.1c-2.69,0-4.87-.9-6.51-2.69-5.6-6.12-2.84-20.46-2.72-21.06l.98.19c-.03.14-2.78,14.45,2.48,20.2,1.69,1.84,4.07,2.61,7.07,2.29,13.95-1.49,21.17-23.66,21.74-25.47l-2.12-10.57.98-.2,2.16,10.82-.04.12c-.02.06-1.87,6.22-5.53,12.48-4.9,8.37-10.81,13.14-17.09,13.82-.48.05-.95.08-1.41.08Z"/>
  </g>
  <g>
    <path class="st12" d="M270.15,192.41s-4.36,4.9.54,10.89c4.9,5.99,10.89,0,10.89,0,0,0,3.7,11.43,11.38,3.54,0,0,2.67-6.53-5.17-7.08"/>
    <path class="st0" d="M287.84,210.12c-.36,0-.71-.04-1.05-.12-3.03-.71-4.79-4.29-5.41-5.84-1.03.84-3.32,2.41-5.99,2.3-1.9-.1-3.61-1.05-5.08-2.84-5.11-6.25-.58-11.49-.53-11.54.18-.21.5-.23.71-.04.21.18.23.5.04.71-.17.19-4,4.67.56,10.24,1.28,1.56,2.74,2.39,4.35,2.47,3.07.15,5.77-2.48,5.8-2.51.12-.12.3-.17.47-.13.17.04.3.17.36.33.02.05,1.7,5.12,4.95,5.88,1.68.39,3.53-.44,5.52-2.46.16-.45.84-2.6-.19-4.24-.76-1.22-2.3-1.91-4.59-2.07-.28-.02-.48-.26-.46-.53.02-.28.26-.48.53-.46,2.63.18,4.44,1.04,5.37,2.54,1.41,2.26.28,5.1.23,5.22-.02.06-.06.11-.1.16-1.9,1.95-3.74,2.93-5.49,2.93Z"/>
  </g>
  <g>
    <g>
      <path class="st11" d="M225.76,196.39c0-.89-.09-3.22-3.09-3.2s-2.82,2.51-2.75,3.96,1.42,2.83,3.75,2.25c2.33-.58,2.09-2.13,2.09-3.02Z"/>
      <path class="st4" d="M222.64,200.04c-.77,0-1.47-.21-2.03-.63-.71-.53-1.15-1.34-1.19-2.23-.06-1.08-.13-2.6.8-3.59.55-.59,1.38-.89,2.44-.9,1.62,0,3.57.61,3.59,3.69v.21c.03.93.08,2.67-2.47,3.3-.4.1-.78.15-1.15.15ZM222.72,193.69h-.04c-.79,0-1.37.2-1.73.58-.64.68-.57,1.89-.53,2.78.03.67.32,1.21.79,1.56.59.44,1.4.54,2.34.31,1.76-.44,1.73-1.43,1.71-2.3v-.22c-.02-1.26-.32-2.7-2.54-2.7Z"/>
    </g>
    <path class="st0" d="M241.25,206.2s-3.43,2.39-2.14,4.38c1.29,1.99,12.75,3.16,20.84-6.54l-18.7,2.16Z"/>
    <g>
      <path class="st5" d="M265.24,200.12c14.62-18.3,8.57-40.33-8.14-45.48-15.3-4.72-41.63,5.73-36.06,33.26,5.82,28.78,34.08,19.09,36.49,17.38"/>
      <path d="M243.94,208.71c-3.06,0-6.31-.45-9.4-1.67-7.31-2.88-12.01-9.29-13.98-19.05-2.84-14.05,2.62-22.47,7.69-27.07,7.62-6.9,19.55-9.68,29.01-6.77,7.5,2.31,13.17,8.07,15.55,15.81,3.04,9.86.43,20.96-7.17,30.46l-.78-.62c7.38-9.24,9.93-20,6.99-29.54-2.28-7.42-7.71-12.94-14.89-15.15-8.99-2.77-20.78-.01-28.04,6.56-4.88,4.42-10.13,12.54-7.38,26.13,1.9,9.4,6.4,15.56,13.37,18.32,9.64,3.81,20.8-.15,22.34-1.25l.58.81c-1.12.8-7.03,3.03-13.89,3.03Z"/>
    </g>
    <path class="st0" d="M243.94,208.71c-3.06,0-6.31-.45-9.4-1.67-7.31-2.88-12.01-9.29-13.98-19.05-2.84-14.05,2.62-22.47,7.69-27.07,7.62-6.9,19.55-9.68,29.01-6.77,7.5,2.31,13.17,8.07,15.55,15.81,3.04,9.86.43,20.96-7.17,30.46l-.78-.62c7.38-9.24,9.93-20,6.99-29.54-2.28-7.42-7.71-12.94-14.89-15.15-8.99-2.77-20.78-.01-28.04,6.56-4.88,4.42-10.13,12.54-7.38,26.13,1.9,9.4,6.4,15.56,13.37,18.32,9.64,3.81,20.8-.15,22.34-1.25l.58.81c-1.12.8-7.03,3.03-13.89,3.03Z"/>
    <g>
      <path class="st12" d="M273.46,176.62c-.57-10.32-6.66-18.99-16.36-21.98-10.58-3.26-26.43.73-33.36,12.61,3.67,1.62,9.13,2.65,13.95-1.96,0,0,3.68,5.54,8.71-1.29,0,0,4.45,9.9,12.64,4.25,0,0,2.72,16.99,14.42,8.37Z"/>
      <path class="st0" d="M267.4,179.56c-.82,0-1.6-.15-2.34-.46-4.24-1.74-5.91-7.87-6.37-10.03-2.2,1.34-4.34,1.73-6.38,1.16-3.2-.9-5.21-3.91-6-5.31-1.65,2.02-3.33,3.05-5.05,2.98-1.78-.04-3.05-1.21-3.63-1.89-4.9,4.36-10.34,3.34-14.09,1.69-.13-.06-.23-.17-.27-.3-.04-.14-.03-.28.04-.41,7.12-12.19,23.16-16.16,33.94-12.84,9.71,2.99,16.11,11.59,16.71,22.43,0,.17-.07.33-.2.43-2.29,1.69-4.42,2.54-6.35,2.54ZM259.03,167.75c.07,0,.13.01.2.04.16.07.27.21.3.38.01.08,1.36,8.15,5.91,10.01,2.11.86,4.63.25,7.51-1.81-.66-10.29-6.77-18.42-15.99-21.26-10.27-3.17-25.48.51-32.49,11.9,3.54,1.44,8.49,2.11,12.88-2.09.11-.1.25-.15.4-.14.15.02.28.1.36.22.01.02,1.27,1.86,3.19,1.9,1.51.02,3.11-1.04,4.7-3.2.11-.14.28-.22.46-.2.18.02.33.13.4.29.02.04,2.05,4.46,5.73,5.48,1.93.54,4,.06,6.17-1.44.08-.06.18-.09.28-.09Z"/>
    </g>
    <g>
      <path class="st5" d="M270.37,190.51s10.01,1.37,9.2-8.26c-.81-9.62-12.5-5.89-13.56-2.61"/>
      <path class="st0" d="M271.64,191.08c-.76,0-1.27-.07-1.33-.07l.13-.99s4.38.56,6.88-1.82c1.38-1.31,1.97-3.3,1.75-5.9-.36-4.24-2.86-5.41-4.9-5.65-3.49-.4-7.2,1.65-7.69,3.15l-.95-.31c.73-2.27,5.24-4.24,8.75-3.83,1.97.23,5.35,1.38,5.78,6.56.25,2.92-.45,5.18-2.06,6.71-1.95,1.85-4.73,2.16-6.37,2.16Z"/>
    </g>
    <g>
      <path class="st5" d="M271.05,185.23s1.97-3.47,4.51-4.4"/>
      <path class="st0" d="M271.49,185.48l-.87-.49c.08-.15,2.09-3.64,4.77-4.62l.34.94c-2.34.86-4.22,4.14-4.24,4.18Z"/>
    </g>
    <path class="st0" d="M236.86,194.15c-.52,0-1.05-.1-1.51-.36-.89-.51-1.38-1.5-1.45-2.95-.07-1.42.33-2.52,1.19-3.27,1.69-1.47,4.52-.95,4.64-.92l-.19.98s-2.47-.45-3.8.7c-.61.53-.9,1.36-.85,2.46.05,1.09.37,1.8.95,2.13,1.05.6,2.83-.1,3.43-.41l.47.88c-.08.04-1.46.76-2.88.76Z"/>
    <g>
      <path class="st11" d="M274.4,191.43c0-.89-.09-3.22-3.09-3.2s-2.82,2.51-2.75,3.96,1.42,2.83,3.75,2.25c2.33-.58,2.09-2.13,2.09-3.02Z"/>
      <path class="st4" d="M271.28,195.08c-.77,0-1.47-.21-2.03-.63-.71-.53-1.15-1.34-1.19-2.23-.06-1.08-.13-2.6.8-3.59.55-.59,1.38-.89,2.44-.9h.05c1.61,0,3.52.65,3.54,3.69v.21c.03.93.08,2.67-2.47,3.3-.4.1-.78.15-1.15.15ZM271.36,188.73h-.05c-.79,0-1.37.2-1.72.58-.64.68-.57,1.89-.53,2.78.03.67.32,1.21.79,1.56.59.44,1.4.54,2.34.31,1.76-.44,1.73-1.43,1.71-2.31v-.22c-.02-1.26-.32-2.7-2.54-2.7Z"/>
    </g>
    <ellipse class="st1" cx="256.08" cy="187.99" rx="3.63" ry="2.45" transform="translate(-35.95 62.94) rotate(-13.1)"/>
    <ellipse class="st1" cx="226.1" cy="188.61" rx="3.63" ry="2.45" transform="translate(-4.44 5.45) rotate(-1.37)"/>
    <path class="st0" d="M251.84,196.52c-3.16-5.93-7.6-8.54-7.64-8.56l.5-.87c.19.11,4.73,2.78,8.02,8.96l-.88.47Z"/>
    <g>
      <path class="st0" d="M247.02,176c-7.47,0-16.23-1.67-16.72-1.77l.19-.98c.16.03,16.08,3.07,23.16,1.05l.28.96c-1.88.54-4.32.74-6.91.74Z"/>
      <g>
        <path class="st0" d="M248.92,181.63s-.03,1.43.16,1.88-.06,1.01-.64.92-1.13-2.19-.9-3.84c.23-1.66.42-1.8,1.32-1.59s-.07,1.68.05,2.63Z"/>
        <path class="st0" d="M248.55,184.94c-.06,0-.12,0-.18-.01-.52-.07-.91-.65-1.17-1.71-.21-.87-.27-1.88-.15-2.7.15-1.07.3-1.63.72-1.92.37-.25.8-.18,1.21-.08.35.08.53.28.62.43.27.44.12,1-.03,1.59-.1.37-.2.76-.16,1.03v.04s0,.04,0,.04c-.01.64.03,1.47.12,1.68.18.42.13.88-.13,1.22-.2.27-.51.41-.85.41ZM248.39,179.42s-.06,0-.07,0c-.05.05-.15.31-.28,1.23-.21,1.49.28,3.11.55,3.3-.02-.02.01-.02.03-.04.03-.03.04-.12,0-.22-.21-.49-.21-1.66-.2-2.05-.05-.45.08-.93.19-1.36.07-.27.18-.71.14-.83-.19-.03-.3-.03-.36-.03Z"/>
      </g>
      <g>
        <path class="st0" d="M234.29,181.44s-.03,1.43.16,1.88-.06,1.01-.64.92-1.13-2.19-.9-3.84c.23-1.66.42-1.8,1.32-1.59s-.07,1.68.05,2.63Z"/>
        <path class="st0" d="M233.92,184.76c-.06,0-.12,0-.18-.01-1.09-.15-1.55-2.78-1.32-4.41.15-1.07.3-1.63.72-1.92.37-.25.8-.18,1.21-.08.35.08.53.28.62.43.27.44.12,1-.03,1.59-.1.37-.2.76-.16,1.03v.04s0,.04,0,.04c-.01.64.03,1.47.12,1.67.18.42.13.88-.13,1.22-.2.27-.51.41-.85.41ZM233.76,179.24s-.06,0-.07,0c-.05.05-.15.31-.28,1.23-.21,1.49.28,3.11.55,3.31-.02-.02.01-.02.03-.04.03-.03.04-.12,0-.22-.21-.49-.21-1.65-.2-2.05-.05-.45.08-.93.19-1.36.07-.27.18-.71.14-.83-.19-.03-.3-.03-.36-.03Z"/>
      </g>
    </g>
    <path class="st0" d="M242.73,199.02c-.11-.1-2.78-2.34-7.5-.98l-.27-.96c5.27-1.5,8.3,1.08,8.43,1.19l-.66.75Z"/>
  </g>
  <g>
    <path class="st17" d="M437.56,222.2l2.52,7.75c4.6,14.17,17.81,23.76,32.71,23.76h8.15c4.7,0,6.66,6.02,2.85,8.78l-6.59,4.79c-12.05,8.76-17.1,24.28-12.49,38.45l2.52,7.75c1.45,4.47-3.66,8.19-7.47,5.43l-6.59-4.79c-12.05-8.76-28.37-8.76-40.43,0l-6.59,4.79c-3.8,2.76-8.92-.95-7.47-5.43l2.52-7.75c4.6-14.17-.44-29.69-12.49-38.45l-6.59-4.79c-3.8-2.76-1.85-8.78,2.85-8.78h8.15c14.9,0,28.1-9.59,32.71-23.76l2.52-7.75c1.45-4.47,7.78-4.47,9.23,0Z"/>
    <path class="st0" d="M403.28,320.35c-1.1,0-2.19-.35-3.15-1.04-1.91-1.39-2.67-3.74-1.94-5.98l2.52-7.75c4.55-14.01-.4-29.23-12.31-37.89l-6.59-4.79c-1.91-1.39-2.67-3.74-1.94-5.99s2.73-3.7,5.09-3.7h8.15c14.73,0,27.68-9.41,32.23-23.42l2.52-7.75c.73-2.25,2.73-3.7,5.09-3.7s4.36,1.45,5.09,3.7h0s2.52,7.75,2.52,7.75c4.55,14.01,17.5,23.42,32.23,23.42h8.15c2.36,0,4.36,1.45,5.09,3.7s-.03,4.6-1.94,5.99l-6.6,4.79c-11.91,8.66-16.86,23.88-12.31,37.89l2.52,7.75c.73,2.25-.03,4.6-1.95,5.98-1.91,1.39-4.38,1.39-6.29,0l-6.6-4.79c-11.91-8.66-27.92-8.66-39.84,0l-6.59,4.79c-.96.69-2.05,1.04-3.15,1.04ZM384.95,254.21c-1.92,0-3.55,1.18-4.14,3.01-.59,1.83.03,3.74,1.58,4.87l6.59,4.79c12.27,8.91,17.36,24.59,12.67,39.01l-2.52,7.75c-.59,1.83.03,3.74,1.58,4.87,1.55,1.13,3.56,1.13,5.12,0l6.59-4.79c12.27-8.91,28.75-8.91,41.01,0l6.6,4.79c1.55,1.13,3.56,1.13,5.12,0,1.55-1.13,2.18-3.04,1.58-4.87l-2.52-7.75c-4.68-14.42.41-30.09,12.67-39.01l6.6-4.79c1.55-1.13,2.17-3.04,1.58-4.87-.59-1.83-2.22-3.01-4.14-3.01h-8.15c-15.16,0-28.5-9.69-33.18-24.11l-2.52-7.75c-.59-1.83-2.22-3.01-4.14-3.01s-3.55,1.18-4.14,3.01l-2.52,7.75c-4.69,14.42-18.02,24.11-33.18,24.11h-8.15Z"/>
  </g>
  <g>
    <g>
      <g>
        <path class="st9" d="M360.24,416.26s6.3,6.04-.26,11.29c-6.56,5.25-20.74,5.78-25.99,8.14s-16.28,4.46-24.94,1.58c-8.66-2.89-20.74-7.35-8.14-18.91,12.6-11.55,59.34-2.1,59.34-2.1Z"/>
        <path class="st0" d="M318.53,439.17c-3.24,0-6.57-.41-9.65-1.43-6.43-2.14-12.8-4.63-13.8-9.3-.65-3.06,1.14-6.48,5.48-10.45,5.33-4.89,17.04-6.74,34.77-5.51,13.14.91,24.89,3.27,25.01,3.29l.14.03.1.1c.12.12,3.03,2.95,2.87,6.54-.09,2.04-1.16,3.9-3.17,5.5-4.25,3.4-11.37,4.81-17.65,6.06-3.53.7-6.58,1.3-8.45,2.15-3.28,1.47-9.31,3.03-15.66,3.03ZM325.48,413.13c-10.06,0-19.59,1.33-24.25,5.59-4,3.67-5.74,6.86-5.17,9.51.96,4.5,8.58,7.04,13.13,8.56,8.84,2.95,19.77.61,24.58-1.56,1.98-.89,5.08-1.5,8.67-2.22,5.86-1.16,13.16-2.61,17.22-5.86,1.77-1.42,2.71-3.02,2.79-4.76.13-2.79-1.98-5.17-2.47-5.68-1.78-.35-18.79-3.59-34.51-3.59Z"/>
      </g>
      <g>
        <g>
          <path class="st5" d="M352.89,367.59s5.33,37.2,6.21,39.13,8.75,12.95-3.68,17.33c-12.43,4.38-31.16,10.15-33.96,10.15-2.8,0-7.53,2.1-9.98-2.1,0,0-6.3,1.05-6.3-2.63,0,0-2.98,1.23-5.25-1.75,0,0-4.38-.88-3.5-5.25.88-4.38,8.58-8.93,12.95-10.33,4.38-1.4,20.55-6.68,20.72-10.53s-6.61-39.48-6.61-39.48l29.39,5.45Z"/>
          <path class="st0" d="M316.38,435.22c-1.88,0-3.8-.51-5.15-2.58-1.01.12-4.01.36-5.57-.96-.49-.42-.8-.94-.92-1.57-1.07.21-3.29.3-5.1-1.94-.38-.1-1.27-.39-2.1-1.03-1.01-.79-2.11-2.25-1.61-4.76.96-4.81,9.27-9.42,13.29-10.71,12.66-4.05,20.27-7.82,20.38-10.07.17-3.75-6.54-39.01-6.61-39.36l-.14-.72,30.47,5.65.05.35c2.14,14.93,5.55,37.63,6.17,38.99.09.19.25.48.45.84,1.2,2.14,4,7.16,2.35,11.5-.95,2.51-3.23,4.42-6.77,5.67-11.64,4.1-31.1,10.18-34.12,10.18-.62,0-1.36.11-2.14.23-.9.14-1.92.29-2.94.29ZM311.75,431.55l.17.3c1.71,2.93,4.65,2.49,7.25,2.09.82-.12,1.6-.24,2.29-.24,2.67,0,21.12-5.66,33.79-10.12,3.25-1.14,5.32-2.85,6.16-5.08,1.48-3.91-1.16-8.64-2.29-10.66-.22-.39-.39-.7-.49-.91-.86-1.88-5.45-33.73-6.2-38.91l-28.32-5.25c.99,5.2,6.65,35.27,6.48,38.88-.13,2.85-7.22,6.55-21.07,10.98-4.07,1.3-11.77,5.74-12.62,9.95-.77,3.82,2.95,4.63,3.11,4.66l.18.04.12.15c2,2.62,4.56,1.63,4.67,1.59l.69-.28v.74c0,.61.21,1.08.63,1.44,1.24,1.05,4.1.86,5.09.69l.34-.06Z"/>
        </g>
        <path class="st0" d="M311,432.22c-.58-2.41-.22-4.47,1.06-6.12,3.1-3.99,10.49-4.12,10.8-4.13v1c-.06,0-7.21.14-10.01,3.74-1.08,1.4-1.38,3.17-.87,5.27l-.97.23Z"/>
        <path class="st0" d="M304.7,429.96c-2.03-7.39,8.63-10.73,8.74-10.76l.29.96c-.1.03-9.84,3.09-8.07,9.54l-.96.27Z"/>
        <path class="st0" d="M299.63,428.03c-2.03-7.39,8.63-10.73,8.74-10.76l.29.96c-.1.03-9.84,3.09-8.07,9.54l-.96.27Z"/>
        <g>
          <path class="st11" d="M313.55,425.48c2.08-1.19,4.4,1.2,3.06,3.18-.02.03-.04.06-.06.09-2.05,2.93-6.22,3.38-6.34.64-.07-1.62,1.8-3.03,3.33-3.91Z"/>
          <path class="st0" d="M312.26,431.71c-.32,0-.62-.04-.89-.12-1.01-.29-1.61-1.09-1.66-2.18-.08-1.87,1.91-3.4,3.58-4.37h0c1.34-.77,2.7-.29,3.46.53.89.96,1,2.28.27,3.36l-.07.09c-1.26,1.79-3.19,2.68-4.7,2.68ZM314.7,425.66c-.29,0-.59.07-.91.25h0c-2.03,1.16-3.13,2.39-3.08,3.46.03.66.34,1.09.94,1.26,1.18.35,3.24-.39,4.49-2.17.61-.91.33-1.72-.12-2.2-.3-.32-.77-.6-1.32-.6Z"/>
        </g>
        <g>
          <path class="st11" d="M306.61,424.05c1.65-1.08,3.65.77,2.65,2.47-.01.02-.03.05-.05.07-1.55,2.51-4.94,3.09-5.15.84-.13-1.33,1.34-2.59,2.55-3.39Z"/>
          <path class="st0" d="M305.68,429.34c-.21,0-.41-.02-.6-.07-.88-.2-1.43-.86-1.52-1.79-.12-1.25.84-2.58,2.77-3.85h0c1.1-.72,2.27-.38,2.96.27.8.77.96,1.92.4,2.88-.96,1.56-2.61,2.57-4.01,2.57ZM306.88,424.46c-1.58,1.04-2.41,2.08-2.33,2.92.05.51.29.81.75.92.96.22,2.55-.47,3.48-1.97.44-.74.18-1.36-.19-1.71-.37-.35-1.04-.6-1.72-.15h0Z"/>
        </g>
        <g>
          <path class="st11" d="M302.06,421.42c1.65-1.08,3.65.77,2.65,2.47-.01.02-.03.05-.05.07-1.55,2.51-4.94,3.09-5.15.84-.13-1.33,1.34-2.59,2.55-3.39Z"/>
          <path class="st0" d="M301.13,426.71c-.21,0-.41-.02-.6-.07-.88-.2-1.43-.86-1.52-1.79-.12-1.25.84-2.58,2.77-3.85l.27.42-.27-.42c1.09-.72,2.27-.39,2.95.27.8.77.96,1.92.4,2.88-.96,1.56-2.6,2.57-4.01,2.57ZM303.09,421.6c-.24,0-.5.07-.76.24-1.58,1.04-2.41,2.08-2.33,2.92.05.51.29.81.75.92.96.22,2.55-.47,3.48-1.97.44-.74.18-1.36-.19-1.71-.23-.22-.57-.39-.96-.39Z"/>
        </g>
        <g>
          <path class="st11" d="M298.08,418.81c1.26-.83,2.8.59,2.03,1.89-.01.02-.02.04-.03.06-1.19,1.92-3.78,2.37-3.95.64-.1-1.02,1.02-1.98,1.95-2.59Z"/>
          <path class="st0" d="M297.36,422.98c-.16,0-.33-.02-.48-.05-.72-.17-1.18-.71-1.26-1.48-.1-1.02.64-2.04,2.18-3.06h0c.77-.51,1.74-.42,2.41.22.66.62.79,1.57.33,2.35-.76,1.23-2.06,2.02-3.18,2.02ZM298.35,419.23h0c-1.16.76-1.79,1.54-1.73,2.13.03.34.19.53.49.6.7.16,1.88-.39,2.54-1.46.3-.51.13-.92-.12-1.17-.25-.24-.71-.41-1.17-.11Z"/>
        </g>
        <g>
          <path class="st9" d="M335.29,433.59s1.58-13.39-19.17-24.68l7.09-4.2s18.12,7.35,19.43,24.42"/>
          <path class="st0" d="M335.79,433.65l-.99-.12c.02-.13,1.25-13.21-18.91-24.18l-.77-.42,8.06-4.78.23.09c.18.07,18.42,7.67,19.74,24.84l-1,.08c-1.2-15.53-16.83-22.98-18.9-23.9l-6.12,3.63c20,11.23,18.72,24.2,18.66,24.75Z"/>
        </g>
      </g>
    </g>
    <g>
      <g>
        <path class="st9" d="M417.94,407.05s8.2,1.69,10.13,8.2c1.93,6.52-.48,12.55-12.07,18.1-11.58,5.55-21.23,12.55-29.92,12.31-8.69-.24-26.06-7-27.75-12.31s4.83-13.51,14-14.24c9.17-.72,45.61-12.07,45.61-12.07Z"/>
        <path class="st0" d="M386.54,446.16c-.15,0-.31,0-.46,0-4.24-.12-10.79-1.8-16.68-4.29-3.08-1.3-10.38-4.72-11.53-8.36-.7-2.21-.11-4.96,1.64-7.56,2.17-3.23,6.67-6.84,12.79-7.33,9.01-.71,45.13-11.93,45.5-12.04l.12-.04.13.03c.35.07,8.52,1.83,10.51,8.55,2.26,7.64-1.66,13.58-12.33,18.69-3.12,1.49-6.08,3.09-8.96,4.63-7.71,4.14-14.4,7.73-20.74,7.73ZM417.96,407.56c-2.75.85-36.65,11.34-45.59,12.05-5.77.46-10,3.86-12.04,6.89-1.57,2.34-2.13,4.78-1.52,6.7,1.55,4.88,18.5,11.71,27.29,11.96,6.18.16,12.92-3.43,20.69-7.61,2.88-1.55,5.86-3.15,9-4.65,10.15-4.86,13.9-10.42,11.8-17.5-1.7-5.73-8.63-7.59-9.64-7.83Z"/>
      </g>
      <g>
        <g>
          <path class="st5" d="M417.2,404.68c2.11,3.35,4.19,8.88,3.71,11.88-.48,3-1.42,6.7-7.58,10.73-6.17,4.03-18.21,10.66-21.58,11.41-3.38.75-6.22,1.22-8.24-1.81,0,0-3.31,1.38-5.64.21-2.33-1.17-2.78-2.45-2.78-2.45,0,0-2.89,1.4-4.72.47-1.82-.94-2.26-2.42-2.26-2.42,0,0-4.33,1.01-6.16-1.59-1.83-2.6-1.98-7.41,6.54-14.54,8.53-7.13,13.16-11.77,13.16-11.77,0,0-1.02-7.87-1.58-9.05s-9.14-51.06-9.14-51.06l35.65-1.31s8.51,57.97,10.62,61.31Z"/>
          <path class="st0" d="M387.98,439.76c-1.71,0-3.34-.52-4.66-2.27-.98.34-3.63,1.08-5.68.05-1.66-.83-2.43-1.72-2.78-2.25-.93.37-3.13,1.09-4.72.27-1.39-.72-2.06-1.73-2.34-2.3-1.19.19-4.59.5-6.27-1.87-1.6-2.27-2.87-7.26,6.63-15.21,7.5-6.28,12.04-10.67,12.96-11.57-.41-3.14-1.13-7.86-1.5-8.65-.57-1.21-8.3-46.07-9.18-51.19l-.1-.56,36.67-1.34.07.44c2.36,16.09,8.86,58.44,10.54,61.12h0c2.25,3.58,4.28,9.13,3.79,12.23-.52,3.22-1.59,7-7.8,11.07-6.07,3.97-18.23,10.7-21.75,11.48-1.26.28-2.59.57-3.88.57ZM383.7,436.27l.23.34c1.79,2.69,4.22,2.38,7.71,1.6,3.13-.7,14.91-7.08,21.42-11.34,5.87-3.84,6.86-7.24,7.36-10.39.45-2.83-1.54-8.19-3.64-11.53h0c-2.06-3.28-9.77-55.28-10.62-61.06l-34.63,1.27c2.43,14.11,8.5,49.06,9.01,50.38.57,1.2,1.51,8.37,1.62,9.19l.03.24-.17.17s-4.75,4.74-13.2,11.8c-8.88,7.43-7.86,11.88-6.46,13.87,1.62,2.29,5.6,1.4,5.64,1.4l.46-.11.13.45s.42,1.3,2.01,2.12c1.57.81,4.24-.46,4.27-.47l.5-.24.19.53s.45,1.12,2.54,2.17c2.1,1.05,5.19-.21,5.22-.22l.38-.16Z"/>
        </g>
        <g>
          <path class="st5" d="M387.97,426.14s-9.4,6.04-4.51,10.85"/>
          <path class="st0" d="M383.11,437.34c-1.17-1.15-1.68-2.46-1.53-3.9.41-4.01,5.89-7.57,6.13-7.72l.54.84c-.05.03-5.31,3.46-5.67,6.99-.12,1.14.29,2.15,1.24,3.08l-.7.71Z"/>
        </g>
        <g>
          <path class="st5" d="M380.63,423.23s-10.09,7.1-5.2,11.9"/>
          <path class="st0" d="M375.08,435.49c-1.09-1.07-1.59-2.34-1.47-3.76.36-4.38,6.47-8.72,6.73-8.91l.58.82c-.06.04-5.99,4.26-6.31,8.17-.09,1.13.29,2.1,1.18,2.97l-.7.71Z"/>
        </g>
        <g>
          <path class="st5" d="M373.72,420.97s-9.83,8.05-4.94,12.86"/>
          <path class="st0" d="M368.43,434.18c-1.07-1.05-1.57-2.32-1.51-3.77.21-4.64,6.22-9.62,6.48-9.83l.63.77c-.06.05-5.93,4.91-6.12,9.1-.05,1.18.34,2.16,1.21,3.02l-.7.71Z"/>
        </g>
        <g>
          <path class="st11" d="M362.15,424.35c1.56-2.04,4.84-.64,4.35,1.88,0,.04-.01.07-.02.11-.81,3.76-4.73,5.94-5.99,3.27-.74-1.58.52-3.76,1.66-5.26Z"/>
          <path class="st0" d="M362.22,431.3c-.96,0-1.75-.52-2.19-1.47-.84-1.8.47-4.14,1.72-5.78h0c.98-1.29,2.51-1.39,3.58-.91,1.25.56,1.92,1.84,1.65,3.19l-.02.12c-.6,2.78-2.72,4.63-4.42,4.83-.11.01-.21.02-.31.02ZM364.07,423.87c-.52,0-1.09.21-1.53.78h0c-.89,1.17-2.27,3.33-1.61,4.75.31.66.82.96,1.49.88,1.32-.15,3.06-1.74,3.56-4.05h.51s-.49-.1-.49-.1c.21-1.08-.45-1.8-1.08-2.08-.25-.11-.54-.18-.85-.18Z"/>
        </g>
        <g>
          <path class="st11" d="M368.95,427.61c1.22-1.6,3.78-.5,3.39,1.47,0,.03-.01.06-.02.09-.63,2.94-3.7,4.64-4.68,2.55-.58-1.24.4-2.93,1.3-4.11Z"/>
          <path class="st0" d="M369.01,433.15c-.79,0-1.45-.43-1.81-1.21-.54-1.15-.07-2.75,1.36-4.63h0c.8-1.06,2.05-1.14,2.93-.74,1.03.46,1.57,1.51,1.35,2.61l-.02.11c-.48,2.21-2.18,3.69-3.54,3.85-.09,0-.17.01-.26.01ZM370.45,427.35c-.38,0-.79.15-1.11.57h0c-1.17,1.54-1.61,2.81-1.25,3.6.22.48.57.68,1.05.63,1-.11,2.3-1.32,2.68-3.07.17-.86-.29-1.37-.77-1.59-.18-.08-.39-.13-.61-.13Z"/>
        </g>
        <g>
          <path class="st11" d="M375.7,429.87c1.22-1.6,3.78-.5,3.39,1.47,0,.03-.01.06-.02.09-.63,2.94-3.7,4.64-4.68,2.55-.58-1.24.4-2.93,1.3-4.11Z"/>
          <path class="st0" d="M375.76,435.4c-.79,0-1.44-.43-1.81-1.21-.54-1.15-.07-2.75,1.36-4.63h0c.8-1.06,2.05-1.14,2.93-.74,1.03.46,1.57,1.51,1.36,2.61l-.02.1c-.48,2.21-2.18,3.69-3.54,3.85-.09,0-.17.01-.26.01ZM377.21,429.6c-.38,0-.79.15-1.11.57h0c-1.17,1.54-1.61,2.81-1.25,3.6.22.48.57.68,1.05.63,1-.11,2.3-1.32,2.68-3.08.17-.86-.29-1.37-.77-1.59-.18-.08-.39-.13-.61-.13Z"/>
        </g>
        <g>
          <path class="st11" d="M383.08,431.72c1.22-1.6,3.78-.5,3.39,1.47,0,.03-.01.06-.02.09-.63,2.94-3.7,4.64-4.68,2.55-.58-1.24.4-2.93,1.3-4.11Z"/>
          <path class="st0" d="M383.14,437.26c-.79,0-1.44-.43-1.81-1.21-.54-1.15-.07-2.75,1.35-4.63h0c.81-1.06,2.05-1.14,2.93-.74,1.03.46,1.57,1.51,1.35,2.61l-.02.11c-.48,2.21-2.18,3.69-3.55,3.85-.09,0-.17.01-.26.01ZM383.48,432.02h0c-1.17,1.54-1.61,2.82-1.25,3.6.22.48.57.68,1.05.63,1-.11,2.3-1.32,2.68-3.07.17-.86-.29-1.37-.77-1.59-.48-.22-1.22-.23-1.72.44Z"/>
        </g>
      </g>
      <g>
        <path class="st9" d="M404.91,434.56s-10.62-12.79-20.27-17.13c-9.65-4.34-13.75-3.86-13.75-3.86,0,0,1.45-6.52,8.69-6.52,7.24,0,24.85,13.27,32.58,22.2"/>
        <path class="st0" d="M404.53,434.88c-.11-.13-10.66-12.75-20.09-17-9.36-4.21-13.46-3.83-13.49-3.82l-.69.08.15-.68c.02-.07,1.62-6.91,9.17-6.91s25.31,13.54,32.95,22.37l-.76.65c-7.35-8.5-25.07-22.03-32.2-22.03-5.51,0-7.46,3.94-8.01,5.5,1.58.04,5.78.54,13.28,3.92,9.65,4.34,20.01,16.74,20.45,17.27l-.77.64Z"/>
      </g>
    </g>
    <g>
      <path class="st13" d="M408.8,244.71c7.6,9.77,11.4,22.26,11.94,31.49.54,9.23-11.94,51.58-13.57,54.84-1.63,3.26,9.77,64.61,9.77,64.61,0,0-16.43,14.66-35.43,7.06l-23.75-67.32,2.71-16.29s-7.6,16.83-7.6,20.09c0,3.26,4.89,54.84,4.89,54.84,0,0-12.63,6.52-31.09,3.26l-14.52-69.5,16.29-72.75,80.35-10.32Z"/>
      <path class="st0" d="M392.71,405.37c-3.61,0-7.45-.63-11.39-2.2l-.21-.08-.08-.21-23.79-67.45,2.08-12.5c-2.47,5.7-5.96,14.19-5.96,16.26,0,3.2,4.84,54.27,4.88,54.79l.03.34-.3.16c-.13.07-12.99,6.56-31.41,3.3l-.33-.06-14.61-69.93.02-.11,16.37-73.09.35-.04,80.64-10.35.17.23c8.12,10.44,11.55,23.26,12.05,31.77.55,9.27-11.77,51.38-13.62,55.09-1.14,2.28,5.25,39.7,9.82,64.29l.05.28-.21.19c-.13.12-10.68,9.35-24.56,9.35ZM381.9,402.32c17.26,6.76,32.53-5.24,34.49-6.87-1.39-7.51-11.31-61.37-9.67-64.64,1.48-2.95,14.06-45.43,13.52-54.58-.49-8.3-3.81-20.77-11.67-30.99l-79.72,10.23-16.19,72.31,14.42,69.06c16.37,2.79,28.14-2.19,30.14-3.12-.46-4.89-4.86-51.4-4.86-54.54,0-3.33,7.33-19.6,7.65-20.29l1.58-3.5-3.32,19.95,23.63,66.99Z"/>
    </g>
    <polygon class="st0" points="343.09 345.81 338.74 341.9 348.14 339.88 334.93 335.05 335.27 334.11 351.74 340.14 340.87 342.47 343.76 345.07 343.09 345.81"/>
    <polygon class="st0" points="400.83 341.31 381.83 341.31 399.95 335.27 400.27 336.22 387.99 340.31 400.83 340.31 400.83 341.31"/>
    <path class="st0" d="M409.25,396.85c-.11-.46-11.03-46.47-13.97-56.44-2.5-8.49,3.53-29.52,7.52-43.42.86-2.98,1.6-5.56,2.17-7.73,3.29-12.32-3.88-28.54-3.96-28.7l.91-.41c.3.68,7.39,16.71,4.01,29.37-.58,2.18-1.32,4.76-2.18,7.75-3.96,13.8-9.94,34.65-7.52,42.87,2.94,9.99,13.87,56.03,13.98,56.49l-.97.23Z"/>
    <path class="st0" d="M405.67,279.62s-5.05-1.77-10.49-5.13c-5.06-3.12-11.55-8.31-13.79-15.3l.95-.3c4.11,12.87,23.46,19.73,23.66,19.79l-.33.95Z"/>
    <polygon class="st0" points="362.04 288.66 341.82 279.92 342.22 279 362.17 287.63 371.8 286.02 371.96 287.01 362.04 288.66"/>
    <path class="st0" d="M360.98,319.12l-1-.05,1.61-30.59-10.7-4.28-6.69-12.82,4.53-19.26,7.43,3.71-.08.38c-.03.13-2.67,12.95-1.1,17.66l7.48,13.88.16.07-.02.36-1.63,30.95ZM351.6,283.41l9.41,3.76-6.95-12.9c-1.55-4.62.52-15.65.96-17.88l-5.61-2.8-4.16,17.66,6.34,12.16Z"/>
    <polygon class="st0" points="350.07 390.83 341.51 335.34 341.54 335.23 356.74 285.83 357.7 286.12 342.53 335.42 351.05 390.68 350.07 390.83"/>
    <g>
      <path class="st5" d="M404.64,216.66c-6.56,18.72-28.1,38.1-38.5,41.99-10.4,3.89-46.15,5.11-57.79-11.03,0,0-7.26,3.39-11.65,1.17-4.64-2.34-1.7-5.98-1.7-5.98,0,0-3.6,1.31-5.08-1.74-1.48-3.05.75-5.19.75-5.19,0,0-3.97-.44-4.37-3.4-.4-2.96,1.28-4.37,1.28-4.37-2.18,1.62-4.95.69-5.54-2.89-.59-3.58,4.83-10.01,12.51-13.08,11.18-4.46,22.12,2.28,25.03,3.72s31.85,11.38,35.83,7.68c0,0,11.94-11.94,18.46-26.78"/>
      <path class="st0" d="M346.84,261.62c-14.02,0-30.95-3.12-38.66-13.38-1.58.68-7.68,3.03-11.71,1-1.59-.8-2.54-1.85-2.81-3.12-.21-.98.03-1.9.33-2.56-1.51.18-3.5-.17-4.52-2.27-1.1-2.28-.31-4.12.31-5.07-1.29-.32-3.65-1.23-3.98-3.67-.19-1.39.05-2.47.38-3.25-.69.15-1.39.1-2.04-.17-1.36-.55-2.28-1.91-2.59-3.83-.62-3.77,4.73-10.4,12.82-13.62,10.42-4.15,20.65,1.23,24.51,3.25.37.19.68.36.93.48,1.3.64,9.01,3.44,17.42,5.73,13.99,3.81,17.14,2.69,17.84,2.03.11-.11,11.94-12.04,18.34-26.62l.92.4c-6.48,14.76-18.44,26.82-18.56,26.94-4.4,4.08-33.95-6.37-36.41-7.59-.26-.13-.58-.29-.95-.49-3.74-1.97-13.68-7.2-23.67-3.21-7.54,3.01-12.75,9.21-12.21,12.53.25,1.56.96,2.65,1.98,3.06.86.35,1.87.17,2.76-.49l.62.78c-.06.05-1.46,1.3-1.1,3.92.34,2.53,3.9,2.96,3.94,2.97l1.05.12-.75.74c-.08.08-1.94,1.95-.65,4.62,1.26,2.6,4.33,1.53,4.46,1.49l1.66-.59-1.09,1.38s-1.06,1.35-.75,2.79c.21.95.98,1.77,2.28,2.43,4.12,2.08,11.14-1.15,11.21-1.18l.38-.17.24.34c11.62,16.11,47.83,14.36,57.21,10.86,10.68-4,31.9-23.7,38.2-41.69l.94.33c-6.5,18.55-27.68,38.14-38.8,42.29-3.68,1.38-11.05,2.5-19.47,2.5Z"/>
    </g>
    <path class="st0" d="M295,243.31c-.1,0-.2-.03-.28-.09-.23-.16-.29-.47-.13-.69,2.69-3.96,10.65-4.21,10.98-4.21.29.01.51.21.51.49,0,.28-.21.51-.49.51-.08,0-7.78.24-10.18,3.78-.1.14-.25.22-.41.22Z"/>
    <path class="st0" d="M290.67,236.37c-.14,0-.28-.06-.38-.17-.18-.21-.16-.53.05-.71,6.3-5.4,14-5.77,14.32-5.79.26-.03.51.2.52.48.01.28-.2.51-.48.52-.08,0-7.68.38-13.71,5.55-.09.08-.21.12-.33.12Z"/>
    <path class="st0" d="M287.57,228.6c-.1,0-.21-.03-.3-.1-.22-.17-.26-.48-.1-.7,4.85-6.45,16.87-7.75,17.38-7.8.27-.02.52.17.55.45.03.27-.17.52-.45.55-.12.01-12.1,1.31-16.69,7.41-.1.13-.25.2-.4.2Z"/>
    <g>
      <path class="st11" d="M285.12,221.45c.86-.05,3.64,1.57,3.22,3.2s-1.99,3.81-4.03,2.1c-2.05-1.72-.05-5.24.81-5.29Z"/>
      <path class="st0" d="M285.79,227.87c-.5,0-1.12-.17-1.8-.74-1.04-.88-1.34-2.28-.82-3.86.36-1.09,1.16-2.27,1.92-2.31.71-.07,2.28.72,3.15,1.78.55.67.76,1.38.59,2.04-.31,1.21-1.17,2.61-2.37,2.99-.19.06-.42.1-.67.1ZM285.16,221.95c-.26.09-.95.97-1.18,2.12-.14.68-.14,1.64.64,2.29.54.45,1.05.6,1.52.45.8-.26,1.46-1.35,1.71-2.29.09-.34-.04-.73-.39-1.16-.68-.82-1.91-1.41-2.3-1.41h0Z"/>
    </g>
    <g>
      <path class="st16" d="M381.47,177.2c-6.15,3.26-17.01,27.15-17.01,27.15,16.65,7.6,37.28,25.34,37.28,25.34,0,0,3.78-5.07,5.59-12.31"/>
      <path class="st4" d="M401.82,230.42l-.41-.35c-.21-.18-20.77-17.78-37.16-25.26l-.45-.21.21-.45c.45-.98,11-24.08,17.23-27.38l.47.88c-5.48,2.9-15.05,23.16-16.58,26.46,15.13,7.04,33.52,22.31,36.52,24.85.93-1.37,3.74-5.83,5.2-11.69l.97.24c-1.81,7.25-5.52,12.27-5.68,12.48l-.32.43Z"/>
    </g>
  </g>
  <path d="M270.66,316.44c-.35-8.64,4.98-12.91,5.21-13.09l.62.79c-.05.04-5.15,4.16-4.82,12.26l-1,.04Z"/>
  <path d="M277.69,316.7l-1-.05c.43-8.53,4.62-10.61,4.8-10.69l.43.9-.21-.45.22.45s-3.83,1.96-4.23,9.84Z"/>
  <g>
    <path class="st11" d="M242.33,247.97s6.52,18.28,22.8,18.46"/>
    <path class="st4" d="M265.13,266.93c-6.81-.08-13-3.36-17.89-9.49-3.67-4.6-5.31-9.12-5.37-9.31l.94-.34c.06.18,6.59,17.95,22.34,18.13v1Z"/>
  </g>
  <g>
    <path class="st3" d="M241.25,408.13s-2.17-74.38,6.52-92.3"/>
    <path class="st0" d="M240.75,408.15c0-.19-.54-18.85,0-39.46.72-27.72,2.93-45.58,6.56-53.07l.9.44c-8.54,17.6-6.49,91.32-6.47,92.07l-1,.03Z"/>
  </g>
</svg>