<?xml version="1.0" encoding="UTF-8"?>
<svg id="Layer_1" xmlns="http://www.w3.org/2000/svg" xmlns:xlink="http://www.w3.org/1999/xlink" version="1.1" viewBox="0 0 705.9 573.52">
  <!-- Generator: Adobe Illustrator 29.8.2, SVG Export Plug-In . SVG Version: 2.1.1 Build 3)  -->
  <defs>
    <style>
      .st0 {
        fill: none;
      }

      .st1 {
        fill: #0c0907;
      }

      .st2 {
        fill: #6d4524;
      }

      .st3 {
        fill: #c4c65c;
      }

      .st4 {
        fill: #889594;
      }

      .st5 {
        fill: #271911;
      }

      .st6 {
        fill: #a56d3f;
      }

      .st7 {
        fill: #9ea440;
      }

      .st8 {
        fill: #c68d52;
      }

      .st9 {
        fill: #ffff06;
      }

      .st10 {
        fill: #fed87d;
      }

      .st11 {
        fill: #ffcb70;
      }

      .st12 {
        fill: #c7e5da;
      }

      .st13 {
        fill: #fff;
      }

      .st14 {
        fill: #ac743e;
      }

      .st15 {
        fill: #fdf0b7;
      }

      .st16 {
        fill: #c6abb2;
      }

      .st17 {
        fill: #8b9a9f;
      }

      .st18 {
        fill: #5c3c1f;
      }

      .st19 {
        fill: #2a2520;
      }

      .st20 {
        fill: #e29f3e;
      }

      .st21 {
        fill: #ff8c6d;
      }

      .st22 {
        clip-path: url(#clippath);
      }
    </style>
    <clipPath id="clippath">
      <path class="st0" d="M111.7,499.44h523.43v-97.24s103.51-185.06-3.53-267.4c-107.04-82.34-189.37-23.52-189.37-23.52,0,0,8.23-51.75-12.94-74.1-21.17-22.35-54.11,10.59-54.11,10.59,0,0-62.34-85.87-190.55,23.52C56.41,180.68,37.54,411.52,111.7,499.44Z"/>
    </clipPath>
  </defs>
  <g>
    <g>
      <path class="st12" d="M111.7,499.44h523.43v-97.24s103.51-185.06-3.53-267.4c-107.04-82.34-189.37-23.52-189.37-23.52,0,0,8.23-51.75-12.94-74.1-21.17-22.35-54.11,10.59-54.11,10.59,0,0-62.34-85.87-190.55,23.52C56.41,180.68,37.54,411.52,111.7,499.44Z"/>
      <path class="st1" d="M635.62,499.94H111.46l-.15-.18c-36.15-42.87-51.3-121.96-39.54-206.42,12.7-91.19,53.72-172.26,112.52-222.44,48.26-41.18,92.75-59.68,132.22-54.99,36.28,4.31,55.9,27.54,58.71,31.1,2.83-2.68,19.8-18.11,36.43-18.11h.36c6.8.09,12.73,2.76,17.62,7.93,19.37,20.44,14.26,65.72,13.23,73.41,4.43-2.87,24.15-14.72,53.83-18.57,31.08-4.04,79.77.1,135.2,42.74,24.52,18.86,39.96,44.71,45.89,76.82,4.74,25.66,3.46,55.35-3.81,88.26-12.07,54.62-36.92,100.23-38.36,102.84v97.61h0ZM111.93,498.94h522.69v-96.87l.06-.11c.26-.46,25.99-46.87,38.33-102.71,7.24-32.77,8.51-62.33,3.79-87.85-5.89-31.86-21.21-57.5-45.52-76.2-30.43-23.41-78.45-49.79-134.4-42.55-33.47,4.33-54.17,18.89-54.38,19.03l-.97.69.19-1.18c.08-.52,7.95-51.77-12.81-73.68-4.7-4.97-10.39-7.53-16.91-7.62h-.35c-17.7,0-35.94,18.03-36.13,18.21l-.41.41-.34-.47c-.19-.27-19.72-26.56-58.39-31.15-39.18-4.64-83.4,13.78-131.43,54.76-58.62,50.02-99.51,130.87-112.18,221.81-11.71,84.07,3.29,162.76,39.16,205.46v.02Z"/>
    </g>
    <g>
      <path class="st12" d="M111.7,499.44h523.43v-97.24s103.51-185.06-3.53-267.4c-107.04-82.34-189.37-23.52-189.37-23.52,0,0,8.23-51.75-12.94-74.1-21.17-22.35-54.11,10.59-54.11,10.59,0,0-62.34-85.87-190.55,23.52C56.41,180.68,37.54,411.52,111.7,499.44Z"/>
      <path class="st1" d="M635.62,499.94H111.46l-.15-.18c-36.15-42.87-51.3-121.96-39.54-206.42,12.7-91.19,53.72-172.26,112.52-222.44,48.26-41.18,92.75-59.68,132.22-54.99,36.28,4.31,55.9,27.54,58.71,31.1,2.83-2.68,19.8-18.11,36.43-18.11h.36c6.8.09,12.73,2.76,17.62,7.93,19.37,20.44,14.26,65.72,13.23,73.41,4.43-2.87,24.15-14.72,53.83-18.57,31.08-4.04,79.77.1,135.2,42.74,24.52,18.86,39.96,44.71,45.89,76.82,4.74,25.66,3.46,55.35-3.81,88.26-12.07,54.62-36.92,100.23-38.36,102.84v97.61h0ZM111.93,498.94h522.69v-96.87l.06-.11c.26-.46,25.99-46.87,38.33-102.71,7.24-32.77,8.51-62.33,3.79-87.85-5.89-31.86-21.21-57.5-45.52-76.2-30.43-23.41-78.45-49.79-134.4-42.55-33.47,4.33-54.17,18.89-54.38,19.03l-.97.69.19-1.18c.08-.52,7.95-51.77-12.81-73.68-4.7-4.97-10.39-7.53-16.91-7.62h-.35c-17.7,0-35.94,18.03-36.13,18.21l-.41.41-.34-.47c-.19-.27-19.72-26.56-58.39-31.15-39.18-4.64-83.4,13.78-131.43,54.76-58.62,50.02-99.51,130.87-112.18,221.81-11.71,84.07,3.29,162.76,39.16,205.46v.02Z"/>
    </g>
    <g class="st22">
      <g>
        <polygon class="st11" points="41.12 301.24 723.93 301.24 723.93 523.55 34.06 523.55 41.12 301.24"/>
        <path class="st1" d="M724.43,524.05H33.55l.02-.52,7.07-222.79h683.79v223.31ZM34.58,523.05h688.85v-221.31H41.61l-7.03,221.31Z"/>
      </g>
    </g>
    <path class="st1" d="M635.62,499.94H111.46l-.15-.18c-36.15-42.87-51.3-121.96-39.54-206.42,12.7-91.19,53.72-172.26,112.52-222.44,48.26-41.18,92.75-59.68,132.22-54.99,36.28,4.31,55.9,27.54,58.71,31.1,2.83-2.68,19.8-18.11,36.43-18.11h.36c6.8.09,12.73,2.76,17.62,7.93,19.37,20.44,14.26,65.72,13.23,73.41,4.43-2.87,24.15-14.72,53.83-18.57,31.08-4.04,79.77.1,135.2,42.74,24.52,18.86,39.96,44.71,45.89,76.82,4.74,25.66,3.46,55.35-3.81,88.26-12.07,54.62-36.92,100.23-38.36,102.84v97.61h0ZM111.93,498.94h522.69v-96.87l.06-.11c.26-.46,25.99-46.87,38.33-102.71,7.24-32.77,8.51-62.33,3.79-87.85-5.89-31.86-21.21-57.5-45.52-76.2-30.43-23.41-78.45-49.79-134.4-42.55-33.47,4.33-54.17,18.89-54.38,19.03l-.97.69.19-1.18c.08-.52,7.95-51.77-12.81-73.68-4.7-4.97-10.39-7.53-16.91-7.62h-.35c-17.7,0-35.94,18.03-36.13,18.21l-.41.41-.34-.47c-.19-.27-19.72-26.56-58.39-31.15-39.18-4.64-83.4,13.78-131.43,54.76-58.62,50.02-99.51,130.87-112.18,221.81-11.71,84.07,3.29,162.76,39.16,205.46v.02Z"/>
  </g>
  <g>
    <path class="st9" d="M607.37,171.47l10.78,33.16c4.6,14.17,17.81,23.76,32.71,23.76h34.87c4.7,0,6.66,6.02,2.85,8.78l-28.21,20.5c-12.05,8.76-17.1,24.28-12.49,38.45l10.78,33.16c1.45,4.47-3.66,8.19-7.47,5.43l-28.21-20.5c-12.05-8.76-28.37-8.76-40.43,0l-28.21,20.5c-3.8,2.76-8.92-.95-7.47-5.43l10.78-33.16c4.6-14.17-.44-29.69-12.49-38.45l-28.21-20.5c-3.8-2.76-1.85-8.78,2.85-8.78h34.87c14.9,0,28.1-9.59,32.71-23.76l10.78-33.16c1.45-4.47,7.78-4.47,9.23,0h-.02Z"/>
    <path class="st5" d="M654.03,336.15c-1.1,0-2.19-.35-3.15-1.04l-28.21-20.5c-11.91-8.66-27.92-8.66-39.84,0l-28.21,20.5c-1.91,1.39-4.38,1.39-6.29,0s-2.67-3.74-1.94-5.98l10.78-33.16c4.55-14.01-.4-29.23-12.31-37.89l-28.21-20.5c-1.91-1.39-2.67-3.74-1.94-5.98.73-2.25,2.73-3.7,5.09-3.7h34.87c14.73,0,27.68-9.41,32.23-23.42l10.77-33.16c.73-2.25,2.73-3.7,5.09-3.7s4.36,1.45,5.09,3.7h0l10.77,33.16c4.55,14.01,17.5,23.42,32.23,23.42h34.87c2.36,0,4.36,1.45,5.09,3.7.73,2.25-.03,4.6-1.94,5.98l-28.21,20.5c-11.92,8.66-16.86,23.88-12.31,37.89l10.77,33.16c.73,2.25-.03,4.6-1.94,5.98-.96.69-2.05,1.04-3.15,1.04ZM602.75,307.12c7.19,0,14.37,2.23,20.51,6.68l28.21,20.5c1.55,1.13,3.56,1.13,5.12,0,1.55-1.13,2.17-3.04,1.58-4.87l-10.77-33.16c-4.69-14.42.41-30.09,12.67-39.01l28.21-20.5c1.55-1.13,2.17-3.04,1.58-4.87-.59-1.83-2.22-3.01-4.14-3.01h-34.87c-15.16,0-28.5-9.69-33.18-24.11l-10.77-33.16c-.59-1.83-2.22-3.01-4.14-3.01s-3.55,1.18-4.14,3.01l-10.77,33.16c-4.69,14.42-18.02,24.11-33.18,24.11h-34.87c-1.92,0-3.55,1.18-4.14,3.01s.03,3.74,1.58,4.87l28.21,20.5c12.27,8.91,17.36,24.59,12.67,39.01l-10.78,33.16c-.59,1.83.03,3.74,1.58,4.87s3.56,1.13,5.12,0l28.21-20.5c6.13-4.46,13.32-6.68,20.51-6.68h-.01Z"/>
  </g>
  <g>
    <path class="st21" d="M109.57,387.71l10.78,33.16c4.6,14.17,17.81,23.76,32.71,23.76h34.87c4.7,0,6.66,6.02,2.85,8.78l-28.21,20.5c-12.05,8.76-17.1,24.28-12.49,38.45l10.78,33.16c1.45,4.47-3.66,8.19-7.47,5.43l-28.21-20.5c-12.05-8.76-28.37-8.76-40.43,0l-28.21,20.5c-3.8,2.76-8.92-.95-7.47-5.43l10.78-33.16c4.6-14.17-.44-29.69-12.49-38.45l-28.21-20.5c-3.8-2.76-1.85-8.78,2.85-8.78h34.87c14.9,0,28.1-9.59,32.71-23.76l10.78-33.16c1.45-4.47,7.78-4.47,9.23,0h-.02Z"/>
    <path class="st5" d="M53.68,552.39c-1.1,0-2.19-.35-3.15-1.04-1.91-1.39-2.67-3.74-1.94-5.98l10.77-33.16c4.55-14.01-.4-29.23-12.31-37.89l-28.21-20.5c-1.91-1.39-2.67-3.74-1.94-5.98.73-2.25,2.73-3.7,5.09-3.7h34.87c14.73,0,27.68-9.41,32.23-23.42l10.77-33.16c.73-2.25,2.73-3.7,5.09-3.7s4.36,1.45,5.09,3.7l10.77,33.16c4.55,14.01,17.5,23.42,32.23,23.42h34.87c2.36,0,4.36,1.45,5.09,3.7s-.03,4.6-1.94,5.98l-28.21,20.5c-11.91,8.66-16.86,23.88-12.31,37.89l10.77,33.16c.73,2.25-.03,4.6-1.94,5.98-1.91,1.39-4.38,1.39-6.29,0l-28.21-20.5c-11.91-8.66-27.92-8.66-39.84,0l-28.21,20.5c-.96.69-2.05,1.04-3.15,1.04h.01ZM21.99,445.13c-1.92,0-3.55,1.18-4.14,3.01-.59,1.83.03,3.74,1.58,4.87l28.21,20.5c12.27,8.91,17.36,24.59,12.67,39.01l-10.77,33.16c-.59,1.83.03,3.74,1.58,4.87,1.55,1.13,3.56,1.13,5.12,0l28.21-20.5c12.27-8.91,28.75-8.91,41.01,0l28.21,20.5c1.55,1.13,3.56,1.13,5.12,0,1.55-1.13,2.17-3.04,1.58-4.87l-10.77-33.16c-4.69-14.42.41-30.09,12.67-39.01l28.21-20.5c1.55-1.13,2.17-3.04,1.58-4.87s-2.22-3.01-4.14-3.01h-34.87c-15.16,0-28.5-9.69-33.18-24.11l-10.77-33.16c-.59-1.83-2.22-3.01-4.14-3.01s-3.55,1.18-4.14,3.01l-10.77,33.16c-4.69,14.42-18.02,24.11-33.18,24.11H21.99Z"/>
  </g>
  <g>
    <g>
      <rect class="st8" x="169.18" y="278.5" width="7.57" height="106.9"/>
      <path class="st1" d="M177.24,385.9h-8.57v-107.9h8.57v107.9h0ZM169.67,384.9h6.57v-105.9h-6.57v105.9Z"/>
    </g>
    <g>
      <rect class="st14" x="169.18" y="376.52" width="7.57" height="8.88"/>
      <path class="st1" d="M177.24,385.9h-8.57v-9.88h8.57v9.88h0ZM169.67,384.9h6.57v-7.88h-6.57v7.88Z"/>
    </g>
    <g>
      <rect class="st8" x="161.13" y="279.26" width="130.08" height="9.08"/>
      <path class="st1" d="M291.71,288.84h-131.08v-10.08h131.08v10.08ZM161.63,287.84h129.08v-8.08h-129.08v8.08h0Z"/>
    </g>
    <g>
      <path class="st14" d="M117.62,299.89v-20.34s-2.37-21.76,23.65-23.18c26.02-1.42,29.33,12.3,29.33,17.03v67.17l-49.67,34.06s-3.31-74.74-3.31-74.74Z"/>
      <path class="st1" d="M120.47,375.55l-3.35-75.66v-20.34c-.04-.3-.88-8.79,4.9-15.6,4.15-4.89,10.62-7.6,19.22-8.07,11.35-.62,19.7,1.53,24.82,6.37,4.67,4.42,5.03,9.65,5.03,11.15v67.43l-.22.15-50.41,34.57h.01ZM118.12,299.88l3.27,73.83,48.71-33.4v-66.9c0-1.4-.34-6.28-4.72-10.43-4.91-4.65-13.01-6.7-24.08-6.1-8.31.45-14.54,3.05-18.5,7.71-5.51,6.48-4.69,14.83-4.68,14.91v20.38h0Z"/>
    </g>
    <g>
      <path class="st13" d="M129.91,365.64s-4.73.95-8.51-8.99c-3.78-9.93,15.61-27.43,25.54-26.73s26.96,9.7,26.02,18.21c-.95,8.51-25.07,23.18-43.04,17.5h-.01Z"/>
      <path class="st1" d="M138.61,367.42c-2.96,0-5.91-.38-8.74-1.26-.87.09-5.36.06-8.94-9.32-1.35-3.53-.01-8.27,3.75-13.33,5.34-7.18,15.56-14.55,22.29-14.07,7.07.5,18.6,5.44,23.82,11.72,2.01,2.42,2.91,4.79,2.66,7.05-.37,3.34-4.03,7.57-9.8,11.32-6.25,4.07-15.7,7.9-25.05,7.9h0ZM129.94,365.13l.12.04c11.48,3.62,24.97-1.23,33.05-6.49,5.43-3.54,9.02-7.6,9.35-10.6.22-1.98-.6-4.1-2.43-6.3-5.06-6.08-16.25-10.87-23.12-11.36-5.78-.4-15.6,5.84-21.42,13.67-3.56,4.79-4.84,9.18-3.62,12.38,3.56,9.34,7.91,8.68,7.95,8.67l.12-.02h0Z"/>
    </g>
    <g>
      <path class="st15" d="M159.71,360.91s4.26-44.94,17.5-50.14c13.24-5.2,74.74,2.73,76.63,41.15s-94.13,8.99-94.13,8.99h0Z"/>
      <path class="st1" d="M222.3,372.21c-7.49,0-16.26-.82-26.27-2.45-19.3-3.15-36.29-8.32-36.46-8.38l-.39-.12.04-.41c.17-1.85,4.44-45.3,17.82-50.56,8.61-3.38,38.02-1.48,58.33,11.64,12,7.75,18.39,17.83,18.98,29.95.29,5.99-1.75,10.73-6.06,14.09-5.33,4.15-14.03,6.22-25.98,6.22v.02ZM160.25,360.55c5.57,1.65,68.04,19.73,87.41,4.65,4.05-3.15,5.96-7.61,5.68-13.25-.58-11.78-6.81-21.59-18.53-29.16-19.29-12.46-48.78-14.94-57.42-11.55-12.15,4.77-16.67,44.82-17.15,49.31h0Z"/>
    </g>
    <g>
      <g>
        <rect class="st8" x="263.77" y="293.26" width="7.57" height="73.32"/>
        <path class="st1" d="M271.84,367.09h-8.57v-74.32h8.57v74.32ZM264.28,366.09h6.57v-72.32h-6.57v72.32Z"/>
      </g>
      <g>
        <rect class="st8" x="239.65" y="293.26" width="7.57" height="73.32"/>
        <path class="st1" d="M247.72,367.09h-8.57v-74.32h8.57v74.32ZM240.15,366.09h6.57v-72.32h-6.57v72.32Z"/>
      </g>
      <g>
        <rect class="st8" x="215.53" y="293.26" width="7.57" height="73.32"/>
        <path class="st1" d="M223.6,367.09h-8.57v-74.32h8.57v74.32ZM216.03,366.09h6.57v-72.32h-6.57v72.32Z"/>
      </g>
      <g>
        <rect class="st8" x="191.4" y="293.26" width="7.57" height="73.32"/>
        <path class="st1" d="M199.47,367.09h-8.57v-74.32h8.57v74.32ZM191.91,366.09h6.57v-72.32h-6.57v72.32Z"/>
      </g>
      <g>
        <rect class="st8" x="167.28" y="293.26" width="7.57" height="73.32"/>
        <path class="st1" d="M175.35,367.09h-8.57v-74.32h8.57v74.32ZM167.78,366.09h6.57v-72.32h-6.57v72.32Z"/>
      </g>
      <g>
        <rect class="st8" x="143.15" y="293.26" width="7.57" height="73.32"/>
        <path class="st1" d="M151.23,367.09h-8.57v-74.32h8.57v74.32h0ZM143.66,366.09h6.57v-72.32h-6.57v72.32Z"/>
      </g>
      <g>
        <rect class="st8" x="121.4" y="356.66" width="166.03" height="20.81"/>
        <path class="st1" d="M287.93,377.96H120.9v-21.81h167.03v21.81ZM121.9,376.96h165.03v-19.81H121.9v19.81Z"/>
      </g>
      <g>
        <rect class="st8" x="117.61" y="289.66" width="174.54" height="9.08"/>
        <path class="st1" d="M292.66,299.25H117.12v-10.08h175.54v10.08ZM118.12,298.25h173.54v-8.08H118.12v8.08Z"/>
      </g>
      <g>
        <rect class="st8" x="117.61" y="298.47" width="7.57" height="106.9"/>
        <path class="st1" d="M125.68,405.87h-8.57v-107.9h8.57v107.9ZM118.12,404.87h6.57v-105.9h-6.57v105.9Z"/>
      </g>
      <g>
        <rect class="st8" x="284.59" y="298.47" width="7.57" height="106.9"/>
        <path class="st1" d="M292.66,405.87h-8.57v-107.9h8.57v107.9ZM285.09,404.87h6.57v-105.9h-6.57v105.9Z"/>
      </g>
      <g>
        <rect class="st14" x="117.61" y="396.49" width="7.57" height="8.88"/>
        <path class="st1" d="M125.68,405.87h-8.57v-9.88h8.57v9.88ZM118.12,404.87h6.57v-7.88h-6.57v7.88Z"/>
      </g>
      <g>
        <rect class="st14" x="284.59" y="396.49" width="7.57" height="8.88"/>
        <path class="st1" d="M292.66,405.87h-8.57v-9.88h8.57v9.88ZM285.09,404.87h6.57v-7.88h-6.57v7.88Z"/>
      </g>
    </g>
  </g>
  <g>
    <g>
      <g>
        <path class="st4" d="M192.39,315.02s-16.89,38.29-13.51,62.51c3.38,24.21,3.94,63.63,3.94,63.63l-18.58,58.28h71.52s21.4-49.84,23.09-56.59,8.45-44.49,8.45-44.49l14.64,47.87,2.25,53.21h65.32s.56-63.35-2.82-79.68-13.51-94.6-13.51-94.6l-2.82-24.78-137.96,14.64h-.01Z"/>
        <path class="st1" d="M349.99,499.94h-66.3l-2.27-53.63-14.02-45.83c-1.43,7.95-6.64,36.7-8.09,42.49-1.68,6.72-22.24,54.63-23.11,56.67l-.13.3h-72.53l18.77-58.86c-.03-2.03-.67-40.11-3.94-63.49-3.36-24.08,13.38-62.39,13.55-62.78l.12-.27.29-.03,138.46-14.69,2.87,25.27c.1.77,10.17,78.43,13.51,94.56,3.35,16.2,2.83,79.15,2.83,79.79v.5h-.01ZM284.65,498.94h64.35c.04-5.98.36-63.75-2.81-79.08-3.34-16.16-13.42-93.86-13.52-94.64l-2.76-24.29-137.18,14.56c-1.48,3.44-16.54,39.22-13.36,61.97,3.34,23.97,3.94,63.3,3.95,63.7v.08l-.02.08-18.38,57.63h70.5c1.79-4.18,21.34-49.85,22.93-56.21,1.67-6.66,8.37-44.08,8.44-44.45l.37-2.04,15.27,49.97,2.23,52.74v-.02Z"/>
      </g>
      <path class="st1" d="M182.03,483.06l-.96-.27c.05-.19,5.3-18.89,12.56-33.41,6.16-12.33,2.21-53.19-.14-77.6-.42-4.33-.78-8.08-1.03-11.11-1.69-20.21,14-43.45,14.16-43.68l.83.56c-.16.23-15.65,23.18-13.99,43.04.25,3.03.61,6.76,1.03,11.1,2.37,24.52,6.33,65.56.04,78.14-7.22,14.43-12.44,33.04-12.49,33.23h0Z"/>
      <path class="st1" d="M271.75,382.54l-.1-.03-23.65-6.76.27-.96,23.55,6.73c1.65-.25,21.83-3.41,29.52-8.91l.58.81c-8.18,5.84-29.17,8.97-30.06,9.1l-.11.02Z"/>
      <path class="st1" d="M195.28,345.36l-.16-.99c.32-.05,31.97-5.25,41.87-23.95l.88.47c-10.14,19.15-42.27,24.42-42.6,24.47h.01Z"/>
      <polygon class="st1" points="307.19 343.72 294.42 342.51 291.56 312.25 292.56 312.16 295.33 341.59 306.21 342.63 306.76 311.07 307.76 311.09 307.19 343.72"/>
      <path class="st1" d="M293.81,499.46c-.17-5.4-1.67-52.79-1.11-55.04.19-2.08-12.69-38.35-21.38-62.21l.94-.34c3.68,10.08,21.98,60.51,21.41,62.8-.4,1.6.46,33.63,1.14,54.77l-1,.03h0Z"/>
      <g>
        <line class="st0" x1="267.28" y1="382.59" x2="267.28" y2="398.36"/>
        <rect class="st1" x="266.78" y="382.59" width="1" height="15.77"/>
      </g>
      <g>
        <line class="st0" x1="276.85" y1="381.04" x2="296" y2="355"/>
        <rect class="st1" x="270.27" y="367.56" width="32.32" height="1" transform="translate(-179.77 381.25) rotate(-53.73)"/>
      </g>
      <g>
        <line class="st0" x1="277.98" y1="355.56" x2="262.78" y2="379.21"/>
        <rect class="st1" x="256.32" y="366.9" width="28.12" height="1" transform="translate(-184.88 396.2) rotate(-57.27)"/>
      </g>
    </g>
    <g>
      <path class="st6" d="M189.57,233.93s-23.65,27.59-17.46,63.63,78.84,48.99,78.84,48.99c0,0,31.53,34.35,55.75,16.33l1.13-27.78s-9.01-12.95-15.96-14.64-12.95-2.06-22.15-6.19c-9.2-4.13-33.97-47.68-33.97-47.68l-46.18-32.66h0Z"/>
      <path class="st1" d="M291.12,368.56c-19.56,0-38.75-19.78-40.42-21.55-3.88-.73-73.04-14.23-79.08-49.37-6.16-35.86,17.33-63.77,17.57-64.04l.3-.35,46.69,33.09c.25.43,24.8,43.45,33.75,47.47,6.7,3.01,11.75,4.02,16.63,5,1.76.35,3.58.72,5.43,1.17,7.05,1.71,15.88,14.31,16.25,14.84l.1.14-1.14,28.19-.19.14c-5.08,3.78-10.49,5.28-15.88,5.28h0ZM189.66,234.61c-2.67,3.32-22.77,29.65-17.06,62.87,6.06,35.28,77.71,48.45,78.43,48.58l.17.03.11.12c.25.27,19.9,21.35,39.77,21.35,5.14,0,10.28-1.41,15.12-4.94l1.11-27.37c-.98-1.38-9.26-12.77-15.57-14.31-1.83-.45-3.64-.81-5.39-1.16-4.93-.99-10.04-2.01-16.84-5.07-9.11-4.09-32.53-44.95-34.15-47.79l-45.71-32.33v.02Z"/>
    </g>
    <g>
      <path class="st6" d="M346.87,276.91c10.32,22.15,17.64,42.98,35.1,54.62,17.46,11.64,38.1.75,38.1.75,0,0,3.57-15.77-9.39-34.35-12.95-18.58-20.46-43.36-20.46-43.36"/>
      <path class="st1" d="M400.31,337.37c-5.93,0-12.49-1.33-18.62-5.42-15.05-10.04-22.78-27.18-30.95-45.34-1.39-3.09-2.83-6.29-4.32-9.49l.91-.42c1.49,3.2,2.94,6.41,4.33,9.5,8.47,18.8,15.78,35.04,30.6,44.92,16.08,10.72,35.17,1.92,37.38.83.36-1.99,2.48-16.75-9.35-33.73-12.85-18.43-20.45-43.25-20.53-43.5l.96-.29c.08.25,7.64,24.92,20.39,43.22,6.75,9.69,8.97,18.6,9.64,24.37.73,6.28-.14,10.21-.17,10.37l-.05.22-.2.11c-.14.07-9,4.64-20,4.64h-.02Z"/>
    </g>
    <g>
      <g>
        <path class="st6" d="M326.97,181s-14.45,17.27,6.01,19.33,19.9,27.41,19.9,27.41l-61.38,41.67-24.21-60.25s-11.64-14.64,3.75-15.2c15.39-.56,9.76-16.33,20.46-20.27,10.7-3.94,35.48,7.32,35.48,7.32h-.01Z"/>
        <path class="st1" d="M291.26,270.17l-24.42-60.76c-.6-.76-5.88-7.75-3.79-12.29,1.05-2.28,3.73-3.51,7.96-3.66,8.33-.31,10.22-5.14,12.22-10.26,1.57-4.02,3.19-8.18,8.08-9.98,10.77-3.97,34.84,6.87,35.86,7.33l.6.27-.42.5c-.07.08-6.59,7.98-4.38,13.4,1.16,2.84,4.54,4.56,10.06,5.11,20.68,2.09,20.35,27.66,20.35,27.91v.26l-62.11,42.16h0ZM297.07,173.34c-2.03,0-3.87.24-5.4.81-4.47,1.65-5.94,5.42-7.5,9.41-2.03,5.2-4.13,10.57-13.12,10.9-3.83.14-6.22,1.18-7.09,3.08-1.91,4.16,3.66,11.24,3.71,11.31l.07.12,23.98,59.68,60.65-41.17c-.02-2.63-.77-24.76-19.45-26.64-5.92-.6-9.58-2.53-10.88-5.73-2.11-5.19,2.65-11.98,4.13-13.9-3.19-1.39-18.61-7.85-29.11-7.85v-.02Z"/>
      </g>
      <g>
        <path class="st3" d="M256.77,248.01c-3.38,14.27-24.68,32.75-24.68,32.75-8.26-14.64-55.19-30.78-55.19-30.78,5.63-12.01,25.43-32.19,39.7-44.2s54.43-11.83,54.43-11.83c-.38,35.29,35.66,58.56,35.66,58.56,0,0,24.4-21.77,26.28-52.18,0,0,20.82-2.11,39.04,13.33,10.93,9.26,18.77,26.37,26.65,49.74,0,0-28.16,5.63-49.55,23.65l-.75-4.5c-4.5,9.39-.38,24.78-5.26,25.53s-33.79,14.64-74.33,5.26c0,0-45.99-28.65-38.25-34.98"/>
        <path class="st1" d="M296.92,317.07c-9.43,0-18.89-1.09-28.25-3.25l-.15-.06c-1.58-.99-38.77-24.25-39.35-33.32-.05-.8.16-1.48.62-2.04-11.65-13.58-52.6-27.79-53.04-27.94l-.53-.18.24-.5c5.45-11.62,24.59-31.54,39.83-44.37,14.24-12,53.15-11.94,54.76-11.94h.5v.51c-.19,18.07,9.45,32.91,17.57,42.18,7.87,8.99,15.87,14.6,17.55,15.74,2.72-2.56,24.1-23.5,25.83-51.58l.03-.42.42-.04c.21-.02,21.24-1.95,39.42,13.44,9.76,8.27,17.78,23.21,26.8,49.96l.18.54-.56.11c-.28.06-28.28,5.82-49.33,23.54l-.67.57-.61-3.66c-1.51,4.18-1.64,9.21-1.76,13.7-.15,5.63-.27,10.07-3.21,10.52-.75.12-2.17.58-4.14,1.23-5.33,1.75-14.25,4.68-26.29,6.25-5.26.68-10.55,1.03-15.84,1.03l-.02-.02ZM268.98,312.86c33.79,7.8,58.99-.48,69.76-4.01,2.01-.66,3.47-1.14,4.3-1.27,2.11-.32,2.23-4.61,2.36-9.56.13-4.93.3-11.06,2.52-15.69l.68-1.43.87,5.2c19.51-16.09,44.53-22.18,48.55-23.08-8.89-26.23-16.77-40.9-26.32-48.99-16.44-13.93-35.22-13.43-38.25-13.24-2.07,30.04-26.17,51.87-26.42,52.09l-.28.25-.32-.21c-.09-.06-9.17-5.97-18.08-16.14-8.16-9.31-17.83-24.19-17.82-42.34-4.67.03-40.5.67-53.61,11.71-14.94,12.58-33.64,31.97-39.33,43.53,5.4,1.89,46,16.49,54.61,30.3,3.08-2.76,21.04-19.29,24.08-32.09l.97.23c-3.38,14.26-23.97,32.26-24.84,33.02l-.46.4-.3-.53c-.34-.6-.75-1.21-1.21-1.81-.21.33-.3.72-.27,1.17.16,2.44,3.68,7.79,19.57,19.44,9.15,6.71,18.35,12.5,19.24,13.06h0Z"/>
      </g>
    </g>
    <g>
      <g>
        <g>
          <path class="st19" d="M317.66,119.94s10.33-3.92,7.58-13.94-9.4-5.75-9.4-5.75c0,0,6.25-7.51-2.72-12.52-7.07-3.95-12.06,3.84-12.06,3.84,0,0-4.33-10.69-16.04-4.37-11.71,6.32-1.76,14.72-1.76,14.72,0,0-10.03-.52-9.68,8.11s10.36,8.76,10.36,8.76c0,0-4.61,2.58,1.38,6.64,12.46,8.44,32.34-5.51,32.34-5.51v.02Z"/>
          <path class="st1" d="M294.89,128.65c-3.79,0-7.11-.93-9.84-2.78-2.25-1.52-3.36-3.07-3.29-4.58.04-.9.48-1.6.93-2.09-2.79-.38-9.31-2.03-9.6-9.13-.1-2.47.6-4.47,2.09-5.94,2.09-2.06,5.17-2.56,6.87-2.67-1.31-1.38-3.54-4.27-3.2-7.58.29-2.75,2.28-5.14,5.93-7.11,3.88-2.09,7.39-2.59,10.45-1.49,3.34,1.2,5.19,3.98,5.92,5.34,1.5-1.88,6.14-6.71,12.22-3.32,2.86,1.6,4.53,3.62,4.98,6,.43,2.33-.41,4.48-1.16,5.83,1-.3,2.37-.47,3.78.07,2.17.83,3.77,3.08,4.76,6.67,2.72,9.92-6.95,14.16-7.82,14.51-.54.37-5.39,3.65-11.56,5.95-4.15,1.55-7.99,2.32-11.45,2.32h0ZM282.96,102.43c-1.04,0-4.82.16-7.09,2.41-1.28,1.27-1.88,3.01-1.79,5.19.33,8.05,9.48,8.28,9.87,8.29l1.84.03-1.6.91s-1.39.8-1.44,2.09c-.04,1.13.94,2.41,2.86,3.7,12.02,8.15,31.57-5.37,31.77-5.5l.11-.06c.4-.15,9.87-3.89,7.27-13.34-.9-3.27-2.29-5.29-4.15-6-2.26-.86-4.47.53-4.5.54l-2.71,1.74,2.05-2.48s2.53-3.1,1.9-6.46c-.39-2.08-1.89-3.86-4.48-5.31-6.57-3.67-11.2,3.37-11.4,3.67l-.52.81-.36-.89s-1.72-4.12-5.72-5.55c-2.77-1-6.01-.51-9.63,1.44-3.34,1.8-5.16,3.93-5.41,6.33-.42,4.01,3.7,7.54,3.74,7.57l1.13.96-1.48-.07h-.27v-.02Z"/>
        </g>
        <g>
          <path class="st17" d="M321.47,121.22s-.27-11.67-20.9-6.24c-15.55,4.09-13.57,16.55-13.57,16.55l34.46-10.31h.01Z"/>
          <path class="st1" d="M286.6,132.18l-.09-.56c-.02-.13-1.87-12.96,13.94-17.12,8.39-2.21,14.53-1.92,18.23.87,3.17,2.39,3.29,5.7,3.29,5.84v.38l-35.37,10.59h0ZM310.2,114.05c-2.73,0-5.92.47-9.5,1.41-13.2,3.48-13.43,12.96-13.26,15.42l33.49-10.02c-.13-.87-.67-3.06-2.87-4.71-1.87-1.4-4.53-2.1-7.87-2.1h.01Z"/>
        </g>
        <g>
          <path class="st20" d="M340.33,184.45c0-2.17.15-7.87,7.48-7.87s6.93,6.08,6.78,9.62-3.41,6.93-9.1,5.58-5.16-5.16-5.16-7.33Z"/>
          <path class="st5" d="M347.97,192.59c-.78,0-1.64-.1-2.6-.32-5.65-1.35-5.59-5.07-5.55-7.3v-.52c0-5.55,2.69-8.37,7.98-8.37,2.41,0,4.25.65,5.47,1.92,2.08,2.17,1.93,5.7,1.83,8.03v.19c-.09,1.96-1.03,3.76-2.58,4.93-.94.71-2.42,1.43-4.55,1.43h0ZM347.81,177.08c-6.25,0-6.98,4.21-6.98,7.37v.53c-.05,2.17-.1,5.15,4.77,6.31,3.19.76,5.19-.09,6.31-.94,1.31-.99,2.11-2.52,2.18-4.18v-.19c.11-2.29.24-5.44-1.54-7.3-1.02-1.07-2.62-1.61-4.74-1.61h0Z"/>
        </g>
        <g>
          <path class="st1" d="M325.27,196.93s5.16,3.53,3.26,6.51-19,4.88-31.21-9.5l27.95,2.99h0Z"/>
          <path d="M320.86,200.48c-9.99,0-18.57-3.16-20.21-4.31l.57-.82c2.33,1.63,19.17,7.45,33.61,1.61,10.46-4.23,17.15-13.55,19.88-27.71,3.95-20.44-4.04-32.57-11.44-39.15-10.98-9.77-28.73-13.76-42.19-9.48-10.77,3.42-18.86,11.79-22.2,22.98-4.29,14.36-.33,30.49,10.86,44.25l-.78.63c-11.41-14.02-15.43-30.49-11.04-45.17,3.44-11.51,11.77-20.13,22.86-23.65,14.01-4.45,31.75-.46,43.16,9.69,7.59,6.75,15.79,19.19,11.75,40.09-2.8,14.51-9.7,24.08-20.49,28.44-4.71,1.91-9.69,2.6-14.35,2.6h.01Z"/>
          <g>
            <path class="st6" d="M289.36,188.16c-22.07-27.14-13.31-60.12,11.58-68.02,22.79-7.24,62.23,8.03,54.27,49.21-8.32,43.06-50.66,28.95-54.27,26.41"/>
            <path class="st1" d="M320.86,200.48c-9.99,0-18.57-3.16-20.21-4.31l.57-.82c2.33,1.63,19.17,7.45,33.61,1.61,10.46-4.23,17.15-13.55,19.88-27.71,3.95-20.44-4.04-32.57-11.44-39.15-10.98-9.77-28.73-13.76-42.19-9.48-10.77,3.42-18.86,11.79-22.2,22.98-4.29,14.36-.33,30.49,10.86,44.25l-.78.63c-11.41-14.02-15.43-30.49-11.04-45.17,3.44-11.51,11.77-20.13,22.86-23.65,14.01-4.45,31.75-.46,43.16,9.69,7.59,6.75,15.79,19.19,11.75,40.09-2.8,14.51-9.7,24.08-20.49,28.44-4.71,1.91-9.69,2.6-14.35,2.6h.01Z"/>
          </g>
          <g>
            <path class="st19" d="M300.94,120.14c-14.44,4.58-23.43,17.62-24.14,33.05,17.59,12.75,21.43-12.69,21.43-12.69,12.3,8.32,18.81-6.51,18.81-6.51,7.6,10.13,13.03,1.81,13.03,1.81,7.26,6.83,15.4,5.22,20.86,2.75-10.5-17.65-34.22-23.41-49.99-18.4h0Z"/>
            <path class="st1" d="M285.79,157.26c-2.81,0-5.92-1.23-9.29-3.67l-.22-.16v-.27c.75-16.1,10.14-28.94,24.5-33.5h0c15.97-5.07,39.85.61,50.57,18.62l.29.48-.51.23c-5.56,2.52-13.67,4.09-20.99-2.47-.74.92-2.64,2.88-5.39,2.97-2.55.1-5.11-1.46-7.61-4.58-.98,1.89-3.96,6.79-8.91,8.22-3.05.88-6.29.27-9.64-1.81-.54,2.82-2.85,12.54-9.31,15.25-1.1.46-2.26.69-3.48.69h0ZM277.3,152.94c4.44,3.16,8.34,4.07,11.58,2.71,6.9-2.89,8.82-15.11,8.84-15.23l.12-.78.66.44c3.31,2.24,6.49,2.95,9.44,2.1,5.59-1.61,8.61-8.33,8.64-8.4l.34-.78.51.68c2.46,3.28,4.93,4.89,7.28,4.82,3.01-.1,4.91-2.96,4.93-2.99l.33-.5.44.41c6.81,6.41,14.43,5.19,19.79,2.89-10.61-17.21-33.65-22.61-49.11-17.7h0c-13.88,4.41-22.97,16.78-23.78,32.32h0Z"/>
          </g>
          <g>
            <path class="st6" d="M281.58,173.87s-14.93,2.17-13.84-12.21,18.59-8.96,20.22-4.07"/>
            <path class="st1" d="M279.52,174.49c-2.42,0-6.39-.46-9.2-3.07-2.37-2.21-3.41-5.51-3.08-9.8.57-7.56,5.47-9.28,8.33-9.64,5.62-.7,11.86,2.47,12.86,5.45l-.95.32c-.85-2.56-6.84-5.38-11.78-4.77-3.13.39-6.97,2.22-7.46,8.72-.3,3.97.63,7,2.77,8.99,3.86,3.6,10.44,2.7,10.5,2.69l.14.99c-.1,0-.92.13-2.13.13h0Z"/>
          </g>
          <g>
            <path class="st6" d="M280.49,166s-2.99-5.16-6.78-6.51"/>
            <path class="st1" d="M280.06,166.25s-2.94-5.01-6.52-6.29l.34-.94c3.93,1.4,6.92,6.52,7.05,6.73l-.87.5Z"/>
          </g>
          <g>
            <path class="st1" d="M313.43,164.62s.05,2.32-.26,3.05.09,1.63,1.03,1.5,1.83-3.55,1.45-6.23c-.38-2.69-.68-2.92-2.14-2.58s.11,2.73-.09,4.26h.01Z"/>
            <path class="st1" d="M314.03,169.68c-.46,0-.87-.19-1.14-.54-.34-.45-.41-1.1-.17-1.66.19-.46.24-1.99.22-2.84v-.08c.06-.49-.11-1.15-.27-1.78-.23-.89-.45-1.74-.08-2.34.17-.29.45-.47.82-.56.6-.14,1.23-.25,1.72.09.58.4.8,1.25,1.03,2.9.18,1.3.09,2.89-.24,4.26-.26,1.09-.76,2.41-1.64,2.54-.08,0-.17.02-.25.02h0ZM313.94,164.65c0,.48.03,2.45-.3,3.22-.1.23-.08.5.05.66.1.13.25.17.46.15.48-.18,1.4-3.03,1.03-5.67-.09-.65-.28-1.99-.6-2.22-.15-.1-.56-.03-.93.06-.15.03-.18.09-.19.11-.15.25.04.98.19,1.58.18.71.37,1.45.3,2.12h0Z"/>
          </g>
          <g>
            <path class="st1" d="M337.15,164.32s.05,2.32-.26,3.05.09,1.63,1.03,1.5,1.83-3.55,1.45-6.23-.68-2.92-2.14-2.58.11,2.73-.09,4.26h.01Z"/>
            <path class="st1" d="M337.75,169.38c-.46,0-.87-.19-1.14-.54-.34-.45-.41-1.1-.17-1.66.19-.46.24-1.99.22-2.84v-.08c.06-.49-.11-1.15-.27-1.78-.23-.89-.45-1.74-.08-2.34.17-.29.45-.48.82-.56.6-.14,1.23-.25,1.72.09.58.4.8,1.26,1.03,2.9.18,1.3.09,2.89-.24,4.26-.26,1.09-.76,2.41-1.64,2.54-.08,0-.17.02-.25.02h0ZM337.65,164.35c0,.48.03,2.45-.3,3.22-.1.23-.08.5.05.66.1.13.25.17.46.15.48-.18,1.4-3.03,1.03-5.67-.14-.99-.32-2.02-.6-2.22-.15-.1-.56-.03-.93.06-.15.03-.18.09-.19.11-.15.25.04.98.19,1.57.18.71.37,1.45.3,2.12h0Z"/>
          </g>
        </g>
        <g>
          <path class="st20" d="M272.08,179.84c0-2.17.15-7.87,7.48-7.87s6.93,6.08,6.78,9.62-3.41,6.93-9.1,5.58c-5.7-1.36-5.16-5.16-5.16-7.33Z"/>
          <path class="st5" d="M279.72,187.97c-.78,0-1.64-.1-2.6-.32-5.65-1.35-5.59-5.07-5.55-7.3v-.52c0-5.55,2.69-8.37,7.98-8.37,2.41,0,4.25.65,5.47,1.92,2.08,2.17,1.93,5.7,1.83,8.03v.19c-.09,1.96-1.03,3.76-2.58,4.93-.94.71-2.42,1.43-4.55,1.43h0ZM279.56,172.47c-6.25,0-6.98,4.21-6.98,7.37v.53c-.05,2.17-.1,5.15,4.77,6.31,3.19.76,5.19-.09,6.31-.93,1.31-.99,2.11-2.52,2.18-4.18v-.19c.11-2.29.24-5.44-1.54-7.3-1.02-1.07-2.62-1.61-4.74-1.61h0Z"/>
        </g>
        <ellipse class="st2" cx="302.87" cy="169.92" rx="3.66" ry="5.43" transform="translate(70.93 428.4) rotate(-77.39)"/>
        <ellipse class="st2" cx="347.68" cy="170.48" rx="3.66" ry="5.43" transform="translate(171.88 515.5) rotate(-89.12)"/>
      </g>
      <g>
        <path class="st1" d="M325.32,177.13l-.08-1s3.78-.32,4.86-2.34c.51-.96.34-2.19-.51-3.68-.85-1.5-1.93-2.36-3.22-2.56-2.71-.42-5.53,2.18-5.55,2.21l-.68-.73c.13-.12,3.2-2.95,6.39-2.46,1.6.24,2.93,1.27,3.94,3.05,1.03,1.81,1.2,3.37.52,4.65-1.34,2.51-5.49,2.85-5.66,2.87h-.01Z"/>
        <rect class="st1" x="311.55" y="153.25" width="8.42" height="1" transform="translate(-4.65 9.94) rotate(-1.79)"/>
        <rect class="st1" x="336.96" y="150.88" width="1" height="6.79" transform="translate(169.82 485.3) rotate(-87.71)"/>
        <path class="st1" d="M321.57,185.38l-.51-.86c4.09-2.4,9.35-2.39,9.55-2.39v1c-.07.03-5.21,0-9.04,2.25h0Z"/>
      </g>
    </g>
    <g>
      <ellipse class="st13" cx="360.2" cy="350.03" rx="69.83" ry="34.91"/>
      <path class="st1" d="M360.2,385.44c-38.78,0-70.33-15.89-70.33-35.41s31.55-35.41,70.33-35.41,70.33,15.89,70.33,35.41-31.55,35.41-70.33,35.41ZM360.2,315.61c-38.23,0-69.33,15.44-69.33,34.41s31.1,34.41,69.33,34.41,69.33-15.44,69.33-34.41-31.1-34.41-69.33-34.41Z"/>
    </g>
    <g>
      <path class="st6" d="M282.67,335.85s24.03,13.14,27.41.75c1.88-6.76-10.14-10.89-10.14-10.89"/>
      <path class="st1" d="M301.92,342.42c-8.16,0-18.94-5.83-19.49-6.13l.48-.88c.16.08,15.65,8.47,23.12,5.29,1.84-.78,3-2.17,3.57-4.23,1.73-6.23-9.7-10.24-9.82-10.28l.33-.95c.51.17,12.44,4.36,10.46,11.49-.64,2.35-2.03,3.99-4.14,4.89-1.32.56-2.86.8-4.5.8h0Z"/>
    </g>
    <g>
      <path class="st7" d="M356.82,250.26c-2.25,18.02-5.63,23.09-8.45,32.29"/>
      <path class="st1" d="M348.85,282.69l-.96-.29c.74-2.42,1.53-4.59,2.3-6.69,2.2-6.02,4.47-12.25,6.13-25.51l.99.12c-1.67,13.37-3.96,19.65-6.18,25.73-.8,2.19-1.55,4.25-2.28,6.64Z"/>
    </g>
    <g>
      <path class="st6" d="M378.78,309.2c1.31,6.57,6.76,10.51,18.58,16.14,0,0,1.31,14.45,12.39,12.58s-1.13-28.53-1.13-28.53"/>
      <path class="st1" d="M407.83,338.59c-2.1,0-3.96-.62-5.56-1.85-4.2-3.23-5.2-9.62-5.38-11.07-11.24-5.37-17.21-9.41-18.61-16.38l.98-.2c1.32,6.61,7.2,10.5,18.31,15.79l.26.12.03.28c0,.07.72,7.34,5.03,10.65,1.86,1.43,4.14,1.92,6.78,1.47,1.54-.26,2.63-1.03,3.33-2.35,3.63-6.85-4.74-25.29-4.82-25.48l.91-.42c.35.78,8.65,19.08,4.8,26.36-.84,1.59-2.2,2.56-4.04,2.87-.69.12-1.36.17-2,.17l-.02.04Z"/>
    </g>
    <g>
      <path class="st3" d="M302.84,330.25c-1.23.52-4,4.7-2.29,6.68,1.71,1.98,7.85,3.48,9.52-.33s-6-6.88-7.23-6.35h0Z"/>
      <path class="st1" d="M305.89,339.46c-2.32,0-4.71-1.04-5.71-2.2-.64-.73-.82-1.77-.53-3.01.45-1.96,2.01-4.04,3-4.46h0c1.12-.48,4.9.96,6.8,2.88,1.31,1.33,1.69,2.76,1.08,4.13-.63,1.43-1.87,2.32-3.58,2.58-.35.05-.7.08-1.06.08h0ZM303.04,330.71c-.6.26-2.01,1.98-2.42,3.77-.21.92-.11,1.64.32,2.13.97,1.12,3.69,2.12,5.87,1.79,1.38-.21,2.33-.88,2.81-1.99.42-.96.15-1.96-.81-2.96-1.83-1.91-5.24-2.95-5.77-2.73h0Z"/>
    </g>
    <g>
      <path class="st3" d="M413.32,325.41s-6.76-.38-2.82,11.83c0,0,8.07.94,2.82-11.83Z"/>
      <path class="st1" d="M410.86,337.75c-.24,0-.39-.02-.42-.02l-.32-.04-.1-.31c-1.65-5.12-1.68-8.76-.09-10.83,1.35-1.75,3.33-1.66,3.41-1.65l.32.02.12.29c2.11,5.12,2.38,8.76.82,10.83-1.15,1.52-2.93,1.71-3.74,1.71ZM412.99,325.92c-.5.05-1.51.28-2.27,1.26-.92,1.21-1.64,3.85.15,9.56.63,0,2.06-.15,2.93-1.32.9-1.19,1.47-3.81-.82-9.51h.01Z"/>
    </g>
    <polygon class="st1" points="297.46 452.79 296.79 452.05 301.7 447.63 285.19 444.1 309.91 435.06 310.25 436 288.79 443.85 303.82 447.07 297.46 452.79"/>
    <polygon class="st1" points="214.61 448.42 186.75 448.42 186.75 447.42 208.45 447.42 187.72 440.51 188.04 439.56 214.61 448.42"/>
  </g>
  <g>
    <path class="st8" d="M603.64,317.27s-47.49-21.21-89.54-17.74l6.54-29.1s54.28-5.54,85.53,17.27l-2.53,29.56h0Z"/>
    <path class="st1" d="M604.08,318.01l-.64-.29c-.47-.21-47.85-21.12-89.29-17.7l-.68.06,6.77-30.11.36-.04c.55-.06,54.83-5.29,85.88,17.36l.23.17-2.62,30.54h-.01ZM523.61,298.65c36.41,0,74.23,15.59,79.59,17.88l2.45-28.59c-29.45-21.29-79.85-17.46-84.6-17.04l-6.31,28.08c2.93-.22,5.9-.33,8.87-.33Z"/>
  </g>
  <g>
    <polyline class="st8" points="583.37 408.5 603.64 274.19 622.23 277.57 597.73 405.12"/>
    <polygon class="st1" points="583.86 408.57 582.88 408.42 603.22 273.61 622.81 277.17 622.72 277.67 598.22 405.21 597.24 405.02 621.64 277.97 604.06 274.78 583.86 408.57"/>
  </g>
  <g>
    <rect class="st8" x="516.08" y="422.86" width="15.77" height="76.58"/>
    <path class="st1" d="M532.34,499.94h-16.77v-77.58h16.77v77.58ZM516.58,498.94h14.77v-75.58h-14.77v75.58Z"/>
  </g>
  <g>
    <rect class="st8" x="584.78" y="406.34" width="15.77" height="93.1"/>
    <path class="st1" d="M601.05,499.94h-16.77v-94.1h16.77v94.1ZM585.28,498.94h14.77v-92.1h-14.77v92.1Z"/>
  </g>
  <g>
    <rect class="st8" x="389.94" y="422.86" width="15.77" height="76.58"/>
    <path class="st1" d="M406.21,499.94h-16.77v-77.58h16.77v77.58ZM390.44,498.94h14.77v-75.58h-14.77v75.58Z"/>
  </g>
  <g>
    <g>
      <polygon class="st8" points="599.86 433.57 477.79 422.86 385.92 455.63 392.91 463.68 524.65 474.4 599.86 442.7 599.86 433.57"/>
      <path class="st1" d="M524.73,474.9h-.12l-131.95-10.74-7.6-8.76.69-.25,91.96-32.81h.11l122.53,10.76v9.92l-75.63,31.87h.01ZM393.15,463.2l131.42,10.69,74.79-31.52v-8.34l-121.51-10.66-91.07,32.49,6.37,7.35h0Z"/>
    </g>
    <g>
      <path class="st14" d="M600.98,448.69l-1.12-15.12-77.9,35.99s-1.03,17.27,1.66,16.73,77.36-37.6,77.36-37.6h0Z"/>
      <path class="st1" d="M523.5,486.81c-.27,0-.52-.1-.74-.29-2.09-1.82-1.45-14.47-1.3-16.98l.02-.3.27-.13,78.55-36.3,1.2,16.18-.3.15c-3.05,1.51-74.76,37.1-77.48,37.65-.07.01-.15.02-.22.02h0ZM522.45,469.89c-.32,5.67-.33,14.74.97,15.87.06.05.08.05.11.04,2.14-.43,55.96-27,76.93-37.41l-1.04-14.07-76.97,35.56h0Z"/>
    </g>
    <g>
      <path class="st14" d="M385.43,471.28l138.19,15.01s1.03-16.2-1.66-16.73-136.04-13.93-136.04-13.93l-.49,15.66h0Z"/>
      <path class="st1" d="M524.09,486.85l-.52-.06-138.65-15.06.52-16.66.53.05c5.45.55,133.41,13.41,136.09,13.94,2.89.58,2.31,13.35,2.06,17.25l-.03.52v.02ZM385.95,470.84l137.21,14.9c.56-9.44-.23-15.48-1.29-15.69-2.55-.51-126.24-12.95-135.46-13.87l-.46,14.66h0Z"/>
    </g>
  </g>
  <g>
    <g>
      <path class="st18" d="M454.52,371.09s-40.17,10.14-42.42,45.42c-2.25,35.29-12.87,82.92-12.87,82.92h56.31s12.12-72.79,36.89-73.91c24.78-1.13,43.92-5.26,49.18-18.77s-6.48-33.69-11.68-43.31c-5.21-9.62-75.41,7.65-75.41,7.65Z"/>
      <path d="M455.54,499.94h-56.31c-.15,0-.29-.07-.39-.19s-.13-.27-.1-.42c.11-.48,10.63-48,12.86-82.85,2.25-35.25,42.39-45.78,42.8-45.88h0c.18-.04,17.78-4.36,35.79-7.44,24.39-4.17,37.91-4.16,40.18.04l.9,1.64c5.55,10.16,15.87,29.08,10.82,42.09-5.87,15.1-28.38,18.12-49.62,19.09-24.09,1.1-36.3,72.77-36.42,73.5-.04.24-.25.42-.49.42h-.02ZM399.85,498.94h55.27c.5-2.83,3.54-19.55,9.1-36.19,8.2-24.55,17.69-37.24,28.19-37.72,29.26-1.33,44.29-7.02,48.74-18.45,4.89-12.57-5.29-31.22-10.76-41.25l-.9-1.65c-4.12-7.62-55.43,3.12-74.85,7.9-.45.12-39.84,10.49-42.04,44.97-2.09,32.77-11.51,76.71-12.75,82.39h0Z"/>
    </g>
    <g>
      <path class="st18" d="M492.52,381.09s-40.17,10.14-42.42,45.42c-2.25,35.29-12.87,72.92-12.87,72.92h56.31s12.12-62.79,36.89-63.91c24.78-1.13,43.92-5.26,49.18-18.77s-6.48-33.69-11.68-43.31c-5.21-9.62-75.41,7.65-75.41,7.65Z"/>
      <path d="M493.54,499.94h-56.31c-.16,0-.3-.07-.4-.2s-.12-.29-.08-.44c.11-.38,10.63-37.99,12.85-72.82,2.25-35.25,42.39-45.78,42.8-45.88h0c.18-.04,17.78-4.36,35.79-7.44,24.39-4.17,37.91-4.16,40.18.04l.9,1.64c5.55,10.16,15.87,29.08,10.82,42.09-5.87,15.1-28.38,18.12-49.62,19.09-24.1,1.1-36.31,62.89-36.43,63.51-.05.24-.25.41-.49.41h-.01ZM437.89,498.94h55.25c.52-2.57,3.57-16.92,9.1-31.21,8.21-21.22,17.69-32.22,28.18-32.7,29.26-1.33,44.29-7.02,48.74-18.45,4.89-12.57-5.29-31.22-10.76-41.25l-.9-1.65c-4.12-7.62-55.43,3.12-74.85,7.9-.45.12-39.84,10.49-42.04,44.97-2.07,32.45-11.32,67.29-12.71,72.39h0Z"/>
    </g>
    <g>
      <path class="st16" d="M537.95,387.47s20.65,12.39,42.42,3.75c0,0-.75-20.65-12.76-25.9-12.01-5.26-29.66,22.15-29.66,22.15Z"/>
      <path class="st1" d="M564.14,394.76c-14.79,0-26.3-6.76-26.45-6.86l-.44-.27.28-.43c.04-.07,4.5-6.96,10.38-13.12,8.01-8.39,14.7-11.49,19.9-9.22,12.16,5.32,13.03,25.49,13.06,26.34v.35l-.32.13c-5.64,2.24-11.23,3.07-16.41,3.07h0ZM538.66,387.3c3.12,1.71,21.78,11.09,41.19,3.59-.17-2.73-1.71-20.41-12.44-25.11-10.66-4.67-26.41,18.03-28.74,21.52h-.01Z"/>
    </g>
  </g>
  <g>
    <rect class="st8" x="283.1" y="426.23" width="15.77" height="73.21"/>
    <path class="st1" d="M299.37,499.94h-16.77v-74.21h16.77v74.21ZM283.6,498.94h14.77v-72.21h-14.77v72.21Z"/>
  </g>
  <g>
    <rect class="st8" x="626.9" y="419.59" width="15.77" height="79.85"/>
    <path class="st1" d="M643.17,499.94h-16.77v-80.85h16.77v80.85ZM627.4,498.94h14.77v-78.85h-14.77v78.85Z"/>
  </g>
  <g>
    <rect class="st8" x="519.05" y="426.23" width="15.77" height="73.21"/>
    <path class="st1" d="M535.32,499.94h-16.77v-74.21h16.77v74.21ZM519.55,498.94h14.77v-72.21h-14.77v72.21Z"/>
  </g>
  <g>
    <g>
      <polygon class="st8" points="654.76 400.89 417.4 364.57 272.96 416.1 283.95 428.77 536.5 465.09 654.76 415.25 654.76 400.89"/>
      <path class="st1" d="M536.57,465.6l-.14-.02-252.74-36.35-11.58-13.36.69-.25,144.56-51.57.12.02,237.78,36.39v15.12l-118.69,50.02ZM284.2,428.3l252.24,36.28,117.82-49.65v-13.6l-236.81-36.24-143.63,51.24,10.38,11.98h0Z"/>
    </g>
    <g>
      <path class="st14" d="M654.76,415.25v-14.36l-122.48,56.59s-3.38,17.74.84,16.89c4.22-.84,121.63-59.13,121.63-59.13h0Z"/>
      <path class="st1" d="M532.84,474.91c-.44,0-.85-.17-1.17-.49-2.55-2.53-.16-15.55.12-17.02l.05-.25.23-.11,123.19-56.92v15.45l-.28.14c-4.8,2.38-117.52,58.32-121.76,59.17-.13.03-.26.04-.38.04h0ZM532.72,457.83c-1.04,5.6-1.98,14.26-.35,15.87.18.18.38.24.66.18,3.28-.66,80.57-38.76,121.23-58.95v-13.27l-121.54,56.16h0Z"/>
    </g>
    <g>
      <path class="st14" d="M270.43,431.3l262.7,43.08s3.38-16.05-.84-16.89c-4.22-.84-259.32-41.39-259.32-41.39l-2.53,15.2h0Z"/>
      <path class="st1" d="M533.52,474.95l-.47-.08-263.19-43.16,2.7-16.19.49.08c10.42,1.66,255.15,40.56,259.34,41.39.61.12,1.11.48,1.5,1.08,2.39,3.63-.15,15.89-.26,16.41l-.1.47h-.01ZM271.01,430.89l261.73,42.92c.75-3.76,2.03-12.58.31-15.19-.24-.37-.52-.58-.86-.64-4.08-.82-246.22-39.31-258.81-41.31l-2.37,14.22h0Z"/>
    </g>
  </g>
  <g>
    <g>
      <path class="st13" d="M473.19,241.44s-12.01-4.5-13.14,3,1.13,8.26,1.13,8.26c0,0-9.76-4.5-11.26,7.88-1.5,12.39,6.38,12.39,6.38,12.39,0,0-8.26,1.13-7.13,9.76s21.4,19.9,31.16,7.88c0,0,20.27-4.5,21.4-11.64,1.13-7.13-28.53-37.54-28.53-37.54h0Z"/>
      <path class="st1" d="M468.95,296.35c-1.83,0-3.75-.28-5.72-.84-7.39-2.1-13.92-7.8-14.57-12.71-.82-6.25,3.09-8.79,5.59-9.76-.84-.33-1.83-.89-2.7-1.89-2-2.26-2.72-5.83-2.14-10.63.5-4.14,1.97-6.92,4.36-8.25,2.14-1.19,4.49-.94,6.01-.56-.5-1.21-.82-3.4-.23-7.34.26-1.73,1.08-3.02,2.44-3.82,3.94-2.32,11.07.31,11.37.42.07.03.13.07.18.12.07.08,7.51,7.71,14.71,16.12,9.75,11.39,14.45,18.74,13.96,21.85-1.12,7.11-19.51,11.53-21.62,12.01-2.88,3.47-6.96,5.28-11.65,5.28h.01ZM457.32,252.41c-.99,0-2.07.19-3.07.74-2.09,1.17-3.38,3.69-3.85,7.49-.54,4.49.09,7.79,1.88,9.83,1.73,1.96,3.99,2,4.01,2,.26,0,.48.21.5.47s-.17.49-.43.53c-.32.04-7.75,1.17-6.71,9.2.59,4.55,6.8,9.88,13.85,11.88,3.94,1.12,11.31,2.05,16.43-4.25.07-.09.17-.15.28-.17.2-.04,19.95-4.51,21.01-11.23.89-5.63-20.06-28.56-28.31-37.03-.88-.31-7.11-2.4-10.41-.46-1.1.65-1.74,1.66-1.96,3.1-.98,6.52.65,7.62.8,7.71.02,0,.03.02.04.02.24.11.35.39.25.64s-.37.37-.62.29c-.02,0-.06-.02-.1-.04-.29-.12-1.81-.73-3.59-.73h0Z"/>
    </g>
    <g>
      <path class="st13" d="M542.94,239.56s12.01-4.5,13.14,3c1.13,7.51-1.13,8.26-1.13,8.26,0,0,9.76-4.5,11.26,7.88,1.5,12.38-6.38,12.39-6.38,12.39,0,0,8.26,1.13,7.13,9.76s-21.4,19.9-31.16,7.88c0,0-20.27-4.5-21.4-11.64-1.13-7.13,28.53-37.54,28.53-37.54h0Z"/>
      <path class="st1" d="M547.17,294.47c-4.68,0-8.76-1.81-11.65-5.28-2.11-.48-20.49-4.9-21.62-12.01-.49-3.11,4.21-10.46,13.96-21.85,7.2-8.41,14.64-16.04,14.71-16.12.05-.05.11-.09.18-.12.3-.11,7.42-2.74,11.37-.42,1.36.8,2.18,2.08,2.44,3.82.59,3.94.27,6.13-.23,7.34,1.52-.38,3.88-.63,6.01.56,2.39,1.33,3.85,4.11,4.36,8.25.58,4.79-.14,8.37-2.14,10.63-.88.99-1.86,1.56-2.7,1.89,2.5.97,6.41,3.51,5.59,9.76-.64,4.91-7.17,10.62-14.57,12.71-1.98.56-3.89.84-5.72.84h0ZM543.22,239.99c-8.26,8.48-29.2,31.4-28.31,37.03,1.06,6.72,20.81,11.18,21.01,11.23.11.02.21.09.28.17,5.12,6.3,12.49,5.36,16.43,4.25,7.04-2,13.25-7.33,13.85-11.88,1.05-8.03-6.39-9.16-6.71-9.2-.26-.04-.45-.27-.43-.53s.23-.47.5-.47c.02,0,2.28-.04,4.01-2,1.79-2.04,2.42-5.34,1.88-9.83-.46-3.8-1.75-6.32-3.85-7.49-2.79-1.56-6.21-.21-6.66-.02-.04.02-.08.04-.1.04-.25.08-.53-.04-.62-.29-.1-.25.01-.53.25-.64.01,0,.03,0,.07-.03.18-.11,1.74-1.28.77-7.7-.22-1.44-.86-2.46-1.96-3.1-3.3-1.94-9.53.15-10.41.46h0Z"/>
    </g>
    <g>
      <path class="st6" d="M482.57,268.09s-1.13,36.04,19.9,33.79c21.02-2.25,31.16-36.42,31.16-36.42l-3-15.02"/>
      <path d="M500.62,302.48c-3.73,0-6.97-1.25-9.65-3.74-9.47-8.78-8.93-29.77-8.9-30.66l1,.03c0,.21-.56,21.43,8.58,29.9,2.91,2.69,6.53,3.83,10.76,3.38,19.84-2.13,30.02-33.76,30.7-35.94l-2.98-14.89.98-.2,3.03,15.14-.04.12c-.03.09-2.61,8.7-7.74,17.47-6.84,11.69-15.08,18.36-23.84,19.3-.65.07-1.28.1-1.9.1h0Z"/>
    </g>
    <g>
      <path class="st6" d="M443.9,314.27s-12.01,21.77-9.01,39.04c3,17.27,17.64,51.06,60.07,29.28,42.42-21.77-51.06-68.33-51.06-68.33h0Z"/>
      <path d="M469.87,390.18c-5.04,0-9.69-1.05-13.92-3.16-4.03-2.01-17.5-10.37-21.54-33.62-3-17.24,8.94-39.15,9.06-39.37l.23-.42.43.21c.16.08,15.7,7.85,31.06,18.36,20.72,14.19,31.26,26.35,31.32,36.15.04,5.88-3.77,10.83-11.31,14.7-9.27,4.76-17.74,7.14-25.32,7.14h0ZM444.12,314.94c-1.63,3.12-11.44,22.71-8.73,38.29,2.07,11.88,8.67,26.75,21,32.9,10.3,5.13,23.2,3.79,38.34-3.98,7.18-3.69,10.8-8.33,10.77-13.8-.13-21.64-55.87-50.6-61.39-53.41h.01Z"/>
    </g>
    <g>
      <path class="st6" d="M488.02,388.22s5.26,3.75,6.57,6.38,3.75,7.32,7.51,6.38,3.38-4.69,3.38-4.69c0,0,1.88,6.19,5.63,4.69,3.75-1.5,3.19-4.32,3.19-4.32,0,0,.94,3.19,4.88,1.31s7.88-9.57,6.57-13.33c-1.31-3.75-24.03-5.82-37.73,3.57h0Z"/>
      <path d="M509.95,401.72c-.49,0-.96-.11-1.43-.33-1.29-.62-2.22-2.01-2.8-3.16-.38,1.24-1.3,2.69-3.51,3.25-4.23,1.05-6.83-4.15-8.08-6.64-1.24-2.49-6.36-6.16-6.41-6.2-.13-.1-.21-.25-.21-.41s.08-.32.22-.41c10.87-7.45,27.76-7.99,35.28-5.53,1.82.6,2.9,1.34,3.21,2.21,1.38,3.94-2.51,11.89-6.83,13.94-1.49.71-2.77.83-3.82.36-.38-.17-.68-.39-.92-.63-.31,1.05-1.15,2.4-3.37,3.29-.45.18-.9.27-1.34.27h0ZM505.47,395.8c.22,0,.41.14.48.35,0,.03,1.05,3.4,3.01,4.34.63.3,1.26.31,1.96.04,3.33-1.33,2.89-3.73,2.89-3.76-.05-.26.11-.52.37-.58.27-.07.53.09.6.34,0,0,.3.96,1.22,1.36.76.34,1.76.22,2.97-.36,3.79-1.81,7.51-9.29,6.31-12.71-.09-.25-.52-.92-2.57-1.59-6.32-2.07-22.83-2.11-33.81,5.01,1.43,1.07,5.04,3.94,6.15,6.14,1.13,2.27,3.5,6.99,6.94,6.12,3.28-.82,3.01-4.02,3-4.16-.02-.25.15-.49.4-.54h.1-.02Z"/>
    </g>
    <g>
      <path class="st6" d="M502.23,386.83s3.57,3.57,3.19,9.39"/>
      <path d="M505.43,396.72h-.03c-.28-.02-.48-.26-.47-.53.36-5.53-3.01-8.96-3.05-9-.2-.2-.2-.51,0-.71s.51-.2.71,0c.15.15,3.72,3.79,3.34,9.77-.02.26-.24.47-.5.47Z"/>
    </g>
    <g>
      <path class="st6" d="M511.24,387.39s3.57,3.57,3.19,9.39"/>
      <path d="M514.44,397.28h-.03c-.28-.02-.48-.26-.47-.53.36-5.51-3.01-8.97-3.05-9-.19-.2-.19-.51,0-.71.2-.2.51-.19.71,0,.15.15,3.72,3.79,3.34,9.77-.02.26-.24.47-.5.47Z"/>
    </g>
    <g>
      <path class="st6" d="M549.02,324.03l-65.7,37.17s-12.2,4.13-15.58,11.26c-3.38,7.13-1.36,10.84,2.16,13.37,0,0,.28,7.32,6.9,4.79,0,0-.84,5.77,4.5,4.5s13.94-9.15,17.18-7.6,11.12,5.3,13.94,1.69c9.57,6.52,43.92,8.87,60.96-14.64,17.03-23.51,15.2-44.2,15.2-44.2l-39.56-6.34Z"/>
      <path d="M479.89,395.8c-.98,0-1.78-.28-2.39-.84-1.1-1.01-1.26-2.66-1.25-3.63-1.75.52-3.22.4-4.39-.37-1.97-1.3-2.37-4.03-2.44-4.87-4.38-3.26-5.06-7.67-2.13-13.85,3.43-7.24,15.37-11.35,15.87-11.52l65.76-37.21,40.12,6.42.03.39c.02.21,1.65,21.15-15.3,44.54-16.65,22.98-50.7,21.69-61.27,15.01-3.27,3.35-10.92-.3-14.24-1.9-1.6-.77-5.21,1.43-8.7,3.56-2.84,1.73-5.77,3.52-8.15,4.08-.55.13-1.06.2-1.53.2h.01ZM477.42,389.85l-.12.84s-.33,2.43.88,3.54c.65.59,1.66.73,3.01.41,2.22-.53,5.08-2.27,7.86-3.96,3.89-2.37,7.56-4.6,9.65-3.61,2.94,1.41,10.75,5.14,13.33,1.83l.29-.37.39.26c9.89,6.74,43.77,8.25,60.27-14.52,15.46-21.33,15.26-40.54,15.13-43.48l-38.99-6.24-65.54,37.08c-.21.08-12.13,4.18-15.37,11.04-3.54,7.48-.79,10.74,2,12.75l.2.14v.24s.16,3.09,2.03,4.32c1.04.68,2.45.69,4.2.02l.79-.3h-.01Z"/>
    </g>
    <g>
      <path class="st16" d="M591.07,336.04s-23.65-11.64-47.3-6.01c0,0-3.38,15.39-15.39,20.65-12.01,5.26-18.02,12.01-18.02,12.01,0,0-18.77-5.63-27.03-1.5,0,0-9.39-11.26-16.14-13.14,0,0,6.38-1.5,3.75-7.13s-5.63-9.39-5.63-9.39c0,0-19.15-8.63-27.03-7.88,0,0,6.01-39.42,49.93-57.06,0,0,0,29.28,16.52,28.53,16.52-.75,28.91-29.66,28.91-29.66,0,0,52.56.38,57.44,70.58h0Z"/>
      <path class="st1" d="M510.51,363.27l-.31-.09c-.19-.05-18.68-5.53-26.66-1.53l-.35.18-.25-.3c-.09-.11-9.36-11.17-15.89-12.98l-1.87-.52,1.89-.45s2.73-.67,3.67-2.63c.51-1.06.43-2.34-.26-3.8-2.34-5.02-5.02-8.58-5.5-9.19-1.58-.7-19.32-8.49-26.66-7.79l-.64.06.1-.63c.06-.4,6.55-39.9,50.24-57.45l.69-.28v.74c0,.18.09,17.68,7.68,24.93,2.31,2.2,5.11,3.24,8.32,3.1,16.01-.73,28.35-29.07,28.47-29.35l.13-.31h.33c.13,0,13.44.2,27.16,9.05,12.64,8.15,28.24,25.53,30.78,62l.06.87-.78-.38c-.23-.11-23.57-11.39-46.67-6.04-.57,2.23-4.45,15.81-15.61,20.69-11.76,5.15-17.79,11.82-17.85,11.89l-.21.24v-.03ZM491.72,359.17c7.82,0,16.69,2.44,18.48,2.96,1.19-1.25,7.25-7.21,17.97-11.91,11.65-5.09,15.07-20.15,15.1-20.3l.07-.31.3-.07c21.16-5.04,42.55,3.76,46.86,5.68-1.5-19.81-8.02-46.04-30.26-60.39-12.29-7.93-24.2-8.78-26.3-8.87-.66,1.47-3.64,7.9-8.17,14.33-6.94,9.85-14.02,15-21.03,15.32-3.51.16-6.54-.98-9.05-3.38-7.08-6.76-7.88-21.42-7.98-24.92-39.57,16.25-47.83,50.75-48.83,55.79,8.23-.29,25.86,7.62,26.63,7.97l.11.05.08.09s3.07,3.87,5.69,9.49c.82,1.75.9,3.32.25,4.67-.67,1.38-1.97,2.21-2.97,2.67,6.07,2.56,13.33,10.82,14.79,12.53,2.26-1.03,5.18-1.4,8.27-1.4h0Z"/>
    </g>
    <g>
      <path class="st13" d="M461.33,274.19s2.82,12.11,13.51,7.32,6.19-19.15,3.1-21.4"/>
      <path class="st1" d="M470.16,283.13c-1.27,0-2.46-.27-3.57-.82-4.35-2.16-5.7-7.77-5.76-8.01-.06-.27.1-.54.37-.6s.54.1.6.37c.01.05,1.3,5.39,5.23,7.34,2.13,1.06,4.69.94,7.59-.36,4.7-2.1,6.05-6.03,6.36-8.95.53-5.11-1.66-10.36-3.35-11.59-.22-.16-.27-.48-.11-.7s.48-.27.7-.11c1.92,1.4,4.34,6.96,3.76,12.5-.33,3.18-1.81,7.46-6.95,9.76-1.73.78-3.37,1.16-4.88,1.16h.01Z"/>
    </g>
    <path class="st1" d="M544.23,330.23l-.92-.38c5.48-13.15-1.05-26.86-1.11-26.99l.9-.44c.07.14,6.79,14.25,1.14,27.82h-.01Z"/>
    <path class="st1" d="M464.84,331.73c-6.44-15.15,6.73-28.94,6.86-29.08l.72.7c-.13.13-12.83,13.46-6.66,27.99l-.92.39h0Z"/>
    <path class="st1" d="M518.34,348.62c-12.03,0-23.98-13.16-24.5-13.74l.74-.67c.13.14,13.12,14.44,25.11,13.35l.09,1c-.48.04-.96.06-1.44.06Z"/>
    <g>
      <g>
        <path class="st12" d="M472.76,259.29c0-1.25-.09-4.52-4.3-4.52s-3.99,3.49-3.9,5.53,1.96,3.99,5.23,3.21,2.96-2.96,2.96-4.21h0Z"/>
        <path class="st5" d="M468.39,264.17c-1.06,0-2.01-.29-2.77-.86-.94-.71-1.51-1.81-1.56-3v-.11c-.06-1.38-.15-3.46,1.1-4.77.74-.78,1.85-1.17,3.3-1.17,3.18,0,4.8,1.69,4.8,5.02v.29c.03,1.26.07,3.59-3.35,4.41-.52.12-1.03.19-1.52.19h0ZM468.46,255.26c-1.16,0-2.03.29-2.57.86-.96,1-.89,2.76-.83,4.04v.11c.04.89.47,1.71,1.17,2.24.61.46,1.7.92,3.45.5,2.63-.63,2.61-2.17,2.58-3.42v-.31c0-1.73-.4-4.02-3.8-4.02h0Z"/>
      </g>
      <path class="st1" d="M494.38,273.24s-4.85,3.32-3.06,6.12c1.79,2.81,17.85,4.59,29.33-8.93l-26.27,2.81h0Z"/>
      <g>
        <path class="st6" d="M528.13,265c20.75-25.51,12.51-56.51-10.88-63.94-21.43-6.8-58.49,7.55-51.01,46.25,7.82,40.47,47.61,27.21,51.01,24.83"/>
        <path d="M498.52,276.6c-4.39,0-9.06-.65-13.5-2.44-10.15-4.11-16.64-13.11-19.28-26.76-3.8-19.66,3.92-31.36,11.06-37.71,10.73-9.55,27.43-13.29,40.6-9.11,10.43,3.31,18.27,11.42,21.5,22.25,4.13,13.81.34,29.29-10.39,42.48l-.78-.63c10.51-12.93,14.23-28.08,10.2-41.57-3.14-10.5-10.74-18.37-20.85-21.58-12.65-4.01-29.32-.27-39.63,8.91-6.95,6.18-14.45,17.58-10.74,36.77,2.57,13.29,8.85,22.04,18.67,26.02,13.56,5.49,29.38.03,31.57-1.51l.57.82c-1.55,1.08-9.62,4.06-19.02,4.06h.02Z"/>
      </g>
      <g>
        <path class="st13" d="M539.94,232.1c-.67-14.5-9.13-26.74-22.69-31.05-14.82-4.7-37.11.71-46.98,17.3,5.13,2.32,12.78,3.84,19.61-2.59,0,0,5.1,7.82,12.24-1.7,0,0,6.12,13.94,17.68,6.12,0,0,3.61,23.89,20.14,11.92Z"/>
        <path class="st1" d="M531.48,235.96c-1.15,0-2.25-.22-3.29-.65-6.04-2.53-8.23-11.58-8.76-14.29-3.14,1.95-6.18,2.51-9.05,1.68-4.63-1.34-7.42-5.89-8.37-7.7-2.35,2.92-4.75,4.39-7.15,4.28-2.57-.08-4.35-1.9-5.06-2.78-6.89,6.15-14.52,4.67-19.74,2.3-.13-.06-.23-.17-.27-.31-.04-.14-.03-.28.05-.41,10.09-16.94,32.54-22.29,47.56-17.52,13.51,4.29,22.34,16.36,23.04,31.5,0,.17-.07.33-.21.43-3.17,2.3-6.1,3.45-8.75,3.45v.02ZM519.8,219.69c.07,0,.14,0,.2.04.16.07.27.21.29.38.02.12,1.83,11.56,8.29,14.27,3.04,1.27,6.69.42,10.85-2.53-.78-14.58-9.31-26.19-22.33-30.32-14.51-4.61-36.14.45-46.11,16.59,5.03,2.15,12.17,3.28,18.54-2.72.11-.1.25-.15.4-.13.15.02.28.1.36.22.02.03,1.81,2.71,4.62,2.79,2.17.06,4.5-1.45,6.81-4.52.11-.14.28-.22.46-.2s.33.13.4.3c.03.06,2.86,6.37,8.1,7.88,2.76.8,5.74.13,8.85-1.97.08-.06.18-.09.28-.09h0Z"/>
      </g>
      <path class="st1" d="M498.52,276.6c-4.39,0-9.06-.65-13.5-2.44-10.15-4.11-16.64-13.11-19.28-26.76-3.8-19.66,3.92-31.36,11.06-37.71,10.73-9.55,27.43-13.29,40.6-9.11,10.43,3.31,18.27,11.42,21.5,22.25,4.13,13.81.34,29.29-10.39,42.48l-.78-.63c10.51-12.93,14.23-28.08,10.2-41.57-3.14-10.5-10.74-18.37-20.85-21.58-12.65-4.01-29.32-.27-39.63,8.91-6.95,6.18-14.45,17.58-10.74,36.77,2.57,13.29,8.85,22.04,18.67,26.02,13.56,5.49,29.38.03,31.57-1.51l.57.82c-1.55,1.08-9.62,4.06-19.02,4.06h.02Z"/>
      <g>
        <path class="st6" d="M535.44,251.56s14.03,2.04,13.01-11.48-17.47-8.42-19-3.83"/>
        <path class="st1" d="M537.38,252.18c-1.14,0-1.92-.11-2.01-.12l.14-.99c.06,0,6.24.85,9.85-2.52,2-1.87,2.87-4.7,2.59-8.42-.46-6.09-4.05-7.8-6.99-8.17-4.64-.57-10.25,2.07-11.04,4.46l-.95-.32c.94-2.81,6.83-5.79,12.12-5.14,2.7.33,7.32,1.96,7.86,9.09.3,4.04-.67,7.15-2.91,9.23-2.65,2.47-6.39,2.9-8.67,2.9h0Z"/>
      </g>
      <g>
        <path class="st6" d="M535.38,240.97s2.81-4.85,6.38-6.12"/>
        <path class="st1" d="M535.81,241.22l-.87-.5c.12-.2,2.94-5.02,6.64-6.34l.34.94c-3.35,1.2-6.08,5.85-6.11,5.9h0Z"/>
      </g>
      <path class="st1" d="M488.41,256.08c-.72,0-1.44-.13-2.07-.5-1.18-.69-1.82-2.03-1.9-4-.07-1.93.48-3.42,1.65-4.41,2.32-1.98,6.19-1.23,6.35-1.2l-.2.98s-3.56-.68-5.51.98c-.92.79-1.35,2-1.29,3.61.06,1.6.53,2.66,1.4,3.17,1.85,1.08,4.98-.52,5.01-.53l.46.89c-.11.06-1.99,1.02-3.9,1.02h0Z"/>
      <g>
        <path class="st12" d="M541.09,252.91c0-1.25-.09-4.52-4.3-4.52s-3.99,3.49-3.9,5.53c.09,2.04,1.96,3.99,5.23,3.21s2.96-2.96,2.96-4.21h.01Z"/>
        <path class="st5" d="M536.72,257.79c-1.06,0-2.01-.29-2.77-.86-.94-.71-1.51-1.81-1.56-3v-.11c-.06-1.38-.15-3.46,1.1-4.77.74-.78,1.85-1.17,3.3-1.17,3.18,0,4.8,1.69,4.8,5.02v.29c.03,1.26.07,3.59-3.35,4.41-.52.12-1.03.19-1.52.19h0ZM536.79,248.88c-1.16,0-2.03.29-2.57.86-.96,1-.89,2.76-.83,4.04v.11c.04.89.47,1.71,1.17,2.24.61.46,1.7.92,3.45.5,2.63-.63,2.61-2.17,2.58-3.42v-.31c0-1.73-.4-4.02-3.8-4.02Z"/>
      </g>
      <ellipse class="st2" cx="515.42" cy="247.88" rx="5.1" ry="3.44" transform="translate(-41.68 118.5) rotate(-12.61)"/>
      <ellipse class="st2" cx="473.34" cy="248.35" rx="5.1" ry="3.44" transform="translate(-3.76 7.3) rotate(-.88)"/>
      <path class="st1" d="M509.53,259.69c-4.39-8.41-10.63-12.15-10.7-12.19l.51-.86c.27.16,6.56,3.93,11.08,12.59l-.89.46h0Z"/>
      <path class="st1" d="M502.83,230.59c-10.76,0-23.39-2.41-24.1-2.55l.19-.98c.23.04,23.28,4.45,33.55,1.51l.28.96c-2.7.77-6.2,1.06-9.92,1.06Z"/>
    </g>
    <g>
      <path class="st13" d="M535.51,260.96s-6.01,6.76.75,15.02c6.76,8.26,15.02,0,15.02,0,0,0,5.11,15.77,15.69,4.88,0,0,3.68-9.01-7.13-9.76"/>
      <path class="st1" d="M559.89,285.19c-.47,0-.94-.05-1.41-.16-4.26-.99-6.67-6.24-7.43-8.18-1.28,1.09-4.55,3.49-8.33,3.29-2.57-.13-4.88-1.42-6.86-3.84-6.95-8.49-.8-15.59-.74-15.67.18-.21.5-.23.71-.04.21.18.23.5.04.71-.23.26-5.63,6.55.76,14.37,1.79,2.19,3.86,3.36,6.13,3.48,4.35.23,8.11-3.48,8.14-3.52.12-.12.3-.17.47-.13s.3.17.36.33c.02.07,2.38,7.16,6.97,8.23,2.38.56,5.01-.61,7.82-3.47.2-.55,1.22-3.67-.26-6.04-1.08-1.73-3.26-2.72-6.48-2.95-.28-.02-.48-.26-.46-.53.02-.28.26-.48.53-.46,3.56.25,6,1.4,7.26,3.42,1.89,3.04.37,6.87.3,7.03-.02.06-.06.11-.1.16-2.58,2.65-5.07,3.98-7.43,3.98h0Z"/>
    </g>
    <path d="M470.37,386.02l-.93-.37c4.96-12.34,15.44-15.06,15.55-15.08l.24.97c-.1.03-10.09,2.63-14.86,14.48h0Z"/>
    <path d="M477.25,390.84l-.89-.46c5.98-11.68,13.09-11.95,13.39-11.96l.02,1c-.07,0-6.84.32-12.52,11.41h0Z"/>
    <g>
      <path class="st1" d="M505.56,238.95s-.05,2.07.23,2.72-.08,1.45-.92,1.34-1.63-3.16-1.3-5.55c.34-2.39.61-2.6,1.91-2.3s-.1,2.43.08,3.79h0Z"/>
      <path class="st1" d="M505.03,243.51c-.07,0-.15,0-.23-.02-1.4-.2-2.04-3.84-1.72-6.12.21-1.48.4-2.25.94-2.62.46-.32,1.03-.22,1.58-.09.43.1.65.34.76.52.34.56.14,1.32-.06,2.13-.14.56-.29,1.14-.24,1.56v.08c-.02.81.03,2.13.19,2.51.22.52.16,1.12-.16,1.54-.25.33-.63.51-1.06.51h0ZM504.77,235.54c-.08,0-.14,0-.18.04-.27.18-.44,1.41-.51,1.94-.33,2.34.48,4.8.89,4.99.24.03.31-.08.33-.11.1-.13.11-.35.03-.54-.29-.69-.28-2.45-.27-2.89-.07-.61.1-1.26.27-1.9.13-.49.3-1.16.18-1.36,0,0-.03-.04-.13-.07-.21-.05-.44-.1-.6-.1h0Z"/>
    </g>
    <g>
      <path class="st1" d="M484.44,238.68s-.05,2.07.23,2.72-.08,1.45-.92,1.34-1.63-3.16-1.3-5.55.61-2.6,1.91-2.3-.1,2.43.08,3.79h0Z"/>
      <path class="st1" d="M483.9,243.24c-.07,0-.15,0-.23-.02-1.4-.2-2.04-3.84-1.72-6.12.21-1.48.4-2.25.94-2.62.46-.32,1.03-.22,1.58-.09.43.1.65.34.76.52.34.56.14,1.32-.06,2.13-.14.56-.29,1.14-.24,1.56v.08c-.02.81.03,2.13.19,2.51.22.52.16,1.12-.16,1.54-.25.33-.63.51-1.06.51h0ZM483.64,235.28c-.08,0-.14,0-.18.04-.27.18-.44,1.41-.51,1.94-.33,2.34.48,4.8.89,4.99.23.03.31-.08.33-.11.1-.13.11-.35.03-.54-.29-.69-.28-2.45-.27-2.89-.07-.61.1-1.26.27-1.9.13-.49.3-1.16.18-1.36,0,0-.03-.04-.13-.07-.21-.05-.44-.1-.6-.1h0Z"/>
    </g>
    <path class="st1" d="M494.56,261.88c-5,0-7.79-2.38-7.94-2.51l.66-.75s4.42,3.73,11.92,1.59l.28.96c-1.82.52-3.46.72-4.91.72h-.01Z"/>
  </g>
  <g>
    <path class="st13" d="M430.02,350.03c0,19.28-31.26,34.91-69.83,34.91s-69.83-15.63-69.83-34.91"/>
    <path class="st1" d="M360.2,385.44c-38.78,0-70.33-15.89-70.33-35.41,0-.28.22-.5.5-.5s.5.22.5.5c0,18.98,31.1,34.41,69.33,34.41s69.33-15.44,69.33-34.41c0-.28.22-.5.5-.5s.5.22.5.5c0,19.53-31.55,35.41-70.33,35.41Z"/>
  </g>
  <g>
    <g>
      <g>
        <path class="st10" d="M336.83,335.17s6.52-15.7,17.48-15.11c10.96.59,15.11,7.11,15.11,7.11,0,0,11.55-7.7,19.84,3.55,0,0,21.03,8,18.07,13.92s-8.29,8.89-15.11,8.59c-6.81-.3-41.47,1.48-41.47,1.48l-13.92-19.55h0Z"/>
        <path class="st1" d="M350.75,355.22c-.16,0-.31-.08-.41-.21l-13.92-19.55c-.1-.14-.12-.32-.05-.48s1.69-4.03,4.7-7.89c4.03-5.17,8.6-7.76,13.27-7.52,9.64.52,14.1,5.47,15.22,6.94,2.18-1.25,12.45-6.33,20.02,3.81,1.68.65,16.16,6.38,18.27,11.79.38.98.36,1.91-.07,2.77-3.01,6.02-8.52,9.15-15.58,8.87-6.72-.29-41.07,1.46-41.42,1.48h-.03,0ZM337.4,335.11l13.6,19.09c3.28-.17,34.81-1.75,41.24-1.47,6.73.3,11.77-2.58,14.64-8.31.3-.6.31-1.24.03-1.96-2.03-5.21-17.67-11.21-17.83-11.27-.09-.03-.17-.09-.22-.17-7.91-10.73-18.71-3.74-19.17-3.44-.11.08-.25.1-.38.07s-.25-.11-.32-.22c-.04-.06-4.17-6.31-14.71-6.88-9.69-.55-15.98,12.56-16.88,14.55h0Z"/>
      </g>
      <g>
        <path class="st10" d="M357.26,331.62s5.63-1.78,8.89,8.89c0,0,9.48-8,10.96,3.85,0,0,3.55-4.44,7.11.3"/>
        <path class="st1" d="M384.22,345.15c-.15,0-.3-.07-.4-.2-.97-1.3-2.02-1.97-3.11-1.98h-.05c-1.77,0-3.15,1.69-3.16,1.7-.13.16-.33.22-.53.17-.19-.05-.33-.22-.36-.42-.4-3.22-1.43-5.18-3.06-5.82-2.94-1.15-7.04,2.25-7.08,2.28-.13.11-.3.15-.46.1s-.29-.17-.34-.33c-3.05-10-8.05-8.62-8.26-8.55-.26.08-.54-.07-.62-.33-.08-.26.06-.54.33-.62.07-.02,1.71-.52,3.76.56,2.33,1.23,4.19,3.91,5.54,7.97,1.34-.98,4.71-3.09,7.5-2,1.81.71,3,2.6,3.54,5.63.7-.6,1.83-1.34,3.2-1.34h.06c1.42.02,2.73.82,3.9,2.38.17.22.12.53-.1.7-.09.07-.2.1-.3.1h0Z"/>
      </g>
    </g>
    <g>
      <path class="st7" d="M360.22,357.97s12.06-14.23,24.12-7.73c0,0,8.04-6.19,9.59,3.09,0,0,8.66-5.57,11.13.93s-15.15,7.73-15.15,7.73c0,0,.31,4.33-8.35,2.78,0,0,.31,6.8-7.42,5.57s-20.41-7.42-13.92-12.37h0Z"/>
      <path class="st1" d="M375.91,370.99c-.58,0-1.2-.05-1.85-.16-5.98-.96-14.97-4.87-16.02-9.06-.26-1.05-.16-2.63,1.84-4.17.75-.86,12.58-14.03,24.42-7.95.94-.66,4.18-2.69,6.85-1.64,1.56.61,2.61,2.13,3.14,4.52,1.46-.82,5.19-2.62,8.12-1.65,1.45.48,2.5,1.55,3.13,3.19.44,1.16.35,2.25-.29,3.24-2.45,3.84-12.61,4.94-14.87,5.13-.08.48-.32,1.21-1.04,1.86-1.38,1.24-3.83,1.59-7.29,1.04-.07.97-.42,2.88-1.92,4.21-1.05.94-2.47,1.42-4.22,1.42v.02ZM377.74,349.05c-9.17,0-17.04,9.12-17.14,9.24-.02.03-.05.05-.08.07-1.3,1-1.8,2.03-1.52,3.16.87,3.45,8.89,7.31,15.21,8.32,2.3.37,4.07.03,5.24-1.01,1.69-1.5,1.61-4.01,1.6-4.04,0-.15.06-.3.17-.4.11-.1.26-.14.42-.12,4.27.76,6.16.04,7-.69.8-.7.77-1.54.76-1.57-.01-.27.19-.51.46-.53.12,0,12.09-.89,14.53-4.71.46-.72.52-1.49.2-2.35-.52-1.36-1.34-2.21-2.5-2.6-3.21-1.06-7.85,1.88-7.89,1.91-.14.09-.32.1-.47.04-.15-.07-.26-.21-.29-.38-.41-2.43-1.3-3.93-2.65-4.47-2.57-1.01-6.1,1.66-6.14,1.69-.16.12-.37.14-.54.04-2.14-1.15-4.29-1.62-6.37-1.62v.02ZM360.22,357.96h0Z"/>
    </g>
    <g>
      <path class="st14" d="M365.17,368.43s8.66-7.73,4.64-11.75-10.51-12.37-13.3-18.25-17.63-15.15-34.02-6.19c-16.39,8.97-11.81,25.85,11.13,32.78,13.3,4.02,27.21,8.97,31.54,3.4h0Z"/>
      <path class="st1" d="M358.39,371.42c-5.62,0-13.34-2.37-21.35-4.83-1.18-.36-2.37-.73-3.55-1.08-12.45-3.76-20.38-10.7-21.19-18.55-.61-5.83,3.02-11.36,9.96-15.15,9.31-5.09,17.48-4.14,22.7-2.45,6.38,2.07,10.63,5.94,12.01,8.86,2.64,5.58,8.96,13.86,13.2,18.11.84.84,1.24,1.87,1.21,3.08-.12,4.09-5.32,8.9-5.83,9.36-1.5,1.9-4,2.65-7.15,2.65h-.01ZM336.46,329.01c-4.03,0-8.7.93-13.73,3.68-6.66,3.65-10.02,8.68-9.45,14.17.77,7.43,8.43,14.05,20.49,17.69,1.18.36,2.37.72,3.55,1.08,11.66,3.58,23.72,7.29,27.45,2.49.02-.02.04-.05.06-.07.05-.05,5.43-4.89,5.54-8.68.03-.94-.27-1.7-.92-2.35-4.3-4.3-10.71-12.72-13.4-18.39-1.25-2.63-5.35-6.37-11.42-8.34-2.22-.72-5-1.3-8.18-1.3v.02Z"/>
    </g>
    <g>
      <path class="st14" d="M315.99,338.39s-2.53,8.73,11.26,16.33c13.8,7.6,17.46,5.07,21.68,7.32s8.45,6.48,16.89,1.69"/>
      <path class="st1" d="M358.62,366.43c-3.29,0-5.78-1.5-8.09-2.89-.62-.37-1.23-.74-1.84-1.06-1.41-.75-2.79-.95-4.54-1.2-3.42-.49-8.12-1.15-17.15-6.13-13.99-7.71-11.61-16.54-11.5-16.91.08-.26.35-.42.62-.34.26.08.42.35.34.62,0,.02-.58,2.12.47,5.08.98,2.76,3.6,6.84,10.55,10.67,8.87,4.89,13.46,5.54,16.8,6.01,1.85.26,3.31.47,4.87,1.3.62.33,1.25.71,1.88,1.09,3.72,2.24,7.57,4.55,14.53.61.24-.14.54-.05.68.19.14.24.05.54-.19.68-2.92,1.65-5.35,2.27-7.45,2.27h.02Z"/>
    </g>
    <g>
      <path class="st7" d="M377.65,362.04s13.01,1.1,9.79-8.14"/>
      <path class="st1" d="M378.92,362.58c-.74,0-1.24-.04-1.31-.05l.08-1c.07,0,6.64.52,8.96-2.47.94-1.22,1.05-2.9.31-5.01l.94-.33c.86,2.45.7,4.46-.47,5.96-1.98,2.55-6.33,2.89-8.52,2.89h.01Z"/>
    </g>
  </g>
  <path class="st1" d="M343.58,373.8h-.1c-34.77-6.96-42.64-23.38-42.64-26.11,0-.28.22-.5.5-.5s.5.22.5.5c0,2.2,7.8,18.32,41.83,25.13.27.05.45.32.39.59-.05.24-.26.4-.49.4h0Z"/>
  <g>
    <line class="st0" x1="143.73" y1="237.03" x2="143.73" y2="178.74"/>
    <rect class="st1" x="143.23" y="178.74" width="1" height="58.28"/>
  </g>
  <g>
    <line class="st0" x1="158.93" y1="233.65" x2="185.12" y2="195.64"/>
    <rect class="st1" x="148.94" y="214.11" width="46.16" height="1" transform="translate(-102.31 234.49) rotate(-55.43)"/>
  </g>
  <g>
    <line class="st0" x1="479.91" y1="187.19" x2="461.33" y2="135.67"/>
    <rect class="st1" x="470.12" y="134.06" width="1" height="54.77" transform="translate(-26.86 169.22) rotate(-19.83)"/>
  </g>
  <g>
    <line class="st0" x1="464.71" y1="197.33" x2="427.54" y2="173.68"/>
    <rect class="st1" x="445.61" y="163.47" width="1" height="44.05" transform="translate(50.12 462.28) rotate(-57.53)"/>
  </g>
  <rect class="st1" x="88.82" y="498.45" width="571" height="1"/>
</svg>