<?xml version="1.0" encoding="UTF-8"?>
<svg id="Layer_1" xmlns="http://www.w3.org/2000/svg" xmlns:xlink="http://www.w3.org/1999/xlink" version="1.1" viewBox="0 0 636.07 755.97">
  <!-- Generator: Adobe Illustrator 29.8.2, SVG Export Plug-In . SVG Version: 2.1.1 Build 3)  -->
  <defs>
    <style>
      .st0 {
        fill: #ff7fec;
      }

      .st1 {
        fill: none;
      }

      .st2 {
        fill: #0c0907;
      }

      .st3 {
        fill: #6d4524;
      }

      .st4 {
        fill: #c4c65c;
      }

      .st5 {
        fill: #271911;
      }

      .st6 {
        fill: #a56d3f;
      }

      .st7 {
        fill: #777;
      }

      .st8 {
        fill: #9bc4b3;
      }

      .st9 {
        fill: #ae7436;
      }

      .st10 {
        fill: #baa678;
      }

      .st11 {
        fill: #dac796;
      }

      .st12 {
        fill: #dbc898;
      }

      .st13 {
        fill: #5a462e;
      }

      .st14 {
        fill: #c7e5da;
      }

      .st15 {
        clip-path: url(#clippath-1);
      }

      .st16 {
        fill: #fff;
      }

      .st17 {
        fill: #a8b094;
      }

      .st18 {
        fill: #f26a3b;
      }

      .st19 {
        fill: #845326;
      }

      .st20 {
        fill: #ffd664;
      }

      .st21 {
        fill: #2a2520;
      }

      .st22 {
        fill: #e29f3e;
      }

      .st23 {
        fill: #f4f471;
      }

      .st24 {
        clip-path: url(#clippath);
      }

      .st25 {
        fill: #443723;
      }
    </style>
    <clipPath id="clippath">
      <path class="st1" d="M288.42,203.23h-15.82l-24.38,75.73.78,5.84,4.41,24.77s-9.86,20.23-17.12,48.76-27.49,142.13-27.49,142.13c0,0,56.54,18.16,120.86,18.16s111.01-21.27,111.01-21.27c0,0-43.57-181.04-53.43-194.52-9.86-13.49-26.97-99.6-26.97-99.6h-71.84Z"/>
    </clipPath>
    <clipPath id="clippath-1">
      <path class="st1" d="M324.75,196.53c16.23-1.26,36.8-8.78,38.4-38.68,2.45-45.76-42.53-56.38-66.12-45.13-18.35,8.75-26.59,22.42-21.2,50.99,5.4,28.57,32.33,34.12,48.91,32.83Z"/>
    </clipPath>
  </defs>
  <g>
    <ellipse class="st20" cx="324.82" cy="262.64" rx="266.62" ry="239.15"/>
    <path class="st2" d="M324.82,502.29c-71.34,0-138.41-24.92-188.86-70.17-50.47-45.26-78.26-105.45-78.26-169.47s27.79-124.21,78.26-169.47c50.45-45.25,117.52-70.17,188.86-70.17s138.41,24.92,188.87,70.17c50.46,45.26,78.26,105.45,78.26,169.47s-27.79,124.21-78.26,169.47c-50.45,45.25-117.52,70.17-188.87,70.17ZM324.82,24c-71.09,0-137.93,24.83-188.2,69.92-50.25,45.07-77.93,105-77.93,168.73s27.67,123.66,77.93,168.73c50.27,45.09,117.1,69.92,188.2,69.92s137.93-24.83,188.2-69.92c50.25-45.07,77.93-105,77.93-168.73s-27.67-123.66-77.93-168.73c-50.27-45.09-117.1-69.92-188.2-69.92Z"/>
  </g>
  <path class="st2" d="M489.26,317.57c-24.91,0-51.09-4.32-78.49-12.97-69.82-22.05-132.85-67.79-173.43-102.29-42.76-36.34-90.56-46.23-123.13-48.12-35.31-2.05-60.83,4.58-61.09,4.65l-.26-.97c.26-.07,25.9-6.74,61.37-4.68,32.73,1.9,80.77,11.83,123.75,48.36,40.51,34.43,103.42,80.09,173.08,102.09,81.41,25.71,152.1,13,210.12-37.77l.66.75c-38.77,33.92-83.17,50.93-132.6,50.94Z"/>
  <g>
    <g>
      <path class="st7" d="M460.72,409.43s-42.8,14.01-54.21,38.9c-11.41,24.9-24.64,94.93,9.08,119.83,33.72,24.9,99.6,19.19,122.94-3.11,23.34-22.31,42.02-90.78-49.28-153.54l-28.53-2.07Z"/>
      <path class="st2" d="M474.28,584.96c-23.48,0-44.7-5.85-58.98-16.4-18.7-13.81-22.1-40.43-21.67-60.33.52-23.8,6.81-47.84,12.43-60.11,11.37-24.81,54.08-39.03,54.51-39.17l.09-.03h.1s28.67,2.09,28.67,2.09l.11.08c52.99,36.43,66.43,72.95,68.38,97.17,2.15,26.7-8.91,47.47-19.03,57.14-11.33,10.83-33.51,18.26-57.9,19.4-2.25.1-4.49.16-6.7.16ZM460.79,409.93c-2.23.75-42.88,14.75-53.82,38.61-5.58,12.18-11.82,36.06-12.34,59.72-.43,19.66,2.91,45.95,21.26,59.5,28.09,20.74,94.95,23.06,122.3-3.07,9.96-9.52,20.84-29.99,18.73-56.34-1.93-23.99-15.27-60.18-67.83-96.35l-28.29-2.06Z"/>
    </g>
    <g>
      <path class="st7" d="M471.1,408.91s-15.04,14.52-12.45,25.94"/>
      <path class="st2" d="M458.16,434.96c-2.63-11.55,11.97-25.81,12.59-26.41l.7.72c-.15.14-14.81,14.46-12.31,25.47l-.97.22Z"/>
    </g>
    <g>
      <path class="st7" d="M478.88,410.99s6.74,11.41,2.59,22.82"/>
      <path class="st2" d="M481.94,433.98l-.94-.34c4.02-11.05-2.49-22.29-2.55-22.4l.86-.51c.07.12,6.82,11.75,2.63,23.25Z"/>
    </g>
    <g>
      <path class="st7" d="M506.89,477.9s18.16,18.67,7.78,44.61"/>
      <path class="st2" d="M515.14,522.7l-.93-.37c10.13-25.32-7.5-43.89-7.68-44.08l.72-.7c.18.19,18.26,19.21,7.89,45.14Z"/>
    </g>
    <g>
      <path class="st7" d="M462.02,406.32s-12.97-14.01-16.6-18.16c-3.63-4.15-15.56-10.12-2.59-16.34,12.97-6.22,25.68,9.6,25.68,9.6,0,0-4.67-31.12,15.3-38.39s17.64,8.04,16.08,12.97c-1.56,4.93-4.93,16.6.78,19.45,5.71,2.85,16.08,8.04,15.04,15.82s-29.83,12.19-30.35,18.16l-23.34-3.11Z"/>
      <path class="st2" d="M485.36,409.93s-.04,0-.07,0l-23.34-3.11c-.12-.02-.22-.07-.3-.16-.13-.14-13.01-14.06-16.61-18.17-.69-.79-1.72-1.67-2.81-2.6-2.9-2.49-6.19-5.3-5.78-8.5.29-2.21,2.3-4.17,6.15-6.02,10.99-5.27,21.85,4.92,25.22,8.53-.61-6.5-1.69-30.98,15.81-37.34,7.28-2.65,12.42-2.6,15.28.14,4.25,4.08,1.75,12.5,1.45,13.45-3.36,10.65-3.19,17,.53,18.85,5.73,2.87,16.4,8.2,15.32,16.33-.59,4.43-8.96,7.61-17.05,10.68-6.43,2.44-13.07,4.97-13.29,7.45-.01.14-.08.26-.19.35-.09.07-.2.11-.31.11ZM462.26,405.84l22.7,3.03c.88-2.87,6.91-5.16,13.83-7.79,7.46-2.83,15.91-6.04,16.42-9.88.99-7.43-9.26-12.55-14.77-15.31-4.22-2.11-4.57-8.86-1.03-20.05.28-.89,2.63-8.77-1.19-12.43-2.56-2.45-7.35-2.43-14.24.08-19.35,7.04-15.03,37.54-14.98,37.84.03.22-.09.44-.29.53-.21.09-.45.03-.59-.14-.03-.04-3.2-3.95-7.88-7.04-6.2-4.1-11.99-4.91-17.19-2.42-3.47,1.67-5.35,3.43-5.59,5.25-.35,2.66,2.72,5.29,5.43,7.61,1.12.95,2.17,1.86,2.91,2.7,3.4,3.88,15.14,16.57,16.47,18.01Z"/>
    </g>
    <g>
      <path class="st7" d="M470.32,389.72s-1.56-2.33-1.82-8.3"/>
      <path class="st2" d="M470.32,390.22c-.16,0-.32-.08-.42-.22-.07-.1-1.64-2.52-1.9-8.56-.01-.28.2-.51.48-.52.27-.02.51.2.52.48.25,5.71,1.72,8.02,1.73,8.05.15.23.09.54-.14.69-.08.06-.18.08-.28.08Z"/>
    </g>
    <g>
      <path class="st12" d="M464.05,405.31c-4.62-1.06-4.88,2.05-3.33,4.12s20.75,2.59,24.64,2.33,3.37-3.37.52-3.89c-2.85-.52-17.21-1.5-21.83-2.57Z"/>
      <path class="st2" d="M482.64,412.32c-6.44,0-20.77-.51-22.32-2.59-1.01-1.35-1.24-2.95-.57-3.99.5-.77,1.67-1.55,4.41-.92h0c2.81.65,9.32,1.27,14.55,1.77,3.29.32,6.14.59,7.26.79,1.62.29,2.75,1.4,2.68,2.64-.06.98-.94,2.09-3.25,2.24-.49.03-1.47.05-2.75.05ZM462.36,405.59c-.86,0-1.47.24-1.77.7-.44.67-.22,1.84.54,2.84,1.32,1.75,19.65,2.43,24.21,2.14,1.39-.09,2.28-.59,2.32-1.3.03-.61-.61-1.37-1.86-1.6-1.08-.2-3.91-.47-7.18-.78-5.26-.5-11.81-1.13-14.68-1.79h0c-.59-.14-1.12-.2-1.58-.2Z"/>
    </g>
    <path class="st2" d="M478.34,406.32h-1c0-.18.1-4.27,8.61-7.73l.38.93c-7.81,3.17-7.99,6.77-7.99,6.8Z"/>
    <path class="st2" d="M472.18,406.75c-.05-.13-4.98-13.38-14.56-18.67l.48-.88c9.91,5.47,14.81,18.64,15.01,19.2l-.94.34Z"/>
  </g>
  <g>
    <g>
      <path class="st7" d="M194.06,396.44s-28.25,9.25-35.79,25.68c-7.53,16.44-16.27,62.67,5.99,79.11,22.26,16.44,65.75,12.67,81.16-2.05,15.41-14.73,27.74-59.93-32.53-101.37l-18.84-1.37Z"/>
      <path class="st2" d="M203.01,512.49c-15.54,0-29.58-3.88-39.04-10.86-12.4-9.16-14.66-26.79-14.37-39.97.34-15.74,4.5-31.64,8.22-39.75,3.95-8.62,13.56-15.22,20.93-19.24,7.95-4.34,15.08-6.69,15.15-6.71l.09-.03h.1s18.97,1.39,18.97,1.39l.11.08c35.04,24.09,43.93,48.25,45.21,64.28,1.42,17.69-5.91,31.45-12.62,37.86-7.51,7.17-22.2,12.1-38.33,12.85-1.49.07-2.97.1-4.43.1ZM194.13,396.94c-1.78.6-28.25,9.8-35.4,25.39-3.68,8.02-7.79,23.76-8.13,39.36-.28,12.94,1.91,30.24,13.97,39.14,18.5,13.66,62.52,15.19,80.52-2.01,6.55-6.26,13.71-19.72,12.31-37.06-1.27-15.8-10.05-39.62-44.67-63.46l-18.6-1.35Z"/>
    </g>
    <g>
      <path class="st7" d="M200.91,396.09s-9.93,9.59-8.22,17.12"/>
      <path class="st2" d="M192.21,413.33c-1.75-7.72,7.95-17.19,8.36-17.59l.69.72c-.1.09-9.71,9.48-8.08,16.65l-.98.22Z"/>
    </g>
    <g>
      <path class="st7" d="M206.05,397.46s4.45,7.53,1.71,15.07"/>
      <path class="st2" d="M208.23,412.7l-.94-.34c2.62-7.22-1.63-14.57-1.67-14.64l.86-.51c.19.32,4.54,7.83,1.75,15.49Z"/>
    </g>
    <g>
      <path class="st7" d="M224.54,441.64s11.99,12.33,5.14,29.45"/>
      <path class="st2" d="M230.14,471.28l-.93-.37c6.64-16.61-4.91-28.8-5.03-28.92l.72-.7c.12.13,12.13,12.76,5.24,29.99Z"/>
    </g>
    <g>
      <path class="st7" d="M194.92,394.38s-8.56-9.25-10.96-11.99c-2.4-2.74-10.27-6.68-1.71-10.79s14.96-3.68,14.96-3.68c0,0-.74-4.66,12.45-9.45s8.29,6.2,7.26,9.45-.26,4.19,3.51,6.07c3.77,1.88,10.62,5.31,9.93,10.45s-19.69,8.05-20.03,11.99l-15.41-2.05Z"/>
      <path class="st2" d="M210.33,396.94s-.04,0-.07,0l-15.41-2.05c-.12-.02-.22-.07-.3-.16-.09-.09-8.59-9.28-10.97-12-.45-.51-1.12-1.09-1.83-1.7-1.95-1.67-4.16-3.56-3.87-5.76.2-1.52,1.56-2.86,4.15-4.11,7.31-3.51,13.03-3.75,14.7-3.74.22-1.48,1.88-5.45,12.75-9.41,4.32-1.57,7.14-1.63,8.61-.18,2.13,2.1.57,6.59-.36,9.28-.13.37-.24.7-.33.98-.9,2.86-.44,3.62,3.26,5.48,3.82,1.91,10.94,5.47,10.2,10.96-.4,3.02-5.98,5.14-11.37,7.19-4,1.52-8.53,3.24-8.67,4.78-.01.14-.08.26-.19.35-.09.07-.2.11-.31.11ZM195.17,393.91l14.79,1.97c.75-1.91,4.69-3.4,9.18-5.11,4.88-1.85,10.41-3.95,10.73-6.38.64-4.78-6.06-8.13-9.66-9.93-3.87-1.93-4.89-3.11-3.76-6.67.09-.28.21-.62.34-1.01.8-2.3,2.29-6.59.61-8.24-1.14-1.12-3.75-.98-7.56.41-12.45,4.53-12.13,8.86-12.13,8.91.02.15-.02.3-.12.42-.1.11-.26.17-.4.16-.07,0-6.39-.37-14.71,3.63-2.24,1.07-3.44,2.2-3.59,3.33-.22,1.67,1.77,3.37,3.53,4.87.74.63,1.44,1.23,1.94,1.8,2.21,2.53,9.77,10.7,10.83,11.84Z"/>
    </g>
    <g>
      <path class="st12" d="M196.26,393.71c-3.05-.7-3.22,1.35-2.2,2.72s13.7,1.71,16.27,1.54,2.23-2.23.34-2.57-11.36-.99-14.41-1.69Z"/>
      <path class="st2" d="M208.62,398.51c-4.17,0-13.85-.3-14.95-1.77-.71-.95-.87-2.09-.38-2.83.36-.55,1.19-1.12,3.09-.68h0c1.84.42,6.13.83,9.58,1.17,2.18.21,4.06.39,4.81.52,1.16.21,1.96,1.02,1.91,1.92-.04.72-.67,1.53-2.31,1.64-.27.02-.89.03-1.75.03ZM195.14,394.07c-.5,0-.86.13-1.03.38-.25.38-.1,1.08.35,1.68.87,1.04,12.54,1.56,15.83,1.34.92-.06,1.36-.39,1.37-.7.02-.33-.38-.75-1.09-.88-.71-.13-2.57-.31-4.73-.51-3.48-.33-7.8-.75-9.71-1.19-.38-.09-.71-.13-1-.13Z"/>
    </g>
    <path class="st2" d="M205.87,394.39h-1c0-.13.07-2.94,5.79-5.27l.38.93c-5.02,2.04-5.17,4.32-5.17,4.34Z"/>
    <path class="st2" d="M201.47,394.72c-.03-.09-3.27-8.77-9.53-12.23l.48-.88c6.59,3.65,9.85,12.4,9.99,12.77l-.94.34Z"/>
  </g>
  <g>
    <path class="st23" d="M99.72,301.98l8.95,27.55c4.6,14.17,17.81,23.76,32.71,23.76h28.97c4.7,0,6.66,6.02,2.85,8.78l-23.44,17.03c-12.05,8.76-17.1,24.28-12.49,38.45l8.95,27.55c1.45,4.47-3.66,8.19-7.47,5.43l-23.44-17.03c-12.05-8.76-28.37-8.76-40.43,0l-23.44,17.03c-3.8,2.76-8.92-.95-7.47-5.43l8.95-27.55c4.6-14.17-.44-29.69-12.49-38.45l-23.44-17.03c-3.8-2.76-1.85-8.78,2.85-8.78h28.97c14.9,0,28.1-9.59,32.71-23.76l8.95-27.55c1.45-4.47,7.78-4.47,9.23,0Z"/>
    <path class="st2" d="M48.6,451.98c-1.1,0-2.19-.35-3.15-1.04-1.91-1.39-2.67-3.74-1.94-5.99l8.95-27.55c4.55-14.01-.4-29.23-12.31-37.89l-23.44-17.03c-1.91-1.39-2.67-3.74-1.94-5.98.73-2.25,2.73-3.7,5.09-3.7h28.97c14.73,0,27.68-9.41,32.23-23.42l8.95-27.55c.73-2.25,2.73-3.7,5.09-3.7s4.36,1.45,5.09,3.7l8.95,27.55c4.55,14.01,17.5,23.42,32.23,23.42h28.97c2.36,0,4.36,1.45,5.09,3.7.73,2.25-.03,4.6-1.94,5.98l-23.44,17.03c-11.91,8.66-16.86,23.88-12.31,37.89l8.95,27.55c.73,2.25-.03,4.6-1.94,5.99-1.91,1.39-4.38,1.39-6.29,0l-23.44-17.03c-11.91-8.66-27.92-8.66-39.84,0l-23.44,17.03c-.96.69-2.05,1.04-3.15,1.04ZM19.86,353.8c-1.92,0-3.55,1.18-4.14,3.01s.03,3.74,1.58,4.87l23.44,17.03c12.27,8.91,17.36,24.59,12.67,39.01l-8.95,27.55c-.59,1.83.03,3.74,1.58,4.87,1.55,1.13,3.56,1.13,5.12,0l23.44-17.03c12.27-8.91,28.75-8.91,41.01,0l23.44,17.03c1.55,1.13,3.56,1.13,5.12,0,1.55-1.13,2.18-3.04,1.58-4.87l-8.95-27.55c-4.69-14.42.41-30.09,12.67-39.01l23.44-17.03c1.55-1.13,2.18-3.04,1.58-4.87s-2.22-3.01-4.14-3.01h-28.97c-15.16,0-28.5-9.69-33.18-24.11l-8.95-27.55c-.59-1.83-2.22-3.01-4.14-3.01s-3.55,1.18-4.14,3.01l-8.95,27.55c-4.69,14.42-18.02,24.11-33.18,24.11h-28.97Z"/>
  </g>
  <g>
    <g>
      <path class="st2" d="M79.01,507.31c-9.3,0-15.21-3.34-18.8-6.69-8.43-7.86-9.64-20.31-7.97-29.34,2.78-14.99,15.42-31.98,15.96-32.7,1.66-2.21,4.79-2.66,7-1s2.66,4.79,1,7c-.19.25-11.79,15.89-14.13,28.52-1.14,6.13-.52,15.1,4.96,20.21,4.61,4.3,12.04,5.17,22.07,2.57,2.67-.69,5.4.92,6.09,3.59.69,2.67-.92,5.4-3.59,6.09-4.76,1.23-8.94,1.75-12.59,1.75Z"/>
      <g>
        <path class="st9" d="M67.01,430.18s12.97,89.22,15.04,93.89c32.16,17.12,74.18,9.34,81.96,0l15.04-97.52-112.05,3.63Z"/>
        <path class="st2" d="M125.34,534.71c-13.92,0-29.52-2.75-43.52-10.2l-.15-.08-.07-.16c-2.08-4.68-14.55-90.38-15.08-94.02l-.08-.55.56-.02,112.65-3.65-15.16,98.25-.09.11c-4.37,5.25-20.16,10.32-39.06,10.32ZM82.45,523.71c32.44,17.17,73.44,9,81.09.14l14.93-96.79-110.88,3.59c1.09,7.47,12.75,87.23,14.86,93.05Z"/>
      </g>
      <g>
        <ellipse class="st9" cx="121.99" cy="419.49" rx="62.77" ry="22.62"/>
        <path class="st2" d="M121.99,442.61c-34.89,0-63.27-10.37-63.27-23.12s28.38-23.12,63.27-23.12,63.27,10.37,63.27,23.12-28.38,23.12-63.27,23.12ZM121.99,397.37c-34.33,0-62.27,9.92-62.27,22.12s27.93,22.12,62.27,22.12,62.27-9.92,62.27-22.12-27.93-22.12-62.27-22.12Z"/>
      </g>
      <path class="st2" d="M79.01,507.31c-9.3,0-15.21-3.34-18.8-6.69-8.43-7.86-9.64-20.31-7.97-29.34.5-2.71,3.11-4.51,5.83-4.01,2.72.5,4.51,3.11,4.01,5.83-1.14,6.13-.52,15.1,4.96,20.21,4.61,4.3,12.04,5.17,22.07,2.57,28.68-7.42,67.75-38.68,68.15-39,2.15-1.73,5.3-1.39,7.03.76,1.73,2.15,1.39,5.3-.76,7.03-1.67,1.34-41.14,32.93-71.91,40.89-4.76,1.23-8.94,1.75-12.59,1.75Z"/>
      <g>
        <path class="st19" d="M171.27,416.17c0,6.63-19.19,12.59-47.98,12.59s-52.13-5.37-52.13-12,19.97-12,48.76-12,51.35,4.79,51.35,11.41Z"/>
        <path class="st2" d="M123.29,429.26c-25.87,0-52.63-4.67-52.63-12.5,0-7.24,20.72-12.5,49.26-12.5,25.77,0,51.85,4.09,51.85,11.91s-20.84,13.08-48.48,13.08ZM119.92,405.26c-23.72,0-48.26,4.3-48.26,11.5,0,6.23,23.64,11.5,51.63,11.5,29.72,0,47.48-6.14,47.48-12.08s-22.34-10.91-50.85-10.91Z"/>
      </g>
    </g>
    <g>
      <g>
        <g>
          <path class="st13" d="M157.27,487.24s-24.9,18.16-25.42,40.46-9.86,44.09-13.49,47.2-18.16,25.94,9.86,19.71c0,0,7.26,21.27,29.05,2.07,0,0,17.9,18.41,39.94-3.63,0,0,22.82,7.78,21.79-12.97-1.04-20.75-23.34-109.45-61.73-92.85Z"/>
          <path class="st2" d="M140.95,605.22c-1.1,0-2.16-.14-3.19-.41-6.3-1.68-9.18-7.91-9.86-9.61-8.99,1.93-14.5,1.02-16.37-2.71-2.75-5.5,3.89-15.72,6.5-17.96,3.6-3.08,12.81-25.09,13.31-46.84.52-22.29,25.37-40.67,25.62-40.85l.1-.05c7.6-3.29,15.07-2.7,22.2,1.73,25.32,15.75,39.43,75.56,40.23,91.55.29,5.77-1.22,9.94-4.48,12.4-5.99,4.51-15.8,1.75-17.67,1.16-7.28,7.2-14.9,10.85-22.61,10.77-9.45-.07-15.95-5.58-17.49-7.03-6.02,5.22-11.48,7.85-16.3,7.85ZM128.55,594.03l.15.42c.03.08,2.69,7.63,9.33,9.39,5.29,1.4,11.65-1.13,18.91-7.53l.36-.31.33.34c.07.07,6.92,6.99,17.13,7.05h.15c7.47,0,14.85-3.6,21.94-10.69l.22-.22.29.1c.11.04,10.98,3.66,17.05-.92,2.98-2.25,4.35-6.13,4.08-11.55-.79-15.87-14.74-75.2-39.76-90.75-6.82-4.24-13.96-4.81-21.22-1.69-1.17.87-24.67,18.67-25.17,40.04-.52,22.39-9.86,44.31-13.66,47.57-2.19,1.88-8.79,11.69-6.26,16.76,1.64,3.28,7.06,4,15.68,2.09l.44-.1Z"/>
        </g>
        <path class="st2" d="M148.43,522.01l-1-.03c.52-18.13,12.46-31.32,12.58-31.45l.74.68c-.12.13-11.81,13.05-12.32,30.8Z"/>
        <path class="st2" d="M184.21,518.48l-.97-.23c3.52-14.58-14.2-30.99-14.38-31.16l.67-.74s4.63,4.26,8.7,10.27c5.43,8.01,7.49,15.57,5.97,21.86Z"/>
        <path class="st2" d="M165.09,510.71c-3.11-11.39-1.07-22.42-1.05-22.53l.98.19c-.02.11-2.02,10.92,1.03,22.08l-.96.26Z"/>
        <path class="st2" d="M128.58,594.96l-.72-.7c14.7-15.21,14.39-30.09,14.38-30.24l1-.03c0,.15.35,15.44-14.66,30.97Z"/>
        <path class="st2" d="M157.75,596.81l-.97-.23c3.57-14.79,3.1-25.17,3.1-25.28l1-.05c0,.1.48,10.62-3.13,25.56Z"/>
        <path class="st2" d="M196.95,593.48c-4.58-2.83-7.77-8.85-9.24-17.39-1.1-6.4-.85-12.05-.85-12.1l1,.05c-.01.22-.9,22.09,9.62,28.6l-.53.85Z"/>
      </g>
      <g>
        <path class="st9" d="M155.19,493.98s-2.07-9.86,2.07-11.93c4.15-2.07,11.41-3.63,11.41-3.63,0,0,7.54,4.35,5.71,9.86-2.59,7.78-14.01,9.34-19.19,5.71Z"/>
        <path class="st2" d="M162.01,496.35c-2.7,0-5.26-.67-7.1-1.96l-.16-.11-.04-.19c-.09-.42-2.1-10.26,2.34-12.48,4.16-2.08,11.23-3.61,11.53-3.67l.19-.04.17.1c.32.19,7.87,4.62,5.93,10.45-1.1,3.3-3.82,5.82-7.66,7.09-1.69.56-3.47.83-5.19.83ZM155.64,493.68c2.75,1.81,7.33,2.18,11.24.89,3.53-1.17,6.03-3.46,7.02-6.45,1.54-4.62-4.27-8.5-5.32-9.17-1.18.26-7.43,1.71-11.1,3.55-3.46,1.73-2.1,9.82-1.85,11.19Z"/>
      </g>
      <g>
        <path class="st9" d="M157.67,488.28L104.66,86.41c-.71-3.32,1.26-6.63,4.52-7.58h0c3.6-1.05,7.34,1.17,8.14,4.84l53.83,401.5"/>
        <path class="st2" d="M157.17,488.34L104.17,86.48c-.76-3.52,1.38-7.11,4.88-8.13,1.88-.55,3.84-.3,5.52.7,1.68,1,2.84,2.6,3.25,4.51l53.84,401.54-.99.13L116.83,83.73c-.35-1.6-1.34-2.97-2.78-3.83-1.44-.85-3.12-1.07-4.73-.6-2.99.87-4.83,3.95-4.17,7l53.02,401.91-.99.13Z"/>
      </g>
    </g>
  </g>
  <g>
    <path class="st0" d="M468.45,125.47l8.95,27.55c4.6,14.17,17.81,23.76,32.71,23.76h28.97c4.7,0,6.66,6.02,2.85,8.78l-23.44,17.03c-12.05,8.76-17.1,24.28-12.49,38.45l8.95,27.55c1.45,4.47-3.66,8.19-7.47,5.43l-23.44-17.03c-12.05-8.76-28.37-8.76-40.43,0l-23.44,17.03c-3.8,2.76-8.92-.95-7.47-5.43l8.95-27.55c4.6-14.17-.44-29.69-12.49-38.45l-23.44-17.03c-3.8-2.76-1.85-8.78,2.85-8.78h28.97c14.9,0,28.1-9.59,32.71-23.76l8.95-27.55c1.45-4.47,7.78-4.47,9.23,0Z"/>
    <path class="st5" d="M417.33,275.47c-1.1,0-2.19-.35-3.15-1.04-1.91-1.39-2.67-3.74-1.94-5.98l8.95-27.56c4.55-14.01-.4-29.23-12.31-37.89l-23.44-17.03c-1.91-1.39-2.67-3.74-1.94-5.98.73-2.25,2.73-3.7,5.09-3.7h28.97c14.73,0,27.68-9.41,32.23-23.42l8.95-27.56c.73-2.25,2.73-3.7,5.09-3.7s4.36,1.45,5.09,3.7l8.95,27.56c4.55,14.01,17.5,23.42,32.23,23.42h28.97c2.36,0,4.36,1.45,5.09,3.7.73,2.25-.03,4.6-1.94,5.98l-23.44,17.03c-11.91,8.66-16.86,23.88-12.31,37.89l8.95,27.56c.73,2.25-.03,4.6-1.95,5.98-1.91,1.39-4.38,1.39-6.29,0l-23.44-17.03c-11.91-8.66-27.92-8.66-39.84,0l-23.44,17.03c-.96.69-2.05,1.04-3.15,1.04ZM388.59,177.29c-1.92,0-3.55,1.18-4.14,3.01-.59,1.83.03,3.74,1.58,4.87l23.44,17.03c12.27,8.91,17.36,24.59,12.67,39.01l-8.95,27.56c-.59,1.83.03,3.74,1.58,4.87,1.55,1.13,3.56,1.13,5.12,0l23.44-17.03c12.27-8.91,28.75-8.91,41.01,0l23.44,17.03c1.55,1.13,3.56,1.13,5.12,0,1.55-1.13,2.18-3.04,1.58-4.87l-8.95-27.56c-4.68-14.42.41-30.09,12.67-39.01l23.44-17.03c1.55-1.13,2.17-3.04,1.58-4.87-.59-1.83-2.22-3.01-4.14-3.01h-28.97c-15.16,0-28.5-9.69-33.18-24.11l-8.95-27.56c-.59-1.83-2.22-3.01-4.14-3.01s-3.55,1.18-4.14,3.01l-8.95,27.55c-4.69,14.42-18.02,24.11-33.18,24.11h-28.97Z"/>
  </g>
  <g>
    <g>
      <g>
        <path class="st11" d="M343.66,569.45s-12.45,11.93.52,22.31c12.97,10.37,40.98,11.41,51.35,16.08,10.37,4.67,32.16,8.82,49.28,3.11,17.12-5.71,40.98-14.52,16.08-37.35-24.9-22.82-117.23-4.15-117.23-4.15Z"/>
        <path class="st2" d="M426.06,614.23c-12.46,0-24.3-3.04-30.73-5.94-3.75-1.69-9.8-2.89-16.8-4.27-11.74-2.33-26.35-5.22-34.67-11.87-3.86-3.09-5.9-6.62-6.08-10.52-.31-6.87,5.29-12.31,5.52-12.54l.1-.1.14-.03c.23-.05,23.42-4.7,49.34-6.49,34.91-2.42,57.9,1.2,68.33,10.76,8.43,7.73,11.92,14.33,10.67,20.19-1.91,8.97-14.35,13.81-26.93,18-6.04,2.01-12.56,2.81-18.92,2.81ZM343.91,569.91c-.75.76-5.39,5.75-5.12,11.68.16,3.59,2.08,6.88,5.7,9.77,8.12,6.5,22.6,9.37,34.23,11.67,7.06,1.4,13.16,2.61,17.01,4.34,9.58,4.31,31.32,8.96,48.92,3.09,9.1-3.03,24.32-8.11,26.27-17.26,1.15-5.4-2.34-11.88-10.37-19.24-23.97-21.97-112.46-4.88-116.65-4.06Z"/>
      </g>
      <g>
        <g>
          <path class="st6" d="M333.81,468.3s13.83,78.5,12.1,82.3c-1.73,3.8-17.29,25.59,7.26,34.24,24.55,8.65,61.56,20.06,67.09,20.06s14.87,4.15,19.71-4.15c0,0,12.45,2.07,12.45-5.19,0,0,5.88,2.42,10.37-3.46,0,0,8.65-1.73,6.92-10.37-1.73-8.65-16.95-17.64-25.59-20.4-8.65-2.77-30.78-13.14-31.12-20.75-.35-7.61-6.22-83-6.22-83l-72.97,10.72Z"/>
          <path class="st2" d="M430.39,606.43c-1.98,0-3.98-.3-5.82-.58-1.57-.24-3.06-.46-4.31-.46-5.93,0-44.29-12-67.25-20.08-6.85-2.41-11.25-6.08-13.07-10.9-3.17-8.38,2.28-18.15,4.61-22.32.41-.74.74-1.32.91-1.69,1.22-2.69-6.59-50.52-12.14-82.01l-.09-.51,74.01-10.87.04.53c.06.75,5.88,75.48,6.23,83.01.14,3.08,4.47,7.26,12.2,11.78,6.68,3.9,14.31,7.15,18.57,8.51,7.86,2.51,24.07,11.47,25.93,20.78.94,4.72-1.11,7.46-2.99,8.92-1.7,1.32-3.54,1.85-4.13,2-3.76,4.79-8.48,4.13-10.19,3.68-.14,1.34-.72,2.46-1.73,3.31-3.11,2.64-9.38,1.97-10.93,1.75-2.54,4.11-6.17,5.14-9.84,5.14ZM334.39,468.72c1.78,10.12,13.69,78.33,11.98,82.09-.19.41-.52,1.01-.94,1.77-2.26,4.05-7.55,13.54-4.55,21.48,1.71,4.53,5.91,8,12.47,10.31,25.07,8.83,61.61,20.03,66.92,20.03,1.33,0,2.85.23,4.46.47,5.29.8,11.28,1.7,14.82-4.37l.17-.3.34.06c.07.01,7.32,1.18,10.46-1.48.95-.8,1.41-1.86,1.41-3.21v-.74l.69.28c.23.09,5.59,2.19,9.79-3.3l.11-.15.18-.04c.33-.07,8.13-1.74,6.53-9.79-1.7-8.5-17.11-17.42-25.25-20.02-8.81-2.82-31.11-13.27-31.47-21.2-.33-7.18-5.65-75.67-6.18-82.45l-71.93,10.57Z"/>
        </g>
        <path class="st2" d="M440.46,600.86l-.97-.23c1.04-4.3.42-7.94-1.82-10.82-5.68-7.31-20.04-7.58-20.18-7.58v-1c.62,0,14.99.28,20.97,7.97,2.44,3.13,3.11,7.06,2,11.67Z"/>
        <path class="st2" d="M452.91,596.38l-.96-.27c3.63-13.21-16.06-19.39-16.26-19.45l.29-.96c.21.06,20.82,6.53,16.94,20.67Z"/>
        <path class="st2" d="M462.93,592.58l-.96-.27c3.63-13.21-16.06-19.39-16.26-19.45l.29-.96c.21.06,20.82,6.53,16.94,20.67Z"/>
        <g>
          <path class="st14" d="M435.9,587.66c-4.1-2.35-8.69,2.37-6.05,6.28.04.06.08.11.12.17,4.06,5.78,12.29,6.68,12.52,1.27.13-3.21-3.56-5.99-6.59-7.73Z"/>
          <path class="st2" d="M438.42,599.48c-2.82,0-6.46-1.67-8.85-5.08l-.12-.18c-1.31-1.95-1.12-4.32.48-6.04,1.37-1.47,3.82-2.34,6.23-.95h0c3.2,1.83,6.98,4.74,6.84,8.18-.08,1.96-1.12,3.33-2.92,3.86-.5.15-1.06.22-1.65.22ZM433.63,587.54c-1.2,0-2.27.56-2.98,1.32-.97,1.04-1.65,2.92-.38,4.8l.11.16c2.6,3.71,6.91,5.21,9.41,4.48.96-.28,2.12-1.02,2.2-2.94.12-2.94-3.38-5.58-6.33-7.27h0c-.68-.39-1.37-.56-2.02-.56Z"/>
        </g>
        <g>
          <path class="st14" d="M449.61,584.84c-3.25-2.14-7.21,1.53-5.23,4.88.03.05.06.1.09.15,3.06,4.96,9.75,6.11,10.18,1.66.25-2.64-2.64-5.11-5.04-6.69Z"/>
          <path class="st2" d="M451.46,594.8c-2.39,0-5.52-1.58-7.42-4.67l-.07-.12c-1.03-1.75-.76-3.75.68-5.12,1.21-1.15,3.29-1.75,5.23-.47h0c2.55,1.68,5.54,4.28,5.26,7.15-.16,1.63-1.12,2.76-2.63,3.12-.33.08-.68.11-1.05.11ZM447.56,584.7c-.9,0-1.7.41-2.23.92-.83.79-1.47,2.27-.53,3.85l.08.14c1.94,3.15,5.34,4.59,7.4,4.11,1.1-.26,1.75-1.03,1.86-2.24.24-2.5-2.91-4.97-4.81-6.22h0c-.61-.4-1.21-.56-1.77-.56Z"/>
        </g>
        <g>
          <path class="st14" d="M458.6,579.65c-3.25-2.14-7.21,1.53-5.23,4.88.03.05.06.1.09.15,3.06,4.96,9.75,6.11,10.18,1.66.25-2.64-2.64-5.11-5.04-6.69Z"/>
          <path class="st2" d="M460.45,589.62c-2.39,0-5.52-1.58-7.42-4.67l-.09-.16c-1.01-1.71-.74-3.71.71-5.08,1.21-1.15,3.29-1.75,5.23-.47h0c2.55,1.68,5.54,4.28,5.26,7.15-.16,1.63-1.12,2.76-2.63,3.12-.33.08-.68.11-1.05.11ZM456.56,579.51c-.9,0-1.7.41-2.23.92-.83.79-1.47,2.27-.53,3.85l.08.14c1.94,3.15,5.36,4.58,7.4,4.11,1.1-.26,1.75-1.03,1.86-2.24.24-2.5-2.91-4.97-4.81-6.22h0c-.61-.4-1.21-.56-1.77-.56Z"/>
        </g>
        <g>
          <path class="st14" d="M466.46,574.49c-2.49-1.64-5.53,1.17-4.01,3.74.02.04.04.08.07.11,2.34,3.8,7.47,4.68,7.8,1.27.19-2.02-2.02-3.91-3.86-5.12Z"/>
          <path class="st2" d="M467.88,582.24c-1.87,0-4.31-1.23-5.79-3.63l-.07-.12c-.92-1.55-.38-3.15.56-4.04.96-.91,2.62-1.38,4.15-.37h0c1.98,1.3,4.3,3.33,4.08,5.59-.12,1.3-.89,2.21-2.11,2.49-.26.06-.53.09-.82.09ZM462.94,578.09c1.46,2.37,4,3.45,5.54,3.09.8-.19,1.25-.73,1.34-1.61.18-1.86-2.2-3.71-3.64-4.66h0c-1.15-.76-2.29-.33-2.91.26-.6.58-1.07,1.66-.39,2.81l-.36.37.43-.26Z"/>
        </g>
        <g>
          <path class="st11" d="M392.94,603.69s-3.11-26.46,37.87-48.76l-14.01-8.3s-35.79,14.52-38.39,48.24"/>
          <path class="st2" d="M392.45,603.75c-.03-.27-2.64-26.71,37.35-48.84l-13.03-7.72c-3.04,1.32-35.42,16.1-37.85,47.72l-1-.08c2.59-33.64,38.33-48.52,38.7-48.67l.23-.09,14.98,8.87-.77.42c-40.22,21.89-37.64,48-37.61,48.26l-.99.12Z"/>
        </g>
      </g>
      <g>
        <path class="st11" d="M305.14,570.49s12.45,11.93-.52,22.31-40.98,11.41-51.35,16.08c-10.37,4.67-32.16,8.82-49.28,3.11-17.12-5.71-40.98-14.52-16.08-37.35,24.9-22.82,117.23-4.15,117.23-4.15Z"/>
        <path class="st2" d="M222.74,615.27c-6.36,0-12.88-.79-18.92-2.81-12.58-4.19-25.02-9.04-26.93-18-1.25-5.86,2.24-12.46,10.67-20.19,10.43-9.56,33.42-13.18,68.33-10.76,25.93,1.8,49.11,6.45,49.34,6.49l.14.03.1.1c.24.23,5.83,5.67,5.52,12.54-.17,3.89-2.22,7.43-6.08,10.51-8.31,6.65-22.92,9.54-34.66,11.87-7,1.39-13.05,2.59-16.8,4.27-6.43,2.89-18.27,5.94-30.73,5.94ZM236.54,563.84c-20.02,0-39.01,2.65-48.3,11.17-8.03,7.37-11.52,13.84-10.37,19.24,1.95,9.16,17.18,14.23,26.27,17.26,17.59,5.87,39.34,1.21,48.92-3.09,3.85-1.73,9.95-2.94,17.01-4.34,11.63-2.31,26.11-5.18,34.23-11.67,3.62-2.9,5.54-6.19,5.7-9.78.27-5.94-4.37-10.92-5.12-11.68-2.56-.51-36.74-7.11-68.35-7.11Z"/>
      </g>
      <g>
        <g>
          <path class="st6" d="M314.99,469.34s-13.83,78.5-12.1,82.3c1.73,3.8,17.29,25.59-7.26,34.24-24.55,8.65-61.56,20.06-67.09,20.06-5.53,0-14.87,4.15-19.71-4.15,0,0-12.45,2.07-12.45-5.19,0,0-5.88,2.42-10.37-3.46,0,0-8.65-1.73-6.92-10.37,1.73-8.65,16.95-17.64,25.59-20.4,8.65-2.77,30.78-13.14,31.12-20.75s6.22-83,6.22-83l72.97,10.72Z"/>
          <path class="st2" d="M218.41,607.47c-3.67,0-7.31-1.03-9.84-5.14-1.54.21-7.81.88-10.93-1.75-1.01-.85-1.59-1.96-1.73-3.31-1.71.44-6.43,1.11-10.19-3.68-.59-.14-2.43-.67-4.13-2-1.89-1.47-3.94-4.21-2.99-8.92,1.86-9.31,18.07-18.27,25.93-20.78,4.26-1.36,11.89-4.61,18.57-8.51,7.73-4.52,12.06-8.7,12.2-11.78.34-7.53,6.17-82.26,6.23-83.01l.04-.53.53.08,73.48,10.8-.09.51c-5.55,31.49-13.36,79.32-12.14,82.01.17.38.5.96.91,1.7,2.33,4.17,7.78,13.94,4.61,22.32-1.82,4.82-6.22,8.49-13.07,10.9-22.97,8.09-61.33,20.09-67.25,20.09-1.25,0-2.74.22-4.31.46-1.84.28-3.84.58-5.82.58ZM209.08,601.23l.17.3c3.54,6.07,9.53,5.17,14.82,4.37,1.61-.24,3.13-.47,4.46-.47,5.31,0,41.85-11.2,66.92-20.03,6.56-2.31,10.75-5.78,12.47-10.31,3-7.94-2.29-17.43-4.55-21.48-.42-.76-.76-1.35-.94-1.77-1.71-3.76,10.2-71.97,11.98-82.09l-71.93-10.57c-.53,6.78-5.86,75.27-6.18,82.45-.36,7.94-22.66,18.38-31.47,21.2-8.15,2.61-23.55,11.53-25.25,20.02-1.61,8.04,6.19,9.72,6.52,9.79l.18.04.11.15c4.2,5.49,9.56,3.39,9.79,3.3l.69-.28v.74c0,1.36.46,2.41,1.41,3.21,3.14,2.66,10.39,1.49,10.46,1.48l.34-.06Z"/>
        </g>
        <path class="st2" d="M208.34,601.9c-1.11-4.61-.44-8.53,2-11.67,5.98-7.69,20.35-7.96,20.96-7.97v1c-.13,0-14.49.28-20.17,7.58-2.24,2.88-2.85,6.52-1.82,10.82l-.97.23Z"/>
        <path class="st2" d="M195.89,597.42c-3.89-14.14,16.73-20.61,16.94-20.67l.29.96c-.2.06-19.89,6.24-16.26,19.45l-.96.27Z"/>
        <path class="st2" d="M185.86,593.62c-3.89-14.14,16.73-20.61,16.94-20.67l.29.96c-.2.06-19.89,6.24-16.26,19.45l-.96.27Z"/>
        <g>
          <path class="st14" d="M212.89,588.7c4.1-2.35,8.69,2.37,6.05,6.28-.04.06-.08.11-.12.17-4.06,5.78-12.29,6.68-12.52,1.27-.13-3.21,3.56-5.99,6.59-7.73Z"/>
          <path class="st2" d="M210.38,600.52c-.59,0-1.15-.07-1.65-.22-1.8-.53-2.84-1.9-2.92-3.86-.14-3.44,3.64-6.35,6.84-8.18h0c2.41-1.38,4.87-.52,6.23.95,1.6,1.73,1.79,4.1.48,6.04l-.13.18c-2.39,3.41-6.03,5.08-8.85,5.08ZM213.14,589.13c-2.96,1.7-6.46,4.33-6.33,7.27.08,1.92,1.24,2.66,2.2,2.94,2.5.73,6.81-.77,9.41-4.48l.12-.17c1.26-1.88.58-3.76-.39-4.8-1.1-1.18-3.07-1.87-5-.77h0Z"/>
        </g>
        <g>
          <path class="st14" d="M199.19,585.88c3.25-2.14,7.21,1.53,5.23,4.88-.03.05-.06.1-.09.15-3.06,4.96-9.75,6.11-10.18,1.66-.25-2.64,2.64-5.11,5.04-6.69Z"/>
          <path class="st2" d="M197.34,595.84c-.37,0-.72-.04-1.05-.11-1.52-.35-2.48-1.49-2.63-3.12-.28-2.87,2.71-5.47,5.26-7.15,1.94-1.27,4.02-.68,5.23.47,1.44,1.37,1.72,3.37.7,5.08l-.09.14c-1.91,3.1-5.04,4.68-7.43,4.68ZM201.23,585.74c-.56,0-1.16.16-1.77.56h0c-1.9,1.25-5.06,3.72-4.82,6.22.12,1.21.76,1.98,1.87,2.24,2.05.47,5.46-.96,7.39-4.11l.08-.14c.94-1.58.3-3.07-.53-3.86-.53-.5-1.32-.92-2.23-.92Z"/>
        </g>
        <g>
          <path class="st14" d="M190.2,580.69c3.25-2.14,7.21,1.53,5.23,4.88-.03.05-.06.1-.09.15-3.06,4.96-9.75,6.11-10.18,1.66-.25-2.64,2.64-5.11,5.04-6.69Z"/>
          <path class="st2" d="M188.34,590.65c-.37,0-.72-.04-1.05-.11-1.52-.35-2.48-1.49-2.63-3.12-.28-2.87,2.71-5.47,5.26-7.15h0c1.94-1.27,4.02-.68,5.23.47,1.44,1.37,1.72,3.37.7,5.08l-.09.16c-1.9,3.09-5.04,4.67-7.42,4.67ZM192.24,580.55c-.56,0-1.16.16-1.77.56-1.9,1.25-5.06,3.72-4.82,6.22.12,1.21.76,1.98,1.87,2.24,2.04.47,5.46-.96,7.39-4.11l.08-.14c.93-1.58.3-3.06-.53-3.85-.53-.5-1.32-.92-2.23-.92Z"/>
        </g>
        <g>
          <path class="st14" d="M182.34,575.53c2.49-1.64,5.53,1.17,4.01,3.74-.02.04-.04.08-.07.11-2.34,3.8-7.47,4.68-7.8,1.27-.19-2.02,2.02-3.91,3.86-5.12Z"/>
          <path class="st2" d="M180.91,583.28c-.29,0-.57-.03-.82-.09-1.21-.28-1.98-1.19-2.11-2.49-.22-2.26,2.1-4.29,4.08-5.59h0c1.54-1.01,3.19-.54,4.15.37.94.89,1.48,2.49.56,4.04l-.07.11c-1.49,2.41-3.93,3.64-5.8,3.64ZM183.9,575.54c-.41,0-.85.12-1.29.41h0c-1.44.94-3.82,2.8-3.64,4.66.08.88.54,1.42,1.34,1.61,1.53.36,4.08-.73,5.54-3.09l.06-.1c.68-1.15.22-2.24-.39-2.81-.38-.37-.97-.67-1.62-.67Z"/>
        </g>
        <g>
          <path class="st11" d="M255.86,604.72s3.11-26.46-37.87-48.76l14.01-8.3s35.79,14.52,38.39,48.24"/>
          <path class="st2" d="M256.35,604.78l-.99-.12c.03-.26,2.56-26.4-37.61-48.26l-.77-.42,14.98-8.88.23.09c.36.15,36.11,15.03,38.7,48.67l-1,.08c-2.43-31.63-34.81-46.41-37.85-47.72l-13.03,7.72c20.74,11.47,29.8,24.01,33.75,32.55,4.35,9.42,3.64,16.01,3.61,16.28Z"/>
        </g>
      </g>
      <g>
        <g>
          <g>
            <path class="st18" d="M288.42,203.23h-15.82l-24.38,75.73.78,5.84,4.41,24.77s-9.86,20.23-17.12,48.76-27.49,142.13-27.49,142.13c0,0,56.54,18.16,120.86,18.16s111.01-21.27,111.01-21.27c0,0-43.57-181.04-53.43-194.52-9.86-13.49-26.97-99.6-26.97-99.6h-71.84Z"/>
            <path class="st2" d="M329.66,519.12c-63.66,0-120.45-18-121.02-18.18l-.42-.13.08-.43c.2-1.14,20.32-113.95,27.5-142.17,6.87-26.98,16.17-46.81,17.08-48.71l-4.38-24.61-.8-5.97.03-.11,24.49-76.08h88.44l.08.4c.17.86,17.21,86.15,26.89,99.4,9.8,13.41,51.73,187.31,53.51,194.7l.1.4-.38.17c-.47.21-47.52,21.31-111.21,21.31ZM209.36,500.11c5.29,1.64,59.66,18,120.29,18s105.85-19.06,110.42-21.06c-2.32-9.61-43.79-180.99-53.25-193.94-9.57-13.09-25.55-92.23-26.98-99.39h-86.89l-24.23,75.28.76,5.72,4.43,24.91-.07.15c-.1.2-9.92,20.52-17.08,48.67-6.95,27.3-26.03,133.94-27.41,141.66Z"/>
          </g>
          <g>
            <path class="st17" d="M268.19,309.57s49.02,12.45,90.26-3.89"/>
            <path class="st2" d="M309.35,314.56c-23.11,0-40.99-4.43-41.29-4.51l.25-.97c.49.12,49.34,12.22,89.95-3.87l.37.93c-16.32,6.47-33.95,8.42-49.28,8.42Z"/>
          </g>
        </g>
        <g class="st24">
          <g>
            <path class="st11" d="M278.07,244.14h-9.42c-2.22,0-4.28,1.19-5.39,3.11l-4.71,8.16c-1.11,1.92-1.11,4.3,0,6.22l4.71,8.16c1.11,1.92,3.16,3.11,5.39,3.11h9.42c2.22,0,4.28-1.19,5.39-3.11l4.71-8.16c1.11-1.92,1.11-4.3,0-6.22l-4.71-8.16c-1.11-1.92-3.16-3.11-5.39-3.11Z"/>
            <path class="st2" d="M278.07,273.41h-9.42c-2.39,0-4.62-1.29-5.82-3.36l-4.71-8.16c-1.2-2.07-1.2-4.65,0-6.72l4.71-8.16c1.2-2.07,3.43-3.36,5.82-3.36h9.42c2.39,0,4.62,1.29,5.82,3.36l4.71,8.16c1.2,2.07,1.2,4.65,0,6.72l-4.71,8.16c-1.2,2.07-3.43,3.36-5.82,3.36ZM268.65,244.64c-2.04,0-3.94,1.1-4.95,2.86l-4.71,8.16c-1.02,1.76-1.02,3.96,0,5.72l4.71,8.16c1.02,1.76,2.92,2.86,4.95,2.86h9.42c2.04,0,3.94-1.1,4.95-2.86l4.71-8.16c1.02-1.76,1.02-3.96,0-5.72l-4.71-8.16c-1.02-1.76-2.92-2.86-4.95-2.86h-9.42Z"/>
          </g>
          <g>
            <path class="st11" d="M373.52,269.56h-9.42c-2.22,0-4.28,1.19-5.39,3.11l-4.71,8.16c-1.11,1.92-1.11,4.3,0,6.22l4.71,8.16c1.11,1.92,3.16,3.11,5.39,3.11h9.42c2.22,0,4.28-1.19,5.39-3.11l4.71-8.16c1.11-1.92,1.11-4.3,0-6.22l-4.71-8.16c-1.11-1.92-3.16-3.11-5.39-3.11Z"/>
            <path class="st2" d="M373.52,298.82h-9.42c-2.39,0-4.62-1.29-5.82-3.36l-4.71-8.16c-1.2-2.07-1.2-4.65,0-6.72l4.71-8.16c1.2-2.07,3.43-3.36,5.82-3.36h9.42c2.39,0,4.62,1.29,5.82,3.36l4.71,8.16c1.2,2.07,1.2,4.65,0,6.72l-4.71,8.16c-1.2,2.07-3.43,3.36-5.82,3.36ZM364.09,270.06c-2.04,0-3.94,1.1-4.95,2.86l-4.71,8.16c-1.02,1.76-1.02,3.96,0,5.72l4.71,8.16c1.02,1.76,2.92,2.86,4.95,2.86h9.42c2.04,0,3.93-1.1,4.95-2.86l4.71-8.16c1.02-1.76,1.02-3.96,0-5.72l-4.71-8.16c-1.02-1.76-2.92-2.86-4.95-2.86h-9.42Z"/>
          </g>
          <g>
            <path class="st11" d="M281.71,355.77h-20.64c-2.22,0-4.28,1.19-5.39,3.11l-10.32,17.87c-1.11,1.92-1.11,4.3,0,6.22l10.32,17.87c1.11,1.92,3.16,3.11,5.39,3.11h20.64c2.22,0,4.28-1.19,5.39-3.11l10.32-17.87c1.11-1.92,1.11-4.3,0-6.22l-10.32-17.87c-1.11-1.92-3.16-3.11-5.39-3.11Z"/>
            <path class="st2" d="M281.71,404.45h-20.64c-2.39,0-4.62-1.29-5.82-3.36l-10.32-17.87c-1.2-2.07-1.2-4.65,0-6.72l10.32-17.87c1.2-2.07,3.43-3.36,5.82-3.36h20.64c2.39,0,4.62,1.29,5.82,3.36l10.32,17.87c1.2,2.07,1.2,4.65,0,6.72l-10.32,17.87c-1.2,2.07-3.43,3.36-5.82,3.36ZM261.07,356.27c-2.04,0-3.94,1.1-4.95,2.86l-10.32,17.87c-1.02,1.76-1.02,3.96,0,5.72l10.32,17.87c1.02,1.76,2.92,2.86,4.95,2.86h20.64c2.04,0,3.94-1.1,4.95-2.86l10.32-17.87c1.02-1.76,1.02-3.96,0-5.72l-10.32-17.87c-1.02-1.76-2.92-2.86-4.95-2.86h-20.64Z"/>
          </g>
          <g>
            <path class="st11" d="M437.33,464.7h-20.64c-2.22,0-4.28,1.19-5.39,3.11l-10.32,17.87c-1.11,1.92-1.11,4.3,0,6.22l10.32,17.87c1.11,1.92,3.16,3.11,5.39,3.11h20.64c2.22,0,4.28-1.19,5.39-3.11l10.32-17.87c1.11-1.92,1.11-4.3,0-6.22l-10.32-17.87c-1.11-1.92-3.16-3.11-5.39-3.11Z"/>
            <path class="st2" d="M437.33,513.39h-20.64c-2.39,0-4.62-1.29-5.82-3.36l-10.32-17.87c-1.2-2.07-1.2-4.65,0-6.72l10.32-17.87c1.2-2.07,3.43-3.36,5.82-3.36h20.64c2.39,0,4.62,1.29,5.82,3.36l10.32,17.87c1.2,2.07,1.2,4.65,0,6.72l-10.32,17.87c-1.2,2.07-3.42,3.36-5.82,3.36ZM416.69,465.2c-2.04,0-3.93,1.1-4.95,2.86l-10.32,17.87c-1.02,1.76-1.02,3.96,0,5.72l10.32,17.87c1.02,1.76,2.92,2.86,4.95,2.86h20.64c2.04,0,3.94-1.1,4.95-2.86l10.32-17.87c1.02-1.76,1.02-3.96,0-5.72l-10.32-17.87c-1.02-1.76-2.92-2.86-4.95-2.86h-20.64Z"/>
          </g>
          <g>
            <path class="st11" d="M359.1,427.73h-9.42c-2.22,0-4.28,1.19-5.39,3.11l-4.71,8.16c-1.11,1.92-1.11,4.3,0,6.22l4.71,8.16c1.11,1.92,3.16,3.11,5.39,3.11h9.42c2.22,0,4.28-1.19,5.39-3.11l4.71-8.16c1.11-1.92,1.11-4.3,0-6.22l-4.71-8.16c-1.11-1.92-3.16-3.11-5.39-3.11Z"/>
            <path class="st2" d="M359.1,456.99h-9.42c-2.39,0-4.62-1.29-5.82-3.36l-4.71-8.16c-1.2-2.07-1.2-4.65,0-6.72l4.71-8.16c1.2-2.07,3.43-3.36,5.82-3.36h9.42c2.39,0,4.62,1.29,5.82,3.36l4.71,8.16c1.2,2.07,1.2,4.65,0,6.72l-4.71,8.16c-1.2,2.07-3.43,3.36-5.82,3.36ZM349.67,428.23c-2.04,0-3.93,1.1-4.95,2.86l-4.71,8.16c-1.02,1.76-1.02,3.96,0,5.72l4.71,8.16c1.02,1.76,2.92,2.86,4.95,2.86h9.42c2.04,0,3.94-1.1,4.96-2.86l4.71-8.16c1.02-1.76,1.02-3.96,0-5.72l-4.71-8.16c-1.02-1.76-2.92-2.86-4.96-2.86h-9.42Z"/>
          </g>
          <g>
            <path class="st11" d="M238.23,483.23h-9.42c-2.22,0-4.28,1.19-5.39,3.11l-4.71,8.16c-1.11,1.92-1.11,4.3,0,6.22l4.71,8.16c1.11,1.92,3.16,3.11,5.39,3.11h9.42c2.22,0,4.28-1.19,5.39-3.11l4.71-8.16c1.11-1.92,1.11-4.3,0-6.22l-4.71-8.16c-1.11-1.92-3.16-3.11-5.39-3.11Z"/>
            <path class="st2" d="M238.23,512.5h-9.42c-2.39,0-4.62-1.29-5.82-3.36l-4.71-8.16c-1.2-2.07-1.2-4.65,0-6.72l4.71-8.16c1.2-2.07,3.43-3.36,5.82-3.36h9.42c2.39,0,4.62,1.29,5.82,3.36l4.71,8.16c1.2,2.07,1.2,4.65,0,6.72l-4.71,8.16c-1.2,2.07-3.43,3.36-5.82,3.36ZM228.81,483.73c-2.04,0-3.94,1.1-4.95,2.86l-4.71,8.16c-1.02,1.76-1.02,3.96,0,5.72l4.71,8.16c1.02,1.76,2.92,2.86,4.95,2.86h9.42c2.04,0,3.94-1.1,4.95-2.86l4.71-8.16c1.02-1.76,1.02-3.96,0-5.72l-4.71-8.16c-1.02-1.76-2.92-2.86-4.95-2.86h-9.42Z"/>
          </g>
          <g>
            <path class="st11" d="M399.56,359.25h-9.42c-2.22,0-4.28,1.19-5.39,3.11l-4.71,8.16c-1.11,1.92-1.11,4.3,0,6.22l4.71,8.16c1.11,1.92,3.16,3.11,5.39,3.11h9.42c2.22,0,4.28-1.19,5.39-3.11l4.71-8.16c1.11-1.92,1.11-4.3,0-6.22l-4.71-8.16c-1.11-1.92-3.16-3.11-5.39-3.11Z"/>
            <path class="st2" d="M399.56,388.52h-9.42c-2.39,0-4.62-1.29-5.82-3.36l-4.71-8.16c-1.2-2.07-1.2-4.65,0-6.72l4.71-8.16c1.2-2.07,3.43-3.36,5.82-3.36h9.42c2.39,0,4.62,1.29,5.82,3.36l4.71,8.16c1.2,2.07,1.2,4.65,0,6.72l-4.71,8.16c-1.2,2.07-3.43,3.36-5.82,3.36ZM390.13,359.75c-2.04,0-3.93,1.1-4.95,2.86l-4.71,8.16c-1.02,1.76-1.02,3.96,0,5.72l4.71,8.16c1.02,1.76,2.92,2.86,4.95,2.86h9.42c2.04,0,3.94-1.1,4.96-2.86l4.71-8.16c1.02-1.76,1.02-3.96,0-5.72l-4.71-8.16c-1.02-1.76-2.92-2.86-4.96-2.86h-9.42Z"/>
          </g>
        </g>
        <g>
          <path class="st2" d="M329.66,519.12c-63.66,0-120.45-18-121.02-18.18l-.42-.13.08-.43c.2-1.14,20.32-113.95,27.5-142.17,6.87-26.98,16.17-46.81,17.08-48.71l-4.38-24.61-.8-5.97.03-.11,24.49-76.08h88.44l.08.4c.17.86,17.21,86.15,26.89,99.4,9.8,13.41,51.73,187.31,53.51,194.7l.1.4-.38.17c-.47.21-47.52,21.31-111.21,21.31ZM209.36,500.11c5.29,1.64,59.66,18,120.29,18s105.85-19.06,110.42-21.06c-2.32-9.61-43.79-180.99-53.25-193.94-9.57-13.09-25.55-92.23-26.98-99.39h-86.89l-24.23,75.28.76,5.72,4.43,24.91-.07.15c-.1.2-9.92,20.52-17.08,48.67-6.95,27.3-26.03,133.94-27.41,141.66Z"/>
          <path class="st2" d="M309.35,314.56c-23.11,0-40.99-4.43-41.29-4.51l.25-.97c.49.12,49.34,12.22,89.95-3.87l.37.93c-16.32,6.47-33.95,8.42-49.28,8.42Z"/>
        </g>
      </g>
      <g>
        <path class="st18" d="M268.19,309.57s49.02,12.45,90.26-3.89"/>
        <path class="st2" d="M309.35,314.56c-23.11,0-40.99-4.43-41.29-4.51l.25-.97c.49.12,49.34,12.22,89.95-3.87l.37.93c-16.32,6.47-33.95,8.42-49.28,8.42Z"/>
      </g>
      <g>
        <path class="st6" d="M293.09,183.26s4.67,9.34-1.04,20.23c0,0,10.89,59.65,30.6,59.65s17.64-60.17,17.64-60.17c0,0-2.16-18.17-1.04-29.05,1.12-10.88-46.17,9.34-46.17,9.34Z"/>
        <path class="st2" d="M322.65,263.64c-8.41,0-16.21-10.15-23.17-30.16-5.14-14.78-7.9-29.75-7.93-29.9l-.03-.17.08-.15c5.51-10.52,1.08-19.68,1.03-19.77l-.24-.47.49-.21c.1-.04,9.8-4.18,20.18-7.67,14.07-4.73,22.67-6.05,25.55-3.94.88.65,1.26,1.58,1.13,2.77-1.1,10.7,1.02,28.76,1.04,28.94,0,.15.38,11.33-.74,23.88-1.5,16.93-4.85,28.19-9.94,33.46-2.17,2.25-4.68,3.39-7.45,3.39ZM292.57,203.57c.66,3.49,11.51,59.08,30.08,59.08,2.49,0,4.75-1.04,6.73-3.08,11.79-12.21,10.42-56.13,10.41-56.57-.02-.14-2.15-18.31-1.04-29.12.08-.83-.15-1.44-.73-1.87-1.79-1.31-7.51-1.68-24.63,4.08-9.06,3.04-17.59,6.58-19.64,7.44.85,2.08,3.73,10.52-1.17,20.04Z"/>
      </g>
      <g>
        <g>
          <path class="st6" d="M338.15,295.55c25.22,9.35,47.95,27.38,52.49,17.39,4.54-9.99-9.34-28.14-9.34-28.14,0,0-11.15-14.65-18.41-42.15-7.26-27.49-5.19-39.42-5.19-39.42,0,0,65.1-8.56,99.34,65.1,16.38,35.25,8.82,68.18-12.85,88.35-23.61,21.97-63.97,28.78-108.35,6.91,0,0,.2,8.85-9.17,9.43-9.37.59-16.1-4.45-16.29-12.83,0,0-10.26-.85-8.97-15.13,0,0-6.69-4.1-6.14-13.67,0,0-7.12-13-1.41-22.34,5.71-9.34,19.07-22.85,44.29-13.5Z"/>
          <path class="st2" d="M388.87,377.5c-15.68,0-33.39-3.8-52.58-13.14-.22,2.27-1.56,8.65-9.59,9.15-5.17.33-9.69-1.04-12.74-3.85-2.49-2.29-3.89-5.41-4.06-9.05-1.08-.19-3.89-.92-6.13-3.58-2.32-2.76-3.29-6.71-2.88-11.74-1.25-.9-6.56-5.24-6.12-13.8-.77-1.46-6.89-13.62-1.33-22.71,5.65-9.24,18.99-23.31,44.89-13.71,8.75,3.25,17.22,7.54,24.68,11.32,10.83,5.49,20.19,10.24,24.73,8.65,1.11-.39,1.91-1.15,2.45-2.32,4.36-9.6-9.14-27.45-9.28-27.63-.11-.15-11.3-15.05-18.5-42.32-7.21-27.28-5.28-39.15-5.2-39.64l.06-.36.36-.05c.17-.02,16.63-2.07,37.06,4.95,18.85,6.48,45.04,22.23,62.8,60.43,15.38,33.1,10.42,67.17-12.96,88.92-12.41,11.55-31.65,20.46-55.66,20.46ZM335.32,362.77l.74.36c48.42,23.87,87.43,12.12,107.79-6.82,23.05-21.45,27.93-55.08,12.73-87.77-17.6-37.87-43.52-53.47-62.17-59.9-18.51-6.38-33.71-5.22-36.27-4.96-.26,2.21-1.22,14.41,5.23,38.84,7.15,27.06,18.22,41.83,18.33,41.97.57.75,14,18.51,9.39,28.65-.64,1.41-1.66,2.37-3.02,2.85-4.94,1.73-14.02-2.87-25.51-8.7-7.44-3.77-15.88-8.05-24.58-11.28-25.23-9.35-38.2,4.31-43.69,13.29-5.49,8.98,1.35,21.71,1.42,21.83l.07.13v.14c-.54,9.13,5.83,13.17,5.89,13.21l.26.16-.03.31c-.44,4.89.44,8.68,2.61,11.28,2.49,2.97,5.87,3.3,5.9,3.3l.45.04v.45c.09,3.54,1.39,6.57,3.76,8.76,2.85,2.62,7.12,3.89,12,3.58,8.79-.55,8.71-8.58,8.7-8.92l-.02-.82Z"/>
        </g>
        <path class="st2" d="M309.88,360.2c-.73-15.97,21.11-19.14,21.33-19.17l.13.99c-.21.03-21.16,3.07-20.47,18.13l-1,.05Z"/>
        <path class="st2" d="M301.9,345.16l-.98-.21c3.88-17.72,21.75-20.59,21.93-20.61l.15.99c-.17.03-17.38,2.8-21.1,19.84Z"/>
        <path class="st2" d="M295.77,331.44l-.99-.11c2.26-19.93,25.09-23.9,25.32-23.94l.16.99c-.22.04-22.32,3.89-24.49,23.07Z"/>
        <g>
          <path class="st6" d="M326.91,363.68s4.27-1.19,4.83-4.82c0,0,.58,3.43,4.09,4.72"/>
          <path class="st2" d="M327.05,364.16l-.27-.96s3.97-1.16,4.47-4.41l.47-2.99.52,2.99c.02.13.59,3.17,3.77,4.33l-.34.94c-2.21-.81-3.34-2.39-3.9-3.58-1.31,2.71-4.56,3.65-4.72,3.69Z"/>
        </g>
      </g>
      <g>
        <path class="st21" d="M333.7,196c-1.26,7.73-23.93,9.33-30.7-.92,0,0,31.96-6.8,30.7.92Z"/>
        <g>
          <g>
            <path class="st21" d="M333.74,114.29s12.04-.89,12.28-12.23c.25-11.35-8.05-8.95-8.05-8.95,0,0,8.89-5.91,1.06-13.96-6.17-6.34-13.83.26-13.83.26,0,0-1.2-12.54-15.44-9.58-14.24,2.96-6.44,14.87-6.44,14.87,0,0-10.34-3.67-12.66,5.47-2.32,9.15,8.11,12.41,8.11,12.41,0,0-5.64,1.26-.63,7.39,10.41,12.73,35.58,4.32,35.58,4.32Z"/>
            <path class="st2" d="M316.68,117.51c-8.52,0-15.02-2.47-18.91-7.23-1.87-2.29-2.55-4.23-2.01-5.78.33-.95,1.05-1.55,1.69-1.92-2.75-1.23-9.18-4.98-7.26-12.54.66-2.6,2.01-4.47,4.02-5.54,2.86-1.53,6.31-1.05,8.09-.62-.93-1.82-2.43-5.59-1.03-8.98,1.15-2.77,3.97-4.64,8.4-5.56,4.7-.98,8.52-.41,11.37,1.69,3.16,2.33,4.21,5.86,4.53,7.48,2.08-1.47,8.5-5.18,13.83.29,2.49,2.55,3.6,5.18,3.32,7.8-.28,2.63-1.89,4.63-3.1,5.79,1.15-.01,2.68.21,4.02,1.25,2,1.54,2.97,4.38,2.88,8.43-.24,11.23-11.71,12.62-12.68,12.71-.65.21-6.76,2.13-13.96,2.62-1.1.07-2.17.11-3.21.11ZM298.8,84.47c-1.35,0-2.82.22-4.12.92-1.75.93-2.93,2.58-3.52,4.9-2.18,8.58,7.37,11.68,7.78,11.81l1.76.55-1.79.41s-1.73.41-2.19,1.77c-.4,1.18.23,2.85,1.84,4.82,10.07,12.32,34.79,4.25,35.04,4.16l.12-.02s2.97-.24,5.88-1.82c3.85-2.09,5.85-5.43,5.94-9.93.08-3.72-.76-6.28-2.49-7.62-2.12-1.63-4.89-.85-4.92-.85l-3.09.89,2.68-1.79s3.64-2.47,4.03-6.2c.24-2.31-.78-4.66-3.05-6.99-5.77-5.92-12.85.03-13.14.29l-.73.63-.09-.96s-.52-4.87-4.27-7.63c-2.61-1.92-6.16-2.43-10.57-1.51-4.08.85-6.66,2.52-7.67,4.96-1.7,4.09,1.52,9.09,1.55,9.14l.81,1.24-1.39-.49s-2.01-.7-4.37-.7Z"/>
          </g>
          <g>
            <path class="st4" d="M337.33,114.71s3.36-12.3-19.93-13.06c-17.56-.57-19.37,13.1-19.37,13.1l39.31-.04Z"/>
            <path class="st2" d="M297.45,115.25l.08-.57c.02-.14,2.12-14.11,19.89-13.53,9.47.31,15.79,2.52,18.79,6.58,2.56,3.47,1.65,6.96,1.61,7.1l-.1.37-40.26.04ZM316.34,102.13c-14.16,0-17.17,9.62-17.71,12.12l38.3-.04c.14-.92.29-3.44-1.54-5.9-2.78-3.74-9-5.87-18-6.16-.36-.01-.7-.02-1.05-.02Z"/>
          </g>
        </g>
        <g>
          <g>
            <path class="st6" d="M284.31,171.25s-13.39,9.61-19.57-4.89c-6.17-14.5,13.54-18.03,17.57-14.11"/>
            <path class="st2" d="M275.1,174.87c-.96,0-1.95-.12-2.93-.39-3.4-.95-6.05-3.62-7.89-7.93-3.23-7.59.64-11.7,3.23-13.48,5.08-3.48,12.7-3.56,15.15-1.18l-.7.72c-2.12-2.06-9.38-1.8-13.89,1.29-2.86,1.96-5.68,5.68-2.87,12.27,1.71,4.02,4.14,6.49,7.23,7.36,5.57,1.56,11.52-2.63,11.58-2.68l.58.81c-.22.16-4.55,3.22-9.5,3.22Z"/>
          </g>
          <g>
            <path class="st6" d="M279.3,164.16s-5.49-3.5-9.86-2.91"/>
            <path class="st2" d="M279.04,164.58c-.05-.03-5.39-3.4-9.52-2.84l-.13-.99c4.5-.6,9.96,2.84,10.19,2.98l-.54.84Z"/>
          </g>
          <g>
            <path class="st22" d="M269.5,175.87c0-2.37.16-8.6,8.17-8.6,8.01,0,7.58,6.64,7.41,10.51-.16,3.87-3.72,7.58-9.95,6.09-6.23-1.48-5.63-5.63-5.63-8.01Z"/>
            <path class="st5" d="M277.85,184.71c-.85,0-1.79-.1-2.83-.35-6.14-1.46-6.07-5.51-6.02-7.93,0-.2,0-.39,0-.56,0-6.04,2.92-9.1,8.67-9.1,2.62,0,4.62.7,5.94,2.08,2.26,2.36,2.09,6.2,1.98,8.74v.21c-.1,2.13-1.12,4.08-2.8,5.35-1.03.78-2.63,1.56-4.94,1.56ZM277.67,167.77c-6.87,0-7.67,4.62-7.67,8.1,0,.18,0,.38,0,.58-.04,2.39-.1,5.66,5.26,6.94,3.5.83,5.71-.1,6.94-1.03,1.45-1.09,2.32-2.77,2.4-4.6v-.21c.12-2.52.26-5.96-1.7-8.01-1.13-1.18-2.88-1.77-5.22-1.77Z"/>
          </g>
        </g>
        <g>
          <g>
            <path class="st6" d="M354.35,171.25s13.39,9.61,19.57-4.89c6.17-14.5-13.54-18.03-17.57-14.11"/>
            <path class="st2" d="M363.56,174.87c-4.95,0-9.29-3.06-9.5-3.22l.58-.81c.06.04,6.01,4.24,11.58,2.68,3.09-.87,5.52-3.34,7.23-7.36,2.8-6.59-.01-10.31-2.87-12.27-4.51-3.09-11.77-3.35-13.89-1.29l-.7-.72c2.45-2.38,10.07-2.3,15.15,1.18,2.59,1.78,6.46,5.89,3.23,13.48-1.84,4.31-4.49,6.98-7.88,7.93-.98.27-1.97.39-2.93.39Z"/>
          </g>
          <g>
            <path class="st22" d="M352.53,175.87c0-2.37.16-8.6,8.17-8.6,8.01,0,7.58,6.64,7.41,10.51-.16,3.87-3.72,7.58-9.95,6.09-6.23-1.48-5.63-5.63-5.63-8.01Z"/>
            <path class="st5" d="M360.87,184.71c-.85,0-1.79-.1-2.83-.35-6.14-1.46-6.07-5.51-6.02-7.93,0-.2,0-.39,0-.56,0-6.04,2.92-9.1,8.67-9.1,2.62,0,4.62.7,5.94,2.08,2.26,2.35,2.09,6.2,1.98,8.74v.21c-.1,2.13-1.12,4.08-2.8,5.35-1.03.78-2.63,1.56-4.94,1.56ZM360.7,167.77c-6.88,0-7.67,4.62-7.67,8.1,0,.18,0,.38,0,.58-.04,2.39-.1,5.66,5.26,6.94,3.5.83,5.71-.1,6.93-1.03,1.45-1.09,2.32-2.77,2.4-4.6v-.21c.12-2.52.26-5.96-1.7-8.01-1.13-1.18-2.88-1.77-5.22-1.77Z"/>
          </g>
          <g>
            <path class="st6" d="M359.35,164.16s5.49-3.5,9.86-2.91"/>
            <path class="st2" d="M359.62,164.58l-.54-.84c.23-.15,5.7-3.59,10.19-2.98l-.13.99c-4.13-.56-9.47,2.8-9.52,2.84Z"/>
          </g>
        </g>
        <g>
          <path class="st6" d="M324.75,196.53c16.23-1.26,36.8-8.78,38.4-38.68,2.45-45.76-42.53-56.38-66.12-45.13-18.35,8.75-26.59,22.42-21.2,50.99,5.4,28.57,32.33,34.12,48.91,32.83Z"/>
          <path class="st2" d="M320.06,197.21c-18.68,0-40.03-8.56-44.72-33.41-5.02-26.56,1.41-41.97,21.47-51.54,14.48-6.9,34.27-5.25,48.12,4.02,9.22,6.17,19.95,18.39,18.71,41.59-1.6,29.98-22.02,37.84-38.86,39.16h0c-1.55.12-3.12.18-4.72.18ZM316.55,109.1c-6.86,0-13.57,1.33-19.3,4.06-19.84,9.46-25.9,24.08-20.92,50.45,4.97,26.32,29.18,33.92,48.38,32.42h0c16.44-1.28,36.38-8.95,37.94-38.21,1.21-22.73-9.26-34.68-18.26-40.71-7.88-5.27-18-8.01-27.84-8.01Z"/>
        </g>
        <g class="st15">
          <g>
            <path class="st21" d="M366,130.15c-9.51,12.23-17.89,11.58-29.55-2.73,0,0-10.89,9.1-17.66-2.96,0,0-9.19,15.13-21.32,4.35,0,0-8.11,28.04-26.02,9.7-17.9-18.33,11.58-39.14,19.4-40.9,7.81-1.75,84.66,20.32,75.15,32.54Z"/>
            <path class="st2" d="M282.93,145.22c-3.73,0-7.7-2.13-11.83-6.37-5.29-5.42-6.99-11.49-5.04-18.04,3.59-12.1,18.91-22.39,24.69-23.69,3.6-.81,20.75,3.16,37.45,8.67,9.86,3.25,33.33,11.65,38.2,19.33,1.24,1.95,1.24,3.75,0,5.33h0c-4.64,5.97-8.88,8.77-13.34,8.82-5.02.1-10.36-3.49-16.68-11.16-1.31.97-5.59,3.79-10.22,2.94-2.93-.54-5.41-2.44-7.39-5.66-1.29,1.85-5.23,6.82-10.85,7.66-3.44.52-6.86-.62-10.19-3.38-.96,2.91-4.92,13.37-12.45,15.26-.77.19-1.55.29-2.34.29ZM291.99,98.01c-.43,0-.77.03-1.03.09-5.45,1.22-20.52,11.45-23.95,23-1.83,6.18-.22,11.92,4.8,17.06,4.75,4.86,9.2,6.82,13.22,5.81,8.02-2.01,11.92-15.17,11.96-15.3l.22-.76.59.53c3.28,2.92,6.63,4.14,9.96,3.64,6.31-.94,10.56-7.81,10.6-7.88l.44-.73.42.75c1.89,3.37,4.28,5.34,7.1,5.86,4.97.92,9.75-3,9.8-3.04l.39-.32.32.39c6.25,7.68,11.38,11.24,16.2,11.17,4.13-.05,8.13-2.73,12.56-8.43h0c.96-1.24.94-2.6-.06-4.18-7.59-11.96-63.47-27.65-73.56-27.65Z"/>
          </g>
        </g>
        <g>
          <path class="st2" d="M300.04,148.63l-.22-.97c8.34-1.93,9.38-5.84,9.39-5.88l.98.22c-.04.18-1.11,4.55-10.14,6.63Z"/>
          <path class="st2" d="M333.97,147.1c-3.83,0-8.21-4.68-8.42-4.9l.73-.68c.05.06,5.44,5.81,8.89,4.35l.39.92c-.51.22-1.04.31-1.59.31Z"/>
          <g>
            <path class="st2" d="M305.29,157.67s.05,2.54-.29,3.33.1,1.78,1.13,1.64,2.01-3.87,1.6-6.81-.74-3.19-2.34-2.82c-1.6.37.11,2.98-.1,4.65Z"/>
            <path class="st2" d="M305.94,163.16c-.49,0-.93-.2-1.21-.58-.36-.48-.44-1.17-.18-1.77.22-.51.27-2.19.25-3.13v-.04s0-.04,0-.04c.07-.55-.11-1.27-.29-1.96-.25-.97-.48-1.88-.09-2.52.18-.3.47-.5.86-.59.67-.16,1.32-.27,1.85.1.62.43.85,1.35,1.1,3.14.2,1.41.09,3.15-.27,4.64-.29,1.18-.83,2.6-1.76,2.73-.09.01-.17.02-.26.02ZM305.79,157.7c0,.4.03,2.66-.33,3.5-.11.27-.09.58.05.77.12.15.3.21.54.18.53-.15,1.58-3.31,1.18-6.24-.16-1.14-.35-2.23-.68-2.46-.15-.1-.45-.09-1.05.05-.18.04-.22.11-.24.14-.17.29.03,1.1.2,1.76.2.77.4,1.58.32,2.3Z"/>
          </g>
          <g>
            <path class="st2" d="M331.21,157.39s.05,2.54-.29,3.33c-.34.8.1,1.78,1.13,1.64,1.03-.14,2.01-3.87,1.6-6.81s-.74-3.19-2.34-2.82c-1.6.37.11,2.98-.1,4.65Z"/>
            <path class="st2" d="M331.86,162.88c-.5,0-.93-.2-1.21-.58-.36-.48-.43-1.17-.18-1.77.22-.51.27-2.19.25-3.13v-.04s0-.04,0-.04c.07-.54-.11-1.27-.29-1.96-.25-.97-.48-1.88-.09-2.52.18-.3.47-.5.86-.59.67-.16,1.32-.27,1.85.1.62.43.85,1.35,1.1,3.14.41,2.97-.52,7.16-2.03,7.37-.09.01-.17.02-.26.02ZM331.71,157.42c0,.4.03,2.66-.33,3.5-.11.27-.09.58.05.77.12.15.3.21.54.18.53-.15,1.58-3.31,1.18-6.24-.16-1.14-.35-2.23-.67-2.46-.15-.1-.46-.09-1.05.05-.18.04-.22.11-.24.14-.17.29.03,1.1.2,1.76.2.77.4,1.57.32,2.3Z"/>
          </g>
          <path class="st2" d="M311.01,179.18l-.42-.91c9.7-4.53,16.33-.43,16.61-.25l-.54.84c-.06-.04-6.47-3.97-15.65.32Z"/>
        </g>
        <ellipse class="st3" cx="294.41" cy="163.66" rx="4" ry="5.93" transform="translate(70.42 415.23) rotate(-77.39)"/>
        <ellipse class="st3" cx="344.62" cy="163.54" rx="4" ry="5.93" transform="translate(175.82 505.62) rotate(-89.12)"/>
        <path class="st2" d="M323.42,171.02l-.83-.56s2.32-3.46,1.32-5.78c-.47-1.1-1.66-1.81-3.53-2.11-1.88-.3-3.37.04-4.42,1.01-2.22,2.05-1.92,6.23-1.92,6.27l-1,.08c-.01-.19-.33-4.72,2.24-7.09,1.29-1.19,3.06-1.61,5.26-1.26,2.23.36,3.67,1.27,4.29,2.7,1.22,2.83-1.31,6.58-1.42,6.74Z"/>
        <path class="st6" d="M305.2,194.57"/>
      </g>
    </g>
    <g>
      <path class="st6" d="M444.19,356.68c-23.61,21.97-63.97,28.78-108.35,6.91,0,0,.2,8.85-9.17,9.43-9.37.59-16.1-4.45-16.29-12.83,0,0-10.26-.85-8.97-15.13,0,0-6.69-4.1-6.14-13.67,0,0-7.12-13-1.41-22.34,5.71-9.34,19.07-22.85,44.29-13.5,25.22,9.35,47.95,27.38,52.49,17.39"/>
      <path class="st2" d="M388.87,377.5c-15.68,0-33.39-3.8-52.58-13.14-.22,2.27-1.56,8.65-9.59,9.15-5.17.33-9.69-1.04-12.74-3.85-2.49-2.29-3.89-5.41-4.06-9.05-1.08-.19-3.89-.92-6.13-3.58-2.32-2.76-3.29-6.71-2.88-11.74-1.25-.9-6.56-5.24-6.12-13.8-.77-1.46-6.89-13.62-1.33-22.71,5.65-9.24,18.99-23.31,44.89-13.71,8.75,3.25,17.22,7.54,24.68,11.32,10.83,5.49,20.19,10.24,24.73,8.65,1.11-.39,1.91-1.15,2.45-2.32l.91.41c-.64,1.41-1.66,2.37-3.02,2.85-4.94,1.73-14.02-2.87-25.51-8.7-7.44-3.77-15.88-8.05-24.58-11.28-25.23-9.35-38.2,4.31-43.69,13.29-5.49,8.98,1.35,21.71,1.42,21.83l.07.13v.14c-.54,9.16,5.82,13.17,5.89,13.21l.26.16-.03.31c-.44,4.89.44,8.68,2.61,11.28,2.49,2.97,5.87,3.3,5.9,3.3l.45.04v.45c.09,3.54,1.39,6.57,3.76,8.76,2.85,2.62,7.12,3.89,12,3.58,8.77-.55,8.71-8.58,8.7-8.92l-.02-.82.74.36c48.42,23.87,87.43,12.12,107.79-6.82l.68.73c-12.41,11.55-31.65,20.46-55.66,20.46Z"/>
    </g>
    <path class="st2" d="M309.88,360.2c-.73-15.97,21.11-19.14,21.33-19.17l.13.99c-.21.03-21.16,3.07-20.47,18.13l-1,.05Z"/>
    <path class="st2" d="M301.9,345.16l-.98-.21c3.88-17.72,21.75-20.59,21.93-20.61l.15.99c-.17.03-17.38,2.8-21.1,19.84Z"/>
    <path class="st2" d="M295.77,331.44l-.99-.11c2.26-19.93,25.09-23.9,25.32-23.94l.16.99c-.22.04-22.32,3.89-24.49,23.07Z"/>
    <g>
      <path class="st6" d="M326.91,363.68s4.27-1.19,4.83-4.82c0,0,.58,3.43,4.09,4.72"/>
      <path class="st2" d="M327.05,364.16l-.27-.96s3.97-1.16,4.47-4.41l.47-2.99.52,2.99c.02.13.59,3.17,3.77,4.33l-.34.94c-2.21-.81-3.34-2.39-3.9-3.58-1.31,2.71-4.56,3.65-4.72,3.69Z"/>
    </g>
  </g>
  <g>
    <g>
      <path class="st11" d="M484.81,694.34s-36.57-14.01-50.58-26.46-12.64-33.24,3.89-43.57c31.12-19.45,58.36-.78,49.02,10.12-9.34,10.89-4.67,14.78.78,19.45,4.76,4.08,19.45,1.56,19.45,17.12,0,15.56-11.67,24.12-22.56,23.34Z"/>
      <path class="st2" d="M486.19,694.89c-.47,0-.95-.02-1.42-.05l-.14-.03c-.37-.14-36.82-14.18-50.73-26.55-6.87-6.1-10.39-14.51-9.67-23.06.72-8.58,5.69-16.35,13.63-21.31,22.19-13.87,42.01-8.67,49-.54,3.28,3.81,3.52,8.07.67,11.41-8.96,10.45-4.73,14.08.63,18.67l.1.08c1.33,1.14,3.61,1.77,6.03,2.43,6.06,1.67,13.6,3.74,13.6,15.07,0,7.3-2.61,13.75-7.36,18.17-3.95,3.68-9.1,5.72-14.32,5.72ZM484.92,693.85c5.39.36,10.83-1.61,14.91-5.41,4.54-4.23,7.04-10.42,7.04-17.44,0-10.56-6.83-12.44-12.86-14.1-2.53-.7-4.92-1.35-6.41-2.64l-.1-.08c-5.32-4.56-10.34-8.87-.74-20.08,2.55-2.97,2.3-6.65-.66-10.1-6.56-7.63-26.26-12.67-47.71.74-7.67,4.79-12.46,12.28-13.16,20.54-.69,8.24,2.71,16.34,9.34,22.23,13.49,11.99,48.55,25.64,50.35,26.34Z"/>
    </g>
    <g>
      <path class="st10" d="M484.86,690.71c-7.28-14.55,7.48-27.23,15.87-26.46,5.35,5.45,5.95,22.49-15.87,26.46Z"/>
      <path class="st2" d="M484.58,691.27l-.17-.33c-4.15-8.29-.96-15.09,1.3-18.4,3.73-5.46,10.23-9.22,15.07-8.78l.18.02.13.13c2.52,2.56,4.38,7.99,2.52,13.84-1.26,3.99-5.37,11.04-18.66,13.45l-.37.07ZM499.95,664.72c-4.43,0-10.06,3.48-13.41,8.38-2.11,3.09-5.06,9.37-1.4,17.05,12.48-2.38,16.33-8.97,17.52-12.7,1.63-5.13.16-10.23-2.15-12.71-.18-.01-.37-.02-.55-.02Z"/>
    </g>
    <path class="st2" d="M443.28,671.91l-.96-.26c7.59-28.07-10.49-39.79-10.68-39.91l.53-.85c.19.12,18.9,12.2,11.11,41.02Z"/>
  </g>
  <g>
    <g>
      <circle class="st18" cx="386.75" cy="639.51" r="49.02" transform="translate(-201.81 178.91) rotate(-20.79)"/>
      <path class="st2" d="M386.82,689.02c-15.9,0-31.53-7.63-41.09-21.76-15.3-22.62-9.34-53.46,13.28-68.76,10.96-7.41,24.14-10.11,37.13-7.6,12.99,2.51,24.22,9.92,31.63,20.88,7.41,10.96,10.11,24.14,7.6,37.13-2.51,12.99-9.92,24.22-20.88,31.63-8.48,5.74-18.12,8.49-27.67,8.49ZM386.64,590.98c-9.59,0-18.96,2.85-27.08,8.34-22.16,14.99-28,45.21-13.01,67.37,14.99,22.16,45.21,28,67.37,13.01,10.74-7.26,18-18.27,20.46-30.99,2.46-12.72-.19-25.65-7.45-36.38h0c-7.26-10.74-18.27-18-30.99-20.46-3.1-.6-6.21-.89-9.3-.89Z"/>
    </g>
    <g>
      <ellipse class="st11" cx="386.23" cy="638.76" rx="49.02" ry="23.49" transform="translate(-291.55 326.04) rotate(-34.07)"/>
      <path class="st2" d="M360.64,672.92c-7.2,0-12.57-2.2-15.42-6.42-3.63-5.37-2.72-13.3,2.57-22.33,5.22-8.93,14.1-17.9,25.01-25.28,10.91-7.38,22.54-12.28,32.77-13.8,10.36-1.54,18.06.56,21.69,5.93,3.63,5.37,2.72,13.3-2.57,22.33-5.22,8.92-14.1,17.9-25.01,25.28-10.91,7.38-22.55,12.28-32.77,13.8-2.21.33-4.31.49-6.26.49ZM411.85,605.59c-1.91,0-3.96.16-6.13.48-10.08,1.5-21.58,6.35-32.36,13.64-10.79,7.29-19.56,16.16-24.71,24.96-5.08,8.69-6.01,16.24-2.61,21.27s10.75,6.98,20.71,5.5c10.08-1.5,21.57-6.35,32.36-13.64s19.56-16.16,24.71-24.96c5.08-8.69,6.01-16.24,2.61-21.27-2.66-3.93-7.74-5.98-14.58-5.98Z"/>
    </g>
  </g>
  <g>
    <g>
      <path class="st25" d="M357.19,305.92c1.88,6.3,14.67,47.84,6.22,71.07-1.42.32,5.91,9.58,14.52,4.15,11.2-10.61,1.76-64.99-2.59-71.07-4.35-6.07-18.78-6.25-18.16-4.15Z"/>
      <path class="st2" d="M372.35,383.34c-2.69,0-4.87-1.11-6.21-2.02-2.01-1.37-3.57-3.31-3.39-4.24.03-.18.12-.33.26-.44,7.03-19.66-.83-52.35-6.16-70.12l-.14-.45c-.07-.24-.15-.86.74-1.3,2.59-1.27,14.3-.56,18.3,5.01,4.61,6.43,13.88,60.97,2.53,71.72-2.14,1.35-4.14,1.84-5.93,1.84ZM363.77,377.42c.24.64,1.54,2.35,3.82,3.62,2.32,1.29,5.94,2.28,10.07-.33,10.94-10.38,1.16-64.92-2.73-70.35-2.83-3.96-10.34-5.38-14.75-5.13-1.75.1-2.39.44-2.51.57l.13.42c5.38,17.94,13.32,51.02,6.08,70.93l-.11.26Z"/>
    </g>
    <g>
      <ellipse class="st25" cx="372.54" cy="327.64" rx="13.25" ry="17.43" transform="translate(-3.91 650.78) rotate(-81.97)"/>
      <path class="st2" d="M373.9,341.49c-1.08,0-2.18-.08-3.28-.23-9.79-1.38-16.89-8.61-15.83-16.12.52-3.66,2.87-6.84,6.61-8.93,3.7-2.07,8.35-2.85,13.06-2.18,4.72.67,8.96,2.69,11.95,5.71,3.02,3.05,4.4,6.75,3.89,10.41h0c-.52,3.66-2.87,6.84-6.61,8.93-2.84,1.59-6.23,2.41-9.78,2.41ZM371.18,314.79c-3.38,0-6.6.78-9.29,2.29-3.47,1.94-5.64,4.85-6.11,8.2-.98,6.96,5.74,13.69,14.98,14.99,4.51.63,8.92-.1,12.43-2.06,3.47-1.94,5.64-4.85,6.11-8.2h0c.47-3.35-.81-6.75-3.61-9.57-2.83-2.86-6.87-4.79-11.38-5.42-1.06-.15-2.11-.22-3.15-.22Z"/>
    </g>
    <g>
      <ellipse class="st16" cx="372.54" cy="324.88" rx="13.25" ry="17.43" transform="translate(-1.17 648.4) rotate(-81.97)"/>
      <path class="st2" d="M373.9,338.73c-1.08,0-2.18-.08-3.28-.23-9.79-1.38-16.89-8.61-15.83-16.12.52-3.66,2.87-6.84,6.61-8.93,3.7-2.07,8.35-2.85,13.06-2.18,4.72.67,8.96,2.69,11.95,5.71,3.02,3.05,4.4,6.75,3.89,10.41h0c-.52,3.66-2.87,6.84-6.61,8.93-2.84,1.59-6.23,2.41-9.78,2.41ZM371.18,312.02c-3.38,0-6.6.78-9.29,2.29-3.47,1.94-5.64,4.85-6.11,8.2-.98,6.96,5.74,13.69,14.98,14.99,4.5.63,8.92-.1,12.43-2.06,3.47-1.94,5.64-4.85,6.11-8.2h0c.47-3.35-.81-6.75-3.61-9.57-2.83-2.86-6.87-4.79-11.38-5.42-1.06-.15-2.11-.22-3.14-.22Z"/>
    </g>
    <polygon class="st2" points="372.66 325.92 359.89 323.26 360.29 321.3 372.42 323.83 383.54 318.78 384.37 320.6 372.66 325.92"/>
  </g>
  <g>
    <g>
      <path class="st6" d="M274.67,206.34c10.2,41.76-20.92,92.08-20.92,92.08,0,0-98.56,69.51-119.31-.52-20.75-70.03,101.67-197.64,144.36-203.59,16.29-2.27,14.32,8.29,14.32,8.29,9.46,4.93,5.71,10.89,5.71,10.89,6.82,3.31.4,14.65.4,14.65,7.12,12.89-6.79,15.75-10.67,17.99-3.88,2.25-15.36,11.36-15.36,11.36,0,0-9.71,28.87-30.86,29.92,0,0-5.71,25.42-15.04,36.31,0,0,15.9-19.72,47.38-17.38Z"/>
      <path class="st2" d="M174.7,329.63c-5.45,0-10.7-.73-15.56-2.42-12.23-4.25-20.7-14.06-25.18-29.17-5.06-17.08-4.46-47.75,27.14-96.84,16.26-25.26,38.83-51.69,61.91-72.54,22.55-20.36,42.85-33.06,55.72-34.85,6.18-.86,10.55-.01,12.97,2.53,2.11,2.21,2.06,4.99,1.96,5.98,3.42,1.84,5.49,4.04,6.17,6.54.55,2.01.02,3.65-.33,4.43,1.3.75,2.18,1.86,2.63,3.3,1.34,4.31-1.63,10.26-2.33,11.56,1.89,3.52,2.39,6.64,1.48,9.27-1.51,4.39-6.61,6.57-9.99,8.01-1.01.43-1.88.8-2.48,1.15-3.6,2.09-13.99,10.27-15.19,11.23-.78,2.2-10.66,28.76-30.88,30.09-.66,2.86-4.89,20.27-11.76,31.53,6.64-5.68,21.34-15.24,43.73-13.58l.36.03.09.35c10.14,41.49-20.67,91.96-20.98,92.46l-.14.15c-.5.36-44.14,30.8-79.34,30.8ZM283.09,94.49c-1.28,0-2.69.11-4.21.32-27.15,3.79-83.97,55.76-116.93,106.94-31.4,48.77-32.03,79.13-27.03,96.01,4.38,14.78,12.64,24.37,24.55,28.51,35.09,12.18,91.38-26.44,93.91-28.2,1.44-2.38,30.47-51.06,20.89-91.26-28.95-2-44.68,15.03-46.42,17.03-.06.07-.11.14-.17.2l-.77-.64s.06-.07.15-.18c9.06-10.77,14.73-35.67,14.79-35.92l.08-.37.38-.02c20.57-1.02,30.32-29.29,30.41-29.58l.05-.14.12-.09c.47-.37,11.55-9.16,15.42-11.4.65-.38,1.55-.76,2.59-1.21,3.41-1.45,8.07-3.44,9.44-7.41.83-2.41.31-5.34-1.55-8.7l-.14-.24.14-.24c.04-.07,3.73-6.67,2.38-11.02-.42-1.34-1.26-2.3-2.56-2.94l-.5-.24.29-.47s1.09-1.8.45-4.13c-.63-2.28-2.64-4.32-5.97-6.06l-.33-.17.07-.36s.55-3.19-1.66-5.49c-1.62-1.69-4.26-2.54-7.89-2.54Z"/>
    </g>
    <g>
      <path class="st6" d="M263.54,111.91s19.84-12.53,29.59-9.3"/>
      <path class="st2" d="M263.81,112.33l-.53-.85c.82-.52,20.16-12.62,30.01-9.35l-.31.95c-9.41-3.12-28.97,9.13-29.16,9.25Z"/>
    </g>
    <g>
      <path class="st6" d="M262.83,139.77c.1-.57,20.04-14.83,36.4-11.63"/>
      <path class="st2" d="M263.25,140.04l-.29-.24-.62-.11c.03-.19.07-.42,2.12-1.83,1.97-1.36,19.68-13.18,34.87-10.21l-.19.98c-15.79-3.09-35.06,10.41-35.89,11.4Z"/>
    </g>
    <g>
      <path class="st6" d="M262.56,124.37s22.75-14.75,36.27-10.88"/>
      <path class="st2" d="M262.84,124.79l-.54-.84c.06-.04,5.81-3.75,13.14-6.93,9.9-4.3,17.82-5.65,23.54-4l-.28.96c-13.15-3.77-35.64,10.67-35.86,10.81Z"/>
    </g>
    <g>
      <path class="st14" d="M298.37,133.03c3.17-1.17,1.74-5.71-.25-6.19s-6.22-.71-5.88,2.38c.61,5.64,3.76,4.68,6.14,3.81Z"/>
      <path class="st2" d="M295.55,134.19c-.61,0-1.21-.12-1.76-.46-1.14-.7-1.81-2.16-2.06-4.46-.1-.96.17-1.76.81-2.31,1.4-1.23,4.24-.96,5.69-.61,1.29.31,2.38,1.94,2.48,3.69.09,1.62-.72,2.92-2.18,3.45h0c-.78.29-1.89.7-2.99.7ZM295.72,127.06c-.99,0-1.96.17-2.52.66-.39.34-.54.81-.47,1.45.21,1.94.75,3.19,1.59,3.71,1.03.64,2.48.19,3.87-.32,1.42-.52,1.57-1.76,1.53-2.46-.07-1.28-.88-2.58-1.72-2.78-.62-.15-1.46-.27-2.28-.27Z"/>
    </g>
    <g>
      <path class="st14" d="M300.77,120.52c3.94-1.45,2.17-7.11-.31-7.71s-7.75-.89-7.33,2.97c.76,7.03,4.68,5.83,7.64,4.74Z"/>
      <path class="st2" d="M297.24,121.86c-.74,0-1.45-.16-2.11-.57-1.38-.85-2.2-2.64-2.51-5.46-.13-1.17.2-2.1.96-2.78,1.71-1.5,5.19-1.17,6.98-.73,1.56.38,2.88,2.35,3,4.49.12,2-.84,3.52-2.63,4.18h0c-1.23.45-2.5.87-3.7.87ZM297.48,112.95c-1.31,0-2.53.24-3.23.86-.51.45-.72,1.08-.63,1.92.27,2.46.95,4.04,2.04,4.72,1.33.82,3.17.26,4.93-.39h0c1.84-.68,2.03-2.29,1.98-3.18-.1-1.67-1.12-3.3-2.24-3.57-.88-.21-1.89-.35-2.86-.35Z"/>
    </g>
    <g>
      <path class="st14" d="M295.72,109.16c3.94-1.45,2.17-7.11-.31-7.71-2.48-.6-7.75-.89-7.33,2.97.76,7.03,4.68,5.83,7.64,4.74Z"/>
      <path class="st2" d="M292.2,110.49c-.74,0-1.45-.16-2.11-.57-1.38-.85-2.2-2.64-2.51-5.46-.13-1.17.2-2.1.96-2.78,1.71-1.5,5.19-1.17,6.98-.73,1.56.38,2.88,2.35,3,4.49.11,2-.84,3.52-2.63,4.18h0c-1.23.45-2.5.87-3.7.87ZM292.44,101.59c-1.31,0-2.53.24-3.23.86-.51.45-.72,1.08-.63,1.92.27,2.46.95,4.04,2.04,4.72,1.33.83,3.17.26,4.93-.39h0c1.84-.68,2.03-2.28,1.98-3.18-.1-1.67-1.12-3.3-2.24-3.57-.88-.21-1.89-.35-2.86-.35Z"/>
    </g>
    <g>
      <path class="st14" d="M289.63,99.6c2.85-1.05,1.57-5.14-.23-5.57s-5.6-.64-5.3,2.15c.55,5.08,3.38,4.22,5.52,3.43Z"/>
      <path class="st2" d="M287.09,100.69c-.55,0-1.11-.11-1.61-.42-1.04-.64-1.65-1.97-1.88-4.05-.12-1.11.34-1.77.74-2.13,1.57-1.38,4.81-.65,5.17-.56,1.18.29,2.18,1.77,2.27,3.37.09,1.49-.66,2.67-1.99,3.16l-.17-.47.17.47c-.7.26-1.71.63-2.71.63ZM287.24,94.27c-.88,0-1.74.15-2.23.58-.33.29-.47.71-.41,1.27.19,1.73.66,2.84,1.41,3.31.91.56,2.2.16,3.44-.29h0c1.25-.46,1.38-1.55,1.34-2.16-.07-1.13-.77-2.28-1.51-2.46-.56-.14-1.31-.24-2.04-.24Z"/>
    </g>
  </g>
  <g>
    <path class="st6" d="M181.13,276.63s31.64-30.09,46.17-52.91"/>
    <path class="st2" d="M181.47,277l-.69-.72c.32-.3,31.77-30.31,46.09-52.82l.84.54c-14.39,22.61-45.93,52.7-46.24,53Z"/>
  </g>
  <g>
    <g>
      <path class="st14" d="M306.92,731.56s36.57-14.01,50.58-26.46,12.64-33.24-3.89-43.57c-31.12-19.45-58.36-.78-49.02,10.12,9.34,10.89,4.67,14.78-.78,19.45-4.76,4.08-19.45,1.56-19.45,17.12s11.67,24.12,22.56,23.34Z"/>
      <path class="st2" d="M305.54,732.11c-5.22,0-10.37-2.04-14.32-5.72-4.75-4.42-7.36-10.87-7.36-18.17,0-11.32,7.54-13.4,13.6-15.07,2.42-.67,4.7-1.29,6.03-2.43l.09-.08c2.61-2.23,5.07-4.34,5.69-7.09.69-3.07-.92-6.74-5.06-11.58-2.86-3.33-2.61-7.6.67-11.41,6.99-8.12,26.81-13.33,49,.54,7.94,4.96,12.9,12.73,13.63,21.31.72,8.55-2.8,16.96-9.67,23.06-13.91,12.37-50.36,26.41-50.73,26.55l-.14.03c-.47.03-.95.05-1.42.05ZM324.98,653.59c-7.54,0-14.61,2.12-19.35,7.62-2.97,3.45-3.21,7.13-.66,10.1,4.36,5.09,6.04,9.05,5.27,12.45-.69,3.07-3.28,5.29-6.01,7.63l-.1.08c-1.5,1.28-3.89,1.94-6.41,2.64-6.03,1.66-12.86,3.54-12.86,14.1,0,7.02,2.5,13.21,7.04,17.44,4.09,3.81,9.52,5.77,14.91,5.41,1.8-.7,36.86-14.34,50.35-26.34,6.63-5.89,10.03-13.99,9.34-22.23-.7-8.26-5.49-15.75-13.16-20.55-7.27-4.54-18.24-8.36-28.36-8.36Z"/>
    </g>
    <g>
      <path class="st8" d="M306.88,727.93c7.28-14.55-7.48-27.23-15.87-26.46-5.35,5.45-5.95,22.49,15.87,26.46Z"/>
      <path class="st2" d="M307.16,728.49l-.37-.07c-13.29-2.42-17.4-9.47-18.66-13.45-1.86-5.86,0-11.28,2.52-13.84l.13-.13.18-.02c4.86-.45,11.34,3.32,15.07,8.78,2.27,3.31,5.45,10.11,1.3,18.4l-.17.33ZM291.23,701.96c-2.31,2.48-3.78,7.58-2.15,12.71,1.19,3.74,5.04,10.32,17.52,12.7,3.67-7.68.71-13.96-1.4-17.05-3.49-5.11-9.46-8.67-13.96-8.36Z"/>
    </g>
    <path class="st2" d="M348.46,709.12c-7.79-28.81,10.92-40.9,11.11-41.02l.53.85c-.18.12-18.26,11.83-10.68,39.91l-.96.26Z"/>
  </g>
  <g>
    <path class="st4" d="M245.86,653.29v5.28c0,4.39-2.29,8.46-6.05,10.74l-12.28,7.44c-2.81,1.71-6.18,2.24-9.39,1.48l-33.06-7.78c-5.24-1.23-9.11-5.66-9.62-11.02l-.52-5.36c-.42-4.36,1.46-8.63,4.97-11.26l11.52-8.64c3.07-2.3,7.03-3.08,10.74-2.1l34.34,9.06c5.51,1.46,9.36,6.44,9.36,12.14Z"/>
    <path class="st2" d="M221.04,679.08c-1,0-2.01-.12-3.01-.35l-33.06-7.78c-5.45-1.28-9.47-5.88-10.01-11.46l-.52-5.36c-.44-4.5,1.54-8.99,5.16-11.71l11.52-8.64c3.21-2.41,7.28-3.2,11.17-2.18l34.34,9.06c5.73,1.51,9.73,6.7,9.73,12.63v5.28c0,4.54-2.41,8.82-6.29,11.17l-12.28,7.44c-2.07,1.25-4.39,1.9-6.75,1.9ZM198.94,632.16c-2.57,0-5.1.83-7.21,2.42l-11.52,8.64c-3.34,2.51-5.17,6.65-4.77,10.81l.52,5.36c.5,5.14,4.21,9.39,9.24,10.58l33.06,7.78c3.1.73,6.29.22,9.01-1.43l12.28-7.44c3.58-2.17,5.81-6.12,5.81-10.31v-5.28c0-5.47-3.69-10.27-8.98-11.66l-34.34-9.06c-1.03-.27-2.07-.4-3.1-.4Z"/>
  </g>
  <polygon class="st2" points="221.16 657.92 220.96 657.87 183.09 648.92 183.32 647.94 220.99 656.85 236.65 647.32 237.17 648.17 221.16 657.92"/>
  <rect class="st2" x="220.57" y="657.38" width="1" height="15.84"/>
  <path class="st2" d="M199.73,645.49c-3.56,0-6.35-1.88-6.35-4.29s2.79-4.29,6.35-4.29,6.35,1.88,6.35,4.29-2.79,4.29-6.35,4.29ZM199.73,637.91c-2.9,0-5.35,1.5-5.35,3.29s2.45,3.29,5.35,3.29,5.35-1.5,5.35-3.29-2.45-3.29-5.35-3.29Z"/>
  <path class="st2" d="M219.35,650.65c-3.56,0-6.35-1.88-6.35-4.29s2.79-4.29,6.35-4.29,6.35,1.88,6.35,4.29-2.79,4.29-6.35,4.29ZM219.35,643.08c-2.9,0-5.35,1.5-5.35,3.29s2.45,3.29,5.35,3.29,5.35-1.5,5.35-3.29-2.45-3.29-5.35-3.29Z"/>
  <g>
    <path class="st18" d="M286.11,677.97v5.28c0,4.39-2.29,8.46-6.05,10.74l-12.28,7.44c-2.81,1.71-6.18,2.24-9.39,1.48l-33.06-7.78c-5.24-1.23-9.11-5.66-9.62-11.02l-.52-5.36c-.42-4.36,1.46-8.63,4.97-11.26l11.52-8.64c3.07-2.3,7.03-3.08,10.74-2.1l34.34,9.06c5.51,1.46,9.36,6.44,9.36,12.14Z"/>
    <path class="st2" d="M261.29,703.75c-1,0-2.01-.12-3.01-.35l-33.06-7.78c-5.45-1.28-9.47-5.88-10.01-11.46l-.52-5.36c-.44-4.5,1.54-8.99,5.16-11.71l11.52-8.64c3.21-2.41,7.29-3.2,11.17-2.18l34.34,9.06c5.73,1.51,9.73,6.7,9.73,12.63v5.28c0,4.54-2.41,8.82-6.29,11.17l-12.28,7.44c-2.07,1.25-4.39,1.89-6.75,1.89ZM239.18,656.84c-2.57,0-5.09.83-7.21,2.42l-11.52,8.64c-3.34,2.51-5.17,6.65-4.77,10.81l.52,5.36c.5,5.14,4.21,9.39,9.24,10.58l33.06,7.78c3.09.73,6.29.22,9.01-1.43l12.28-7.44c3.58-2.17,5.81-6.12,5.81-10.31v-5.28c0-5.47-3.69-10.26-8.98-11.66l-34.34-9.06c-1.03-.27-2.07-.4-3.1-.4Z"/>
  </g>
  <polygon class="st2" points="261.4 682.59 261.2 682.55 223.34 673.6 223.57 672.62 261.23 681.53 276.9 671.99 277.41 672.85 261.4 682.59"/>
  <rect class="st2" x="260.82" y="682.06" width="1" height="15.84"/>
  <path class="st2" d="M239.98,670.17c-3.56,0-6.35-1.88-6.35-4.29s2.79-4.29,6.35-4.29,6.35,1.88,6.35,4.29-2.79,4.29-6.35,4.29ZM239.98,662.59c-2.9,0-5.35,1.5-5.35,3.29s2.45,3.29,5.35,3.29,5.35-1.5,5.35-3.29-2.45-3.29-5.35-3.29Z"/>
  <path class="st2" d="M259.6,675.33c-3.56,0-6.35-1.88-6.35-4.29s2.79-4.29,6.35-4.29,6.35,1.88,6.35,4.29-2.79,4.29-6.35,4.29ZM259.6,667.76c-2.9,0-5.35,1.5-5.35,3.29s2.45,3.29,5.35,3.29,5.35-1.5,5.35-3.29-2.45-3.29-5.35-3.29Z"/>
</svg>