<?xml version="1.0" encoding="UTF-8"?>
<svg id="Layer_1" xmlns="http://www.w3.org/2000/svg" xmlns:xlink="http://www.w3.org/1999/xlink" version="1.1" viewBox="0 0 618.33 412.19">
  <!-- Generator: Adobe Illustrator 29.8.2, SVG Export Plug-In . SVG Version: 2.1.1 Build 3)  -->
  <defs>
    <style>
      .st0 {
        fill: #ff7fec;
      }

      .st1 {
        fill: none;
      }

      .st2 {
        fill: #0c0907;
      }

      .st3 {
        fill: #6d4524;
      }

      .st4 {
        fill: #271911;
      }

      .st5 {
        fill: #a56d3f;
      }

      .st6 {
        fill: #9ea440;
      }

      .st7 {
        fill: #7a7a7a;
      }

      .st8 {
        fill: #dac796;
      }

      .st9 {
        fill: #c7e5da;
      }

      .st10 {
        clip-path: url(#clippath-1);
      }

      .st11 {
        fill: #fff;
      }

      .st12 {
        fill: #f26a3b;
      }

      .st13 {
        fill: #c6abb2;
      }

      .st14 {
        fill: #ffd664;
      }

      .st15 {
        fill: #2a2520;
      }

      .st16 {
        fill: #f4f471;
      }

      .st17 {
        clip-path: url(#clippath);
      }
    </style>
    <clipPath id="clippath">
      <path class="st1" d="M229.11,382.93s-47.28-22.76-67.41-19.26c0,0,4.38-81.42,87.55-81.42h101.56c59.53,0,73.54,84.92,73.54,84.92,0,0-25.39-9.63-63.03,15.62v-.36h-136.57l4.38.5h-.02Z"/>
    </clipPath>
    <clipPath id="clippath-1">
      <path class="st1" d="M298.35,269.32c15.97-1.24,36.22-8.64,37.79-38.07,2.41-45.04-41.85-55.49-65.07-44.42-18.06,8.61-26.17,22.07-20.86,50.18,5.31,28.12,31.82,33.58,48.14,32.31Z"/>
    </clipPath>
  </defs>
  <path class="st13" d="M343.8,326.9s30.64,21.6,17.51,55.89"/>
  <g>
    <path class="st0" d="M121.67,15.93l11.62,35.76c4.6,14.17,17.81,23.76,32.71,23.76h37.6c4.7,0,6.66,6.02,2.85,8.78l-30.42,22.1c-12.05,8.76-17.1,24.28-12.49,38.45l11.62,35.76c1.45,4.47-3.66,8.19-7.47,5.43l-30.42-22.1c-12.05-8.76-28.37-8.76-40.43,0l-30.42,22.1c-3.8,2.76-8.92-.95-7.47-5.43l11.62-35.76c4.6-14.17-.44-29.69-12.49-38.45l-30.42-22.1c-3.8-2.76-1.85-8.78,2.85-8.78h37.6c14.9,0,28.1-9.59,32.71-23.76l11.62-35.76c1.45-4.47,7.78-4.47,9.23,0h0Z"/>
    <path class="st4" d="M170.53,187.39c-1.1,0-2.19-.35-3.15-1.04l-30.42-22.1c-11.91-8.66-27.92-8.66-39.84,0l-30.42,22.1c-1.91,1.39-4.38,1.39-6.29,0s-2.67-3.74-1.94-5.98l11.62-35.76c4.55-14.01-.4-29.23-12.31-37.89l-30.42-22.1c-1.91-1.39-2.67-3.74-1.94-5.98.73-2.25,2.73-3.7,5.09-3.7h37.6c14.73,0,27.68-9.41,32.23-23.42l11.62-35.76c.73-2.25,2.73-3.7,5.09-3.7s4.36,1.45,5.09,3.7h0l11.62,35.76c4.55,14.01,17.5,23.42,32.23,23.42h37.6c2.36,0,4.36,1.45,5.09,3.7s-.03,4.6-1.94,5.98l-30.42,22.1c-11.91,8.66-16.86,23.88-12.31,37.89l11.62,35.76c.73,2.25-.03,4.6-1.94,5.98-.96.69-2.05,1.04-3.15,1.04h0ZM117.05,156.76c7.19,0,14.37,2.23,20.51,6.68l30.42,22.1c1.55,1.13,3.56,1.13,5.12,0,1.55-1.13,2.18-3.04,1.58-4.87l-11.62-35.76c-4.69-14.42.41-30.09,12.67-39.01l30.42-22.1c1.55-1.13,2.18-3.04,1.58-4.87-.59-1.83-2.22-3.01-4.14-3.01h-37.6c-15.16,0-28.5-9.69-33.18-24.11l-11.62-35.76c-.59-1.83-2.22-3.01-4.14-3.01s-3.55,1.18-4.14,3.01l-11.62,35.76c-4.69,14.42-18.02,24.11-33.18,24.11H30.52c-1.92,0-3.55,1.18-4.14,3.01s.03,3.74,1.58,4.87l30.42,22.1c12.27,8.91,17.36,24.59,12.67,39.01l-11.62,35.76c-.59,1.83.03,3.74,1.58,4.87,1.55,1.13,3.56,1.13,5.12,0l30.42-22.1c6.13-4.46,13.32-6.68,20.51-6.68h-.01Z"/>
  </g>
  <g>
    <path class="st16" d="M524.39,198.03l11.62,35.76c4.6,14.17,17.81,23.76,32.71,23.76h37.6c4.7,0,6.66,6.02,2.85,8.78l-30.42,22.1c-12.05,8.76-17.1,24.28-12.49,38.45l11.62,35.76c1.45,4.47-3.66,8.19-7.47,5.43l-30.42-22.1c-12.05-8.76-28.37-8.76-40.43,0l-30.42,22.1c-3.8,2.76-8.92-.95-7.47-5.43l11.62-35.76c4.6-14.17-.44-29.69-12.49-38.45l-30.42-22.1c-3.8-2.76-1.85-8.78,2.85-8.78h37.6c14.9,0,28.1-9.59,32.71-23.76l11.62-35.76c1.45-4.47,7.78-4.47,9.23,0Z"/>
    <path class="st2" d="M573.25,369.5c-1.1,0-2.19-.35-3.15-1.04l-30.42-22.1c-11.91-8.65-27.92-8.65-39.84,0l-30.42,22.1c-1.91,1.39-4.38,1.39-6.29,0s-2.67-3.74-1.95-5.98l11.62-35.76c4.55-14.01-.4-29.23-12.31-37.89l-30.42-22.1c-1.91-1.39-2.67-3.74-1.94-5.99s2.73-3.7,5.09-3.7h37.6c14.73,0,27.68-9.41,32.23-23.42l11.62-35.76c.73-2.25,2.73-3.7,5.09-3.7s4.36,1.45,5.09,3.7l11.62,35.76c4.55,14.01,17.5,23.42,32.23,23.42h37.6c2.36,0,4.36,1.45,5.09,3.7.73,2.25-.03,4.6-1.95,5.98l-30.42,22.1c-11.92,8.66-16.86,23.88-12.31,37.89l11.62,35.76c.73,2.25-.03,4.6-1.94,5.98-.96.69-2.05,1.04-3.15,1.04h.01ZM519.77,338.86c7.19,0,14.37,2.23,20.51,6.68l30.42,22.1c1.55,1.13,3.56,1.13,5.12,0,1.55-1.13,2.17-3.04,1.58-4.87l-11.62-35.76c-4.69-14.42.41-30.09,12.67-39.01l30.42-22.1c1.55-1.13,2.18-3.04,1.58-4.87s-2.22-3.01-4.14-3.01h-37.6c-15.16,0-28.5-9.69-33.18-24.11l-11.62-35.76c-.59-1.83-2.22-3.01-4.14-3.01s-3.55,1.18-4.14,3.01l-11.62,35.76c-4.69,14.42-18.02,24.11-33.18,24.11h-37.6c-1.92,0-3.55,1.18-4.14,3.01-.59,1.83.03,3.74,1.58,4.87l30.42,22.1c12.27,8.91,17.36,24.59,12.67,39.01l-11.62,35.76c-.59,1.83.03,3.74,1.58,4.87s3.56,1.13,5.12,0l30.42-22.1c6.13-4.46,13.32-6.68,20.51-6.68Z"/>
  </g>
  <g>
    <path class="st14" d="M219.77,364.55s-111.48,35.02-141.24-105.06C48.76,119.41,194.38,37.41,350.8,64.26c156.42,26.85,242.51,232.59,81.42,287.45-161.09,54.86-212.45,12.84-212.45,12.84h0Z"/>
    <path class="st2" d="M288.72,380.4c-8.89,0-16.59-.47-23.19-1.2-30.49-3.37-44.04-12.74-45.86-14.1-3.6,1.05-44.84,12.27-82.67-9.82-29.26-17.09-49.1-49.28-58.96-95.69-11.14-52.42,1.55-99.45,36.69-136.01,24.83-25.82,59.9-45.08,101.42-55.67,41.79-10.67,88.38-12.1,134.73-4.14,43.81,7.52,85.26,29.93,116.71,63.09,29.53,31.14,48.12,69.85,51,106.2,2.06,25.91-3.87,50.1-17.14,69.93-14.75,22.05-37.99,38.6-69.07,49.19-65.07,22.16-111.91,28.22-143.66,28.22h0ZM219.88,363.99l.21.17c.13.1,13.18,10.49,45.69,14.06,30.03,3.29,83.25,1.29,166.28-26.99,30.87-10.51,53.94-26.93,68.56-48.79,13.14-19.65,19.01-43.61,16.97-69.3-2.87-36.13-21.35-74.62-50.73-105.6-31.3-33.01-72.55-55.31-116.15-62.79-46.21-7.93-92.66-6.5-134.31,4.13-41.35,10.55-76.25,29.71-100.95,55.4-34.9,36.31-47.5,83.03-36.44,135.11,9.8,46.12,29.47,78.09,58.47,95.03,39.01,22.79,81.71,9.79,82.13,9.66l.26-.08h.01Z"/>
  </g>
  <g>
    <polygon class="st5" points="361.31 382.79 414.71 382.79 386.7 331.28 361.31 382.79"/>
    <path class="st2" d="M415.55,383.29h-55.05l26.17-53.1,28.88,53.1h0ZM362.11,382.29h51.76l-27.15-49.93-24.61,49.93Z"/>
  </g>
  <g>
    <polygon class="st5" points="190.3 382.79 243.7 382.79 215.69 331.28 190.3 382.79"/>
    <path class="st2" d="M244.54,383.29h-55.05l26.17-53.1,28.88,53.1ZM191.1,382.29h51.76l-27.15-49.93-24.61,49.93Z"/>
  </g>
  <g>
    <path class="st13" d="M229.11,382.93s-47.28-22.76-67.41-19.26c0,0,4.38-81.42,87.55-81.42h101.56c59.53,0,73.54,84.92,73.54,84.92,0,0-25.39-9.63-63.03,15.62v-.36h-136.57l4.38.5h-.02Z"/>
    <path class="st2" d="M232,383.77l-7.32-.84.06-1h1.03c-10.87-4.95-47.21-20.68-63.98-17.77l-.62.11.03-.63c0-.21,1.23-20.71,12.65-40.93,10.55-18.69,32.19-40.96,75.4-40.96h101.56c24.54,0,45.13,14.78,59.54,42.73,10.85,21.06,14.46,42.4,14.49,42.61l.14.86-.81-.31c-.06-.02-6.42-2.37-17.26-1.62-10.01.69-26,4.23-45.32,17.19l-.78.52v-.8h-130.55l1.74.84h0ZM228.16,381.93h133.54c19.24-12.74,35.18-16.23,45.21-16.91,8.91-.6,14.74.8,16.79,1.42-.77-4.1-4.67-22.92-14.26-41.52-9.92-19.24-28.15-42.17-58.64-42.17h-101.56c-42.7,0-64.09,21.98-74.51,40.42-10.2,18.06-12.19,36.34-12.49,39.9,18.83-2.72,58.45,15.34,65.92,18.85h0Z"/>
  </g>
  <g class="st17">
    <g>
      <g>
        <g>
          <circle class="st8" cx="228.24" cy="290.13" r="20.74"/>
          <path class="st2" d="M228.24,311.37c-11.71,0-21.24-9.53-21.24-21.24s9.53-21.24,21.24-21.24,21.24,9.53,21.24,21.24-9.53,21.24-21.24,21.24ZM228.24,269.89c-11.16,0-20.24,9.08-20.24,20.24s9.08,20.24,20.24,20.24,20.24-9.08,20.24-20.24-9.08-20.24-20.24-20.24Z"/>
        </g>
        <g>
          <circle class="st8" cx="261.51" cy="373.3" r="20.74"/>
          <path class="st2" d="M261.5,394.55c-11.71,0-21.24-9.53-21.24-21.24s9.53-21.24,21.24-21.24,21.24,9.53,21.24,21.24-9.53,21.24-21.24,21.24ZM261.5,353.06c-11.16,0-20.24,9.08-20.24,20.24s9.08,20.24,20.24,20.24,20.24-9.08,20.24-20.24-9.08-20.24-20.24-20.24Z"/>
        </g>
        <g>
          <circle class="st8" cx="347.59" cy="324.45" r="20.74"/>
          <path class="st2" d="M347.59,345.69c-11.71,0-21.24-9.53-21.24-21.24s9.53-21.24,21.24-21.24,21.24,9.53,21.24,21.24-9.53,21.24-21.24,21.24ZM347.59,304.2c-11.16,0-20.24,9.08-20.24,20.24s9.08,20.24,20.24,20.24,20.24-9.08,20.24-20.24-9.08-20.24-20.24-20.24Z"/>
        </g>
      </g>
      <path class="st2" d="M361.66,383.29h-131.61l-.12-.33c-10.49-28.12,9.53-50.06,9.73-50.28l.73.68c-.2.21-19.64,21.55-9.65,48.92h130.22c10-27.37-9.45-48.71-9.65-48.92l.73-.68c.2.22,20.22,22.16,9.73,50.28l-.12.33h0Z"/>
    </g>
  </g>
  <path class="st2" d="M232,383.77l-7.32-.84.06-1h1.03c-10.87-4.95-47.21-20.68-63.98-17.77l-.62.11.03-.63c0-.21,1.23-20.71,12.65-40.93,10.55-18.69,32.19-40.96,75.4-40.96h101.56c24.54,0,45.13,14.78,59.54,42.73,10.85,21.06,14.46,42.4,14.49,42.61l.14.86-.81-.31c-.06-.02-6.42-2.37-17.26-1.62-10.01.69-26,4.23-45.32,17.19l-.78.52v-.8h-130.55l1.74.84h0ZM228.16,381.93h133.54c19.24-12.74,35.18-16.23,45.21-16.91,8.91-.6,14.74.8,16.79,1.42-.77-4.1-4.67-22.92-14.26-41.52-9.92-19.24-28.15-42.17-58.64-42.17h-101.56c-42.7,0-64.09,21.98-74.51,40.42-10.2,18.06-12.19,36.34-12.49,39.9,18.83-2.72,58.45,15.34,65.92,18.85h0Z"/>
  <g>
    <path class="st5" d="M272.55,257.74s6.13,21.89-2.63,27.14c-8.75,5.25-12.26,33.27,17.51,33.27s40.71-23.2,31.96-31.96c-8.75-8.75-10.94-38.96-10.94-38.96l-35.89,10.51h-.01Z"/>
    <path class="st2" d="M287.43,318.65c-17,0-22-8.9-23.47-14.2-2.32-8.38,1.14-17.26,5.7-20,8.33-5,2.46-26.36,2.4-26.58l-.13-.48,36.96-10.82.04.62c.02.3,2.28,30.12,10.8,38.64,3.36,3.36,4,8.93,1.68,14.53-3.49,8.43-14.49,18.28-33.99,18.28h.01ZM273.16,258.08c.87,3.34,5.37,22.21-2.98,27.23-4.24,2.55-7.39,11.16-5.26,18.88,1.39,5.03,6.17,13.46,22.51,13.46,19.01,0,29.69-9.51,33.07-17.66,2.2-5.3,1.65-10.33-1.46-13.44-8.19-8.19-10.67-34.19-11.04-38.66l-34.83,10.2h0Z"/>
  </g>
  <g>
    <path class="st2" d="M311.21,266.88c-1.24,7.6-26.85,16.73-37.35-.78,0,0,38.59-6.83,37.35.78Z"/>
    <g>
      <g>
        <path class="st15" d="M307.21,188.38s11.85-.87,12.09-12.04-7.92-8.81-7.92-8.81c0,0,8.75-5.82,1.05-13.73-6.07-6.24-13.61.25-13.61.25,0,0-1.18-12.34-15.19-9.43s-6.33,14.63-6.33,14.63c0,0-10.18-3.61-12.46,5.39s7.99,12.22,7.99,12.22c0,0-5.55,1.24-.62,7.27,10.24,12.52,35.02,4.25,35.02,4.25h-.02Z"/>
        <path class="st2" d="M290.42,191.55c-8.39,0-14.79-2.43-18.62-7.11-1.84-2.25-2.51-4.17-1.98-5.7.32-.93,1.02-1.52,1.65-1.88-2.72-1.22-9.03-4.91-7.14-12.35.65-2.57,1.98-4.4,3.96-5.46,2.81-1.5,6.19-1.03,7.95-.62-.92-1.79-2.38-5.5-1-8.83,1.13-2.73,3.91-4.57,8.27-5.48,4.63-.96,8.39-.4,11.2,1.66,3.1,2.29,4.14,5.76,4.46,7.35,2.06-1.45,8.37-5.08,13.61.3,2.45,2.51,3.55,5.1,3.27,7.68-.27,2.58-1.85,4.55-3.04,5.69,1.13-.02,2.63.22,3.94,1.23,1.97,1.52,2.93,4.31,2.84,8.3-.24,11.05-11.52,12.42-12.49,12.52-.64.21-6.66,2.1-13.74,2.58-1.08.07-2.13.11-3.16.11h.02ZM272.81,159.04c-1.32,0-2.77.22-4.05.9-1.72.92-2.88,2.54-3.46,4.82-2.14,8.43,7.25,11.49,7.65,11.62l1.76.55-1.79.41s-1.7.4-2.15,1.73c-.4,1.16.23,2.8,1.81,4.73,9.91,12.11,34.23,4.18,34.47,4.1l.12-.02s2.92-.23,5.78-1.79c3.78-2.05,5.75-5.34,5.84-9.76.08-3.66-.75-6.18-2.45-7.49-2.08-1.6-4.81-.84-4.83-.83l-3.09.89,2.68-1.79s3.58-2.43,3.96-6.1c.24-2.27-.77-4.59-3-6.87-5.67-5.82-12.63.03-12.93.28l-.73.63-.09-.96s-.51-4.79-4.2-7.5c-2.57-1.89-6.06-2.39-10.39-1.48-4.01.83-6.55,2.48-7.55,4.88-1.67,4.03,1.5,8.94,1.53,8.99l.81,1.24-1.4-.49s-1.98-.68-4.3-.68h0Z"/>
      </g>
      <g>
        <path class="st13" d="M310.74,188.79s3.3-12.11-19.62-12.85c-17.28-.56-19.07,12.89-19.07,12.89l38.69-.04Z"/>
        <path class="st2" d="M271.48,189.33l.08-.57c.02-.14,2.08-13.91,19.58-13.33,9.32.3,15.54,2.48,18.5,6.48,2.52,3.42,1.63,6.85,1.59,7l-.1.37-39.64.04h0ZM290.08,176.42c-13.91,0-16.88,9.44-17.42,11.91l37.67-.04c.14-.91.28-3.38-1.51-5.79-2.73-3.68-8.85-5.77-17.71-6.06-.35,0-.69-.02-1.03-.02h0Z"/>
      </g>
    </g>
    <g>
      <g>
        <path class="st5" d="M258.56,244.44s-13.18,9.45-19.26-4.82,13.32-17.74,17.29-13.89"/>
        <path class="st2" d="M249.49,248.01c-.95,0-1.92-.11-2.88-.38-3.34-.94-5.96-3.56-7.77-7.81-3.18-7.47.63-11.53,3.18-13.28,5-3.43,12.51-3.51,14.92-1.16l-.7.72c-2.09-2.03-9.22-1.77-13.66,1.27-2.81,1.93-5.58,5.58-2.83,12.06,1.68,3.95,4.08,6.39,7.12,7.24,5.49,1.54,11.33-2.59,11.39-2.63l.58.81c-.21.15-4.48,3.17-9.36,3.17h.01Z"/>
      </g>
      <g>
        <path class="st5" d="M253.63,237.46s-5.4-3.45-9.7-2.86"/>
        <path class="st2" d="M253.36,237.88c-.05-.03-5.3-3.34-9.36-2.79l-.13-.99c4.43-.6,9.81,2.79,10.04,2.94l-.54.84h0Z"/>
      </g>
      <g>
        <path class="st11" d="M243.98,248.99c0-2.33.16-8.46,8.04-8.46s7.46,6.54,7.3,10.34-3.66,7.46-9.79,6c-6.13-1.46-5.54-5.54-5.54-7.88h0Z"/>
        <path class="st4" d="M252.2,257.7c-.83,0-1.76-.1-2.78-.35-6.05-1.44-5.98-5.43-5.94-7.81v-.56c0-5.95,2.87-8.96,8.54-8.96,2.58,0,4.55.69,5.85,2.05,2.22,2.32,2.06,6.1,1.95,8.61v.21c-.1,2.1-1.1,4.02-2.76,5.28-1.01.76-2.59,1.53-4.87,1.53h0ZM252.02,241.02c-6.76,0-7.54,4.54-7.54,7.96v.57c-.04,2.35-.1,5.56,5.17,6.82,3.44.82,5.61-.1,6.82-1.01,1.42-1.08,2.28-2.72,2.36-4.52v-.21c.11-2.47.26-5.86-1.67-7.87-1.11-1.16-2.83-1.74-5.13-1.74h0Z"/>
      </g>
    </g>
    <g>
      <g>
        <path class="st5" d="M327.48,244.44s13.18,9.45,19.26-4.82c6.08-14.27-13.32-17.74-17.29-13.89"/>
        <path class="st2" d="M336.55,248.01c-4.88,0-9.14-3.02-9.36-3.17l.58-.81c.06.04,5.91,4.17,11.39,2.63,3.04-.85,5.43-3.29,7.11-7.24,2.76-6.48-.01-10.13-2.83-12.06-4.44-3.04-11.57-3.3-13.66-1.27l-.7-.72c2.41-2.34,9.92-2.27,14.92,1.16,2.55,1.75,6.36,5.8,3.18,13.28-1.81,4.25-4.42,6.87-7.77,7.81-.97.27-1.94.38-2.88.38h.02Z"/>
      </g>
      <g>
        <path class="st11" d="M325.69,248.99c0-2.33.16-8.46,8.04-8.46s7.46,6.54,7.3,10.34c-.16,3.81-3.66,7.46-9.79,6-6.13-1.46-5.54-5.54-5.54-7.88h0Z"/>
        <path class="st4" d="M333.9,257.7c-.83,0-1.76-.1-2.78-.35-6.05-1.44-5.98-5.43-5.94-7.81v-.56c0-5.95,2.87-8.96,8.54-8.96,2.58,0,4.55.69,5.85,2.05,2.22,2.32,2.06,6.1,1.95,8.61v.2c-.1,2.1-1.1,4.02-2.76,5.28-1.01.76-2.59,1.53-4.87,1.53h0ZM333.73,241.02c-6.76,0-7.54,4.54-7.54,7.96v.57c-.04,2.35-.1,5.56,5.17,6.82,3.44.82,5.61-.1,6.82-1.01,1.42-1.08,2.28-2.72,2.36-4.52v-.21c.12-2.47.26-5.86-1.67-7.87-1.11-1.16-2.83-1.74-5.13-1.74h0Z"/>
      </g>
      <g>
        <path class="st5" d="M332.41,237.46s5.4-3.45,9.7-2.86"/>
        <path class="st2" d="M332.68,237.88l-.54-.84c.23-.15,5.6-3.54,10.04-2.94l-.13.99c-4.06-.55-9.31,2.76-9.36,2.79h-.01Z"/>
      </g>
    </g>
    <g>
      <path class="st5" d="M298.35,269.32c15.97-1.24,36.22-8.64,37.79-38.07,2.41-45.04-41.85-55.49-65.07-44.42-18.06,8.61-26.17,22.07-20.86,50.18,5.31,28.12,31.82,33.58,48.14,32.31Z"/>
      <path class="st2" d="M293.74,270c-18.38,0-39.4-8.43-44.02-32.89-4.94-26.14,1.38-41.31,21.14-50.73,14.25-6.8,33.73-5.17,47.37,3.96,9.07,6.07,19.63,18.1,18.41,40.94-1.58,29.51-21.67,37.25-38.25,38.54h0c-1.52.12-3.08.18-4.65.18ZM290.28,183.29c-6.75,0-13.36,1.31-18.99,4-19.52,9.31-25.49,23.69-20.59,49.64,4.89,25.9,28.71,33.38,47.61,31.9h0c16.18-1.26,35.79-8.81,37.33-37.6,1.2-22.37-9.11-34.13-17.97-40.05-7.75-5.18-17.71-7.88-27.39-7.88h0Z"/>
    </g>
    <g class="st10">
      <g>
        <path class="st15" d="M338.96,203.99c-9.36,12.03-17.61,11.4-29.08-2.69,0,0-10.72,8.96-17.38-2.92,0,0-9.04,14.89-20.98,4.28,0,0-7.99,27.59-25.61,9.55-17.62-18.04,11.4-38.52,19.09-40.25s83.32,19.99,73.96,32.03Z"/>
        <path class="st2" d="M257.2,218.83c-3.67,0-7.58-2.1-11.65-6.27-5.21-5.33-6.88-11.31-4.97-17.77,3.53-11.91,18.61-22.04,24.3-23.32,3.54-.79,20.42,3.11,36.86,8.53,9.71,3.2,32.8,11.47,37.6,19.03,1.22,1.92,1.22,3.69,0,5.26h0c-4.57,5.87-8.74,8.63-13.14,8.68-4.98.08-10.19-3.44-16.42-10.98-1.29.96-5.5,3.73-10.05,2.89-2.88-.53-5.32-2.4-7.27-5.56-1.28,1.83-5.16,6.7-10.67,7.53-3.38.51-6.75-.61-10.03-3.33-.96,2.88-4.85,13.15-12.25,15.01-.76.19-1.53.29-2.31.29h0ZM266.11,172.37c-.42,0-.76.03-1.01.08-5.36,1.2-20.19,11.26-23.56,22.63-1.8,6.08-.21,11.73,4.72,16.78,4.67,4.78,9.05,6.71,13,5.72,7.89-1.98,11.73-14.92,11.77-15.06l.22-.76.59.53c3.23,2.87,6.52,4.08,9.8,3.58,6.22-.93,10.38-7.68,10.42-7.75l.44-.73.42.75c1.86,3.31,4.21,5.25,6.99,5.76,4.91.9,9.59-2.95,9.64-2.99l.39-.32.32.39c6.11,7.5,11.14,10.99,15.83,10.99h.11c4.07-.05,7.99-2.68,12.36-8.3h0c.94-1.21.92-2.56-.06-4.11-7.47-11.77-62.46-27.21-72.39-27.21v.02Z"/>
      </g>
    </g>
    <g>
      <path class="st2" d="M284.84,252.25l-.42-.91c9.55-4.46,16.08-.42,16.35-.25l-.54.84c-.06-.04-6.36-3.91-15.39.31h0Z"/>
      <path class="st2" d="M279.31,236.37c-.16,0-.33,0-.51-.02-1.33-.11-2.36-.65-3.06-1.61-1.66-2.26-.83-6.05-.79-6.21l.98.22s-.77,3.5.62,5.4c.53.72,1.29,1.12,2.34,1.2,1.11.09,1.99-.18,2.61-.81,1.44-1.47,1.15-4.4,1.15-4.43l.99-.1c.01.14.34,3.43-1.43,5.23-.73.75-1.71,1.13-2.9,1.13h0Z"/>
      <path class="st2" d="M305.86,236.37c-.16,0-.33,0-.51-.02-1.33-.11-2.36-.65-3.06-1.61-1.66-2.26-.83-6.05-.79-6.21l.98.22s-.77,3.5.62,5.4c.53.72,1.29,1.12,2.34,1.2,1.11.09,1.99-.18,2.6-.81,1.44-1.46,1.15-4.4,1.15-4.43l.99-.1c.01.14.34,3.43-1.43,5.23-.73.75-1.71,1.13-2.9,1.13h.01Z"/>
    </g>
    <ellipse class="st3" cx="268.49" cy="236.96" rx="3.94" ry="5.84" transform="translate(-21.37 447.24) rotate(-77.39)"/>
    <ellipse class="st3" cx="317.92" cy="236.87" rx="3.94" ry="5.84" transform="translate(76.2 551.11) rotate(-89.12)"/>
    <path class="st2" d="M297.05,244.22l-.83-.56s2.28-3.4,1.3-5.68c-.47-1.08-1.63-1.78-3.46-2.07-1.85-.29-3.31.04-4.34.99-2.18,2-1.89,6.13-1.89,6.17l-1,.08c-.01-.19-.33-4.65,2.21-6.98,1.27-1.17,3.01-1.59,5.18-1.25,2.19.35,3.61,1.25,4.22,2.66,1.2,2.79-1.29,6.48-1.39,6.64h0Z"/>
    <path class="st5" d="M279.11,267.39"/>
    <path class="st2" d="M283.95,218.83s-1.54-4.15-9.94-4.99l.1-1c9.1.91,10.72,5.48,10.78,5.67l-.95.32.47-.16-.47.16h.01Z"/>
    <path class="st2" d="M299.97,224.56l-.7-.72c.27-.26,6.65-6.37,10.46-4.11l-.51.86c-2.63-1.55-7.57,2.34-9.26,3.97h.01Z"/>
  </g>
  <g>
    <line class="st1" x1="395.35" y1="382.73" x2="168.41" y2="382.73"/>
    <rect class="st2" x="168.41" y="382.23" width="226.94" height="1"/>
  </g>
  <g>
    <g>
      <path class="st12" d="M371.54,66.65s30.86-24.74,39.75,2.08c11.28,34-51.89,48.21-51.89,48.21,0,0-50.64-40.23-22.26-62.52,24.8-19.48,34.4,12.23,34.4,12.23Z"/>
      <path class="st2" d="M359.27,117.48l-.19-.15c-.08-.06-7.86-6.28-15.54-15.03-7.11-8.11-15.58-20.14-15.55-31.34.02-6.65,2.99-12.35,8.83-16.94,7.24-5.69,13.94-7.62,19.9-5.74,9.48,2.99,14.03,14.55,15.07,17.53,3.08-2.35,17.67-12.78,29.01-9.42,5.09,1.5,8.78,5.6,10.96,12.18,2.3,6.94,1.7,13.6-1.8,19.77-11.36,20.08-50.07,28.99-50.46,29.08l-.23.05h0ZM352.18,48.6c-4.53,0-9.46,2.08-14.73,6.22-5.59,4.39-8.43,9.82-8.45,16.15-.06,20.04,27.94,43.33,30.52,45.43,3.25-.77,38.9-9.66,49.58-28.54,3.35-5.92,3.93-12.3,1.72-18.97-2.07-6.25-5.54-10.13-10.29-11.54-11.98-3.54-28.51,9.55-28.67,9.68l-.58.46-.21-.71c-.04-.14-4.46-14.34-14.64-17.55-1.37-.43-2.78-.65-4.24-.65v.02Z"/>
    </g>
    <polygon class="st2" points="356.12 103.4 358.51 67.52 348.51 91.99 346.98 81.16 316.13 73.62 316.36 72.65 347.87 80.35 348.99 88.2 359.92 61.43 357.35 99.92 367.02 86.2 369.75 94.65 382.7 75.15 380.73 91.39 408.65 98.22 408.41 99.19 379.63 92.15 381.2 79.21 369.43 96.93 366.69 88.42 356.12 103.4"/>
  </g>
  <g>
    <g>
      <g>
        <g>
          <path class="st5" d="M155.63,339.45s-17.51,28.6-12.84,45.52c4.67,16.93,39.32,20.29,53.22.81s-5.25-77.04-5.25-77.04c0,0-3.31-7.98-12.84-9.14-9.53-1.17-18.48,1.75-20.62-.97s-2.72-5.84-3.31-7.59-3.31-8.17-7.59-7.78-4.67,3.11-4.67,3.11c0,0-2.92-3.89-6.42-3.5s-4.67,4.86-4.67,4.86c0,0-1.56-1.56-4.86-1.36-3.31.19-5.25,6.23-5.25,6.23l-.19,5.45s-1.36-2.72-5.25-.97-3.31,14.59.39,20.82,18.29,28.4,58.17,20.04"/>
          <path class="st2" d="M167.74,399.56c-2.33,0-4.6-.2-6.73-.58-9.79-1.73-16.78-6.92-18.7-13.88-1.97-7.13-.39-17.03,4.69-29.43,2.92-7.14,6.22-13.08,7.58-15.42-22.96-.76-34.39-13.44-39.54-22.12-2.82-4.75-3.99-13.53-2.44-18.42.51-1.61,1.28-2.66,2.28-3.11,2.52-1.13,4.11-.53,5,.17l.17-4.34c.08-.26,2.09-6.36,5.7-6.57,2.33-.14,3.86.55,4.64,1.04.51-1.35,1.92-4.21,4.87-4.54,2.83-.31,5.24,1.87,6.3,3.02.5-.96,1.74-2.36,4.8-2.63,5.19-.47,7.99,7.77,8.11,8.12.11.34.23.73.35,1.16.51,1.75,1.2,4.15,2.87,6.28,1.03,1.31,4.27,1.08,8.39.79,3.4-.24,7.62-.53,11.9,0,9.71,1.19,13.21,9.37,13.24,9.45.8,2.39,19.09,58.06,5.2,77.52-6.85,9.6-18.38,13.49-28.67,13.49h-.01ZM155.72,340.28c-2.41,4.11-16.64,29.34-12.44,44.56,1.81,6.57,8.51,11.49,17.91,13.16,11.27,2,26.27-1.1,34.42-12.51,5.6-7.85,6.47-23.56,2.5-45.44-3.01-16.6-7.78-31.01-7.82-31.16-.02-.04-3.31-7.69-12.43-8.81-4.19-.51-8.18-.23-11.71.01-4.58.32-7.89.55-9.24-1.17-1.79-2.28-2.52-4.79-3.05-6.62-.12-.42-.23-.79-.34-1.12-.03-.08-2.68-7.85-7.07-7.44-3.84.35-4.22,2.66-4.22,2.69l-.17,1.19-.72-.96s-2.8-3.66-5.96-3.31c-3.12.35-4.23,4.45-4.24,4.49l-.22.84-.62-.62c-.06-.05-1.46-1.39-4.48-1.22-2.4.14-4.24,4.18-4.79,5.81l-.26,7.34-.88-1.75c-.05-.09-1.22-2.26-4.6-.74-.72.32-1.32,1.19-1.74,2.5-1.45,4.58-.31,13.14,2.35,17.61,5.08,8.55,16.4,21.07,39.26,21.64.03-.05.05-.07.05-.08l.14.08c5.4.12,11.44-.42,18.19-1.84l.21.98c-6.66,1.4-12.65,1.96-18.02,1.87v.02Z"/>
        </g>
        <g>
          <path class="st5" d="M151.65,310.68s-9.34-6.42-9.92-24.32"/>
          <path class="st2" d="M151.37,311.1c-.39-.27-9.55-6.77-10.14-24.71l1-.03c.57,17.4,9.62,23.86,9.71,23.92l-.57.82h0Z"/>
        </g>
        <g>
          <path class="st5" d="M142.7,316.52s-12.84-8.95-12.06-28.79"/>
          <path class="st2" d="M142.41,316.93c-.13-.09-13.06-9.34-12.28-29.22l1,.04c-.4,10.1,2.84,17.27,5.63,21.5,3.02,4.6,6.19,6.84,6.22,6.86l-.57.82Z"/>
        </g>
        <g>
          <path class="st5" d="M135.31,323.52s-14.2-7.98-14.98-25.49"/>
          <path class="st2" d="M135.06,323.96c-.14-.08-14.45-8.32-15.24-25.9l1-.04c.76,17.03,14.59,24.99,14.73,25.07l-.49.87Z"/>
        </g>
      </g>
      <g>
        <path class="st11" d="M142.73,293.34s6.45-1.5,3.96-7.17c-2.5-5.67-6.88-1.29-3.96,7.17Z"/>
        <path class="st4" d="M142.41,293.93l-.15-.43c-1.87-5.41-.89-9.46,1.13-10.25.51-.2,2.3-.6,3.76,2.72.77,1.75.82,3.32.15,4.66-1.21,2.42-4.32,3.17-4.45,3.2l-.44.1h0ZM144.09,284.12c-.12,0-.23.02-.34.06-1.31.51-2.23,3.74-.7,8.54.82-.28,2.59-1.03,3.35-2.55.53-1.06.47-2.34-.17-3.81-.63-1.43-1.42-2.25-2.14-2.25h0Z"/>
      </g>
      <g>
        <path class="st11" d="M131.35,293.63s6.45-1.5,3.96-7.17c-2.5-5.67-6.88-1.29-3.96,7.17Z"/>
        <path class="st4" d="M131.02,294.22l-.15-.43c-1.87-5.41-.89-9.46,1.13-10.25.51-.2,2.3-.6,3.76,2.72.77,1.75.82,3.32.15,4.66-1.21,2.42-4.32,3.17-4.45,3.2l-.44.1h0ZM132.71,284.41c-.12,0-.23.02-.34.06-1.31.51-2.23,3.74-.7,8.54.82-.28,2.59-1.03,3.35-2.55.53-1.06.47-2.34-.17-3.81-.63-1.43-1.42-2.25-2.14-2.25h0Z"/>
      </g>
      <g>
        <path class="st11" d="M112.63,307.32s6.57-.87,4.63-6.75-6.72-1.95-4.63,6.75Z"/>
        <path class="st4" d="M112.25,307.87l-.1-.44c-1.33-5.57.03-9.5,2.12-10.1.53-.15,2.34-.37,3.48,3.07.6,1.82.5,3.38-.3,4.65-1.44,2.29-4.61,2.73-4.74,2.75l-.45.06h-.01ZM114.79,298.27c-.08,0-.17.01-.25.04-1.35.38-2.58,3.51-1.52,8.43.85-.2,2.68-.77,3.58-2.21.63-1.01.7-2.29.2-3.8-.51-1.55-1.26-2.46-2-2.46h-.01Z"/>
      </g>
      <g>
        <path class="st11" d="M120.81,298.38s7.57-.16,6.11-7.09-7.38-3.06-6.11,7.09Z"/>
        <path class="st4" d="M120.37,298.89l-.06-.45c-.81-6.45,1.2-10.72,3.61-11.12.6-.1,2.64-.12,3.48,3.87.45,2.12.14,3.86-.91,5.19-1.9,2.4-5.52,2.5-5.67,2.51h-.45ZM124.28,288.29c-.06,0-.13,0-.19.02-1.62.27-3.45,3.73-2.84,9.54.96-.11,3.22-.52,4.46-2.1.86-1.08,1.1-2.55.71-4.36-.41-1.94-1.22-3.1-2.15-3.1h.01Z"/>
      </g>
    </g>
    <g>
      <g>
        <g>
          <path class="st5" d="M430.12,339.45s17.51,28.6,12.84,45.52c-4.67,16.93-39.32,20.29-53.22.81s5.25-77.04,5.25-77.04c0,0,3.31-7.98,12.84-9.14,9.53-1.17,18.48,1.75,20.62-.97,2.14-2.72,2.72-5.84,3.31-7.59.58-1.75,3.31-8.17,7.59-7.78s4.67,3.11,4.67,3.11c0,0,2.92-3.89,6.42-3.5s4.67,4.86,4.67,4.86c0,0,1.56-1.56,4.86-1.36s5.25,6.23,5.25,6.23l.19,5.45s1.36-2.72,5.25-.97,3.31,14.59-.39,20.82-18.29,28.4-58.17,20.04"/>
          <path class="st2" d="M418.01,399.56c-10.3,0-21.82-3.9-28.67-13.49-13.89-19.46,4.4-75.13,5.19-77.49.05-.12,3.54-8.29,13.25-9.48,4.28-.53,8.51-.23,11.9,0,4.11.29,7.36.51,8.39-.79,1.67-2.13,2.37-4.53,2.88-6.28.12-.43.24-.82.35-1.16.12-.35,2.95-8.6,8.11-8.12,3.05.28,4.3,1.68,4.8,2.63,1.06-1.15,3.46-3.33,6.3-3.02,2.95.33,4.37,3.19,4.87,4.54.78-.49,2.31-1.18,4.63-1.04,3.61.21,5.62,6.31,5.7,6.57l.02.14.15,4.21c.89-.7,2.49-1.31,5-.17,1,.45,1.77,1.5,2.28,3.11,1.54,4.89.38,13.67-2.44,18.42-5.15,8.68-16.58,21.35-39.54,22.12,1.35,2.34,4.66,8.28,7.58,15.42,5.08,12.4,6.66,22.3,4.69,29.43-1.92,6.96-8.91,12.14-18.7,13.88-2.13.38-4.4.58-6.73.58h0ZM412.96,299.8c-1.64,0-3.34.08-5.06.29-9.12,1.12-12.41,8.76-12.44,8.84-.04.11-4.8,14.52-7.81,31.12-3.96,21.87-3.1,37.58,2.5,45.44,8.14,11.41,23.15,14.51,34.42,12.51,9.4-1.67,16.1-6.58,17.91-13.16,4.2-15.22-10.03-40.45-12.44-44.56-5.38.09-11.36-.48-18.02-1.87l.21-.98c6.75,1.42,12.8,1.96,18.19,1.84l.14-.08s.02.03.05.08c22.87-.57,34.18-13.09,39.26-21.64,2.65-4.47,3.8-13.03,2.35-17.61-.41-1.31-1.01-2.17-1.74-2.5-3.38-1.52-4.55.65-4.6.74l-.88,1.69-.26-7.28c-.54-1.63-2.39-5.67-4.79-5.81-3.02-.18-4.42,1.16-4.48,1.22l-.61.6-.22-.83s-1.13-4.15-4.24-4.49c-3.15-.36-5.94,3.27-5.97,3.31l-.72.96-.17-1.19c-.01-.09-.42-2.34-4.22-2.69-4.43-.41-7.04,7.36-7.07,7.44-.11.33-.22.71-.34,1.12-.53,1.83-1.26,4.34-3.05,6.62-1.35,1.72-4.66,1.49-9.24,1.17-2.07-.14-4.31-.3-6.65-.3h-.01Z"/>
        </g>
        <g>
          <path class="st5" d="M434.1,310.68s9.34-6.42,9.92-24.32"/>
          <path class="st2" d="M434.38,311.1l-.57-.82c.09-.06,9.14-6.52,9.71-23.92l1,.03c-.58,17.94-9.75,24.45-10.14,24.71h0Z"/>
        </g>
        <g>
          <path class="st5" d="M443.05,316.52s12.84-8.95,12.06-28.79"/>
          <path class="st2" d="M443.33,316.93l-.57-.82s3.19-2.26,6.22-6.86c2.79-4.24,6.03-11.41,5.63-21.5l1-.04c.78,19.89-12.15,29.13-12.28,29.22Z"/>
        </g>
        <g>
          <path class="st5" d="M450.44,323.52s14.2-7.98,14.98-25.49"/>
          <path class="st2" d="M450.69,323.96l-.49-.87c.14-.08,13.97-8.06,14.73-25.07l1,.04c-.78,17.58-15.09,25.82-15.23,25.9h-.01Z"/>
        </g>
      </g>
      <g>
        <path class="st11" d="M443.02,293.34s-6.45-1.5-3.96-7.17c2.5-5.67,6.88-1.29,3.96,7.17Z"/>
        <path class="st4" d="M443.34,293.93l-.44-.1c-.13-.03-3.24-.78-4.45-3.2-.67-1.34-.62-2.91.15-4.66,1.46-3.32,3.25-2.92,3.76-2.72,2.02.79,2.99,4.84,1.13,10.25l-.15.43h0ZM441.66,284.12c-.72,0-1.51.82-2.14,2.25-.64,1.46-.7,2.74-.17,3.81.76,1.52,2.53,2.27,3.35,2.55,1.53-4.8.61-8.03-.7-8.54-.11-.04-.22-.06-.34-.06h0Z"/>
      </g>
      <g>
        <path class="st11" d="M454.4,293.63s-6.45-1.5-3.96-7.17c2.5-5.67,6.88-1.29,3.96,7.17Z"/>
        <path class="st4" d="M454.72,294.22l-.44-.1c-.13-.03-3.24-.78-4.45-3.2-.67-1.34-.62-2.91.15-4.66,1.46-3.32,3.24-2.92,3.76-2.72,2.02.79,2.99,4.84,1.13,10.25l-.15.43h0ZM453.04,284.41c-.72,0-1.51.82-2.14,2.25-.64,1.46-.7,2.74-.17,3.81.76,1.52,2.53,2.27,3.35,2.55,1.53-4.8.61-8.03-.7-8.54-.11-.04-.22-.06-.34-.06h0Z"/>
      </g>
      <g>
        <path class="st11" d="M473.12,307.32s-6.57-.87-4.63-6.75,6.72-1.95,4.63,6.75Z"/>
        <path class="st4" d="M473.5,307.87l-.45-.06c-.13-.02-3.3-.46-4.74-2.75-.8-1.27-.9-2.84-.3-4.65,1.13-3.44,2.95-3.22,3.48-3.07,2.09.59,3.45,4.53,2.12,10.1l-.1.44h-.01ZM470.96,298.27c-.74,0-1.49.91-2,2.46-.5,1.52-.43,2.8.2,3.81.9,1.44,2.73,2.01,3.58,2.21,1.06-4.92-.17-8.05-1.52-8.44-.08-.02-.17-.04-.25-.04h-.01Z"/>
      </g>
      <g>
        <path class="st11" d="M464.94,298.38s-7.57-.16-6.11-7.09c1.46-6.93,7.38-3.06,6.11,7.09Z"/>
        <path class="st4" d="M465.38,298.89h-.45c-.15-.01-3.77-.12-5.67-2.52-1.05-1.33-1.36-3.07-.91-5.19.84-3.99,2.88-3.97,3.48-3.87,2.41.41,4.42,4.68,3.61,11.12l-.06.45h0ZM461.47,288.29c-.93,0-1.74,1.16-2.15,3.1-.38,1.81-.14,3.27.71,4.36,1.25,1.58,3.5,1.99,4.46,2.1.61-5.81-1.22-9.27-2.84-9.54-.06-.01-.13-.02-.19-.02h.01Z"/>
      </g>
    </g>
  </g>
  <g>
    <g>
      <path class="st9" d="M438.05,159.9l-41.73,36.58c-2.53,2.22-6.37,1.96-8.59-.56l-20.88-23.81c-2.22-2.53-1.96-6.37.56-8.59l41.54-36.41c1.61-1.41,3.85-1.86,5.88-1.17l6.85,2.32,17.52,19.98.84,6.37c.26,1.99-.49,3.98-2,5.3h.01Z"/>
      <path class="st2" d="M392.31,198.49c-1.83,0-3.66-.76-4.96-2.24l-20.88-23.81c-1.16-1.32-1.73-3.02-1.62-4.77.12-1.75.91-3.36,2.23-4.52l41.54-36.41c1.74-1.53,4.18-2.01,6.37-1.27l6.98,2.36,17.7,20.2.86,6.53c.28,2.16-.53,4.3-2.16,5.74h0l-41.73,36.58c-1.25,1.09-2.79,1.63-4.34,1.63v-.02ZM412.92,126.12c-1.32,0-2.62.47-3.64,1.36l-41.54,36.41c-1.12.98-1.79,2.34-1.89,3.83s.39,2.93,1.37,4.05l20.88,23.81c2.03,2.31,5.56,2.55,7.88.52l41.73-36.58c1.39-1.21,2.07-3.03,1.83-4.86l-.81-6.22-17.33-19.77-6.72-2.27c-.57-.19-1.17-.29-1.76-.29h0Z"/>
    </g>
    <g>
      <rect class="st9" x="428.91" y="120.9" width="6.33" height="30.2" rx="3.05" ry="3.05" transform="translate(17.52 318.56) rotate(-41.24)"/>
      <path class="st2" d="M439.91,148.69c-.99,0-1.97-.41-2.68-1.21l-15.88-18.12c-1.29-1.47-1.14-3.72.33-5.02l.17-.15c1.47-1.29,3.72-1.14,5.02.33l15.88,18.12c.63.71.94,1.63.87,2.58-.06.95-.49,1.81-1.2,2.44l-.17.15c-.67.59-1.51.88-2.34.88h0ZM437.99,146.82c.93,1.06,2.55,1.17,3.6.24l.17-.15c.51-.45.82-1.07.86-1.75.04-.68-.18-1.34-.63-1.85l-15.88-18.12c-.93-1.06-2.54-1.17-3.61-.24l-.17.15c-1.06.93-1.17,2.55-.24,3.6l15.88,18.12h.02Z"/>
    </g>
    <g>
      <rect class="st12" x="431.42" y="114.74" width="9.66" height="36.51" rx="4.66" ry="4.66" transform="translate(20.54 320.57) rotate(-41.24)"/>
      <path class="st2" d="M445.06,148.5c-.12,0-.23,0-.35,0-1.38-.09-2.63-.71-3.54-1.75l-17.92-20.44c-.91-1.04-1.36-2.36-1.27-3.74s.71-2.63,1.75-3.54l.26-.22c2.14-1.88,5.41-1.66,7.28.48l17.92,20.44c1.88,2.14,1.66,5.41-.48,7.28l-.25.22c-.95.83-2.14,1.28-3.39,1.28h0ZM427.39,118.51c-.97,0-1.95.34-2.74,1.03l-.26.22c-.83.73-1.34,1.75-1.41,2.85-.07,1.11.29,2.18,1.02,3.02l17.92,20.44c.73.84,1.75,1.34,2.86,1.41,1.11.08,2.18-.29,3.01-1.02l.25-.22c1.73-1.51,1.9-4.15.39-5.87l-17.92-20.44c-.82-.94-1.97-1.42-3.13-1.42h.01Z"/>
    </g>
    <g>
      <path class="st11" d="M380.98,151.63s10.15,21.55,29.65,31.98l19.6-17.18c-19.51-10.43-29.65-31.98-29.65-31.98l-19.6,17.18Z"/>
      <path class="st2" d="M410.7,184.22l-.3-.16c-19.43-10.39-29.77-31.99-29.87-32.21l-.16-.34,20.38-17.86.28.6c.1.21,10.31,21.52,29.44,31.75l.64.34-20.4,17.88h-.01ZM381.59,151.76c1.38,2.76,11.35,21.68,28.97,31.25l18.8-16.48c-17.23-9.52-27.15-27.76-28.94-31.27l-18.82,16.5h0Z"/>
    </g>
    <g>
      <path class="st9" d="M412.43,127.3s8.36,19.88,25.53,29.12"/>
      <path class="st2" d="M437.72,156.86c-17.13-9.22-25.67-29.17-25.75-29.37l.92-.39c.08.2,8.49,19.83,25.3,28.87l-.47.88h0Z"/>
    </g>
  </g>
  <g>
    <g>
      <circle class="st6" cx="159.07" cy="217.9" r="53.84"/>
      <path class="st2" d="M159.07,272.25c-29.96,0-54.34-24.38-54.34-54.34s24.38-54.34,54.34-54.34,54.34,24.38,54.34,54.34-24.38,54.34-54.34,54.34ZM159.07,164.56c-29.41,0-53.34,23.93-53.34,53.34s23.93,53.34,53.34,53.34,53.34-23.93,53.34-53.34-23.93-53.34-53.34-53.34Z"/>
    </g>
    <g>
      <circle class="st11" cx="159.07" cy="217.9" r="42.16"/>
      <path class="st2" d="M159.07,260.56c-23.52,0-42.66-19.14-42.66-42.66s19.14-42.66,42.66-42.66,42.66,19.14,42.66,42.66-19.14,42.66-42.66,42.66ZM159.07,176.25c-22.97,0-41.66,18.69-41.66,41.66s18.69,41.66,41.66,41.66,41.66-18.69,41.66-41.66-18.69-41.66-41.66-41.66Z"/>
    </g>
    <g>
      <polyline class="st11" points="181.14 217.9 159.07 217.9 139.66 194.07"/>
      <polygon class="st2" points="181.14 218.9 158.6 218.9 138.88 194.7 140.43 193.44 159.55 216.9 181.14 216.9 181.14 218.9"/>
    </g>
    <g>
      <circle class="st2" cx="159.07" cy="217.9" r="6.18"/>
      <path d="M159.07,224.58c-3.68,0-6.68-3-6.68-6.68s3-6.68,6.68-6.68,6.68,3,6.68,6.68-3,6.68-6.68,6.68ZM159.07,212.22c-3.13,0-5.68,2.55-5.68,5.68s2.55,5.68,5.68,5.68,5.68-2.55,5.68-5.68-2.55-5.68-5.68-5.68Z"/>
    </g>
  </g>
  <g>
    <g>
      <path class="st9" d="M468.04,230.9l-93.48,20.23c-2.61.57-5.13-.84-5.63-3.13h0c-.5-2.3,1.22-4.62,3.83-5.18l93.48-20.23c2.61-.57,5.13.84,5.63,3.13h0c.5,2.3-1.22,4.62-3.83,5.18Z"/>
      <path class="st2" d="M373.41,251.75c-2.39,0-4.49-1.47-4.96-3.65-.27-1.25.03-2.55.84-3.64.8-1.08,2-1.83,3.38-2.13l93.48-20.23c2.87-.62,5.67.96,6.22,3.52.27,1.25-.03,2.55-.84,3.64-.8,1.08-2,1.83-3.38,2.13l-93.48,20.23c-.42.09-.85.14-1.26.14h0ZM467.4,222.96c-.35,0-.7.04-1.05.11l-93.48,20.23c-1.14.25-2.13.87-2.79,1.75-.64.86-.87,1.87-.66,2.84.44,2.02,2.7,3.26,5.04,2.75l93.48-20.23c1.14-.25,2.13-.87,2.79-1.75.64-.86.87-1.87.66-2.84-.37-1.72-2.05-2.86-3.98-2.86h-.01Z"/>
    </g>
    <g>
      <g>
        <rect class="st7" x="387.09" y="214.43" width="17.6" height="55.45" rx="8.49" ry="8.49" transform="translate(-42.26 89.21) rotate(-12.21)"/>
        <path class="st2" d="M399.65,270.01c-4.14,0-7.88-2.88-8.79-7.09l-8.13-37.59c-.51-2.35-.07-4.75,1.23-6.77,1.3-2.02,3.31-3.41,5.66-3.92l.61-.13c4.84-1.05,9.64,2.04,10.69,6.89l8.13,37.59c.51,2.35.07,4.75-1.23,6.77-1.3,2.02-3.31,3.41-5.66,3.92l-.61.13c-.64.14-1.28.2-1.9.2h0ZM392.13,215.31c-.56,0-1.12.06-1.69.18l-.61.13c-2.09.45-3.87,1.69-5.03,3.48s-1.54,3.93-1.09,6.02l8.13,37.59c.93,4.31,5.2,7.05,9.5,6.12l.61-.13c2.09-.45,3.87-1.69,5.03-3.48s1.54-3.93,1.09-6.02l-8.13-37.59c-.81-3.74-4.13-6.3-7.81-6.3h0Z"/>
      </g>
      <g>
        <path class="st7" d="M377.28,226.92h0c3.33-.72,6.6,1.39,7.32,4.72l5.6,25.89c.72,3.33-1.39,6.6-4.72,7.32h0c-3.33.72-6.6-1.39-7.32-4.72l-5.6-25.89c-.72-3.33,1.39-6.6,4.72-7.32Z"/>
        <path class="st2" d="M384.18,265.51c-1.26,0-2.5-.36-3.59-1.06-1.5-.96-2.53-2.45-2.9-4.19l-5.6-25.89c-.38-1.74-.05-3.52.91-5.02s2.45-2.53,4.19-2.9c1.74-.38,3.52-.05,5.02.91s2.53,2.45,2.9,4.19l5.6,25.89c.78,3.59-1.51,7.14-5.1,7.92-.47.1-.95.15-1.42.15h0ZM378.6,227.29c-.4,0-.81.04-1.21.13-1.48.32-2.74,1.2-3.56,2.47s-1.09,2.79-.77,4.26l5.6,25.89c.32,1.48,1.2,2.74,2.47,3.56s2.79,1.09,4.26.77c3.05-.66,5-3.68,4.34-6.73l-5.6-25.89c-.32-1.48-1.2-2.74-2.47-3.56-.92-.6-1.98-.9-3.05-.9h-.01Z"/>
      </g>
    </g>
    <g>
      <g>
        <rect class="st7" x="436.41" y="203.78" width="17.6" height="55.45" rx="8.49" ry="8.49" transform="translate(-38.89 99.4) rotate(-12.21)"/>
        <path class="st2" d="M448.97,259.34c-4.14,0-7.88-2.88-8.79-7.09l-8.13-37.59c-.51-2.35-.07-4.75,1.23-6.77,1.3-2.02,3.31-3.41,5.66-3.92l.61-.13c4.84-1.05,9.64,2.04,10.69,6.89l8.13,37.59c.51,2.35.07,4.75-1.23,6.77-1.3,2.02-3.31,3.41-5.66,3.92l-.61.13c-.64.14-1.28.2-1.9.2h0ZM441.45,204.63c-.56,0-1.12.06-1.69.18l-.61.13c-2.09.45-3.87,1.69-5.03,3.48s-1.54,3.93-1.09,6.02l8.13,37.59c.93,4.31,5.19,7.05,9.5,6.12l.61-.13c2.09-.45,3.87-1.69,5.03-3.48s1.54-3.93,1.09-6.02l-8.13-37.59c-.81-3.74-4.13-6.3-7.81-6.3h0Z"/>
      </g>
      <g>
        <path class="st7" d="M455.86,209.92h0c3.33-.72,6.6,1.39,7.32,4.72l5.6,25.89c.72,3.33-1.39,6.6-4.72,7.32h0c-3.33.72-6.6-1.39-7.32-4.72l-5.6-25.89c-.72-3.33,1.39-6.6,4.72-7.32Z"/>
        <path class="st2" d="M462.76,248.5c-3.07,0-5.83-2.14-6.51-5.25l-5.6-25.89c-.38-1.74-.05-3.52.91-5.02s2.45-2.53,4.19-2.9c1.74-.38,3.52-.05,5.02.91s2.53,2.45,2.9,4.19l5.6,25.89c.38,1.74.05,3.52-.91,5.02s-2.45,2.53-4.19,2.9h0c-.47.1-.94.15-1.41.15h0ZM457.17,210.29c-.4,0-.81.04-1.21.13-1.48.32-2.74,1.2-3.56,2.47s-1.09,2.79-.77,4.26l5.6,25.89c.32,1.48,1.2,2.74,2.47,3.56,1.27.82,2.79,1.09,4.26.77h0c1.48-.32,2.74-1.2,3.56-2.47s1.09-2.79.77-4.26l-5.6-25.89c-.32-1.48-1.2-2.74-2.47-3.56-.92-.6-1.98-.9-3.05-.9h0Z"/>
      </g>
    </g>
  </g>
  <g>
    <line class="st1" x1="160.82" y1="153.26" x2="160.82" y2="120.58"/>
    <rect class="st2" x="160.32" y="120.58" width="1" height="32.68"/>
  </g>
  <g>
    <line class="st1" x1="184.17" y1="157.93" x2="239.62" y2="73.89"/>
    <rect class="st2" x="161.55" y="115.4" width="100.69" height="1" transform="translate(-1.53 228.96) rotate(-56.59)"/>
  </g>
  <g>
    <line class="st1" x1="143.9" y1="155.01" x2="104.79" y2="95.48"/>
    <rect class="st2" x="123.85" y="89.62" width="1" height="71.23" transform="translate(-48.34 88.83) rotate(-33.3)"/>
  </g>
</svg>