<?xml version="1.0" encoding="UTF-8"?>
<svg id="Layer_1" xmlns="http://www.w3.org/2000/svg" version="1.1" viewBox="0 0 517.81 661.37">
  <!-- Generator: Adobe Illustrator 29.8.2, SVG Export Plug-In . SVG Version: 2.1.1 Build 3)  -->
  <defs>
    <style>
      .st0 {
        fill: #0c0907;
      }

      .st1 {
        fill: #6d4524;
      }

      .st2 {
        fill: #e7cda9;
      }

      .st3 {
        fill: #c4c65c;
      }

      .st4 {
        fill: #889594;
      }

      .st5 {
        fill: #271911;
      }

      .st6 {
        fill: #a56d3f;
      }

      .st7 {
        fill: #9ea440;
      }

      .st8 {
        fill: #c68d52;
      }

      .st9 {
        fill: #fc85ff;
      }

      .st10 {
        fill: #edb2be;
      }

      .st11 {
        fill: #ffcb70;
      }

      .st12 {
        fill: #c7e5da;
      }

      .st13 {
        fill: #fff;
      }

      .st14 {
        fill: #f26a3b;
      }

      .st15 {
        fill: #8b9a9f;
      }

      .st16 {
        fill: #2a2520;
      }

      .st17 {
        fill: #e29f3e;
      }

      .st18 {
        fill: #f4f471;
      }
    </style>
  </defs>
  <g>
    <path class="st18" d="M428.66,338.93l9.08,27.94c4.6,14.17,17.81,23.76,32.71,23.76h29.37c4.7,0,6.66,6.02,2.85,8.78l-23.76,17.27c-12.05,8.76-17.1,24.28-12.49,38.45l9.08,27.94c1.45,4.47-3.66,8.19-7.47,5.43l-23.76-17.27c-12.05-8.76-28.37-8.76-40.43,0l-23.76,17.27c-3.8,2.76-8.92-.95-7.47-5.43l9.08-27.94c4.6-14.17-.44-29.69-12.49-38.45l-23.76-17.27c-3.8-2.76-1.85-8.78,2.85-8.78h29.37c14.9,0,28.1-9.59,32.71-23.76l9.08-27.94c1.45-4.47,7.78-4.47,9.23,0Z"/>
    <path class="st0" d="M470.87,489.93c-1.1,0-2.19-.35-3.15-1.04l-23.76-17.27c-11.91-8.66-27.92-8.66-39.84,0l-23.76,17.27c-1.91,1.39-4.38,1.39-6.29,0-1.91-1.39-2.67-3.74-1.94-5.98l9.08-27.94c4.55-14.01-.4-29.23-12.31-37.89l-23.76-17.27c-1.91-1.39-2.67-3.74-1.94-5.98.73-2.25,2.73-3.7,5.09-3.7h29.37c14.73,0,27.68-9.41,32.23-23.42l9.08-27.94c.73-2.25,2.73-3.7,5.09-3.7s4.36,1.45,5.09,3.7l9.08,27.94c4.55,14.01,17.5,23.42,32.23,23.42h29.37c2.36,0,4.36,1.45,5.09,3.7.73,2.25-.03,4.6-1.94,5.98l-23.76,17.27c-11.92,8.66-16.86,23.88-12.31,37.89l9.08,27.94c.73,2.25-.03,4.59-1.94,5.98-.96.7-2.05,1.04-3.15,1.04ZM424.04,464.13c7.19,0,14.37,2.23,20.51,6.68l23.76,17.27c1.55,1.13,3.56,1.13,5.12,0,1.55-1.13,2.17-3.04,1.58-4.87l-9.08-27.94c-4.69-14.42.41-30.09,12.67-39.01l23.76-17.27c1.55-1.13,2.17-3.04,1.58-4.87s-2.22-3.01-4.14-3.01h-29.37c-15.16,0-28.5-9.69-33.18-24.11l-9.08-27.94c-.59-1.83-2.22-3.01-4.14-3.01s-3.55,1.18-4.14,3.01l-9.08,27.94c-4.69,14.42-18.02,24.11-33.18,24.11h-29.37c-1.92,0-3.55,1.18-4.14,3.01s.03,3.74,1.58,4.87l23.76,17.27c12.27,8.91,17.36,24.59,12.67,39.01l-9.08,27.94c-.59,1.83.03,3.74,1.58,4.87,1.55,1.13,3.56,1.13,5.12,0l23.76-17.27c6.13-4.46,13.32-6.68,20.51-6.68Z"/>
  </g>
  <g>
    <path class="st2" d="M253.48,491.3c-91.02,0-199.99,24.79-199.99,54.85s134.27,105.03,298.96,88.17c218.8-22.4,89.5-109.79,22.44-127.83-67.07-18.04-30.39-15.2-121.41-15.2Z"/>
    <path class="st0" d="M304.82,637.24c-110.4,0-203.17-38.36-238.24-70.03-8.89-8.02-13.59-15.31-13.59-21.07,0-30.66,109.68-55.35,200.49-55.35,12.92,0,23.33-.06,31.69-.1q37.32-.21,57.1,5.86c7.27,2.23,17.23,5.29,32.75,9.46,21.41,5.76,46.61,17.66,65.77,31.07,29.55,20.68,34.78,37,33.97,47.06-.95,11.78-10.58,21.93-28.64,30.17-20.5,9.35-52,16.25-93.62,20.51-16.17,1.66-32.11,2.42-47.69,2.42ZM300.08,491.64c-4.2,0-9.1.03-14.9.06-8.37.05-18.78.1-31.7.1-44.71,0-94.8,6.03-134,16.13-41.62,10.73-65.49,24.66-65.49,38.21,0,5.47,4.58,12.49,13.26,20.32,39.88,36.01,154.71,80.7,285.15,67.35,53.98-5.53,118.85-18.64,121.36-49.76,2.43-30.15-57.01-65.79-99-77.09-15.53-4.18-25.5-7.23-32.78-9.47-16.57-5.08-19.15-5.87-41.9-5.87Z"/>
  </g>
  <g>
    <g>
      <path class="st3" d="M180.63,536.47s-9.08,8.71.38,16.27c9.46,7.57,29.9,8.33,37.47,11.73,7.57,3.41,23.47,6.43,35.96,2.27s29.9-10.6,11.73-27.25c-18.17-16.65-85.54-3.03-85.54-3.03Z"/>
      <path class="st0" d="M240.75,569.28c-9.11,0-17.77-2.23-22.48-4.34-2.72-1.22-7.13-2.1-12.23-3.11-8.58-1.7-19.26-3.82-25.35-8.69-2.85-2.28-4.36-4.89-4.48-7.77-.23-5.07,3.9-9.09,4.07-9.25l.1-.1.14-.03c.17-.03,17.09-3.43,36.02-4.74,25.51-1.77,42.31.89,49.95,7.89,6.19,5.67,8.75,10.53,7.83,14.86-1.41,6.61-10.53,10.16-19.74,13.24-4.42,1.47-9.19,2.05-13.84,2.05ZM180.87,536.93c-.61.63-3.86,4.19-3.67,8.39.12,2.58,1.5,4.94,4.11,7.03,5.9,4.72,16.45,6.81,24.92,8.49,5.16,1.02,9.62,1.91,12.44,3.18,6.97,3.14,22.79,6.52,35.59,2.25,6.61-2.2,17.67-5.89,19.08-12.5.83-3.89-1.7-8.57-7.53-13.91-17.37-15.92-81.41-3.63-84.95-2.94Z"/>
    </g>
    <g>
      <g>
        <path class="st6" d="M191.22,466.32s-7.69,53.63-8.95,56.4c-1.26,2.78-12.62,18.67,5.3,24.98,17.91,6.31,44.91,14.63,48.95,14.63s10.85,3.03,14.38-3.03c0,0,9.08,1.51,9.08-3.78,0,0,4.29,1.77,7.57-2.52,0,0,6.31-1.26,5.05-7.57-1.26-6.31-12.36-12.87-18.67-14.89-6.31-2.02-29.62-9.62-29.87-15.17s9.53-56.91,9.53-56.91l-42.37,7.86Z"/>
        <path class="st0" d="M243.92,563.59c-1.46,0-2.93-.22-4.28-.42-1.14-.17-2.22-.33-3.12-.33-4.34,0-32.35-8.76-49.12-14.66-5.04-1.77-8.27-4.48-9.62-8.03-2.33-6.17,1.67-13.34,3.37-16.4.3-.53.53-.95.66-1.23.97-2.14,6.25-37.74,8.91-56.27l.05-.35,43.44-8.06-.14.72c-.1.51-9.77,51.36-9.52,56.79.15,3.4,10.92,8.77,29.52,14.72,5.76,1.84,17.64,8.42,19.01,15.27.7,3.51-.83,5.55-2.23,6.64-1.22.95-2.54,1.35-3.02,1.47-2.68,3.38-6.02,3.06-7.4,2.73-.13.95-.57,1.74-1.29,2.35-2.26,1.91-6.72,1.49-7.99,1.32-1.88,2.99-4.54,3.75-7.24,3.75ZM191.66,466.74c-.73,5.07-7.7,53.46-8.94,56.18-.13.3-.38.74-.69,1.3-1.64,2.94-5.48,9.82-3.31,15.56,1.24,3.27,4.27,5.77,9.02,7.45,18.28,6.44,44.92,14.61,48.78,14.61.98,0,2.09.17,3.27.35,3.82.57,8.14,1.22,10.68-3.12l.17-.3.34.06c.05,0,5.28.85,7.52-1.05.66-.56.98-1.29.98-2.24v-.74l.69.28c.16.06,3.99,1.55,6.98-2.36l.11-.15.18-.04c.24-.05,5.8-1.25,4.65-6.98-1.23-6.15-12.42-12.62-18.33-14.51-13.66-4.37-29.99-10.63-30.22-15.63-.24-5.25,8.17-49.81,9.4-56.3l-41.3,7.66Z"/>
      </g>
      <path class="st0" d="M251.38,559.42l-.97-.23c.74-3.09.31-5.71-1.3-7.78-4.1-5.28-14.52-5.48-14.62-5.48v-1c.46,0,11.01.21,15.41,5.87,1.8,2.32,2.3,5.22,1.48,8.63Z"/>
      <path class="st0" d="M260.46,556.16l-.96-.27c2.61-9.5-11.63-13.98-11.78-14.02l.29-.96c.16.05,3.84,1.19,7.24,3.6,4.6,3.27,6.4,7.29,5.21,11.64Z"/>
      <path class="st0" d="M267.78,553.38l-.96-.27c2.61-9.51-11.63-13.98-11.78-14.02l.29-.96c.15.05,3.84,1.19,7.24,3.6,4.6,3.27,6.4,7.29,5.21,11.64Z"/>
      <g>
        <path class="st12" d="M247.93,549.75c-2.99-1.72-6.34,1.73-4.42,4.58.03.04.06.08.09.13,2.96,4.22,8.97,4.88,9.13.93.1-2.34-2.59-4.37-4.81-5.64Z"/>
        <path class="st0" d="M249.77,558.52c-2.1,0-4.81-1.24-6.58-3.76l-.09-.13c-.99-1.47-.85-3.27.36-4.58,1.03-1.11,2.89-1.77,4.71-.72h0c2.37,1.36,5.16,3.51,5.06,6.09-.06,1.47-.87,2.54-2.23,2.94-.38.11-.79.17-1.24.17ZM246.26,549.79c-.86,0-1.6.43-2.07.93-.67.72-1.15,2.03-.27,3.34l.08.12c1.86,2.65,4.94,3.74,6.71,3.21.94-.28,1.47-.98,1.51-2.02.09-2.19-2.81-4.19-4.55-5.18-.49-.28-.97-.4-1.42-.4Z"/>
      </g>
      <g>
        <path class="st12" d="M257.93,547.7c-2.37-1.56-5.26,1.12-3.82,3.56.02.04.04.07.07.11,2.23,3.62,7.12,4.46,7.43,1.21.19-1.92-1.92-3.73-3.68-4.88Z"/>
        <path class="st0" d="M259.29,555.1c-1.79,0-4.12-1.17-5.54-3.47l-.07-.11c-.88-1.49-.36-3.02.54-3.88.92-.88,2.51-1.33,3.99-.36,1.89,1.25,4.11,3.18,3.9,5.34-.12,1.25-.86,2.12-2.03,2.39-.25.06-.51.09-.79.09ZM256.44,547.73c-.62,0-1.17.28-1.53.63-.57.54-1.01,1.56-.37,2.65l.06.1c1.38,2.25,3.8,3.27,5.25,2.94.75-.17,1.18-.68,1.26-1.51.17-1.75-2.09-3.52-3.45-4.41h0c-.42-.27-.83-.38-1.22-.38Z"/>
      </g>
      <g>
        <path class="st12" d="M264.49,543.91c-2.37-1.56-5.26,1.12-3.82,3.56.02.04.04.07.07.11,2.23,3.62,7.12,4.46,7.43,1.21.19-1.92-1.92-3.73-3.68-4.88Z"/>
        <path class="st0" d="M265.85,551.32c-1.79,0-4.12-1.17-5.54-3.47l-.07-.12c-.88-1.48-.36-3.01.54-3.87.92-.88,2.51-1.33,3.99-.36h0c1.89,1.25,4.11,3.18,3.9,5.34-.12,1.25-.86,2.12-2.03,2.39-.25.06-.51.08-.79.08ZM263,543.95c-.62,0-1.17.29-1.53.63-.57.54-1.01,1.56-.37,2.64l.06.1c1.38,2.24,3.8,3.27,5.25,2.93.75-.17,1.18-.68,1.26-1.51.17-1.75-2.09-3.52-3.45-4.41h0c-.42-.27-.83-.38-1.22-.38Z"/>
      </g>
      <g>
        <path class="st12" d="M270.22,540.15c-1.82-1.19-4.03.86-2.92,2.73.02.03.03.05.05.08,1.71,2.77,5.45,3.41,5.69.93.14-1.47-1.47-2.86-2.82-3.74Z"/>
        <path class="st0" d="M271.27,545.94c-1.41,0-3.24-.92-4.35-2.71l-.05-.09c-.61-1.03-.44-2.29.43-3.11.74-.7,2.02-1.07,3.2-.29h0c1.48.97,3.21,2.49,3.04,4.2-.1,1.01-.7,1.72-1.64,1.93-.19.05-.41.07-.63.07ZM269.08,540.29c-.44,0-.83.2-1.09.45-.42.4-.72,1.11-.26,1.88,1.08,1.75,2.87,2.52,3.94,2.27.52-.12.82-.48.87-1.06.09-.95-.83-2.11-2.59-3.27-.3-.2-.59-.27-.87-.27Z"/>
      </g>
      <g>
        <path class="st3" d="M216.58,561.45s-2.27-19.3,27.63-35.58l-10.22-6.06s-26.12,10.6-28.01,35.2"/>
        <path class="st0" d="M216.09,561.51c-.02-.2-1.93-19.49,27.12-35.65l-9.25-5.48c-2.54,1.11-25.72,11.88-27.47,34.68l-1-.08c1.89-24.63,28.05-35.52,28.32-35.62l.23-.09,11.19,6.63-.77.42c-29.21,15.9-27.39,34.89-27.37,35.08l-.99.12Z"/>
      </g>
    </g>
  </g>
  <g>
    <ellipse class="st11" cx="257.86" cy="254.15" rx="223.77" ry="240.54"/>
    <path class="st0" d="M257.86,495.18c-59.91,0-116.24-25.08-158.6-70.61-42.35-45.52-65.67-106.05-65.67-170.43s23.32-124.9,65.67-170.42C141.62,38.19,197.95,13.11,257.86,13.11s116.24,25.08,158.6,70.61c42.35,45.52,65.67,106.05,65.67,170.42s-23.32,124.9-65.67,170.43c-42.36,45.53-98.68,70.61-158.6,70.61ZM257.86,14.11c-59.63,0-115.69,24.96-157.86,70.29-42.18,45.34-65.41,105.62-65.41,169.74s23.23,124.41,65.41,169.74c42.17,45.33,98.23,70.29,157.86,70.29s115.69-24.96,157.86-70.29c42.18-45.34,65.41-105.62,65.41-169.74s-23.23-124.41-65.41-169.74c-42.17-45.33-98.23-70.29-157.86-70.29Z"/>
  </g>
  <path class="st0" d="M9.94,325.35l-.53-.85c.28-.18,28.68-17.94,68.96-33.44,37.19-14.3,92.41-29.54,144.26-20.9,26.08,4.35,82.11,8.16,164.39-15.12,52.15-14.75,98.86-36.62,119.01-55.71l.69.73c-20.26,19.19-67.13,41.15-119.43,55.94-82.47,23.33-138.67,19.5-164.83,15.14-51.63-8.6-106.65,6.58-143.72,20.84-40.19,15.46-68.52,33.18-68.8,33.36Z"/>
  <g>
    <g>
      <path class="st3" d="M97.44,523.19s-11.83,2.43-14.61,11.83c-2.78,9.39.7,18.09,17.39,26.09,16.7,8,30.61,18.09,43.13,17.74s37.57-10.09,40-17.74c2.43-7.65-6.96-19.48-20.17-20.52-13.22-1.04-65.74-17.39-65.74-17.39Z"/>
      <path class="st0" d="M142.72,579.35c-9.08,0-18.7-5.16-29.79-11.12-4.14-2.22-8.42-4.52-12.92-6.68-15.27-7.32-20.88-15.79-17.66-26.68,2.84-9.57,14.49-12.07,14.99-12.17l.13-.03.12.04c.52.16,52.62,16.34,65.63,17.37,8.75.69,15.18,5.86,18.28,10.46,2.48,3.68,3.33,7.59,2.34,10.71-2.56,8.05-28.29,17.75-40.46,18.09-.22,0-.44,0-.66,0ZM97.42,523.71c-1.24.29-11.59,2.96-14.11,11.45-1.93,6.5-2.24,16.21,17.13,25.49,4.52,2.16,8.81,4.47,12.96,6.7,11.23,6.03,20.92,11.24,29.94,10.99,12.73-.35,37.28-10.29,39.54-17.39.9-2.83.09-6.42-2.21-9.85-2.97-4.41-9.13-9.36-17.52-10.03-12.93-1.02-62.2-16.28-65.72-17.37Z"/>
    </g>
    <g>
      <g>
        <path class="st6" d="M98.51,519.78c-3.04,4.83-6.05,12.81-5.35,17.12.69,4.32,2.04,9.65,10.93,15.47,8.89,5.81,26.25,15.36,31.11,16.44,4.87,1.08,8.96,1.75,11.87-2.62,0,0,4.77,1.99,8.13.3,3.36-1.69,4.01-3.53,4.01-3.53,0,0,4.17,2.02,6.8.67,2.63-1.35,3.26-3.49,3.26-3.49,0,0,6.24,1.45,8.89-2.3,2.65-3.75,2.86-10.68-9.43-20.96s-18.97-16.97-18.97-16.97c0,0,1.47-11.35,2.28-13.05.81-1.7,13.17-73.6,13.17-73.6l-51.38-1.88s-12.27,83.55-15.3,88.38Z"/>
        <path class="st0" d="M140.61,570.12c-1.83,0-3.73-.42-5.52-.82-5.05-1.12-22.54-10.79-31.28-16.51-8.88-5.81-10.41-11.2-11.15-15.8-.7-4.35,2.27-12.46,5.42-17.47h0c2.36-3.75,10.99-59.32,15.23-88.19l.06-.44.45.02,51.95,1.91-.1.56c-1.27,7.37-12.4,72.02-13.21,73.73-.62,1.3-1.77,9.34-2.2,12.65,1.13,1.11,7.71,7.52,18.77,16.77,13.56,11.34,11.78,18.42,9.52,21.63-2.42,3.44-7.47,2.85-8.98,2.58-.34.74-1.25,2.29-3.34,3.36-2.32,1.19-5.61.03-6.8-.47-.43.71-1.51,2.07-4.01,3.33-3,1.51-6.93.31-8.17-.14-1.85,2.56-4.19,3.32-6.65,3.32ZM98.94,520.05h0c-3.06,4.86-5.94,12.66-5.28,16.78.7,4.39,2.17,9.54,10.71,15.13,8.48,5.55,26.09,15.29,30.95,16.37,5.13,1.14,8.69,1.59,11.35-2.4l.23-.34.38.16s4.6,1.88,7.71.31c3.1-1.56,3.76-3.24,3.76-3.25l.19-.51.5.23s3.98,1.9,6.35.68c2.39-1.22,3-3.17,3.01-3.18l.14-.45.46.1c.06.01,5.95,1.33,8.36-2.1,2.06-2.93,3.6-9.46-9.34-20.29-12.17-10.18-18.94-16.93-19.01-17l-.17-.17.03-.24c.15-1.17,1.5-11.48,2.32-13.2.69-1.68,9.55-52.64,13.03-72.9l-50.36-1.85c-1.07,7.27-12.33,83.39-15.31,88.13Z"/>
      </g>
      <g>
        <path class="st6" d="M140.65,550.71s13.56,8.71,6.51,15.64"/>
        <path class="st0" d="M147.51,566.7l-.7-.71c1.4-1.38,2.03-2.94,1.85-4.63-.53-5.2-8.2-10.18-8.28-10.23l.54-.84c.33.21,8.15,5.3,8.73,10.97.21,2.01-.52,3.84-2.15,5.45Z"/>
      </g>
      <g>
        <path class="st6" d="M151.23,546.51s14.54,10.23,7.49,17.16"/>
        <path class="st0" d="M159.08,564.03l-.7-.71c1.32-1.3,1.9-2.76,1.76-4.45-.47-5.74-9.1-11.88-9.19-11.94l.58-.82c.37.26,9.1,6.47,9.61,12.68.16,1.98-.53,3.75-2.06,5.25Z"/>
      </g>
      <g>
        <path class="st6" d="M161.19,543.25s14.17,11.6,7.12,18.53"/>
        <path class="st0" d="M168.66,562.14l-.7-.71c1.28-1.26,1.89-2.78,1.81-4.51-.28-6.14-8.81-13.2-8.89-13.27l.63-.77c.37.3,8.96,7.41,9.26,14,.09,2.03-.62,3.81-2.11,5.27Z"/>
      </g>
      <g>
        <path class="st12" d="M177.88,548.13c-2.24-2.95-6.98-.92-6.26,2.72.01.05.02.11.03.16,1.17,5.42,6.83,8.56,8.63,4.71,1.07-2.28-.74-5.41-2.4-7.59Z"/>
        <path class="st0" d="M177.76,557.92c-.14,0-.28,0-.42-.02-2.38-.27-5.34-2.88-6.18-6.79l-.04-.17c-.37-1.86.52-3.57,2.26-4.35,1.46-.66,3.55-.53,4.89,1.24h0c1.77,2.32,3.62,5.61,2.45,8.1-.6,1.28-1.67,1.99-2.97,1.99ZM175.11,547.22c-.48,0-.94.11-1.32.28-.99.44-2.02,1.56-1.69,3.25l.03.15c.74,3.42,3.33,5.78,5.32,6,1.06.12,1.89-.36,2.37-1.4,1.01-2.15-1.04-5.36-2.34-7.08h0c-.68-.9-1.56-1.21-2.37-1.21Z"/>
      </g>
      <g>
        <path class="st12" d="M168.07,552.84c-1.75-2.3-5.45-.72-4.89,2.12,0,.04.02.08.03.13.91,4.23,5.33,6.69,6.74,3.68.83-1.78-.58-4.23-1.87-5.93Z"/>
        <path class="st0" d="M167.98,560.6c-.11,0-.23,0-.34-.02-1.9-.21-4.26-2.29-4.92-5.39l-.03-.13c-.3-1.51.42-2.89,1.83-3.52,1.18-.53,2.86-.43,3.95,1h0c1.4,1.84,2.87,4.44,1.93,6.44-.49,1.04-1.36,1.62-2.41,1.62ZM165.91,552.23c-.36,0-.7.08-.98.21-.73.33-1.5,1.16-1.25,2.42l.02.12c.57,2.63,2.55,4.43,4.06,4.61.79.08,1.38-.26,1.74-1.03.76-1.63-.81-4.09-1.82-5.41-.51-.67-1.16-.91-1.77-.91Z"/>
      </g>
      <g>
        <path class="st12" d="M158.34,556.09c-1.75-2.3-5.45-.72-4.89,2.12,0,.04.02.08.03.13.91,4.23,5.33,6.69,6.74,3.68.83-1.78-.58-4.23-1.87-5.93Z"/>
        <path class="st0" d="M158.25,563.85c-.11,0-.23,0-.34-.02-1.9-.21-4.26-2.29-4.92-5.39l-.03-.14c-.29-1.5.42-2.89,1.83-3.52,1.18-.53,2.87-.43,3.96,1h0c1.4,1.84,2.87,4.44,1.93,6.44-.49,1.04-1.36,1.62-2.41,1.62ZM156.17,555.48c-.36,0-.7.08-.98.21-.73.33-1.5,1.16-1.25,2.42l.02.12c.57,2.63,2.55,4.43,4.06,4.61.79.08,1.38-.26,1.74-1.03.76-1.63-.81-4.09-1.82-5.41-.51-.67-1.16-.91-1.77-.91Z"/>
      </g>
      <g>
        <path class="st12" d="M147.7,558.76c-1.75-2.3-5.45-.72-4.89,2.12,0,.04.02.08.03.13.91,4.23,5.33,6.69,6.74,3.68.83-1.78-.58-4.23-1.87-5.93Z"/>
        <path class="st0" d="M147.61,566.52c-.11,0-.23,0-.34-.02-1.9-.21-4.25-2.29-4.92-5.39l-.03-.13c-.3-1.51.42-2.89,1.83-3.52,1.18-.53,2.86-.43,3.95,1,1.4,1.83,2.87,4.44,1.93,6.44-.49,1.04-1.36,1.62-2.41,1.62ZM143.33,560.9c.57,2.62,2.55,4.43,4.06,4.6.79.1,1.38-.26,1.74-1.03.76-1.63-.81-4.09-1.82-5.41h0c-.81-1.06-1.99-1.04-2.75-.7-.73.33-1.5,1.16-1.26,2.42l-.46.22.49-.11Z"/>
      </g>
    </g>
    <g>
      <path class="st3" d="M116.23,562.84s15.3-18.43,29.22-24.7,19.83-5.57,19.83-5.57c0,0-2.09-9.39-12.52-9.39s-35.83,19.13-46.96,32"/>
      <path class="st0" d="M116.61,563.16l-.77-.64c.15-.19,15.54-18.6,29.4-24.83,11.33-5.1,17.39-5.63,19.36-5.63-.67-2.07-3.4-8.37-11.85-8.37-10.33,0-35.96,19.55-46.58,31.83l-.76-.65c10.99-12.71,36.57-32.17,47.34-32.17s12.99,9.69,13.01,9.78l.15.68-.7-.08c-.06,0-6-.58-19.56,5.52-13.65,6.14-28.89,24.38-29.04,24.56Z"/>
    </g>
  </g>
  <g>
    <path class="st14" d="M271.48,122.85s27.58-22.12,35.54,1.86c10.08,30.39-46.39,43.1-46.39,43.1,0,0-45.27-35.96-19.9-55.89,22.17-17.41,30.75,10.93,30.75,10.93Z"/>
    <path class="st0" d="M260.5,168.35l-.19-.15c-.07-.06-7.03-5.61-13.89-13.44-9.25-10.56-13.94-20-13.91-28.05.02-5.96,2.68-11.07,7.91-15.18,6.49-5.1,12.49-6.83,17.83-5.14,8.43,2.66,12.51,12.86,13.48,15.63,2.88-2.18,15.83-11.37,25.93-8.39,4.57,1.35,7.88,5.03,9.83,10.92,2.06,6.22,1.52,12.18-1.61,17.72-5.32,9.41-17.33,15.99-26.46,19.85-9.86,4.17-18.59,6.15-18.68,6.17l-.23.05ZM254.18,106.77c-4.04,0-8.44,1.86-13.14,5.55-4.98,3.91-7.51,8.76-7.53,14.4-.05,17.84,24.82,38.58,27.24,40.56,3.05-.73,34.75-8.67,44.26-25.48,2.99-5.28,3.5-10.97,1.53-16.91-1.85-5.57-4.93-9.03-9.17-10.28-10.69-3.16-25.43,8.53-25.58,8.65l-.58.46-.21-.71c-.04-.13-3.98-12.8-13.05-15.65-1.22-.38-2.48-.58-3.77-.58Z"/>
  </g>
  <g>
    <path class="st13" d="M300.55,213.62s-11.13-4.17-12.17,2.78c-1.04,6.96,1.04,7.65,1.04,7.65,0,0-9.04-4.17-10.43,7.3-1.39,11.48-.09,11.48-.09,11.48,0,0-7.65,1.04-6.61,9.04s25.83,18.43,34.87,7.3c0,0,18.78-4.17,19.83-10.78,1.04-6.61-26.44-34.78-26.44-34.78Z"/>
    <path class="st0" d="M295.21,264.53c-2.55,0-5.31-.4-8.2-1.22-8.13-2.31-14.68-7.19-15.22-11.37-.9-6.89,4.36-8.93,6.32-9.45-.47-1.54-.34-5.29.37-11.2.47-3.85,1.83-6.43,4.06-7.67,1.96-1.09,4.12-.88,5.53-.54-.45-1.14-.73-3.17-.19-6.76.24-1.62,1.01-2.82,2.28-3.56,3.67-2.16,10.28.28,10.56.39.07.03.13.07.18.12.07.07,6.96,7.15,13.63,14.94,9.04,10.56,13.4,17.38,12.94,20.27-1.04,6.6-18.03,10.69-20.04,11.15-2.7,3.22-7.02,4.9-12.22,4.9ZM279.14,242.4c.14.08.24.23.25.4.02.26-.17.49-.43.53-.29.04-7.15,1.08-6.18,8.48.49,3.74,6.86,8.37,14.51,10.53,8.47,2.4,15.76,1.1,19.48-3.48.07-.09.17-.15.28-.17.18-.04,18.46-4.17,19.44-10.37.82-5.2-18.57-26.42-26.22-34.27-.84-.29-6.57-2.21-9.6-.42-1.01.6-1.6,1.53-1.8,2.85-.9,6.01.59,7.03.72,7.11.02,0,.03.01.04.02.24.11.35.39.26.64-.1.25-.37.37-.62.29-.02,0-.05-.02-.09-.04-.41-.17-3.56-1.43-6.14.01-1.93,1.08-3.12,3.4-3.54,6.92-1.1,9.05-.49,10.72-.34,10.98ZM278.89,242.34h0,0ZM278.89,242.34h0Z"/>
  </g>
  <g>
    <path class="st12" d="M330.54,246.67c-12-2.61-33.91,3.13-33.91,3.13,0,0-38.61,10.43-51.13,44.87-12.52,34.44-24.52,45.39-24.52,45.39,0,0-1.04,23.48,13.04,41.74,14.09,18.26,36.52-43.83,36.52-43.83l-6.78,56.87s29.22-6.78,55.3,0"/>
    <path class="st5" d="M263.18,395.49l6.38-53.51c-4.3,11.03-17.28,41.81-28.73,43.6-2.68.42-5.11-.75-7.21-3.47-14.04-18.2-13.16-41.83-13.15-42.07v-.21s.16-.14.16-.14c.12-.11,12.07-11.31,24.39-45.19,12.47-34.28,51.08-45.08,51.47-45.18.9-.24,22.17-5.74,34.15-3.14l-.21.98c-11.74-2.55-33.46,3.07-33.68,3.13-.38.1-38.5,10.77-50.79,44.56-11.65,32.05-23.04,44-24.5,45.44-.05,2.3-.19,24.19,12.95,41.22,1.89,2.45,3.94,3.46,6.26,3.1,13.08-2.05,29.23-46.34,29.39-46.79l1.48-4.11-7.22,60.51c4.59-.96,31.16-6,54.85.15l-.25.97c-25.66-6.67-54.77-.06-55.07,0l-.69.16Z"/>
  </g>
  <g>
    <path class="st4" d="M110.63,289.19c-10.96,14.09-16.43,32.09-17.22,45.39-.78,13.3,17.22,74.35,19.57,79.04,2.35,4.7-14.09,93.13-14.09,93.13,0,0,23.69,21.13,51.08,10.17l34.23-97.04-3.91-23.48s10.96,24.26,10.96,28.96-7.04,79.04-7.04,79.04c0,0,18.21,9.39,44.82,4.7l20.92-100.17-23.48-104.87-115.83-14.87Z"/>
    <path class="st0" d="M133.81,520.55c-19.92,0-35.06-13.25-35.25-13.42l-.21-.19.05-.28c6.59-35.48,15.8-89.48,14.13-92.82-2.67-5.34-20.4-65.96-19.62-79.3.72-12.24,5.65-30.66,17.32-45.67l.18-.23.28.04,116.17,14.92,23.58,105.32-.02.11-20.99,100.51-.33.06c-13.83,2.44-25.35,1.02-32.58-.59-7.85-1.75-12.36-4.06-12.55-4.15l-.3-.16.03-.34c.07-.74,7.04-74.38,7.04-79,0-3.46-6.28-18.22-9.31-25.14l3.29,19.71-.04.12-34.3,97.26-.21.08c-5.65,2.26-11.16,3.16-16.34,3.16ZM99.43,506.56c2.4,2.02,24.8,19.97,50.14,9.99l34.11-96.71-4.52-27.14,1.58,3.5c.45,1,11,24.41,11,29.16s-6.43,72.58-7.01,78.75c2.46,1.16,19.75,8.72,43.87,4.56l20.83-99.74-23.38-104.42-115.2-14.79c-11.41,14.79-16.23,32.86-16.94,44.89-.78,13.21,17.38,74.53,19.51,78.79,2.33,4.66-12.07,82.84-13.99,93.16Z"/>
  </g>
  <g>
    <g>
      <path class="st6" d="M293.09,544.15s-2.89,21.19-16.37,25.04c-13.48,3.85-22.15,23.11,13.48,19.26,35.63-3.85,49.11-11.56,48.15-18.3s-6.74-29.85-6.74-29.85"/>
      <path class="st0" d="M281.9,589.42c-7.52,0-16.13-1.33-17.29-7.24-.99-5.07,4.6-11.37,11.97-13.47,13.02-3.72,15.98-24.42,16.01-24.62l.99.13c0,.05-.76,5.43-3.16,11.2-3.21,7.71-7.9,12.63-13.56,14.25-6.78,1.94-12.14,7.81-11.26,12.32.5,2.54,3.88,8.19,24.55,5.96,33.93-3.67,43.67-10.23,46.46-13.81,1.01-1.3,1.43-2.62,1.25-3.92-.95-6.64-6.67-29.57-6.73-29.8l.97-.24c.06.23,5.79,23.21,6.75,29.9.22,1.57-.26,3.14-1.45,4.67-4.98,6.4-21.72,11.45-47.14,14.19-2.14.23-5.15.47-8.36.47Z"/>
    </g>
    <g>
      <path class="st12" d="M282.98,559.69s22.63,1.8,32.26,22.98c0,0,18.3-6.74,24.07-12.52s7.7,6.74,1.93,12.52c-5.78,5.78-57.54,34.1-91.48,7.7-17.33-13.48,33.22-30.68,33.22-30.68Z"/>
      <path class="st5" d="M284.35,601.9c-12.11,0-24.39-2.96-34.9-11.13-2.93-2.28-4.18-4.83-3.72-7.6,2-11.89,35.65-23.47,37.09-23.96l.1-.03h.1c.23.03,22.73,2.04,32.48,22.86,2.79-1.06,18.32-7.1,23.46-12.24.92-.92,1.8-1.45,2.63-1.6.82-.14,1.58.11,2.18.71,2.5,2.5,1.86,10.07-2.18,14.11-4.39,4.39-30.42,18.88-57.24,18.88ZM283.04,560.2c-2.06.72-34.47,12.14-36.32,23.14-.4,2.4.69,4.58,3.35,6.64,33.3,25.9,84.54-1.38,90.82-7.66,3.76-3.76,4.11-10.77,2.18-12.7-.38-.38-.8-.51-1.3-.43-.61.11-1.34.56-2.1,1.32-5.79,5.79-23.5,12.36-24.25,12.63l-.44.16-.19-.42c-9.07-19.95-30.1-22.51-31.74-22.68Z"/>
    </g>
    <g>
      <path class="st6" d="M391.09,548.13s5.78,23.11,6.74,29.85c.96,6.74-12.52,14.44-48.15,18.3-35.63,3.85-26.96-15.41-13.48-19.26,13.48-3.85,16.37-25.04,16.37-25.04"/>
      <path class="st0" d="M341.38,597.25c-7.52,0-16.13-1.33-17.29-7.24-.99-5.07,4.6-11.37,11.97-13.47,13.02-3.72,15.98-24.42,16.01-24.62l.99.13c0,.05-.76,5.43-3.16,11.2-3.21,7.71-7.9,12.63-13.56,14.25-6.78,1.94-12.14,7.81-11.26,12.32.5,2.54,3.89,8.19,24.55,5.96,33.94-3.67,43.67-10.23,46.46-13.81,1.01-1.3,1.43-2.62,1.25-3.92-.95-6.64-6.67-29.57-6.73-29.8l.97-.24c.06.23,5.79,23.21,6.75,29.9.22,1.57-.26,3.14-1.45,4.67-4.98,6.4-21.72,11.45-47.14,14.19-2.14.23-5.15.47-8.36.47Z"/>
    </g>
    <g>
      <path class="st12" d="M342.46,567.52s22.63,1.8,32.26,22.98c0,0,18.3-6.74,24.07-12.52,5.78-5.78,7.7,6.74,1.93,12.52-5.78,5.78-57.54,34.1-91.48,7.7-17.33-13.48,33.22-30.68,33.22-30.68Z"/>
      <path class="st5" d="M343.83,609.73c-12.12,0-24.39-2.95-34.9-11.13-2.93-2.28-4.18-4.83-3.72-7.6,2-11.89,35.65-23.47,37.09-23.96l.1-.03h.1c.23.03,22.73,2.04,32.48,22.86,2.79-1.06,18.32-7.1,23.46-12.24.92-.92,1.8-1.45,2.63-1.6.83-.14,1.58.1,2.18.71,2.5,2.49,1.86,10.07-2.18,14.11-4.39,4.39-30.42,18.87-57.24,18.88ZM342.52,568.03c-2.07.72-34.47,12.14-36.32,23.14-.4,2.4.69,4.58,3.35,6.64,33.29,25.89,84.54-1.38,90.82-7.66,3.76-3.76,4.11-10.77,2.18-12.7-.38-.38-.8-.51-1.3-.43-.61.11-1.34.56-2.09,1.32-5.79,5.79-23.5,12.36-24.25,12.63l-.44.16-.19-.42c-9.08-19.96-30.1-22.51-31.74-22.68Z"/>
    </g>
    <g>
      <path class="st3" d="M297.41,360.41s-29.74,47.74-7.04,182.35c0,0,17.22,16.43,45.39.78l3.91-99.39,7.04,108s32.87,21.91,54.78.78c0,0,0-127.57.78-140.87.78-13.3-7.04-41.48-23.48-56.35-16.43-14.87-79.83,0-79.83,0"/>
      <path class="st0" d="M378.23,562.56c-16.51,0-31.56-9.85-31.79-10l-.21-.14-.02-.25-6.42-98.46-3.55,90.12-.25.14c-28.17,15.65-45.81-.69-45.98-.86l-.12-.11-.03-.16c-6.48-38.42-12.6-94.21-4.99-141.82,4.56-28.53,12.03-40.76,12.1-40.88l.85.53c-.07.12-7.46,12.24-11.98,40.61-7.55,47.39-1.47,102.92,4.98,141.22,1.56,1.38,18.28,15.12,44.44.74l3.9-99.11h1s7.03,107.74,7.03,107.74c2.8,1.78,33.32,20.36,53.8.85,0-5.91.02-127.78.78-140.69.79-13.53-7.05-41.23-23.32-55.95-6.61-5.98-22.41-7.86-45.68-5.45-17.67,1.83-33.54,5.53-33.7,5.57l-.23-.97c2.6-.61,63.83-14.76,80.28.12,16.49,14.92,24.45,43.03,23.64,56.75-.77,13.14-.78,139.57-.78,140.84v.21l-.15.15c-7.19,6.93-15.58,9.27-23.62,9.27Z"/>
    </g>
    <g>
      <polyline class="st3" points="315.67 401.88 340.46 412.06 339.67 446.49"/>
      <polygon class="st0" points="340.17 446.51 339.17 446.48 339.95 412.39 315.48 402.35 315.86 401.42 340.96 411.73 340.17 446.51"/>
    </g>
  </g>
  <path d="M365.85,408.6c-3.35-11.88,2.61-19.58,2.87-19.9l.78.62c-.06.08-5.9,7.63-2.69,19l-.96.27Z"/>
  <path d="M373.61,408.16c-2.23-11.97,2.84-16.21,3.06-16.39l.63.78-.31-.39.32.39s-4.82,4.09-2.7,15.42l-.98.18Z"/>
  <g>
    <path class="st13" d="M373.9,215.7s12.56-4.71,13.74,3.14c1.18,7.85-1.18,8.63-1.18,8.63,0,0,10.2-4.71,11.77,8.24,1.57,12.95-6.67,12.95-6.67,12.95,0,0,8.63,1.18,7.46,10.2-1.18,9.03-22.37,20.8-32.57,8.24,0,0-21.19-4.71-22.37-12.17-1.18-7.46,29.83-39.24,29.83-39.24Z"/>
    <path class="st0" d="M378.33,273.08c-4.89,0-9.15-1.89-12.16-5.52-2.17-.5-21.41-5.11-22.59-12.54-1.2-7.62,28.69-38.37,29.96-39.67.05-.05.11-.09.18-.12.31-.12,7.75-2.86,11.86-.44,1.42.83,2.27,2.17,2.54,3.97.62,4.16.27,6.45-.25,7.71,1.58-.4,4.06-.68,6.31.58,2.49,1.39,4.02,4.29,4.54,8.61.61,5-.14,8.74-2.23,11.09-.94,1.06-1.98,1.65-2.87,1.99,2.61,1,6.74,3.64,5.89,10.2-.67,5.13-7.49,11.08-15.21,13.27-2.06.58-4.07.87-5.98.87ZM374.18,216.13c-8.63,8.86-30.54,32.84-29.61,38.73,1.11,7.04,21.78,11.71,21.98,11.76.11.02.21.09.28.17,5.36,6.59,13.08,5.62,17.2,4.45,7.37-2.09,13.87-7.67,14.49-12.44,1.1-8.42-6.7-9.6-7.03-9.64-.26-.04-.45-.27-.43-.53.02-.26.23-.47.5-.47.02,0,2.39-.04,4.21-2.1,1.88-2.13,2.54-5.59,1.97-10.29-.48-3.98-1.84-6.62-4.03-7.85-2.93-1.64-6.5-.23-6.98-.02-.05.02-.08.04-.11.04-.25.08-.53-.04-.62-.29-.1-.25.01-.53.25-.64.01,0,.03-.02.07-.03.19-.12,1.83-1.34.82-8.07-.23-1.51-.9-2.58-2.06-3.26-3.46-2.04-10.01.16-10.9.48Z"/>
  </g>
  <g>
    <path class="st10" d="M301.85,312.41s-26.09,12-29.22,21.39c0,0-9.91-60,5.74-68.35,15.65-8.35,39.65-13.04,39.65-13.04l-16.17,60Z"/>
    <path class="st0" d="M272.47,335.87l-.33-1.99c-.02-.15-2.49-15.22-3.01-31.11-.7-21.5,2.33-34.2,9-37.76,15.54-8.29,39.55-13.05,39.79-13.09l.79-.15-16.44,61-.21.1c-.26.12-25.93,12.02-28.95,21.1l-.64,1.92ZM317.33,253.06c-4.27.9-24.9,5.46-38.72,12.83-13.72,7.32-7.17,56.47-5.74,66.17,4.95-8.8,26.03-18.83,28.56-20.01l15.9-58.99Z"/>
  </g>
  <g>
    <path class="st10" d="M316.2,245.36s-30.83,19.89-25.04,52.44c3.03,17.02,3.91,22.7,3.91,22.7,0,0-7.83,30-6.26,42.26,1.43,11.2,97.04,12.78,104.09,10.96,19.04-8.09,15.65-112.7,15.65-112.7,0,0-41.48-43.04-92.35-15.65Z"/>
    <path class="st0" d="M377.41,374.8c-26.34,0-76.83-2.35-87.07-9.28-1.23-.83-1.91-1.74-2.03-2.7-1.53-11.98,5.67-40.11,6.25-42.35-.13-.84-1.12-6.97-3.9-22.58-5.78-32.5,24.95-52.74,25.27-52.94l.03-.02c26.46-14.25,50.32-9.2,65.69-2.46,16.63,7.29,27.15,18.1,27.26,18.21l.13.14v.19c.15,4.29,3.19,105.05-15.95,113.17-1.52.4-7.41.63-15.68.63ZM316.45,245.79c-.83.55-30.41,20.37-24.81,51.92,2.99,16.83,3.91,22.65,3.92,22.71l.02.1-.03.1c-.08.3-7.78,30.05-6.25,42.07.08.66.62,1.34,1.6,2,13.31,9.01,95.62,10.16,101.86,8.54,18.06-7.67,15.43-106.91,15.28-112-1.27-1.27-11.39-11.1-26.84-17.87-15.15-6.64-38.68-11.6-64.76,2.43Z"/>
  </g>
  <path class="st16" d="M378.49,618.45c-2.76,0-5-2.24-5-5v-195.7c0-9.39,1.39-16.78,4.14-21.96,3.94-7.43,9.59-8.54,12.61-8.54,11.44,0,21.48,14.52,21.48,31.07,0,2.76-2.24,5-5,5s-5-2.24-5-5c0-13.07-7.43-21.07-11.48-21.07-1.37,0-2.64,1.08-3.78,3.22-1.36,2.56-2.97,7.64-2.97,17.28v195.7c0,2.76-2.24,5-5,5Z"/>
  <g>
    <path class="st6" d="M386.37,332.23c-8.71,18.07-15.81,43.26-21.39,49.57-5.59,6.31-9.37,10.93-7.81,18.08,1.56,7.14,5.14,8.72,9.16,8.58,0,0,4.35,5.21,7.77-.4,0,0,2.65,4.71,5.85.75,3.21-3.96,5.04-14.6,8.29-15.3,3.25-.7,11.16-2.41,11.18-6.65,10.71-.64,37.23-18.37,36.41-45.26-.82-26.89-13.89-41.03-13.89-41.03,0,0-26.86,13.58-35.57,31.66Z"/>
    <path d="M370.39,411.16c-2.06,0-3.76-1.63-4.28-2.2-5.08.07-8.07-2.78-9.43-8.98-1.56-7.16,1.95-11.77,7.92-18.51,3.1-3.51,6.71-13.02,10.88-24.03,3.12-8.24,6.65-17.57,10.44-25.42,8.68-18.02,35.52-31.75,35.79-31.89l.34-.17.26.28c.13.14,13.2,14.59,14.02,41.35.8,26.28-24.87,44.62-36.44,45.74-.53,4.31-8.2,5.96-11.54,6.68-1.59.34-2.99,3.99-4.34,7.51-1.1,2.88-2.24,5.85-3.67,7.62-1.02,1.26-2.12,1.86-3.27,1.76-1.37-.12-2.42-1.2-2.97-1.93-.99,1.36-2.14,2.09-3.42,2.19-.1,0-.19.01-.29.01ZM366.55,407.95l.16.19s1.87,2.17,3.9,2.02c1.13-.09,2.17-.88,3.06-2.35l.44-.73.42.74s1.12,1.95,2.62,2.08c.79.07,1.6-.4,2.41-1.39,1.33-1.64,2.44-4.54,3.51-7.34,1.58-4.12,2.94-7.68,5.06-8.13,2.94-.63,10.76-2.31,10.78-6.17v-.47s.47-.03.47-.03c11.05-.66,36.73-18.72,35.94-44.75-.75-24.32-11.71-38.28-13.51-40.42-3.16,1.66-26.99,14.64-35,31.25h0c-3.76,7.81-7.29,17.12-10.4,25.34-4.21,11.1-7.84,20.7-11.06,24.34-5.74,6.49-9.19,10.81-7.69,17.64,1.63,7.46,5.48,8.31,8.65,8.19h.24Z"/>
  </g>
  <g>
    <path class="st10" d="M372.02,288.41s9.39,19.83,8.61,48l55.83-1.04s-4.96-108-85.57-97.04"/>
    <path class="st0" d="M380.12,336.92v-.52c.78-27.72-8.45-47.58-8.55-47.77l.9-.43c.09.2,9.32,20.01,8.67,47.7l54.78-1.02c-.37-5.75-4.57-57.96-34.77-83.12-13.52-11.27-30.42-15.62-50.2-12.93l-.13-.99c20.08-2.73,37.23,1.7,50.98,13.16,32.15,26.8,35.13,83.79,35.15,84.36l.02.51-56.86,1.06Z"/>
  </g>
  <g>
    <path class="st6" d="M316.2,245.36s-7.04,35.59,14.54,33.27c21.59-2.31,32-37.4,32-37.4l-3.08-15.42"/>
    <path d="M328.79,279.24c-3.81,0-6.9-1.28-9.22-3.81-8-8.74-4.04-29.3-3.87-30.17l.98.19c-.04.21-4.03,20.93,3.63,29.3,2.48,2.71,5.97,3.85,10.37,3.38,20.39-2.19,30.85-34.7,31.54-36.92l-3.06-15.3.98-.2,3.11,15.54-.04.12c-.03.09-2.68,8.93-7.95,17.94-7.02,12-15.48,18.85-24.47,19.81-.69.07-1.36.11-2,.11Z"/>
  </g>
  <g>
    <path class="st13" d="M369.07,233.36s-6.28,7.06.78,15.7c7.06,8.63,15.7,0,15.7,0,0,0,5.34,16.48,16.41,5.1,0,0,3.85-9.42-7.46-10.2"/>
    <path class="st0" d="M394.57,258.67c-.49,0-.98-.06-1.47-.17-4.46-1.04-6.98-6.56-7.76-8.57-1.31,1.12-4.75,3.66-8.71,3.45-2.68-.13-5.09-1.48-7.16-4.01-7.25-8.86-.84-16.27-.77-16.35.18-.21.5-.23.71-.04.21.18.23.5.04.71-.24.28-5.9,6.86.8,15.05,1.88,2.3,4.04,3.52,6.43,3.64,4.55.24,8.49-3.64,8.53-3.68.12-.12.3-.17.47-.13.17.04.3.17.36.33.02.07,2.49,7.5,7.3,8.62,2.5.58,5.26-.64,8.2-3.64.21-.57,1.29-3.84-.27-6.34-1.13-1.82-3.42-2.86-6.79-3.09-.28-.02-.48-.26-.46-.53.02-.28.26-.48.53-.46,3.71.26,6.26,1.46,7.57,3.56,1.97,3.17.38,7.16.31,7.33-.02.06-.06.11-.1.16-2.69,2.76-5.29,4.16-7.75,4.16Z"/>
  </g>
  <g>
    <g>
      <rect class="st8" x="331.07" y="65.92" width="123.13" height="137.67"/>
      <path class="st0" d="M454.7,204.09h-124.13V65.42h124.13v138.67ZM331.57,203.09h122.13V66.42h-122.13v136.67Z"/>
    </g>
    <g>
      <rect class="st12" x="342.22" y="77.04" width="100.83" height="115.42"/>
      <path class="st5" d="M443.55,192.96h-101.83v-116.42h101.83v116.42ZM342.72,191.96h99.83v-114.42h-99.83v114.42Z"/>
    </g>
    <g>
      <g>
        <path class="st3" d="M390.68,138.04s-1.69-36.27,43.3-53.71c0,0,10.12,37.96-43.3,53.71"/>
        <path class="st0" d="M390.21,138.7l-.03-.64c-.02-.37-1.19-36.83,43.62-54.2l.52-.2.14.54c.1.39,2.52,9.77-1.63,21.25-6.93,19.14-26.67,28.55-42.01,33.07l-.61.18ZM433.62,85.01c-22.68,8.94-33.01,22.79-37.69,32.88-4.32,9.33-4.74,17.23-4.76,19.49,15.03-4.53,34.03-13.78,40.72-32.26,3.49-9.64,2.17-17.94,1.73-20.1Z"/>
      </g>
      <g>
        <path class="st3" d="M387.6,152.11s-34.33-10.86-35.88-59.08c0,0,38.72,3.46,35.88,59.08"/>
        <path class="st0" d="M388.07,152.79l-.62-.2c-.35-.11-34.69-11.52-36.23-59.54l-.02-.56.56.05c.4.04,9.94.97,19.28,8.8,15.57,13.05,17.87,34.84,17.06,50.81l-.03.65ZM352.24,93.6c.93,24.36,10.45,38.81,18.32,46.66,7.26,7.24,14.46,10.35,16.58,11.15.7-15.66-1.69-36.67-16.69-49.28-7.83-6.58-16.02-8.2-18.21-8.53Z"/>
      </g>
      <g>
        <path class="st3" d="M387.21,164.74s.34-18.09,23.35-25.71c0,0,3.85,19.15-23.35,25.71"/>
        <path class="st0" d="M386.7,165.38v-.65c.02-.18.62-18.53,23.7-26.17l.54-.18.11.55c.04.2,3.63,19.69-23.72,26.29l-.63.15ZM410.16,139.7c-11.32,3.9-16.82,10.42-19.44,15.24-2.24,4.12-2.81,7.72-2.96,9.15,23.43-5.94,22.8-21.2,22.4-24.39Z"/>
      </g>
      <path class="st0" d="M386.81,181.64c0-.28-.55-28.09,1.73-39.18,2.3-11.18,23.92-33.35,24.84-34.29l.71.7c-.22.23-22.33,22.9-24.58,33.79-2.26,10.98-1.72,38.68-1.71,38.96l-1,.02Z"/>
      <path class="st0" d="M387.1,152.14c-1.1-18.72-24.1-42.48-24.34-42.71l.71-.7c.96.98,23.5,24.27,24.62,43.35l-1,.06Z"/>
    </g>
  </g>
  <g>
    <g>
      <path class="st12" d="M300.4,235.19c-.01-1.28-.13-4.65-4.45-4.61s-4.06,3.62-3.96,5.71,2.05,4.08,5.4,3.25c3.36-.83,3.02-3.07,3.01-4.35Z"/>
      <path class="st5" d="M295.88,240.24c-1.28,0-2.19-.43-2.77-.86-.97-.72-1.57-1.83-1.63-3.05v-.11c-.08-1.41-.19-3.55,1.09-4.9.75-.8,1.89-1.21,3.36-1.23,3.24-.02,4.93,1.69,4.96,5.1v.3c.04,1.29.1,3.68-3.39,4.54-.6.15-1.14.21-1.63.21ZM296.01,231.08s-.04,0-.06,0c-1.2.01-2.09.32-2.65.91-.98,1.04-.89,2.85-.82,4.16v.11c.05.92.5,1.76,1.23,2.3.63.47,1.76.93,3.56.49,2.71-.67,2.67-2.26,2.63-3.54v-.32c-.02-1.77-.44-4.11-3.89-4.11Z"/>
    </g>
    <path class="st0" d="M322.72,249.33s-4.95,3.45-3.09,6.31c1.86,2.87,18.38,4.56,30.04-9.42l-26.95,3.11Z"/>
    <g>
      <path class="st6" d="M357.31,240.57c21.08-26.37,12.35-58.14-11.74-65.56-22.06-6.8-60,8.26-51.98,47.94,8.39,41.49,49.13,27.52,52.6,25.05"/>
      <path d="M326.61,252.74c-4.39,0-9.06-.64-13.49-2.39-10.46-4.13-17.19-13.31-20.02-27.3-4.07-20.14,3.74-32.22,11.02-38.81,10.93-9.9,28.04-13.89,41.6-9.71,10.74,3.31,18.86,11.56,22.27,22.65,4.36,14.14.61,30.07-10.29,43.7l-.78-.62c10.69-13.37,14.37-28.96,10.12-42.78-3.32-10.76-11.19-18.78-21.61-21.99-13.03-4.02-30.12-.02-40.63,9.5-7.08,6.41-14.69,18.18-10.71,37.87,2.75,13.63,9.28,22.57,19.41,26.56,13.98,5.52,30.18-.23,32.42-1.83l.58.81c-1.6,1.14-10.06,4.33-19.87,4.33Z"/>
    </g>
    <path class="st0" d="M326.61,252.74c-4.39,0-9.06-.64-13.49-2.39-10.46-4.13-17.19-13.31-20.02-27.3-4.07-20.14,3.74-32.22,11.02-38.81,10.93-9.9,28.04-13.89,41.6-9.71,10.74,3.31,18.86,11.56,22.27,22.65,4.36,14.14.61,30.07-10.29,43.7l-.78-.62c10.69-13.37,14.37-28.96,10.12-42.78-3.32-10.76-11.19-18.78-21.61-21.99-13.03-4.02-30.12-.02-40.63,9.5-7.08,6.41-14.69,18.18-10.71,37.87,2.75,13.63,9.28,22.57,19.41,26.56,13.98,5.52,30.18-.23,32.42-1.83l.58.81c-1.6,1.14-10.06,4.33-19.87,4.33Z"/>
    <g>
      <path class="st13" d="M369.15,206.7c-.81-14.89-9.6-27.39-23.58-31.7-15.26-4.7-38.1,1.05-48.09,18.17,5.29,2.34,13.16,3.83,20.11-2.83,0,0,5.31,7.99,12.56-1.85,0,0,6.41,14.26,18.21,6.13,0,0,3.91,24.53,20.79,12.08Z"/>
      <path class="st0" d="M360.41,210.73c-1.15,0-2.25-.21-3.29-.64-6.24-2.55-8.56-11.87-9.12-14.63-3.21,2.03-6.33,2.64-9.28,1.82-4.78-1.34-7.69-6.01-8.67-7.84-2.39,3.03-4.85,4.52-7.31,4.47-2.65-.06-4.49-1.92-5.22-2.81-7.02,6.38-14.86,4.93-20.25,2.54-.13-.06-.23-.17-.27-.3-.04-.14-.03-.28.04-.41,10.2-17.48,33.21-23.16,48.67-18.4,13.91,4.29,23.08,16.6,23.93,32.15,0,.17-.07.33-.2.43-3.27,2.41-6.29,3.62-9.03,3.62ZM348.36,194.13c.07,0,.13.01.2.04.16.07.27.21.3.38.02.12,1.97,11.89,8.65,14.61,3.14,1.28,6.88.37,11.13-2.7-.92-14.99-9.79-26.84-23.21-30.98-14.95-4.61-37.13.78-47.23,17.46,5.19,2.17,12.54,3.27,19.04-2.96.11-.1.25-.15.4-.14.15.02.28.1.36.22.02.03,1.89,2.77,4.78,2.83,2.3.04,4.62-1.53,6.96-4.71.11-.14.28-.22.46-.2.18.02.33.13.4.29.03.06,2.99,6.52,8.4,8.03,2.84.8,5.9.09,9.08-2.1.08-.06.18-.09.28-.09Z"/>
    </g>
    <g>
      <path class="st6" d="M364.7,226.71s14.42,1.97,13.26-11.9c-1.17-13.87-18.02-8.49-19.55-3.76"/>
      <path class="st0" d="M366.53,227.31c-1.08,0-1.81-.09-1.9-.11l.13-.99c.06,0,6.42.82,10.1-2.68,2.04-1.94,2.91-4.86,2.59-8.68-.53-6.26-4.24-7.99-7.26-8.34-4.77-.55-10.51,2.22-11.31,4.69l-.95-.31c.94-2.89,6.96-6,12.38-5.37,2.78.32,7.53,1.95,8.14,9.25.35,4.14-.63,7.34-2.9,9.5-2.75,2.61-6.7,3.05-9.02,3.05Z"/>
    </g>
    <g>
      <path class="st6" d="M365.68,219.1s2.84-5,6.49-6.34"/>
      <path class="st0" d="M366.12,219.35l-.87-.49c.12-.21,2.97-5.18,6.76-6.56l.34.94c-3.44,1.26-6.21,6.07-6.23,6.12Z"/>
    </g>
    <path class="st0" d="M316.39,231.75c-.72,0-1.44-.13-2.08-.5-1.22-.7-1.88-2.07-1.98-4.08-.09-1.98.46-3.51,1.65-4.54,2.36-2.05,6.33-1.32,6.5-1.28l-.19.98s-3.67-.67-5.66,1.06c-.94.82-1.38,2.07-1.3,3.73.08,1.64.57,2.74,1.47,3.25,1.91,1.1,5.12-.57,5.15-.59l.47.88c-.11.06-2.06,1.08-4.04,1.08Z"/>
    <g>
      <path class="st12" d="M370.51,228.04c-.01-1.28-.13-4.65-4.45-4.61s-4.06,3.62-3.96,5.71,2.05,4.08,5.4,3.25c3.36-.83,3.02-3.07,3.01-4.35Z"/>
      <path class="st5" d="M366.01,233.08c-1.07,0-2.02-.29-2.79-.86-.97-.72-1.56-1.83-1.63-3.05v-.11c-.08-1.41-.19-3.55,1.09-4.9.75-.8,1.89-1.21,3.37-1.23.02,0,.05,0,.08,0,2.01,0,3.42.69,4.21,2.06.66,1.15.67,2.48.67,3.04v.3c.04,1.29.1,3.68-3.39,4.54-.55.14-1.09.2-1.61.2ZM366.12,223.93s-.04,0-.07,0c-1.2.01-2.08.32-2.64.91-.98,1.04-.89,2.85-.82,4.17v.11c.05.92.5,1.76,1.23,2.3.63.47,1.76.93,3.56.49,2.71-.67,2.67-2.26,2.63-3.54v-.32c-.01-.49-.02-1.63-.55-2.55-.59-1.03-1.72-1.56-3.34-1.56Z"/>
    </g>
    <ellipse class="st1" cx="344.1" cy="223.09" rx="5.24" ry="3.54" transform="translate(-41.61 83.8) rotate(-13.1)"/>
    <ellipse class="st1" cx="300.89" cy="223.98" rx="5.24" ry="3.54" transform="translate(-5.26 7.24) rotate(-1.37)"/>
    <path class="st0" d="M338.18,235.27c-4.58-8.6-11.03-12.39-11.1-12.43l.5-.87c.27.16,6.76,3.97,11.48,12.82l-.88.47Z"/>
    <g>
      <path class="st0" d="M331.04,205.57c-10.74,0-23.35-2.41-24.06-2.55l.19-.98c.23.04,23.23,4.44,33.49,1.51l.28.96c-2.69.77-6.18,1.06-9.9,1.06Z"/>
      <g>
        <path class="st0" d="M333.78,213.91s-.05,2.06.23,2.71c.27.65-.08,1.45-.92,1.33s-1.63-3.15-1.29-5.54c.34-2.39.61-2.59,1.91-2.29s-.1,2.42.08,3.79Z"/>
        <path class="st0" d="M333.24,218.47c-.07,0-.15,0-.23-.02-.81-.11-1.26-1.31-1.5-2.3-.3-1.23-.38-2.65-.22-3.81.21-1.48.4-2.25.94-2.62.46-.31,1.03-.22,1.58-.09.43.1.65.34.76.52.34.56.14,1.32-.06,2.12-.14.56-.29,1.14-.24,1.56v.04s0,.04,0,.04c-.02.81.03,2.13.19,2.51.22.52.16,1.12-.16,1.53-.25.33-.63.51-1.06.51ZM332.98,210.52c-.08,0-.14.01-.18.04-.27.18-.44,1.41-.51,1.93-.33,2.33.48,4.79.89,4.98.21.03.3-.08.33-.11.1-.13.11-.35.03-.53-.29-.69-.28-2.45-.27-2.88-.07-.61.1-1.26.27-1.9.13-.49.3-1.16.18-1.36,0-.01-.03-.04-.13-.07-.21-.05-.44-.1-.6-.1Z"/>
      </g>
      <g>
        <path class="st0" d="M312.69,213.65s-.05,2.06.23,2.71-.08,1.45-.92,1.33-1.63-3.15-1.29-5.54c.34-2.39.61-2.59,1.91-2.29s-.1,2.42.08,3.79Z"/>
        <path class="st0" d="M312.16,218.2c-.07,0-.15,0-.23-.02-.81-.11-1.26-1.31-1.5-2.3-.3-1.23-.38-2.65-.22-3.81.21-1.48.4-2.25.94-2.62.46-.31,1.03-.22,1.58-.09.43.1.65.34.76.52.34.56.14,1.32-.06,2.12-.14.56-.29,1.14-.24,1.56v.04s0,.04,0,.04c-.02.81.03,2.13.19,2.51.22.52.16,1.12-.16,1.53-.25.33-.63.5-1.06.5ZM311.89,210.25c-.08,0-.14.01-.18.04-.27.18-.44,1.41-.51,1.93-.33,2.34.48,4.79.89,4.98.23.03.3-.08.33-.11.1-.13.11-.35.03-.53-.29-.69-.28-2.45-.27-2.88-.07-.61.1-1.26.27-1.9.13-.49.3-1.16.18-1.36,0-.01-.03-.04-.13-.07-.21-.05-.44-.1-.6-.1Z"/>
      </g>
    </g>
    <path class="st0" d="M320.9,238.95c-4.64,0-7.25-2.22-7.39-2.34l.66-.75s4.08,3.44,11.01,1.46l.28.96c-1.69.48-3.21.67-4.56.67Z"/>
  </g>
  <g>
    <path class="st9" d="M101.94,132.1l9.08,27.94c4.6,14.17,17.81,23.76,32.71,23.76h29.37c4.7,0,6.66,6.02,2.85,8.78l-23.76,17.27c-12.05,8.76-17.1,24.28-12.49,38.45l9.08,27.94c1.45,4.47-3.66,8.19-7.47,5.43l-23.76-17.27c-12.05-8.76-28.37-8.76-40.43,0l-23.76,17.27c-3.8,2.76-8.92-.95-7.47-5.43l9.08-27.94c4.6-14.17-.44-29.69-12.49-38.45l-23.76-17.27c-3.8-2.76-1.85-8.78,2.85-8.78h29.37c14.9,0,28.1-9.59,32.71-23.76l9.08-27.94c1.45-4.47,7.78-4.47,9.23,0Z"/>
    <path class="st5" d="M144.15,283.1c-1.1,0-2.19-.35-3.15-1.04l-23.76-17.27c-11.91-8.66-27.92-8.66-39.84,0l-23.76,17.27c-1.91,1.39-4.38,1.39-6.29,0-1.91-1.39-2.67-3.74-1.94-5.98l9.08-27.94c4.55-14.01-.4-29.23-12.31-37.89l-23.76-17.27c-1.91-1.39-2.67-3.74-1.94-5.98s2.73-3.7,5.09-3.7h29.37c14.73,0,27.68-9.41,32.23-23.42l9.08-27.94c.73-2.25,2.73-3.7,5.09-3.7s4.36,1.45,5.09,3.7h0s9.08,27.94,9.08,27.94c4.55,14.01,17.5,23.42,32.23,23.42h29.37c2.36,0,4.36,1.45,5.09,3.7s-.03,4.6-1.94,5.98l-23.76,17.27c-11.91,8.66-16.86,23.88-12.31,37.89l9.08,27.94c.73,2.25-.03,4.6-1.94,5.98-.96.69-2.05,1.04-3.15,1.04ZM97.32,257.3c7.19,0,14.37,2.23,20.51,6.68l23.76,17.27c1.55,1.13,3.56,1.13,5.12,0,1.55-1.13,2.18-3.04,1.58-4.87l-9.08-27.94c-4.69-14.42.41-30.09,12.67-39.01l23.76-17.27c1.55-1.13,2.18-3.04,1.58-4.87-.59-1.83-2.22-3.01-4.14-3.01h-29.37c-15.16,0-28.5-9.69-33.18-24.11l-9.08-27.94c-.59-1.83-2.22-3.01-4.14-3.01s-3.55,1.18-4.14,3.01l-9.08,27.94c-4.69,14.42-18.02,24.11-33.18,24.11h-29.37c-1.92,0-3.55,1.18-4.14,3.01-.59,1.83.03,3.74,1.58,4.87l23.76,17.27c12.27,8.91,17.36,24.59,12.67,39.01l-9.08,27.94c-.59,1.83.03,3.74,1.58,4.87,1.55,1.13,3.56,1.13,5.12,0l23.76-17.27c6.13-4.46,13.32-6.68,20.51-6.68Z"/>
  </g>
  <g>
    <g>
      <g>
        <path class="st6" d="M217.62,166.2s-13.39,16,5.57,17.91c18.96,1.91,18.43,25.39,18.43,25.39l-56.87,38.61-22.44-55.83s-10.78-13.57,3.48-14.09c14.26-.52,9.04-15.13,18.96-18.78,9.91-3.65,32.87,6.78,32.87,6.78Z"/>
        <path class="st0" d="M184.52,248.88l-22.64-56.34c-.57-.73-5.46-7.2-3.51-11.42.98-2.12,3.47-3.27,7.41-3.42,7.7-.28,9.44-4.75,11.29-9.48,1.46-3.73,2.97-7.59,7.51-9.27,9.99-3.68,32.3,6.37,33.25,6.8l.6.27-.42.5c-.06.07-6.09,7.38-4.05,12.38,1.07,2.61,4.19,4.2,9.29,4.71,19.19,1.94,18.89,25.66,18.88,25.9v.26s-.22.14-.22.14l-57.38,38.96ZM189.92,159.14c-1.87,0-3.58.22-5,.75-4.12,1.52-5.48,5-6.93,8.69-1.88,4.82-3.83,9.81-12.19,10.12-3.53.13-5.73,1.08-6.54,2.83-1.76,3.83,3.38,10.38,3.44,10.44l.07.12,22.2,55.25,56.14-38.11c-.02-2.52-.76-22.89-17.99-24.63-5.5-.55-8.9-2.35-10.11-5.33-1.95-4.8,2.4-11.05,3.8-12.88-3.05-1.32-17.24-7.26-26.91-7.26Z"/>
      </g>
      <g>
        <path class="st3" d="M128.27,256.4c-7.17,5.87,35.44,32.41,35.44,32.41,37.57,8.7,64.35-4.17,68.87-4.87,4.52-.7.7-14.96,4.87-23.65l.7,4.17c19.83-16.7,41.79-12.58,41.79-12.58-3.13-31.3-10.45-46.84-20.57-55.42-16.88-14.3-36.17-12.35-36.17-12.35-1.74,28.17-24.35,48.35-24.35,48.35,0,0-33.39-21.57-33.04-54.26,0,0-37.22-.17-50.44,10.96,0,0-18.56,7.42-15.95,37.68,2.61,30.26,8.87,41.74,4.7,49.04-4.17,7.3,6.26,14.61,6.26,14.61,0,0,98.09,25.04,120.52,12.52"/>
        <path class="st0" d="M209.7,307.04c-11.89,0-27.78-1.7-47.57-5.1-27.03-4.65-51.64-10.9-51.89-10.96l-.16-.07c-.11-.08-10.76-7.65-6.41-15.27,2.3-4.03,1.3-9.39-.52-19.12-1.32-7.05-3.13-16.71-4.24-29.63-1.36-15.79,3.11-25.32,7.1-30.54,4.1-5.35,8.44-7.34,9.09-7.62,5.57-4.65,15.79-7.92,30.38-9.72,10.86-1.34,20.23-1.3,20.32-1.31h.5s0,.51,0,.51c-.32,30.34,29.07,51.29,32.49,53.62,2.61-2.46,22.3-21.81,23.9-47.74l.03-.42.42-.04c.19-.02,19.7-1.81,36.55,12.46,11.46,9.71,17.86,26.91,20.75,55.75l.07.66-.66-.12c-.22-.04-21.97-3.87-41.38,12.47l-.67.57-.55-3.31c-1.35,3.84-1.47,8.44-1.59,12.55-.14,5.23-.25,9.36-3,9.79-.69.11-2.01.54-3.83,1.14-9.2,3.02-33.62,11.04-65.23,3.73l-.15-.06c-1.47-.91-35.94-22.48-36.48-30.9-.06-.95.27-1.73.99-2.32l.63.77c-.46.38-.67.86-.63,1.48.5,7.75,34.16,28.96,35.94,30.07,31.29,7.22,54.63-.44,64.61-3.72,1.94-.64,3.22-1.06,3.99-1.18,1.92-.3,2.03-4.25,2.15-8.82.12-4.57.28-10.25,2.34-14.55l.68-1.43.81,4.88c17.7-14.45,37.1-12.73,40.88-12.23-2.89-28.18-9.17-44.99-20.34-54.45-15.15-12.83-32.48-12.43-35.38-12.26-1.94,27.83-24.26,48.05-24.49,48.25l-.28.25-.32-.21c-.33-.22-33.27-21.86-33.27-54.18-4.47.04-37.51.65-49.61,10.84l-.14.08c-.18.07-18.18,7.67-15.64,37.18,1.11,12.87,2.91,22.5,4.23,29.53,1.86,9.96,2.89,15.45.4,19.8-3.73,6.52,5.15,13.24,6.04,13.9,3.49.88,98.36,24.66,120.06,12.55l.49.87c-4.29,2.39-11.46,3.59-21.43,3.59Z"/>
      </g>
      <g>
        <path class="st3" d="M152.58,228.29c-3.13,13.22-22.87,30.35-22.87,30.35"/>
        <path class="st0" d="M130.03,259.01l-.66-.75c.2-.17,19.65-17.18,22.71-30.09l.97.23c-3.13,13.22-22.22,29.91-23.03,30.61Z"/>
      </g>
    </g>
    <g>
      <g>
        <g>
          <path class="st16" d="M208.99,109.63s9.57-3.63,7.02-12.91c-2.55-9.28-8.71-5.33-8.71-5.33,0,0,5.79-6.96-2.52-11.6-6.55-3.66-11.18,3.56-11.18,3.56,0,0-4.01-9.9-14.86-4.05-10.85,5.85-1.63,13.64-1.63,13.64,0,0-9.29-.48-8.97,7.52.33,8,9.6,8.12,9.6,8.12,0,0-4.27,2.39,1.28,6.15,11.54,7.82,29.96-5.1,29.96-5.1Z"/>
          <path class="st0" d="M187.9,117.74c-3.52,0-6.6-.86-9.14-2.58-2.1-1.42-3.13-2.86-3.07-4.28.03-.81.42-1.45.83-1.91-2.63-.37-8.59-1.94-8.86-8.48-.09-2.3.56-4.16,1.95-5.53,1.91-1.89,4.71-2.37,6.31-2.48-1.22-1.31-3.23-3.96-2.92-6.99.27-2.56,2.12-4.78,5.52-6.61,3.6-1.94,6.87-2.41,9.71-1.38,3.07,1.1,4.78,3.63,5.48,4.91,1.43-1.78,5.73-6.17,11.33-3.04,2.66,1.48,4.22,3.36,4.63,5.59.4,2.13-.35,4.09-1.04,5.35.93-.26,2.16-.4,3.44.09,2.02.78,3.51,2.86,4.43,6.2,2.53,9.21-6.43,13.15-7.26,13.49-.51.35-5.01,3.38-10.72,5.51-3.85,1.43-7.42,2.15-10.62,2.15ZM176.85,93.44c-.96,0-4.45.15-6.54,2.22-1.18,1.17-1.73,2.77-1.65,4.78.3,7.42,8.75,7.64,9.11,7.64l1.83.03-1.6.91s-1.27.73-1.31,1.9c-.04,1.03.87,2.21,2.63,3.4,11.12,7.54,29.21-4.97,29.39-5.1l.11-.06c.37-.14,9.11-3.59,6.72-12.31-.83-3.01-2.11-4.87-3.82-5.53-2.07-.8-4.12.48-4.14.49l-2.67,1.7,2.02-2.44s2.33-2.86,1.76-5.95c-.36-1.91-1.75-3.56-4.13-4.89-6.07-3.39-10.33,3.11-10.51,3.39l-.52.81-.36-.89s-1.59-3.8-5.27-5.12c-2.56-.92-5.55-.47-8.89,1.33-3.08,1.66-4.76,3.63-5,5.83-.39,3.69,3.41,6.96,3.45,6.99l1.13.95-1.48-.07s-.09,0-.25,0Z"/>
        </g>
        <g>
          <path class="st15" d="M212.52,110.82s-.25-10.81-19.36-5.78c-14.4,3.79-12.57,15.34-12.57,15.34l31.93-9.55Z"/>
          <path class="st0" d="M180.19,121.02l-.09-.56c-.02-.12-1.73-12.04,12.94-15.9,7.79-2.05,13.49-1.78,16.93.81,2.95,2.22,3.06,5.31,3.06,5.44v.38s-32.84,9.83-32.84,9.83ZM202.08,104.21c-2.53,0-5.47.44-8.79,1.31-12.13,3.19-12.42,11.86-12.26,14.2l30.96-9.26c-.12-.82-.61-2.79-2.64-4.31-1.73-1.29-4.18-1.94-7.26-1.94Z"/>
        </g>
        <g>
          <path class="st17" d="M230,169.4c0-2.01.14-7.29,6.93-7.29,6.79,0,6.42,5.63,6.29,8.91s-3.16,6.42-8.44,5.17c-5.28-1.26-4.78-4.78-4.78-6.79Z"/>
          <path class="st5" d="M237.07,176.98c-.72,0-1.53-.09-2.41-.3-5.27-1.25-5.2-4.72-5.17-6.8v-.48c0-5.17,2.5-7.79,7.43-7.79,2.24,0,3.95.6,5.09,1.79,1.94,2.02,1.79,5.3,1.7,7.47v.18c-.08,1.83-.96,3.5-2.41,4.6-.88.67-2.26,1.34-4.24,1.34ZM236.92,162.61c-5.76,0-6.43,3.88-6.43,6.79v.5c-.04,2-.09,4.74,4.39,5.81,2.94.7,4.79-.08,5.82-.86,1.21-.91,1.94-2.31,2-3.84v-.18c.1-2.12.22-5.02-1.42-6.73-.94-.98-2.41-1.48-4.37-1.48Z"/>
        </g>
        <g>
          <path class="st0" d="M216.04,180.97s4.78,3.27,3.02,6.03-17.6,4.53-28.91-8.8l25.9,2.77Z"/>
          <path d="M211.96,184.29c-9.26,0-17.22-2.93-18.75-4l.57-.82c2.16,1.51,17.74,6.9,31.11,1.48,9.68-3.92,15.87-12.54,18.4-25.64,3.66-18.92-3.74-30.15-10.58-36.24-10.17-9.05-26.59-12.74-39.06-8.78-9.97,3.16-17.46,10.92-20.55,21.27-3.97,13.29-.31,28.23,10.06,40.97l-.78.63c-10.57-13-14.31-28.27-10.24-41.88,3.19-10.67,10.92-18.67,21.2-21.93,12.99-4.12,29.45-.43,40.03,8.99,7.04,6.26,14.65,17.8,10.9,37.18-2.6,13.45-8.99,22.33-19,26.38-4.37,1.77-8.98,2.41-13.31,2.41Z"/>
          <g>
            <path class="st6" d="M182.77,172.84c-20.45-25.14-12.33-55.7,10.73-63.03,21.12-6.7,57.66,7.44,50.29,45.59-7.71,39.89-46.93,26.82-50.29,24.47"/>
            <path class="st0" d="M211.96,184.29c-9.26,0-17.22-2.93-18.75-4l.57-.82c2.16,1.51,17.74,6.9,31.11,1.48,9.68-3.92,15.87-12.54,18.4-25.64,3.66-18.92-3.74-30.15-10.58-36.24-10.17-9.05-26.59-12.74-39.06-8.78-9.97,3.16-17.46,10.92-20.55,21.27-3.97,13.29-.31,28.23,10.06,40.97l-.78.63c-10.57-13-14.31-28.27-10.24-41.88,3.19-10.67,10.92-18.67,21.2-21.93,12.99-4.12,29.45-.43,40.03,8.99,7.04,6.26,14.65,17.8,10.9,37.18-2.6,13.45-8.99,22.33-19,26.38-4.37,1.77-8.98,2.41-13.31,2.41Z"/>
          </g>
          <g>
            <path class="st16" d="M193.5,109.81c-13.37,4.25-21.71,16.31-22.37,30.6,16.29,11.8,19.86-11.75,19.86-11.75,11.4,7.71,17.43-6.03,17.43-6.03,7.04,9.39,12.07,1.68,12.07,1.68,6.73,6.33,14.27,4.84,19.33,2.55-9.73-16.35-31.71-21.69-46.31-17.05Z"/>
            <path class="st0" d="M179.47,144.22c-2.61,0-5.5-1.14-8.63-3.41l-.22-.16v-.27c.71-14.93,9.41-26.83,22.73-31.06h0c14.81-4.7,36.95.56,46.89,17.27l.29.48-.51.23c-5.15,2.33-12.67,3.79-19.46-2.26-.71.87-2.46,2.65-4.99,2.73-2.36.07-4.73-1.34-7.05-4.21-.94,1.79-3.69,6.27-8.25,7.58-2.82.82-5.82.26-8.92-1.66-.52,2.68-2.68,11.58-8.63,14.08-1.03.43-2.11.65-3.24.65ZM171.64,140.17c4.1,2.91,7.69,3.75,10.68,2.49,6.37-2.67,8.15-13.95,8.17-14.06l.12-.78.66.44c3.06,2.07,5.99,2.72,8.71,1.94,5.17-1.49,7.95-7.7,7.98-7.76l.34-.78.51.68c2.27,3.02,4.56,4.52,6.7,4.45,2.76-.09,4.53-2.72,4.55-2.75l.33-.5.43.41c6.28,5.91,13.3,4.8,18.26,2.69-9.83-15.9-31.14-20.88-45.44-16.34h0c-12.83,4.07-21.24,15.51-22.01,29.88Z"/>
          </g>
          <g>
            <path class="st6" d="M175.56,159.59s-13.83,2.01-12.82-11.31,17.22-8.3,18.73-3.77"/>
            <path class="st0" d="M173.66,160.21c-2.25,0-5.94-.42-8.55-2.86-2.2-2.06-3.17-5.12-2.87-9.11.53-7.03,5.09-8.63,7.75-8.96,5.21-.64,11.02,2.3,11.95,5.07l-.95.32c-.79-2.36-6.31-4.96-10.88-4.39-2.89.36-6.43,2.04-6.88,8.04-.28,3.67.58,6.46,2.55,8.3,3.56,3.32,9.64,2.49,9.7,2.48l.14.99c-.09.01-.85.12-1.98.12Z"/>
          </g>
          <g>
            <path class="st6" d="M174.56,152.3s-2.77-4.78-6.29-6.03"/>
            <path class="st0" d="M174.12,152.55s-2.72-4.63-6.02-5.81l.34-.94c3.65,1.3,6.43,6.05,6.55,6.25l-.87.5Z"/>
          </g>
          <g>
            <path class="st0" d="M205.08,151.03s.05,2.15-.24,2.83.09,1.51.96,1.39,1.7-3.28,1.35-5.77c-.35-2.49-.63-2.7-1.99-2.39-1.35.32.1,2.52-.08,3.95Z"/>
            <path class="st0" d="M205.63,155.76c-.44,0-.83-.18-1.09-.52-.33-.43-.39-1.04-.17-1.58.17-.4.22-1.77.2-2.62v-.04s0-.04,0-.04c.06-.45-.1-1.05-.25-1.64-.21-.83-.42-1.62-.07-2.2.17-.27.43-.45.78-.54.56-.13,1.15-.23,1.63.09.55.38.75,1.18.97,2.71.17,1.21.08,2.69-.23,3.96-.25,1.02-.72,2.26-1.55,2.38-.08.01-.16.02-.23.02ZM205.58,151.05c0,.45.02,2.28-.28,3-.09.2-.07.44.04.58.03.04.12.16.39.12.41-.18,1.27-2.74.92-5.21-.08-.55-.26-1.83-.54-2.03-.13-.09-.51-.02-.83.06-.12.03-.15.07-.15.08-.13.21.05.92.18,1.43.17.66.35,1.34.28,1.97Z"/>
          </g>
          <g>
            <path class="st0" d="M227.05,150.75s.05,2.15-.24,2.83.09,1.51.96,1.39,1.7-3.28,1.35-5.77-.63-2.7-1.99-2.39.1,2.52-.08,3.95Z"/>
            <path class="st0" d="M227.61,155.48c-.44,0-.83-.18-1.09-.52-.33-.42-.39-1.04-.17-1.58.17-.4.22-1.77.2-2.62v-.04s0-.04,0-.04c.06-.45-.1-1.05-.25-1.64-.21-.83-.42-1.62-.07-2.2.17-.27.43-.45.78-.54.56-.13,1.15-.23,1.63.09.55.38.75,1.18.97,2.71.33,2.36-.33,6.14-1.77,6.34-.08.01-.16.02-.23.02ZM227.55,150.78c0,.45.02,2.28-.28,3-.09.2-.07.44.04.58.03.04.12.16.39.12.41-.18,1.27-2.74.92-5.21-.08-.55-.26-1.83-.54-2.03-.13-.09-.51-.02-.83.06-.12.03-.14.07-.15.08-.13.21.05.92.18,1.43.17.66.35,1.34.28,1.97Z"/>
          </g>
        </g>
        <g>
          <path class="st17" d="M166.76,165.13c0-2.01.14-7.29,6.93-7.29,6.79,0,6.42,5.63,6.29,8.91s-3.16,6.42-8.44,5.17c-5.28-1.26-4.78-4.78-4.78-6.79Z"/>
          <path class="st5" d="M173.84,172.7c-.72,0-1.53-.09-2.41-.3-5.27-1.25-5.21-4.72-5.17-6.8v-.48c0-5.17,2.5-7.79,7.43-7.79,2.24,0,3.95.6,5.09,1.79,1.94,2.02,1.79,5.3,1.7,7.47v.18c-.08,1.83-.96,3.5-2.41,4.6-.88.67-2.26,1.34-4.24,1.34ZM173.69,158.33c-5.76,0-6.43,3.88-6.43,6.79v.5c-.04,2-.09,4.74,4.39,5.81,2.94.7,4.79-.08,5.82-.86,1.21-.91,1.94-2.31,2-3.84v-.18c.1-2.12.22-5.02-1.42-6.73-.94-.98-2.41-1.48-4.37-1.48Z"/>
        </g>
        <ellipse class="st1" cx="195.3" cy="155.95" rx="3.39" ry="5.03" transform="translate(.47 312.49) rotate(-77.39)"/>
        <ellipse class="st1" cx="236.79" cy="156.45" rx="3.39" ry="5.03" transform="translate(76.72 390.81) rotate(-89.12)"/>
      </g>
      <g>
        <path class="st0" d="M216.1,162.65l-.08-1s3.48-.29,4.47-2.15c.46-.87.31-2.01-.47-3.38-.78-1.38-1.78-2.17-2.96-2.35-2.5-.38-5.09,2.01-5.12,2.03l-.68-.73c.12-.11,2.97-2.75,5.95-2.29,1.5.23,2.73,1.19,3.67,2.85.96,1.69,1.12,3.15.48,4.34-1.25,2.34-5.11,2.66-5.28,2.67Z"/>
        <rect class="st0" x="203.33" y="140.45" width="7.8" height="1" transform="translate(-4.44 6.75) rotate(-1.85)"/>
        <rect class="st0" x="226.84" y="138.3" width="1" height="6.29" transform="translate(76.92 362.96) rotate(-87.71)"/>
        <path class="st0" d="M212.64,170.3l-.51-.86c3.99-2.34,5.8-.77,5.88-.7l-.66.75s-1.41-1.12-4.71.82Z"/>
      </g>
    </g>
    <g>
      <path class="st7" d="M245.27,230.37c-2.09,16.7-5.22,21.39-7.83,29.91"/>
      <path class="st0" d="M237.92,260.43l-.96-.29c.69-2.24,1.42-4.25,2.13-6.2,2.04-5.58,4.14-11.35,5.68-23.63l.99.12c-1.55,12.39-3.67,18.21-5.73,23.85-.74,2.03-1.44,3.94-2.12,6.15Z"/>
    </g>
  </g>
  <polygon class="st0" points="205.19 434.76 204.53 434.01 209.01 429.97 193.67 426.69 216.69 418.26 217.03 419.2 197.27 426.43 211.14 429.41 205.19 434.76"/>
  <polygon class="st0" points="148.15 428.21 122.11 428.21 122.11 427.21 141.98 427.21 122.99 420.88 123.31 419.93 148.15 428.21"/>
  <path class="st0" d="M109.76,508.44l-.97-.23c.16-.67,15.91-67.02,20.15-81.42,3.5-11.9-5.13-42-10.85-61.92-1.24-4.31-2.3-8.03-3.14-11.17-4.85-18.17,5.66-41.94,5.77-42.18l.91.41c-.1.23-10.47,23.69-5.72,41.51.84,3.13,1.9,6.85,3.14,11.15,5.75,20.03,14.43,50.29,10.84,62.48-4.23,14.37-19.98,80.7-20.13,81.37Z"/>
  <path class="st0" d="M115.07,339.3l-.33-.94c.28-.1,28.28-10.02,34.24-28.67l.95.3c-6.12,19.14-34.58,29.21-34.87,29.31Z"/>
  <polygon class="st0" points="178 352.31 163.76 349.94 163.93 348.96 177.87 351.28 206.69 338.82 207.09 339.73 178 352.31"/>
  <path class="st0" d="M179.78,396.43l-2.37-44.97.16-.07,10.87-20.19c2.24-6.76-1.58-25.3-1.61-25.49l-.08-.38,10.3-5.15,6.45,27.41-9.56,18.33-15.49,6.2,2.33,44.25-1,.05ZM187.89,305.9c.56,2.77,3.68,19.09,1.47,25.71l-10.34,19.21,14.2-5.68,9.22-17.67-6.07-25.81-8.48,4.24Z"/>
  <polygon class="st0" points="195.07 499.79 194.08 499.64 206.38 419.92 184.5 348.81 185.46 348.52 207.4 419.85 207.38 419.96 195.07 499.79"/>
  <g>
    <path class="st12" d="M264.28,287.88c-9.91,58.96-10.96,121.57-10.96,121.57,5.74,8.87,19.3,3.13,19.3,3.13-1.57-38.09,17.74-137.22,17.74-137.22,0,0,10.52-15.65,21.39-15.13l1.22-10.43-5.57-2.78s-8.17-.35-31.13,9.57"/>
    <path class="st5" d="M263.52,414.88c-3.85,0-8.01-1.13-10.62-5.16l-.08-.13v-.15c.01-.63,1.16-63.32,10.97-121.64l.99.17c-9.56,56.83-10.88,117.83-10.95,121.34,5.01,7.51,16.25,3.71,18.29,2.94-1.42-37.97,17.57-135.99,17.76-136.98l.08-.18c.43-.64,10.46-15.36,21.27-15.36h.1l1.12-9.63-5.15-2.57c-1,0-9.61.37-30.81,9.53l-.4-.92c22.8-9.85,31.01-9.62,31.35-9.61l.2.05,5.88,2.94-1.31,11.25-.47-.02c-10.05-.49-20.06,13.61-20.9,14.83-.71,3.69-19.23,99.95-17.71,137v.35s-.3.14-.3.14c-.08.03-4.44,1.84-9.3,1.84Z"/>
  </g>
  <g>
    <path class="st6" d="M116.63,248.75c9.45,26.99,40.5,54.92,55.49,60.53,14.99,5.61,66.53,7.36,83.3-15.91,0,0,10.46,4.88,16.79,1.69,6.68-3.37,2.45-8.62,2.45-8.62,0,0,5.19,1.88,7.32-2.51s-1.09-7.49-1.09-7.49c0,0,5.73-.63,6.31-4.89s-1.84-6.3-1.84-6.3c3.14,2.33,7.14,1,7.98-4.17.84-5.16-6.96-14.43-18.04-18.85-16.11-6.43-31.88,3.29-36.08,5.36-4.2,2.07-45.91,16.4-51.65,11.07,0,0-17.22-17.22-26.61-38.61"/>
    <path class="st0" d="M199.51,313.36c-11.81,0-22.1-1.56-27.56-3.61-15.98-5.98-46.45-34.15-55.79-60.83l.94-.33c9.1,25.99,39.76,54.45,55.2,60.23,7.39,2.76,23.76,4.63,40.75,2.85,25.55-2.68,36.92-11.58,41.96-18.58l.24-.34.38.17c.1.05,10.31,4.74,16.35,1.7,1.95-.98,3.09-2.21,3.41-3.66.47-2.18-1.1-4.18-1.12-4.2l-1.1-1.38,1.66.6c.2.07,4.8,1.67,6.7-2.26,1.94-4-.86-6.79-.98-6.91l-.76-.74,1.05-.12c.05,0,5.35-.64,5.87-4.46.53-3.92-1.58-5.78-1.67-5.86l.62-.78c1.35,1,2.88,1.27,4.19.74,1.55-.63,2.62-2.26,3-4.58.8-4.88-6.77-13.94-17.73-18.31-14.49-5.78-28.88,1.79-34.3,4.64-.54.28-1,.53-1.37.71-3.4,1.68-46.1,16.66-52.21,10.99-.19-.19-17.4-17.54-26.73-38.77l.92-.4c9.24,21.06,26.33,38.29,26.5,38.46,5.33,4.95,46.58-8.95,51.07-11.17.36-.18.81-.42,1.35-.7,5.53-2.91,20.22-10.63,35.14-4.68,11.56,4.61,19.22,14.04,18.35,19.4-.44,2.68-1.72,4.58-3.61,5.35-1.03.42-2.15.45-3.25.12.56,1.12,1.02,2.77.72,4.99-.48,3.58-4.16,4.8-5.87,5.17.88,1.22,2.26,3.94.61,7.36-1.63,3.36-4.91,3.35-6.7,3.06.48.93.98,2.38.64,3.95-.38,1.76-1.7,3.22-3.94,4.35-5.86,2.96-14.87-.65-16.85-1.51-5.28,7.11-16.91,15.98-42.43,18.66-4.65.49-9.25.7-13.64.7Z"/>
  </g>
  <path class="st0" d="M274.67,286.95c-.16,0-.32-.08-.41-.22-3.53-5.19-14.74-5.54-14.86-5.54-.28,0-.49-.24-.49-.51,0-.28.2-.49.51-.49.48.01,11.84.37,15.66,5.98.16.23.1.54-.13.69-.09.06-.18.09-.28.09Z"/>
  <path class="st0" d="M280.9,276.95c-.12,0-.23-.04-.33-.12-8.76-7.5-19.79-8.05-19.9-8.05-.28-.01-.49-.24-.48-.52.01-.28.24-.51.52-.48.11,0,11.48.56,20.51,8.29.21.18.23.5.05.71-.1.12-.24.17-.38.17Z"/>
  <path class="st0" d="M285.37,265.75c-.15,0-.3-.07-.4-.2-6.67-8.88-24.03-10.75-24.21-10.77-.27-.03-.47-.27-.45-.55.03-.27.28-.46.55-.45.73.07,17.97,1.94,24.9,11.16.17.22.12.53-.1.7-.09.07-.2.1-.3.1Z"/>
  <g>
    <path class="st12" d="M288.91,255.66c-1.24-.07-5.25,2.26-4.65,4.61.61,2.35,2.86,5.5,5.82,3.02s.07-7.56-1.17-7.63Z"/>
    <path class="st0" d="M287.95,264.69c-.34,0-.64-.06-.89-.14-1.65-.53-2.83-2.47-3.27-4.16-.23-.88.05-1.83.8-2.75,1.19-1.45,3.37-2.53,4.36-2.48h0c.97.06,2.07,1.66,2.58,3.18.72,2.19.32,4.13-1.12,5.33-.93.78-1.77,1.02-2.46,1.02ZM288.85,256.16c-.62,0-2.46.86-3.49,2.12-.55.67-.75,1.3-.61,1.87.36,1.38,1.32,3.04,2.61,3.46.76.24,1.57.01,2.4-.69,1.46-1.22,1.16-3.1.85-4.1-.48-1.58-1.44-2.61-1.73-2.64-.01,0-.02,0-.03,0Z"/>
  </g>
  <g>
    <path class="st3" d="M150.02,191.88c8.87,4.7,24.52,39.13,24.52,39.13-24,10.96-53.74,36.52-53.74,36.52,0,0-5.45-7.3-8.06-17.74"/>
    <path class="st0" d="M120.72,268.26l-.32-.43c-.06-.07-5.54-7.5-8.14-17.92l.97-.24c2.2,8.8,6.48,15.41,7.67,17.13,3.68-3.11,30.82-25.77,52.98-36.03-1.88-4.07-16.02-34.17-24.09-38.44l.47-.88c8.92,4.72,24.1,37.95,24.74,39.37l.21.45-.45.21c-23.66,10.8-53.32,36.19-53.62,36.45l-.41.35Z"/>
  </g>
  <path d="M365.34,408.22c-.5-12.34,7.1-18.43,7.42-18.68l.62.79c-.08.06-7.51,6.05-7.04,17.86l-1,.04Z"/>
  <path d="M375.03,408.6l-1-.05c.62-12.16,6.54-15.1,6.79-15.22l.43.9c-.06.03-5.64,2.86-6.22,14.37Z"/>
  <g>
    <path class="st10" d="M324.28,309.54s9.39,26.35,32.87,26.61"/>
    <path class="st0" d="M357.15,336.64c-23.55-.26-33.24-26.67-33.33-26.94l.94-.34c.09.26,9.55,26.02,32.41,26.28v1Z"/>
  </g>
  <g>
    <path class="st3" d="M322.72,540.41s-3.13-107.22,9.39-133.04"/>
    <path class="st0" d="M322.22,540.42c-.03-1.07-2.99-107.64,9.44-133.28l.9.44c-12.33,25.42-9.37,131.74-9.34,132.81l-1,.03Z"/>
  </g>
</svg>