<?xml version="1.0" encoding="UTF-8"?>
<svg id="Layer_1" xmlns="http://www.w3.org/2000/svg" xmlns:xlink="http://www.w3.org/1999/xlink" version="1.1" viewBox="0 0 276 369">
  <!-- Generator: Adobe Illustrator 29.8.2, SVG Export Plug-In . SVG Version: 2.1.1 Build 3)  -->
  <defs>
    <style>
      .st0 {
        fill: none;
      }

      .st1 {
        fill: #fff;
      }

      .st2 {
        fill: #ff6637;
      }

      .st3 {
        fill: #49ac4f;
      }

      .st4 {
        clip-path: url(#clippath);
      }
    </style>
    <clipPath id="clippath">
      <circle class="st0" cx="139.47" cy="228.04" r="134.3"/>
    </clipPath>
  </defs>
  <g class="st4">
    <g>
      <circle class="st2" cx="139.47" cy="228.04" r="134.3"/>
      <g>
        <path class="st3" d="M81.29,369.41l58.17-141.37s-.63-143.47-.11-143.98c-44.54-8.6-264.16,93.89-58.06,285.35Z"/>
        <path class="st1" d="M81.67,371.12l-1.06-.98C37.75,330.32,10.36,291.53-.78,254.85c-9.44-31.07-7.3-60.48,6.37-87.42,17.87-35.22,50.85-56.72,68.92-66.4,24.65-13.21,51.39-20.59,65.03-17.96l1.85.36-1.09,1.09c-.34,6.05-.05,95.94.16,143.52v.2s-.08.19-.08.19l-58.72,142.7ZM133.53,84.57c-28.46,0-98.02,28.33-126.15,83.77-13.43,26.46-15.53,55.37-6.24,85.93,10.95,36.04,37.79,74.2,79.79,113.43l57.55-139.85c-.01-2.91-.16-37.23-.25-71.6-.14-53.53-.08-67.52.14-71.35-1.44-.22-3.06-.33-4.83-.33Z"/>
      </g>
    </g>
  </g>
  <g>
    <path class="st1" d="M40.98,210.78v-3.28l6.06-9.47,2.3,1.55-5.36,8.38.26.43h9.53v2.38h-12.79ZM49.1,213.99v-11.12h2.79v11.12h-2.79Z"/>
    <path class="st1" d="M59.91,214.4c-1.19,0-2.22-.22-3.07-.67-.86-.45-1.51-1.05-1.97-1.82s-.68-1.62-.68-2.55h2.91c0,.75.25,1.36.76,1.82.5.46,1.19.69,2.05.69.58,0,1.08-.11,1.5-.33.42-.22.74-.52.97-.91.23-.39.34-.84.34-1.35,0-.77-.25-1.39-.74-1.88-.5-.49-1.18-.73-2.04-.73-.42,0-.8.06-1.12.18-.32.12-.6.27-.84.44l-1.4-2.38,5.13-3.49-.21-.36h-6.66v-2.57h10.15v3.11l-5.25,3.49-1.64-.3c.27-.08.56-.15.87-.2.31-.05.65-.07,1.02-.07,1.18,0,2.19.2,3.03.61s1.49.96,1.95,1.67.68,1.53.68,2.45v.28c0,.91-.23,1.73-.68,2.48s-1.11,1.34-1.96,1.78c-.85.44-1.88.66-3.08.66Z"/>
    <path class="st1" d="M68.44,217.55l-2.3-.89,2.15-6.17,2.49.92-2.34,6.15Z"/>
    <path class="st1" d="M77.71,214.42c-1.19,0-2.24-.19-3.16-.56s-1.62-.92-2.13-1.63c-.5-.71-.76-1.56-.76-2.55,0-.65.11-1.23.33-1.73.22-.5.53-.93.94-1.29.4-.36.87-.63,1.39-.83v-.26c-.41-.18-.78-.42-1.12-.71-.33-.29-.6-.65-.79-1.07-.19-.42-.29-.92-.29-1.49,0-.94.25-1.72.74-2.35.5-.63,1.17-1.11,2.01-1.42.84-.32,1.78-.48,2.82-.48s2,.16,2.84.48,1.51.79,2,1.42c.49.63.73,1.42.73,2.35,0,.57-.1,1.06-.29,1.49-.19.43-.45.78-.78,1.07-.33.29-.7.53-1.13.71v.26c.54.2,1.01.48,1.42.84s.72.79.94,1.3c.22.5.33,1.07.33,1.71,0,.99-.25,1.84-.75,2.55-.5.71-1.21,1.25-2.12,1.63-.91.38-1.97.56-3.19.56ZM77.71,211.93c.65,0,1.21-.1,1.67-.3.46-.2.82-.49,1.08-.87.26-.38.39-.84.39-1.38s-.13-1-.38-1.37c-.26-.38-.62-.66-1.08-.86-.47-.2-1.03-.3-1.68-.3s-1.19.1-1.66.3c-.47.2-.83.49-1.08.86-.26.38-.38.83-.38,1.37s.13,1,.38,1.38c.25.38.62.67,1.08.87.47.2,1.02.3,1.66.3ZM77.71,204.59c.81,0,1.45-.17,1.92-.52.48-.35.71-.85.71-1.52s-.24-1.19-.71-1.52c-.47-.33-1.12-.5-1.92-.5s-1.45.17-1.92.51c-.48.34-.71.84-.71,1.51s.24,1.17.72,1.52c.48.35,1.12.52,1.92.52Z"/>
    <path class="st1" d="M88.05,206.93c-.84,0-1.52-.18-2.06-.55s-.94-.87-1.2-1.49c-.26-.62-.39-1.31-.39-2.06v-.55c0-.81.13-1.52.4-2.14.27-.62.68-1.1,1.22-1.45s1.22-.52,2.03-.52,1.5.17,2.04.52.94.83,1.21,1.45c.27.62.4,1.33.4,2.14v.55c0,.75-.13,1.44-.39,2.06-.26.62-.66,1.12-1.19,1.49-.53.37-1.22.55-2.07.55ZM88.05,204.95c.51,0,.89-.19,1.13-.56.24-.38.36-.98.36-1.82,0-.89-.12-1.52-.37-1.88s-.62-.54-1.12-.54-.87.18-1.12.54c-.25.36-.37.98-.37,1.86s.12,1.45.37,1.83c.25.38.62.57,1.12.57ZM89.14,213.99l5.72-15.53h2.47l-5.72,15.53h-2.47ZM98.33,214.31c-.82,0-1.5-.18-2.04-.55s-.94-.86-1.2-1.49c-.26-.62-.39-1.31-.39-2.06v-.55c0-.81.13-1.52.4-2.14.27-.62.68-1.1,1.22-1.45s1.22-.52,2.01-.52,1.5.17,2.04.52.94.83,1.21,1.45c.27.62.4,1.33.4,2.14v.55c0,.75-.13,1.44-.39,2.06-.26.62-.66,1.12-1.19,1.49-.53.37-1.22.55-2.07.55ZM98.33,212.34c.51,0,.89-.19,1.14-.56.25-.38.37-.98.37-1.82,0-.89-.13-1.52-.38-1.88-.25-.36-.63-.54-1.13-.54s-.87.18-1.12.54-.37.98-.37,1.86.12,1.45.37,1.83c.25.38.62.57,1.12.57Z"/>
  </g>
  <g>
    <path class="st1" d="M176.53,214.4c-1.22,0-2.27-.24-3.14-.72s-1.54-1.12-2-1.93c-.46-.8-.69-1.68-.69-2.63h2.92c0,.54.12,1.01.37,1.43.25.41.59.73,1.03.97.44.23.95.35,1.53.35s1.13-.13,1.56-.38.77-.6,1.01-1.04c.24-.44.36-.94.36-1.51s-.12-1.05-.35-1.5c-.23-.45-.57-.8-1-1.06-.43-.26-.95-.39-1.56-.39-.51,0-.99.1-1.45.3s-.81.46-1.06.79h-2.81l.79-8.59h9.02v2.57h-7.7l1.08-.83-.51,5.36-.72-.19c.41-.48.91-.88,1.51-1.19.6-.31,1.35-.47,2.25-.47,1.15,0,2.13.23,2.94.7.81.47,1.42,1.09,1.85,1.86.42.77.64,1.61.64,2.52v.28c0,.92-.23,1.79-.68,2.6s-1.12,1.46-1.99,1.97-1.94.75-3.2.75Z"/>
    <path class="st1" d="M189.93,214.44c-1.15,0-2.12-.19-2.92-.57-.8-.38-1.45-.92-1.95-1.61-.5-.69-.86-1.48-1.08-2.37-.23-.89-.34-1.84-.34-2.85v-.94c0-2.55.64-4.49,1.92-5.8,1.28-1.31,3.17-1.97,5.65-1.97.54,0,1.04.01,1.51.04.47.03.94.07,1.4.13v2.53c-.47-.04-.95-.08-1.44-.12-.49-.04-1.02-.05-1.58-.05-1.19,0-2.13.21-2.81.62-.68.41-1.17,1.02-1.46,1.82-.29.8-.44,1.78-.44,2.95v1.4l-.68.96c.01-1.09.23-2,.65-2.71.42-.72,1-1.26,1.73-1.62s1.58-.54,2.53-.54c1.11,0,2.05.22,2.83.66.78.44,1.38,1.05,1.8,1.83.42.78.63,1.69.63,2.72s-.24,2.03-.72,2.86c-.48.83-1.17,1.47-2.05,1.94-.89.46-1.95.69-3.18.69ZM189.87,211.91c.67,0,1.23-.12,1.69-.37.46-.25.81-.59,1.05-1.03.24-.44.36-.94.36-1.51s-.12-1.09-.35-1.52c-.23-.43-.57-.77-1.02-1.02-.45-.25-.99-.37-1.63-.37s-1.17.11-1.67.33c-.5.22-.9.55-1.19.98-.29.43-.44.97-.44,1.61,0,.55.12,1.05.35,1.49.23.44.59.79,1.06,1.04.47.25,1.07.38,1.78.38Z"/>
    <path class="st1" d="M198.5,217.55l-2.3-.89,2.15-6.17,2.49.92-2.34,6.15Z"/>
    <path class="st1" d="M202.18,213.99v-2.98c0-.65.1-1.22.31-1.7.21-.48.54-.91,1.01-1.29.47-.38,1.09-.73,1.87-1.07l2.64-1.17c.67-.3,1.17-.66,1.51-1.1.34-.43.51-.99.51-1.67,0-.74-.22-1.33-.66-1.79-.44-.45-1.07-.68-1.89-.68s-1.46.23-1.9.69c-.45.46-.67,1.09-.67,1.88h-2.91c0-.95.2-1.82.61-2.59.4-.78,1.01-1.39,1.83-1.84.82-.45,1.83-.67,3.05-.67s2.23.22,3.04.66c.81.44,1.42,1.03,1.83,1.76s.62,1.55.62,2.46v.28c0,1.16-.33,2.13-.98,2.9-.65.77-1.61,1.44-2.87,1.99l-2.64,1.17c-.5.21-.84.44-1.04.67-.2.23-.3.55-.3.95v1.36l-.72-.79h8.62v2.57h-10.85Z"/>
    <path class="st1" d="M217.48,206.93c-.84,0-1.52-.18-2.06-.55s-.94-.87-1.2-1.49c-.26-.62-.39-1.31-.39-2.06v-.55c0-.81.13-1.52.4-2.14.27-.62.68-1.1,1.22-1.45s1.22-.52,2.03-.52,1.5.17,2.04.52.94.83,1.21,1.45c.27.62.4,1.33.4,2.14v.55c0,.75-.13,1.44-.39,2.06-.26.62-.66,1.12-1.19,1.49-.53.37-1.22.55-2.07.55ZM217.48,204.95c.51,0,.89-.19,1.13-.56.24-.38.36-.98.36-1.82,0-.89-.12-1.52-.37-1.88s-.62-.54-1.12-.54-.87.18-1.12.54c-.25.36-.37.98-.37,1.86s.12,1.45.37,1.83c.25.38.62.57,1.12.57ZM218.56,213.99l5.72-15.53h2.47l-5.72,15.53h-2.47ZM227.75,214.31c-.82,0-1.5-.18-2.04-.55s-.94-.86-1.2-1.49c-.26-.62-.39-1.31-.39-2.06v-.55c0-.81.13-1.52.4-2.14.27-.62.68-1.1,1.22-1.45s1.22-.52,2.01-.52,1.5.17,2.04.52.94.83,1.21,1.45c.27.62.4,1.33.4,2.14v.55c0,.75-.13,1.44-.39,2.06-.26.62-.66,1.12-1.19,1.49-.53.37-1.22.55-2.07.55ZM227.75,212.34c.51,0,.89-.19,1.14-.56.25-.38.37-.98.37-1.82,0-.89-.13-1.52-.38-1.88-.25-.36-.63-.54-1.13-.54s-.87.18-1.12.54-.37.98-.37,1.86.12,1.45.37,1.83c.25.38.62.57,1.12.57Z"/>
  </g>
  <g>
    <path class="st1" d="M153.99,236.56v-8.17h1.79l4.15,7.19h.36l-.22.2v-7.39h1.05v8.17h-1.81l-4.15-7.19h-.36l.22-.2v7.39h-1.03Z"/>
    <path class="st1" d="M162.63,236.56l2.94-8.17h1.86l3.03,8.17h-1.13l-2.74-7.46.54.27h-1.32l.57-.27-2.65,7.46h-1.1ZM164.39,234.12l.37-.98h3.53l.37.98h-4.27ZM167.45,227.47c-.2,0-.38-.03-.52-.08-.15-.05-.28-.11-.4-.18-.12-.07-.24-.13-.36-.18-.12-.05-.27-.08-.44-.08s-.35.04-.52.12-.3.19-.41.33l-.2-.69c.1-.15.26-.28.46-.38.2-.1.43-.16.69-.16.2,0,.38.03.52.08.15.05.28.11.4.18.12.07.24.13.37.18.13.05.27.08.44.08.18,0,.35-.04.52-.12s.3-.19.41-.33l.2.69c-.11.15-.27.28-.46.38-.2.11-.43.16-.69.16Z"/>
    <path class="st1" d="M175.37,236.76c-.73,0-1.36-.13-1.89-.39-.53-.26-.97-.6-1.31-1.03-.34-.42-.6-.88-.77-1.37-.17-.48-.25-.95-.25-1.4v-.25c0-.49.09-.97.26-1.47s.43-.94.78-1.35c.35-.41.79-.73,1.32-.98.53-.25,1.15-.37,1.86-.37s1.34.12,1.86.37.96.57,1.32.98c.35.41.61.86.78,1.35.17.49.26.98.26,1.47v.25c0,.45-.08.92-.25,1.4-.17.49-.42.94-.77,1.37-.34.43-.78.77-1.31,1.03-.53.26-1.16.39-1.89.39ZM175.37,235.76c.48,0,.91-.09,1.29-.27.38-.18.71-.42.98-.73.27-.31.47-.66.62-1.05.14-.39.21-.8.21-1.24,0-.46-.07-.88-.21-1.28-.14-.4-.35-.74-.62-1.05-.27-.3-.6-.54-.98-.71-.38-.17-.82-.26-1.29-.26s-.91.09-1.29.26c-.38.17-.71.41-.98.71-.27.3-.47.65-.62,1.05-.14.4-.21.82-.21,1.28,0,.43.07.84.21,1.24.14.39.35.74.62,1.05.27.31.6.55.98.73.38.18.82.27,1.29.27Z"/>
    <path class="st1" d="M187.5,236.76c-.75,0-1.38-.13-1.91-.39-.53-.26-.95-.6-1.27-1.02-.32-.42-.56-.87-.71-1.36-.15-.49-.22-.96-.22-1.42v-.25c0-.49.08-.99.23-1.48.15-.49.39-.94.71-1.34.32-.4.74-.73,1.25-.97.52-.25,1.13-.37,1.85-.37s1.36.13,1.88.38.94.61,1.24,1.06.49.99.56,1.61h-1.12c-.06-.46-.21-.85-.45-1.15-.24-.3-.54-.53-.9-.68s-.77-.22-1.21-.22c-.49,0-.91.08-1.28.25s-.67.4-.91.71c-.24.3-.43.65-.55,1.05s-.18.83-.18,1.29.06.86.18,1.25.31.75.56,1.05c.25.31.56.55.93.72.37.18.81.26,1.31.26.7,0,1.29-.17,1.77-.53.48-.35.77-.86.87-1.52h1.12c-.07.56-.26,1.07-.57,1.53-.3.46-.72.83-1.25,1.11-.53.28-1.18.41-1.94.41Z"/>
    <path class="st1" d="M196.51,236.76c-.73,0-1.36-.13-1.89-.39-.53-.26-.97-.6-1.31-1.03-.34-.42-.6-.88-.77-1.37-.17-.48-.25-.95-.25-1.4v-.25c0-.49.09-.97.26-1.47s.43-.94.78-1.35c.35-.41.79-.73,1.32-.98.53-.25,1.15-.37,1.86-.37s1.34.12,1.86.37.96.57,1.32.98c.35.41.61.86.78,1.35.17.49.26.98.26,1.47v.25c0,.45-.08.92-.25,1.4-.17.49-.42.94-.77,1.37-.34.43-.78.77-1.31,1.03-.53.26-1.16.39-1.89.39ZM196.51,235.76c.48,0,.91-.09,1.29-.27.38-.18.71-.42.98-.73.27-.31.47-.66.62-1.05.14-.39.21-.8.21-1.24,0-.46-.07-.88-.21-1.28-.14-.4-.35-.74-.62-1.05-.27-.3-.6-.54-.98-.71-.38-.17-.82-.26-1.29-.26s-.91.09-1.29.26c-.38.17-.71.41-.98.71-.27.3-.47.65-.62,1.05-.14.4-.21.82-.21,1.28,0,.43.07.84.21,1.24.14.39.35.74.62,1.05.27.31.6.55.98.73.38.18.82.27,1.29.27Z"/>
    <path class="st1" d="M202.53,236.56v-8.17h1.79l4.15,7.19h.36l-.22.2v-7.39h1.05v8.17h-1.81l-4.15-7.19h-.36l.22-.2v7.39h-1.03Z"/>
    <path class="st1" d="M211.14,229.38v-.99h6.07v.99h-6.07ZM213.63,236.56v-7.41h1.1v7.41h-1.1Z"/>
    <path class="st1" d="M218.69,236.56v-8.22h1.1v8.22h-1.1ZM219.37,233.61v-.97h2.19c.34,0,.64-.07.88-.21s.44-.34.57-.59c.13-.25.2-.54.2-.86s-.07-.61-.2-.86c-.13-.25-.33-.45-.57-.59s-.54-.22-.88-.22h-2.19v-.96h1.99c.6,0,1.12.09,1.57.27.45.18.79.46,1.04.83s.37.85.37,1.44v.18c0,.59-.12,1.07-.38,1.44-.25.37-.6.65-1.04.83-.44.18-.96.27-1.56.27h-1.99ZM223.74,236.56l-2.71-3.64h1.29l2.75,3.64h-1.33Z"/>
    <path class="st1" d="M226.55,236.56v-8.17h1.1v8.17h-1.1Z"/>
    <path class="st1" d="M230.04,236.61v-8.26h1.1v8.26h-1.1ZM230.92,232.7v-.72h1.98c.46,0,.8-.12,1.02-.38.22-.25.33-.57.33-.96s-.11-.72-.33-.97c-.22-.25-.56-.38-1.02-.38h-1.98v-.96h1.79c.9,0,1.56.19,2,.57.44.38.66.92.66,1.63v.16c0,.5-.11.9-.34,1.19s-.54.5-.93.63c-.4.12-.86.18-1.39.18h-1.79ZM230.92,236.61v-.96h2.28c.44,0,.78-.12,1.02-.38.24-.25.36-.58.36-1s-.12-.76-.36-1c-.24-.24-.58-.36-1.03-.36h-2.28v-.72h2.13c.52,0,.98.06,1.38.19s.71.34.94.63.34.7.34,1.2v.16c0,.48-.1.88-.29,1.21s-.49.59-.88.76c-.4.18-.89.26-1.49.26h-2.13Z"/>
    <path class="st1" d="M240.87,236.76c-.74,0-1.36-.14-1.86-.43s-.88-.69-1.14-1.21c-.26-.52-.39-1.12-.39-1.81v-4.93h1.1v5.06c0,.46.09.86.26,1.2.17.35.43.62.78.81.34.19.76.29,1.25.29s.91-.09,1.25-.29.6-.46.77-.81c.18-.35.26-.75.26-1.21v-5.06h1.1v4.93c0,.69-.13,1.29-.38,1.81-.25.52-.63.92-1.13,1.21-.5.29-1.12.43-1.87.43Z"/>
    <path class="st1" d="M246.49,236.56v-8.17h1.1v8.17h-1.1Z"/>
  </g>
  <g>
    <path class="st1" d="M43.06,236.76c-.75,0-1.38-.13-1.91-.39-.53-.26-.95-.6-1.27-1.02-.32-.42-.56-.87-.71-1.36-.15-.49-.22-.96-.22-1.42v-.25c0-.49.08-.99.23-1.48.15-.49.39-.94.71-1.34.32-.4.74-.73,1.25-.97.52-.25,1.13-.37,1.85-.37s1.36.13,1.88.38.94.61,1.24,1.06.49.99.56,1.61h-1.12c-.06-.46-.21-.85-.45-1.15-.24-.3-.54-.53-.9-.68s-.77-.22-1.21-.22c-.49,0-.91.08-1.28.25s-.67.4-.91.71c-.24.3-.43.65-.55,1.05s-.18.83-.18,1.29.06.86.18,1.25.31.75.56,1.05c.25.31.56.55.93.72.37.18.81.26,1.31.26.7,0,1.29-.17,1.77-.53.48-.35.77-.86.87-1.52h1.12c-.07.56-.26,1.07-.57,1.53-.3.46-.72.83-1.25,1.11-.53.28-1.18.41-1.94.41Z"/>
    <path class="st1" d="M52.07,236.76c-.73,0-1.36-.13-1.89-.39-.53-.26-.97-.6-1.31-1.03-.34-.42-.6-.88-.77-1.37-.17-.48-.25-.95-.25-1.4v-.25c0-.49.09-.97.26-1.47s.43-.94.78-1.35c.35-.41.79-.73,1.32-.98.53-.25,1.15-.37,1.86-.37s1.34.12,1.86.37.96.57,1.32.98c.35.41.61.86.78,1.35.17.49.26.98.26,1.47v.25c0,.45-.08.92-.25,1.4-.17.49-.42.94-.77,1.37-.34.43-.78.77-1.31,1.03-.53.26-1.16.39-1.89.39ZM52.07,235.76c.48,0,.91-.09,1.29-.27.38-.18.71-.42.98-.73.27-.31.47-.66.62-1.05.14-.39.21-.8.21-1.24,0-.46-.07-.88-.21-1.28-.14-.4-.35-.74-.62-1.05-.27-.3-.6-.54-.98-.71-.38-.17-.82-.26-1.29-.26s-.91.09-1.29.26c-.38.17-.71.41-.98.71-.27.3-.47.65-.62,1.05-.14.4-.21.82-.21,1.28,0,.43.07.84.21,1.24.14.39.35.74.62,1.05.27.31.6.55.98.73.38.18.82.27,1.29.27Z"/>
    <path class="st1" d="M58.1,236.56v-8.17h1.79l4.15,7.19h.36l-.22.2v-7.39h1.05v8.17h-1.81l-4.15-7.19h-.36l.22-.2v7.39h-1.03Z"/>
    <path class="st1" d="M66.71,229.38v-.99h6.07v.99h-6.07ZM69.19,236.56v-7.41h1.1v7.41h-1.1Z"/>
    <path class="st1" d="M74.25,236.56v-8.22h1.1v8.22h-1.1ZM74.94,233.61v-.97h2.19c.34,0,.64-.07.88-.21s.44-.34.57-.59c.13-.25.2-.54.2-.86s-.07-.61-.2-.86c-.13-.25-.33-.45-.57-.59s-.54-.22-.88-.22h-2.19v-.96h1.99c.6,0,1.12.09,1.57.27.45.18.79.46,1.04.83s.37.85.37,1.44v.18c0,.59-.12,1.07-.38,1.44-.25.37-.6.65-1.04.83-.44.18-.96.27-1.56.27h-1.99ZM79.3,236.56l-2.71-3.64h1.29l2.75,3.64h-1.33Z"/>
    <path class="st1" d="M82.11,236.56v-8.17h1.1v8.17h-1.1Z"/>
    <path class="st1" d="M85.61,236.61v-8.26h1.1v8.26h-1.1ZM86.48,232.7v-.72h1.98c.46,0,.8-.12,1.02-.38.22-.25.33-.57.33-.96s-.11-.72-.33-.97c-.22-.25-.56-.38-1.02-.38h-1.98v-.96h1.79c.9,0,1.56.19,2,.57.44.38.66.92.66,1.63v.16c0,.5-.11.9-.34,1.19s-.54.5-.93.63c-.4.12-.86.18-1.39.18h-1.79ZM86.48,236.61v-.96h2.28c.44,0,.78-.12,1.02-.38.24-.25.36-.58.36-1s-.12-.76-.36-1c-.24-.24-.58-.36-1.03-.36h-2.28v-.72h2.13c.52,0,.98.06,1.38.19s.71.34.94.63.34.7.34,1.2v.16c0,.48-.1.88-.29,1.21s-.49.59-.88.76c-.4.18-.89.26-1.49.26h-2.13Z"/>
    <path class="st1" d="M96.43,236.76c-.74,0-1.36-.14-1.86-.43s-.88-.69-1.14-1.21c-.26-.52-.39-1.12-.39-1.81v-4.93h1.1v5.06c0,.46.09.86.26,1.2.17.35.43.62.78.81.34.19.76.29,1.25.29s.91-.09,1.25-.29.6-.46.77-.81c.18-.35.26-.75.26-1.21v-5.06h1.1v4.93c0,.69-.13,1.29-.38,1.81-.25.52-.63.92-1.13,1.21-.5.29-1.12.43-1.87.43Z"/>
    <path class="st1" d="M102.05,236.56v-8.17h1.1v8.17h-1.1Z"/>
  </g>
  <g>
    <path class="st1" d="M72.99,17.8V4h3.93c1.04,0,1.94.13,2.71.39.77.26,1.37.68,1.81,1.27.43.59.65,1.39.65,2.4s-.21,1.76-.64,2.39-1.02,1.09-1.79,1.41c-.76.32-1.65.47-2.66.47h-2.27v5.47h-1.75ZM74.74,10.9h2.06c1.21,0,2.1-.23,2.68-.69.58-.46.87-1.18.87-2.15s-.31-1.69-.92-2.07c-.61-.39-1.52-.58-2.72-.58h-1.98v5.49Z"/>
    <path class="st1" d="M87.88,18.05c-.83,0-1.6-.21-2.32-.63-.72-.42-1.3-1.03-1.75-1.83-.44-.8-.66-1.76-.66-2.88s.22-2.12.66-2.92c.44-.8,1.02-1.41,1.75-1.83.72-.42,1.5-.63,2.32-.63s1.62.21,2.33.63c.72.42,1.29,1.03,1.74,1.83.44.8.66,1.77.66,2.92s-.22,2.08-.66,2.88c-.44.8-1.02,1.41-1.74,1.83-.71.42-1.49.63-2.33.63ZM87.88,16.62c.59,0,1.11-.16,1.56-.49.45-.33.79-.79,1.03-1.38.24-.59.36-1.27.36-2.04s-.12-1.48-.36-2.07c-.24-.6-.58-1.06-1.03-1.39-.45-.33-.97-.49-1.56-.49s-1.1.17-1.55.49c-.44.33-.79.79-1.03,1.39s-.37,1.29-.37,2.07.12,1.45.37,2.04c.25.59.59,1.05,1.03,1.38.44.33.96.49,1.55.49Z"/>
    <path class="st1" d="M94.99,17.8V7.57h1.43l.15,1.85h.06c.34-.64.76-1.16,1.26-1.54.5-.38,1.05-.57,1.64-.57.22,0,.42.01.59.04.17.03.34.08.5.17l-.38,1.47c-.15-.04-.3-.07-.43-.09-.13-.02-.3-.03-.51-.03-.44,0-.89.18-1.36.53-.47.35-.88.96-1.23,1.83v6.56h-1.73Z"/>
    <path class="st1" d="M105.83,18.05c-.91,0-1.73-.21-2.46-.63-.73-.42-1.3-1.03-1.73-1.83s-.63-1.76-.63-2.88.23-2.12.68-2.92,1.06-1.41,1.81-1.83c.75-.42,1.56-.63,2.43-.63.67,0,1.25.11,1.74.34.48.22.9.51,1.25.86l-.86,1.07c-.25-.25-.55-.45-.89-.6-.34-.15-.73-.22-1.17-.22-.6,0-1.15.17-1.63.49-.48.33-.87.79-1.15,1.38-.28.59-.42,1.28-.42,2.06s.13,1.45.4,2.04c.27.59.64,1.05,1.12,1.38s1.03.49,1.66.49c.48,0,.92-.09,1.33-.27.41-.18.76-.41,1.05-.69l.76,1.05c-.44.41-.93.73-1.47.98s-1.15.37-1.81.37Z"/>
    <path class="st1" d="M114.75,18.05c-.91,0-1.74-.21-2.49-.64-.75-.43-1.34-1.04-1.78-1.83s-.65-1.76-.65-2.89.22-2.06.67-2.86c.45-.8,1.02-1.42,1.72-1.85s1.44-.65,2.23-.65c.87,0,1.61.2,2.22.6.61.4,1.07.96,1.38,1.67s.46,1.56.46,2.52c0,.18,0,.36,0,.53,0,.17-.03.34-.07.5h-7.36v-1.37h5.89c0-.98-.21-1.74-.64-2.26s-1.04-.79-1.84-.79c-.46,0-.92.13-1.37.39-.45.26-.82.68-1.1,1.25-.29.58-.43,1.34-.43,2.29,0,.87.15,1.6.45,2.19.3.59.71,1.03,1.23,1.34.52.3,1.09.45,1.7.45.49,0,.95-.07,1.38-.21.43-.14.82-.33,1.17-.57l.63,1.14c-.45.31-.95.56-1.5.76s-1.18.29-1.88.29Z"/>
    <path class="st1" d="M120.72,17.8V7.57h1.43l.15,1.47h.06c.49-.49,1.01-.9,1.56-1.23s1.17-.49,1.87-.49c1.08,0,1.87.34,2.37,1.02.5.68.75,1.67.75,2.98v6.48h-1.72v-6.25c0-.97-.15-1.67-.45-2.09-.3-.43-.8-.64-1.48-.64-.52,0-.99.13-1.4.4-.41.27-.88.66-1.4,1.18v7.41h-1.73Z"/>
    <path class="st1" d="M135.13,17.99c-1.08,0-1.84-.32-2.27-.95-.43-.63-.65-1.45-.65-2.46v-5.6h-1.51v-1.3l1.6-.1.21-3.28h1.45v3.28h2.78v1.41h-2.78v5.62c0,.62.12,1.1.35,1.45.23.35.64.53,1.23.53.18,0,.37-.02.57-.05.2-.03.39-.1.59-.2l.38,1.22c-.27.13-.57.23-.9.32-.34.08-.68.13-1.03.13Z"/>
    <path class="st1" d="M140.62,18.05c-.56,0-1.07-.12-1.53-.35-.46-.23-.82-.56-1.08-.99-.27-.43-.4-.95-.4-1.57,0-1.15.5-2.02,1.51-2.61s2.61-1,4.8-1.24c-.01-.42-.08-.83-.2-1.22-.12-.39-.33-.71-.64-.95-.31-.24-.74-.36-1.28-.36-.59,0-1.14.11-1.66.33-.52.22-.98.46-1.39.73l-.67-1.18c.31-.21.67-.42,1.09-.62.42-.2.88-.37,1.37-.5.49-.13,1.01-.2,1.56-.2.83,0,1.5.17,2.03.52.53.34.91.83,1.16,1.46.25.63.37,1.37.37,2.23v6.27h-1.43l-.15-1.22h-.06c-.49.41-1.02.75-1.58,1.04-.56.29-1.16.43-1.81.43ZM141.11,16.62c.5,0,.98-.11,1.42-.34.44-.22.91-.55,1.4-.99v-2.76c-1.15.14-2.06.32-2.72.54-.67.22-1.15.49-1.44.81-.29.32-.44.71-.44,1.16,0,.56.17.96.53,1.21.35.25.77.37,1.26.37Z"/>
    <path class="st1" d="M152,22.51c-.83,0-1.56-.11-2.2-.33-.64-.22-1.14-.53-1.49-.94-.36-.41-.54-.9-.54-1.49,0-.44.13-.85.4-1.25.27-.4.63-.75,1.09-1.06v-.08c-.25-.17-.47-.39-.64-.66-.18-.27-.26-.61-.26-1,0-.43.12-.81.37-1.14.25-.32.49-.57.75-.76v-.08c-.32-.28-.62-.66-.9-1.14-.28-.48-.42-1.02-.42-1.62,0-.74.18-1.39.54-1.94.36-.55.83-.97,1.41-1.26s1.22-.44,1.9-.44c.28,0,.55.02.8.07.25.05.47.11.65.18h3.55v1.33h-2.12v.08c.25.22.46.5.62.84s.24.74.24,1.2c0,.73-.17,1.36-.5,1.88s-.79.93-1.35,1.22-1.19.43-1.89.43c-.25,0-.51-.03-.78-.09s-.52-.15-.76-.26c-.17.15-.32.32-.45.5-.13.18-.2.42-.2.71,0,.32.13.59.39.8.26.21.73.32,1.42.32h1.98c1.19,0,2.09.19,2.68.58s.89,1.01.89,1.86c0,.63-.21,1.21-.63,1.75-.42.53-1.02.96-1.8,1.29s-1.69.49-2.75.49ZM152.26,21.31c.64,0,1.21-.1,1.69-.29.48-.2.86-.46,1.14-.78.27-.32.41-.66.41-1.01,0-.48-.18-.81-.54-.99-.36-.18-.87-.27-1.53-.27h-1.77c-.2,0-.41-.01-.64-.04-.23-.03-.46-.07-.68-.13-.38.27-.65.55-.81.84-.16.29-.24.59-.24.88,0,.55.26.98.79,1.3.53.32,1.25.48,2.18.48ZM152,13.4c.39,0,.75-.1,1.08-.3.33-.2.59-.49.79-.85.2-.36.29-.79.29-1.28,0-.76-.21-1.34-.63-1.76-.42-.41-.93-.62-1.54-.62s-1.11.21-1.54.62c-.42.41-.63,1-.63,1.76,0,.49.1.92.29,1.28s.46.65.79.85c.33.2.69.3,1.08.3Z"/>
    <path class="st1" d="M162.69,18.05c-.91,0-1.74-.21-2.49-.64-.75-.43-1.34-1.04-1.78-1.83s-.65-1.76-.65-2.89.22-2.06.67-2.86c.45-.8,1.02-1.42,1.72-1.85s1.44-.65,2.23-.65c.87,0,1.61.2,2.22.6.61.4,1.07.96,1.38,1.67s.46,1.56.46,2.52c0,.18,0,.36,0,.53,0,.17-.03.34-.07.5h-7.36v-1.37h5.89c0-.98-.21-1.74-.64-2.26s-1.04-.79-1.84-.79c-.46,0-.92.13-1.37.39-.45.26-.82.68-1.1,1.25-.29.58-.43,1.34-.43,2.29,0,.87.15,1.6.45,2.19.3.59.71,1.03,1.23,1.34.52.3,1.09.45,1.7.45.49,0,.95-.07,1.38-.21.43-.14.82-.33,1.17-.57l.63,1.14c-.45.31-.95.56-1.5.76s-1.18.29-1.88.29Z"/>
    <path class="st1" d="M168.67,17.8V7.57h1.43l.15,1.47h.06c.45-.48.94-.88,1.46-1.22.53-.34,1.1-.5,1.71-.5.79,0,1.4.18,1.84.53.44.35.77.83.98,1.43.53-.59,1.07-1.06,1.62-1.42.55-.36,1.13-.54,1.75-.54,1.07,0,1.85.34,2.36,1.02s.76,1.67.76,2.98v6.48h-1.72v-6.25c0-.97-.15-1.67-.46-2.09-.31-.43-.79-.64-1.43-.64-.41,0-.82.13-1.23.39-.41.26-.86.66-1.34,1.19v7.41h-1.73v-6.25c0-.97-.15-1.67-.46-2.09-.31-.43-.79-.64-1.45-.64-.77,0-1.63.53-2.57,1.58v7.41h-1.73Z"/>
    <path class="st1" d="M193.17,18.05c-1.29,0-2.32-.47-3.08-1.4-.76-.93-1.15-2.25-1.15-3.94,0-1.11.21-2.06.62-2.87.41-.81.96-1.43,1.63-1.86.67-.43,1.4-.65,2.19-.65.6,0,1.12.1,1.55.31s.87.49,1.32.87l-.08-1.75v-3.93h1.75v14.98h-1.43l-.15-1.2h-.06c-.39.39-.86.73-1.39,1.02-.53.29-1.1.43-1.7.43ZM193.55,16.6c.48,0,.93-.12,1.35-.36.42-.24.84-.59,1.26-1.05v-5.34c-.42-.39-.83-.67-1.24-.83-.41-.16-.82-.24-1.24-.24-.55,0-1.04.17-1.48.49-.44.33-.8.79-1.06,1.37s-.4,1.27-.4,2.05c0,1.22.25,2.18.74,2.87.49.69,1.18,1.04,2.08,1.04Z"/>
    <path class="st1" d="M205.19,18.05c-.91,0-1.74-.21-2.49-.64-.75-.43-1.34-1.04-1.78-1.83s-.65-1.76-.65-2.89.22-2.06.67-2.86c.45-.8,1.02-1.42,1.72-1.85s1.44-.65,2.23-.65c.87,0,1.61.2,2.22.6.61.4,1.07.96,1.38,1.67s.46,1.56.46,2.52c0,.18,0,.36,0,.53,0,.17-.03.34-.07.5h-7.36v-1.37h5.89c0-.98-.21-1.74-.64-2.26s-1.04-.79-1.84-.79c-.46,0-.92.13-1.37.39-.45.26-.82.68-1.1,1.25-.29.58-.43,1.34-.43,2.29,0,.87.15,1.6.45,2.19.3.59.71,1.03,1.23,1.34.52.3,1.09.45,1.7.45.49,0,.95-.07,1.38-.21.43-.14.82-.33,1.17-.57l.63,1.14c-.45.31-.95.56-1.5.76s-1.18.29-1.88.29Z"/>
    <path class="st1" d="M18.39,43.04v-10.43h2.52l.21,1.35h.08c.42-.43.88-.81,1.38-1.13.5-.32,1.09-.47,1.78-.47.74,0,1.35.15,1.81.45s.82.73,1.07,1.29c.46-.48.95-.89,1.47-1.23.52-.34,1.12-.52,1.81-.52,1.14,0,1.96.38,2.48,1.13.52.75.78,1.78.78,3.08v6.48h-3.09v-6.08c0-.76-.1-1.28-.3-1.56-.2-.28-.53-.42-.98-.42-.27,0-.55.08-.84.24-.29.16-.61.42-.95.77v7.05h-3.09v-6.08c0-.76-.1-1.28-.31-1.56-.2-.28-.53-.42-.98-.42-.53,0-1.12.34-1.77,1.01v7.05h-3.09Z"/>
    <path class="st1" d="M40.77,43.3c-1,0-1.89-.21-2.69-.64-.8-.43-1.43-1.05-1.89-1.87-.46-.82-.69-1.81-.69-2.98s.23-2.07.7-2.89,1.08-1.45,1.83-1.89c.75-.44,1.55-.66,2.41-.66.98,0,1.8.22,2.46.66.66.44,1.15,1.04,1.47,1.79.32.75.48,1.6.48,2.56,0,.27-.01.53-.04.78-.03.25-.06.46-.11.61h-6.82l-.02-2.12h4.33c0-.55-.13-1-.4-1.36-.27-.36-.71-.54-1.33-.54-.32,0-.65.09-.98.27-.33.18-.6.5-.81.95-.21.45-.31,1.07-.29,1.85.01.8.16,1.42.43,1.87s.62.77,1.04.96.86.28,1.33.28c.41,0,.8-.06,1.18-.17s.75-.29,1.12-.53l.99,1.89c-.52.38-1.11.67-1.78.87-.67.2-1.31.31-1.92.31Z"/>
    <path class="st1" d="M46.68,43.04v-10.43h2.52l.21,1.33h.08c.43-.43.93-.81,1.47-1.12.55-.31,1.17-.46,1.87-.46,1.15,0,1.98.38,2.48,1.13.5.75.76,1.78.76,3.08v6.48h-3.09v-6.08c0-.76-.1-1.28-.3-1.56-.2-.28-.53-.42-.98-.42-.39,0-.73.09-1.01.26-.28.18-.59.42-.93.75v7.05h-3.09Z"/>
    <path class="st1" d="M61.47,43.3c-.69,0-1.4-.13-2.12-.4-.73-.27-1.35-.65-1.87-1.16l1.3-1.75c.48.38.95.64,1.42.79.47.15.92.22,1.36.22.46,0,.8-.08,1.01-.24.21-.16.32-.38.32-.64,0-.24-.09-.43-.28-.59s-.43-.29-.74-.41-.64-.25-1.02-.39c-.5-.18-.97-.41-1.39-.69-.42-.28-.76-.62-1.02-1.01-.26-.39-.39-.86-.39-1.41,0-.98.37-1.77,1.1-2.37.74-.6,1.7-.89,2.89-.89.76,0,1.45.12,2.07.37.62.25,1.16.56,1.61.96l-1.33,1.72c-.38-.27-.76-.46-1.14-.58-.38-.12-.75-.18-1.11-.18-.41,0-.71.08-.91.23-.2.15-.29.35-.29.59,0,.2.07.36.21.5.14.14.35.27.64.39s.65.25,1.08.39c.53.18,1.02.41,1.46.68s.79.61,1.04,1.02c.25.41.38.9.38,1.47,0,.63-.17,1.2-.49,1.7-.33.5-.81.91-1.44,1.21-.63.3-1.42.45-2.36.45Z"/>
    <path class="st1" d="M70.01,43.3c-.62,0-1.16-.14-1.63-.42-.47-.28-.83-.66-1.08-1.13-.25-.47-.38-1.01-.38-1.61,0-1.12.46-1.99,1.39-2.6.92-.61,2.42-1.03,4.48-1.25-.03-.29-.1-.55-.21-.77-.11-.22-.29-.39-.53-.5-.24-.12-.54-.18-.9-.18-.45,0-.89.08-1.34.23-.44.15-.92.37-1.42.65l-1.12-2c.43-.27.9-.5,1.39-.72.49-.21.99-.37,1.49-.48s1.03-.17,1.58-.17c.9,0,1.65.17,2.26.52.61.34,1.08.87,1.41,1.57.33.7.49,1.58.49,2.65v5.95h-2.54l-.21-1.07h-.08c-.45.39-.92.71-1.41.96-.49.25-1.04.37-1.64.37ZM71.06,40.88c.35,0,.66-.08.94-.23.27-.15.54-.36.79-.63v-1.77c-.73.1-1.3.22-1.72.38-.42.15-.72.34-.91.56-.18.22-.27.46-.27.73,0,.32.11.56.33.73s.5.24.85.24Z"/>
    <path class="st1" d="M81.01,43.27c-.7,0-1.26-.14-1.67-.43-.41-.29-.71-.69-.89-1.22s-.27-1.14-.27-1.84v-11.47h3.07v11.59c0,.34.06.57.19.69.13.13.26.19.4.19.06,0,.11,0,.16-.01.05,0,.12-.02.2-.03l.38,2.27c-.16.07-.37.13-.63.18-.27.05-.58.07-.93.07Z"/>
    <path class="st1" d="M85.41,31.07c-.52,0-.94-.15-1.26-.44s-.48-.69-.48-1.18.16-.88.48-1.18.74-.44,1.26-.44.94.15,1.26.44c.32.29.48.69.48,1.18s-.16.88-.48,1.18c-.32.29-.74.44-1.26.44ZM83.88,43.04v-10.43h3.07v10.43h-3.07Z"/>
    <path class="st1" d="M92.44,43.3c-.69,0-1.4-.13-2.12-.4-.73-.27-1.35-.65-1.87-1.16l1.3-1.75c.48.38.95.64,1.42.79.47.15.92.22,1.36.22.46,0,.8-.08,1.01-.24.21-.16.32-.38.32-.64,0-.24-.09-.43-.28-.59s-.43-.29-.74-.41-.64-.25-1.02-.39c-.5-.18-.97-.41-1.39-.69-.42-.28-.76-.62-1.02-1.01-.26-.39-.39-.86-.39-1.41,0-.98.37-1.77,1.1-2.37.74-.6,1.7-.89,2.89-.89.76,0,1.45.12,2.07.37.62.25,1.16.56,1.61.96l-1.33,1.72c-.38-.27-.76-.46-1.14-.58-.38-.12-.75-.18-1.11-.18-.41,0-.71.08-.91.23-.2.15-.29.35-.29.59,0,.2.07.36.21.5.14.14.35.27.64.39s.65.25,1.08.39c.53.18,1.02.41,1.46.68s.79.61,1.04,1.02c.25.41.38.9.38,1.47,0,.63-.17,1.2-.49,1.7-.33.5-.81.91-1.44,1.21-.63.3-1.42.45-2.36.45Z"/>
    <path class="st1" d="M101.97,43.27c-1.29,0-2.22-.38-2.78-1.13-.56-.75-.84-1.73-.84-2.93v-4.19h-1.41v-2.29l1.6-.13.36-3.2h2.57v3.2h2.48v2.42h-2.48v4.17c0,.59.12,1.01.37,1.27.25.26.57.39.98.39.17,0,.34-.01.5-.04.17-.03.32-.08.46-.15l.5,2.17c-.27.13-.6.23-.99.32-.39.08-.83.13-1.33.13Z"/>
    <path class="st1" d="M107.88,43.3c-.62,0-1.16-.14-1.63-.42-.47-.28-.83-.66-1.08-1.13-.25-.47-.38-1.01-.38-1.61,0-1.12.46-1.99,1.39-2.6.92-.61,2.42-1.03,4.48-1.25-.03-.29-.1-.55-.21-.77-.11-.22-.29-.39-.53-.5-.24-.12-.54-.18-.9-.18-.45,0-.89.08-1.34.23-.44.15-.92.37-1.42.65l-1.12-2c.43-.27.9-.5,1.39-.72.49-.21.99-.37,1.49-.48s1.03-.17,1.58-.17c.9,0,1.65.17,2.26.52.61.34,1.08.87,1.41,1.57.33.7.49,1.58.49,2.65v5.95h-2.54l-.21-1.07h-.08c-.45.39-.92.71-1.41.96-.49.25-1.04.37-1.64.37ZM108.93,40.88c.35,0,.66-.08.94-.23.27-.15.54-.36.79-.63v-1.77c-.73.1-1.3.22-1.72.38-.42.15-.72.34-.91.56-.18.22-.27.46-.27.73,0,.32.11.56.33.73s.5.24.85.24Z"/>
    <path class="st1" d="M119.11,43.3c-.69,0-1.4-.13-2.12-.4-.73-.27-1.35-.65-1.87-1.16l1.3-1.75c.48.38.95.64,1.42.79.47.15.92.22,1.36.22.46,0,.8-.08,1.01-.24.21-.16.32-.38.32-.64,0-.24-.09-.43-.28-.59s-.43-.29-.74-.41-.64-.25-1.02-.39c-.5-.18-.97-.41-1.39-.69-.42-.28-.76-.62-1.02-1.01-.26-.39-.39-.86-.39-1.41,0-.98.37-1.77,1.1-2.37.74-.6,1.7-.89,2.89-.89.76,0,1.45.12,2.07.37.62.25,1.16.56,1.61.96l-1.33,1.72c-.38-.27-.76-.46-1.14-.58-.38-.12-.75-.18-1.11-.18-.41,0-.71.08-.91.23-.2.15-.29.35-.29.59,0,.2.07.36.21.5.14.14.35.27.64.39s.65.25,1.08.39c.53.18,1.02.41,1.46.68s.79.61,1.04,1.02c.25.41.38.9.38,1.47,0,.63-.17,1.2-.49,1.7-.33.5-.81.91-1.44,1.21-.63.3-1.42.45-2.36.45Z"/>
    <path class="st1" d="M135.78,47.36v-3.64l.08-1.85c-.41.39-.87.73-1.4,1.01-.53.28-1.08.42-1.67.42-1.29,0-2.32-.47-3.08-1.4-.76-.93-1.15-2.25-1.15-3.94,0-1.11.21-2.06.62-2.87.41-.81.96-1.43,1.63-1.86.67-.43,1.4-.65,2.19-.65.59,0,1.11.1,1.57.32.46.21.91.51,1.36.9h.04l.17-.97h1.39v14.54h-1.75ZM133.17,41.84c.48,0,.93-.12,1.35-.36.42-.24.84-.59,1.26-1.05v-5.34c-.42-.39-.83-.67-1.24-.83-.41-.16-.82-.24-1.24-.24-.55,0-1.04.17-1.48.49-.44.33-.8.79-1.06,1.37s-.4,1.27-.4,2.05c0,1.22.25,2.18.74,2.87.49.69,1.18,1.04,2.08,1.04Z"/>
    <path class="st1" d="M143.64,43.3c-1.08,0-1.87-.34-2.37-1.02-.5-.68-.75-1.67-.75-2.98v-6.48h1.73v6.25c0,.95.15,1.64.45,2.07.3.43.79.64,1.46.64.52,0,.99-.14,1.4-.41.41-.27.87-.71,1.36-1.29v-7.26h1.72v10.22h-1.43l-.15-1.6h-.06c-.46.56-.96,1.01-1.5,1.35s-1.16.5-1.86.5Z"/>
    <path class="st1" d="M155.93,43.3c-.91,0-1.74-.21-2.49-.64-.75-.43-1.34-1.04-1.78-1.83s-.65-1.76-.65-2.89.22-2.06.67-2.86c.45-.8,1.02-1.42,1.72-1.85s1.44-.65,2.23-.65c.87,0,1.61.2,2.22.6.61.4,1.07.96,1.38,1.67s.46,1.56.46,2.52c0,.18,0,.36,0,.53,0,.17-.03.34-.07.5h-7.36v-1.37h5.89c0-.98-.21-1.74-.64-2.26s-1.04-.79-1.84-.79c-.46,0-.92.13-1.37.39-.45.26-.82.68-1.1,1.25-.29.58-.43,1.34-.43,2.29,0,.87.15,1.6.45,2.19.3.59.71,1.03,1.23,1.34.52.3,1.09.45,1.7.45.49,0,.95-.07,1.38-.21.43-.14.82-.33,1.17-.57l.63,1.14c-.45.31-.95.56-1.5.76s-1.18.29-1.88.29Z"/>
    <path class="st1" d="M169.86,43.3c-.91,0-1.73-.21-2.46-.63-.73-.42-1.3-1.03-1.73-1.83s-.63-1.76-.63-2.88.23-2.12.68-2.92,1.06-1.41,1.81-1.83c.75-.42,1.56-.63,2.43-.63.67,0,1.25.11,1.74.34.48.22.9.51,1.25.86l-.86,1.07c-.25-.25-.55-.45-.89-.6-.34-.15-.73-.22-1.17-.22-.6,0-1.15.17-1.63.49-.48.33-.87.79-1.15,1.38-.28.59-.42,1.28-.42,2.06s.13,1.45.4,2.04c.27.59.64,1.05,1.12,1.38s1.03.49,1.66.49c.48,0,.92-.09,1.33-.27.41-.18.76-.41,1.05-.69l.76,1.05c-.44.41-.93.73-1.47.98s-1.15.37-1.81.37Z"/>
    <path class="st1" d="M178.61,43.3c-.83,0-1.6-.21-2.32-.63-.72-.42-1.3-1.03-1.75-1.83-.44-.8-.66-1.76-.66-2.88s.22-2.12.66-2.92c.44-.8,1.02-1.41,1.75-1.83.72-.42,1.5-.63,2.32-.63s1.62.21,2.33.63c.72.42,1.29,1.03,1.74,1.83.44.8.66,1.77.66,2.92s-.22,2.08-.66,2.88c-.44.8-1.02,1.41-1.74,1.83-.71.42-1.49.63-2.33.63ZM178.61,41.86c.59,0,1.11-.16,1.56-.49.45-.33.79-.79,1.03-1.38.24-.59.36-1.27.36-2.04s-.12-1.48-.36-2.07c-.24-.6-.58-1.06-1.03-1.39-.45-.33-.97-.49-1.56-.49s-1.1.17-1.55.49c-.44.33-.79.79-1.03,1.39s-.37,1.29-.37,2.07.12,1.45.37,2.04c.25.59.59,1.05,1.03,1.38.44.33.96.49,1.55.49Z"/>
    <path class="st1" d="M185.72,43.04v-10.22h1.43l.15,1.47h.06c.49-.49,1.01-.9,1.56-1.23s1.17-.49,1.87-.49c1.08,0,1.87.34,2.37,1.02.5.68.75,1.67.75,2.98v6.48h-1.72v-6.25c0-.97-.15-1.67-.45-2.09-.3-.43-.8-.64-1.48-.64-.52,0-.99.13-1.4.4-.41.27-.88.66-1.4,1.18v7.41h-1.73Z"/>
    <path class="st1" d="M200.13,43.23c-1.08,0-1.84-.32-2.27-.95-.43-.63-.65-1.45-.65-2.46v-5.6h-1.51v-1.3l1.6-.1.21-3.28h1.45v3.28h2.78v1.41h-2.78v5.62c0,.62.12,1.1.35,1.45.23.35.64.53,1.23.53.18,0,.37-.02.57-.05.2-.03.39-.1.59-.2l.38,1.22c-.27.13-.57.23-.9.32-.34.08-.68.13-1.03.13Z"/>
    <path class="st1" d="M203.7,43.04v-10.22h1.43l.15,1.85h.06c.34-.64.76-1.16,1.26-1.54.5-.38,1.05-.57,1.64-.57.22,0,.42.01.59.04.17.03.34.08.5.17l-.38,1.47c-.15-.04-.3-.07-.43-.09-.13-.02-.3-.03-.51-.03-.44,0-.89.18-1.36.53-.47.35-.88.96-1.23,1.83v6.56h-1.73Z"/>
    <path class="st1" d="M211.55,30.72c-.34,0-.61-.11-.83-.32-.22-.21-.33-.48-.33-.82s.11-.61.33-.82c.22-.21.49-.32.83-.32s.61.1.83.32c.22.21.33.48.33.82s-.11.61-.33.82c-.22.21-.5.32-.83.32ZM210.69,43.04v-10.22h1.73v10.22h-1.73Z"/>
    <path class="st1" d="M220.07,43.3c-.48,0-.97-.12-1.47-.35s-.99-.55-1.45-.96h-.06l-.15,1.05h-1.39v-14.98h1.73v4.08l-.04,1.85c.46-.41.97-.75,1.53-1.02.55-.27,1.11-.41,1.67-.41.88,0,1.63.21,2.23.64.6.43,1.06,1.03,1.37,1.81s.46,1.69.46,2.75c0,1.16-.21,2.16-.62,2.99-.41.83-.96,1.46-1.63,1.89s-1.4.65-2.17.65ZM219.78,41.84c.56,0,1.06-.16,1.5-.48.44-.32.79-.79,1.04-1.4.25-.61.38-1.34.38-2.18,0-.74-.09-1.4-.27-1.97-.18-.57-.47-1.01-.86-1.33-.39-.32-.91-.47-1.56-.47-.42,0-.86.12-1.31.35s-.93.58-1.42,1.04v5.36c.45.39.89.67,1.34.83.44.16.83.24,1.17.24Z"/>
    <path class="st1" d="M229.85,43.3c-1.08,0-1.87-.34-2.37-1.02-.5-.68-.75-1.67-.75-2.98v-6.48h1.73v6.25c0,.95.15,1.64.45,2.07.3.43.79.64,1.46.64.52,0,.99-.14,1.4-.41.41-.27.87-.71,1.36-1.29v-7.26h1.72v10.22h-1.43l-.15-1.6h-.06c-.46.56-.96,1.01-1.5,1.35s-1.16.5-1.86.5Z"/>
    <path class="st1" d="M242.14,43.3c-.91,0-1.74-.21-2.49-.64-.75-.43-1.34-1.04-1.78-1.83s-.65-1.76-.65-2.89.22-2.06.67-2.86c.45-.8,1.02-1.42,1.72-1.85s1.44-.65,2.23-.65c.87,0,1.61.2,2.22.6.61.4,1.07.96,1.38,1.67s.46,1.56.46,2.52c0,.18,0,.36,0,.53,0,.17-.03.34-.07.5h-7.36v-1.37h5.89c0-.98-.21-1.74-.64-2.26s-1.04-.79-1.84-.79c-.46,0-.92.13-1.37.39-.45.26-.82.68-1.1,1.25-.29.58-.43,1.34-.43,2.29,0,.87.15,1.6.45,2.19.3.59.71,1.03,1.23,1.34.52.3,1.09.45,1.7.45.49,0,.95-.07,1.38-.21.43-.14.82-.33,1.17-.57l.63,1.14c-.45.31-.95.56-1.5.76s-1.18.29-1.88.29Z"/>
    <path class="st1" d="M248.11,43.04v-10.22h1.43l.15,1.47h.06c.45-.48.94-.88,1.46-1.22.53-.34,1.1-.5,1.71-.5.79,0,1.4.18,1.84.53.44.35.77.83.98,1.43.53-.59,1.07-1.06,1.62-1.42.55-.36,1.13-.54,1.75-.54,1.07,0,1.85.34,2.36,1.02s.76,1.67.76,2.98v6.48h-1.72v-6.25c0-.97-.15-1.67-.46-2.09-.31-.43-.79-.64-1.43-.64-.41,0-.82.13-1.23.39-.41.26-.86.66-1.34,1.19v7.41h-1.73v-6.25c0-.97-.15-1.67-.46-2.09-.31-.43-.79-.64-1.45-.64-.77,0-1.63.53-2.57,1.58v7.41h-1.73Z"/>
    <path class="st1" d="M36.18,72.6v-14.54h1.43l.15,1.18h.06c.46-.39.97-.73,1.54-1.01.56-.28,1.14-.42,1.73-.42.87,0,1.61.21,2.21.64.6.43,1.06,1.03,1.37,1.81s.46,1.7.46,2.77c0,1.15-.21,2.14-.62,2.97-.41.83-.96,1.46-1.63,1.89s-1.4.65-2.17.65c-.46,0-.93-.1-1.41-.32-.48-.21-.95-.5-1.43-.86l.04,1.79v3.45h-1.73ZM40.41,67.09c.56,0,1.06-.16,1.5-.48.44-.32.79-.79,1.04-1.4.25-.61.38-1.34.38-2.18,0-.74-.09-1.4-.27-1.97-.18-.57-.47-1.01-.86-1.33-.39-.32-.91-.47-1.56-.47-.42,0-.86.12-1.3.35-.45.23-.93.58-1.43,1.04v5.36c.48.39.93.67,1.36.83s.81.24,1.15.24Z"/>
    <path class="st1" d="M49.61,68.54c-.56,0-1.07-.12-1.53-.35-.46-.23-.82-.56-1.08-.99-.27-.43-.4-.95-.4-1.57,0-1.15.5-2.02,1.51-2.61s2.61-1,4.8-1.24c-.01-.42-.08-.83-.2-1.22-.12-.39-.33-.71-.64-.95-.31-.24-.74-.36-1.28-.36-.59,0-1.14.11-1.66.33-.52.22-.98.46-1.39.73l-.67-1.18c.31-.21.67-.42,1.09-.62.42-.2.88-.37,1.37-.5.49-.13,1.01-.2,1.56-.2.83,0,1.5.17,2.03.52.53.34.91.83,1.16,1.46.25.63.37,1.37.37,2.23v6.27h-1.43l-.15-1.22h-.06c-.49.41-1.02.75-1.58,1.04-.56.29-1.16.43-1.81.43ZM50.09,67.11c.5,0,.98-.11,1.42-.34.44-.22.91-.55,1.4-.99v-2.76c-1.15.14-2.06.32-2.72.54-.67.22-1.15.49-1.44.81-.29.32-.44.71-.44,1.16,0,.56.17.96.53,1.21.35.25.77.37,1.26.37Z"/>
    <path class="st1" d="M57.54,68.29v-10.22h1.43l.15,1.85h.06c.34-.64.76-1.16,1.26-1.54.5-.38,1.05-.57,1.64-.57.22,0,.42.01.59.04.17.03.34.08.5.17l-.38,1.47c-.15-.04-.3-.07-.43-.09-.13-.02-.3-.03-.51-.03-.44,0-.89.18-1.36.53-.47.35-.88.96-1.23,1.83v6.56h-1.73Z"/>
    <path class="st1" d="M66.37,68.54c-.56,0-1.07-.12-1.53-.35-.46-.23-.82-.56-1.08-.99-.27-.43-.4-.95-.4-1.57,0-1.15.5-2.02,1.51-2.61s2.61-1,4.8-1.24c-.01-.42-.08-.83-.2-1.22-.12-.39-.33-.71-.64-.95-.31-.24-.74-.36-1.28-.36-.59,0-1.14.11-1.66.33-.52.22-.98.46-1.39.73l-.67-1.18c.31-.21.67-.42,1.09-.62.42-.2.88-.37,1.37-.5.49-.13,1.01-.2,1.56-.2.83,0,1.5.17,2.03.52.53.34.91.83,1.16,1.46.25.63.37,1.37.37,2.23v6.27h-1.43l-.15-1.22h-.06c-.49.41-1.02.75-1.58,1.04-.56.29-1.16.43-1.81.43ZM66.86,67.11c.5,0,.98-.11,1.42-.34.44-.22.91-.55,1.4-.99v-2.76c-1.15.14-2.06.32-2.72.54-.67.22-1.15.49-1.44.81-.29.32-.44.71-.44,1.16,0,.56.17.96.53,1.21.35.25.77.37,1.26.37Z"/>
    <path class="st1" d="M80.55,68.54c-.56,0-1.07-.12-1.53-.35-.46-.23-.82-.56-1.08-.99-.27-.43-.4-.95-.4-1.57,0-1.15.5-2.02,1.51-2.61s2.61-1,4.8-1.24c-.01-.42-.08-.83-.2-1.22-.12-.39-.33-.71-.64-.95-.31-.24-.74-.36-1.28-.36-.59,0-1.14.11-1.66.33-.52.22-.98.46-1.39.73l-.67-1.18c.31-.21.67-.42,1.09-.62.42-.2.88-.37,1.37-.5.49-.13,1.01-.2,1.56-.2.83,0,1.5.17,2.03.52.53.34.91.83,1.16,1.46.25.63.37,1.37.37,2.23v6.27h-1.43l-.15-1.22h-.06c-.49.41-1.02.75-1.58,1.04-.56.29-1.16.43-1.81.43ZM81.04,67.11c.5,0,.98-.11,1.42-.34.44-.22.91-.55,1.4-.99v-2.76c-1.15.14-2.06.32-2.72.54-.67.22-1.15.49-1.44.81-.29.32-.44.71-.44,1.16,0,.56.17.96.53,1.21.35.25.77.37,1.26.37Z"/>
    <path class="st1" d="M92.54,68.29v-13.8h3.93c1.04,0,1.94.13,2.71.39.77.26,1.37.68,1.81,1.27.43.59.65,1.39.65,2.4s-.21,1.76-.64,2.39-1.02,1.09-1.79,1.41c-.76.32-1.65.47-2.66.47h-2.27v5.47h-1.75ZM94.29,61.39h2.06c1.21,0,2.1-.23,2.68-.69.58-.46.87-1.18.87-2.15s-.31-1.69-.92-2.07c-.61-.39-1.52-.58-2.72-.58h-1.98v5.49Z"/>
    <path class="st1" d="M103.97,68.29v-10.22h1.43l.15,1.85h.06c.34-.64.76-1.16,1.26-1.54.5-.38,1.05-.57,1.64-.57.22,0,.42.01.59.04.17.03.34.08.5.17l-.38,1.47c-.15-.04-.3-.07-.43-.09-.13-.02-.3-.03-.51-.03-.44,0-.89.18-1.36.53-.47.35-.88.96-1.23,1.83v6.56h-1.73Z"/>
    <path class="st1" d="M114.88,68.54c-.91,0-1.74-.21-2.49-.64-.75-.43-1.34-1.04-1.78-1.83s-.65-1.76-.65-2.89.22-2.06.67-2.86c.45-.8,1.02-1.42,1.72-1.85s1.44-.65,2.23-.65c.87,0,1.61.2,2.22.6.61.4,1.07.96,1.38,1.67s.46,1.56.46,2.52c0,.18,0,.36,0,.53,0,.17-.03.34-.07.5h-7.36v-1.37h5.89c0-.98-.21-1.74-.64-2.26s-1.04-.79-1.84-.79c-.46,0-.92.13-1.37.39-.45.26-.82.68-1.1,1.25-.29.58-.43,1.34-.43,2.29,0,.87.15,1.6.45,2.19.3.59.71,1.03,1.23,1.34.52.3,1.09.45,1.7.45.49,0,.95-.07,1.38-.21.43-.14.82-.33,1.17-.57l.63,1.14c-.45.31-.95.56-1.5.76s-1.18.29-1.88.29Z"/>
    <path class="st1" d="M123.17,68.29l-3.68-10.22h1.79l1.93,5.81c.15.49.31.99.47,1.5.16.51.32,1.01.47,1.5h.08c.14-.49.29-.99.46-1.5.17-.51.32-1.01.46-1.5l1.94-5.81h1.7l-3.62,10.22h-2.02Z"/>
    <path class="st1" d="M131.34,55.96c-.34,0-.61-.11-.83-.32-.22-.21-.33-.48-.33-.82s.11-.61.33-.82c.22-.21.49-.32.83-.32s.61.1.83.32c.22.21.33.48.33.82s-.11.61-.33.82c-.22.21-.5.32-.83.32ZM130.47,68.29v-10.22h1.73v10.22h-1.73Z"/>
    <path class="st1" d="M138.82,68.54c-1.29,0-2.32-.47-3.08-1.4-.76-.93-1.15-2.25-1.15-3.94,0-1.11.21-2.06.62-2.87.41-.81.96-1.43,1.63-1.86.67-.43,1.4-.65,2.19-.65.6,0,1.12.1,1.55.31s.87.49,1.32.87l-.08-1.75v-3.93h1.75v14.98h-1.43l-.15-1.2h-.06c-.39.39-.86.73-1.39,1.02-.53.29-1.1.43-1.7.43ZM139.2,67.09c.48,0,.93-.12,1.35-.36.42-.24.84-.59,1.26-1.05v-5.34c-.42-.39-.83-.67-1.24-.83-.41-.16-.82-.24-1.24-.24-.55,0-1.04.17-1.48.49-.44.33-.8.79-1.06,1.37s-.4,1.27-.4,2.05c0,1.22.25,2.18.74,2.87.49.69,1.18,1.04,2.08,1.04Z"/>
    <path class="st1" d="M150.84,68.54c-.91,0-1.74-.21-2.49-.64-.75-.43-1.34-1.04-1.78-1.83s-.65-1.76-.65-2.89.22-2.06.67-2.86c.45-.8,1.02-1.42,1.72-1.85s1.44-.65,2.23-.65c.87,0,1.61.2,2.22.6.61.4,1.07.96,1.38,1.67s.46,1.56.46,2.52c0,.18,0,.36,0,.53,0,.17-.03.34-.07.5h-7.36v-1.37h5.89c0-.98-.21-1.74-.64-2.26s-1.04-.79-1.84-.79c-.46,0-.92.13-1.37.39-.45.26-.82.68-1.1,1.25-.29.58-.43,1.34-.43,2.29,0,.87.15,1.6.45,2.19.3.59.71,1.03,1.23,1.34.52.3,1.09.45,1.7.45.49,0,.95-.07,1.38-.21.43-.14.82-.33,1.17-.57l.63,1.14c-.45.31-.95.56-1.5.76s-1.18.29-1.88.29ZM146.9,56.3l2.86-3.47h1.51l2.86,3.47h-1.41l-2.17-2.17h-.08l-2.17,2.17h-1.41Z"/>
    <path class="st1" d="M156.81,68.29v-10.22h1.43l.15,1.47h.06c.49-.49,1.01-.9,1.56-1.23s1.17-.49,1.87-.49c1.08,0,1.87.34,2.37,1.02.5.68.75,1.67.75,2.98v6.48h-1.72v-6.25c0-.97-.15-1.67-.45-2.09-.3-.43-.8-.64-1.48-.64-.52,0-.99.13-1.4.4-.41.27-.88.66-1.4,1.18v7.41h-1.73Z"/>
    <path class="st1" d="M172.06,68.54c-.91,0-1.73-.21-2.46-.63-.73-.42-1.3-1.03-1.73-1.83s-.63-1.76-.63-2.88.23-2.12.68-2.92,1.06-1.41,1.81-1.83c.75-.42,1.56-.63,2.43-.63.67,0,1.25.11,1.74.34.48.22.9.51,1.25.86l-.86,1.07c-.25-.25-.55-.45-.89-.6-.34-.15-.73-.22-1.17-.22-.6,0-1.15.17-1.63.49-.48.33-.87.79-1.15,1.38-.28.59-.42,1.28-.42,2.06s.13,1.45.4,2.04c.27.59.64,1.05,1.12,1.38s1.03.49,1.66.49c.48,0,.92-.09,1.33-.27.41-.18.76-.41,1.05-.69l.76,1.05c-.44.41-.93.73-1.47.98s-1.15.37-1.81.37Z"/>
    <path class="st1" d="M178.14,55.96c-.34,0-.61-.11-.83-.32-.22-.21-.33-.48-.33-.82s.11-.61.33-.82c.22-.21.49-.32.83-.32s.61.1.83.32c.22.21.33.48.33.82s-.11.61-.33.82c-.22.21-.5.32-.83.32ZM177.28,68.29v-10.22h1.73v10.22h-1.73Z"/>
    <path class="st1" d="M184.49,68.54c-.56,0-1.07-.12-1.53-.35-.46-.23-.82-.56-1.08-.99-.27-.43-.4-.95-.4-1.57,0-1.15.5-2.02,1.51-2.61s2.61-1,4.8-1.24c-.01-.42-.08-.83-.2-1.22-.12-.39-.33-.71-.64-.95-.31-.24-.74-.36-1.28-.36-.59,0-1.14.11-1.66.33-.52.22-.98.46-1.39.73l-.67-1.18c.31-.21.67-.42,1.09-.62.42-.2.88-.37,1.37-.5.49-.13,1.01-.2,1.56-.2.83,0,1.5.17,2.03.52.53.34.91.83,1.16,1.46.25.63.37,1.37.37,2.23v6.27h-1.43l-.15-1.22h-.06c-.49.41-1.02.75-1.58,1.04-.56.29-1.16.43-1.81.43ZM184.98,67.11c.5,0,.98-.11,1.42-.34.44-.22.91-.55,1.4-.99v-2.76c-1.15.14-2.06.32-2.72.54-.67.22-1.15.49-1.44.81-.29.32-.44.71-.44,1.16,0,.56.17.96.53,1.21.35.25.77.37,1.26.37Z"/>
    <path class="st1" d="M200.31,68.54c-.98,0-1.88-.19-2.69-.56-.81-.37-1.53-.87-2.15-1.5l.99-1.14c.49.52,1.08.93,1.76,1.22.68.29,1.38.44,2.11.44.91,0,1.62-.21,2.12-.62s.76-.96.76-1.63c0-.48-.1-.86-.3-1.14-.2-.28-.48-.52-.82-.72-.34-.2-.73-.39-1.17-.59l-1.98-.86c-.45-.2-.89-.44-1.31-.74-.43-.29-.78-.67-1.06-1.13s-.42-1.02-.42-1.69.19-1.33.56-1.88c.37-.55.88-.99,1.54-1.3.65-.32,1.4-.47,2.24-.47s1.61.15,2.31.46,1.29.71,1.77,1.2l-.95,1.14c-.44-.38-.91-.68-1.43-.92-.52-.23-1.09-.35-1.7-.35-.77,0-1.39.18-1.86.55s-.7.86-.7,1.47c0,.44.11.79.34,1.07.22.28.52.51.87.69.36.18.72.36,1.08.53l1.96.84c.55.24,1.03.51,1.46.82s.76.69,1.01,1.16c.25.46.37,1.03.37,1.7,0,.73-.19,1.39-.56,1.99-.37.6-.91,1.07-1.62,1.42-.71.35-1.55.53-2.51.53Z"/>
    <path class="st1" d="M211.21,68.54c-.83,0-1.6-.21-2.32-.63-.72-.42-1.3-1.03-1.75-1.83-.44-.8-.66-1.76-.66-2.88s.22-2.12.66-2.92c.44-.8,1.02-1.41,1.75-1.83.72-.42,1.5-.63,2.32-.63s1.62.21,2.33.63c.72.42,1.29,1.03,1.74,1.83.44.8.66,1.77.66,2.92s-.22,2.08-.66,2.88c-.44.8-1.02,1.41-1.74,1.83-.71.42-1.49.63-2.33.63ZM211.21,67.11c.59,0,1.11-.16,1.56-.49.45-.33.79-.79,1.03-1.38.24-.59.36-1.27.36-2.04s-.12-1.48-.36-2.07c-.24-.6-.58-1.06-1.03-1.39-.45-.33-.97-.49-1.56-.49s-1.1.17-1.55.49c-.44.33-.79.79-1.03,1.39s-.37,1.29-.37,2.07.12,1.45.37,2.04c.25.59.59,1.05,1.03,1.38.44.33.96.49,1.55.49Z"/>
    <path class="st1" d="M222.38,68.54c-.91,0-1.73-.21-2.46-.63-.73-.42-1.3-1.03-1.73-1.83s-.63-1.76-.63-2.88.23-2.12.68-2.92,1.06-1.41,1.81-1.83c.75-.42,1.56-.63,2.43-.63.67,0,1.25.11,1.74.34.48.22.9.51,1.25.86l-.86,1.07c-.25-.25-.55-.45-.89-.6-.34-.15-.73-.22-1.17-.22-.6,0-1.15.17-1.63.49-.48.33-.87.79-1.15,1.38-.28.59-.42,1.28-.42,2.06s.13,1.45.4,2.04c.27.59.64,1.05,1.12,1.38s1.03.49,1.66.49c.48,0,.92-.09,1.33-.27.41-.18.76-.41,1.05-.69l.76,1.05c-.44.41-.93.73-1.47.98s-1.15.37-1.81.37Z"/>
    <path class="st1" d="M228.46,55.96c-.34,0-.61-.11-.83-.32-.22-.21-.33-.48-.33-.82s.11-.61.33-.82c.22-.21.49-.32.83-.32s.61.1.83.32c.22.21.33.48.33.82s-.11.61-.33.82c-.22.21-.5.32-.83.32ZM227.6,68.29v-10.22h1.73v10.22h-1.73Z"/>
    <path class="st1" d="M234.81,68.54c-.56,0-1.07-.12-1.53-.35-.46-.23-.82-.56-1.08-.99-.27-.43-.4-.95-.4-1.57,0-1.15.5-2.02,1.51-2.61s2.61-1,4.8-1.24c-.01-.42-.08-.83-.2-1.22-.12-.39-.33-.71-.64-.95-.31-.24-.74-.36-1.28-.36-.59,0-1.14.11-1.66.33-.52.22-.98.46-1.39.73l-.67-1.18c.31-.21.67-.42,1.09-.62.42-.2.88-.37,1.37-.5.49-.13,1.01-.2,1.56-.2.83,0,1.5.17,2.03.52.53.34.91.83,1.16,1.46.25.63.37,1.37.37,2.23v6.27h-1.43l-.15-1.22h-.06c-.49.41-1.02.75-1.58,1.04-.56.29-1.16.43-1.81.43ZM235.3,67.11c.5,0,.98-.11,1.42-.34.44-.22.91-.55,1.4-.99v-2.76c-1.15.14-2.06.32-2.72.54-.67.22-1.15.49-1.44.81-.29.32-.44.71-.44,1.16,0,.56.17.96.53,1.21.35.25.77.37,1.26.37Z"/>
    <path class="st1" d="M244.58,68.48c-.44,0-.79-.09-1.05-.26-.27-.18-.46-.43-.59-.78-.13-.34-.19-.76-.19-1.25v-12.88h1.73v13c0,.28.05.47.15.58.1.1.22.16.36.16.06,0,.11,0,.16-.01.05,0,.12-.02.2-.03l.25,1.3c-.13.04-.27.08-.43.12-.16.03-.35.05-.58.05Z"/>
  </g>
</svg>