<?xml version="1.0" encoding="UTF-8"?>
<svg id="Layer_1" xmlns="http://www.w3.org/2000/svg" version="1.1" viewBox="0 0 425 269">
  <!-- Generator: Adobe Illustrator 29.8.2, SVG Export Plug-In . SVG Version: 2.1.1 Build 3)  -->
  <defs>
    <style>
      .st0 {
        fill: #dfd0e6;
      }

      .st1 {
        fill: #231f20;
      }

      .st2 {
        fill: #e65b25;
      }

      .st3 {
        fill: #fff;
      }

      .st4 {
        fill: #7251a0;
      }

      .st5 {
        fill: #f3d1af;
      }

      .st6 {
        fill: #434343;
      }
    </style>
  </defs>
  <g>
    <g>
      <path class="st1" d="M77.97,219.8v-7.65h1.93l1.23,3.4c.07.23.14.46.21.69.07.23.14.47.21.72h.05c.07-.25.14-.49.21-.72.07-.23.14-.46.21-.69l1.19-3.4h1.93v7.65h-1.58v-2.81c0-.25.01-.55.04-.89s.06-.68.09-1.02.07-.64.1-.89h-.05l-.63,2.02-1.07,2.93h-1.01l-1.07-2.93-.6-2.02h-.05c.03.25.06.55.1.89s.07.68.09,1.02.04.64.04.89v2.81h-1.56Z"/>
      <path class="st1" d="M88.78,219.94c-.63,0-1.09-.21-1.38-.63-.29-.42-.44-.99-.44-1.72v-3.62h1.73v3.4c0,.42.06.71.18.87.12.16.3.24.55.24.21,0,.39-.05.55-.15.15-.1.32-.26.49-.49v-3.87h1.73v5.83h-1.41l-.13-.81h-.04c-.25.3-.52.53-.81.7-.29.17-.63.25-1.02.25Z"/>
      <path class="st1" d="M95.52,219.93c-.39,0-.7-.08-.93-.24-.23-.16-.4-.39-.5-.68-.1-.29-.15-.64-.15-1.03v-6.41h1.72v6.48c0,.19.04.32.11.39.07.07.15.11.22.11.03,0,.06,0,.09,0s.06,0,.11-.02l.21,1.27c-.09.04-.2.07-.35.1s-.32.04-.52.04Z"/>
      <path class="st1" d="M97.53,219.8v-8.24h1.73v2.02l-.08,1.05c.22-.2.48-.38.77-.55s.64-.25,1.03-.25c.64,0,1.1.21,1.39.63.28.42.42.99.42,1.72v3.62h-1.73v-3.4c0-.42-.06-.71-.17-.87-.11-.16-.3-.24-.55-.24-.22,0-.41.05-.56.15-.16.1-.33.24-.52.42v3.94h-1.73Z"/>
      <path class="st1" d="M107.09,219.94c-.56,0-1.06-.12-1.5-.36-.45-.24-.8-.59-1.06-1.05s-.39-1.01-.39-1.66.13-1.16.39-1.62c.26-.46.6-.81,1.02-1.06.42-.25.87-.37,1.35-.37.55,0,1.01.12,1.38.37.37.25.64.58.82,1,.18.42.27.9.27,1.43,0,.15,0,.29-.02.43-.02.14-.04.25-.06.34h-3.81v-1.19s2.41,0,2.41,0c0-.31-.07-.56-.22-.76-.15-.2-.4-.3-.74-.3-.18,0-.36.05-.55.15s-.33.28-.45.53c-.12.25-.17.59-.16,1.03,0,.45.09.79.24,1.05s.35.43.58.54c.24.11.48.16.74.16.23,0,.45-.03.66-.09s.42-.16.62-.29l.55,1.06c-.29.21-.62.38-.99.49s-.73.17-1.08.17Z"/>
      <path class="st1" d="M110.8,219.8v-5.83h1.41l.12,1.02h.05c.21-.39.46-.68.76-.88.29-.19.59-.29.9-.29.16,0,.3,0,.41.03.11.02.2.05.28.09l-.33,1.47c-.09-.02-.18-.04-.27-.05-.09-.01-.19-.02-.32-.02-.22,0-.45.08-.69.24-.24.16-.44.43-.59.83v3.39h-1.73Z"/>
      <path class="st1" d="M118.21,219.94c-.56,0-1.06-.12-1.5-.36-.45-.24-.8-.59-1.06-1.05s-.39-1.01-.39-1.66.13-1.16.39-1.62c.26-.46.6-.81,1.02-1.06.42-.25.87-.37,1.35-.37.55,0,1.01.12,1.38.37.37.25.64.58.82,1,.18.42.27.9.27,1.43,0,.15,0,.29-.02.43-.02.14-.04.25-.06.34h-3.81v-1.19s2.41,0,2.41,0c0-.31-.07-.56-.22-.76-.15-.2-.4-.3-.74-.3-.18,0-.36.05-.55.15s-.33.28-.45.53c-.12.25-.17.59-.16,1.03,0,.45.09.79.24,1.05s.35.43.58.54c.24.11.48.16.74.16.23,0,.45-.03.66-.09s.42-.16.62-.29l.55,1.06c-.29.21-.62.38-.99.49s-.73.17-1.08.17Z"/>
      <path class="st1" d="M123.64,219.94c-.38,0-.78-.07-1.19-.22-.41-.15-.76-.36-1.05-.65l.73-.98c.27.21.53.36.79.44s.52.12.76.12c.26,0,.45-.04.56-.13.12-.09.18-.21.18-.36,0-.13-.05-.24-.16-.33-.11-.09-.24-.16-.41-.23s-.36-.14-.57-.22c-.28-.1-.54-.23-.78-.39-.24-.16-.43-.34-.57-.56-.15-.22-.22-.48-.22-.79,0-.55.21-.99.62-1.32.41-.33.95-.5,1.62-.5.42,0,.81.07,1.16.21.35.14.65.32.9.53l-.74.96c-.21-.15-.42-.26-.63-.32-.21-.07-.42-.1-.62-.1-.23,0-.4.04-.51.13-.11.09-.16.2-.16.33,0,.11.04.2.12.28.08.08.2.15.36.22s.36.14.61.22c.3.1.57.23.82.38.25.15.44.34.58.57.14.23.21.5.21.82,0,.35-.09.67-.28.95-.18.28-.45.51-.81.68-.35.17-.79.25-1.32.25Z"/>
      <path class="st1" d="M129.95,219.8v-5.83h1.41l.12.74h.05c.24-.24.52-.45.82-.62.31-.17.65-.26,1.05-.26.64,0,1.1.21,1.39.63.28.42.42.99.42,1.72v3.62h-1.73v-3.4c0-.42-.06-.71-.17-.87-.11-.16-.3-.24-.55-.24-.22,0-.41.05-.56.15-.16.1-.33.24-.52.42v3.94h-1.73Z"/>
      <path class="st1" d="M139.52,219.94c-.56,0-1.06-.12-1.5-.36-.45-.24-.8-.59-1.06-1.05s-.39-1.01-.39-1.66.13-1.16.39-1.62c.26-.46.6-.81,1.02-1.06.42-.25.87-.37,1.35-.37.55,0,1.01.12,1.38.37.37.25.64.58.82,1,.18.42.27.9.27,1.43,0,.15,0,.29-.02.43-.02.14-.04.25-.06.34h-3.81v-1.19s2.41,0,2.41,0c0-.31-.07-.56-.22-.76-.15-.2-.4-.3-.74-.3-.18,0-.36.05-.55.15s-.33.28-.45.53c-.12.25-.17.59-.16,1.03,0,.45.09.79.24,1.05s.35.43.58.54c.24.11.48.16.74.16.23,0,.45-.03.66-.09s.42-.16.62-.29l.55,1.06c-.29.21-.62.38-.99.49s-.73.17-1.08.17Z"/>
      <path class="st1" d="M145.2,222.28c-.45,0-.87-.05-1.24-.16-.37-.11-.67-.27-.88-.48-.22-.22-.32-.5-.32-.84,0-.24.07-.46.22-.66s.35-.37.62-.52v-.05c-.15-.1-.28-.23-.38-.39-.11-.16-.16-.36-.16-.59,0-.21.06-.41.19-.61.12-.19.28-.35.47-.49v-.05c-.21-.14-.4-.34-.55-.61s-.23-.57-.23-.91c0-.46.11-.85.34-1.16.23-.31.52-.55.89-.71.37-.16.76-.24,1.18-.24.16,0,.32.01.48.04s.3.06.43.11h2.13v1.26h-.98v.05c.08.1.14.21.18.33.04.12.06.26.06.41,0,.44-.1.8-.31,1.09-.2.29-.48.5-.83.64-.35.14-.73.21-1.16.21-.1,0-.21,0-.33-.03-.12-.02-.24-.05-.38-.09-.07.06-.12.12-.16.19-.04.06-.05.15-.05.25,0,.14.07.25.2.32.13.08.36.11.68.11h.94c.72,0,1.27.12,1.65.35.38.23.57.61.57,1.13,0,.4-.13.76-.4,1.08-.27.32-.64.57-1.13.75-.49.18-1.06.27-1.73.27ZM145.47,221.2c.26,0,.49-.03.69-.09s.36-.15.48-.26c.12-.11.18-.23.18-.36,0-.19-.08-.31-.23-.37-.16-.06-.38-.09-.66-.09h-.6c-.2,0-.37,0-.49-.02-.12-.01-.23-.03-.33-.05-.11.09-.19.19-.24.28-.05.09-.08.19-.08.3,0,.22.12.39.36.5.24.11.55.17.93.17ZM145.33,216.91c.16,0,.29-.04.41-.11.12-.08.21-.18.28-.32s.11-.32.11-.54c0-.31-.08-.55-.23-.71-.15-.16-.34-.24-.57-.24s-.42.08-.57.24c-.15.16-.23.39-.23.71,0,.22.04.4.11.54.07.14.17.25.29.32.12.07.25.11.4.11Z"/>
      <path class="st1" d="M149.63,219.8v-5.83h1.41l.12,1.02h.05c.21-.39.46-.68.76-.88.29-.19.59-.29.9-.29.16,0,.3,0,.41.03.11.02.2.05.28.09l-.33,1.47c-.09-.02-.18-.04-.27-.05-.09-.01-.19-.02-.32-.02-.22,0-.45.08-.69.24-.24.16-.44.43-.59.83v3.39h-1.73Z"/>
      <path class="st1" d="M155.67,219.94c-.34,0-.65-.08-.91-.23-.26-.16-.46-.37-.61-.63-.14-.26-.21-.56-.21-.9,0-.63.26-1.11.78-1.45s1.35-.57,2.5-.7c-.02-.16-.06-.31-.12-.43-.06-.12-.16-.22-.29-.28s-.3-.1-.51-.1c-.25,0-.5.04-.75.13-.25.09-.51.21-.79.36l-.62-1.12c.24-.15.5-.28.78-.4.27-.12.55-.21.83-.27.28-.06.58-.09.88-.09.5,0,.92.1,1.26.29.34.19.6.48.79.88s.28.89.28,1.48v3.33h-1.42l-.12-.6h-.05c-.25.22-.51.4-.79.54-.27.14-.58.21-.92.21ZM156.26,218.59c.2,0,.37-.04.52-.13s.3-.2.44-.35v-.99c-.41.05-.73.12-.96.21-.24.09-.4.19-.51.31-.1.12-.15.26-.15.41,0,.18.06.32.18.41.12.09.28.13.48.13Z"/>
      <path class="st1" d="M162.36,219.94c-.38,0-.78-.07-1.19-.22-.41-.15-.76-.36-1.05-.65l.73-.98c.27.21.53.36.79.44s.52.12.76.12c.26,0,.45-.04.56-.13.12-.09.18-.21.18-.36,0-.13-.05-.24-.16-.33-.11-.09-.24-.16-.41-.23s-.36-.14-.57-.22c-.28-.1-.54-.23-.78-.39-.24-.16-.43-.34-.57-.56-.15-.22-.22-.48-.22-.79,0-.55.21-.99.62-1.32.41-.33.95-.5,1.62-.5.42,0,.81.07,1.16.21.35.14.65.32.9.53l-.74.96c-.21-.15-.42-.26-.63-.32-.21-.07-.42-.1-.62-.1-.23,0-.4.04-.51.13-.11.09-.16.2-.16.33,0,.11.04.2.12.28.08.08.2.15.36.22s.36.14.61.22c.3.1.57.23.82.38.25.15.44.34.58.57.14.23.21.5.21.82,0,.35-.09.67-.28.95-.18.28-.45.51-.81.68-.35.17-.79.25-1.32.25Z"/>
      <path class="st1" d="M170.42,221.87c-.49-.79-.87-1.62-1.14-2.49-.27-.87-.41-1.82-.41-2.85s.14-1.99.41-2.86c.27-.87.65-1.7,1.14-2.48l.6.28c-.45.74-.79,1.55-1.02,2.42-.22.87-.33,1.75-.33,2.64s.11,1.77.33,2.63c.22.86.56,1.67,1.02,2.42l-.6.28Z"/>
      <path class="st1" d="M174.46,219.94c-.4,0-.75-.05-1.06-.15s-.57-.23-.8-.38c-.23-.16-.43-.32-.6-.49l.47-.63c.23.22.49.42.79.59.3.18.67.26,1.1.26.31,0,.58-.07.83-.21.25-.14.44-.34.59-.59.15-.25.22-.56.22-.91,0-.52-.15-.92-.44-1.21s-.68-.44-1.16-.44c-.25,0-.47.04-.66.12s-.4.19-.62.34l-.52-.33.25-3.61h3.75v.83h-2.9l-.2,2.22c.18-.09.36-.17.54-.22.18-.05.38-.08.61-.08.43,0,.82.08,1.18.25.35.16.63.42.84.77s.31.79.31,1.33-.12,1-.36,1.38c-.24.38-.55.67-.93.86-.38.2-.8.29-1.23.29Z"/>
      <path class="st1" d="M180.72,219.94c-.47,0-.89-.09-1.26-.26-.37-.18-.66-.42-.88-.74s-.32-.67-.32-1.06c0-.33.07-.62.21-.88.14-.25.31-.48.53-.67.22-.19.44-.35.68-.48v-.05c-.27-.2-.52-.43-.73-.72-.21-.28-.32-.62-.32-1.01s.09-.72.28-1.01.44-.52.76-.68c.32-.16.68-.24,1.09-.24.65,0,1.17.19,1.55.56.38.37.57.85.57,1.44,0,.26-.05.5-.16.74-.11.23-.24.44-.4.62-.16.18-.31.34-.47.45v.05c.22.13.43.27.63.45.2.17.36.38.49.62.12.24.19.53.19.86,0,.37-.1.7-.3,1s-.48.54-.85.72c-.36.18-.79.27-1.28.27ZM180.75,219.23c.29,0,.54-.05.76-.16.22-.11.39-.26.52-.46.12-.2.19-.43.19-.69,0-.32-.09-.58-.28-.79-.19-.2-.44-.38-.74-.52-.31-.15-.64-.29-1.01-.44-.3.2-.55.43-.75.71-.2.27-.3.58-.3.93,0,.27.07.52.21.73s.33.39.58.51c.24.12.52.19.82.19ZM181.25,215.71c.26-.23.45-.47.59-.72.13-.25.2-.51.2-.79,0-.24-.05-.46-.15-.66-.1-.2-.25-.36-.45-.48-.2-.12-.43-.18-.71-.18-.35,0-.63.11-.86.33-.23.22-.35.52-.35.88,0,.3.08.54.24.74.16.2.37.36.64.5.26.14.55.26.85.38Z"/>
      <path class="st1" d="M184.65,221.8l-.24-.56c.34-.15.6-.35.79-.61.19-.25.28-.54.27-.85l-.11-.87.48.71c-.07.07-.15.12-.23.15-.08.03-.17.05-.26.05-.19,0-.35-.06-.49-.18-.14-.12-.21-.28-.21-.49s.07-.38.22-.5c.15-.12.31-.18.5-.18.26,0,.46.1.6.3.14.2.21.48.21.84,0,.5-.14.94-.41,1.33-.27.38-.65.67-1.13.87Z"/>
      <path class="st1" d="M187.49,219.8v-.59c.74-.74,1.38-1.39,1.91-1.96s.93-1.08,1.21-1.55c.27-.46.41-.89.41-1.29,0-.43-.12-.78-.35-1.06s-.59-.41-1.07-.41c-.31,0-.6.09-.87.26-.27.17-.51.39-.73.65l-.54-.53c.31-.35.65-.63,1-.85s.77-.32,1.25-.32.86.09,1.2.28c.34.18.6.44.78.77s.27.71.27,1.15c0,.49-.14.97-.41,1.45-.27.48-.64.98-1.11,1.5-.47.53-1.01,1.1-1.62,1.73.2-.02.42-.04.63-.05s.43-.02.62-.02h2.26v.83h-4.84Z"/>
      <path class="st1" d="M195.26,216.82c-.35,0-.66-.1-.92-.29-.26-.19-.47-.47-.61-.83s-.22-.81-.22-1.32c0-.78.16-1.37.48-1.79.32-.42.74-.63,1.27-.63s.95.21,1.27.63c.32.42.48,1.02.48,1.79,0,.52-.07.96-.22,1.32s-.35.64-.61.83c-.26.19-.57.29-.92.29ZM195.26,216.22c.31,0,.55-.16.73-.46s.28-.77.28-1.38-.09-1.08-.28-1.38-.43-.45-.73-.45-.54.15-.73.45-.29.76-.29,1.38.1,1.07.29,1.38.44.46.73.46ZM195.49,219.94l4.26-7.99h.66l-4.26,7.99h-.66ZM200.63,219.94c-.35,0-.66-.1-.92-.29-.26-.19-.47-.47-.61-.83s-.22-.81-.22-1.32c0-.78.16-1.37.48-1.79.32-.42.74-.63,1.27-.63s.95.21,1.27.63c.32.42.48,1.02.48,1.79,0,.52-.07.96-.22,1.32s-.35.64-.61.83c-.26.19-.57.29-.92.29ZM200.63,219.34c.31,0,.55-.16.73-.46s.28-.77.28-1.38-.09-1.08-.28-1.38c-.18-.3-.43-.45-.73-.45s-.54.15-.73.45c-.19.3-.29.76-.29,1.38s.1,1.07.29,1.38c.19.31.44.46.73.46Z"/>
      <path class="st1" d="M204.07,221.87l-.6-.28c.45-.75.79-1.56,1.02-2.42.22-.86.33-1.74.33-2.63s-.11-1.77-.33-2.64c-.22-.87-.56-1.67-1.02-2.42l.6-.28c.49.78.88,1.61,1.15,2.48.27.87.41,1.82.41,2.86s-.13,1.98-.41,2.85c-.27.87-.65,1.69-1.15,2.49Z"/>
    </g>
    <rect class="st4" x="26.71" y="211.8" width="44.83" height="11.31" rx="4.81" ry="4.81"/>
    <g>
      <path class="st1" d="M280.48,219.8v-7.65h1.73v2.94h2.65v-2.94h1.74v7.65h-1.74v-3.2h-2.65v3.2h-1.73Z"/>
      <path class="st1" d="M291,219.94c-.49,0-.96-.12-1.39-.36-.43-.24-.78-.59-1.05-1.05-.27-.46-.41-1.01-.41-1.65s.14-1.19.41-1.65c.27-.46.62-.81,1.05-1.05.43-.24.89-.36,1.39-.36s.94.12,1.38.36c.43.24.78.59,1.05,1.05.27.46.41,1.01.41,1.65s-.13,1.19-.41,1.65-.62.81-1.05,1.05c-.43.24-.89.36-1.38.36ZM291,218.54c.24,0,.43-.07.59-.2.16-.13.28-.33.36-.58.08-.25.12-.54.12-.88s-.04-.63-.12-.88-.2-.44-.36-.58c-.16-.13-.36-.2-.59-.2s-.44.07-.6.2c-.16.13-.27.33-.35.58s-.12.54-.12.88.04.63.12.88c.08.25.2.44.35.58.16.13.36.2.6.2Z"/>
      <path class="st1" d="M295.25,219.8v-5.83h1.41l.12.75h.05c.24-.24.49-.45.77-.63s.61-.26.99-.26c.42,0,.75.08,1.01.25s.46.41.6.72c.26-.27.53-.5.82-.69.29-.19.63-.29,1.01-.29.63,0,1.1.21,1.39.63.29.42.44.99.44,1.72v3.62h-1.73v-3.4c0-.42-.06-.71-.17-.87-.11-.16-.3-.24-.55-.24-.15,0-.31.04-.47.13-.16.09-.34.23-.53.43v3.94h-1.73v-3.4c0-.42-.06-.71-.17-.87-.11-.16-.3-.24-.55-.24-.3,0-.63.19-.99.56v3.94h-1.73Z"/>
      <path class="st1" d="M308.17,219.94c-.56,0-1.06-.12-1.5-.36-.45-.24-.8-.59-1.06-1.05-.26-.46-.39-1.01-.39-1.66s.13-1.16.39-1.62c.26-.46.6-.81,1.02-1.06.42-.25.87-.37,1.35-.37.55,0,1.01.12,1.38.37.37.25.64.58.82,1,.18.42.27.9.27,1.43,0,.15,0,.29-.02.43-.02.14-.04.25-.06.34h-3.81v-1.19s2.41,0,2.41,0c0-.31-.07-.56-.22-.76-.15-.2-.4-.3-.74-.3-.18,0-.36.05-.55.15-.18.1-.33.28-.45.53-.12.25-.17.59-.17,1.03,0,.45.09.79.24,1.05.15.25.35.43.58.54.24.11.48.16.74.16.23,0,.45-.03.66-.09.21-.06.42-.16.62-.29l.55,1.06c-.29.21-.62.38-.99.49s-.73.17-1.08.17Z"/>
      <path class="st1" d="M311.89,219.8v-5.83h1.41l.12.74h.05c.24-.24.52-.45.82-.62.31-.17.65-.26,1.05-.26.64,0,1.11.21,1.39.63.28.42.42.99.42,1.72v3.62h-1.73v-3.4c0-.42-.06-.71-.17-.87-.11-.16-.3-.24-.55-.24-.22,0-.41.05-.56.15-.16.1-.33.24-.52.42v3.94h-1.73Z"/>
      <path class="st1" d="M320.56,219.94c-.38,0-.78-.07-1.19-.22-.41-.15-.76-.36-1.05-.65l.73-.98c.27.21.53.36.79.44.26.08.51.12.76.12.26,0,.45-.04.56-.13.12-.09.18-.21.18-.36,0-.13-.05-.24-.16-.33-.11-.09-.24-.16-.41-.23-.17-.07-.36-.14-.57-.22-.28-.1-.54-.23-.78-.39-.23-.16-.42-.34-.57-.56-.14-.22-.22-.48-.22-.79,0-.55.21-.99.62-1.32.41-.33.95-.5,1.62-.5.42,0,.81.07,1.16.21.35.14.65.32.9.53l-.74.96c-.21-.15-.42-.26-.63-.32-.21-.07-.42-.1-.62-.1-.23,0-.4.04-.51.13-.11.09-.16.2-.16.33,0,.11.04.2.12.28.08.08.2.15.36.22.16.07.36.14.61.22.3.1.57.23.82.38.25.15.44.34.58.57.14.23.21.5.21.82,0,.35-.09.67-.28.95-.18.28-.45.51-.81.68-.35.17-.79.25-1.32.25Z"/>
      <path class="st1" d="M326.87,219.8v-5.83h1.41l.12.74h.05c.24-.24.52-.45.82-.62.31-.17.65-.26,1.05-.26.64,0,1.11.21,1.39.63.28.42.42.99.42,1.72v3.62h-1.73v-3.4c0-.42-.06-.71-.17-.87-.11-.16-.3-.24-.55-.24-.22,0-.41.05-.56.15-.16.1-.33.24-.52.42v3.94h-1.73Z"/>
      <path class="st1" d="M336.44,219.94c-.56,0-1.06-.12-1.5-.36-.45-.24-.8-.59-1.06-1.05-.26-.46-.39-1.01-.39-1.66s.13-1.16.39-1.62c.26-.46.6-.81,1.02-1.06.42-.25.87-.37,1.35-.37.55,0,1.01.12,1.38.37.37.25.64.58.82,1,.18.42.27.9.27,1.43,0,.15,0,.29-.02.43-.02.14-.04.25-.06.34h-3.81v-1.19s2.41,0,2.41,0c0-.31-.07-.56-.22-.76-.15-.2-.4-.3-.74-.3-.18,0-.36.05-.55.15-.18.1-.33.28-.45.53-.12.25-.17.59-.17,1.03,0,.45.09.79.24,1.05.15.25.35.43.58.54.24.11.48.16.74.16.23,0,.45-.03.66-.09.21-.06.42-.16.62-.29l.55,1.06c-.29.21-.62.38-.99.49s-.73.17-1.08.17Z"/>
      <path class="st1" d="M342.12,222.28c-.46,0-.87-.05-1.24-.16-.37-.11-.67-.27-.88-.48-.22-.22-.32-.5-.32-.84,0-.24.07-.46.22-.66.14-.2.35-.37.62-.52v-.05c-.15-.1-.28-.23-.38-.39-.11-.16-.16-.36-.16-.59,0-.21.06-.41.19-.61.12-.19.28-.35.47-.49v-.05c-.21-.14-.4-.34-.55-.61-.16-.27-.24-.57-.24-.91,0-.46.11-.85.34-1.16s.52-.55.89-.71c.37-.16.76-.24,1.17-.24.17,0,.32.01.48.04.15.02.3.06.43.11h2.13v1.26h-.98v.05c.08.1.14.21.18.33.04.12.06.26.06.41,0,.44-.1.8-.31,1.09-.2.29-.48.5-.83.64-.35.14-.73.21-1.16.21-.1,0-.21,0-.33-.03-.12-.02-.24-.05-.38-.09-.07.06-.12.12-.16.19-.04.06-.05.15-.05.25,0,.14.07.25.2.32.13.08.36.11.68.11h.94c.72,0,1.27.12,1.65.35.38.23.57.61.57,1.13,0,.4-.13.76-.4,1.08s-.64.57-1.13.75c-.49.18-1.06.27-1.73.27ZM342.39,221.2c.26,0,.49-.03.69-.09s.36-.15.48-.26c.12-.11.18-.23.18-.36,0-.19-.08-.31-.24-.37-.16-.06-.38-.09-.66-.09h-.6c-.2,0-.37,0-.49-.02-.12-.01-.23-.03-.33-.05-.11.09-.19.19-.24.28-.05.09-.08.19-.08.3,0,.22.12.39.36.5.24.11.55.17.93.17ZM342.25,216.91c.16,0,.29-.04.41-.11.12-.08.21-.18.28-.32.07-.14.11-.32.11-.54,0-.31-.08-.55-.23-.71-.15-.16-.34-.24-.57-.24s-.42.08-.57.24c-.15.16-.23.39-.23.71,0,.22.04.4.11.54.07.14.17.25.29.32.12.07.25.11.4.11Z"/>
      <path class="st1" d="M346.55,219.8v-5.83h1.41l.12,1.02h.05c.21-.39.46-.68.76-.88.29-.19.59-.29.9-.29.16,0,.3,0,.41.03.11.02.2.05.28.09l-.33,1.47c-.09-.02-.18-.04-.27-.05s-.19-.02-.32-.02c-.22,0-.45.08-.69.24-.24.16-.44.43-.59.83v3.39h-1.73Z"/>
      <path class="st1" d="M353.85,219.94c-.49,0-.96-.12-1.39-.36-.43-.24-.78-.59-1.05-1.05-.27-.46-.41-1.01-.41-1.65s.14-1.19.41-1.65c.27-.46.62-.81,1.05-1.05.43-.24.89-.36,1.39-.36s.94.12,1.38.36c.43.24.78.59,1.05,1.05.27.46.41,1.01.41,1.65s-.13,1.19-.41,1.65-.62.81-1.05,1.05c-.43.24-.89.36-1.38.36ZM353.85,218.54c.24,0,.43-.07.59-.2.16-.13.28-.33.36-.58.08-.25.12-.54.12-.88s-.04-.63-.12-.88-.2-.44-.36-.58c-.16-.13-.36-.2-.59-.2s-.44.07-.6.2c-.16.13-.27.33-.35.58s-.12.54-.12.88.04.63.12.88c.08.25.2.44.35.58.16.13.36.2.6.2Z"/>
      <path class="st1" d="M359.76,219.94c-.38,0-.78-.07-1.19-.22-.41-.15-.76-.36-1.05-.65l.73-.98c.27.21.53.36.79.44.26.08.51.12.76.12.26,0,.45-.04.56-.13.12-.09.18-.21.18-.36,0-.13-.05-.24-.16-.33-.11-.09-.24-.16-.41-.23-.17-.07-.36-.14-.57-.22-.28-.1-.54-.23-.78-.39-.23-.16-.42-.34-.57-.56-.14-.22-.22-.48-.22-.79,0-.55.21-.99.62-1.32.41-.33.95-.5,1.62-.5.42,0,.81.07,1.16.21.35.14.65.32.9.53l-.74.96c-.21-.15-.42-.26-.63-.32-.21-.07-.42-.1-.62-.1-.23,0-.4.04-.51.13-.11.09-.16.2-.16.33,0,.11.04.2.12.28.08.08.2.15.36.22.16.07.36.14.61.22.3.1.57.23.82.38.25.15.44.34.58.57.14.23.21.5.21.82,0,.35-.09.67-.28.95-.18.28-.45.51-.81.68-.35.17-.79.25-1.32.25Z"/>
      <path class="st1" d="M367.83,221.87c-.49-.79-.87-1.62-1.14-2.49-.27-.87-.41-1.82-.41-2.85s.14-1.99.41-2.86c.27-.87.65-1.7,1.14-2.48l.6.28c-.46.74-.79,1.55-1.02,2.42-.22.87-.33,1.75-.33,2.64s.11,1.77.33,2.63c.22.86.56,1.67,1.02,2.42l-.6.28Z"/>
      <path class="st1" d="M369.58,219.8v-.59c.75-.74,1.38-1.39,1.91-1.96.53-.57.93-1.08,1.2-1.55.27-.46.41-.89.41-1.29,0-.43-.12-.78-.35-1.06-.23-.27-.59-.41-1.07-.41-.31,0-.6.09-.87.26-.27.17-.51.39-.73.65l-.54-.53c.31-.35.65-.63,1.01-.85.36-.21.77-.32,1.25-.32s.86.09,1.2.28c.34.18.6.44.78.77.18.33.27.71.27,1.15,0,.49-.14.97-.41,1.45-.27.48-.64.98-1.11,1.5-.47.53-1.01,1.1-1.62,1.73.2-.02.42-.04.63-.05.22-.01.43-.02.62-.02h2.26v.83h-4.84Z"/>
      <path class="st1" d="M377.2,219.8c.03-.71.1-1.35.19-1.95s.24-1.15.41-1.67c.18-.52.4-1.03.67-1.53.27-.5.6-1,.98-1.52h-3.75v-.83h4.83v.6c-.45.56-.82,1.11-1.11,1.63-.29.52-.52,1.05-.69,1.58-.17.53-.29,1.1-.37,1.69s-.13,1.26-.17,2h-1Z"/>
      <path class="st1" d="M382.05,221.8l-.23-.56c.34-.15.6-.35.79-.61.19-.25.28-.54.27-.85l-.11-.87.48.71c-.07.07-.15.12-.23.15-.08.03-.17.05-.26.05-.19,0-.35-.06-.49-.18-.14-.12-.21-.28-.21-.49s.07-.38.22-.5c.15-.12.31-.18.5-.18.26,0,.46.1.6.3.14.2.21.48.21.84,0,.5-.14.94-.41,1.33-.27.38-.65.67-1.13.87Z"/>
      <path class="st1" d="M387.2,219.94c-.4,0-.75-.05-1.06-.15s-.58-.23-.8-.39c-.23-.16-.43-.33-.6-.52l.49-.63c.23.24.49.44.79.62.3.18.68.27,1.12.27s.83-.12,1.12-.38.43-.58.43-1c0-.3-.08-.56-.23-.78-.15-.22-.4-.4-.75-.52-.35-.12-.82-.19-1.42-.19v-.74c.53,0,.95-.06,1.26-.19s.53-.29.66-.5c.13-.21.2-.44.2-.71,0-.37-.12-.66-.35-.87-.23-.21-.55-.32-.95-.32-.31,0-.6.07-.87.21s-.51.33-.73.55l-.52-.61c.29-.27.61-.5.96-.68.35-.18.75-.26,1.19-.26s.83.07,1.16.22c.34.15.6.36.79.65.19.28.29.63.29,1.03,0,.45-.13.83-.38,1.12-.25.29-.58.51-.99.67v.05c.31.07.58.19.82.36.24.17.44.38.58.64.14.26.22.56.22.91,0,.45-.11.83-.33,1.15-.22.32-.52.56-.89.74-.38.17-.79.26-1.25.26Z"/>
      <path class="st1" d="M392.67,216.82c-.35,0-.66-.1-.92-.29-.26-.19-.47-.47-.61-.83-.15-.36-.22-.81-.22-1.32,0-.78.16-1.37.48-1.79.32-.42.74-.63,1.27-.63s.95.21,1.27.63c.32.42.48,1.02.48,1.79,0,.52-.07.96-.22,1.32-.15.36-.35.64-.61.83-.26.19-.57.29-.92.29ZM392.67,216.22c.31,0,.55-.16.73-.46s.28-.77.28-1.38-.09-1.08-.28-1.38-.43-.45-.73-.45-.54.15-.73.45c-.19.3-.29.76-.29,1.38s.1,1.07.29,1.38c.19.31.44.46.73.46ZM392.89,219.94l4.25-7.99h.66l-4.25,7.99h-.66ZM398.04,219.94c-.35,0-.66-.1-.92-.29-.26-.19-.47-.47-.61-.83-.15-.36-.22-.81-.22-1.32,0-.78.16-1.37.48-1.79s.74-.63,1.27-.63.95.21,1.27.63.48,1.02.48,1.79c0,.52-.07.96-.22,1.32-.15.36-.35.64-.61.83-.26.19-.57.29-.92.29ZM398.04,219.34c.31,0,.55-.16.73-.46s.28-.77.28-1.38-.09-1.08-.28-1.38c-.18-.3-.43-.45-.73-.45s-.54.15-.74.45c-.19.3-.29.76-.29,1.38s.1,1.07.29,1.38c.19.31.44.46.74.46Z"/>
      <path class="st1" d="M401.47,221.87l-.6-.28c.46-.75.79-1.56,1.02-2.42.22-.86.33-1.74.33-2.63s-.11-1.77-.33-2.64c-.22-.87-.56-1.67-1.02-2.42l.6-.28c.49.78.88,1.61,1.15,2.48.27.87.41,1.82.41,2.86s-.13,1.98-.41,2.85c-.27.87-.65,1.69-1.15,2.49Z"/>
    </g>
    <rect class="st2" x="229.22" y="211.8" width="44.83" height="11.31" rx="4.81" ry="4.81"/>
    <g>
      <path class="st1" d="M77.97,240.65v-7.65h1.93l1.23,3.4c.07.23.14.46.21.69.07.23.14.47.21.72h.05c.07-.25.14-.49.21-.72.07-.23.14-.46.21-.69l1.19-3.4h1.93v7.65h-1.58v-2.81c0-.25.01-.55.04-.89s.06-.68.09-1.02.07-.64.1-.89h-.05l-.63,2.02-1.07,2.93h-1.01l-1.07-2.93-.6-2.02h-.05c.03.25.06.55.1.89s.07.68.09,1.02.04.64.04.89v2.81h-1.56Z"/>
      <path class="st1" d="M88.78,240.79c-.63,0-1.09-.21-1.38-.63-.29-.42-.44-.99-.44-1.72v-3.62h1.73v3.4c0,.42.06.71.18.87.12.16.3.24.55.24.21,0,.39-.05.55-.15.15-.1.32-.26.49-.49v-3.87h1.73v5.83h-1.41l-.13-.81h-.04c-.25.3-.52.53-.81.7-.29.17-.63.25-1.02.25Z"/>
      <path class="st1" d="M95.52,240.78c-.39,0-.7-.08-.93-.24-.23-.16-.4-.39-.5-.68-.1-.29-.15-.64-.15-1.03v-6.41h1.72v6.48c0,.19.04.32.11.39.07.07.15.11.22.11.03,0,.06,0,.09,0s.06,0,.11-.02l.21,1.27c-.09.04-.2.07-.35.1s-.32.04-.52.04Z"/>
      <path class="st1" d="M97.53,240.65v-8.24h1.73v2.02l-.08,1.05c.22-.2.48-.38.77-.55s.64-.25,1.03-.25c.64,0,1.1.21,1.39.63.28.42.42.99.42,1.72v3.62h-1.73v-3.4c0-.42-.06-.71-.17-.87-.11-.16-.3-.24-.55-.24-.22,0-.41.05-.56.15-.16.1-.33.24-.52.42v3.94h-1.73Z"/>
      <path class="st1" d="M107.09,240.79c-.56,0-1.06-.12-1.5-.36-.45-.24-.8-.59-1.06-1.05s-.39-1.01-.39-1.66.13-1.16.39-1.62c.26-.46.6-.81,1.02-1.06.42-.25.87-.37,1.35-.37.55,0,1.01.12,1.38.37.37.25.64.58.82,1,.18.42.27.9.27,1.43,0,.15,0,.29-.02.43-.02.14-.04.25-.06.34h-3.81v-1.19s2.41,0,2.41,0c0-.31-.07-.56-.22-.76-.15-.2-.4-.3-.74-.3-.18,0-.36.05-.55.15s-.33.28-.45.53c-.12.25-.17.59-.16,1.03,0,.45.09.79.24,1.05s.35.43.58.54c.24.11.48.16.74.16.23,0,.45-.03.66-.09s.42-.16.62-.29l.55,1.06c-.29.21-.62.38-.99.49s-.73.17-1.08.17Z"/>
      <path class="st1" d="M110.8,240.65v-5.83h1.41l.12,1.02h.05c.21-.39.46-.68.76-.88.29-.19.59-.29.9-.29.16,0,.3,0,.41.03.11.02.2.05.28.09l-.33,1.47c-.09-.02-.18-.04-.27-.05-.09-.01-.19-.02-.32-.02-.22,0-.45.08-.69.24-.24.16-.44.43-.59.83v3.39h-1.73Z"/>
      <path class="st1" d="M118.21,240.79c-.56,0-1.06-.12-1.5-.36-.45-.24-.8-.59-1.06-1.05s-.39-1.01-.39-1.66.13-1.16.39-1.62c.26-.46.6-.81,1.02-1.06.42-.25.87-.37,1.35-.37.55,0,1.01.12,1.38.37.37.25.64.58.82,1,.18.42.27.9.27,1.43,0,.15,0,.29-.02.43-.02.14-.04.25-.06.34h-3.81v-1.19s2.41,0,2.41,0c0-.31-.07-.56-.22-.76-.15-.2-.4-.3-.74-.3-.18,0-.36.05-.55.15s-.33.28-.45.53c-.12.25-.17.59-.16,1.03,0,.45.09.79.24,1.05s.35.43.58.54c.24.11.48.16.74.16.23,0,.45-.03.66-.09s.42-.16.62-.29l.55,1.06c-.29.21-.62.38-.99.49s-.73.17-1.08.17Z"/>
      <path class="st1" d="M123.64,240.79c-.38,0-.78-.07-1.19-.22-.41-.15-.76-.36-1.05-.65l.73-.98c.27.21.53.36.79.44s.52.12.76.12c.26,0,.45-.04.56-.13.12-.09.18-.21.18-.36,0-.13-.05-.24-.16-.33-.11-.09-.24-.16-.41-.23s-.36-.14-.57-.22c-.28-.1-.54-.23-.78-.39-.24-.16-.43-.34-.57-.56-.15-.22-.22-.48-.22-.79,0-.55.21-.99.62-1.32.41-.33.95-.5,1.62-.5.42,0,.81.07,1.16.21.35.14.65.32.9.53l-.74.96c-.21-.15-.42-.26-.63-.32-.21-.07-.42-.1-.62-.1-.23,0-.4.04-.51.13-.11.09-.16.2-.16.33,0,.11.04.2.12.28.08.08.2.15.36.22s.36.14.61.22c.3.1.57.23.82.38.25.15.44.34.58.57.14.23.21.5.21.82,0,.35-.09.67-.28.95-.18.28-.45.51-.81.68-.35.17-.79.25-1.32.25Z"/>
      <path class="st1" d="M133.01,240.79c-.26,0-.52-.06-.78-.19-.26-.13-.51-.32-.74-.57h-.05l-.14.62h-1.35v-8.24h1.73v2.02l-.05.89c.22-.2.46-.36.73-.48.27-.11.54-.17.81-.17.47,0,.88.12,1.22.36.34.24.61.59.79,1.03.18.44.28.96.28,1.56,0,.67-.12,1.24-.35,1.71-.23.47-.54.83-.91,1.08-.37.25-.77.37-1.19.37ZM132.61,239.38c.2,0,.38-.06.55-.18.17-.12.3-.3.39-.56.09-.25.14-.58.14-.98,0-.35-.04-.64-.11-.88-.07-.23-.19-.41-.33-.52-.15-.12-.34-.18-.56-.18-.17,0-.34.04-.5.12s-.33.22-.5.41v2.39c.15.13.31.23.47.29s.32.09.46.09Z"/>
      <path class="st1" d="M136.92,240.65v-5.83h1.41l.12,1.02h.05c.21-.39.46-.68.76-.88.29-.19.59-.29.9-.29.16,0,.3,0,.41.03.11.02.2.05.28.09l-.33,1.47c-.09-.02-.18-.04-.27-.05-.09-.01-.19-.02-.32-.02-.22,0-.45.08-.69.24-.24.16-.44.43-.59.83v3.39h-1.73Z"/>
      <path class="st1" d="M142.96,240.79c-.34,0-.65-.08-.91-.23-.26-.16-.46-.37-.61-.63-.14-.26-.21-.56-.21-.9,0-.63.26-1.11.78-1.45s1.35-.57,2.5-.7c-.02-.16-.06-.31-.12-.43-.06-.12-.16-.22-.29-.28s-.3-.1-.51-.1c-.25,0-.5.04-.75.13-.25.09-.51.21-.79.36l-.62-1.12c.24-.15.5-.28.78-.4.27-.12.55-.21.83-.27.28-.06.58-.09.88-.09.5,0,.92.1,1.26.29.34.19.6.48.79.88s.28.89.28,1.48v3.33h-1.42l-.12-.6h-.05c-.25.22-.51.4-.79.54-.27.14-.58.21-.92.21ZM143.55,239.44c.2,0,.37-.04.52-.13s.3-.2.44-.35v-.99c-.41.05-.73.12-.96.21-.24.09-.4.19-.51.31-.1.12-.15.26-.15.41,0,.18.06.32.18.41.12.09.28.13.48.13Z"/>
      <path class="st1" d="M147.94,240.65v-5.83h1.41l.12.74h.05c.24-.24.52-.45.82-.62.31-.17.65-.26,1.05-.26.64,0,1.1.21,1.39.63.28.42.42.99.42,1.72v3.62h-1.73v-3.4c0-.42-.06-.71-.17-.87-.11-.16-.3-.24-.55-.24-.22,0-.41.05-.56.15-.16.1-.33.24-.52.42v3.94h-1.73Z"/>
      <path class="st1" d="M157.47,240.79c-.56,0-1.05-.12-1.49-.36-.44-.24-.79-.59-1.04-1.04-.25-.45-.38-1-.38-1.65s.14-1.19.42-1.65c.28-.46.65-.81,1.12-1.05.46-.24.96-.36,1.49-.36.36,0,.68.06.97.17.29.11.53.26.73.45l-.8,1.07c-.12-.09-.24-.17-.36-.22s-.27-.08-.44-.08c-.27,0-.51.07-.72.21-.2.14-.36.33-.48.58s-.18.54-.18.88.06.63.18.88c.12.25.27.44.47.58.2.13.42.2.68.2.2,0,.38-.04.55-.11.17-.07.33-.17.48-.28l.68,1.07c-.25.22-.54.39-.86.52-.33.13-.67.19-1.03.19Z"/>
      <path class="st1" d="M161.97,240.79c-.34,0-.65-.08-.91-.23-.26-.16-.46-.37-.61-.63-.14-.26-.21-.56-.21-.9,0-.63.26-1.11.78-1.45s1.35-.57,2.5-.7c-.02-.16-.06-.31-.12-.43-.06-.12-.16-.22-.29-.28s-.3-.1-.51-.1c-.25,0-.5.04-.75.13-.25.09-.51.21-.79.36l-.62-1.12c.24-.15.5-.28.78-.4.27-.12.55-.21.83-.27.28-.06.58-.09.88-.09.5,0,.92.1,1.26.29.34.19.6.48.79.88s.28.89.28,1.48v3.33h-1.42l-.12-.6h-.05c-.25.22-.51.4-.79.54-.27.14-.58.21-.92.21ZM162.56,239.44c.2,0,.37-.04.52-.13s.3-.2.44-.35v-.99c-.41.05-.73.12-.96.21-.24.09-.4.19-.51.31-.1.12-.15.26-.15.41,0,.18.06.32.18.41.12.09.28.13.48.13Z"/>
      <path class="st1" d="M168.66,240.79c-.38,0-.78-.07-1.19-.22-.41-.15-.76-.36-1.05-.65l.73-.98c.27.21.53.36.79.44s.52.12.76.12c.26,0,.45-.04.56-.13.12-.09.18-.21.18-.36,0-.13-.05-.24-.16-.33-.11-.09-.24-.16-.41-.23s-.36-.14-.57-.22c-.28-.1-.54-.23-.78-.39-.24-.16-.43-.34-.57-.56-.15-.22-.22-.48-.22-.79,0-.55.21-.99.62-1.32.41-.33.95-.5,1.62-.5.42,0,.81.07,1.16.21.35.14.65.32.9.53l-.74.96c-.21-.15-.42-.26-.63-.32-.21-.07-.42-.1-.62-.1-.23,0-.4.04-.51.13-.11.09-.16.2-.16.33,0,.11.04.2.12.28.08.08.2.15.36.22s.36.14.61.22c.3.1.57.23.82.38.25.15.44.34.58.57.14.23.21.5.21.82,0,.35-.09.67-.28.95-.18.28-.45.51-.81.68-.35.17-.79.25-1.32.25Z"/>
      <path class="st1" d="M176.73,242.72c-.49-.79-.87-1.62-1.14-2.49-.27-.87-.41-1.82-.41-2.85s.14-1.99.41-2.86c.27-.87.65-1.7,1.14-2.48l.6.28c-.45.74-.79,1.55-1.02,2.42-.22.87-.33,1.75-.33,2.64s.11,1.77.33,2.63c.22.86.56,1.67,1.02,2.42l-.6.28Z"/>
      <path class="st1" d="M178.93,240.65v-.8h1.72v-5.52h-1.36v-.62c.34-.06.63-.14.89-.23.26-.09.49-.2.69-.32h.74v6.7h1.55v.8h-4.23Z"/>
      <path class="st1" d="M187.01,240.79c-.75,0-1.34-.34-1.77-1.02s-.64-1.64-.64-2.9.21-2.22.64-2.88,1.02-.99,1.77-.99,1.33.33,1.76.99c.43.66.64,1.62.64,2.87s-.21,2.22-.64,2.9c-.43.68-1.01,1.02-1.76,1.02ZM187.01,240.02c.29,0,.54-.11.76-.33s.39-.56.51-1.02c.12-.46.18-1.06.18-1.79s-.06-1.33-.18-1.79c-.12-.45-.29-.79-.51-.99-.22-.21-.47-.31-.76-.31s-.56.1-.78.31c-.22.21-.39.54-.51.99-.12.46-.18,1.05-.18,1.79s.06,1.32.18,1.79c.12.46.29.8.51,1.02.22.22.48.33.78.33Z"/>
      <path class="st1" d="M190.95,242.65l-.24-.56c.34-.15.6-.35.79-.61.19-.25.28-.54.27-.85l-.11-.87.48.71c-.07.07-.15.12-.23.15-.08.03-.17.05-.26.05-.19,0-.35-.06-.49-.18-.14-.12-.21-.28-.21-.49s.07-.38.22-.5c.15-.12.31-.18.5-.18.26,0,.46.1.6.3.14.2.21.48.21.84,0,.5-.14.94-.41,1.33-.27.38-.65.67-1.13.87Z"/>
      <path class="st1" d="M194.25,240.65v-.8h1.72v-5.52h-1.36v-.62c.34-.06.63-.14.89-.23.26-.09.49-.2.69-.32h.74v6.7h1.55v.8h-4.23Z"/>
      <path class="st1" d="M201.56,237.67c-.35,0-.66-.1-.92-.29-.26-.19-.47-.47-.61-.83s-.22-.81-.22-1.32c0-.78.16-1.37.48-1.79.32-.42.74-.63,1.27-.63s.95.21,1.27.63c.32.42.48,1.02.48,1.79,0,.52-.07.96-.22,1.32s-.35.64-.61.83c-.26.19-.57.29-.92.29ZM201.56,237.07c.31,0,.55-.16.73-.46s.28-.77.28-1.38-.09-1.08-.28-1.38-.43-.45-.73-.45-.54.15-.73.45-.29.76-.29,1.38.1,1.07.29,1.38.44.46.73.46ZM201.79,240.79l4.26-7.99h.66l-4.26,7.99h-.66ZM206.94,240.79c-.35,0-.66-.1-.92-.29-.26-.19-.47-.47-.61-.83s-.22-.81-.22-1.32c0-.78.16-1.37.48-1.79.32-.42.74-.63,1.27-.63s.95.21,1.27.63c.32.42.48,1.02.48,1.79,0,.52-.07.96-.22,1.32s-.35.64-.61.83c-.26.19-.57.29-.92.29ZM206.94,240.19c.31,0,.55-.16.73-.46s.28-.77.28-1.38-.09-1.08-.28-1.38c-.18-.3-.43-.45-.73-.45s-.54.15-.73.45c-.19.3-.29.76-.29,1.38s.1,1.07.29,1.38c.19.31.44.46.73.46Z"/>
      <path class="st1" d="M210.37,242.72l-.6-.28c.45-.75.79-1.56,1.02-2.42.22-.86.33-1.74.33-2.63s-.11-1.77-.33-2.64c-.22-.87-.56-1.67-1.02-2.42l.6-.28c.49.78.88,1.61,1.15,2.48.27.87.41,1.82.41,2.86s-.13,1.98-.41,2.85c-.27.87-.65,1.69-1.15,2.49Z"/>
    </g>
    <rect class="st0" x="26.71" y="232.65" width="44.83" height="11.31" rx="4.81" ry="4.81"/>
    <g>
      <path class="st1" d="M280.48,240.65v-7.65h1.73v2.94h2.65v-2.94h1.74v7.65h-1.74v-3.2h-2.65v3.2h-1.73Z"/>
      <path class="st1" d="M291,240.79c-.49,0-.96-.12-1.39-.36-.43-.24-.78-.59-1.05-1.05-.27-.46-.41-1.01-.41-1.65s.14-1.19.41-1.65c.27-.46.62-.81,1.05-1.05.43-.24.89-.36,1.39-.36s.94.12,1.38.36c.43.24.78.59,1.05,1.05.27.46.41,1.01.41,1.65s-.13,1.19-.41,1.65-.62.81-1.05,1.05c-.43.24-.89.36-1.38.36ZM291,239.39c.24,0,.43-.07.59-.2.16-.13.28-.33.36-.58.08-.25.12-.54.12-.88s-.04-.63-.12-.88-.2-.44-.36-.58c-.16-.13-.36-.2-.59-.2s-.44.07-.6.2c-.16.13-.27.33-.35.58s-.12.54-.12.88.04.63.12.88c.08.25.2.44.35.58.16.13.36.2.6.2Z"/>
      <path class="st1" d="M295.25,240.65v-5.83h1.41l.12.75h.05c.24-.24.49-.45.77-.63s.61-.26.99-.26c.42,0,.75.08,1.01.25s.46.41.6.72c.26-.27.53-.5.82-.69.29-.19.63-.29,1.01-.29.63,0,1.1.21,1.39.63.29.42.44.99.44,1.72v3.62h-1.73v-3.4c0-.42-.06-.71-.17-.87-.11-.16-.3-.24-.55-.24-.15,0-.31.04-.47.13-.16.09-.34.23-.53.43v3.94h-1.73v-3.4c0-.42-.06-.71-.17-.87-.11-.16-.3-.24-.55-.24-.3,0-.63.19-.99.56v3.94h-1.73Z"/>
      <path class="st1" d="M308.17,240.79c-.56,0-1.06-.12-1.5-.36-.45-.24-.8-.59-1.06-1.05-.26-.46-.39-1.01-.39-1.66s.13-1.16.39-1.62c.26-.46.6-.81,1.02-1.06.42-.25.87-.37,1.35-.37.55,0,1.01.12,1.38.37.37.25.64.58.82,1,.18.42.27.9.27,1.43,0,.15,0,.29-.02.43-.02.14-.04.25-.06.34h-3.81v-1.19s2.41,0,2.41,0c0-.31-.07-.56-.22-.76-.15-.2-.4-.3-.74-.3-.18,0-.36.05-.55.15-.18.1-.33.28-.45.53-.12.25-.17.59-.17,1.03,0,.45.09.79.24,1.05.15.25.35.43.58.54.24.11.48.16.74.16.23,0,.45-.03.66-.09.21-.06.42-.16.62-.29l.55,1.06c-.29.21-.62.38-.99.49s-.73.17-1.08.17Z"/>
      <path class="st1" d="M311.89,240.65v-5.83h1.41l.12.74h.05c.24-.24.52-.45.82-.62.31-.17.65-.26,1.05-.26.64,0,1.11.21,1.39.63.28.42.42.99.42,1.72v3.62h-1.73v-3.4c0-.42-.06-.71-.17-.87-.11-.16-.3-.24-.55-.24-.22,0-.41.05-.56.15-.16.1-.33.24-.52.42v3.94h-1.73Z"/>
      <path class="st1" d="M320.56,240.79c-.38,0-.78-.07-1.19-.22-.41-.15-.76-.36-1.05-.65l.73-.98c.27.21.53.36.79.44.26.08.51.12.76.12.26,0,.45-.04.56-.13.12-.09.18-.21.18-.36,0-.13-.05-.24-.16-.33-.11-.09-.24-.16-.41-.23-.17-.07-.36-.14-.57-.22-.28-.1-.54-.23-.78-.39-.23-.16-.42-.34-.57-.56-.14-.22-.22-.48-.22-.79,0-.55.21-.99.62-1.32.41-.33.95-.5,1.62-.5.42,0,.81.07,1.16.21.35.14.65.32.9.53l-.74.96c-.21-.15-.42-.26-.63-.32-.21-.07-.42-.1-.62-.1-.23,0-.4.04-.51.13-.11.09-.16.2-.16.33,0,.11.04.2.12.28.08.08.2.15.36.22.16.07.36.14.61.22.3.1.57.23.82.38.25.15.44.34.58.57.14.23.21.5.21.82,0,.35-.09.67-.28.95-.18.28-.45.51-.81.68-.35.17-.79.25-1.32.25Z"/>
      <path class="st1" d="M329.93,240.79c-.26,0-.52-.06-.78-.19-.26-.13-.51-.32-.74-.57h-.05l-.14.62h-1.35v-8.24h1.73v2.02l-.05.89c.22-.2.46-.36.73-.48.27-.11.54-.17.81-.17.47,0,.88.12,1.22.36.34.24.61.59.79,1.03.18.44.28.96.28,1.56,0,.67-.12,1.24-.35,1.71-.24.47-.54.83-.91,1.08s-.77.37-1.19.37ZM329.53,239.38c.2,0,.38-.06.55-.18.17-.12.3-.3.39-.56.09-.25.14-.58.14-.98,0-.35-.04-.64-.11-.88-.08-.23-.19-.41-.33-.52-.15-.12-.34-.18-.56-.18-.17,0-.34.04-.5.12-.16.08-.33.22-.5.41v2.39c.15.13.31.23.47.29.17.06.32.09.46.09Z"/>
      <path class="st1" d="M333.84,240.65v-5.83h1.41l.12,1.02h.05c.21-.39.46-.68.76-.88.29-.19.59-.29.9-.29.16,0,.3,0,.41.03.11.02.2.05.28.09l-.33,1.47c-.09-.02-.18-.04-.27-.05s-.19-.02-.32-.02c-.22,0-.45.08-.69.24-.24.16-.44.43-.59.83v3.39h-1.73Z"/>
      <path class="st1" d="M339.89,240.79c-.34,0-.65-.08-.91-.23-.26-.16-.46-.37-.61-.63-.14-.26-.21-.56-.21-.9,0-.63.26-1.11.78-1.45s1.35-.57,2.5-.7c-.02-.16-.05-.31-.12-.43-.06-.12-.16-.22-.29-.28-.13-.07-.3-.1-.51-.1-.25,0-.5.04-.75.13-.25.09-.51.21-.79.36l-.62-1.12c.24-.15.5-.28.78-.4.27-.12.55-.21.83-.27.28-.06.58-.09.88-.09.5,0,.92.1,1.26.29.34.19.6.48.79.88.18.39.28.89.28,1.48v3.33h-1.42l-.12-.6h-.05c-.25.22-.51.4-.79.54-.27.14-.58.21-.92.21ZM340.47,239.44c.2,0,.37-.04.52-.13.15-.09.3-.2.44-.35v-.99c-.41.05-.73.12-.96.21-.24.09-.4.19-.51.31-.1.12-.15.26-.15.41,0,.18.06.32.18.41.12.09.28.13.48.13Z"/>
      <path class="st1" d="M344.86,240.65v-5.83h1.41l.12.74h.05c.24-.24.52-.45.82-.62.31-.17.65-.26,1.05-.26.64,0,1.11.21,1.39.63.28.42.42.99.42,1.72v3.62h-1.73v-3.4c0-.42-.06-.71-.17-.87-.11-.16-.3-.24-.55-.24-.22,0-.41.05-.56.15-.16.1-.33.24-.52.42v3.94h-1.73Z"/>
      <path class="st1" d="M354.39,240.79c-.56,0-1.05-.12-1.49-.36-.44-.24-.79-.59-1.04-1.04-.25-.45-.38-1-.38-1.65s.14-1.19.42-1.65c.28-.46.65-.81,1.12-1.05.46-.24.96-.36,1.49-.36.36,0,.68.06.97.17.29.11.53.26.73.45l-.8,1.07c-.12-.09-.24-.17-.36-.22-.13-.05-.27-.08-.44-.08-.27,0-.51.07-.72.21-.2.14-.36.33-.48.58-.12.25-.18.54-.18.88s.06.63.18.88c.12.25.27.44.47.58.2.13.42.2.68.2.2,0,.38-.04.55-.11.17-.07.33-.17.48-.28l.68,1.07c-.25.22-.54.39-.86.52-.33.13-.67.19-1.03.19Z"/>
      <path class="st1" d="M359.73,240.79c-.49,0-.96-.12-1.39-.36-.43-.24-.78-.59-1.05-1.05-.27-.46-.41-1.01-.41-1.65s.14-1.19.41-1.65c.27-.46.62-.81,1.05-1.05.43-.24.89-.36,1.39-.36s.94.12,1.38.36c.43.24.78.59,1.05,1.05.27.46.41,1.01.41,1.65s-.13,1.19-.41,1.65-.62.81-1.05,1.05c-.43.24-.89.36-1.38.36ZM359.73,239.39c.24,0,.43-.07.59-.2.16-.13.28-.33.36-.58.08-.25.12-.54.12-.88s-.04-.63-.12-.88-.2-.44-.36-.58c-.16-.13-.36-.2-.59-.2s-.44.07-.6.2c-.16.13-.27.33-.35.58s-.12.54-.12.88.04.63.12.88c.08.25.2.44.35.58.16.13.36.2.6.2Z"/>
      <path class="st1" d="M365.64,240.79c-.38,0-.78-.07-1.19-.22-.41-.15-.76-.36-1.05-.65l.73-.98c.27.21.53.36.79.44.26.08.51.12.76.12.26,0,.45-.04.56-.13.12-.09.18-.21.18-.36,0-.13-.05-.24-.16-.33-.11-.09-.24-.16-.41-.23-.17-.07-.36-.14-.57-.22-.28-.1-.54-.23-.78-.39-.23-.16-.42-.34-.57-.56-.14-.22-.22-.48-.22-.79,0-.55.21-.99.62-1.32.41-.33.95-.5,1.62-.5.42,0,.81.07,1.16.21.35.14.65.32.9.53l-.74.96c-.21-.15-.42-.26-.63-.32-.21-.07-.42-.1-.62-.1-.23,0-.4.04-.51.13-.11.09-.16.2-.16.33,0,.11.04.2.12.28.08.08.2.15.36.22.16.07.36.14.61.22.3.1.57.23.82.38.25.15.44.34.58.57.14.23.21.5.21.82,0,.35-.09.67-.28.95-.18.28-.45.51-.81.68-.35.17-.79.25-1.32.25Z"/>
      <path class="st1" d="M373.71,242.72c-.49-.79-.87-1.62-1.14-2.49-.27-.87-.41-1.82-.41-2.85s.14-1.99.41-2.86c.27-.87.65-1.7,1.14-2.48l.6.28c-.46.74-.79,1.55-1.02,2.42-.22.87-.33,1.75-.33,2.64s.11,1.77.33,2.63c.22.86.56,1.67,1.02,2.42l-.6.28Z"/>
      <path class="st1" d="M378.56,240.65v-5.02c0-.2,0-.44.02-.72s.03-.53.04-.72h-.05c-.09.18-.19.35-.29.52-.1.17-.21.35-.32.54l-1.75,2.56h4.29v.78h-5.31v-.63l3.21-4.8h1.08v7.5h-.92Z"/>
      <path class="st1" d="M381.85,242.65l-.23-.56c.34-.15.6-.35.79-.61.19-.25.28-.54.27-.85l-.11-.87.48.71c-.07.07-.15.12-.23.15-.08.03-.17.05-.26.05-.19,0-.35-.06-.49-.18-.14-.12-.21-.28-.21-.49s.07-.38.22-.5c.15-.12.31-.18.5-.18.26,0,.46.1.6.3.14.2.21.48.21.84,0,.5-.14.94-.41,1.33-.27.38-.65.67-1.13.87Z"/>
      <path class="st1" d="M387.8,240.65v-5.02c0-.2,0-.44.02-.72s.03-.53.04-.72h-.05c-.09.18-.19.35-.29.52-.1.17-.21.35-.32.54l-1.75,2.56h4.29v.78h-5.31v-.63l3.21-4.8h1.08v7.5h-.92Z"/>
      <path class="st1" d="M392.47,237.67c-.35,0-.66-.1-.92-.29-.26-.19-.47-.47-.61-.83-.15-.36-.22-.81-.22-1.32,0-.78.16-1.37.48-1.79.32-.42.74-.63,1.27-.63s.95.21,1.27.63c.32.42.48,1.02.48,1.79,0,.52-.07.96-.22,1.32-.15.36-.35.64-.61.83-.26.19-.57.29-.92.29ZM392.47,237.07c.31,0,.55-.16.73-.46s.28-.77.28-1.38-.09-1.08-.28-1.38-.43-.45-.73-.45-.54.15-.73.45c-.19.3-.29.76-.29,1.38s.1,1.07.29,1.38c.19.31.44.46.73.46ZM392.69,240.79l4.25-7.99h.66l-4.25,7.99h-.66ZM397.84,240.79c-.35,0-.66-.1-.92-.29-.26-.19-.47-.47-.61-.83-.15-.36-.22-.81-.22-1.32,0-.78.16-1.37.48-1.79s.74-.63,1.27-.63.95.21,1.27.63.48,1.02.48,1.79c0,.52-.07.96-.22,1.32-.15.36-.35.64-.61.83-.26.19-.57.29-.92.29ZM397.84,240.19c.31,0,.55-.16.73-.46s.28-.77.28-1.38-.09-1.08-.28-1.38c-.18-.3-.43-.45-.73-.45s-.54.15-.74.45c-.19.3-.29.76-.29,1.38s.1,1.07.29,1.38c.19.31.44.46.74.46Z"/>
      <path class="st1" d="M401.27,242.72l-.6-.28c.46-.75.79-1.56,1.02-2.42.22-.86.33-1.74.33-2.63s-.11-1.77-.33-2.64c-.22-.87-.56-1.67-1.02-2.42l.6-.28c.49.78.88,1.61,1.15,2.48.27.87.41,1.82.41,2.86s-.13,1.98-.41,2.85c-.27.87-.65,1.69-1.15,2.49Z"/>
    </g>
    <rect class="st5" x="229.22" y="232.65" width="44.83" height="11.31" rx="4.81" ry="4.81"/>
  </g>
  <g>
    <rect class="st6" x="83.86" y="51.44" width="320.78" height="1"/>
    <rect class="st6" x="83.86" y="128.29" width="320.78" height="1"/>
    <rect class="st6" x="83.86" y="102.68" width="320.78" height="1"/>
    <rect class="st6" x="83.86" y="77.06" width="320.78" height="1"/>
    <g>
      <rect class="st4" x="138.37" y="26.47" width="211.75" height="74.97"/>
      <rect class="st0" x="138.37" y="101.27" width="211.75" height="13.23"/>
      <rect class="st2" x="138.37" y="113.61" width="211.75" height="34.97"/>
      <rect class="st5" x="138.37" y="148.25" width="211.75" height="5.1"/>
    </g>
    <rect class="st6" x="83.86" y="25.82" width="320.78" height="1"/>
    <g>
      <path class="st1" d="M38.9,30.18v-8.1l.52.4h-2.45v-.97h3.06v8.67h-1.14Z"/>
      <path class="st1" d="M45.4,30.39c-.65,0-1.2-.11-1.66-.34s-.82-.53-1.1-.92c-.28-.39-.48-.84-.61-1.35-.13-.51-.19-1.05-.19-1.62v-.64c0-.8.12-1.52.37-2.16.25-.64.64-1.15,1.16-1.53s1.2-.56,2.02-.56,1.5.19,2.02.56.91.88,1.16,1.53c.25.64.37,1.36.37,2.16v.64c0,.57-.06,1.11-.19,1.62-.13.51-.33.96-.61,1.35-.28.39-.65.69-1.1.92s-1,.34-1.65.34ZM45.4,29.35c.82,0,1.43-.28,1.81-.84s.58-1.44.58-2.65-.2-2.17-.59-2.72c-.39-.55-.99-.82-1.8-.82s-1.42.27-1.81.82c-.39.55-.59,1.44-.59,2.7s.19,2.11.58,2.67.99.84,1.82.84Z"/>
      <path class="st1" d="M53.75,30.39c-.65,0-1.2-.11-1.66-.34s-.82-.53-1.1-.92c-.28-.39-.48-.84-.61-1.35-.13-.51-.19-1.05-.19-1.62v-.64c0-.8.12-1.52.37-2.16.25-.64.64-1.15,1.16-1.53s1.2-.56,2.02-.56,1.5.19,2.02.56.91.88,1.16,1.53c.25.64.37,1.36.37,2.16v.64c0,.57-.06,1.11-.19,1.62-.13.51-.33.96-.61,1.35-.28.39-.65.69-1.1.92s-1,.34-1.65.34ZM53.75,29.35c.82,0,1.43-.28,1.81-.84s.58-1.44.58-2.65-.2-2.17-.59-2.72c-.39-.55-.99-.82-1.8-.82s-1.42.27-1.81.82c-.39.55-.59,1.44-.59,2.7s.19,2.11.58,2.67.99.84,1.82.84Z"/>
      <path class="st1" d="M60.02,26.16c-.45,0-.82-.1-1.1-.31-.28-.21-.49-.48-.62-.82-.13-.34-.2-.71-.2-1.1v-.31c0-.43.07-.81.2-1.15.13-.34.34-.6.63-.8.29-.19.65-.29,1.08-.29s.81.1,1.09.29c.28.19.49.46.62.8.13.34.2.72.2,1.15v.31c0,.4-.07.76-.2,1.1-.13.34-.33.61-.61.82-.28.21-.65.31-1.1.31ZM60.02,25.38c.36,0,.64-.13.81-.4.18-.27.27-.66.27-1.19,0-.56-.09-.97-.27-1.23s-.45-.39-.81-.39-.63.13-.81.39c-.18.26-.27.66-.27,1.22s.09.93.27,1.2c.18.27.45.4.81.4ZM60.66,30.18l3.28-8.67h.9l-3.28,8.67h-.9ZM65.43,30.3c-.45,0-.82-.1-1.1-.31-.28-.21-.49-.48-.62-.82-.13-.34-.2-.71-.2-1.1v-.31c0-.43.07-.81.2-1.15.13-.34.34-.6.63-.8.29-.19.65-.29,1.08-.29s.81.1,1.09.29c.28.19.49.46.62.8.13.34.2.72.2,1.15v.31c0,.4-.06.76-.2,1.1-.13.34-.33.61-.61.82-.28.21-.65.31-1.1.31ZM65.43,29.51c.36,0,.63-.13.81-.4s.27-.66.27-1.19c0-.56-.09-.97-.27-1.23s-.45-.39-.81-.39-.63.13-.81.39-.27.66-.27,1.22.09.93.27,1.2.45.4.81.4Z"/>
    </g>
    <g>
      <path class="st1" d="M53.75,156.56c-.65,0-1.2-.11-1.66-.34s-.82-.53-1.1-.92c-.28-.39-.48-.84-.61-1.35-.13-.51-.19-1.05-.19-1.62v-.64c0-.8.12-1.52.37-2.16.25-.64.64-1.15,1.16-1.53.53-.38,1.2-.56,2.02-.56s1.5.19,2.02.56c.52.38.91.88,1.16,1.53.25.64.37,1.36.37,2.16v.64c0,.57-.06,1.11-.19,1.62-.13.51-.33.96-.61,1.35-.28.39-.65.69-1.1.92s-1,.34-1.65.34ZM53.75,155.52c.82,0,1.43-.28,1.81-.84.38-.56.58-1.44.58-2.65s-.2-2.17-.59-2.72c-.39-.55-.99-.82-1.8-.82s-1.42.27-1.81.82c-.39.55-.59,1.44-.59,2.69s.19,2.11.58,2.67c.39.56.99.84,1.82.84Z"/>
      <path class="st1" d="M60.02,152.34c-.45,0-.82-.1-1.1-.31-.28-.21-.49-.48-.62-.82-.13-.34-.2-.71-.2-1.1v-.31c0-.43.07-.81.2-1.15.13-.34.34-.6.63-.8.29-.19.65-.29,1.08-.29s.81.1,1.09.29c.28.19.49.46.62.8.13.34.2.72.2,1.15v.31c0,.4-.07.76-.2,1.1-.13.34-.33.61-.61.82-.28.21-.65.31-1.1.31ZM60.02,151.55c.36,0,.64-.13.81-.4.18-.26.27-.66.27-1.19,0-.56-.09-.97-.27-1.23s-.45-.39-.81-.39-.63.13-.81.39c-.18.26-.27.66-.27,1.22s.09.93.27,1.2c.18.27.45.4.81.4ZM60.66,156.35l3.28-8.67h.9l-3.28,8.67h-.9ZM65.43,156.47c-.45,0-.82-.1-1.1-.31-.28-.21-.49-.48-.62-.82-.13-.34-.2-.71-.2-1.1v-.31c0-.43.07-.81.2-1.15.13-.34.34-.6.63-.8.29-.19.65-.29,1.08-.29s.81.1,1.09.29c.28.19.49.46.62.8.13.34.2.72.2,1.15v.31c0,.4-.06.76-.2,1.1-.13.34-.33.61-.61.82-.28.21-.65.31-1.1.31ZM65.43,155.69c.36,0,.63-.13.81-.4s.27-.66.27-1.19c0-.56-.09-.97-.27-1.23-.18-.26-.45-.39-.81-.39s-.63.13-.81.39c-.18.26-.27.66-.27,1.22s.09.93.27,1.2c.18.27.45.4.81.4Z"/>
    </g>
    <g>
      <path class="st1" d="M43.37,131.12v-1.42c0-.35.05-.65.15-.89.1-.25.27-.47.52-.67.25-.2.58-.4,1-.59l1.63-.75c.4-.18.71-.42.94-.71s.34-.66.34-1.12c0-.55-.15-.99-.46-1.29-.31-.31-.74-.46-1.31-.46s-.99.15-1.31.46c-.32.31-.48.74-.48,1.29h-1.12c0-.5.1-.96.31-1.38.21-.42.53-.75.96-1,.43-.25.97-.37,1.63-.37s1.2.12,1.62.37c.42.25.74.58.95.98.21.4.31.84.31,1.32v.17c0,.63-.18,1.15-.54,1.58-.36.43-.84.78-1.45,1.06l-1.63.75c-.36.17-.61.33-.74.5s-.19.39-.19.67v1.09l-.31-.55h4.96v.97h-5.79Z"/>
      <path class="st1" d="M53.75,131.33c-.65,0-1.2-.11-1.66-.34s-.82-.53-1.1-.92c-.28-.39-.48-.84-.61-1.35-.13-.51-.19-1.05-.19-1.62v-.64c0-.8.12-1.52.37-2.16.25-.64.64-1.15,1.16-1.53s1.2-.56,2.02-.56,1.5.19,2.02.56.91.88,1.16,1.53c.25.64.37,1.36.37,2.16v.64c0,.57-.06,1.11-.19,1.62-.13.51-.33.96-.61,1.35-.28.39-.65.69-1.1.92s-1,.34-1.65.34ZM53.75,130.28c.82,0,1.43-.28,1.81-.84s.58-1.44.58-2.65-.2-2.17-.59-2.72c-.39-.55-.99-.82-1.8-.82s-1.42.27-1.81.82c-.39.55-.59,1.44-.59,2.7s.19,2.11.58,2.67.99.84,1.82.84Z"/>
      <path class="st1" d="M60.02,127.1c-.45,0-.82-.1-1.1-.31-.28-.21-.49-.48-.62-.82-.13-.34-.2-.71-.2-1.1v-.31c0-.43.07-.81.2-1.15.13-.34.34-.6.63-.8.29-.19.65-.29,1.08-.29s.81.1,1.09.29c.28.19.49.46.62.8.13.34.2.72.2,1.15v.31c0,.4-.07.76-.2,1.1-.13.34-.33.61-.61.82-.28.21-.65.31-1.1.31ZM60.02,126.32c.36,0,.64-.13.81-.4.18-.27.27-.66.27-1.19,0-.56-.09-.97-.27-1.23s-.45-.39-.81-.39-.63.13-.81.39c-.18.26-.27.66-.27,1.22s.09.93.27,1.2c.18.27.45.4.81.4ZM60.66,131.12l3.28-8.67h.9l-3.28,8.67h-.9ZM65.43,131.23c-.45,0-.82-.1-1.1-.31-.28-.21-.49-.48-.62-.82-.13-.34-.2-.71-.2-1.1v-.31c0-.43.07-.81.2-1.15.13-.34.34-.6.63-.8.29-.19.65-.29,1.08-.29s.81.1,1.09.29c.28.19.49.46.62.8.13.34.2.72.2,1.15v.31c0,.4-.06.76-.2,1.1-.13.34-.33.61-.61.82-.28.21-.65.31-1.1.31ZM65.43,130.45c.36,0,.63-.13.81-.4s.27-.66.27-1.19c0-.56-.09-.97-.27-1.23s-.45-.39-.81-.39-.63.13-.81.39-.27.66-.27,1.22.09.93.27,1.2.45.4.81.4Z"/>
    </g>
    <g>
      <path class="st1" d="M42.76,103.83v-1.4l3.6-5.43.8.63-3.36,5.08.11.21h5.6v.9h-6.74ZM47.28,105.88v-6.14h1.07v6.14h-1.07Z"/>
      <path class="st1" d="M53.75,106.09c-.65,0-1.2-.11-1.66-.34s-.82-.53-1.1-.92c-.28-.39-.48-.84-.61-1.35-.13-.51-.19-1.05-.19-1.62v-.64c0-.8.12-1.52.37-2.16.25-.64.64-1.15,1.16-1.53s1.2-.56,2.02-.56,1.5.19,2.02.56.91.88,1.16,1.53c.25.64.37,1.36.37,2.16v.64c0,.57-.06,1.11-.19,1.62-.13.51-.33.96-.61,1.35-.28.39-.65.69-1.1.92s-1,.34-1.65.34ZM53.75,105.05c.82,0,1.43-.28,1.81-.84s.58-1.44.58-2.65-.2-2.17-.59-2.72c-.39-.55-.99-.82-1.8-.82s-1.42.27-1.81.82c-.39.55-.59,1.44-.59,2.7s.19,2.11.58,2.67.99.84,1.82.84Z"/>
      <path class="st1" d="M60.02,101.87c-.45,0-.82-.1-1.1-.31-.28-.21-.49-.48-.62-.82-.13-.34-.2-.71-.2-1.1v-.31c0-.43.07-.81.2-1.15.13-.34.34-.6.63-.8.29-.19.65-.29,1.08-.29s.81.1,1.09.29c.28.19.49.46.62.8.13.34.2.72.2,1.15v.31c0,.4-.07.76-.2,1.1-.13.34-.33.61-.61.82-.28.21-.65.31-1.1.31ZM60.02,101.08c.36,0,.64-.13.81-.4.18-.27.27-.66.27-1.19,0-.56-.09-.97-.27-1.23s-.45-.39-.81-.39-.63.13-.81.39c-.18.26-.27.66-.27,1.22s.09.93.27,1.2c.18.27.45.4.81.4ZM60.66,105.88l3.28-8.67h.9l-3.28,8.67h-.9ZM65.43,106c-.45,0-.82-.1-1.1-.31-.28-.21-.49-.48-.62-.82-.13-.34-.2-.71-.2-1.1v-.31c0-.43.07-.81.2-1.15.13-.34.34-.6.63-.8.29-.19.65-.29,1.08-.29s.81.1,1.09.29c.28.19.49.46.62.8.13.34.2.72.2,1.15v.31c0,.4-.06.76-.2,1.1-.13.34-.33.61-.61.82-.28.21-.65.31-1.1.31ZM65.43,105.22c.36,0,.63-.13.81-.4s.27-.66.27-1.19c0-.56-.09-.97-.27-1.23s-.45-.39-.81-.39-.63.13-.81.39-.27.66-.27,1.22.09.93.27,1.2.45.4.81.4Z"/>
    </g>
    <g>
      <path class="st1" d="M46.13,80.88c-.63,0-1.16-.11-1.58-.33-.42-.22-.76-.52-1.01-.91-.25-.38-.43-.82-.53-1.32-.11-.5-.16-1.02-.16-1.57v-.57c0-1.37.34-2.42,1.02-3.16.68-.74,1.67-1.11,2.96-1.11.31,0,.57,0,.78.02.21.02.45.04.7.07v.97c-.26-.03-.5-.06-.72-.07-.22-.02-.49-.02-.81-.02-.72,0-1.29.13-1.71.4-.42.27-.72.65-.9,1.16-.18.5-.27,1.11-.27,1.82v.53l-.28,1.06c0-.62.13-1.14.36-1.56s.55-.72.96-.93c.41-.21.88-.31,1.41-.31.62,0,1.14.12,1.57.37.43.25.75.59.97,1.03.22.44.33.93.33,1.48s-.11,1.06-.34,1.51-.57.79-1.03,1.04c-.46.25-1.02.38-1.69.38ZM46.13,79.89c.44,0,.8-.08,1.09-.25.29-.17.51-.39.66-.68.15-.29.22-.62.22-1s-.07-.72-.21-1.01c-.14-.29-.35-.52-.64-.68-.28-.16-.63-.24-1.04-.24s-.77.08-1.09.23c-.32.15-.57.37-.75.66s-.27.64-.27,1.06c0,.35.07.67.21.96.14.29.36.53.66.7.3.17.68.26,1.15.26Z"/>
      <path class="st1" d="M53.75,80.86c-.65,0-1.2-.11-1.66-.34s-.82-.53-1.1-.92c-.28-.39-.48-.84-.61-1.35-.13-.51-.19-1.05-.19-1.62v-.64c0-.8.12-1.52.37-2.16.25-.64.64-1.15,1.16-1.53s1.2-.56,2.02-.56,1.5.19,2.02.56.91.88,1.16,1.53c.25.64.37,1.36.37,2.16v.64c0,.57-.06,1.11-.19,1.62-.13.51-.33.96-.61,1.35-.28.39-.65.69-1.1.92s-1,.34-1.65.34ZM53.75,79.81c.82,0,1.43-.28,1.81-.84s.58-1.44.58-2.65-.2-2.17-.59-2.72c-.39-.55-.99-.82-1.8-.82s-1.42.27-1.81.82c-.39.55-.59,1.44-.59,2.7s.19,2.11.58,2.67.99.84,1.82.84Z"/>
      <path class="st1" d="M60.02,76.63c-.45,0-.82-.1-1.1-.31-.28-.21-.49-.48-.62-.82-.13-.34-.2-.71-.2-1.1v-.31c0-.43.07-.81.2-1.15.13-.34.34-.6.63-.8.29-.19.65-.29,1.08-.29s.81.1,1.09.29c.28.19.49.46.62.8.13.34.2.72.2,1.15v.31c0,.4-.07.76-.2,1.1-.13.34-.33.61-.61.82-.28.21-.65.31-1.1.31ZM60.02,75.85c.36,0,.64-.13.81-.4.18-.27.27-.66.27-1.19,0-.56-.09-.97-.27-1.23s-.45-.39-.81-.39-.63.13-.81.39c-.18.26-.27.66-.27,1.22s.09.93.27,1.2c.18.27.45.4.81.4ZM60.66,80.65l3.28-8.67h.9l-3.28,8.67h-.9ZM65.43,80.76c-.45,0-.82-.1-1.1-.31-.28-.21-.49-.48-.62-.82-.13-.34-.2-.71-.2-1.1v-.31c0-.43.07-.81.2-1.15.13-.34.34-.6.63-.8.29-.19.65-.29,1.08-.29s.81.1,1.09.29c.28.19.49.46.62.8.13.34.2.72.2,1.15v.31c0,.4-.06.76-.2,1.1-.13.34-.33.61-.61.82-.28.21-.65.31-1.1.31ZM65.43,79.98c.36,0,.63-.13.81-.4s.27-.66.27-1.19c0-.56-.09-.97-.27-1.23s-.45-.39-.81-.39-.63.13-.81.39-.27.66-.27,1.22.09.93.27,1.2.45.4.81.4Z"/>
    </g>
    <g>
      <path class="st1" d="M46.02,55.63c-.62,0-1.17-.11-1.64-.33-.48-.22-.85-.53-1.13-.93-.27-.4-.41-.85-.41-1.38,0-.35.07-.66.2-.94s.32-.52.56-.73c.24-.21.51-.36.81-.47v-.12c-.24-.1-.45-.24-.65-.42-.19-.17-.35-.38-.46-.62-.11-.24-.17-.51-.17-.81,0-.5.13-.92.4-1.27.27-.35.62-.62,1.06-.8s.92-.28,1.44-.28,1.02.09,1.45.28c.44.19.79.45,1.05.8.26.35.39.77.39,1.27,0,.3-.06.57-.17.81-.11.24-.26.44-.46.62-.19.17-.41.31-.66.42v.12c.31.11.58.27.82.48.24.21.42.46.56.74.13.28.2.59.2.93,0,.52-.14.98-.41,1.38-.27.4-.65.7-1.13.93-.48.22-1.03.33-1.66.33ZM46.02,54.65c.44,0,.81-.07,1.12-.21.31-.14.55-.34.71-.59.17-.26.25-.56.25-.91s-.08-.65-.24-.9c-.16-.25-.4-.45-.71-.59-.31-.14-.68-.21-1.13-.21s-.81.07-1.12.21c-.31.14-.54.33-.71.59-.16.25-.24.55-.24.9s.08.65.24.91c.16.26.4.46.71.59.31.14.68.21,1.12.21ZM46.02,50.34c.54,0,.97-.12,1.29-.35.32-.23.49-.59.49-1.07s-.16-.85-.49-1.07-.76-.34-1.29-.34-.96.11-1.29.34c-.33.23-.49.59-.49,1.07s.16.84.49,1.07c.33.23.76.35,1.29.35Z"/>
      <path class="st1" d="M53.75,55.63c-.65,0-1.2-.11-1.66-.34s-.82-.53-1.1-.92c-.28-.39-.48-.84-.61-1.35-.13-.51-.19-1.05-.19-1.62v-.64c0-.8.12-1.52.37-2.16.25-.64.64-1.15,1.16-1.53s1.2-.56,2.02-.56,1.5.19,2.02.56.91.88,1.16,1.53c.25.64.37,1.36.37,2.16v.64c0,.57-.06,1.11-.19,1.62-.13.51-.33.96-.61,1.35-.28.39-.65.69-1.1.92s-1,.34-1.65.34ZM53.75,54.58c.82,0,1.43-.28,1.81-.84s.58-1.44.58-2.65-.2-2.17-.59-2.72c-.39-.55-.99-.82-1.8-.82s-1.42.27-1.81.82c-.39.55-.59,1.44-.59,2.7s.19,2.11.58,2.67.99.84,1.82.84Z"/>
      <path class="st1" d="M60.02,51.4c-.45,0-.82-.1-1.1-.31-.28-.21-.49-.48-.62-.82-.13-.34-.2-.71-.2-1.1v-.31c0-.43.07-.81.2-1.15.13-.34.34-.6.63-.8.29-.19.65-.29,1.08-.29s.81.1,1.09.29c.28.19.49.46.62.8.13.34.2.72.2,1.15v.31c0,.4-.07.76-.2,1.1-.13.34-.33.61-.61.82-.28.21-.65.31-1.1.31ZM60.02,50.62c.36,0,.64-.13.81-.4.18-.27.27-.66.27-1.19,0-.56-.09-.97-.27-1.23s-.45-.39-.81-.39-.63.13-.81.39c-.18.26-.27.66-.27,1.22s.09.93.27,1.2c.18.27.45.4.81.4ZM60.66,55.41l3.28-8.67h.9l-3.28,8.67h-.9ZM65.43,55.53c-.45,0-.82-.1-1.1-.31-.28-.21-.49-.48-.62-.82-.13-.34-.2-.71-.2-1.1v-.31c0-.43.07-.81.2-1.15.13-.34.34-.6.63-.8.29-.19.65-.29,1.08-.29s.81.1,1.09.29c.28.19.49.46.62.8.13.34.2.72.2,1.15v.31c0,.4-.06.76-.2,1.1-.13.34-.33.61-.61.82-.28.21-.65.31-1.1.31ZM65.43,54.75c.36,0,.63-.13.81-.4s.27-.66.27-1.19c0-.56-.09-.97-.27-1.23s-.45-.39-.81-.39-.63.13-.81.39-.27.66-.27,1.22.09.93.27,1.2.45.4.81.4Z"/>
    </g>
    <g>
      <path class="st3" d="M224.63,73.65c-1.2,0-2.21-.25-3.04-.74-.83-.49-1.46-1.14-1.89-1.94s-.64-1.65-.64-2.55h2.01c0,.66.15,1.24.44,1.76s.7.92,1.23,1.22c.53.3,1.16.45,1.89.45s1.34-.15,1.88-.44c.54-.29.95-.7,1.25-1.22.3-.52.45-1.11.45-1.77s-.15-1.25-.44-1.78c-.29-.53-.71-.95-1.24-1.26-.54-.31-1.17-.47-1.9-.47-.53,0-1.06.09-1.61.27-.54.18-.98.43-1.31.76h-1.88l.79-8.31h8.21v1.76h-7.01l.51-.71-.6,6.06-.56-.19c.41-.41.92-.74,1.51-.99.59-.24,1.27-.36,2.02-.36,1.2,0,2.21.25,3.02.74.81.49,1.43,1.13,1.85,1.91.42.78.63,1.59.63,2.43v.3c0,.84-.21,1.65-.64,2.43-.43.78-1.06,1.41-1.9,1.91-.84.49-1.85.74-3.05.74Z"/>
      <path class="st3" d="M237.17,73.65c-1.11,0-2.1-.2-2.97-.6-.86-.4-1.54-.96-2.04-1.67-.49-.71-.74-1.54-.74-2.49,0-.63.12-1.2.36-1.7s.58-.95,1.01-1.32c.43-.37.91-.66,1.46-.86v-.21c-.43-.19-.82-.44-1.17-.75-.35-.31-.63-.69-.83-1.11-.21-.43-.31-.91-.31-1.46,0-.9.24-1.66.72-2.29.48-.63,1.11-1.11,1.91-1.45.79-.34,1.66-.5,2.6-.5s1.83.17,2.62.5c.79.34,1.42.82,1.9,1.45.47.63.71,1.39.71,2.29,0,.54-.1,1.03-.3,1.46-.2.43-.47.8-.82,1.11-.35.31-.75.56-1.19.75v.21c.56.2,1.05.49,1.48.87s.76.82,1.01,1.33c.24.51.36,1.07.36,1.68,0,.94-.25,1.77-.74,2.49-.49.71-1.17,1.27-2.04,1.67-.86.4-1.86.6-2.99.6ZM237.17,71.89c.79,0,1.46-.12,2.01-.38.56-.25.99-.61,1.29-1.07s.45-1.01.45-1.64-.15-1.17-.44-1.63-.72-.81-1.28-1.06c-.56-.25-1.24-.38-2.04-.38s-1.46.12-2.01.38c-.56.25-.98.6-1.28,1.06s-.44,1-.44,1.63.15,1.17.44,1.64.72.82,1.28,1.07c.56.25,1.23.38,2.01.38ZM237.17,64.11c.97,0,1.75-.21,2.34-.63.58-.42.88-1.07.88-1.94s-.3-1.53-.89-1.94c-.59-.41-1.37-.61-2.33-.61s-1.73.21-2.32.62c-.59.41-.89,1.06-.89,1.93s.3,1.52.89,1.94c.59.42,1.37.63,2.32.63Z"/>
      <path class="st3" d="M245.35,76.63l-1.65-.62,1.99-5.53,1.69.64-2.04,5.51Z"/>
      <path class="st3" d="M249.53,73.26v-2.57c0-.63.09-1.16.27-1.61.18-.44.49-.85.93-1.21s1.04-.72,1.8-1.06l2.94-1.35c.71-.33,1.28-.75,1.69-1.27.41-.52.62-1.2.62-2.02,0-1-.28-1.78-.84-2.34-.56-.56-1.34-.84-2.36-.84s-1.79.28-2.36.84c-.57.56-.86,1.34-.86,2.34h-2.01c0-.9.19-1.73.57-2.49.38-.76.95-1.36,1.73-1.81.77-.45,1.75-.67,2.93-.67s2.16.23,2.92.67c.76.45,1.34,1.04,1.71,1.77.38.73.57,1.52.57,2.38v.3c0,1.13-.33,2.08-.97,2.85-.65.77-1.53,1.41-2.62,1.91l-2.94,1.35c-.66.3-1.1.6-1.33.9s-.34.7-.34,1.2v1.97l-.56-.99h8.96v1.76h-10.46Z"/>
      <path class="st3" d="M264.51,66.02c-.81,0-1.47-.19-1.98-.56-.51-.37-.88-.86-1.11-1.48-.24-.61-.35-1.28-.35-1.99v-.56c0-.77.12-1.46.36-2.07.24-.61.62-1.09,1.14-1.44.51-.35,1.16-.52,1.95-.52s1.45.17,1.96.52c.51.35.88.83,1.12,1.44.24.61.36,1.3.36,2.07v.56c0,.71-.12,1.38-.35,1.99-.24.61-.6,1.11-1.1,1.48-.5.37-1.17.56-1.99.56ZM264.51,64.61c.66,0,1.15-.24,1.47-.72s.48-1.2.48-2.15c0-1.01-.16-1.75-.49-2.22-.33-.46-.81-.7-1.46-.7s-1.13.23-1.46.7c-.33.46-.49,1.2-.49,2.2s.16,1.68.48,2.16c.32.49.81.73,1.47.73ZM265.67,73.26l5.91-15.64h1.63l-5.91,15.64h-1.63ZM274.28,73.48c-.81,0-1.47-.19-1.98-.56-.51-.37-.88-.86-1.11-1.48-.24-.61-.35-1.28-.35-1.99v-.56c0-.77.12-1.46.36-2.07.24-.61.62-1.09,1.14-1.44.51-.35,1.16-.52,1.95-.52s1.45.17,1.96.52c.51.35.88.83,1.12,1.44.24.61.36,1.3.36,2.07v.56c0,.71-.12,1.38-.35,1.99-.24.61-.6,1.11-1.1,1.48s-1.17.56-1.99.56ZM274.28,72.06c.66,0,1.15-.24,1.47-.72s.48-1.2.48-2.15c0-1.01-.17-1.75-.49-2.22-.33-.46-.81-.7-1.46-.7s-1.13.23-1.46.7c-.33.46-.49,1.2-.49,2.2s.16,1.68.48,2.16c.32.49.81.73,1.47.73Z"/>
    </g>
    <rect class="st6" x="83.86" y="153.41" width="320.78" height="2"/>
    <g>
      <path class="st1" d="M126.8,178.87v-6.88h-2.33v-.83h5.64v.83h-2.33v6.88h-.99Z"/>
      <path class="st1" d="M131.1,178.87v-5.71h.8l.08,1.03h.04c.19-.36.42-.65.71-.86.28-.21.59-.32.92-.32.13,0,.24,0,.33.02.09.02.19.05.28.09l-.21.82c-.09-.02-.17-.04-.24-.05-.07-.01-.17-.02-.29-.02-.24,0-.5.1-.76.29-.26.2-.49.54-.69,1.02v3.67h-.96Z"/>
      <path class="st1" d="M136.45,179.01c-.31,0-.6-.06-.85-.19-.25-.13-.46-.31-.61-.55s-.22-.53-.22-.88c0-.64.28-1.13.85-1.46.56-.33,1.46-.56,2.68-.69,0-.24-.05-.46-.11-.68-.07-.22-.19-.4-.36-.53-.17-.13-.41-.2-.72-.2-.33,0-.64.06-.93.18-.29.12-.55.26-.78.41l-.38-.66c.17-.12.38-.23.61-.35.24-.11.49-.21.76-.28s.56-.11.87-.11c.46,0,.84.1,1.13.29.29.19.51.46.65.82.14.35.21.77.21,1.25v3.5h-.8l-.08-.68h-.04c-.27.23-.57.42-.88.58-.31.16-.65.24-1.01.24ZM136.72,178.21c.28,0,.55-.06.79-.19.25-.12.51-.31.78-.55v-1.54c-.64.08-1.15.18-1.52.3-.37.12-.64.27-.81.45-.16.18-.25.4-.25.65,0,.31.1.54.29.68.2.14.43.21.71.21Z"/>
      <path class="st1" d="M143.82,179.01c-.27,0-.54-.06-.82-.19-.28-.13-.55-.31-.81-.54h-.04l-.08.59h-.78v-8.37h.96v2.28l-.02,1.03c.26-.23.54-.42.85-.57.31-.15.62-.23.93-.23.49,0,.91.12,1.25.36s.59.58.76,1.01c.17.43.26.95.26,1.53,0,.65-.12,1.21-.35,1.67-.23.46-.53.82-.91,1.06-.38.24-.78.36-1.21.36ZM143.65,178.2c.31,0,.59-.09.84-.27.25-.18.44-.44.58-.78.14-.34.21-.75.21-1.22,0-.42-.05-.78-.15-1.1s-.26-.56-.48-.74c-.22-.18-.51-.26-.87-.26-.24,0-.48.06-.73.19-.25.13-.52.32-.79.58v3c.25.22.5.37.75.46.25.09.46.14.65.14Z"/>
      <path class="st1" d="M149.18,179.01c-.31,0-.6-.06-.85-.19-.25-.13-.46-.31-.61-.55s-.22-.53-.22-.88c0-.64.28-1.13.85-1.46.56-.33,1.46-.56,2.68-.69,0-.24-.05-.46-.11-.68-.07-.22-.19-.4-.36-.53-.17-.13-.41-.2-.72-.2-.33,0-.64.06-.93.18-.29.12-.55.26-.78.41l-.38-.66c.17-.12.38-.23.61-.35.24-.11.49-.21.76-.28s.56-.11.87-.11c.46,0,.84.1,1.13.29.29.19.51.46.65.82.14.35.21.77.21,1.25v3.5h-.8l-.08-.68h-.04c-.27.23-.57.42-.88.58-.31.16-.65.24-1.01.24ZM149.45,178.21c.28,0,.55-.06.79-.19.25-.12.51-.31.78-.55v-1.54c-.64.08-1.15.18-1.52.3-.37.12-.64.27-.81.45-.16.18-.25.4-.25.65,0,.31.1.54.29.68.2.14.43.21.71.21Z"/>
      <path class="st1" d="M155.04,178.97c-.24,0-.44-.05-.59-.15-.15-.1-.26-.24-.33-.44-.07-.19-.11-.42-.11-.7v-7.19h.96v7.26c0,.16.03.26.08.32.05.06.12.09.2.09.03,0,.06,0,.09,0,.03,0,.06,0,.11-.02l.14.73c-.07.02-.15.04-.24.06-.09.02-.2.03-.32.03Z"/>
      <path class="st1" d="M157.25,178.87v-8.37h.96v2.28l-.04,1.17c.27-.26.56-.48.86-.66.3-.18.65-.28,1.04-.28.6,0,1.04.19,1.32.57.28.38.42.93.42,1.66v3.62h-.96v-3.49c0-.54-.08-.93-.25-1.17-.17-.24-.44-.36-.83-.36-.29,0-.55.08-.78.22-.23.15-.49.37-.78.66v4.14h-.96Z"/>
      <path class="st1" d="M165.2,179.01c-.31,0-.6-.06-.85-.19-.25-.13-.46-.31-.61-.55s-.22-.53-.22-.88c0-.64.28-1.13.85-1.46.56-.33,1.46-.56,2.68-.69,0-.24-.05-.46-.11-.68-.07-.22-.19-.4-.36-.53-.17-.13-.41-.2-.72-.2-.33,0-.64.06-.93.18-.29.12-.55.26-.78.41l-.38-.66c.17-.12.38-.23.61-.35.24-.11.49-.21.76-.28s.56-.11.87-.11c.46,0,.84.1,1.13.29.29.19.51.46.65.82.14.35.21.77.21,1.25v3.5h-.8l-.08-.68h-.04c-.27.23-.57.42-.88.58-.31.16-.65.24-1.01.24ZM165.47,178.21c.28,0,.55-.06.79-.19.25-.12.51-.31.78-.55v-1.54c-.64.08-1.15.18-1.52.3-.37.12-.64.27-.81.45-.16.18-.25.4-.25.65,0,.31.1.54.29.68.2.14.43.21.71.21Z"/>
      <path class="st1" d="M171.99,179.01c-.72,0-1.29-.26-1.72-.78-.43-.52-.64-1.26-.64-2.2,0-.62.12-1.15.35-1.6.23-.45.53-.8.91-1.04.38-.24.78-.36,1.22-.36.34,0,.62.06.86.17.24.11.48.28.73.49l-.05-.98v-2.2h.98v8.37h-.8l-.08-.67h-.04c-.22.22-.48.41-.78.57-.3.16-.62.24-.95.24ZM172.2,178.2c.27,0,.52-.07.75-.2.24-.13.47-.33.71-.59v-2.99c-.24-.22-.47-.37-.69-.46-.23-.09-.46-.14-.69-.14-.31,0-.58.09-.83.28-.25.18-.44.44-.59.76s-.22.71-.22,1.15c0,.68.14,1.22.41,1.6s.66.58,1.16.58Z"/>
      <path class="st1" d="M179.02,179.01c-.46,0-.9-.12-1.3-.35-.4-.23-.73-.58-.98-1.02-.25-.45-.37-.98-.37-1.61s.12-1.19.37-1.63c.25-.45.57-.79.98-1.02.4-.24.84-.35,1.3-.35s.91.12,1.3.35c.4.23.72.58.97,1.02.25.45.37.99.37,1.63s-.12,1.16-.37,1.61c-.25.45-.57.79-.97,1.02-.4.24-.83.35-1.3.35ZM179.02,178.21c.33,0,.62-.09.87-.28.25-.18.44-.44.58-.77s.2-.71.2-1.14-.07-.82-.2-1.16c-.13-.33-.33-.59-.58-.78-.25-.18-.54-.28-.87-.28s-.62.09-.86.28c-.25.18-.44.44-.58.78-.14.33-.21.72-.21,1.16s.07.81.21,1.14.33.59.58.77c.25.18.53.28.86.28Z"/>
      <path class="st1" d="M183.41,178.87v-5.71h.8l.08,1.03h.04c.19-.36.42-.65.71-.86.28-.21.59-.32.92-.32.13,0,.24,0,.33.02.09.02.19.05.28.09l-.21.82c-.09-.02-.17-.04-.24-.05-.07-.01-.17-.02-.29-.02-.24,0-.5.1-.76.29-.26.2-.49.54-.69,1.02v3.67h-.96Z"/>
      <path class="st1" d="M189.92,179.01c-.51,0-.97-.12-1.39-.36-.42-.24-.75-.58-.99-1.02-.24-.44-.36-.98-.36-1.62s.13-1.15.38-1.6c.25-.45.57-.79.96-1.03.39-.24.81-.36,1.25-.36.49,0,.9.11,1.24.33.34.22.6.53.77.93.17.4.26.87.26,1.41,0,.1,0,.2,0,.29s-.02.19-.04.28h-4.11v-.76h3.29c0-.55-.12-.97-.36-1.26s-.58-.44-1.03-.44c-.26,0-.51.07-.76.22-.25.14-.46.38-.62.7s-.24.75-.24,1.28c0,.49.08.89.25,1.22s.4.58.69.75c.29.17.61.25.95.25.27,0,.53-.04.77-.12.24-.08.46-.18.65-.32l.35.63c-.25.17-.53.31-.84.42s-.66.16-1.05.16Z"/>
      <path class="st1" d="M195.16,179.01c-.42,0-.81-.07-1.18-.22-.37-.15-.69-.35-.95-.61l.45-.56c.25.2.51.36.78.47.27.11.58.16.93.16.38,0,.66-.09.85-.26.19-.18.28-.39.28-.63,0-.2-.06-.36-.19-.49-.13-.13-.29-.24-.48-.33-.19-.09-.4-.17-.62-.25-.28-.1-.55-.22-.81-.36-.26-.14-.47-.31-.63-.52-.16-.21-.24-.47-.24-.78,0-.46.17-.85.52-1.16s.83-.46,1.45-.46c.35,0,.68.06.99.18.31.12.57.28.79.46l-.45.55c-.2-.14-.41-.25-.62-.33-.21-.08-.45-.12-.71-.12-.36,0-.62.08-.79.25-.17.16-.25.36-.25.58,0,.17.05.32.15.43.1.11.24.21.43.3.18.09.39.17.63.25.3.11.58.23.85.37.27.14.49.31.66.53.17.22.25.5.25.84,0,.31-.08.6-.24.85s-.4.46-.71.62c-.31.16-.69.23-1.15.23Z"/>
      <path class="st1" d="M203.37,179.01c-.72,0-1.29-.26-1.72-.78-.43-.52-.64-1.26-.64-2.2,0-.62.12-1.15.35-1.6.23-.45.53-.8.91-1.04.38-.24.78-.36,1.22-.36.34,0,.62.06.86.17.24.11.48.28.73.49l-.05-.98v-2.2h.98v8.37h-.8l-.08-.67h-.04c-.22.22-.48.41-.78.57-.3.16-.62.24-.95.24ZM203.58,178.2c.27,0,.52-.07.75-.2.24-.13.47-.33.71-.59v-2.99c-.24-.22-.47-.37-.69-.46-.23-.09-.46-.14-.69-.14-.31,0-.58.09-.83.28-.25.18-.44.44-.59.76s-.22.71-.22,1.15c0,.68.14,1.22.41,1.6s.66.58,1.16.58Z"/>
      <path class="st1" d="M210.4,179.01c-.46,0-.9-.12-1.3-.35-.4-.23-.73-.58-.98-1.02-.25-.45-.37-.98-.37-1.61s.12-1.19.37-1.63c.25-.45.57-.79.98-1.02.4-.24.84-.35,1.3-.35s.91.12,1.3.35c.4.23.72.58.97,1.02.25.45.37.99.37,1.63s-.12,1.16-.37,1.61c-.25.45-.57.79-.97,1.02-.4.24-.83.35-1.3.35ZM210.4,178.21c.33,0,.62-.09.87-.28.25-.18.44-.44.58-.77s.2-.71.2-1.14-.07-.82-.2-1.16c-.13-.33-.33-.59-.58-.78-.25-.18-.54-.28-.87-.28s-.62.09-.86.28c-.25.18-.44.44-.58.78-.14.33-.21.72-.21,1.16s.07.81.21,1.14.33.59.58.77c.25.18.53.28.86.28Z"/>
      <path class="st1" d="M216.25,179.01c-.42,0-.81-.07-1.18-.22-.37-.15-.69-.35-.95-.61l.45-.56c.25.2.51.36.78.47.27.11.58.16.93.16.38,0,.66-.09.85-.26.19-.18.28-.39.28-.63,0-.2-.06-.36-.19-.49-.13-.13-.29-.24-.48-.33-.19-.09-.4-.17-.62-.25-.28-.1-.55-.22-.81-.36-.26-.14-.47-.31-.63-.52-.16-.21-.24-.47-.24-.78,0-.46.17-.85.52-1.16s.83-.46,1.45-.46c.35,0,.68.06.99.18.3.12.57.28.79.46l-.45.55c-.2-.14-.41-.25-.62-.33-.21-.08-.45-.12-.71-.12-.36,0-.62.08-.79.25-.17.16-.25.36-.25.58,0,.17.05.32.15.43.1.11.24.21.43.3s.39.17.63.25c.3.11.58.23.85.37.27.14.49.31.66.53.17.22.25.5.25.84,0,.31-.08.6-.24.85s-.4.46-.71.62c-.31.16-.69.23-1.15.23Z"/>
      <path class="st1" d="M224.77,179.01c-.51,0-.97-.12-1.38-.35-.41-.23-.73-.58-.96-1.02-.24-.45-.35-.98-.35-1.61s.13-1.19.38-1.63c.25-.45.59-.79,1.01-1.02.42-.24.87-.35,1.36-.35.38,0,.7.06.97.19.27.13.5.29.7.48l-.48.6c-.14-.14-.31-.25-.5-.34-.19-.08-.41-.12-.65-.12-.34,0-.64.09-.91.28-.27.18-.48.44-.64.77-.16.33-.24.71-.24,1.15s.07.81.22,1.14c.15.33.36.59.62.77.27.18.58.28.93.28.27,0,.51-.05.74-.15.23-.1.42-.23.59-.39l.42.59c-.24.23-.52.41-.82.55-.31.14-.64.21-1.01.21Z"/>
      <path class="st1" d="M229.77,179.01c-.6,0-1.04-.19-1.32-.57s-.42-.93-.42-1.66v-3.62h.96v3.49c0,.53.08.92.25,1.16.17.24.44.36.82.36.29,0,.55-.08.78-.23.23-.15.48-.39.76-.72v-4.06h.96v5.71h-.8l-.08-.89h-.04c-.26.31-.54.56-.84.75-.3.19-.65.28-1.04.28Z"/>
      <path class="st1" d="M235.21,171.98c-.19,0-.34-.06-.46-.18-.12-.12-.18-.27-.18-.46s.06-.34.18-.46c.12-.12.28-.18.46-.18s.34.06.46.18c.12.12.18.27.18.46s-.06.34-.18.46c-.12.12-.28.18-.46.18ZM234.73,178.87v-5.71h.96v5.71h-.96Z"/>
      <path class="st1" d="M239.81,179.01c-.72,0-1.29-.26-1.72-.78-.43-.52-.64-1.26-.64-2.2,0-.62.12-1.15.35-1.6.23-.45.54-.8.91-1.04s.78-.36,1.22-.36c.34,0,.62.06.86.17s.48.28.74.49l-.05-.98v-2.2h.98v8.37h-.8l-.08-.67h-.04c-.22.22-.48.41-.78.57-.3.16-.62.24-.95.24ZM240.02,178.2c.27,0,.52-.07.75-.2.24-.13.47-.33.71-.59v-2.99c-.23-.22-.47-.37-.69-.46-.23-.09-.46-.14-.69-.14-.31,0-.58.09-.83.28-.25.18-.44.44-.59.76-.15.33-.22.71-.22,1.15,0,.68.14,1.22.41,1.6s.66.58,1.16.58Z"/>
      <path class="st1" d="M245.93,179.01c-.31,0-.6-.06-.85-.19-.25-.13-.46-.31-.6-.55-.15-.24-.22-.53-.22-.88,0-.64.28-1.13.85-1.46.56-.33,1.46-.56,2.68-.69,0-.24-.04-.46-.11-.68-.07-.22-.19-.4-.36-.53-.17-.13-.41-.2-.72-.2-.33,0-.64.06-.93.18-.29.12-.55.26-.78.41l-.38-.66c.17-.12.38-.23.61-.35.23-.11.49-.21.76-.28s.56-.11.87-.11c.46,0,.84.1,1.13.29.29.19.51.46.65.82.14.35.21.77.21,1.25v3.5h-.8l-.08-.68h-.04c-.27.23-.57.42-.88.58-.31.16-.65.24-1.01.24ZM246.2,178.21c.28,0,.55-.06.79-.19.25-.12.51-.31.78-.55v-1.54c-.64.08-1.15.18-1.52.3-.37.12-.64.27-.8.45-.17.18-.25.4-.25.65,0,.31.1.54.29.68.2.14.43.21.71.21Z"/>
      <path class="st1" d="M252.72,179.01c-.72,0-1.29-.26-1.72-.78-.43-.52-.64-1.26-.64-2.2,0-.62.12-1.15.35-1.6.23-.45.54-.8.91-1.04s.78-.36,1.22-.36c.34,0,.62.06.86.17s.48.28.74.49l-.05-.98v-2.2h.98v8.37h-.8l-.08-.67h-.04c-.22.22-.48.41-.78.57-.3.16-.62.24-.95.24ZM252.94,178.2c.27,0,.52-.07.75-.2.24-.13.47-.33.71-.59v-2.99c-.23-.22-.47-.37-.69-.46-.23-.09-.46-.14-.69-.14-.31,0-.58.09-.83.28-.25.18-.44.44-.59.76-.15.33-.22.71-.22,1.15,0,.68.14,1.22.41,1.6s.66.58,1.16.58Z"/>
      <path class="st1" d="M259.75,179.01c-.46,0-.9-.12-1.3-.35-.4-.23-.73-.58-.98-1.02-.25-.45-.37-.98-.37-1.61s.12-1.19.37-1.63c.25-.45.57-.79.98-1.02.4-.24.84-.35,1.3-.35s.91.12,1.3.35c.4.23.72.58.97,1.02.25.45.37.99.37,1.63s-.12,1.16-.37,1.61c-.25.45-.57.79-.97,1.02-.4.24-.83.35-1.3.35ZM259.75,178.21c.33,0,.62-.09.87-.28.25-.18.44-.44.58-.77.13-.33.2-.71.2-1.14s-.07-.82-.2-1.16c-.13-.33-.33-.59-.58-.78-.25-.18-.54-.28-.87-.28s-.62.09-.86.28c-.25.18-.44.44-.58.78-.14.33-.21.72-.21,1.16s.07.81.21,1.14c.14.33.33.59.58.77.25.18.54.28.86.28Z"/>
      <path class="st1" d="M265.61,179.01c-.42,0-.81-.07-1.18-.22-.37-.15-.69-.35-.95-.61l.45-.56c.25.2.51.36.78.47.27.11.58.16.93.16.38,0,.66-.09.85-.26.19-.18.28-.39.28-.63,0-.2-.06-.36-.19-.49s-.29-.24-.48-.33c-.19-.09-.4-.17-.62-.25-.28-.1-.55-.22-.81-.36-.26-.14-.47-.31-.63-.52-.16-.21-.24-.47-.24-.78,0-.46.17-.85.52-1.16s.83-.46,1.45-.46c.35,0,.68.06.99.18.31.12.57.28.79.46l-.45.55c-.2-.14-.41-.25-.62-.33-.21-.08-.45-.12-.71-.12-.36,0-.62.08-.79.25-.17.16-.25.36-.25.58,0,.17.05.32.15.43.1.11.25.21.43.3.18.09.39.17.63.25.3.11.58.23.85.37.27.14.49.31.66.53.17.22.25.5.25.84,0,.31-.08.6-.24.85-.16.25-.4.46-.71.62-.31.16-.69.23-1.15.23Z"/>
      <path class="st1" d="M271.86,178.87v-5.71h.8l.08.82h.04c.27-.27.56-.5.87-.69.31-.18.65-.28,1.05-.28.6,0,1.04.19,1.32.57.28.38.42.93.42,1.66v3.62h-.96v-3.49c0-.54-.08-.93-.25-1.17-.17-.24-.45-.36-.83-.36-.29,0-.55.08-.78.22-.23.15-.49.37-.78.66v4.14h-.96Z"/>
      <path class="st1" d="M279.84,179.01c-.31,0-.6-.06-.85-.19-.25-.13-.46-.31-.6-.55-.15-.24-.22-.53-.22-.88,0-.64.28-1.13.85-1.46.56-.33,1.46-.56,2.68-.69,0-.24-.04-.46-.11-.68-.07-.22-.19-.4-.36-.53-.17-.13-.41-.2-.72-.2-.33,0-.64.06-.93.18-.29.12-.55.26-.78.41l-.38-.66c.17-.12.38-.23.61-.35.23-.11.49-.21.76-.28s.56-.11.87-.11c.46,0,.84.1,1.13.29.29.19.51.46.65.82.14.35.21.77.21,1.25v3.5h-.8l-.08-.68h-.04c-.27.23-.57.42-.88.58-.31.16-.65.24-1.01.24ZM280.11,178.21c.28,0,.55-.06.79-.19.25-.12.51-.31.78-.55v-1.54c-.64.08-1.15.18-1.52.3-.37.12-.64.27-.8.45-.17.18-.25.4-.25.65,0,.31.1.54.29.68.2.14.43.21.71.21Z"/>
      <path class="st1" d="M287.36,178.87v-7.71h2.29c.52,0,.98.06,1.38.19.4.13.71.33.93.61s.33.64.33,1.09c0,.4-.1.75-.29,1.05-.19.3-.47.51-.84.63v.05c.49.09.87.28,1.15.58s.42.71.42,1.23-.12.94-.37,1.28-.59.59-1.03.76c-.44.17-.95.25-1.53.25h-2.46ZM288.34,174.43h1.14c.66,0,1.13-.11,1.42-.34s.44-.54.44-.93c0-.45-.15-.77-.46-.96-.31-.18-.76-.28-1.35-.28h-1.19v2.5ZM288.34,178.09h1.34c.67,0,1.18-.12,1.55-.37.37-.25.55-.63.55-1.15,0-.48-.18-.83-.54-1.05-.36-.22-.88-.33-1.56-.33h-1.34v2.9Z"/>
      <path class="st1" d="M295.73,179.01c-.31,0-.6-.06-.85-.19-.25-.13-.46-.31-.6-.55-.15-.24-.22-.53-.22-.88,0-.64.28-1.13.85-1.46.56-.33,1.46-.56,2.68-.69,0-.24-.04-.46-.11-.68-.07-.22-.19-.4-.36-.53-.17-.13-.41-.2-.72-.2-.33,0-.64.06-.93.18-.29.12-.55.26-.78.41l-.38-.66c.17-.12.38-.23.61-.35.23-.11.49-.21.76-.28s.56-.11.87-.11c.46,0,.84.1,1.13.29.29.19.51.46.65.82.14.35.21.77.21,1.25v3.5h-.8l-.08-.68h-.04c-.27.23-.57.42-.88.58-.31.16-.65.24-1.01.24ZM296,178.21c.28,0,.55-.06.79-.19.25-.12.51-.31.78-.55v-1.54c-.64.08-1.15.18-1.52.3-.37.12-.64.27-.8.45-.17.18-.25.4-.25.65,0,.31.1.54.29.68.2.14.43.21.71.21Z"/>
      <path class="st1" d="M300.58,178.87v-8.37h.96v2.28l-.04,1.17c.27-.26.56-.48.86-.66.3-.18.65-.28,1.04-.28.6,0,1.04.19,1.32.57.28.38.42.93.42,1.66v3.62h-.96v-3.49c0-.54-.08-.93-.25-1.17-.17-.24-.45-.36-.83-.36-.29,0-.55.08-.78.22-.23.15-.49.37-.78.66v4.14h-.96Z"/>
      <path class="st1" d="M307.69,171.98c-.19,0-.34-.06-.46-.18-.12-.12-.18-.27-.18-.46s.06-.34.18-.46c.12-.12.28-.18.46-.18s.34.06.46.18c.12.12.18.27.18.46s-.06.34-.18.46c-.12.12-.28.18-.46.18ZM307.21,178.87v-5.71h.96v5.71h-.96Z"/>
      <path class="st1" d="M311.65,179.01c-.31,0-.6-.06-.85-.19-.25-.13-.46-.31-.6-.55-.15-.24-.22-.53-.22-.88,0-.64.28-1.13.85-1.46.56-.33,1.46-.56,2.68-.69,0-.24-.04-.46-.11-.68-.07-.22-.19-.4-.36-.53-.17-.13-.41-.2-.72-.2-.33,0-.64.06-.93.18-.29.12-.55.26-.78.41l-.38-.66c.17-.12.38-.23.61-.35.23-.11.49-.21.76-.28s.56-.11.87-.11c.46,0,.84.1,1.13.29.29.19.51.46.65.82.14.35.21.77.21,1.25v3.5h-.8l-.08-.68h-.04c-.27.23-.57.42-.88.58-.31.16-.65.24-1.01.24ZM311.92,178.21c.28,0,.55-.06.79-.19.25-.12.51-.31.78-.55v-1.54c-.64.08-1.15.18-1.52.3-.37.12-.64.27-.8.45-.17.18-.25.4-.25.65,0,.31.1.54.29.68.2.14.43.21.71.21Z"/>
    </g>
  </g>
</svg>