<?xml version="1.0" encoding="UTF-8"?>
<svg id="Layer_1" xmlns="http://www.w3.org/2000/svg" version="1.1" viewBox="0 0 345 332.3">
  <!-- Generator: Adobe Illustrator 29.6.1, SVG Export Plug-In . SVG Version: 2.1.1 Build 9)  -->
  <defs>
    <style>
      .st0 {
        fill: #231f20;
      }

      .st1 {
        fill: #e65a23;
      }

      .st2 {
        fill: #7251a0;
      }
    </style>
  </defs>
  <g>
    <path class="st0" d="M44.1,37.9v-13.8h4.3c1,0,1.9.1,2.7.4.8.3,1.4.7,1.9,1.3s.7,1.5.7,2.5-.2,1.8-.7,2.5c-.5.7-1.1,1.1-1.9,1.5-.8.3-1.7.5-2.7.5h-2v5h-2.4,0ZM46.5,30.9h1.8c1,0,1.8-.2,2.3-.6s.8-1,.8-1.9-.3-1.5-.8-1.8c-.5-.3-1.3-.5-2.3-.5h-1.7v4.8h0Z"/>
    <path class="st0" d="M59.6,38.1c-.9,0-1.7-.2-2.4-.6s-1.3-1-1.8-1.8-.7-1.8-.7-2.9.2-2.1.7-2.9,1.1-1.4,1.8-1.9,1.5-.6,2.4-.6,1.7.2,2.4.6c.7.4,1.3,1,1.8,1.9.5.8.7,1.8.7,2.9s-.2,2.1-.7,2.9c-.5.8-1.1,1.4-1.8,1.8s-1.5.6-2.4.6ZM59.6,36.1c.5,0,.9-.1,1.3-.4s.7-.7.8-1.2.3-1.1.3-1.8,0-1.3-.3-1.8c-.2-.5-.5-.9-.8-1.2s-.8-.4-1.3-.4-.9.1-1.3.4c-.4.3-.6.7-.8,1.2-.2.5-.3,1.1-.3,1.8s0,1.3.3,1.8.5.9.8,1.2c.4.3.8.4,1.3.4Z"/>
    <path class="st0" d="M66.6,37.9v-10.3h2l.2,1.8h0c.4-.7.8-1.2,1.3-1.5.5-.4,1.1-.5,1.6-.5s.5,0,.7,0,.3,0,.5.2l-.5,2.1c-.2,0-.3,0-.5,0s-.3,0-.6,0c-.4,0-.8.2-1.3.5-.4.3-.8.9-1.2,1.6v6.3h-2.4,0Z"/>
    <path class="st0" d="M78.3,38.1c-.9,0-1.8-.2-2.6-.6s-1.4-1-1.8-1.8c-.4-.8-.7-1.8-.7-2.9s.2-2.1.7-2.9c.5-.8,1.1-1.4,1.9-1.9s1.6-.6,2.6-.6,1.2.1,1.7.3.9.5,1.3.8l-1.2,1.5c-.2-.2-.5-.4-.8-.5-.3-.1-.6-.2-1-.2-.6,0-1,.1-1.4.4s-.8.7-1,1.2-.4,1.1-.4,1.8.1,1.3.4,1.8.6.9,1,1.2.9.4,1.4.4.8,0,1.2-.2.7-.3,1-.6l1,1.5c-.4.4-.9.7-1.5,1-.6.2-1.2.4-1.8.4h0Z"/>
    <path class="st0" d="M87.2,38.1c-1,0-1.8-.2-2.6-.6-.8-.4-1.4-1-1.8-1.8-.4-.8-.7-1.8-.7-2.9s.2-2.1.7-2.9,1.1-1.4,1.8-1.9,1.5-.6,2.3-.6,1.7.2,2.4.6,1.1,1,1.4,1.7.5,1.6.5,2.5,0,.4,0,.7c0,.2,0,.4,0,.6h-7.1v-1.9h5.1c0-.7-.2-1.3-.5-1.8-.3-.4-.9-.6-1.6-.6s-.8.1-1.2.3c-.4.2-.7.6-.9,1.1s-.4,1.2-.4,2.1.1,1.5.4,2c.3.5.7.9,1.1,1.1s1,.4,1.5.4.9,0,1.3-.2c.4-.1.8-.3,1.1-.5l.8,1.6c-.5.3-1,.6-1.6.8s-1.2.3-1.9.3h0Z"/>
    <path class="st0" d="M93.2,37.9v-10.3h2l.2,1.4h0c.5-.5,1-.8,1.5-1.2s1.2-.5,1.9-.5c1.1,0,1.9.4,2.4,1.1s.8,1.7.8,3v6.5h-2.4v-6.2c0-.9-.1-1.5-.4-1.8s-.7-.5-1.2-.5-.8.1-1.2.3c-.3.2-.7.5-1.2,1v7.2h-2.4,0Z"/>
    <path class="st0" d="M108.3,38.1c-1.2,0-2-.3-2.5-1-.5-.7-.8-1.6-.8-2.7v-4.9h-1.5v-1.8h1.6c0-.1.3-3.4.3-3.4h2v3.2h2.6v1.9h-2.6v4.9c0,.6.1,1.1.4,1.4s.6.5,1.1.5.4,0,.6,0c.2,0,.4,0,.5-.2l.4,1.7c-.3.1-.6.2-.9.3-.4,0-.8.1-1.2.1Z"/>
    <path class="st0" d="M114,38.1c-.6,0-1.1-.1-1.6-.4s-.8-.6-1.1-1.1c-.3-.5-.4-1-.4-1.6,0-1.2.5-2,1.5-2.6s2.5-1,4.6-1.2c0-.4,0-.7-.2-1-.1-.3-.3-.5-.6-.7-.3-.2-.6-.3-1.1-.3s-1,0-1.5.3-1,.4-1.4.7l-.9-1.6c.4-.2.8-.5,1.2-.7s.9-.4,1.4-.5c.5-.1,1-.2,1.6-.2.9,0,1.6.2,2.1.5.6.3,1,.9,1.3,1.5.3.7.4,1.5.4,2.5v6.1h-2l-.2-1.1h0c-.5.4-1,.7-1.5,1s-1.1.4-1.7.4h0ZM114.7,36.1c.4,0,.8,0,1.2-.3s.7-.4,1.1-.8v-2.2c-.9.1-1.7.3-2.2.4s-.9.4-1.2.7-.3.6-.3.9.1.8.4.9.6.3,1.1.3h0Z"/>
    <path class="st0" d="M125.6,42.4c-.8,0-1.6,0-2.2-.3-.6-.2-1.2-.5-1.5-.9-.4-.4-.6-.9-.6-1.5s.1-.8.4-1.2.6-.7,1.1-1h0c-.2-.2-.5-.5-.7-.8s-.3-.6-.3-1,.1-.8.3-1.1c.2-.3.5-.6.8-.8h0c-.3-.4-.7-.7-.9-1.2-.3-.5-.4-1-.4-1.6s.2-1.5.6-2,.9-1,1.5-1.3,1.3-.4,2-.4.6,0,.8,0c.3,0,.5.1.7.2h3.7v1.8h-1.9c.2.3.4.5.5.8s.2.6.2,1c0,.8-.2,1.4-.5,1.9s-.8.9-1.4,1.2-1.2.4-2,.4-.5,0-.7,0c-.2,0-.5-.1-.7-.2-.1.1-.3.3-.4.4s-.2.3-.2.6.1.5.4.7c.2.2.7.2,1.3.2h1.8c1.2,0,2.2.2,2.8.6.6.4,1,1,1,2s-.2,1.3-.7,1.8-1.1,1-1.9,1.3c-.8.3-1.8.5-2.9.5h0ZM126,40.8c.6,0,1,0,1.4-.2s.7-.3,1-.6.4-.5.4-.8-.2-.7-.5-.8c-.3-.1-.8-.2-1.4-.2h-1.4c-.3,0-.5,0-.8,0-.2,0-.4,0-.7-.1-.3.2-.5.4-.6.7s-.2.5-.2.7c0,.5.2.8.7,1.1.5.3,1.1.4,1.9.4h0ZM125.7,33.1c.3,0,.6,0,.9-.2s.5-.4.7-.7.2-.7.2-1.1c0-.7-.2-1.2-.5-1.5s-.8-.5-1.3-.5-.9.2-1.3.5-.5.9-.5,1.5,0,.8.2,1.1c.2.3.4.5.7.7s.6.2.9.2h0Z"/>
    <path class="st0" d="M136.7,38.1c-1,0-1.8-.2-2.6-.6s-1.4-1-1.8-1.8c-.4-.8-.7-1.8-.7-2.9s.2-2.1.7-2.9,1.1-1.4,1.8-1.9,1.5-.6,2.3-.6,1.7.2,2.4.6,1.1,1,1.4,1.7.5,1.6.5,2.5,0,.4,0,.7c0,.2,0,.4,0,.6h-7.1v-1.9h5.1c0-.7-.2-1.3-.5-1.8s-.9-.6-1.6-.6-.8.1-1.1.3c-.4.2-.7.6-.9,1.1s-.4,1.2-.4,2.1.1,1.5.4,2c.3.5.6.9,1.1,1.1s1,.4,1.5.4.9,0,1.3-.2c.4-.1.8-.3,1.1-.5l.8,1.6c-.5.3-1,.6-1.6.8s-1.2.3-1.9.3h0Z"/>
    <path class="st0" d="M142.6,37.9v-10.3h2l.2,1.4h0c.4-.5.9-.9,1.4-1.2s1.1-.5,1.7-.5,1.4.2,1.8.5.8.8,1,1.4c.5-.5,1-1,1.5-1.3s1.1-.5,1.8-.5c1.1,0,1.9.4,2.4,1.1s.8,1.7.8,3v6.5h-2.4v-6.2c0-.9-.1-1.5-.4-1.8s-.6-.5-1.2-.5-.7.1-1,.3-.7.5-1.1,1v7.2h-2.4v-6.2c0-.9-.1-1.5-.4-1.8s-.7-.5-1.2-.5-1.4.4-2.2,1.3v7.2h-2.4,0Z"/>
    <path class="st0" d="M167.6,38.1c-1.3,0-2.3-.5-3.1-1.4-.8-1-1.2-2.3-1.2-4s.2-2.1.6-2.9c.4-.8.9-1.4,1.6-1.9s1.4-.6,2.1-.6,1.1.1,1.5.3c.4.2.8.5,1.2.8v-1.7c0,0,0-3.8,0-3.8h2.4v14.9h-2l-.2-1.1h0c-.4.4-.8.7-1.3,1-.5.3-1,.4-1.6.4h0ZM168.2,36.1c.4,0,.8,0,1.1-.3s.7-.5,1-.9v-4.8c-.4-.3-.7-.5-1.1-.7-.4-.1-.7-.2-1.1-.2s-.9.1-1.2.4-.6.6-.9,1.2c-.2.5-.3,1.1-.3,1.9,0,1.1.2,2,.6,2.5.4.6,1,.9,1.7.9h0Z"/>
    <path class="st0" d="M178,38.1c-.6,0-1.1-.1-1.6-.4s-.8-.6-1.1-1.1c-.3-.5-.4-1-.4-1.6,0-1.2.5-2,1.5-2.6s2.5-1,4.6-1.2c0-.4,0-.7-.2-1-.1-.3-.3-.5-.6-.7-.3-.2-.6-.3-1.1-.3s-1,0-1.5.3-1,.4-1.4.7l-.9-1.6c.4-.2.8-.5,1.2-.7.4-.2.9-.4,1.4-.5.5-.1,1-.2,1.6-.2.9,0,1.6.2,2.1.5.6.3,1,.9,1.3,1.5.3.7.4,1.5.4,2.5v6.1h-2l-.2-1.1h0c-.5.4-1,.7-1.5,1s-1.1.4-1.7.4h0ZM178.8,36.1c.4,0,.8,0,1.2-.3s.7-.4,1.1-.8v-2.2c-.9.1-1.7.3-2.2.4s-.9.4-1.2.7-.4.6-.4.9.1.8.4.9.6.3,1.1.3h0Z"/>
    <path class="st0" d="M188.9,38.1c-.7,0-1.4-.1-2.1-.4s-1.3-.6-1.8-1.1l1.1-1.4c.5.4.9.7,1.4.8.5.2,1,.2,1.5.2s1-.1,1.2-.4.4-.5.4-.9-.1-.5-.3-.7-.5-.4-.8-.5c-.3-.1-.7-.3-1.1-.4-.5-.2-1-.4-1.4-.7-.4-.3-.8-.6-1.1-1s-.4-.9-.4-1.4c0-.9.3-1.6,1-2.2s1.6-.9,2.7-.9,1.4.1,1.9.4,1.1.5,1.5.9l-1.1,1.4c-.4-.3-.7-.5-1.1-.6-.4-.1-.8-.2-1.2-.2s-.9.1-1.2.3c-.2.2-.4.5-.4.8s0,.5.2.6.4.3.7.5c.3.1.7.3,1.1.4.5.2,1,.4,1.5.7.5.3.8.6,1.1,1s.4.9.4,1.5-.1,1.1-.5,1.6c-.3.5-.8.9-1.4,1.2s-1.3.4-2.2.4Z"/>
    <path class="st0" d="M198.7,41.9v-14.4h2l.2,1.1h0c.4-.4.9-.7,1.4-1s1.1-.4,1.7-.4c.9,0,1.6.2,2.2.6.6.4,1.1,1,1.4,1.8.3.8.5,1.7.5,2.8s-.2,2.2-.6,3c-.4.8-1,1.5-1.6,1.9-.7.4-1.4.7-2.2.7s-.9,0-1.4-.3c-.4-.2-.9-.5-1.3-.8v1.7c0,0,0,3.2,0,3.2h-2.4,0ZM203.2,36.1c.5,0,.9-.1,1.2-.4s.6-.7.9-1.2.3-1.2.3-2,0-1.3-.2-1.8-.4-.9-.7-1.1c-.3-.3-.8-.4-1.3-.4s-.8,0-1.1.3c-.4.2-.8.5-1.2.9v4.8c.4.3.8.5,1.1.7.4.1.7.2,1,.2h0Z"/>
    <path class="st0" d="M210.2,37.9v-10.3h2l.2,1.8h0c.4-.7.8-1.2,1.3-1.5.5-.4,1.1-.5,1.6-.5s.5,0,.7,0,.4,0,.5.2l-.5,2.1c-.2,0-.3,0-.5,0s-.3,0-.6,0c-.4,0-.8.2-1.3.5-.4.3-.8.9-1.2,1.6v6.3h-2.4,0Z"/>
    <path class="st0" d="M221.8,38.1c-.9,0-1.7-.2-2.4-.6-.7-.4-1.4-1-1.8-1.8s-.7-1.8-.7-2.9.2-2.1.7-2.9,1.1-1.4,1.8-1.9c.7-.4,1.5-.6,2.4-.6s1.7.2,2.4.6,1.4,1,1.8,1.9c.5.8.7,1.8.7,2.9s-.2,2.1-.7,2.9c-.5.8-1.1,1.4-1.8,1.8-.7.4-1.6.6-2.4.6ZM221.8,36.1c.5,0,.9-.1,1.3-.4s.6-.7.8-1.2.3-1.1.3-1.8-.1-1.3-.3-1.8c-.2-.5-.5-.9-.8-1.2s-.8-.4-1.3-.4-.9.1-1.3.4c-.4.3-.6.7-.8,1.2-.2.5-.3,1.1-.3,1.8s.1,1.3.3,1.8.5.9.8,1.2c.4.3.8.4,1.3.4Z"/>
    <path class="st0" d="M227.6,29.4v-1.8h1.7c0-.1,4.3-.1,4.3-.1v1.9h-6,0ZM229.1,37.9v-11.4c0-.7.1-1.4.4-1.9s.6-1,1.1-1.3,1.2-.5,2-.5.7,0,1.1.1c.3,0,.6.2.8.2l-.5,1.8c-.4-.1-.7-.2-1.1-.2s-.7.1-1,.4c-.2.3-.3.7-.3,1.3v11.4h-2.4Z"/>
    <path class="st0" d="M236.2,25.7c-.4,0-.8-.1-1-.4-.3-.2-.4-.6-.4-1s.1-.8.4-1,.6-.4,1-.4.8.1,1.1.4c.3.2.4.6.4,1s-.1.8-.4,1c-.3.2-.6.4-1.1.4ZM235.1,37.9v-10.3h2.4v10.3h-2.4Z"/>
    <path class="st0" d="M243.1,38.1c-.7,0-1.4-.1-2.1-.4s-1.3-.6-1.8-1.1l1.1-1.4c.5.4.9.7,1.4.8.5.2,1,.2,1.5.2s1-.1,1.2-.4.4-.5.4-.9-.1-.5-.3-.7-.5-.4-.8-.5c-.3-.1-.7-.3-1.1-.4-.5-.2-1-.4-1.4-.7-.4-.3-.8-.6-1.1-1s-.4-.9-.4-1.4c0-.9.3-1.6,1-2.2s1.6-.9,2.7-.9,1.4.1,1.9.4,1.1.5,1.5.9l-1.1,1.4c-.4-.3-.7-.5-1.1-.6-.4-.1-.8-.2-1.2-.2s-.9.1-1.2.3c-.2.2-.4.5-.4.8s0,.5.2.6.4.3.7.5c.3.1.7.3,1.1.4.5.2,1,.4,1.5.7.5.3.8.6,1.1,1s.4.9.4,1.5-.1,1.1-.5,1.6c-.3.5-.8.9-1.4,1.2s-1.3.4-2.2.4Z"/>
    <path class="st0" d="M251.9,38.1c-.7,0-1.4-.1-2.1-.4s-1.3-.6-1.8-1.1l1.1-1.4c.5.4.9.7,1.4.8.5.2,1,.2,1.5.2s1-.1,1.2-.4.4-.5.4-.9-.1-.5-.3-.7-.5-.4-.8-.5c-.3-.1-.7-.3-1.1-.4-.5-.2-1-.4-1.4-.7-.4-.3-.8-.6-1.1-1s-.4-.9-.4-1.4c0-.9.3-1.6,1-2.2s1.6-.9,2.7-.9,1.4.1,1.9.4,1.1.5,1.5.9l-1.1,1.4c-.4-.3-.7-.5-1.1-.6-.4-.1-.8-.2-1.2-.2s-.9.1-1.2.3c-.2.2-.4.5-.4.8s0,.5.2.6.4.3.7.5c.3.1.7.3,1.1.4.5.2,1,.4,1.5.7.5.3.8.6,1.1,1s.4.9.4,1.5-.1,1.1-.5,1.6c-.3.5-.8.9-1.4,1.2s-1.3.4-2.2.4Z"/>
    <path class="st0" d="M259,25.7c-.4,0-.8-.1-1-.4-.3-.2-.4-.6-.4-1s.1-.8.4-1,.6-.4,1-.4.8.1,1,.4c.3.2.4.6.4,1s-.1.8-.4,1-.6.4-1,.4ZM257.8,37.9v-10.3h2.4v10.3h-2.4Z"/>
    <path class="st0" d="M267.2,38.1c-.9,0-1.7-.2-2.4-.6s-1.4-1-1.8-1.8-.7-1.8-.7-2.9.2-2.1.7-2.9,1.1-1.4,1.8-1.9,1.5-.6,2.4-.6,1.7.2,2.4.6c.7.4,1.4,1,1.8,1.9.5.8.7,1.8.7,2.9s-.2,2.1-.7,2.9c-.5.8-1.1,1.4-1.8,1.8s-1.5.6-2.4.6ZM267.2,36.1c.5,0,.9-.1,1.3-.4s.6-.7.8-1.2.3-1.1.3-1.8-.1-1.3-.3-1.8c-.2-.5-.5-.9-.8-1.2s-.8-.4-1.3-.4-.9.1-1.3.4c-.4.3-.6.7-.8,1.2-.2.5-.3,1.1-.3,1.8s.1,1.3.3,1.8.5.9.8,1.2c.4.3.8.4,1.3.4Z"/>
    <path class="st0" d="M274.2,37.9v-10.3h2l.2,1.4h0c.5-.5,1-.8,1.5-1.2s1.2-.5,1.9-.5c1.1,0,1.9.4,2.4,1.1s.8,1.7.8,3v6.5h-2.4v-6.2c0-.9-.1-1.5-.4-1.8s-.7-.5-1.2-.5-.9.1-1.2.3-.7.5-1.2,1v7.2h-2.4,0Z"/>
    <path class="st0" d="M288.1,38.1c-.6,0-1.1-.1-1.6-.4s-.8-.6-1.1-1.1c-.3-.5-.4-1-.4-1.6,0-1.2.5-2,1.5-2.6s2.5-1,4.6-1.2c0-.4,0-.7-.2-1-.1-.3-.3-.5-.6-.7-.3-.2-.6-.3-1.1-.3s-1,0-1.5.3-1,.4-1.4.7l-.9-1.6c.4-.2.8-.5,1.2-.7.5-.2.9-.4,1.4-.5.5-.1,1-.2,1.6-.2.9,0,1.6.2,2.1.5.6.3,1,.9,1.3,1.5.3.7.4,1.5.4,2.5v6.1h-2l-.2-1.1h0c-.5.4-1,.7-1.5,1s-1.1.4-1.7.4h0ZM288.9,36.1c.4,0,.8,0,1.2-.3.4-.2.7-.4,1.1-.8v-2.2c-.9.1-1.7.3-2.2.4-.5.2-.9.4-1.2.7s-.4.6-.4.9.1.8.4.9.6.3,1,.3h0Z"/>
    <path class="st0" d="M297.4,25.7c-.4,0-.8-.1-1-.4-.3-.2-.4-.6-.4-1s.1-.8.4-1,.6-.4,1-.4.8.1,1,.4c.3.2.4.6.4,1s-.1.8-.4,1-.6.4-1,.4ZM296.2,37.9v-10.3h2.4v10.3h-2.4Z"/>
    <path class="st0" d="M304.3,38.1c-.7,0-1.4-.1-2.1-.4-.7-.3-1.3-.6-1.8-1.1l1.1-1.4c.5.4.9.7,1.4.8s1,.2,1.5.2,1-.1,1.2-.4.4-.5.4-.9-.1-.5-.3-.7-.5-.4-.8-.5-.7-.3-1.1-.4c-.5-.2-1-.4-1.4-.7-.4-.3-.8-.6-1.1-1s-.4-.9-.4-1.4c0-.9.3-1.6,1-2.2s1.6-.9,2.7-.9,1.4.1,1.9.4,1.1.5,1.5.9l-1.1,1.4c-.4-.3-.7-.5-1.1-.6-.4-.1-.8-.2-1.2-.2s-.9.1-1.2.3c-.2.2-.4.5-.4.8s0,.5.2.6.4.3.7.5.7.3,1.1.4c.5.2,1,.4,1.5.7.5.3.8.6,1.1,1s.4.9.4,1.5-.1,1.1-.5,1.6-.8.9-1.4,1.2c-.6.3-1.3.4-2.2.4Z"/>
    <path class="st0" d="M26.3,63.4c-1.3,0-2.3-.5-3.1-1.4s-1.2-2.3-1.2-4,.2-2.1.6-2.9c.4-.8,1-1.4,1.6-1.9s1.4-.7,2.1-.7,1.1,0,1.5.3c.4.2.8.5,1.2.8v-1.7c0,0,0-3.8,0-3.8h2.4v14.8h-2l-.2-1.1h0c-.4.4-.8.7-1.3,1-.5.3-1,.4-1.6.4h0ZM26.9,61.4c.4,0,.8,0,1.1-.3s.7-.5,1-.9v-4.8c-.4-.3-.7-.5-1-.7-.4-.1-.7-.2-1-.2s-.9.1-1.2.4-.6.7-.9,1.2c-.2.5-.3,1.1-.3,1.8,0,1.1.2,2,.6,2.5.4.6,1,.9,1.7.9Z"/>
    <path class="st0" d="M38.4,63.4c-.9,0-1.7-.2-2.4-.6s-1.3-1-1.8-1.8-.7-1.8-.7-2.9.2-2.1.7-2.9,1.1-1.4,1.8-1.8,1.5-.6,2.4-.6,1.7.2,2.4.6,1.3,1,1.8,1.8c.5.8.7,1.8.7,2.9s-.2,2.1-.7,2.9c-.5.8-1.1,1.4-1.8,1.8s-1.5.6-2.4.6ZM38.4,61.4c.5,0,.9-.1,1.3-.4s.7-.7.8-1.2.3-1.1.3-1.8,0-1.3-.3-1.8c-.2-.5-.5-.9-.8-1.2s-.8-.4-1.3-.4-.9.1-1.3.4c-.4.3-.6.7-.8,1.2s-.3,1.1-.3,1.8,0,1.3.3,1.8.5.9.8,1.2c.4.3.8.4,1.3.4Z"/>
    <path class="st0" d="M48.2,63.4c-.7,0-1.4-.1-2.1-.4-.7-.3-1.3-.6-1.8-1.1l1.1-1.4c.5.4.9.7,1.4.8s1,.2,1.5.2,1-.1,1.2-.4.4-.5.4-.9,0-.5-.3-.7-.5-.4-.8-.5-.7-.3-1.1-.4c-.5-.2-1-.4-1.4-.7-.4-.3-.8-.6-1.1-1s-.4-.8-.4-1.4c0-.9.3-1.7,1-2.2.7-.6,1.6-.9,2.7-.9s1.3.1,1.9.3,1.1.5,1.5.9l-1.1,1.4c-.4-.3-.7-.5-1.1-.6-.4-.1-.8-.2-1.2-.2s-.9.1-1.2.3c-.2.2-.4.5-.4.8s0,.5.2.6.4.3.7.5c.3.1.7.3,1.1.4.5.2,1,.4,1.5.7.5.3.8.6,1.1,1s.4.9.4,1.5-.2,1.1-.5,1.6c-.3.5-.8.9-1.4,1.2-.6.3-1.3.4-2.2.4Z"/>
    <path class="st0" d="M62.4,63.4c-1,0-1.8-.2-2.6-.6s-1.4-1-1.8-1.8c-.4-.8-.7-1.8-.7-2.9s.2-2.1.7-2.9c.5-.8,1.1-1.4,1.9-1.8s1.6-.6,2.6-.6,1.2.1,1.7.3.9.5,1.3.8l-1.2,1.5c-.2-.2-.5-.4-.8-.5-.3-.1-.6-.2-1-.2-.5,0-1,.1-1.5.4-.4.3-.8.7-1,1.2s-.4,1.1-.4,1.8.1,1.3.4,1.8.6.9,1,1.2.9.4,1.4.4.8,0,1.2-.2.7-.3,1-.6l1,1.5c-.4.4-.9.7-1.5,1-.6.2-1.2.4-1.8.4h0Z"/>
    <path class="st0" d="M70.5,63.4c-1.1,0-1.9-.4-2.4-1.1-.5-.7-.8-1.7-.8-3v-6.5h2.4v6.2c0,.9.1,1.5.4,1.8.2.3.7.5,1.2.5s.8-.1,1.2-.3c.3-.2.7-.6,1.1-1.1v-7.1h2.4v10.3h-2l-.2-1.5h0c-.4.5-.9,1-1.5,1.3s-1.2.5-1.8.5Z"/>
    <path class="st0" d="M80,51c-.4,0-.8-.1-1-.4-.3-.2-.4-.6-.4-1s.1-.8.4-1c.3-.2.6-.4,1-.4s.8.1,1.1.4c.3.2.4.6.4,1s-.1.8-.4,1c-.3.2-.6.4-1.1.4ZM78.8,63.1v-10.3h2.4v10.3h-2.4Z"/>
    <path class="st0" d="M87.6,63.4c-1.3,0-2.3-.5-3.1-1.4s-1.2-2.3-1.2-4,.2-2.1.6-2.9.9-1.4,1.6-1.9c.7-.4,1.4-.7,2.1-.7s1.1,0,1.5.3c.4.2.8.5,1.2.8v-1.7c0,0,0-3.8,0-3.8h2.4v14.8h-2l-.2-1.1h0c-.4.4-.8.7-1.3,1-.5.3-1,.4-1.6.4h0ZM88.2,61.4c.4,0,.8,0,1.1-.3s.7-.5,1-.9v-4.8c-.3-.3-.7-.5-1.1-.7-.3-.1-.7-.2-1.1-.2s-.8.1-1.2.4-.7.7-.9,1.2c-.2.5-.3,1.1-.3,1.8,0,1.1.2,2,.6,2.5.4.6,1,.9,1.7.9Z"/>
    <path class="st0" d="M98,63.4c-.6,0-1.1-.1-1.6-.4s-.8-.6-1.1-1.1c-.3-.5-.4-1-.4-1.6,0-1.2.5-2,1.5-2.6s2.5-1,4.6-1.2c0-.3,0-.7-.2-1-.1-.3-.3-.5-.6-.7-.3-.2-.6-.3-1.1-.3s-1,0-1.5.3-1,.4-1.4.7l-.9-1.6c.4-.2.8-.5,1.2-.7s.9-.4,1.4-.5,1-.2,1.6-.2c.9,0,1.6.2,2.1.5.6.3,1,.8,1.3,1.5.3.7.4,1.5.4,2.5v6.1h-2l-.2-1.1h0c-.5.4-1,.7-1.5,1s-1.1.4-1.7.4h0ZM98.8,61.4c.4,0,.8,0,1.2-.3s.7-.4,1.1-.8v-2.2c-.9.1-1.7.3-2.2.4s-.9.4-1.2.7-.3.6-.3.9.1.8.4.9.6.3,1.1.3h0Z"/>
    <path class="st0" d="M109.7,63.4c-1.3,0-2.3-.5-3.1-1.4s-1.2-2.3-1.2-4,.2-2.1.6-2.9.9-1.4,1.6-1.9c.7-.4,1.4-.7,2.1-.7s1.1,0,1.5.3c.4.2.8.5,1.2.8v-1.7c0,0,0-3.8,0-3.8h2.4v14.8h-2l-.2-1.1h0c-.4.4-.8.7-1.3,1-.5.3-1,.4-1.6.4h0ZM110.3,61.4c.4,0,.8,0,1.1-.3s.7-.5,1-.9v-4.8c-.3-.3-.7-.5-1.1-.7-.3-.1-.7-.2-1.1-.2s-.8.1-1.2.4-.7.7-.9,1.2c-.2.5-.3,1.1-.3,1.8,0,1.1.2,2,.6,2.5.4.6,1,.9,1.7.9Z"/>
    <path class="st0" d="M121.8,63.4c-.9,0-1.7-.2-2.4-.6s-1.3-1-1.8-1.8-.7-1.8-.7-2.9.2-2.1.7-2.9,1.1-1.4,1.8-1.8,1.5-.6,2.4-.6,1.7.2,2.4.6,1.3,1,1.8,1.8c.5.8.7,1.8.7,2.9s-.2,2.1-.7,2.9c-.5.8-1.1,1.4-1.8,1.8s-1.6.6-2.4.6ZM121.8,61.4c.5,0,.9-.1,1.3-.4s.7-.7.8-1.2.3-1.1.3-1.8,0-1.3-.3-1.8c-.2-.5-.5-.9-.8-1.2s-.8-.4-1.3-.4-.9.1-1.3.4c-.4.3-.6.7-.8,1.2-.2.5-.3,1.1-.3,1.8s0,1.3.3,1.8.5.9.8,1.2c.4.3.8.4,1.3.4Z"/>
    <path class="st0" d="M131.7,63.4c-.7,0-1.4-.1-2.1-.4s-1.3-.6-1.8-1.1l1.1-1.4c.5.4.9.7,1.4.8.5.2,1,.2,1.5.2s1-.1,1.2-.4.4-.5.4-.9-.1-.5-.3-.7-.5-.4-.8-.5c-.3-.1-.7-.3-1.1-.4-.5-.2-1-.4-1.4-.7-.4-.3-.8-.6-1.1-1s-.4-.8-.4-1.4c0-.9.3-1.7,1-2.2.7-.6,1.6-.9,2.7-.9s1.4.1,1.9.3,1.1.5,1.5.9l-1.1,1.4c-.4-.3-.7-.5-1.1-.6-.4-.1-.8-.2-1.2-.2s-.9.1-1.2.3c-.2.2-.4.5-.4.8s0,.5.2.6.4.3.7.5c.3.1.7.3,1.1.4.5.2,1,.4,1.5.7s.8.6,1.1,1,.4.9.4,1.5-.1,1.1-.5,1.6c-.3.5-.8.9-1.4,1.2s-1.3.4-2.2.4Z"/>
    <path class="st0" d="M145.8,63.4c-.9,0-1.8-.2-2.6-.6-.8-.4-1.4-1-1.8-1.8-.4-.8-.7-1.8-.7-2.9s.2-2.1.7-2.9c.5-.8,1.1-1.4,1.9-1.8s1.6-.6,2.6-.6,1.2.1,1.7.3.9.5,1.3.8l-1.2,1.5c-.2-.2-.5-.4-.8-.5-.3-.1-.6-.2-1-.2-.6,0-1,.1-1.4.4s-.8.7-1,1.2-.4,1.1-.4,1.8.1,1.3.4,1.8.6.9,1,1.2.9.4,1.4.4.8,0,1.1-.2.7-.3,1-.6l1,1.5c-.4.4-.9.7-1.5,1-.6.2-1.2.4-1.8.4h0Z"/>
    <path class="st0" d="M154.6,63.4c-.9,0-1.7-.2-2.4-.6-.7-.4-1.4-1-1.8-1.8s-.7-1.8-.7-2.9.2-2.1.7-2.9,1.1-1.4,1.8-1.8c.7-.4,1.5-.6,2.4-.6s1.7.2,2.4.6,1.4,1,1.8,1.8c.5.8.7,1.8.7,2.9s-.2,2.1-.7,2.9c-.5.8-1.1,1.4-1.8,1.8-.7.4-1.6.6-2.4.6ZM154.6,61.4c.5,0,.9-.1,1.3-.4s.6-.7.8-1.2.3-1.1.3-1.8-.1-1.3-.3-1.8c-.2-.5-.5-.9-.8-1.2s-.8-.4-1.3-.4-.9.1-1.3.4c-.4.3-.6.7-.8,1.2s-.3,1.1-.3,1.8.1,1.3.3,1.8.5.9.8,1.2c.4.3.8.4,1.3.4Z"/>
    <path class="st0" d="M161.6,63.1v-10.3h2l.2,1.4h0c.4-.5.9-.9,1.4-1.2s1.1-.5,1.7-.5,1.4.2,1.8.5.8.8,1,1.4c.5-.5,1-1,1.5-1.3s1.1-.5,1.8-.5c1.1,0,1.9.4,2.4,1.1s.8,1.7.8,3v6.5h-2.4v-6.2c0-.9-.1-1.5-.4-1.8-.2-.3-.6-.5-1.2-.5s-.7.1-1,.3-.7.5-1.1,1v7.2h-2.4v-6.2c0-.9-.1-1.5-.4-1.8-.3-.3-.7-.5-1.2-.5s-1.4.4-2.2,1.3v7.2h-2.4,0Z"/>
    <path class="st0" d="M187.2,63.4c-.9,0-1.8-.2-2.6-.6-.8-.4-1.4-1-1.8-1.8-.4-.8-.7-1.8-.7-2.9s.2-2.1.7-2.9c.5-.8,1.1-1.4,1.9-1.8s1.6-.6,2.6-.6,1.2.1,1.7.3.9.5,1.3.8l-1.2,1.5c-.2-.2-.5-.4-.8-.5-.3-.1-.6-.2-1-.2-.6,0-1,.1-1.4.4s-.8.7-1,1.2-.4,1.1-.4,1.8.1,1.3.4,1.8.6.9,1,1.2.9.4,1.4.4.8,0,1.1-.2.7-.3,1-.6l1,1.5c-.4.4-.9.7-1.5,1-.6.2-1.2.4-1.8.4h0Z"/>
    <path class="st0" d="M194.6,63.4c-.6,0-1.1-.1-1.6-.4s-.8-.6-1.1-1.1c-.3-.5-.4-1-.4-1.6,0-1.2.5-2,1.5-2.6s2.5-1,4.6-1.2c0-.3,0-.7-.2-1-.1-.3-.3-.5-.6-.7-.3-.2-.6-.3-1.1-.3s-1,0-1.5.3-1,.4-1.4.7l-.9-1.6c.4-.2.8-.5,1.2-.7.4-.2.9-.4,1.4-.5s1-.2,1.6-.2c.9,0,1.6.2,2.1.5.6.3,1,.8,1.3,1.5.3.7.4,1.5.4,2.5v6.1h-2l-.2-1.1h0c-.5.4-1,.7-1.5,1s-1.1.4-1.7.4h0ZM195.3,61.4c.4,0,.8,0,1.2-.3s.7-.4,1.1-.8v-2.2c-.9.1-1.7.3-2.2.4s-.9.4-1.2.7-.4.6-.4.9.1.8.4.9.6.3,1.1.3h0Z"/>
    <path class="st0" d="M202.6,63.1v-10.3h2l.2,1.8h0c.4-.7.8-1.2,1.3-1.5s1.1-.5,1.6-.5.5,0,.7,0c.2,0,.4,0,.5.2l-.5,2.1c-.2,0-.3,0-.5,0s-.3,0-.6,0c-.4,0-.8.2-1.3.5-.4.3-.8.9-1.2,1.7v6.3h-2.4,0Z"/>
    <path class="st0" d="M213.8,63.3c-1.2,0-2-.3-2.5-1-.5-.7-.8-1.6-.8-2.7v-4.9h-1.5v-1.8h1.6c0-.1.3-3.4.3-3.4h2v3.2h2.6v1.9h-2.6v4.9c0,.6.1,1.1.4,1.4s.6.5,1.1.5.4,0,.6,0c.2,0,.4,0,.5-.2l.4,1.7c-.3.1-.6.2-.9.3-.4,0-.8.1-1.2.1h0Z"/>
    <path class="st0" d="M221.5,63.4c-1,0-1.8-.2-2.6-.6s-1.4-1-1.8-1.8c-.4-.8-.7-1.8-.7-2.9s.2-2.1.7-2.9,1.1-1.4,1.8-1.9,1.5-.7,2.3-.7,1.7.2,2.4.6c.6.4,1.1,1,1.4,1.7s.5,1.6.5,2.5,0,.4,0,.7c0,.2,0,.4,0,.6h-7.1v-1.8h5.1c0-.7-.2-1.3-.5-1.8-.3-.4-.9-.6-1.6-.6s-.8,0-1.1.3c-.4.2-.7.6-.9,1.1s-.4,1.2-.4,2.1.1,1.5.4,2c.3.5.6.9,1.1,1.1s1,.4,1.5.4.9,0,1.3-.2c.4-.1.8-.3,1.1-.5l.8,1.6c-.5.3-1,.6-1.6.8s-1.2.3-1.9.3h0Z"/>
    <path class="st0" d="M228.6,51c-.4,0-.8-.1-1-.4-.3-.2-.4-.6-.4-1s.1-.8.4-1,.6-.4,1-.4.8.1,1.1.4c.3.2.4.6.4,1s-.1.8-.4,1c-.3.2-.6.4-1.1.4ZM227.4,63.1v-10.3h2.4v10.3h-2.4Z"/>
    <path class="st0" d="M232.6,63.1v-10.3h2l.2,1.8h0c.4-.7.8-1.2,1.3-1.5s1.1-.5,1.6-.5.5,0,.7,0c.2,0,.4,0,.5.2l-.5,2.1c-.2,0-.3,0-.5,0s-.3,0-.6,0c-.4,0-.8.2-1.3.5-.4.3-.8.9-1.2,1.7v6.3h-2.4,0Z"/>
    <path class="st0" d="M242.1,63.4c-.6,0-1.1-.1-1.6-.4s-.8-.6-1.1-1.1c-.3-.5-.4-1-.4-1.6,0-1.2.5-2,1.5-2.6s2.5-1,4.6-1.2c0-.3,0-.7-.2-1-.1-.3-.3-.5-.6-.7-.3-.2-.6-.3-1.1-.3s-1,0-1.5.3-1,.4-1.4.7l-.9-1.6c.4-.2.8-.5,1.2-.7.4-.2.9-.4,1.4-.5s1-.2,1.6-.2c.9,0,1.6.2,2.1.5.6.3,1,.8,1.3,1.5.3.7.4,1.5.4,2.5v6.1h-2l-.2-1.1h0c-.5.4-1,.7-1.5,1s-1.1.4-1.7.4h0ZM242.9,61.4c.4,0,.8,0,1.2-.3s.7-.4,1.1-.8v-2.2c-.9.1-1.7.3-2.2.4s-.9.4-1.2.7-.4.6-.4.9.1.8.4.9.6.3,1.1.3h0Z"/>
    <path class="st0" d="M256.5,63.4c-.6,0-1.1-.1-1.6-.4s-.8-.6-1.1-1.1c-.3-.5-.4-1-.4-1.6,0-1.2.5-2,1.5-2.6s2.5-1,4.6-1.2c0-.3,0-.7-.2-1-.1-.3-.3-.5-.6-.7-.3-.2-.6-.3-1.1-.3s-1,0-1.5.3c-.5.2-1,.4-1.4.7l-.9-1.6c.4-.2.8-.5,1.2-.7.4-.2.9-.4,1.4-.5s1-.2,1.6-.2c.9,0,1.6.2,2.1.5.6.3,1,.8,1.3,1.5.3.7.4,1.5.4,2.5v6.1h-2l-.2-1.1h0c-.5.4-1,.7-1.5,1s-1.1.4-1.7.4h0ZM257.3,61.4c.4,0,.8,0,1.2-.3.4-.2.7-.4,1.1-.8v-2.2c-.9.1-1.7.3-2.2.4-.5.2-.9.4-1.2.7s-.4.6-.4.9.1.8.4.9c.3.2.6.3,1,.3h0Z"/>
    <path class="st0" d="M267.5,63.4c-.7,0-1.4-.1-2.1-.4-.7-.3-1.3-.6-1.8-1.1l1.1-1.4c.5.4.9.7,1.4.8s1,.2,1.5.2,1-.1,1.2-.4.4-.5.4-.9-.1-.5-.3-.7-.5-.4-.8-.5-.7-.3-1.1-.4c-.5-.2-1-.4-1.4-.7-.4-.3-.8-.6-1.1-1s-.4-.8-.4-1.4c0-.9.3-1.7,1-2.2.7-.6,1.6-.9,2.7-.9s1.4.1,1.9.3,1.1.5,1.5.9l-1.1,1.4c-.4-.3-.7-.5-1.1-.6s-.8-.2-1.2-.2-.9.1-1.2.3c-.2.2-.4.5-.4.8s0,.5.2.6.4.3.7.5c.3.1.7.3,1.1.4.5.2,1,.4,1.5.7s.8.6,1.1,1,.4.9.4,1.5-.1,1.1-.5,1.6-.8.9-1.4,1.2c-.6.3-1.3.4-2.2.4Z"/>
    <path class="st0" d="M276.2,63.4c-.7,0-1.4-.1-2.1-.4-.7-.3-1.3-.6-1.8-1.1l1.1-1.4c.5.4.9.7,1.4.8s1,.2,1.5.2,1-.1,1.2-.4.4-.5.4-.9-.1-.5-.3-.7-.5-.4-.8-.5-.7-.3-1.1-.4c-.5-.2-1-.4-1.4-.7-.4-.3-.8-.6-1.1-1s-.4-.8-.4-1.4c0-.9.3-1.7,1-2.2.7-.6,1.6-.9,2.7-.9s1.4.1,1.9.3,1.1.5,1.5.9l-1.1,1.4c-.4-.3-.7-.5-1.1-.6s-.8-.2-1.2-.2-.9.1-1.2.3c-.2.2-.4.5-.4.8s0,.5.2.6.4.3.7.5c.3.1.7.3,1.1.4.5.2,1,.4,1.5.7s.8.6,1.1,1,.4.9.4,1.5-.1,1.1-.5,1.6-.8.9-1.4,1.2c-.6.3-1.3.4-2.2.4Z"/>
    <path class="st0" d="M283.3,51c-.4,0-.8-.1-1-.4-.3-.2-.4-.6-.4-1s.1-.8.4-1,.6-.4,1-.4.8.1,1,.4c.3.2.4.6.4,1s-.1.8-.4,1-.6.4-1,.4ZM282.1,63.1v-10.3h2.4v10.3h-2.4Z"/>
    <path class="st0" d="M287.3,63.1v-10.3h2l.2,1.4h0c.5-.5,1-.8,1.5-1.2s1.2-.5,1.9-.5c1.1,0,1.9.4,2.4,1.1s.8,1.7.8,3v6.5h-2.4v-6.2c0-.9-.1-1.5-.4-1.8-.2-.3-.7-.5-1.2-.5s-.9.1-1.2.3-.7.5-1.2,1v7.2h-2.4,0Z"/>
    <path class="st0" d="M301.2,63.4c-.6,0-1.1-.1-1.6-.4s-.8-.6-1.1-1.1c-.3-.5-.4-1-.4-1.6,0-1.2.5-2,1.5-2.6s2.5-1,4.6-1.2c0-.3,0-.7-.2-1-.1-.3-.3-.5-.6-.7-.3-.2-.6-.3-1.1-.3s-1,0-1.5.3-1,.4-1.4.7l-.9-1.6c.4-.2.8-.5,1.2-.7.5-.2.9-.4,1.4-.5s1-.2,1.6-.2c.9,0,1.6.2,2.1.5.6.3,1,.8,1.3,1.5.3.7.4,1.5.4,2.5v6.1h-2l-.2-1.1h0c-.5.4-1,.7-1.5,1s-1.1.4-1.7.4h0ZM302,61.4c.4,0,.8,0,1.2-.3.4-.2.7-.4,1.1-.8v-2.2c-.9.1-1.7.3-2.2.4-.5.2-.9.4-1.2.7s-.4.6-.4.9.1.8.4.9.6.3,1,.3h0Z"/>
    <path class="st0" d="M312.9,63.4c-1.3,0-2.3-.5-3.1-1.4s-1.2-2.3-1.2-4,.2-2.1.6-2.9,1-1.4,1.6-1.9c.7-.4,1.4-.7,2.1-.7s1.1,0,1.5.3c.4.2.8.5,1.2.8v-1.7c0,0,0-3.8,0-3.8h2.4v14.8h-2l-.2-1.1h0c-.4.4-.8.7-1.3,1-.5.3-1,.4-1.6.4h0ZM313.5,61.4c.4,0,.8,0,1.1-.3s.7-.5,1-.9v-4.8c-.4-.3-.7-.5-1-.7-.4-.1-.7-.2-1-.2s-.9.1-1.2.4-.6.7-.9,1.2c-.2.5-.3,1.1-.3,1.8,0,1.1.2,2,.6,2.5.4.6,1,.9,1.7.9h0Z"/>
    <path class="st0" d="M323.3,63.4c-.6,0-1.1-.1-1.6-.4s-.8-.6-1.1-1.1c-.3-.5-.4-1-.4-1.6,0-1.2.5-2,1.5-2.6s2.5-1,4.6-1.2c0-.3,0-.7-.2-1-.1-.3-.3-.5-.6-.7-.3-.2-.6-.3-1.1-.3s-1,0-1.5.3-1,.4-1.4.7l-.9-1.6c.4-.2.8-.5,1.2-.7.5-.2.9-.4,1.4-.5s1-.2,1.6-.2c.9,0,1.6.2,2.1.5.6.3,1,.8,1.3,1.5.3.7.4,1.5.4,2.5v6.1h-2l-.2-1.1h0c-.5.4-1,.7-1.5,1s-1.1.4-1.7.4h0ZM324.1,61.4c.4,0,.8,0,1.2-.3.4-.2.7-.4,1.1-.8v-2.2c-.9.1-1.7.3-2.2.4-.5.2-.9.4-1.2.7s-.4.6-.4.9.1.8.4.9.6.3,1,.3h0Z"/>
  </g>
  <g>
    <g>
      <g>
        <path class="st0" d="M74.9,286.8c-.7,0-1.3,0-1.9-.3s-1-.4-1.4-.7-.8-.6-1.1-.9l.9-1.1c.4.4.9.8,1.4,1.1.5.3,1.2.5,2,.5s1.5-.2,2-.7.8-1,.8-1.8-.1-1-.4-1.4c-.3-.4-.7-.7-1.3-.9s-1.5-.3-2.5-.3v-1.3c.9,0,1.7-.1,2.3-.3.6-.2.9-.5,1.2-.9.2-.4.4-.8.4-1.3s-.2-1.2-.6-1.6-1-.6-1.7-.6-1.1.1-1.6.4c-.5.2-.9.6-1.3,1l-.9-1.1c.5-.5,1.1-.9,1.7-1.2.6-.3,1.3-.5,2.1-.5s1.5.1,2.1.4,1.1.6,1.4,1.2.5,1.1.5,1.9-.2,1.5-.7,2-1,.9-1.8,1.2h0c.6.2,1,.4,1.5.7s.8.7,1,1.1.4,1,.4,1.6-.2,1.5-.6,2c-.4.6-.9,1-1.6,1.3s-1.4.5-2.2.5Z"/>
        <path class="st0" d="M85.7,286.8c-1.3,0-2.4-.6-3.2-1.8-.8-1.2-1.2-2.9-1.2-5.2s.4-4,1.2-5.1c.8-1.2,1.8-1.8,3.2-1.8s2.4.6,3.2,1.8c.8,1.2,1.2,2.9,1.2,5.1s-.4,4-1.2,5.2c-.8,1.2-1.8,1.8-3.2,1.8h0ZM85.7,285.4c.5,0,1-.2,1.4-.6s.7-1,.9-1.8.3-1.9.3-3.2-.1-2.4-.3-3.2-.5-1.4-.9-1.8c-.4-.4-.8-.6-1.4-.6s-1,.2-1.4.6-.7,1-.9,1.8-.3,1.9-.3,3.2.1,2.4.3,3.2c.2.8.5,1.4.9,1.8s.9.6,1.4.6Z"/>
        <path class="st0" d="M94.7,281.2c-.6,0-1.2-.2-1.7-.5s-.8-.8-1.1-1.5c-.3-.6-.4-1.4-.4-2.4,0-1.4.3-2.5.9-3.2.6-.8,1.3-1.1,2.3-1.1s1.7.4,2.3,1.1c.6.8.9,1.8.9,3.2s-.1,1.7-.4,2.4-.6,1.1-1.1,1.5c-.5.3-1,.5-1.7.5ZM94.7,280.1c.6,0,1-.3,1.3-.8s.5-1.4.5-2.5-.2-1.9-.5-2.5-.8-.8-1.3-.8-1,.3-1.3.8-.5,1.4-.5,2.5.2,1.9.5,2.5.8.8,1.3.8ZM95.1,286.8l7.6-14.3h1.2l-7.6,14.3h-1.2ZM104.4,286.8c-.6,0-1.2-.2-1.7-.5-.5-.3-.8-.8-1.1-1.5s-.4-1.4-.4-2.4c0-1.4.3-2.5.9-3.2.6-.8,1.3-1.1,2.3-1.1s1.7.4,2.3,1.1c.6.8.9,1.8.9,3.2s-.1,1.7-.4,2.4c-.3.6-.6,1.1-1.1,1.5-.5.3-1,.5-1.7.5ZM104.4,285.7c.6,0,1-.3,1.3-.8.3-.5.5-1.4.5-2.5s-.2-1.9-.5-2.5c-.3-.5-.8-.8-1.3-.8s-1,.3-1.3.8c-.3.5-.5,1.4-.5,2.5s.2,1.9.5,2.5.8.8,1.3.8Z"/>
        <path class="st0" d="M117.4,286.7c-1.1,0-1.8-.3-2.3-1s-.7-1.5-.7-2.5v-5.6h-1.5v-1.3h1.6c0-.1.2-3.4.2-3.4h1.4v3.3h2.8v1.4h-2.8v5.6c0,.6.1,1.1.3,1.5.2.4.6.5,1.2.5s.4,0,.6,0,.4-.1.6-.2l.4,1.2c-.3.1-.6.2-.9.3-.3,0-.7.1-1,.1h0Z"/>
        <path class="st0" d="M125.1,286.8c-.9,0-1.7-.2-2.5-.6-.8-.4-1.3-1-1.8-1.8-.4-.8-.7-1.8-.7-2.9s.2-2.1.7-2.9,1-1.4,1.7-1.9,1.4-.6,2.2-.6,1.6.2,2.2.6,1.1,1,1.4,1.7c.3.7.5,1.6.5,2.5v.5c0,.2,0,.3,0,.5h-7.4v-1.4h5.9c0-1-.2-1.7-.6-2.3-.4-.5-1-.8-1.8-.8s-.9.1-1.4.4c-.4.3-.8.7-1.1,1.2-.3.6-.4,1.3-.4,2.3s.2,1.6.4,2.2c.3.6.7,1,1.2,1.3.5.3,1.1.5,1.7.5s.9,0,1.4-.2c.4-.1.8-.3,1.2-.6l.6,1.1c-.4.3-.9.6-1.5.8s-1.2.3-1.9.3h0ZM121.2,274.5l2.9-3.5h1.5l2.9,3.5h-1.4l-2.2-2.2h0l-2.2,2.2h-1.4,0Z"/>
        <path class="st0" d="M131.4,286.5v-10.2h1.4v1.5h.2c.4-.5.9-.9,1.5-1.2.5-.3,1.1-.5,1.7-.5s1.4.2,1.8.5.8.8,1,1.4c.5-.6,1.1-1.1,1.6-1.4.6-.4,1.1-.5,1.8-.5,1.1,0,1.9.3,2.4,1s.8,1.7.8,3v6.5h-1.7v-6.2c0-1-.1-1.7-.5-2.1s-.8-.6-1.4-.6-.8.1-1.2.4c-.4.3-.9.7-1.3,1.2v7.4h-1.7v-6.2c0-1-.1-1.7-.5-2.1s-.8-.6-1.4-.6-1.6.5-2.6,1.6v7.4h-1.7,0Z"/>
        <path class="st0" d="M157.1,286.8c-.9,0-1.7-.2-2.5-.6-.7-.4-1.3-1-1.7-1.8s-.6-1.8-.6-2.9.2-2.1.7-2.9c.5-.8,1.1-1.4,1.8-1.8.8-.4,1.6-.6,2.4-.6s1.2.1,1.7.3.9.5,1.2.9l-.9,1.1c-.2-.2-.6-.5-.9-.6s-.7-.2-1.2-.2-1.1.2-1.6.5c-.5.3-.9.8-1.1,1.4s-.4,1.3-.4,2.1.1,1.5.4,2c.3.6.6,1,1.1,1.4.5.3,1,.5,1.7.5s.9,0,1.3-.3.8-.4,1.1-.7l.8,1c-.4.4-.9.7-1.5,1-.6.2-1.1.4-1.8.4h0Z"/>
        <path class="st0" d="M164.8,286.8c-.6,0-1.1-.1-1.5-.4-.5-.2-.8-.6-1.1-1s-.4-1-.4-1.6c0-1.1.5-2,1.5-2.6s2.6-1,4.8-1.2c0-.4,0-.8-.2-1.2s-.3-.7-.6-1c-.3-.2-.7-.4-1.3-.4s-1.1.1-1.7.3-1,.5-1.4.7l-.7-1.2c.3-.2.7-.4,1.1-.6s.9-.4,1.4-.5c.5-.1,1-.2,1.6-.2.8,0,1.5.2,2,.5.5.3.9.8,1.2,1.5s.4,1.4.4,2.2v6.3h-1.4v-1.2h-.2c-.5.4-1,.8-1.6,1s-1.2.4-1.8.4h0ZM165.3,285.3c.5,0,1-.1,1.4-.3.4-.2.9-.5,1.4-1v-2.8c-1.1.1-2.1.3-2.7.5-.7.2-1.1.5-1.4.8-.3.3-.4.7-.4,1.2s.2,1,.5,1.2.8.4,1.3.4h0Z"/>
        <path class="st0" d="M173,286.5v-10.2h1.4v1.9h.2c.3-.6.8-1.2,1.3-1.5s1.1-.6,1.6-.6.4,0,.6,0,.3,0,.5.2l-.4,1.5c-.1,0-.3,0-.4,0-.1,0-.3,0-.5,0-.4,0-.9.2-1.4.5s-.9,1-1.2,1.8v6.6h-1.7,0Z"/>
        <path class="st0" d="M183.5,286.7c-1.1,0-1.8-.3-2.3-1-.4-.6-.6-1.5-.6-2.5v-5.6h-1.5v-1.3h1.6c0-.1.2-3.4.2-3.4h1.4v3.3h2.8v1.4h-2.8v5.6c0,.6.1,1.1.4,1.5.2.4.6.5,1.2.5s.4,0,.6,0,.4-.1.6-.2l.4,1.2c-.3.1-.6.2-.9.3-.3,0-.7.1-1,.1h0Z"/>
        <path class="st0" d="M191.3,286.8c-.9,0-1.7-.2-2.5-.6-.8-.4-1.3-1-1.8-1.8-.4-.8-.6-1.8-.6-2.9s.2-2.1.7-2.9,1-1.4,1.7-1.9,1.4-.6,2.2-.6,1.6.2,2.2.6,1.1,1,1.4,1.7c.3.7.5,1.6.5,2.5v.5c0,.2,0,.3,0,.5h-7.4v-1.4h5.9c0-1-.2-1.7-.6-2.3-.4-.5-1-.8-1.8-.8s-.9.1-1.4.4-.8.7-1.1,1.2c-.3.6-.4,1.3-.4,2.3s.1,1.6.4,2.2.7,1,1.2,1.3c.5.3,1.1.5,1.7.5s.9,0,1.4-.2c.4-.1.8-.3,1.2-.6l.6,1.1c-.4.3-.9.6-1.5.8s-1.2.3-1.9.3h0Z"/>
        <path class="st0" d="M198.4,274.2c-.3,0-.6-.1-.8-.3-.2-.2-.3-.5-.3-.8s.1-.6.3-.8c.2-.2.5-.3.8-.3s.6.1.8.3c.2.2.3.5.3.8s-.1.6-.3.8c-.2.2-.5.3-.8.3ZM197.6,286.5v-10.2h1.7v10.2h-1.7Z"/>
        <path class="st0" d="M202.8,286.5v-10.2h1.4v1.9h.2c.3-.6.8-1.2,1.3-1.5s1.1-.6,1.6-.6.4,0,.6,0,.3,0,.5.2l-.4,1.5c-.1,0-.3,0-.4,0-.1,0-.3,0-.5,0-.4,0-.9.2-1.4.5s-.9,1-1.2,1.8v6.6h-1.7,0Z"/>
        <path class="st0" d="M211.9,286.8c-.6,0-1.1-.1-1.5-.4-.5-.2-.8-.6-1.1-1s-.4-1-.4-1.6c0-1.1.5-2,1.5-2.6s2.6-1,4.8-1.2c0-.4,0-.8-.2-1.2s-.3-.7-.6-1c-.3-.2-.7-.4-1.3-.4s-1.1.1-1.7.3-1,.5-1.4.7l-.7-1.2c.3-.2.7-.4,1.1-.6s.9-.4,1.4-.5c.5-.1,1-.2,1.6-.2.8,0,1.5.2,2,.5.5.3.9.8,1.2,1.5s.4,1.4.4,2.2v6.3h-1.4v-1.2h-.2c-.5.4-1,.8-1.6,1s-1.2.4-1.8.4h0ZM212.4,285.3c.5,0,1-.1,1.4-.3.4-.2.9-.5,1.4-1v-2.8c-1.1.1-2.1.3-2.7.5-.7.2-1.1.5-1.4.8-.3.3-.4.7-.4,1.2s.2,1,.5,1.2.8.4,1.3.4h0Z"/>
        <path class="st0" d="M226.7,286.8c-.6,0-1.1-.1-1.5-.4-.5-.2-.8-.6-1.1-1s-.4-1-.4-1.6c0-1.1.5-2,1.5-2.6s2.6-1,4.8-1.2c0-.4,0-.8-.2-1.2s-.3-.7-.6-1c-.3-.2-.7-.4-1.3-.4s-1.1.1-1.7.3-1,.5-1.4.7l-.7-1.2c.3-.2.7-.4,1.1-.6s.9-.4,1.4-.5c.5-.1,1-.2,1.6-.2.8,0,1.5.2,2,.5.5.3.9.8,1.2,1.5s.4,1.4.4,2.2v6.3h-1.4v-1.2h-.2c-.5.4-1,.8-1.6,1s-1.2.4-1.8.4h0ZM227.2,285.3c.5,0,1-.1,1.4-.3.4-.2.9-.5,1.4-1v-2.8c-1.1.1-2.1.3-2.7.5-.7.2-1.1.5-1.4.8-.3.3-.4.7-.4,1.2s.2,1,.5,1.2.8.4,1.3.4h0Z"/>
        <path class="st0" d="M237.6,286.8c-.7,0-1.4-.1-2.1-.4s-1.2-.6-1.7-1.1l.8-1c.4.4.9.6,1.4.8.5.2,1,.3,1.7.3s1.2-.2,1.5-.5.5-.7.5-1.1-.1-.6-.4-.9c-.2-.2-.5-.4-.9-.6s-.7-.3-1.1-.5c-.5-.2-1-.4-1.4-.6-.5-.2-.8-.5-1.1-.9-.3-.4-.4-.8-.4-1.4,0-.8.3-1.5.9-2.1s1.5-.8,2.6-.8,1.2.1,1.8.3,1,.5,1.4.8l-.8,1c-.4-.2-.7-.5-1.1-.6-.4-.1-.8-.2-1.3-.2s-1.1.1-1.4.4-.4.6-.4,1,0,.6.3.8c.2.2.4.4.8.5.3.1.7.3,1.1.4.5.2,1,.4,1.5.7.5.2.9.6,1.2,1,.3.4.4.9.4,1.5s-.1,1.1-.4,1.5-.7.8-1.3,1.1c-.6.3-1.2.4-2.1.4h0Z"/>
        <path class="st0" d="M246.4,286.8c-.7,0-1.4-.1-2.1-.4s-1.2-.6-1.7-1.1l.8-1c.4.4.9.6,1.4.8.5.2,1,.3,1.7.3s1.2-.2,1.5-.5.5-.7.5-1.1-.1-.6-.4-.9c-.2-.2-.5-.4-.9-.6s-.7-.3-1.1-.5c-.5-.2-1-.4-1.4-.6-.5-.2-.8-.5-1.1-.9-.3-.4-.4-.8-.4-1.4,0-.8.3-1.5.9-2.1s1.5-.8,2.6-.8,1.2.1,1.8.3,1,.5,1.4.8l-.8,1c-.4-.2-.7-.5-1.1-.6-.4-.1-.8-.2-1.3-.2s-1.1.1-1.4.4-.4.6-.4,1,0,.6.3.8c.2.2.4.4.8.5.3.1.7.3,1.1.4.5.2,1,.4,1.5.7.5.2.9.6,1.2,1,.3.4.4.9.4,1.5s-.1,1.1-.4,1.5-.7.8-1.3,1.1c-.6.3-1.2.4-2.1.4h0Z"/>
        <path class="st0" d="M253.4,274.2c-.3,0-.6-.1-.8-.3-.2-.2-.3-.5-.3-.8s.1-.6.3-.8c.2-.2.5-.3.8-.3s.6.1.8.3c.2.2.3.5.3.8s-.1.6-.3.8c-.2.2-.5.3-.8.3ZM252.6,286.5v-10.2h1.7v10.2h-1.7Z"/>
        <path class="st0" d="M257.8,286.5v-10.2h1.4v1.5h.2c.5-.5,1-.9,1.6-1.2.5-.3,1.2-.5,1.9-.5,1.1,0,1.9.3,2.4,1s.8,1.7.8,3v6.5h-1.7v-6.2c0-1-.1-1.7-.5-2.1-.3-.4-.8-.6-1.5-.6s-1,.1-1.4.4-.9.7-1.4,1.2v7.4h-1.7Z"/>
        <path class="st0" d="M271.6,286.8c-.6,0-1.1-.1-1.5-.4s-.8-.6-1.1-1-.4-1-.4-1.6c0-1.1.5-2,1.5-2.6s2.6-1,4.8-1.2c0-.4,0-.8-.2-1.2-.1-.4-.3-.7-.6-1-.3-.2-.7-.4-1.3-.4s-1.1.1-1.7.3-1,.5-1.4.7l-.7-1.2c.3-.2.7-.4,1.1-.6s.9-.4,1.4-.5,1-.2,1.6-.2c.8,0,1.5.2,2,.5.5.3.9.8,1.2,1.5s.4,1.4.4,2.2v6.3h-1.4v-1.2h-.2c-.5.4-1,.8-1.6,1s-1.2.4-1.8.4h0ZM272.1,285.3c.5,0,1-.1,1.4-.3.4-.2.9-.5,1.4-1v-2.8c-1.1.1-2.1.3-2.7.5-.7.2-1.1.5-1.4.8s-.4.7-.4,1.2.2,1,.5,1.2.8.4,1.3.4h0Z"/>
        <path class="st0" d="M283.4,286.8c-1.3,0-2.3-.5-3.1-1.4-.8-.9-1.1-2.2-1.1-3.9s.2-2.1.6-2.9c.4-.8,1-1.4,1.6-1.9s1.4-.6,2.2-.6,1.1.1,1.5.3c.4.2.9.5,1.3.9v-1.8c0,0,0-3.9,0-3.9h1.8v15h-1.4v-1.2h-.2c-.4.4-.9.7-1.4,1s-1.1.4-1.7.4h0ZM283.7,285.3c.5,0,.9-.1,1.4-.4s.8-.6,1.3-1v-5.3c-.4-.4-.8-.7-1.2-.8-.4-.2-.8-.2-1.2-.2s-1,.2-1.5.5-.8.8-1.1,1.4-.4,1.3-.4,2c0,1.2.2,2.2.7,2.9s1.2,1,2.1,1h0Z"/>
        <path class="st0" d="M293.9,286.8c-.6,0-1.1-.1-1.5-.4s-.8-.6-1.1-1-.4-1-.4-1.6c0-1.1.5-2,1.5-2.6s2.6-1,4.8-1.2c0-.4,0-.8-.2-1.2-.1-.4-.3-.7-.6-1-.3-.2-.7-.4-1.3-.4s-1.1.1-1.7.3-1,.5-1.4.7l-.7-1.2c.3-.2.7-.4,1.1-.6s.9-.4,1.4-.5,1-.2,1.6-.2c.8,0,1.5.2,2,.5.5.3.9.8,1.2,1.5s.4,1.4.4,2.2v6.3h-1.4v-1.2h-.2c-.5.4-1,.8-1.6,1s-1.2.4-1.8.4h0ZM294.4,285.3c.5,0,1-.1,1.4-.3.4-.2.9-.5,1.4-1v-2.8c-1.1.1-2.1.3-2.7.5-.7.2-1.1.5-1.4.8s-.4.7-.4,1.2.2,1,.5,1.2.8.4,1.3.4h0Z"/>
      </g>
      <rect class="st2" x="8.1" y="275.3" width="53.5" height="13.5" rx="4.8" ry="4.8"/>
    </g>
    <g>
      <g>
        <path class="st0" d="M74.8,320.3c0-1.3.2-2.4.3-3.5s.4-2,.7-3,.7-1.8,1.2-2.7,1.1-1.8,1.8-2.7h-6.7v-1.5h8.7v1.1c-.8,1-1.5,2-2,2.9s-.9,1.9-1.2,2.8-.5,2-.7,3c-.1,1.1-.2,2.3-.3,3.6h-1.8Z"/>
        <path class="st0" d="M86.9,320.5c-1.3,0-2.4-.6-3.2-1.8-.8-1.2-1.2-2.9-1.2-5.2s.4-4,1.2-5.1c.8-1.2,1.8-1.8,3.2-1.8s2.4.6,3.2,1.8c.8,1.2,1.2,2.9,1.2,5.1s-.4,4-1.2,5.2c-.8,1.2-1.8,1.8-3.2,1.8h0ZM86.9,319.2c.5,0,1-.2,1.4-.6s.7-1,.9-1.8.3-1.9.3-3.2-.1-2.4-.3-3.2-.5-1.4-.9-1.8c-.4-.4-.8-.6-1.4-.6s-1,.2-1.4.6-.7,1-.9,1.8-.3,1.9-.3,3.2.1,2.4.3,3.2c.2.8.5,1.4.9,1.8s.9.6,1.4.6Z"/>
        <path class="st0" d="M96,314.9c-.6,0-1.2-.2-1.7-.5s-.8-.8-1.1-1.5c-.3-.6-.4-1.4-.4-2.4,0-1.4.3-2.5.9-3.2.6-.8,1.3-1.1,2.3-1.1s1.7.4,2.3,1.1c.6.8.9,1.8.9,3.2s-.1,1.7-.4,2.4-.6,1.1-1.1,1.5c-.5.3-1,.5-1.7.5ZM96,313.9c.6,0,1-.3,1.3-.8s.5-1.4.5-2.5-.2-1.9-.5-2.5-.8-.8-1.3-.8-1,.3-1.3.8-.5,1.4-.5,2.5.2,1.9.5,2.5.8.8,1.3.8ZM96.4,320.5l7.6-14.3h1.2l-7.6,14.3h-1.2ZM105.7,320.5c-.6,0-1.2-.2-1.7-.5-.5-.3-.8-.8-1.1-1.5s-.4-1.4-.4-2.4c0-1.4.3-2.5.9-3.2.6-.8,1.3-1.1,2.3-1.1s1.7.4,2.3,1.1c.6.8.9,1.8.9,3.2s-.1,1.7-.4,2.4c-.3.6-.6,1.1-1.1,1.5-.5.3-1,.5-1.7.5ZM105.7,319.5c.6,0,1-.3,1.3-.8.3-.5.5-1.4.5-2.5s-.2-1.9-.5-2.5c-.3-.5-.8-.8-1.3-.8s-1,.3-1.3.8c-.3.5-.5,1.4-.5,2.5s.2,1.9.5,2.5.8.8,1.3.8Z"/>
        <path class="st0" d="M115.4,320.3v-10.2h1.4l.2,1.5h0c.5-.5,1-.9,1.6-1.2.6-.3,1.2-.5,1.9-.5,1.1,0,1.9.3,2.4,1s.8,1.7.8,3v6.5h-1.7v-6.2c0-1-.2-1.7-.4-2.1-.3-.4-.8-.6-1.5-.6s-1,.1-1.4.4-.9.7-1.4,1.2v7.4h-1.7Z"/>
        <path class="st0" d="M129.3,320.5c-.6,0-1.1-.1-1.5-.4-.5-.2-.8-.6-1.1-1s-.4-1-.4-1.6c0-1.1.5-2,1.5-2.6,1-.6,2.6-1,4.8-1.2,0-.4,0-.8-.2-1.2s-.3-.7-.6-1c-.3-.2-.7-.4-1.3-.4s-1.1.1-1.7.3-1,.5-1.4.7l-.7-1.2c.3-.2.7-.4,1.1-.6s.9-.4,1.4-.5c.5-.1,1-.2,1.6-.2.8,0,1.5.2,2,.5.5.3.9.8,1.2,1.5s.4,1.4.4,2.2v6.3h-1.4v-1.2h-.2c-.5.4-1,.8-1.6,1s-1.2.4-1.8.4h0ZM132.4,308.1c-.4,0-.7,0-1-.3-.3-.2-.5-.4-.8-.6-.2-.2-.4-.4-.6-.6-.2-.2-.4-.3-.7-.3s-.5.1-.7.5-.2.7-.3,1.2h-1.2c0-.6,0-1.1.2-1.5s.4-.8.7-1c.3-.2.7-.4,1.2-.4s.7,0,1,.3c.3.2.5.4.7.6.2.2.4.5.6.6.2.2.4.3.7.3s.5-.1.7-.5c.1-.3.2-.7.3-1.2h1.2c0,.6-.1,1.1-.2,1.5s-.4.8-.7,1c-.3.2-.7.4-1.2.4h0ZM129.8,319.1c.5,0,1-.1,1.4-.3.4-.2.9-.5,1.4-1v-2.8c-1.1.1-2.1.3-2.7.5-.7.2-1.1.5-1.4.8-.3.3-.4.7-.4,1.2s.2,1,.5,1.2.8.4,1.3.4h0Z"/>
        <path class="st0" d="M141.5,320.5c-.8,0-1.6-.2-2.3-.6s-1.3-1-1.8-1.8c-.4-.8-.7-1.8-.7-2.9s.2-2.1.7-2.9c.4-.8,1-1.4,1.8-1.8.7-.4,1.5-.6,2.3-.6s1.6.2,2.3.6c.7.4,1.3,1,1.7,1.8.4.8.7,1.8.7,2.9s-.2,2.1-.7,2.9c-.4.8-1,1.4-1.7,1.8-.7.4-1.5.6-2.3.6ZM141.5,319.1c.6,0,1.1-.2,1.6-.5s.8-.8,1-1.4.4-1.3.4-2-.1-1.5-.4-2.1c-.2-.6-.6-1.1-1-1.4-.4-.3-1-.5-1.6-.5s-1.1.2-1.6.5c-.4.3-.8.8-1,1.4s-.4,1.3-.4,2.1.1,1.5.4,2,.6,1,1,1.4c.4.3,1,.5,1.6.5Z"/>
        <path class="st0" d="M156.4,320.5c-1.1,0-1.8-.3-2.3-1-.4-.6-.6-1.5-.6-2.5v-5.6h-1.5v-1.3h1.6c0-.1.2-3.4.2-3.4h1.4v3.3h2.8v1.4h-2.8v5.6c0,.6.1,1.1.4,1.5.2.4.6.5,1.2.5s.4,0,.6,0,.4-.1.6-.2l.4,1.2c-.3.1-.6.2-.9.3-.3,0-.7.1-1,.1h0Z"/>
        <path class="st0" d="M164.1,320.5c-.9,0-1.7-.2-2.5-.6-.8-.4-1.3-1-1.8-1.8-.4-.8-.6-1.8-.6-2.9s.2-2.1.7-2.9,1-1.4,1.7-1.9,1.4-.6,2.2-.6,1.6.2,2.2.6,1.1,1,1.4,1.7c.3.7.5,1.6.5,2.5v.5c0,.2,0,.3,0,.5h-7.4v-1.4h5.9c0-1-.2-1.7-.6-2.3-.4-.5-1-.8-1.8-.8s-.9.1-1.4.4-.8.7-1.1,1.2c-.3.6-.4,1.3-.4,2.3s.1,1.6.4,2.2.7,1,1.2,1.3c.5.3,1.1.5,1.7.5s.9,0,1.4-.2c.4-.1.8-.3,1.2-.6l.6,1.1c-.4.3-.9.6-1.5.8s-1.2.3-1.9.3h0ZM160.2,308.3l2.9-3.5h1.5l2.9,3.5h-1.4l-2.2-2.2h0l-2.2,2.2h-1.4,0Z"/>
        <path class="st0" d="M170.4,320.3v-10.2h1.4v1.5h.2c.4-.5.9-.9,1.5-1.2.5-.3,1.1-.5,1.7-.5s1.4.2,1.8.5.8.8,1,1.4c.5-.6,1.1-1.1,1.6-1.4.6-.4,1.1-.5,1.8-.5,1.1,0,1.9.3,2.4,1s.8,1.7.8,3v6.5h-1.7v-6.2c0-1-.1-1.7-.5-2.1s-.8-.6-1.4-.6-.8.1-1.2.4c-.4.3-.9.7-1.3,1.2v7.4h-1.7v-6.2c0-1-.1-1.7-.5-2.1s-.8-.6-1.4-.6-1.6.5-2.6,1.6v7.4h-1.7,0Z"/>
        <path class="st0" d="M196.1,320.5c-.9,0-1.7-.2-2.5-.6-.7-.4-1.3-1-1.7-1.8s-.6-1.8-.6-2.9.2-2.1.7-2.9c.5-.8,1.1-1.4,1.8-1.8.8-.4,1.6-.6,2.4-.6s1.2.1,1.7.3.9.5,1.2.9l-.9,1.1c-.2-.2-.6-.5-.9-.6s-.7-.2-1.2-.2-1.1.2-1.6.5c-.5.3-.9.8-1.1,1.4s-.4,1.3-.4,2.1.1,1.5.4,2c.3.6.6,1,1.1,1.4.5.3,1,.5,1.7.5s.9,0,1.3-.3.8-.4,1.1-.7l.8,1c-.4.4-.9.7-1.5,1-.6.2-1.1.4-1.8.4h0Z"/>
        <path class="st0" d="M203.8,320.5c-.6,0-1.1-.1-1.5-.4-.5-.2-.8-.6-1.1-1s-.4-1-.4-1.6c0-1.1.5-2,1.5-2.6s2.6-1,4.8-1.2c0-.4,0-.8-.2-1.2s-.3-.7-.6-1c-.3-.2-.7-.4-1.3-.4s-1.1.1-1.7.3-1,.5-1.4.7l-.7-1.2c.3-.2.7-.4,1.1-.6s.9-.4,1.4-.5c.5-.1,1-.2,1.6-.2.8,0,1.5.2,2,.5.5.3.9.8,1.2,1.5s.4,1.4.4,2.2v6.3h-1.4v-1.2h-.2c-.5.4-1,.8-1.6,1s-1.2.4-1.8.4h0ZM204.3,319.1c.5,0,1-.1,1.4-.3.4-.2.9-.5,1.4-1v-2.8c-1.1.1-2.1.3-2.7.5-.7.2-1.1.5-1.4.8-.3.3-.4.7-.4,1.2s.2,1,.5,1.2.8.4,1.3.4h0Z"/>
        <path class="st0" d="M212,320.3v-10.2h1.4v1.9h.2c.3-.6.8-1.2,1.3-1.5s1.1-.6,1.6-.6.4,0,.6,0,.3,0,.5.2l-.4,1.5c-.1,0-.3,0-.4,0-.1,0-.3,0-.5,0-.4,0-.9.2-1.4.5s-.9,1-1.2,1.8v6.6h-1.7,0Z"/>
        <path class="st0" d="M222.6,320.5c-1.1,0-1.8-.3-2.3-1-.4-.6-.6-1.5-.6-2.5v-5.6h-1.5v-1.3h1.6c0-.1.2-3.4.2-3.4h1.4v3.3h2.8v1.4h-2.8v5.6c0,.6.1,1.1.4,1.5.2.4.6.5,1.2.5s.4,0,.6,0,.4-.1.6-.2l.4,1.2c-.3.1-.6.2-.9.3-.3,0-.7.1-1,.1h0Z"/>
        <path class="st0" d="M230.3,320.5c-.9,0-1.7-.2-2.5-.6-.8-.4-1.3-1-1.8-1.8-.4-.8-.6-1.8-.6-2.9s.2-2.1.7-2.9,1-1.4,1.7-1.9,1.4-.6,2.2-.6,1.6.2,2.2.6,1.1,1,1.4,1.7c.3.7.5,1.6.5,2.5v.5c0,.2,0,.3,0,.5h-7.4v-1.4h5.9c0-1-.2-1.7-.6-2.3-.4-.5-1-.8-1.8-.8s-.9.1-1.4.4-.8.7-1.1,1.2c-.3.6-.4,1.3-.4,2.3s.1,1.6.4,2.2.7,1,1.2,1.3c.5.3,1.1.5,1.7.5s.9,0,1.4-.2c.4-.1.8-.3,1.2-.6l.6,1.1c-.4.3-.9.6-1.5.8s-1.2.3-1.9.3h0Z"/>
        <path class="st0" d="M237.4,308c-.3,0-.6-.1-.8-.3-.2-.2-.3-.5-.3-.8s.1-.6.3-.8c.2-.2.5-.3.8-.3s.6.1.8.3c.2.2.3.5.3.8s-.1.6-.3.8c-.2.2-.5.3-.8.3ZM236.6,320.3v-10.2h1.7v10.2h-1.7Z"/>
        <path class="st0" d="M241.8,320.3v-10.2h1.4v1.9h.2c.3-.6.8-1.2,1.3-1.5s1.1-.6,1.6-.6.4,0,.6,0,.3,0,.5.2l-.4,1.5c-.1,0-.3,0-.4,0-.1,0-.3,0-.5,0-.4,0-.9.2-1.4.5s-.9,1-1.2,1.8v6.6h-1.7,0Z"/>
        <path class="st0" d="M250.9,320.5c-.6,0-1.1-.1-1.5-.4-.5-.2-.8-.6-1.1-1s-.4-1-.4-1.6c0-1.1.5-2,1.5-2.6s2.6-1,4.8-1.2c0-.4,0-.8-.2-1.2s-.3-.7-.6-1c-.3-.2-.7-.4-1.3-.4s-1.1.1-1.7.3-1,.5-1.4.7l-.7-1.2c.3-.2.7-.4,1.1-.6s.9-.4,1.4-.5c.5-.1,1-.2,1.6-.2.8,0,1.5.2,2,.5.5.3.9.8,1.2,1.5s.4,1.4.4,2.2v6.3h-1.4v-1.2h-.2c-.5.4-1,.8-1.6,1s-1.2.4-1.8.4h0ZM251.4,319.1c.5,0,1-.1,1.4-.3.4-.2.9-.5,1.4-1v-2.8c-1.1.1-2.1.3-2.7.5-.7.2-1.1.5-1.4.8-.3.3-.4.7-.4,1.2s.2,1,.5,1.2.8.4,1.3.4h0Z"/>
        <path class="st0" d="M265.7,320.5c-.6,0-1.1-.1-1.5-.4s-.8-.6-1.1-1-.4-1-.4-1.6c0-1.1.5-2,1.5-2.6s2.6-1,4.8-1.2c0-.4,0-.8-.2-1.2-.1-.4-.3-.7-.6-1-.3-.2-.7-.4-1.3-.4s-1.1.1-1.7.3-1,.5-1.4.7l-.7-1.2c.3-.2.7-.4,1.1-.6s.9-.4,1.4-.5,1-.2,1.6-.2c.8,0,1.5.2,2,.5.5.3.9.8,1.2,1.5s.4,1.4.4,2.2v6.3h-1.4v-1.2h-.2c-.5.4-1,.8-1.6,1s-1.2.4-1.8.4h0ZM266.2,319.1c.5,0,1-.1,1.4-.3.4-.2.9-.5,1.4-1v-2.8c-1.1.1-2.1.3-2.7.5-.7.2-1.1.5-1.4.8s-.4.7-.4,1.2.2,1,.5,1.2.8.4,1.3.4h0Z"/>
        <path class="st0" d="M276.6,320.5c-.7,0-1.5-.1-2.1-.4s-1.2-.6-1.7-1.1l.8-1c.5.4.9.6,1.4.8.5.2,1,.3,1.7.3s1.2-.2,1.5-.5.5-.7.5-1.1-.1-.6-.4-.9c-.2-.2-.5-.4-.9-.6s-.7-.3-1.1-.5c-.5-.2-1-.4-1.5-.6-.5-.2-.8-.5-1.1-.9-.3-.4-.4-.8-.4-1.4,0-.8.3-1.5.9-2.1s1.5-.8,2.6-.8,1.2.1,1.8.3,1,.5,1.4.8l-.8,1c-.4-.2-.7-.5-1.1-.6-.4-.1-.8-.2-1.3-.2s-1.1.1-1.4.4c-.3.3-.5.6-.5,1s0,.6.3.8c.2.2.4.4.8.5.3.1.7.3,1.1.4.5.2,1,.4,1.5.7.5.2.9.6,1.2,1s.5.9.5,1.5-.1,1.1-.4,1.5-.7.8-1.3,1.1c-.5.3-1.2.4-2,.4h0Z"/>
        <path class="st0" d="M285.5,320.5c-.7,0-1.5-.1-2.1-.4s-1.2-.6-1.7-1.1l.8-1c.5.4.9.6,1.4.8.5.2,1,.3,1.7.3s1.2-.2,1.5-.5.5-.7.5-1.1-.1-.6-.4-.9c-.2-.2-.5-.4-.9-.6s-.7-.3-1.1-.5c-.5-.2-1-.4-1.5-.6-.5-.2-.8-.5-1.1-.9-.3-.4-.4-.8-.4-1.4,0-.8.3-1.5.9-2.1s1.5-.8,2.6-.8,1.2.1,1.8.3,1,.5,1.4.8l-.8,1c-.4-.2-.7-.5-1.1-.6-.4-.1-.8-.2-1.3-.2s-1.1.1-1.4.4c-.3.3-.5.6-.5,1s0,.6.3.8c.2.2.4.4.8.5.3.1.7.3,1.1.4.5.2,1,.4,1.5.7.5.2.9.6,1.2,1s.5.9.5,1.5-.1,1.1-.4,1.5-.7.8-1.3,1.1c-.5.3-1.2.4-2,.4h0Z"/>
        <path class="st0" d="M292.5,308c-.3,0-.6-.1-.8-.3-.2-.2-.3-.5-.3-.8s.1-.6.3-.8c.2-.2.5-.3.8-.3s.6.1.8.3c.2.2.3.5.3.8s-.1.6-.3.8c-.2.2-.5.3-.8.3ZM291.6,320.3v-10.2h1.7v10.2h-1.7Z"/>
        <path class="st0" d="M296.8,320.3v-10.2h1.4v1.5h.2c.5-.5,1-.9,1.6-1.2.5-.3,1.2-.5,1.9-.5,1.1,0,1.9.3,2.4,1s.8,1.7.8,3v6.5h-1.7v-6.2c0-1-.1-1.7-.5-2.1-.3-.4-.8-.6-1.5-.6s-1,.1-1.4.4-.9.7-1.4,1.2v7.4h-1.7Z"/>
        <path class="st0" d="M310.6,320.5c-.6,0-1.1-.1-1.5-.4s-.8-.6-1.1-1-.4-1-.4-1.6c0-1.1.5-2,1.5-2.6s2.6-1,4.8-1.2c0-.4,0-.8-.2-1.2-.1-.4-.3-.7-.6-1-.3-.2-.7-.4-1.3-.4s-1.1.1-1.7.3-1,.5-1.4.7l-.7-1.2c.3-.2.7-.4,1.1-.6s.9-.4,1.4-.5,1-.2,1.6-.2c.8,0,1.5.2,2,.5.5.3.9.8,1.2,1.5s.4,1.4.4,2.2v6.3h-1.4v-1.2h-.2c-.5.4-1,.8-1.6,1s-1.2.4-1.8.4h0ZM311.1,319.1c.5,0,1-.1,1.4-.3.4-.2.9-.5,1.4-1v-2.8c-1.1.1-2.1.3-2.7.5-.7.2-1.1.5-1.4.8s-.4.7-.4,1.2.2,1,.5,1.2.8.4,1.3.4h0Z"/>
        <path class="st0" d="M322.4,320.5c-1.3,0-2.3-.5-3.1-1.4-.8-.9-1.1-2.2-1.1-3.9s.2-2.1.6-2.9c.4-.8,1-1.4,1.6-1.9s1.4-.6,2.2-.6,1.1.1,1.5.3c.4.2.9.5,1.3.9v-1.8c0,0,0-3.9,0-3.9h1.8v15h-1.4v-1.2h-.2c-.4.4-.9.7-1.4,1s-1.1.4-1.7.4h0ZM322.8,319.1c.5,0,.9-.1,1.4-.4s.8-.6,1.3-1v-5.3c-.4-.4-.8-.7-1.2-.8-.4-.2-.8-.2-1.2-.2s-1,.2-1.5.5-.8.8-1.1,1.4-.4,1.3-.4,2c0,1.2.2,2.2.7,2.9s1.2,1,2.1,1h0Z"/>
        <path class="st0" d="M332.9,320.5c-.6,0-1.1-.1-1.5-.4s-.8-.6-1.1-1-.4-1-.4-1.6c0-1.1.5-2,1.5-2.6s2.6-1,4.8-1.2c0-.4,0-.8-.2-1.2-.1-.4-.3-.7-.6-1-.3-.2-.7-.4-1.3-.4s-1.1.1-1.7.3-1,.5-1.4.7l-.7-1.2c.3-.2.7-.4,1.1-.6s.9-.4,1.4-.5,1-.2,1.6-.2c.8,0,1.5.2,2,.5.5.3.9.8,1.2,1.5s.4,1.4.4,2.2v6.3h-1.4v-1.2h-.2c-.5.4-1,.8-1.6,1s-1.2.4-1.8.4h0ZM333.4,319.1c.5,0,1-.1,1.4-.3.4-.2.9-.5,1.4-1v-2.8c-1.1.1-2.1.3-2.7.5-.7.2-1.1.5-1.4.8s-.4.7-.4,1.2.2,1,.5,1.2.8.4,1.3.4h0Z"/>
      </g>
      <rect class="st1" x="9.4" y="309" width="53.5" height="13.5" rx="4.8" ry="4.8"/>
    </g>
  </g>
  <g>
    <circle class="st2" cx="58.6" cy="92.6" r="6.9"/>
    <g>
      <g>
        <path class="st2" d="M87.7,90.5c0-.5,0-.9,0-1.4,0-1.9-1.5-3.4-3.4-3.4s-3.4,1.5-3.4,3.4,0,1,0,1.4h6.9Z"/>
        <path class="st2" d="M72.8,101.6c-3.3.9-9.9.4-9.9.4h-.1c0-.1-8.3,0-8.3,0-7.9,0-14.3,6.4-14.3,14.3v14.7c0,1.9,1.5,3.4,3.4,3.4s3.4-1.5,3.4-3.4v-14.7c0-2.3,1-4.4,2.7-5.7v49.8c0,1.9,1.5,3.5,3.3,3.6,1.9,0,3.6-1.5,3.6-3.4v-26.6c0-1.1.9-2,2-2s2,.9,2,2v26.4c0,1.9,1.5,3.5,3.3,3.6,1.9,0,3.6-1.5,3.6-3.4v-51.4c.3,0,.6,0,.9,0,1.3,0,2.8,0,4.5-.4v-7Z"/>
      </g>
      <path class="st2" d="M94,114.2h-22.3v-24.7h22.3v24.7ZM73.8,112.2h18.2v-20.7h-18.2v20.7Z"/>
    </g>
    <circle class="st2" cx="84.1" cy="89.2" r="3.9"/>
  </g>
  <g>
    <circle class="st2" cx="115.4" cy="92.6" r="6.9"/>
    <g>
      <g>
        <path class="st2" d="M144.5,90.5c0-.5,0-.9,0-1.4,0-1.9-1.5-3.4-3.4-3.4s-3.4,1.5-3.4,3.4,0,1,0,1.4h6.9Z"/>
        <path class="st2" d="M129.5,101.6c-3.3.9-9.9.4-9.9.4h-.1c0-.1-8.3,0-8.3,0-7.9,0-14.3,6.4-14.3,14.3v14.7c0,1.9,1.5,3.4,3.4,3.4s3.4-1.5,3.4-3.4v-14.7c0-2.3,1-4.4,2.7-5.7v49.8c0,1.9,1.5,3.5,3.3,3.6,1.9,0,3.6-1.5,3.6-3.4v-26.6c0-1.1.9-2,2-2s2,.9,2,2v26.4c0,1.9,1.5,3.5,3.3,3.6,1.9,0,3.6-1.5,3.6-3.4v-51.4c.3,0,.6,0,.9,0,1.3,0,2.8,0,4.5-.4v-7Z"/>
      </g>
      <path class="st2" d="M150.8,114.2h-22.3v-24.7h22.3v24.7ZM130.6,112.2h18.2v-20.7h-18.2v20.7Z"/>
    </g>
    <circle class="st2" cx="140.9" cy="89.2" r="3.9"/>
  </g>
  <g>
    <circle class="st2" cx="172.2" cy="92.6" r="6.9"/>
    <g>
      <g>
        <path class="st2" d="M201.3,90.5c0-.5,0-.9,0-1.4,0-1.9-1.5-3.4-3.4-3.4s-3.4,1.5-3.4,3.4,0,1,0,1.4h6.9Z"/>
        <path class="st2" d="M186.3,101.6c-3.3.9-9.9.4-9.9.4h-.1c0-.1-8.3,0-8.3,0-7.9,0-14.3,6.4-14.3,14.3v14.7c0,1.9,1.5,3.4,3.4,3.4s3.4-1.5,3.4-3.4v-14.7c0-2.3,1-4.4,2.7-5.7v49.8c0,1.9,1.5,3.5,3.3,3.6,1.9,0,3.6-1.5,3.6-3.4v-26.6c0-1.1.9-2,2-2s2,.9,2,2v26.4c0,1.9,1.5,3.5,3.3,3.6,1.9,0,3.6-1.5,3.6-3.4v-51.4c.3,0,.6,0,.9,0,1.3,0,2.8,0,4.5-.4v-7Z"/>
      </g>
      <path class="st2" d="M207.6,114.2h-22.3v-24.7h22.3v24.7ZM187.3,112.2h18.2v-20.7h-18.2v20.7Z"/>
    </g>
    <circle class="st2" cx="197.7" cy="89.2" r="3.9"/>
  </g>
  <g>
    <path class="st1" d="M233.9,102.2h-8.3c-7.9,0-14.4,6.4-14.4,14.4v14.8c0,1.9,1.5,3.5,3.5,3.5s3.5-1.5,3.5-3.5v-14.8c0-2.3,1.1-4.4,2.7-5.7v50c0,1.9,1.5,3.5,3.3,3.6,2,0,3.6-1.5,3.6-3.5v-26.6c0-1.1.9-2,2-2s2,.9,2,2v26.5c0,1.9,1.5,3.5,3.3,3.6,2,0,3.6-1.5,3.6-3.5v-50.1c1.7,1.4,2.7,3.4,2.7,5.7v13.8c0,1.9,1.5,3.5,3.5,3.5s3.5-1.5,3.5-3.5v-13.8c0-7.9-6.4-14.4-14.4-14.4h0Z"/>
    <circle class="st1" cx="229.7" cy="92.8" r="6.9"/>
  </g>
  <g>
    <path class="st1" d="M290.2,102.2h-8.3c-7.9,0-14.4,6.4-14.4,14.4v14.8c0,1.9,1.5,3.5,3.5,3.5s3.5-1.5,3.5-3.5v-14.8c0-2.3,1.1-4.4,2.7-5.7v50c0,1.9,1.5,3.5,3.3,3.6,2,0,3.6-1.5,3.6-3.5v-26.6c0-1.1.9-2,2-2s2,.9,2,2v26.5c0,1.9,1.5,3.5,3.3,3.6,2,0,3.6-1.5,3.6-3.5v-50.1c1.7,1.4,2.7,3.4,2.7,5.7v13.8c0,1.9,1.5,3.5,3.5,3.5s3.5-1.5,3.5-3.5v-13.8c0-7.9-6.4-14.4-14.4-14.4h0Z"/>
    <circle class="st1" cx="286" cy="92.8" r="6.9"/>
  </g>
  <g>
    <path class="st1" d="M233.4,189.9h-8.3c-7.9,0-14.4,6.4-14.4,14.4v14.8c0,1.9,1.5,3.5,3.5,3.5s3.5-1.5,3.5-3.5v-14.8c0-2.3,1.1-4.4,2.7-5.7v50c0,1.9,1.5,3.5,3.3,3.6,2,0,3.6-1.5,3.6-3.5v-26.6c0-1.1.9-2,2-2s2,.9,2,2v26.5c0,1.9,1.5,3.5,3.3,3.6,2,0,3.6-1.5,3.6-3.5v-50.1c1.7,1.4,2.7,3.4,2.7,5.7v13.8c0,1.9,1.5,3.5,3.5,3.5s3.5-1.5,3.5-3.5v-13.8c0-7.9-6.4-14.4-14.4-14.4h0Z"/>
    <circle class="st1" cx="229.3" cy="180.5" r="6.9"/>
  </g>
  <g>
    <path class="st1" d="M290.2,189.9h-8.3c-7.9,0-14.4,6.4-14.4,14.4v14.8c0,1.9,1.5,3.5,3.5,3.5s3.5-1.5,3.5-3.5v-14.8c0-2.3,1.1-4.4,2.7-5.7v50c0,1.9,1.5,3.5,3.3,3.6,2,0,3.6-1.5,3.6-3.5v-26.6c0-1.1.9-2,2-2s2,.9,2,2v26.5c0,1.9,1.5,3.5,3.3,3.6,2,0,3.6-1.5,3.6-3.5v-50.1c1.7,1.4,2.7,3.4,2.7,5.7v13.8c0,1.9,1.5,3.5,3.5,3.5s3.5-1.5,3.5-3.5v-13.8c0-7.9-6.4-14.4-14.4-14.4h0Z"/>
    <circle class="st1" cx="286" cy="180.5" r="6.9"/>
  </g>
  <g>
    <path class="st1" d="M119.8,189.9h-8.3c-7.9,0-14.4,6.4-14.4,14.4v14.8c0,1.9,1.5,3.5,3.5,3.5s3.5-1.5,3.5-3.5v-14.8c0-2.3,1.1-4.4,2.7-5.7v50c0,1.9,1.5,3.5,3.3,3.6,2,0,3.6-1.5,3.6-3.5v-26.6c0-1.1.9-2,2-2s2,.9,2,2v26.5c0,1.9,1.5,3.5,3.3,3.6,2,0,3.6-1.5,3.6-3.5v-50.1c1.7,1.4,2.7,3.4,2.7,5.7v13.8c0,1.9,1.5,3.5,3.5,3.5s3.5-1.5,3.5-3.5v-13.8c0-7.9-6.4-14.4-14.4-14.4h0Z"/>
    <circle class="st1" cx="115.7" cy="180.5" r="6.9"/>
  </g>
  <g>
    <path class="st1" d="M63.1,189.9h-8.3c-7.9,0-14.4,6.4-14.4,14.4v14.8c0,1.9,1.5,3.5,3.5,3.5s3.5-1.5,3.5-3.5v-14.8c0-2.3,1.1-4.4,2.7-5.7v50c0,1.9,1.5,3.5,3.3,3.6,2,0,3.6-1.5,3.6-3.5v-26.6c0-1.1.9-2,2-2s2,.9,2,2v26.5c0,1.9,1.5,3.5,3.3,3.6,2,0,3.6-1.5,3.6-3.5v-50.1c1.7,1.4,2.7,3.4,2.7,5.7v13.8c0,1.9,1.5,3.5,3.5,3.5s3.5-1.5,3.5-3.5v-13.8c0-7.9-6.4-14.4-14.4-14.4h0Z"/>
    <circle class="st1" cx="58.9" cy="180.5" r="6.9"/>
  </g>
  <g>
    <path class="st1" d="M176.6,189.9h-8.3c-7.9,0-14.4,6.4-14.4,14.4v14.8c0,1.9,1.5,3.5,3.5,3.5s3.5-1.5,3.5-3.5v-14.8c0-2.3,1.1-4.4,2.7-5.7v50c0,1.9,1.5,3.5,3.3,3.6,2,0,3.6-1.5,3.6-3.5v-26.6c0-1.1.9-2,2-2s2,.9,2,2v26.5c0,1.9,1.5,3.5,3.3,3.6,2,0,3.6-1.5,3.6-3.5v-50.1c1.7,1.4,2.7,3.4,2.7,5.7v13.8c0,1.9,1.5,3.5,3.5,3.5s3.5-1.5,3.5-3.5v-13.8c0-7.9-6.4-14.4-14.4-14.4h0Z"/>
    <circle class="st1" cx="172.5" cy="180.5" r="6.9"/>
  </g>
</svg>