<?xml version="1.0" encoding="UTF-8"?>
<svg id="Layer_1" xmlns="http://www.w3.org/2000/svg" version="1.1" viewBox="0 0 345 384">
  <!-- Generator: Adobe Illustrator 29.8.2, SVG Export Plug-In . SVG Version: 2.1.1 Build 3)  -->
  <defs>
    <style>
      .st0 {
        fill: #231f20;
      }

      .st1 {
        fill: #e65a23;
      }

      .st2 {
        fill: #7251a0;
      }
    </style>
  </defs>
  <g>
    <path class="st0" d="M44.1,37.86v-13.76h4.33c1.02,0,1.94.13,2.73.4.8.27,1.43.71,1.89,1.33s.69,1.46.69,2.52c0,1.01-.23,1.84-.68,2.5-.46.66-1.08,1.15-1.87,1.47-.79.32-1.69.48-2.68.48h-1.98v5.05h-2.44ZM46.54,30.85h1.79c1.02,0,1.78-.21,2.28-.63s.75-1.04.75-1.87c0-.87-.26-1.47-.79-1.8-.53-.33-1.3-.49-2.32-.49h-1.7v4.8Z"/>
    <path class="st0" d="M59.58,38.11c-.86,0-1.66-.21-2.4-.64-.74-.43-1.35-1.04-1.81-1.85s-.69-1.78-.69-2.91.23-2.13.69-2.93,1.07-1.42,1.81-1.85c.74-.43,1.54-.64,2.4-.64s1.68.21,2.42.64c.74.43,1.35,1.04,1.81,1.85.46.81.69,1.79.69,2.93s-.23,2.11-.69,2.91c-.46.81-1.07,1.42-1.81,1.85-.74.43-1.55.64-2.42.64ZM59.58,36.13c.5,0,.94-.14,1.3-.42s.65-.68.84-1.2.29-1.12.29-1.81-.1-1.29-.29-1.81c-.2-.52-.48-.92-.84-1.21s-.8-.43-1.3-.43-.94.14-1.29.43c-.36.29-.63.69-.83,1.21-.2.52-.29,1.12-.29,1.81s.1,1.29.29,1.81.47.92.83,1.2c.36.28.79.42,1.29.42Z"/>
    <path class="st0" d="M66.59,37.86v-10.33h2l.17,1.83h.08c.36-.67.8-1.19,1.31-1.55.51-.36,1.05-.54,1.61-.54.27,0,.49.01.67.04.18.03.35.08.5.17l-.48,2.06c-.17-.04-.32-.07-.46-.09-.14-.02-.32-.03-.55-.03-.41,0-.83.16-1.28.47-.45.32-.83.87-1.16,1.65v6.31h-2.42Z"/>
    <path class="st0" d="M78.27,38.11c-.95,0-1.81-.21-2.57-.64-.76-.43-1.36-1.04-1.8-1.85-.44-.81-.66-1.78-.66-2.91s.24-2.13.72-2.93c.48-.81,1.11-1.42,1.9-1.85.79-.43,1.64-.64,2.56-.64.66,0,1.24.11,1.74.33.5.22.93.49,1.29.83l-1.16,1.51c-.22-.21-.48-.38-.77-.5-.29-.13-.61-.19-.98-.19-.55,0-1.03.14-1.45.43-.42.29-.75.69-1,1.2s-.37,1.12-.37,1.82.12,1.29.36,1.8.56.91.98,1.2.89.43,1.44.43c.41,0,.79-.08,1.15-.23s.68-.35.96-.59l.99,1.49c-.43.39-.94.71-1.5.95-.57.24-1.17.36-1.82.36Z"/>
    <path class="st0" d="M87.25,38.11c-.97,0-1.84-.21-2.62-.64-.78-.43-1.39-1.04-1.84-1.85-.45-.81-.67-1.79-.67-2.93s.23-2.09.69-2.89,1.06-1.43,1.79-1.86c.73-.43,1.5-.65,2.31-.65.94,0,1.73.21,2.36.63.63.42,1.1,1,1.42,1.74s.47,1.58.47,2.54c0,.22-.01.44-.03.65-.02.21-.05.41-.09.61h-7.11v-1.85h5.09c0-.74-.17-1.33-.51-1.76-.34-.43-.86-.64-1.56-.64-.39,0-.77.1-1.15.32-.37.21-.68.57-.93,1.07-.25.5-.37,1.21-.37,2.1,0,.81.14,1.48.42,1.99.28.51.65.89,1.12,1.14s.96.37,1.49.37c.45,0,.87-.06,1.27-.19.4-.13.77-.3,1.12-.53l.84,1.56c-.48.34-1.02.6-1.63.8-.61.2-1.25.29-1.9.29Z"/>
    <path class="st0" d="M93.16,37.86v-10.33h2l.17,1.39h.08c.46-.45.97-.83,1.51-1.16s1.17-.48,1.87-.48c1.11,0,1.91.36,2.42,1.07s.76,1.72.76,3.03v6.48h-2.42v-6.16c0-.86-.13-1.46-.38-1.81-.25-.35-.67-.53-1.24-.53-.45,0-.85.11-1.19.33-.34.22-.73.54-1.17.96v7.22h-2.42Z"/>
    <path class="st0" d="M108.26,38.07c-1.19,0-2.04-.35-2.53-1.04-.5-.69-.75-1.59-.75-2.7v-4.88h-1.47v-1.81l1.6-.11.29-3.24h2.02v3.24h2.63v1.91h-2.63v4.88c0,.6.12,1.06.36,1.36.24.3.6.45,1.09.45.18,0,.36-.01.55-.04.18-.03.36-.08.53-.17l.44,1.7c-.27.13-.58.23-.95.32-.37.08-.76.13-1.18.13Z"/>
    <path class="st0" d="M113.97,38.11c-.6,0-1.14-.13-1.6-.38-.46-.25-.82-.61-1.08-1.06-.26-.46-.39-.99-.39-1.59,0-1.16.49-2.04,1.46-2.64s2.52-1.01,4.64-1.23c-.01-.35-.08-.67-.2-.97-.12-.29-.32-.53-.59-.71-.27-.17-.64-.26-1.1-.26-.5,0-1,.09-1.48.27-.48.18-.96.41-1.42.69l-.88-1.64c.38-.24.79-.46,1.24-.66.45-.2.93-.36,1.43-.48.5-.12,1.03-.18,1.58-.18.86,0,1.57.17,2.14.52.57.34,1,.85,1.28,1.51.29.67.43,1.48.43,2.45v6.1h-2l-.17-1.14h-.08c-.48.39-.97.72-1.49.99-.52.27-1.09.4-1.7.4ZM114.72,36.13c.42,0,.81-.09,1.17-.26.36-.17.73-.44,1.1-.79v-2.19c-.94.11-1.68.26-2.23.44-.55.18-.94.4-1.17.66s-.35.56-.35.92c0,.43.14.75.42.94.28.19.63.28,1.05.28Z"/>
    <path class="st0" d="M125.6,42.42c-.83,0-1.56-.1-2.21-.29-.64-.2-1.15-.49-1.52-.89-.37-.4-.56-.9-.56-1.5,0-.43.13-.84.39-1.21.26-.37.62-.71,1.08-1v-.08c-.25-.17-.47-.39-.65-.67-.18-.28-.27-.63-.27-1.05,0-.39.12-.76.35-1.09.23-.34.49-.61.79-.82v-.08c-.35-.27-.66-.64-.94-1.12-.27-.48-.41-1.02-.41-1.62,0-.79.19-1.46.57-2.01.38-.55.88-.97,1.49-1.26s1.29-.43,2.02-.43c.28,0,.55.02.82.06.27.04.5.11.69.19h3.7v1.79h-1.94v.08c.2.21.35.45.46.73s.17.59.17.96c0,.76-.17,1.4-.53,1.92s-.82.91-1.41,1.18c-.59.27-1.25.4-1.98.4-.22,0-.46-.02-.69-.06-.24-.04-.48-.11-.72-.21-.14.14-.26.28-.36.42-.1.14-.15.33-.15.57,0,.29.13.53.38.69.25.17.69.25,1.3.25h1.83c1.25,0,2.19.2,2.83.6.64.4.96,1.05.96,1.95,0,.67-.22,1.29-.67,1.84-.45.55-1.09.99-1.91,1.31-.83.32-1.8.48-2.92.48ZM125.98,40.84c.55,0,1.03-.07,1.45-.22.42-.15.75-.35.99-.61s.36-.54.36-.83c0-.41-.16-.68-.47-.82-.32-.14-.77-.21-1.36-.21h-1.41c-.28,0-.53-.01-.76-.04-.22-.03-.44-.06-.65-.11-.27.21-.47.43-.6.65-.13.22-.2.46-.2.71,0,.46.24.82.71,1.08.48.26,1.12.39,1.94.39ZM125.73,33.06c.32,0,.62-.08.89-.24s.49-.4.65-.72.24-.69.24-1.12c0-.66-.17-1.16-.52-1.51s-.77-.53-1.27-.53-.93.18-1.28.53-.53.86-.53,1.51c0,.43.08.81.25,1.12.17.32.39.55.65.72s.57.24.91.24Z"/>
    <path class="st0" d="M136.73,38.11c-.97,0-1.84-.21-2.62-.64-.78-.43-1.39-1.04-1.84-1.85-.45-.81-.67-1.79-.67-2.93s.23-2.09.69-2.89,1.06-1.43,1.79-1.86c.73-.43,1.5-.65,2.31-.65.94,0,1.73.21,2.36.63.63.42,1.1,1,1.42,1.74s.47,1.58.47,2.54c0,.22-.01.44-.03.65-.02.21-.05.41-.09.61h-7.11v-1.85h5.09c0-.74-.17-1.33-.51-1.76-.34-.43-.86-.64-1.56-.64-.39,0-.77.1-1.15.32-.37.21-.68.57-.93,1.07-.25.5-.37,1.21-.37,2.1,0,.81.14,1.48.42,1.99.28.51.65.89,1.12,1.14s.96.37,1.49.37c.45,0,.87-.06,1.27-.19.4-.13.77-.3,1.12-.53l.84,1.56c-.48.34-1.02.6-1.63.8-.61.2-1.25.29-1.9.29Z"/>
    <path class="st0" d="M142.64,37.86v-10.33h2l.17,1.41h.08c.43-.46.91-.86,1.42-1.18.51-.32,1.09-.48,1.74-.48.77,0,1.38.16,1.83.48s.79.78,1.03,1.37c.49-.53,1-.97,1.54-1.33s1.13-.53,1.79-.53c1.09,0,1.9.36,2.42,1.07.52.71.78,1.72.78,3.03v6.48h-2.44v-6.16c0-.86-.13-1.46-.38-1.81-.25-.35-.65-.53-1.2-.53-.34,0-.68.11-1.03.32-.35.21-.73.53-1.14.97v7.22h-2.42v-6.16c0-.86-.13-1.46-.39-1.81-.26-.35-.66-.53-1.21-.53-.65,0-1.37.43-2.17,1.28v7.22h-2.42Z"/>
    <path class="st0" d="M167.57,38.11c-1.29,0-2.32-.48-3.09-1.43-.77-.95-1.16-2.28-1.16-3.98,0-1.12.21-2.09.62-2.9.41-.81.95-1.44,1.62-1.87.67-.43,1.38-.65,2.13-.65.59,0,1.09.1,1.5.29.41.2.82.48,1.21.84l-.08-1.66v-3.75h2.42v14.85h-2l-.17-1.12h-.08c-.38.38-.82.7-1.33.97-.5.27-1.04.4-1.6.4ZM168.16,36.11c.41,0,.79-.09,1.14-.28s.69-.48,1.03-.87v-4.82c-.35-.32-.7-.55-1.05-.67-.35-.13-.7-.19-1.05-.19-.45,0-.85.13-1.21.4s-.65.65-.86,1.16c-.22.5-.33,1.12-.33,1.85,0,1.11.2,1.96.61,2.54.41.59.98.88,1.72.88Z"/>
    <path class="st0" d="M178,38.11c-.6,0-1.14-.13-1.6-.38-.46-.25-.82-.61-1.08-1.06-.26-.46-.39-.99-.39-1.59,0-1.16.49-2.04,1.46-2.64s2.52-1.01,4.64-1.23c-.01-.35-.08-.67-.2-.97-.12-.29-.32-.53-.59-.71-.27-.17-.64-.26-1.1-.26-.5,0-1,.09-1.48.27-.48.18-.96.41-1.42.69l-.88-1.64c.38-.24.79-.46,1.24-.66.45-.2.93-.36,1.43-.48.5-.12,1.03-.18,1.58-.18.86,0,1.57.17,2.14.52.57.34,1,.85,1.28,1.51.29.67.43,1.48.43,2.45v6.1h-2l-.17-1.14h-.08c-.48.39-.97.72-1.49.99-.52.27-1.09.4-1.7.4ZM178.76,36.13c.42,0,.81-.09,1.17-.26.36-.17.73-.44,1.1-.79v-2.19c-.94.11-1.68.26-2.23.44-.55.18-.94.4-1.17.66s-.35.56-.35.92c0,.43.14.75.42.94.28.19.63.28,1.05.28Z"/>
    <path class="st0" d="M188.92,38.11c-.72,0-1.42-.13-2.11-.4-.69-.27-1.29-.64-1.8-1.12l1.07-1.39c.46.38.93.65,1.41.82.48.17.98.25,1.51.25.56,0,.97-.12,1.24-.36s.4-.53.4-.88c0-.28-.1-.52-.3-.71s-.47-.36-.79-.5c-.32-.14-.68-.28-1.07-.42-.5-.18-.97-.4-1.41-.66-.43-.26-.79-.58-1.06-.97s-.41-.85-.41-1.4c0-.91.34-1.65,1.01-2.23.67-.58,1.58-.86,2.74-.86.7,0,1.35.12,1.94.35.59.23,1.09.53,1.51.89l-1.07,1.37c-.37-.27-.74-.46-1.12-.59-.38-.13-.78-.19-1.2-.19-.52,0-.9.11-1.16.34-.25.22-.38.49-.38.8,0,.25.08.47.24.64s.4.33.71.46c.31.13.68.27,1.12.41.53.18,1.03.4,1.49.66.46.26.83.59,1.1.99s.41.9.41,1.5-.15,1.13-.46,1.61c-.31.48-.76.87-1.36,1.16-.6.29-1.33.43-2.2.43Z"/>
    <path class="st0" d="M198.68,41.94v-14.41h2l.17,1.09h.08c.43-.38.92-.7,1.45-.96s1.09-.39,1.66-.39c.86,0,1.58.22,2.19.65.6.43,1.07,1.04,1.39,1.83.32.79.48,1.71.48,2.78,0,1.18-.21,2.18-.63,3.01-.42.83-.96,1.46-1.63,1.9-.67.44-1.39.66-2.16.66-.45,0-.9-.1-1.35-.29-.45-.2-.88-.48-1.3-.84l.06,1.73v3.24h-2.42ZM203.18,36.11c.46,0,.88-.13,1.24-.4.36-.27.65-.66.86-1.19.21-.53.32-1.18.32-1.97,0-.69-.08-1.28-.23-1.77s-.4-.87-.73-1.13c-.33-.26-.75-.39-1.27-.39-.38,0-.75.09-1.11.28-.37.19-.75.48-1.16.87v4.82c.38.31.75.53,1.1.66.36.13.68.2.98.2Z"/>
    <path class="st0" d="M210.23,37.86v-10.33h2l.17,1.83h.08c.36-.67.8-1.19,1.31-1.55.51-.36,1.05-.54,1.61-.54.27,0,.49.01.67.04.18.03.35.08.5.17l-.48,2.06c-.17-.04-.32-.07-.46-.09-.14-.02-.32-.03-.55-.03-.41,0-.83.16-1.28.47-.45.32-.83.87-1.16,1.65v6.31h-2.42Z"/>
    <path class="st0" d="M221.78,38.11c-.86,0-1.66-.21-2.4-.64-.74-.43-1.35-1.04-1.81-1.85s-.69-1.78-.69-2.91.23-2.13.69-2.93,1.07-1.42,1.81-1.85c.74-.43,1.54-.64,2.4-.64s1.68.21,2.42.64c.74.43,1.35,1.04,1.81,1.85.46.81.69,1.79.69,2.93s-.23,2.11-.69,2.91c-.46.81-1.07,1.42-1.81,1.85-.74.43-1.55.64-2.42.64ZM221.78,36.13c.5,0,.94-.14,1.3-.42s.65-.68.84-1.2.29-1.12.29-1.81-.1-1.29-.29-1.81c-.2-.52-.48-.92-.84-1.21s-.8-.43-1.3-.43-.94.14-1.29.43c-.36.29-.63.69-.83,1.21-.2.52-.29,1.12-.29,1.81s.1,1.29.29,1.81.47.92.83,1.2c.36.28.79.42,1.29.42Z"/>
    <path class="st0" d="M227.59,29.44v-1.81l1.68-.11h4.29v1.91h-5.97ZM229.12,37.86v-11.4c0-.71.12-1.35.35-1.91s.6-1,1.1-1.32c.5-.32,1.16-.47,1.98-.47.38,0,.73.04,1.06.1.33.07.61.16.83.25l-.5,1.75c-.37-.13-.73-.19-1.09-.19-.42,0-.74.14-.97.42-.22.28-.34.72-.34,1.33v11.44h-2.42Z"/>
    <path class="st0" d="M236.25,25.72c-.42,0-.77-.13-1.04-.38-.27-.25-.41-.59-.41-1.01s.14-.75.41-1c.27-.25.62-.37,1.04-.37s.79.12,1.05.37c.27.25.4.58.4,1s-.13.76-.4,1.01c-.27.25-.62.38-1.05.38ZM235.05,37.86v-10.33h2.42v10.33h-2.42Z"/>
    <path class="st0" d="M243.13,38.11c-.72,0-1.42-.13-2.11-.4-.69-.27-1.29-.64-1.8-1.12l1.07-1.39c.46.38.93.65,1.41.82.48.17.98.25,1.51.25.56,0,.97-.12,1.24-.36s.4-.53.4-.88c0-.28-.1-.52-.3-.71s-.47-.36-.79-.5c-.32-.14-.68-.28-1.07-.42-.5-.18-.97-.4-1.41-.66-.43-.26-.79-.58-1.06-.97s-.41-.85-.41-1.4c0-.91.34-1.65,1.01-2.23.67-.58,1.58-.86,2.74-.86.7,0,1.35.12,1.94.35.59.23,1.09.53,1.51.89l-1.07,1.37c-.37-.27-.74-.46-1.12-.59-.38-.13-.78-.19-1.2-.19-.52,0-.9.11-1.16.34-.25.22-.38.49-.38.8,0,.25.08.47.24.64s.4.33.71.46c.31.13.68.27,1.12.41.53.18,1.03.4,1.49.66.46.26.83.59,1.1.99s.41.9.41,1.5-.15,1.13-.46,1.61c-.31.48-.76.87-1.36,1.16-.6.29-1.33.43-2.2.43Z"/>
    <path class="st0" d="M251.88,38.11c-.72,0-1.42-.13-2.11-.4-.69-.27-1.29-.64-1.8-1.12l1.07-1.39c.46.38.93.65,1.41.82.48.17.98.25,1.51.25.56,0,.97-.12,1.24-.36s.4-.53.4-.88c0-.28-.1-.52-.3-.71s-.47-.36-.79-.5c-.32-.14-.68-.28-1.07-.42-.5-.18-.97-.4-1.41-.66-.43-.26-.79-.58-1.06-.97s-.41-.85-.41-1.4c0-.91.34-1.65,1.01-2.23.67-.58,1.58-.86,2.74-.86.7,0,1.35.12,1.94.35.59.23,1.09.53,1.51.89l-1.07,1.37c-.37-.27-.74-.46-1.12-.59-.38-.13-.78-.19-1.2-.19-.52,0-.9.11-1.16.34-.25.22-.38.49-.38.8,0,.25.08.47.24.64s.4.33.71.46c.31.13.68.27,1.12.41.53.18,1.03.4,1.49.66.46.26.83.59,1.1.99s.41.9.41,1.5-.15,1.13-.46,1.61c-.31.48-.76.87-1.36,1.16-.6.29-1.33.43-2.2.43Z"/>
    <path class="st0" d="M258.95,25.72c-.42,0-.77-.13-1.04-.38-.27-.25-.41-.59-.41-1.01s.14-.75.41-1c.27-.25.62-.37,1.04-.37s.79.12,1.05.37c.27.25.4.58.4,1s-.13.76-.4,1.01c-.27.25-.62.38-1.05.38ZM257.75,37.86v-10.33h2.42v10.33h-2.42Z"/>
    <path class="st0" d="M267.18,38.11c-.86,0-1.66-.21-2.4-.64-.74-.43-1.35-1.04-1.81-1.85s-.69-1.78-.69-2.91.23-2.13.69-2.93,1.07-1.42,1.81-1.85c.74-.43,1.54-.64,2.4-.64s1.68.21,2.42.64c.74.43,1.35,1.04,1.81,1.85.46.81.69,1.79.69,2.93s-.23,2.11-.69,2.91c-.46.81-1.07,1.42-1.81,1.85-.74.43-1.55.64-2.42.64ZM267.18,36.13c.5,0,.94-.14,1.3-.42s.65-.68.84-1.2.29-1.12.29-1.81-.1-1.29-.29-1.81c-.2-.52-.48-.92-.84-1.21s-.8-.43-1.3-.43-.94.14-1.29.43c-.36.29-.63.69-.83,1.21-.2.52-.29,1.12-.29,1.81s.1,1.29.29,1.81.47.92.83,1.2c.36.28.79.42,1.29.42Z"/>
    <path class="st0" d="M274.18,37.86v-10.33h2l.17,1.39h.08c.46-.45.97-.83,1.51-1.16s1.17-.48,1.87-.48c1.11,0,1.91.36,2.42,1.07s.76,1.72.76,3.03v6.48h-2.42v-6.16c0-.86-.13-1.46-.38-1.81-.25-.35-.67-.53-1.24-.53-.45,0-.85.11-1.19.33-.34.22-.73.54-1.17.96v7.22h-2.42Z"/>
    <path class="st0" d="M288.15,38.11c-.6,0-1.14-.13-1.6-.38-.46-.25-.82-.61-1.08-1.06-.26-.46-.39-.99-.39-1.59,0-1.16.49-2.04,1.46-2.64s2.52-1.01,4.64-1.23c-.01-.35-.08-.67-.2-.97-.12-.29-.32-.53-.59-.71-.27-.17-.64-.26-1.1-.26-.5,0-1,.09-1.48.27-.48.18-.96.41-1.42.69l-.88-1.64c.38-.24.79-.46,1.24-.66.45-.2.93-.36,1.43-.48.5-.12,1.03-.18,1.58-.18.86,0,1.57.17,2.14.52.57.34,1,.85,1.28,1.51.29.67.43,1.48.43,2.45v6.1h-2l-.17-1.14h-.08c-.48.39-.97.72-1.49.99-.52.27-1.09.4-1.7.4ZM288.91,36.13c.42,0,.81-.09,1.17-.26.36-.17.73-.44,1.1-.79v-2.19c-.94.11-1.68.26-2.23.44-.55.18-.94.4-1.17.66s-.35.56-.35.92c0,.43.14.75.42.94.28.19.63.28,1.05.28Z"/>
    <path class="st0" d="M297.39,25.72c-.42,0-.77-.13-1.04-.38-.27-.25-.41-.59-.41-1.01s.14-.75.41-1c.27-.25.62-.37,1.04-.37s.79.12,1.05.37c.27.25.4.58.4,1s-.13.76-.4,1.01c-.27.25-.62.38-1.05.38ZM296.19,37.86v-10.33h2.42v10.33h-2.42Z"/>
    <path class="st0" d="M304.27,38.11c-.72,0-1.42-.13-2.11-.4-.69-.27-1.29-.64-1.8-1.12l1.07-1.39c.46.38.93.65,1.41.82.48.17.98.25,1.51.25.56,0,.97-.12,1.24-.36s.4-.53.4-.88c0-.28-.1-.52-.3-.71s-.47-.36-.79-.5c-.32-.14-.68-.28-1.07-.42-.5-.18-.97-.4-1.41-.66-.43-.26-.79-.58-1.06-.97s-.41-.85-.41-1.4c0-.91.34-1.65,1.01-2.23.67-.58,1.58-.86,2.74-.86.7,0,1.35.12,1.94.35.59.23,1.09.53,1.51.89l-1.07,1.37c-.37-.27-.74-.46-1.12-.59-.38-.13-.78-.19-1.2-.19-.52,0-.9.11-1.16.34-.25.22-.38.49-.38.8,0,.25.08.47.24.64s.4.33.71.46c.31.13.68.27,1.12.41.53.18,1.03.4,1.49.66.46.26.83.59,1.1.99s.41.9.41,1.5-.15,1.13-.46,1.61c-.31.48-.76.87-1.36,1.16-.6.29-1.33.43-2.2.43Z"/>
    <path class="st0" d="M26.28,63.36c-1.29,0-2.32-.48-3.09-1.43-.77-.95-1.16-2.28-1.16-3.98,0-1.12.21-2.09.62-2.9.41-.81.95-1.44,1.62-1.87.67-.43,1.38-.65,2.13-.65.59,0,1.09.1,1.5.29.41.2.82.48,1.21.84l-.08-1.66v-3.75h2.42v14.85h-2l-.17-1.12h-.08c-.38.38-.82.7-1.33.97-.5.27-1.04.4-1.6.4ZM26.87,61.36c.41,0,.79-.09,1.14-.28s.69-.48,1.03-.87v-4.82c-.35-.32-.7-.55-1.05-.67-.35-.13-.7-.19-1.05-.19-.45,0-.85.13-1.21.4s-.65.65-.86,1.16c-.22.5-.33,1.12-.33,1.85,0,1.11.2,1.96.61,2.54.41.59.98.88,1.72.88Z"/>
    <path class="st0" d="M38.44,63.36c-.86,0-1.66-.21-2.4-.64-.74-.43-1.35-1.04-1.81-1.85s-.69-1.78-.69-2.91.23-2.13.69-2.93,1.07-1.42,1.81-1.85c.74-.43,1.54-.64,2.4-.64s1.68.21,2.42.64c.74.43,1.35,1.04,1.81,1.85.46.81.69,1.79.69,2.93s-.23,2.11-.69,2.91c-.46.81-1.07,1.42-1.81,1.85-.74.43-1.55.64-2.42.64ZM38.44,61.38c.5,0,.94-.14,1.3-.42s.65-.68.84-1.2.29-1.12.29-1.81-.1-1.29-.29-1.81c-.2-.52-.48-.92-.84-1.21s-.8-.43-1.3-.43-.94.14-1.29.43c-.36.29-.63.69-.83,1.21-.2.52-.29,1.12-.29,1.81s.1,1.29.29,1.81.47.92.83,1.2c.36.28.79.42,1.29.42Z"/>
    <path class="st0" d="M48.25,63.36c-.72,0-1.42-.13-2.11-.4-.69-.27-1.29-.64-1.8-1.12l1.07-1.39c.46.38.93.65,1.41.82.48.17.98.25,1.51.25.56,0,.97-.12,1.24-.36s.4-.53.4-.88c0-.28-.1-.52-.3-.71s-.47-.36-.79-.5c-.32-.14-.68-.28-1.07-.42-.5-.18-.97-.4-1.41-.66-.43-.26-.79-.58-1.06-.97s-.41-.85-.41-1.4c0-.91.34-1.65,1.01-2.23.67-.58,1.58-.86,2.74-.86.7,0,1.35.12,1.94.35.59.23,1.09.53,1.51.89l-1.07,1.37c-.37-.27-.74-.46-1.12-.59-.38-.13-.78-.19-1.2-.19-.52,0-.9.11-1.16.34-.25.22-.38.49-.38.8,0,.25.08.47.24.64s.4.33.71.46c.31.13.68.27,1.12.41.53.18,1.03.4,1.49.66.46.26.83.59,1.1.99s.41.9.41,1.5-.15,1.13-.46,1.61c-.31.48-.76.87-1.36,1.16-.6.29-1.33.43-2.2.43Z"/>
    <path class="st0" d="M62.36,63.36c-.95,0-1.81-.21-2.57-.64-.76-.43-1.36-1.04-1.8-1.85-.44-.81-.66-1.78-.66-2.91s.24-2.13.72-2.93c.48-.81,1.11-1.42,1.9-1.85.79-.43,1.64-.64,2.56-.64.66,0,1.24.11,1.74.33.5.22.93.49,1.29.83l-1.16,1.51c-.22-.21-.48-.38-.77-.5-.29-.13-.61-.19-.98-.19-.55,0-1.03.14-1.45.43-.42.29-.75.69-1,1.2s-.37,1.12-.37,1.82.12,1.29.36,1.8.56.91.98,1.2.89.43,1.44.43c.41,0,.79-.08,1.15-.23s.68-.35.96-.59l.99,1.49c-.43.39-.94.71-1.5.95-.57.24-1.17.36-1.82.36Z"/>
    <path class="st0" d="M70.48,63.36c-1.11,0-1.92-.36-2.42-1.07-.5-.72-.76-1.73-.76-3.03v-6.48h2.42v6.16c0,.86.13,1.46.38,1.81.25.35.66.53,1.22.53.45,0,.84-.11,1.19-.34.34-.22.71-.59,1.1-1.09v-7.07h2.42v10.33h-1.98l-.19-1.51h-.06c-.45.53-.94.96-1.47,1.28s-1.15.48-1.85.48Z"/>
    <path class="st0" d="M79.99,50.96c-.42,0-.77-.13-1.04-.38-.27-.25-.41-.59-.41-1.01s.14-.75.41-1c.27-.25.62-.37,1.04-.37s.79.12,1.05.37c.27.25.4.58.4,1s-.13.76-.4,1.01c-.27.25-.62.38-1.05.38ZM78.79,63.1v-10.33h2.42v10.33h-2.42Z"/>
    <path class="st0" d="M87.61,63.36c-1.29,0-2.32-.48-3.09-1.43-.77-.95-1.16-2.28-1.16-3.98,0-1.12.21-2.09.62-2.9.41-.81.95-1.44,1.62-1.87.67-.43,1.38-.65,2.13-.65.59,0,1.09.1,1.5.29.41.2.82.48,1.21.84l-.08-1.66v-3.75h2.42v14.85h-2l-.17-1.12h-.08c-.38.38-.82.7-1.33.97-.5.27-1.04.4-1.6.4ZM88.2,61.36c.41,0,.79-.09,1.14-.28s.69-.48,1.03-.87v-4.82c-.35-.32-.7-.55-1.05-.67-.35-.13-.7-.19-1.05-.19-.45,0-.85.13-1.21.4s-.65.65-.86,1.16c-.22.5-.33,1.12-.33,1.85,0,1.11.2,1.96.61,2.54.41.59.98.88,1.72.88Z"/>
    <path class="st0" d="M98.04,63.36c-.6,0-1.14-.13-1.6-.38-.46-.25-.82-.61-1.08-1.06-.26-.46-.39-.99-.39-1.59,0-1.16.49-2.04,1.46-2.64s2.52-1.01,4.64-1.23c-.01-.35-.08-.67-.2-.97-.12-.29-.32-.53-.59-.71-.27-.17-.64-.26-1.1-.26-.5,0-1,.09-1.48.27-.48.18-.96.41-1.42.69l-.88-1.64c.38-.24.79-.46,1.24-.66.45-.2.93-.36,1.43-.48.5-.12,1.03-.18,1.58-.18.86,0,1.57.17,2.14.52.57.34,1,.85,1.28,1.51.29.67.43,1.48.43,2.45v6.1h-2l-.17-1.14h-.08c-.48.39-.97.72-1.49.99-.52.27-1.09.4-1.7.4ZM98.8,61.38c.42,0,.81-.09,1.17-.26.36-.17.73-.44,1.1-.79v-2.19c-.94.11-1.68.26-2.23.44-.55.18-.94.4-1.17.66s-.35.56-.35.92c0,.43.14.75.42.94.28.19.63.28,1.05.28Z"/>
    <path class="st0" d="M109.7,63.36c-1.29,0-2.32-.48-3.09-1.43-.77-.95-1.16-2.28-1.16-3.98,0-1.12.21-2.09.62-2.9.41-.81.95-1.44,1.62-1.87.67-.43,1.38-.65,2.13-.65.59,0,1.09.1,1.5.29.41.2.82.48,1.21.84l-.08-1.66v-3.75h2.42v14.85h-2l-.17-1.12h-.08c-.38.38-.82.7-1.33.97-.5.27-1.04.4-1.6.4ZM110.28,61.36c.41,0,.79-.09,1.14-.28s.69-.48,1.03-.87v-4.82c-.35-.32-.7-.55-1.05-.67-.35-.13-.7-.19-1.05-.19-.45,0-.85.13-1.21.4s-.65.65-.86,1.16c-.22.5-.33,1.12-.33,1.85,0,1.11.2,1.96.61,2.54.41.59.98.88,1.72.88Z"/>
    <path class="st0" d="M121.85,63.36c-.86,0-1.66-.21-2.4-.64-.74-.43-1.35-1.04-1.81-1.85s-.69-1.78-.69-2.91.23-2.13.69-2.93,1.07-1.42,1.81-1.85c.74-.43,1.54-.64,2.4-.64s1.68.21,2.42.64c.74.43,1.35,1.04,1.81,1.85.46.81.69,1.79.69,2.93s-.23,2.11-.69,2.91c-.46.81-1.07,1.42-1.81,1.85-.74.43-1.55.64-2.42.64ZM121.85,61.38c.5,0,.94-.14,1.3-.42s.65-.68.84-1.2.29-1.12.29-1.81-.1-1.29-.29-1.81c-.2-.52-.48-.92-.84-1.21s-.8-.43-1.3-.43-.94.14-1.29.43c-.36.29-.63.69-.83,1.21-.2.52-.29,1.12-.29,1.81s.1,1.29.29,1.81.47.92.83,1.2c.36.28.79.42,1.29.42Z"/>
    <path class="st0" d="M131.66,63.36c-.72,0-1.42-.13-2.11-.4-.69-.27-1.29-.64-1.8-1.12l1.07-1.39c.46.38.93.65,1.41.82.48.17.98.25,1.51.25.56,0,.97-.12,1.24-.36s.4-.53.4-.88c0-.28-.1-.52-.3-.71s-.47-.36-.79-.5c-.32-.14-.68-.28-1.07-.42-.5-.18-.97-.4-1.41-.66-.43-.26-.79-.58-1.06-.97s-.41-.85-.41-1.4c0-.91.34-1.65,1.01-2.23.67-.58,1.58-.86,2.74-.86.7,0,1.35.12,1.94.35.59.23,1.09.53,1.51.89l-1.07,1.37c-.37-.27-.74-.46-1.12-.59-.38-.13-.78-.19-1.2-.19-.52,0-.9.11-1.16.34-.25.22-.38.49-.38.8,0,.25.08.47.24.64s.4.33.71.46c.31.13.68.27,1.12.41.53.18,1.03.4,1.49.66.46.26.83.59,1.1.99s.41.9.41,1.5-.15,1.13-.46,1.61c-.31.48-.76.87-1.36,1.16-.6.29-1.33.43-2.2.43Z"/>
    <path class="st0" d="M145.77,63.36c-.95,0-1.81-.21-2.57-.64-.76-.43-1.36-1.04-1.8-1.85-.44-.81-.66-1.78-.66-2.91s.24-2.13.72-2.93c.48-.81,1.11-1.42,1.9-1.85.79-.43,1.64-.64,2.56-.64.66,0,1.24.11,1.74.33.5.22.93.49,1.29.83l-1.16,1.51c-.22-.21-.48-.38-.77-.5-.29-.13-.61-.19-.98-.19-.55,0-1.03.14-1.45.43-.42.29-.75.69-1,1.2s-.37,1.12-.37,1.82.12,1.29.36,1.8.56.91.98,1.2.89.43,1.44.43c.41,0,.79-.08,1.15-.23s.68-.35.96-.59l.99,1.49c-.43.39-.94.71-1.5.95-.57.24-1.17.36-1.82.36Z"/>
    <path class="st0" d="M154.55,63.36c-.86,0-1.66-.21-2.4-.64-.74-.43-1.35-1.04-1.81-1.85s-.69-1.78-.69-2.91.23-2.13.69-2.93,1.07-1.42,1.81-1.85c.74-.43,1.54-.64,2.4-.64s1.68.21,2.42.64c.74.43,1.35,1.04,1.81,1.85.46.81.69,1.79.69,2.93s-.23,2.11-.69,2.91c-.46.81-1.07,1.42-1.81,1.85-.74.43-1.55.64-2.42.64ZM154.55,61.38c.5,0,.94-.14,1.3-.42s.65-.68.84-1.2.29-1.12.29-1.81-.1-1.29-.29-1.81c-.2-.52-.48-.92-.84-1.21s-.8-.43-1.3-.43-.94.14-1.29.43c-.36.29-.63.69-.83,1.21-.2.52-.29,1.12-.29,1.81s.1,1.29.29,1.81.47.92.83,1.2c.36.28.79.42,1.29.42Z"/>
    <path class="st0" d="M161.55,63.1v-10.33h2l.17,1.41h.08c.43-.46.91-.86,1.42-1.18.51-.32,1.09-.48,1.74-.48.77,0,1.38.16,1.83.48s.79.78,1.03,1.37c.49-.53,1-.97,1.54-1.33s1.13-.53,1.79-.53c1.09,0,1.9.36,2.42,1.07.52.71.78,1.72.78,3.03v6.48h-2.44v-6.16c0-.86-.13-1.46-.38-1.81-.25-.35-.65-.53-1.2-.53-.34,0-.68.11-1.03.32-.35.21-.73.53-1.14.97v7.22h-2.42v-6.16c0-.86-.13-1.46-.39-1.81-.26-.35-.66-.53-1.21-.53-.65,0-1.37.43-2.17,1.28v7.22h-2.42Z"/>
    <path class="st0" d="M187.22,63.36c-.95,0-1.81-.21-2.57-.64-.76-.43-1.36-1.04-1.8-1.85-.44-.81-.66-1.78-.66-2.91s.24-2.13.72-2.93c.48-.81,1.11-1.42,1.9-1.85.79-.43,1.64-.64,2.56-.64.66,0,1.24.11,1.74.33.5.22.93.49,1.29.83l-1.16,1.51c-.22-.21-.48-.38-.77-.5-.29-.13-.61-.19-.98-.19-.55,0-1.03.14-1.45.43-.42.29-.75.69-1,1.2s-.37,1.12-.37,1.82.12,1.29.36,1.8.56.91.98,1.2.89.43,1.44.43c.41,0,.79-.08,1.15-.23s.68-.35.96-.59l.99,1.49c-.43.39-.94.71-1.5.95-.57.24-1.17.36-1.82.36Z"/>
    <path class="st0" d="M194.56,63.36c-.6,0-1.14-.13-1.6-.38-.46-.25-.82-.61-1.08-1.06-.26-.46-.39-.99-.39-1.59,0-1.16.49-2.04,1.46-2.64s2.52-1.01,4.64-1.23c-.01-.35-.08-.67-.2-.97-.12-.29-.32-.53-.59-.71-.27-.17-.64-.26-1.1-.26-.5,0-1,.09-1.48.27-.48.18-.96.41-1.42.69l-.88-1.64c.38-.24.79-.46,1.24-.66.45-.2.93-.36,1.43-.48.5-.12,1.03-.18,1.58-.18.86,0,1.57.17,2.14.52.57.34,1,.85,1.28,1.51.29.67.43,1.48.43,2.45v6.1h-2l-.17-1.14h-.08c-.48.39-.97.72-1.49.99-.52.27-1.09.4-1.7.4ZM195.32,61.38c.42,0,.81-.09,1.17-.26.36-.17.73-.44,1.1-.79v-2.19c-.94.11-1.68.26-2.23.44-.55.18-.94.4-1.17.66s-.35.56-.35.92c0,.43.14.75.42.94.28.19.63.28,1.05.28Z"/>
    <path class="st0" d="M202.59,63.1v-10.33h2l.17,1.83h.08c.36-.67.8-1.19,1.31-1.55.51-.36,1.05-.54,1.61-.54.27,0,.49.01.67.04.18.03.35.08.5.17l-.48,2.06c-.17-.04-.32-.07-.46-.09-.14-.02-.32-.03-.55-.03-.41,0-.83.16-1.28.47-.45.32-.83.87-1.16,1.65v6.31h-2.42Z"/>
    <path class="st0" d="M213.76,63.31c-1.19,0-2.04-.35-2.53-1.04-.5-.69-.75-1.59-.75-2.7v-4.88h-1.47v-1.81l1.6-.11.29-3.24h2.02v3.24h2.63v1.91h-2.63v4.88c0,.6.12,1.06.36,1.36.24.3.6.45,1.09.45.18,0,.36-.01.55-.04.18-.03.36-.08.53-.17l.44,1.7c-.27.13-.58.23-.95.32-.37.08-.76.13-1.18.13Z"/>
    <path class="st0" d="M221.51,63.36c-.97,0-1.84-.21-2.62-.64-.78-.43-1.39-1.04-1.84-1.85-.45-.81-.67-1.79-.67-2.93s.23-2.09.69-2.89,1.06-1.43,1.79-1.86c.73-.43,1.5-.65,2.31-.65.94,0,1.73.21,2.36.63.63.42,1.1,1,1.42,1.74s.47,1.58.47,2.54c0,.22-.01.44-.03.65-.02.21-.05.41-.09.61h-7.11v-1.85h5.09c0-.74-.17-1.33-.51-1.76-.34-.43-.86-.64-1.56-.64-.39,0-.77.1-1.15.32-.37.21-.68.57-.93,1.07-.25.5-.37,1.21-.37,2.1,0,.81.14,1.48.42,1.99.28.51.65.89,1.12,1.14s.96.37,1.49.37c.45,0,.87-.06,1.27-.19.4-.13.77-.3,1.12-.53l.84,1.56c-.48.34-1.02.6-1.63.8-.61.2-1.25.29-1.9.29Z"/>
    <path class="st0" d="M228.62,50.96c-.42,0-.77-.13-1.04-.38-.27-.25-.41-.59-.41-1.01s.14-.75.41-1c.27-.25.62-.37,1.04-.37s.79.12,1.05.37c.27.25.4.58.4,1s-.13.76-.4,1.01c-.27.25-.62.38-1.05.38ZM227.42,63.1v-10.33h2.42v10.33h-2.42Z"/>
    <path class="st0" d="M232.61,63.1v-10.33h2l.17,1.83h.08c.36-.67.8-1.19,1.31-1.55.51-.36,1.05-.54,1.61-.54.27,0,.49.01.67.04.18.03.35.08.5.17l-.48,2.06c-.17-.04-.32-.07-.46-.09-.14-.02-.32-.03-.55-.03-.41,0-.83.16-1.28.47-.45.32-.83.87-1.16,1.65v6.31h-2.42Z"/>
    <path class="st0" d="M242.1,63.36c-.6,0-1.14-.13-1.6-.38-.46-.25-.82-.61-1.08-1.06-.26-.46-.39-.99-.39-1.59,0-1.16.49-2.04,1.46-2.64s2.52-1.01,4.64-1.23c-.01-.35-.08-.67-.2-.97-.12-.29-.32-.53-.59-.71-.27-.17-.64-.26-1.1-.26-.5,0-1,.09-1.48.27-.48.18-.96.41-1.42.69l-.88-1.64c.38-.24.79-.46,1.24-.66.45-.2.93-.36,1.43-.48.5-.12,1.03-.18,1.58-.18.86,0,1.57.17,2.14.52.57.34,1,.85,1.28,1.51.29.67.43,1.48.43,2.45v6.1h-2l-.17-1.14h-.08c-.48.39-.97.72-1.49.99-.52.27-1.09.4-1.7.4ZM242.86,61.38c.42,0,.81-.09,1.17-.26.36-.17.73-.44,1.1-.79v-2.19c-.94.11-1.68.26-2.23.44-.55.18-.94.4-1.17.66s-.35.56-.35.92c0,.43.14.75.42.94.28.19.63.28,1.05.28Z"/>
    <path class="st0" d="M256.53,63.36c-.6,0-1.14-.13-1.6-.38-.46-.25-.82-.61-1.08-1.06-.26-.46-.39-.99-.39-1.59,0-1.16.49-2.04,1.46-2.64s2.52-1.01,4.64-1.23c-.01-.35-.08-.67-.2-.97-.12-.29-.32-.53-.59-.71-.27-.17-.64-.26-1.1-.26-.5,0-1,.09-1.48.27-.48.18-.96.41-1.42.69l-.88-1.64c.38-.24.79-.46,1.24-.66.45-.2.93-.36,1.43-.48.5-.12,1.03-.18,1.58-.18.86,0,1.57.17,2.14.52.57.34,1,.85,1.28,1.51.29.67.43,1.48.43,2.45v6.1h-2l-.17-1.14h-.08c-.48.39-.97.72-1.49.99-.52.27-1.09.4-1.7.4ZM257.29,61.38c.42,0,.81-.09,1.17-.26.36-.17.73-.44,1.1-.79v-2.19c-.94.11-1.68.26-2.23.44-.55.18-.94.4-1.17.66s-.35.56-.35.92c0,.43.14.75.42.94.28.19.63.28,1.05.28Z"/>
    <path class="st0" d="M267.45,63.36c-.72,0-1.42-.13-2.11-.4-.69-.27-1.29-.64-1.8-1.12l1.07-1.39c.46.38.93.65,1.41.82.48.17.98.25,1.51.25.56,0,.97-.12,1.24-.36s.4-.53.4-.88c0-.28-.1-.52-.3-.71s-.47-.36-.79-.5c-.32-.14-.68-.28-1.07-.42-.5-.18-.97-.4-1.41-.66-.43-.26-.79-.58-1.06-.97s-.41-.85-.41-1.4c0-.91.34-1.65,1.01-2.23.67-.58,1.58-.86,2.74-.86.7,0,1.35.12,1.94.35.59.23,1.09.53,1.51.89l-1.07,1.37c-.37-.27-.74-.46-1.12-.59-.38-.13-.78-.19-1.2-.19-.52,0-.9.11-1.16.34-.25.22-.38.49-.38.8,0,.25.08.47.24.64s.4.33.71.46c.31.13.68.27,1.12.41.53.18,1.03.4,1.49.66.46.26.83.59,1.1.99s.41.9.41,1.5-.15,1.13-.46,1.61c-.31.48-.76.87-1.36,1.16-.6.29-1.33.43-2.2.43Z"/>
    <path class="st0" d="M276.2,63.36c-.72,0-1.42-.13-2.11-.4-.69-.27-1.29-.64-1.8-1.12l1.07-1.39c.46.38.93.65,1.41.82.48.17.98.25,1.51.25.56,0,.97-.12,1.24-.36s.4-.53.4-.88c0-.28-.1-.52-.3-.71s-.47-.36-.79-.5c-.32-.14-.68-.28-1.07-.42-.5-.18-.97-.4-1.41-.66-.43-.26-.79-.58-1.06-.97s-.41-.85-.41-1.4c0-.91.34-1.65,1.01-2.23.67-.58,1.58-.86,2.74-.86.7,0,1.35.12,1.94.35.59.23,1.09.53,1.51.89l-1.07,1.37c-.37-.27-.74-.46-1.12-.59-.38-.13-.78-.19-1.2-.19-.52,0-.9.11-1.16.34-.25.22-.38.49-.38.8,0,.25.08.47.24.64s.4.33.71.46c.31.13.68.27,1.12.41.53.18,1.03.4,1.49.66.46.26.83.59,1.1.99s.41.9.41,1.5-.15,1.13-.46,1.61c-.31.48-.76.87-1.36,1.16-.6.29-1.33.43-2.2.43Z"/>
    <path class="st0" d="M283.27,50.96c-.42,0-.77-.13-1.04-.38-.27-.25-.41-.59-.41-1.01s.14-.75.41-1c.27-.25.62-.37,1.04-.37s.79.12,1.05.37c.27.25.4.58.4,1s-.13.76-.4,1.01c-.27.25-.62.38-1.05.38ZM282.07,63.1v-10.33h2.42v10.33h-2.42Z"/>
    <path class="st0" d="M287.27,63.1v-10.33h2l.17,1.39h.08c.46-.45.97-.83,1.51-1.16s1.17-.48,1.87-.48c1.11,0,1.91.36,2.42,1.07s.76,1.72.76,3.03v6.48h-2.42v-6.16c0-.86-.13-1.46-.38-1.81-.25-.35-.67-.53-1.24-.53-.45,0-.85.11-1.19.33-.34.22-.73.54-1.17.96v7.22h-2.42Z"/>
    <path class="st0" d="M301.24,63.36c-.6,0-1.14-.13-1.6-.38-.46-.25-.82-.61-1.08-1.06-.26-.46-.39-.99-.39-1.59,0-1.16.49-2.04,1.46-2.64s2.52-1.01,4.64-1.23c-.01-.35-.08-.67-.2-.97-.12-.29-.32-.53-.59-.71-.27-.17-.64-.26-1.1-.26-.5,0-1,.09-1.48.27-.48.18-.96.41-1.42.69l-.88-1.64c.38-.24.79-.46,1.24-.66.45-.2.93-.36,1.43-.48.5-.12,1.03-.18,1.58-.18.86,0,1.57.17,2.14.52.57.34,1,.85,1.28,1.51.29.67.43,1.48.43,2.45v6.1h-2l-.17-1.14h-.08c-.48.39-.97.72-1.49.99-.52.27-1.09.4-1.7.4ZM301.99,61.38c.42,0,.81-.09,1.17-.26.36-.17.73-.44,1.1-.79v-2.19c-.94.11-1.68.26-2.23.44-.55.18-.94.4-1.17.66s-.35.56-.35.92c0,.43.14.75.42.94.28.19.63.28,1.05.28Z"/>
    <path class="st0" d="M312.89,63.36c-1.29,0-2.32-.48-3.09-1.43-.77-.95-1.16-2.28-1.16-3.98,0-1.12.21-2.09.62-2.9.41-.81.95-1.44,1.62-1.87.67-.43,1.38-.65,2.13-.65.59,0,1.09.1,1.5.29.41.2.82.48,1.21.84l-.08-1.66v-3.75h2.42v14.85h-2l-.17-1.12h-.08c-.38.38-.82.7-1.33.97-.5.27-1.04.4-1.6.4ZM313.48,61.36c.41,0,.79-.09,1.14-.28s.69-.48,1.03-.87v-4.82c-.35-.32-.7-.55-1.05-.67-.35-.13-.7-.19-1.05-.19-.45,0-.85.13-1.21.4s-.65.65-.86,1.16c-.22.5-.33,1.12-.33,1.85,0,1.11.2,1.96.61,2.54.41.59.98.88,1.72.88Z"/>
    <path class="st0" d="M323.33,63.36c-.6,0-1.14-.13-1.6-.38-.46-.25-.82-.61-1.08-1.06-.26-.46-.39-.99-.39-1.59,0-1.16.49-2.04,1.46-2.64s2.52-1.01,4.64-1.23c-.01-.35-.08-.67-.2-.97-.12-.29-.32-.53-.59-.71-.27-.17-.64-.26-1.1-.26-.5,0-1,.09-1.48.27-.48.18-.96.41-1.42.69l-.88-1.64c.38-.24.79-.46,1.24-.66.45-.2.93-.36,1.43-.48.5-.12,1.03-.18,1.58-.18.86,0,1.57.17,2.14.52.57.34,1,.85,1.28,1.51.29.67.43,1.48.43,2.45v6.1h-2l-.17-1.14h-.08c-.48.39-.97.72-1.49.99-.52.27-1.09.4-1.7.4ZM324.08,61.38c.42,0,.81-.09,1.17-.26.36-.17.73-.44,1.1-.79v-2.19c-.94.11-1.68.26-2.23.44-.55.18-.94.4-1.17.66s-.35.56-.35.92c0,.43.14.75.42.94.28.19.63.28,1.05.28Z"/>
  </g>
  <g>
    <g>
      <g>
        <path class="st0" d="M74.93,329.3c-.71,0-1.35-.09-1.9-.27-.55-.18-1.03-.41-1.44-.69-.41-.28-.76-.59-1.07-.93l.88-1.14c.41.42.88.79,1.42,1.12.54.32,1.21.48,2.01.48s1.48-.22,2-.67c.52-.45.78-1.04.78-1.79,0-.53-.14-1-.41-1.4-.27-.4-.72-.71-1.35-.94s-1.47-.34-2.54-.34v-1.33c.95,0,1.71-.11,2.26-.34.55-.22.95-.52,1.19-.89.24-.37.36-.8.36-1.27,0-.66-.21-1.18-.62-1.56-.41-.38-.98-.57-1.69-.57-.56,0-1.08.13-1.56.38-.48.25-.91.58-1.3.99l-.93-1.09c.52-.49,1.09-.89,1.73-1.21.63-.32,1.34-.47,2.12-.47s1.48.13,2.08.4c.6.27,1.08.65,1.42,1.16s.52,1.12.52,1.85c0,.81-.22,1.48-.67,2-.45.52-1.04.92-1.77,1.2v.08c.55.13,1.04.34,1.47.64s.78.68,1.04,1.15.39,1,.39,1.62c0,.8-.2,1.48-.59,2.05-.39.57-.93,1.01-1.6,1.32-.67.31-1.42.46-2.23.46Z"/>
        <path class="st0" d="M85.66,329.3c-1.35,0-2.4-.61-3.17-1.82-.76-1.21-1.15-2.94-1.15-5.19s.38-3.98,1.15-5.15c.76-1.18,1.82-1.77,3.17-1.77s2.38.59,3.15,1.78c.76,1.19,1.15,2.9,1.15,5.14s-.38,3.97-1.15,5.19c-.76,1.21-1.81,1.82-3.15,1.82ZM85.66,327.91c.52,0,.97-.2,1.37-.59s.7-1,.92-1.83c.22-.83.33-1.89.33-3.2s-.11-2.38-.33-3.2-.52-1.41-.92-1.78c-.39-.37-.85-.56-1.37-.56s-1,.19-1.39.56c-.39.37-.7.96-.92,1.78s-.33,1.88-.33,3.2.11,2.37.33,3.2c.22.83.52,1.44.92,1.83s.86.59,1.39.59Z"/>
        <path class="st0" d="M94.74,323.7c-.63,0-1.18-.17-1.65-.51-.47-.34-.83-.84-1.09-1.49-.26-.65-.39-1.44-.39-2.37,0-1.39.29-2.46.86-3.21.58-.75,1.33-1.12,2.27-1.12s1.7.38,2.27,1.12c.58.75.86,1.82.86,3.21,0,.92-.13,1.71-.39,2.37s-.62,1.15-1.09,1.49c-.47.34-1.02.51-1.65.51ZM94.74,322.63c.55,0,.99-.28,1.31-.83s.49-1.38.49-2.47-.17-1.93-.49-2.46-.77-.8-1.31-.8-.97.27-1.32.8-.51,1.35-.51,2.46.17,1.92.51,2.47.78.83,1.32.83ZM95.14,329.3l7.62-14.31h1.18l-7.62,14.31h-1.18ZM104.36,329.3c-.63,0-1.18-.17-1.65-.52-.47-.34-.83-.84-1.09-1.49s-.39-1.44-.39-2.37c0-1.39.29-2.46.86-3.21.58-.75,1.33-1.13,2.27-1.13s1.7.38,2.27,1.13c.58.75.86,1.82.86,3.21,0,.93-.13,1.71-.39,2.37-.26.65-.62,1.15-1.09,1.49-.47.34-1.02.52-1.65.52ZM104.36,328.22c.55,0,.98-.28,1.31-.83.33-.55.49-1.38.49-2.47s-.17-1.93-.49-2.46c-.33-.53-.77-.8-1.31-.8s-.97.27-1.32.8c-.34.53-.52,1.35-.52,2.46s.17,1.92.52,2.47.78.83,1.32.83Z"/>
        <path class="st0" d="M117.36,329.23c-1.08,0-1.84-.32-2.27-.95-.43-.63-.65-1.45-.65-2.46v-5.6h-1.51v-1.3l1.6-.1.21-3.28h1.45v3.28h2.78v1.41h-2.78v5.62c0,.62.12,1.1.35,1.45.23.35.64.53,1.23.53.18,0,.37-.02.57-.05s.39-.1.59-.2l.38,1.22c-.27.13-.57.23-.9.32-.34.08-.68.13-1.03.13Z"/>
        <path class="st0" d="M125.1,329.3c-.91,0-1.74-.21-2.49-.64-.75-.43-1.34-1.04-1.78-1.83-.43-.79-.65-1.76-.65-2.89s.22-2.06.67-2.86c.45-.8,1.02-1.42,1.72-1.85s1.44-.65,2.23-.65c.87,0,1.61.2,2.22.6.61.4,1.07.96,1.38,1.67.31.71.46,1.56.46,2.52,0,.18,0,.36,0,.53,0,.17-.03.34-.07.5h-7.36v-1.37h5.89c0-.98-.21-1.74-.64-2.26-.43-.53-1.04-.79-1.84-.79-.46,0-.92.13-1.37.39-.45.26-.82.68-1.1,1.25-.29.58-.43,1.34-.43,2.29,0,.87.15,1.6.45,2.19.3.59.71,1.03,1.23,1.34.52.3,1.09.45,1.7.45.49,0,.95-.07,1.38-.21.43-.14.82-.33,1.17-.57l.63,1.14c-.45.31-.95.56-1.5.76s-1.18.29-1.88.29ZM121.17,317.05l2.86-3.47h1.51l2.86,3.47h-1.41l-2.17-2.17h-.08l-2.17,2.17h-1.41Z"/>
        <path class="st0" d="M131.39,329.04v-10.22h1.43l.15,1.47h.06c.45-.48.94-.88,1.46-1.22.53-.34,1.1-.5,1.71-.5.79,0,1.4.18,1.84.53.44.35.77.83.98,1.43.53-.59,1.07-1.06,1.62-1.42.55-.36,1.13-.54,1.75-.54,1.07,0,1.85.34,2.36,1.02s.76,1.67.76,2.98v6.48h-1.72v-6.25c0-.97-.15-1.67-.46-2.09s-.79-.64-1.43-.64c-.41,0-.82.13-1.23.39-.41.26-.86.66-1.34,1.19v7.41h-1.73v-6.25c0-.97-.15-1.67-.46-2.09s-.79-.64-1.45-.64c-.77,0-1.63.53-2.57,1.58v7.41h-1.73Z"/>
        <path class="st0" d="M157.1,329.3c-.91,0-1.73-.21-2.46-.63-.73-.42-1.3-1.03-1.73-1.83s-.63-1.76-.63-2.88.23-2.12.68-2.92c.46-.8,1.06-1.41,1.81-1.83.75-.42,1.56-.63,2.43-.63.67,0,1.25.11,1.74.34s.9.51,1.25.86l-.86,1.07c-.25-.25-.55-.45-.89-.6-.34-.15-.73-.22-1.17-.22-.6,0-1.15.17-1.63.5-.48.33-.87.79-1.15,1.38-.28.59-.42,1.28-.42,2.06s.13,1.45.4,2.04c.27.59.64,1.05,1.12,1.38.48.33,1.03.5,1.66.5.48,0,.92-.09,1.33-.27.41-.18.76-.41,1.05-.69l.76,1.05c-.44.41-.93.73-1.47.98-.55.25-1.15.37-1.81.37Z"/>
        <path class="st0" d="M164.78,329.3c-.56,0-1.07-.12-1.53-.35-.46-.23-.82-.56-1.08-.99s-.4-.95-.4-1.57c0-1.15.5-2.02,1.51-2.61,1.01-.59,2.61-1,4.8-1.24-.01-.42-.08-.83-.2-1.22-.12-.39-.33-.71-.64-.95-.31-.24-.74-.36-1.28-.36-.59,0-1.14.11-1.66.33-.52.22-.98.46-1.39.73l-.67-1.18c.31-.21.67-.42,1.09-.62s.88-.37,1.37-.5c.49-.13,1.01-.2,1.56-.2.83,0,1.5.17,2.03.52.53.34.91.83,1.16,1.46.25.63.37,1.38.37,2.23v6.27h-1.43l-.15-1.22h-.06c-.49.41-1.02.75-1.58,1.04-.56.29-1.16.43-1.81.43ZM165.26,327.87c.5,0,.98-.11,1.42-.34.44-.22.91-.55,1.4-.99v-2.76c-1.15.14-2.06.32-2.72.54-.67.22-1.15.49-1.44.81-.29.32-.44.71-.44,1.16,0,.56.17.96.53,1.21s.77.37,1.26.37Z"/>
        <path class="st0" d="M173.02,329.04v-10.22h1.43l.15,1.85h.06c.34-.64.76-1.16,1.26-1.54.5-.38,1.05-.57,1.64-.57.22,0,.42.01.59.04.17.03.34.08.5.17l-.38,1.47c-.15-.04-.3-.07-.43-.09-.13-.02-.3-.03-.51-.03-.44,0-.89.18-1.36.53s-.88.96-1.23,1.83v6.56h-1.73Z"/>
        <path class="st0" d="M183.54,329.23c-1.08,0-1.84-.32-2.27-.95-.43-.63-.65-1.45-.65-2.46v-5.6h-1.51v-1.3l1.6-.1.21-3.28h1.45v3.28h2.78v1.41h-2.78v5.62c0,.62.12,1.1.35,1.45.23.35.64.53,1.23.53.18,0,.37-.02.57-.05s.39-.1.59-.2l.38,1.22c-.27.13-.57.23-.9.32-.34.08-.68.13-1.03.13Z"/>
        <path class="st0" d="M191.28,329.3c-.91,0-1.74-.21-2.49-.64-.75-.43-1.34-1.04-1.78-1.83-.43-.79-.65-1.76-.65-2.89s.22-2.06.67-2.86c.45-.8,1.02-1.42,1.72-1.85s1.44-.65,2.23-.65c.87,0,1.61.2,2.22.6.61.4,1.07.96,1.38,1.67.31.71.46,1.56.46,2.52,0,.18,0,.36,0,.53,0,.17-.03.34-.07.5h-7.36v-1.37h5.89c0-.98-.21-1.74-.64-2.26-.43-.53-1.04-.79-1.84-.79-.46,0-.92.13-1.37.39-.45.26-.82.68-1.1,1.25-.29.58-.43,1.34-.43,2.29,0,.87.15,1.6.45,2.19.3.59.71,1.03,1.23,1.34.52.3,1.09.45,1.7.45.49,0,.95-.07,1.38-.21.43-.14.82-.33,1.17-.57l.63,1.14c-.45.31-.95.56-1.5.76s-1.18.29-1.88.29Z"/>
        <path class="st0" d="M198.44,316.72c-.34,0-.61-.1-.83-.32-.22-.21-.33-.48-.33-.82s.11-.61.33-.82c.22-.21.49-.32.83-.32s.61.1.83.32c.22.21.33.48.33.82s-.11.61-.33.82c-.22.21-.5.32-.83.32ZM197.57,329.04v-10.22h1.73v10.22h-1.73Z"/>
        <path class="st0" d="M202.75,329.04v-10.22h1.43l.15,1.85h.06c.34-.64.76-1.16,1.26-1.54.5-.38,1.05-.57,1.64-.57.22,0,.42.01.59.04.17.03.34.08.5.17l-.38,1.47c-.15-.04-.3-.07-.43-.09-.13-.02-.3-.03-.51-.03-.44,0-.89.18-1.36.53s-.88.96-1.23,1.83v6.56h-1.73Z"/>
        <path class="st0" d="M211.9,329.3c-.56,0-1.07-.12-1.53-.35-.46-.23-.82-.56-1.08-.99s-.4-.95-.4-1.57c0-1.15.5-2.02,1.51-2.61,1.01-.59,2.61-1,4.8-1.24-.01-.42-.08-.83-.2-1.22-.12-.39-.33-.71-.64-.95-.31-.24-.74-.36-1.28-.36-.59,0-1.14.11-1.66.33-.52.22-.98.46-1.39.73l-.67-1.18c.31-.21.67-.42,1.09-.62s.88-.37,1.37-.5c.49-.13,1.01-.2,1.56-.2.83,0,1.5.17,2.03.52.53.34.91.83,1.16,1.46.25.63.37,1.38.37,2.23v6.27h-1.43l-.15-1.22h-.06c-.49.41-1.02.75-1.58,1.04-.56.29-1.16.43-1.81.43ZM212.38,327.87c.5,0,.98-.11,1.42-.34.44-.22.91-.55,1.4-.99v-2.76c-1.15.14-2.06.32-2.72.54-.67.22-1.15.49-1.44.81-.29.32-.44.71-.44,1.16,0,.56.17.96.53,1.21s.77.37,1.26.37Z"/>
        <path class="st0" d="M226.71,329.3c-.56,0-1.07-.12-1.53-.35-.46-.23-.82-.56-1.08-.99s-.4-.95-.4-1.57c0-1.15.5-2.02,1.51-2.61,1.01-.59,2.61-1,4.8-1.24-.01-.42-.08-.83-.2-1.22-.12-.39-.33-.71-.64-.95-.31-.24-.74-.36-1.28-.36-.59,0-1.14.11-1.66.33-.52.22-.98.46-1.39.73l-.67-1.18c.31-.21.67-.42,1.09-.62s.88-.37,1.37-.5c.49-.13,1.01-.2,1.56-.2.83,0,1.5.17,2.03.52.53.34.91.83,1.16,1.46.25.63.37,1.38.37,2.23v6.27h-1.43l-.15-1.22h-.06c-.49.41-1.02.75-1.58,1.04-.56.29-1.16.43-1.81.43ZM227.19,327.87c.5,0,.98-.11,1.42-.34.44-.22.91-.55,1.4-.99v-2.76c-1.15.14-2.06.32-2.72.54-.67.22-1.15.49-1.44.81-.29.32-.44.71-.44,1.16,0,.56.17.96.53,1.21s.77.37,1.26.37Z"/>
        <path class="st0" d="M237.63,329.3c-.74,0-1.45-.13-2.11-.39s-1.23-.62-1.69-1.08l.8-1.01c.45.36.92.64,1.4.84.48.2,1.04.29,1.67.29.67,0,1.18-.16,1.51-.47s.5-.69.5-1.12c0-.35-.12-.64-.35-.87-.23-.23-.52-.43-.86-.59-.34-.16-.71-.31-1.1-.45-.5-.18-.99-.4-1.45-.64-.46-.25-.84-.55-1.13-.93-.29-.37-.43-.84-.43-1.4,0-.83.31-1.52.94-2.07s1.49-.83,2.6-.83c.63,0,1.22.11,1.77.33.55.22,1.02.49,1.41.83l-.8.99c-.36-.25-.74-.45-1.12-.59-.38-.14-.8-.21-1.26-.21-.65,0-1.12.15-1.42.44-.3.29-.45.64-.45,1.03,0,.31.09.56.27.77.18.2.44.38.77.54.33.15.71.3,1.12.44.53.2,1.04.42,1.53.66.48.25.88.56,1.18.95.3.39.45.89.45,1.5,0,.56-.14,1.07-.43,1.53s-.71.82-1.26,1.1c-.55.28-1.24.42-2.05.42Z"/>
        <path class="st0" d="M246.44,329.3c-.74,0-1.45-.13-2.11-.39s-1.23-.62-1.69-1.08l.8-1.01c.45.36.92.64,1.4.84.48.2,1.04.29,1.67.29.67,0,1.18-.16,1.51-.47s.5-.69.5-1.12c0-.35-.12-.64-.35-.87-.23-.23-.52-.43-.86-.59-.34-.16-.71-.31-1.1-.45-.5-.18-.99-.4-1.45-.64-.46-.25-.84-.55-1.13-.93-.29-.37-.43-.84-.43-1.4,0-.83.31-1.52.94-2.07s1.49-.83,2.6-.83c.63,0,1.22.11,1.77.33.55.22,1.02.49,1.41.83l-.8.99c-.36-.25-.74-.45-1.12-.59-.38-.14-.8-.21-1.26-.21-.65,0-1.12.15-1.42.44-.3.29-.45.64-.45,1.03,0,.31.09.56.27.77.18.2.44.38.77.54.33.15.71.3,1.12.44.53.2,1.04.42,1.53.66.48.25.88.56,1.18.95.3.39.45.89.45,1.5,0,.56-.14,1.07-.43,1.53s-.71.82-1.26,1.1c-.55.28-1.24.42-2.05.42Z"/>
        <path class="st0" d="M253.45,316.72c-.34,0-.61-.1-.83-.32-.22-.21-.33-.48-.33-.82s.11-.61.33-.82c.22-.21.49-.32.83-.32s.61.1.83.32c.22.21.33.48.33.82s-.11.61-.33.82c-.22.21-.5.32-.83.32ZM252.58,329.04v-10.22h1.73v10.22h-1.73Z"/>
        <path class="st0" d="M257.76,329.04v-10.22h1.43l.15,1.47h.06c.49-.49,1.01-.9,1.56-1.23.55-.33,1.17-.49,1.87-.49,1.08,0,1.87.34,2.37,1.02.5.68.75,1.67.75,2.98v6.48h-1.72v-6.25c0-.97-.15-1.67-.45-2.09-.3-.43-.8-.64-1.48-.64-.52,0-.99.13-1.4.4-.41.27-.88.66-1.4,1.18v7.41h-1.73Z"/>
        <path class="st0" d="M271.62,329.3c-.56,0-1.07-.12-1.53-.35-.46-.23-.82-.56-1.08-.99s-.4-.95-.4-1.57c0-1.15.5-2.02,1.51-2.61,1.01-.59,2.61-1,4.8-1.24-.01-.42-.08-.83-.2-1.22-.12-.39-.33-.71-.64-.95-.31-.24-.74-.36-1.28-.36-.59,0-1.14.11-1.66.33-.52.22-.98.46-1.39.73l-.67-1.18c.31-.21.67-.42,1.09-.62s.88-.37,1.37-.5c.49-.13,1.01-.2,1.56-.2.83,0,1.5.17,2.03.52.53.34.91.83,1.16,1.46.25.63.37,1.38.37,2.23v6.27h-1.43l-.15-1.22h-.06c-.49.41-1.02.75-1.58,1.04-.56.29-1.16.43-1.81.43ZM272.11,327.87c.5,0,.98-.11,1.42-.34.44-.22.91-.55,1.4-.99v-2.76c-1.15.14-2.06.32-2.72.54-.67.22-1.15.49-1.44.81-.29.32-.44.71-.44,1.16,0,.56.17.96.53,1.21s.77.37,1.26.37Z"/>
        <path class="st0" d="M283.36,329.3c-1.29,0-2.32-.47-3.08-1.4-.76-.93-1.15-2.25-1.15-3.94,0-1.11.21-2.07.62-2.87.41-.81.96-1.43,1.63-1.86.67-.43,1.4-.65,2.19-.65.6,0,1.12.1,1.55.3.43.2.87.5,1.32.87l-.08-1.75v-3.93h1.75v14.98h-1.43l-.15-1.2h-.06c-.39.39-.86.73-1.39,1.02s-1.1.43-1.7.43ZM283.74,327.85c.48,0,.93-.12,1.35-.36s.84-.59,1.26-1.05v-5.34c-.42-.39-.83-.67-1.24-.83-.41-.16-.82-.24-1.24-.24-.55,0-1.04.17-1.48.5-.44.33-.8.79-1.06,1.37s-.4,1.27-.4,2.05c0,1.22.25,2.18.74,2.87.49.69,1.18,1.04,2.08,1.04Z"/>
        <path class="st0" d="M293.9,329.3c-.56,0-1.07-.12-1.53-.35-.46-.23-.82-.56-1.08-.99s-.4-.95-.4-1.57c0-1.15.5-2.02,1.51-2.61,1.01-.59,2.61-1,4.8-1.24-.01-.42-.08-.83-.2-1.22-.12-.39-.33-.71-.64-.95-.31-.24-.74-.36-1.28-.36-.59,0-1.14.11-1.66.33-.52.22-.98.46-1.39.73l-.67-1.18c.31-.21.67-.42,1.09-.62s.88-.37,1.37-.5c.49-.13,1.01-.2,1.56-.2.83,0,1.5.17,2.03.52.53.34.91.83,1.16,1.46.25.63.37,1.38.37,2.23v6.27h-1.43l-.15-1.22h-.06c-.49.41-1.02.75-1.58,1.04-.56.29-1.16.43-1.81.43ZM294.38,327.87c.5,0,.98-.11,1.42-.34.44-.22.91-.55,1.4-.99v-2.76c-1.15.14-2.06.32-2.72.54-.67.22-1.15.49-1.44.81-.29.32-.44.71-.44,1.16,0,.56.17.96.53,1.21s.77.37,1.26.37Z"/>
      </g>
      <rect class="st2" x="8.13" y="317.8" width="53.49" height="13.49" rx="4.81" ry="4.81"/>
    </g>
    <g>
      <g>
        <path class="st0" d="M74.85,362.83c.06-1.26.17-2.42.35-3.48s.42-2.05.74-2.99.72-1.84,1.2-2.74,1.07-1.8,1.76-2.72h-6.71v-1.49h8.65v1.07c-.8,1.01-1.46,1.98-1.99,2.91-.53.93-.94,1.88-1.24,2.83s-.52,1.96-.66,3.03c-.14,1.07-.24,2.26-.29,3.58h-1.79Z"/>
        <path class="st0" d="M86.95,363.08c-1.35,0-2.4-.61-3.17-1.82-.76-1.21-1.15-2.94-1.15-5.19s.38-3.98,1.15-5.15c.76-1.18,1.82-1.77,3.17-1.77s2.38.59,3.15,1.78c.76,1.19,1.15,2.9,1.15,5.14s-.38,3.97-1.15,5.19c-.76,1.21-1.81,1.82-3.15,1.82ZM86.95,361.7c.52,0,.97-.2,1.37-.59s.7-1,.92-1.83c.22-.83.33-1.89.33-3.2s-.11-2.38-.33-3.2-.52-1.41-.92-1.78c-.39-.37-.85-.56-1.37-.56s-1,.19-1.39.56c-.39.37-.7.96-.92,1.78s-.33,1.88-.33,3.2.11,2.37.33,3.2c.22.83.52,1.44.92,1.83s.86.59,1.39.59Z"/>
        <path class="st0" d="M96.04,357.49c-.63,0-1.18-.17-1.65-.51-.47-.34-.83-.84-1.09-1.49-.26-.65-.39-1.44-.39-2.37,0-1.39.29-2.46.86-3.21.58-.75,1.33-1.12,2.27-1.12s1.7.38,2.27,1.12c.58.75.86,1.82.86,3.21,0,.92-.13,1.71-.39,2.37s-.62,1.15-1.09,1.49c-.47.34-1.02.51-1.65.51ZM96.04,356.42c.55,0,.99-.28,1.31-.83s.49-1.38.49-2.47-.17-1.93-.49-2.46-.77-.8-1.31-.8-.97.27-1.32.8-.51,1.35-.51,2.46.17,1.92.51,2.47.78.83,1.32.83ZM96.44,363.08l7.62-14.31h1.18l-7.62,14.31h-1.18ZM105.65,363.08c-.63,0-1.18-.17-1.65-.52-.47-.34-.83-.84-1.09-1.49s-.39-1.44-.39-2.37c0-1.39.29-2.46.86-3.21.58-.75,1.33-1.13,2.27-1.13s1.7.38,2.27,1.13c.58.75.86,1.82.86,3.21,0,.93-.13,1.71-.39,2.37-.26.65-.62,1.15-1.09,1.49-.47.34-1.02.52-1.65.52ZM105.65,362.01c.55,0,.98-.28,1.31-.83.33-.55.49-1.38.49-2.47s-.17-1.93-.49-2.46c-.33-.53-.77-.8-1.31-.8s-.97.27-1.32.8c-.34.53-.52,1.35-.52,2.46s.17,1.92.52,2.47.78.83,1.32.83Z"/>
        <path class="st0" d="M115.43,362.83v-10.22h1.43l.15,1.47h.06c.49-.49,1.01-.9,1.56-1.23.55-.33,1.17-.49,1.87-.49,1.08,0,1.87.34,2.37,1.02.5.68.75,1.67.75,2.98v6.48h-1.72v-6.25c0-.97-.15-1.67-.45-2.09-.3-.43-.8-.64-1.48-.64-.52,0-.99.13-1.4.4-.41.27-.88.66-1.4,1.18v7.41h-1.73Z"/>
        <path class="st0" d="M129.29,363.08c-.56,0-1.07-.12-1.53-.35-.46-.23-.82-.56-1.08-.99s-.4-.95-.4-1.57c0-1.15.5-2.02,1.51-2.61,1.01-.59,2.61-1,4.8-1.24-.01-.42-.08-.83-.2-1.22-.12-.39-.33-.71-.64-.95-.31-.24-.74-.36-1.28-.36-.59,0-1.14.11-1.66.33-.52.22-.98.46-1.39.73l-.67-1.18c.31-.21.67-.42,1.09-.62s.88-.37,1.37-.5c.49-.13,1.01-.2,1.56-.2.83,0,1.5.17,2.03.52.53.34.91.83,1.16,1.46.25.63.37,1.38.37,2.23v6.27h-1.43l-.15-1.22h-.06c-.49.41-1.02.75-1.58,1.04-.56.29-1.16.43-1.81.43ZM132.35,350.69c-.37,0-.68-.09-.96-.26-.27-.17-.52-.38-.75-.62-.22-.24-.44-.44-.64-.62-.2-.17-.42-.26-.66-.26-.31,0-.54.15-.69.45s-.25.7-.29,1.21l-1.16-.06c.01-.56.1-1.06.25-1.48s.38-.76.68-1.01c.3-.25.7-.37,1.19-.37.38,0,.7.09.97.26.27.18.51.38.74.62.22.24.44.45.64.62.2.18.43.26.68.26.31,0,.54-.15.69-.46.15-.31.25-.71.27-1.2l1.16.08c-.01.53-.1,1.01-.25,1.44s-.38.77-.68,1.02c-.3.25-.7.38-1.19.38ZM129.78,361.65c.5,0,.98-.11,1.42-.34.44-.22.91-.55,1.4-.99v-2.76c-1.15.14-2.06.32-2.72.54-.67.22-1.15.49-1.44.81-.29.32-.44.71-.44,1.16,0,.56.17.96.53,1.21s.77.37,1.26.37Z"/>
        <path class="st0" d="M141.52,363.08c-.83,0-1.6-.21-2.32-.63-.72-.42-1.3-1.03-1.75-1.83-.44-.8-.66-1.76-.66-2.88s.22-2.12.66-2.92c.44-.8,1.02-1.41,1.75-1.83.72-.42,1.5-.63,2.32-.63s1.62.21,2.33.63c.72.42,1.29,1.03,1.74,1.83.44.8.66,1.77.66,2.92s-.22,2.08-.66,2.88c-.44.8-1.02,1.41-1.74,1.83-.71.42-1.49.63-2.33.63ZM141.52,361.65c.59,0,1.11-.17,1.56-.5.45-.33.79-.79,1.03-1.38.24-.59.36-1.27.36-2.04s-.12-1.48-.36-2.07c-.24-.6-.58-1.06-1.03-1.39-.45-.33-.97-.49-1.56-.49s-1.1.17-1.55.49c-.44.33-.79.79-1.03,1.39s-.37,1.29-.37,2.07.12,1.45.37,2.04c.25.59.59,1.05,1.03,1.38.44.33.96.5,1.55.5Z"/>
        <path class="st0" d="M156.37,363.02c-1.08,0-1.84-.32-2.27-.95-.43-.63-.65-1.45-.65-2.46v-5.6h-1.51v-1.3l1.6-.1.21-3.28h1.45v3.28h2.78v1.41h-2.78v5.62c0,.62.12,1.1.35,1.45.23.35.64.53,1.23.53.18,0,.37-.02.57-.05s.39-.1.59-.2l.38,1.22c-.27.13-.57.23-.9.32-.34.08-.68.13-1.03.13Z"/>
        <path class="st0" d="M164.11,363.08c-.91,0-1.74-.21-2.49-.64-.75-.43-1.34-1.04-1.78-1.83-.43-.79-.65-1.76-.65-2.89s.22-2.06.67-2.86c.45-.8,1.02-1.42,1.72-1.85s1.44-.65,2.23-.65c.87,0,1.61.2,2.22.6.61.4,1.07.96,1.38,1.67.31.71.46,1.56.46,2.52,0,.18,0,.36,0,.53,0,.17-.03.34-.07.5h-7.36v-1.37h5.89c0-.98-.21-1.74-.64-2.26-.43-.53-1.04-.79-1.84-.79-.46,0-.92.13-1.37.39-.45.26-.82.68-1.1,1.25-.29.58-.43,1.34-.43,2.29,0,.87.15,1.6.45,2.19.3.59.71,1.03,1.23,1.34.52.3,1.09.45,1.7.45.49,0,.95-.07,1.38-.21.43-.14.82-.33,1.17-.57l.63,1.14c-.45.31-.95.56-1.5.76s-1.18.29-1.88.29ZM160.18,350.84l2.86-3.47h1.51l2.86,3.47h-1.41l-2.17-2.17h-.08l-2.17,2.17h-1.41Z"/>
        <path class="st0" d="M170.4,362.83v-10.22h1.43l.15,1.47h.06c.45-.48.94-.88,1.46-1.22.53-.34,1.1-.5,1.71-.5.79,0,1.4.18,1.84.53.44.35.77.83.98,1.43.53-.59,1.07-1.06,1.62-1.42.55-.36,1.13-.54,1.75-.54,1.07,0,1.85.34,2.36,1.02s.76,1.67.76,2.98v6.48h-1.72v-6.25c0-.97-.15-1.67-.46-2.09s-.79-.64-1.43-.64c-.41,0-.82.13-1.23.39-.41.26-.86.66-1.34,1.19v7.41h-1.73v-6.25c0-.97-.15-1.67-.46-2.09s-.79-.64-1.45-.64c-.77,0-1.63.53-2.57,1.58v7.41h-1.73Z"/>
        <path class="st0" d="M196.11,363.08c-.91,0-1.73-.21-2.46-.63-.73-.42-1.3-1.03-1.73-1.83s-.63-1.76-.63-2.88.23-2.12.68-2.92c.46-.8,1.06-1.41,1.81-1.83.75-.42,1.56-.63,2.43-.63.67,0,1.25.11,1.74.34s.9.51,1.25.86l-.86,1.07c-.25-.25-.55-.45-.89-.6-.34-.15-.73-.22-1.17-.22-.6,0-1.15.17-1.63.5-.48.33-.87.79-1.15,1.38-.28.59-.42,1.28-.42,2.06s.13,1.45.4,2.04c.27.59.64,1.05,1.12,1.38.48.33,1.03.5,1.66.5.48,0,.92-.09,1.33-.27.41-.18.76-.41,1.05-.69l.76,1.05c-.44.41-.93.73-1.47.98-.55.25-1.15.37-1.81.37Z"/>
        <path class="st0" d="M203.79,363.08c-.56,0-1.07-.12-1.53-.35-.46-.23-.82-.56-1.08-.99s-.4-.95-.4-1.57c0-1.15.5-2.02,1.51-2.61,1.01-.59,2.61-1,4.8-1.24-.01-.42-.08-.83-.2-1.22-.12-.39-.33-.71-.64-.95-.31-.24-.74-.36-1.28-.36-.59,0-1.14.11-1.66.33-.52.22-.98.46-1.39.73l-.67-1.18c.31-.21.67-.42,1.09-.62s.88-.37,1.37-.5c.49-.13,1.01-.2,1.56-.2.83,0,1.5.17,2.03.52.53.34.91.83,1.16,1.46.25.63.37,1.38.37,2.23v6.27h-1.43l-.15-1.22h-.06c-.49.41-1.02.75-1.58,1.04-.56.29-1.16.43-1.81.43ZM204.27,361.65c.5,0,.98-.11,1.42-.34.44-.22.91-.55,1.4-.99v-2.76c-1.15.14-2.06.32-2.72.54-.67.22-1.15.49-1.44.81-.29.32-.44.71-.44,1.16,0,.56.17.96.53,1.21s.77.37,1.26.37Z"/>
        <path class="st0" d="M212.03,362.83v-10.22h1.43l.15,1.85h.06c.34-.64.76-1.16,1.26-1.54.5-.38,1.05-.57,1.64-.57.22,0,.42.01.59.04.17.03.34.08.5.17l-.38,1.47c-.15-.04-.3-.07-.43-.09-.13-.02-.3-.03-.51-.03-.44,0-.89.18-1.36.53s-.88.96-1.23,1.83v6.56h-1.73Z"/>
        <path class="st0" d="M222.55,363.02c-1.08,0-1.84-.32-2.27-.95-.43-.63-.65-1.45-.65-2.46v-5.6h-1.51v-1.3l1.6-.1.21-3.28h1.45v3.28h2.78v1.41h-2.78v5.62c0,.62.12,1.1.35,1.45.23.35.64.53,1.23.53.18,0,.37-.02.57-.05s.39-.1.59-.2l.38,1.22c-.27.13-.57.23-.9.32-.34.08-.68.13-1.03.13Z"/>
        <path class="st0" d="M230.29,363.08c-.91,0-1.74-.21-2.49-.64-.75-.43-1.34-1.04-1.78-1.83-.43-.79-.65-1.76-.65-2.89s.22-2.06.67-2.86c.45-.8,1.02-1.42,1.72-1.85s1.44-.65,2.23-.65c.87,0,1.61.2,2.22.6.61.4,1.07.96,1.38,1.67.31.71.46,1.56.46,2.52,0,.18,0,.36,0,.53,0,.17-.03.34-.07.5h-7.36v-1.37h5.89c0-.98-.21-1.74-.64-2.26-.43-.53-1.04-.79-1.84-.79-.46,0-.92.13-1.37.39-.45.26-.82.68-1.1,1.25-.29.58-.43,1.34-.43,2.29,0,.87.15,1.6.45,2.19.3.59.71,1.03,1.23,1.34.52.3,1.09.45,1.7.45.49,0,.95-.07,1.38-.21.43-.14.82-.33,1.17-.57l.63,1.14c-.45.31-.95.56-1.5.76s-1.18.29-1.88.29Z"/>
        <path class="st0" d="M237.45,350.5c-.34,0-.61-.1-.83-.32-.22-.21-.33-.48-.33-.82s.11-.61.33-.82c.22-.21.49-.32.83-.32s.61.1.83.32c.22.21.33.48.33.82s-.11.61-.33.82c-.22.21-.5.32-.83.32ZM236.58,362.83v-10.22h1.73v10.22h-1.73Z"/>
        <path class="st0" d="M241.76,362.83v-10.22h1.43l.15,1.85h.06c.34-.64.76-1.16,1.26-1.54.5-.38,1.05-.57,1.64-.57.22,0,.42.01.59.04.17.03.34.08.5.17l-.38,1.47c-.15-.04-.3-.07-.43-.09-.13-.02-.3-.03-.51-.03-.44,0-.89.18-1.36.53s-.88.96-1.23,1.83v6.56h-1.73Z"/>
        <path class="st0" d="M250.91,363.08c-.56,0-1.07-.12-1.53-.35-.46-.23-.82-.56-1.08-.99s-.4-.95-.4-1.57c0-1.15.5-2.02,1.51-2.61,1.01-.59,2.61-1,4.8-1.24-.01-.42-.08-.83-.2-1.22-.12-.39-.33-.71-.64-.95-.31-.24-.74-.36-1.28-.36-.59,0-1.14.11-1.66.33-.52.22-.98.46-1.39.73l-.67-1.18c.31-.21.67-.42,1.09-.62s.88-.37,1.37-.5c.49-.13,1.01-.2,1.56-.2.83,0,1.5.17,2.03.52.53.34.91.83,1.16,1.46.25.63.37,1.38.37,2.23v6.27h-1.43l-.15-1.22h-.06c-.49.41-1.02.75-1.58,1.04-.56.29-1.16.43-1.81.43ZM251.39,361.65c.5,0,.98-.11,1.42-.34.44-.22.91-.55,1.4-.99v-2.76c-1.15.14-2.06.32-2.72.54-.67.22-1.15.49-1.44.81-.29.32-.44.71-.44,1.16,0,.56.17.96.53,1.21s.77.37,1.26.37Z"/>
        <path class="st0" d="M265.72,363.08c-.56,0-1.07-.12-1.53-.35-.46-.23-.82-.56-1.08-.99s-.4-.95-.4-1.57c0-1.15.5-2.02,1.51-2.61,1.01-.59,2.61-1,4.8-1.24-.01-.42-.08-.83-.2-1.22-.12-.39-.33-.71-.64-.95-.31-.24-.74-.36-1.28-.36-.59,0-1.14.11-1.66.33-.52.22-.98.46-1.39.73l-.67-1.18c.31-.21.67-.42,1.09-.62s.88-.37,1.37-.5c.49-.13,1.01-.2,1.56-.2.83,0,1.5.17,2.03.52.53.34.91.83,1.16,1.46.25.63.37,1.38.37,2.23v6.27h-1.43l-.15-1.22h-.06c-.49.41-1.02.75-1.58,1.04-.56.29-1.16.43-1.81.43ZM266.2,361.65c.5,0,.98-.11,1.42-.34.44-.22.91-.55,1.4-.99v-2.76c-1.15.14-2.06.32-2.72.54-.67.22-1.15.49-1.44.81-.29.32-.44.71-.44,1.16,0,.56.17.96.53,1.21s.77.37,1.26.37Z"/>
        <path class="st0" d="M276.64,363.08c-.74,0-1.45-.13-2.11-.39s-1.23-.62-1.69-1.08l.8-1.01c.45.36.92.64,1.4.84.48.2,1.04.29,1.67.29.67,0,1.18-.16,1.51-.47s.5-.69.5-1.12c0-.35-.12-.64-.35-.87-.23-.23-.52-.43-.86-.59-.34-.16-.71-.31-1.1-.45-.5-.18-.99-.4-1.45-.64-.46-.25-.84-.55-1.13-.93-.29-.37-.43-.84-.43-1.4,0-.83.31-1.52.94-2.07s1.49-.83,2.6-.83c.63,0,1.22.11,1.77.33.55.22,1.02.49,1.41.83l-.8.99c-.36-.25-.74-.45-1.12-.59-.38-.14-.8-.21-1.26-.21-.65,0-1.12.15-1.42.44-.3.29-.45.64-.45,1.03,0,.31.09.56.27.77.18.2.44.38.77.54.33.15.71.3,1.12.44.53.2,1.04.42,1.53.66.48.25.88.56,1.18.95.3.39.45.89.45,1.5,0,.56-.14,1.07-.43,1.53s-.71.82-1.26,1.1c-.55.28-1.24.42-2.05.42Z"/>
        <path class="st0" d="M285.45,363.08c-.74,0-1.45-.13-2.11-.39s-1.23-.62-1.69-1.08l.8-1.01c.45.36.92.64,1.4.84.48.2,1.04.29,1.67.29.67,0,1.18-.16,1.51-.47s.5-.69.5-1.12c0-.35-.12-.64-.35-.87-.23-.23-.52-.43-.86-.59-.34-.16-.71-.31-1.1-.45-.5-.18-.99-.4-1.45-.64-.46-.25-.84-.55-1.13-.93-.29-.37-.43-.84-.43-1.4,0-.83.31-1.52.94-2.07s1.49-.83,2.6-.83c.63,0,1.22.11,1.77.33.55.22,1.02.49,1.41.83l-.8.99c-.36-.25-.74-.45-1.12-.59-.38-.14-.8-.21-1.26-.21-.65,0-1.12.15-1.42.44-.3.29-.45.64-.45,1.03,0,.31.09.56.27.77.18.2.44.38.77.54.33.15.71.3,1.12.44.53.2,1.04.42,1.53.66.48.25.88.56,1.18.95.3.39.45.89.45,1.5,0,.56-.14,1.07-.43,1.53s-.71.82-1.26,1.1c-.55.28-1.24.42-2.05.42Z"/>
        <path class="st0" d="M292.46,350.5c-.34,0-.61-.1-.83-.32-.22-.21-.33-.48-.33-.82s.11-.61.33-.82c.22-.21.49-.32.83-.32s.61.1.83.32c.22.21.33.48.33.82s-.11.61-.33.82c-.22.21-.5.32-.83.32ZM291.59,362.83v-10.22h1.73v10.22h-1.73Z"/>
        <path class="st0" d="M296.77,362.83v-10.22h1.43l.15,1.47h.06c.49-.49,1.01-.9,1.56-1.23.55-.33,1.17-.49,1.87-.49,1.08,0,1.87.34,2.37,1.02.5.68.75,1.67.75,2.98v6.48h-1.72v-6.25c0-.97-.15-1.67-.45-2.09-.3-.43-.8-.64-1.48-.64-.52,0-.99.13-1.4.4-.41.27-.88.66-1.4,1.18v7.41h-1.73Z"/>
        <path class="st0" d="M310.63,363.08c-.56,0-1.07-.12-1.53-.35-.46-.23-.82-.56-1.08-.99s-.4-.95-.4-1.57c0-1.15.5-2.02,1.51-2.61,1.01-.59,2.61-1,4.8-1.24-.01-.42-.08-.83-.2-1.22-.12-.39-.33-.71-.64-.95-.31-.24-.74-.36-1.28-.36-.59,0-1.14.11-1.66.33-.52.22-.98.46-1.39.73l-.67-1.18c.31-.21.67-.42,1.09-.62s.88-.37,1.37-.5c.49-.13,1.01-.2,1.56-.2.83,0,1.5.17,2.03.52.53.34.91.83,1.16,1.46.25.63.37,1.38.37,2.23v6.27h-1.43l-.15-1.22h-.06c-.49.41-1.02.75-1.58,1.04-.56.29-1.16.43-1.81.43ZM311.12,361.65c.5,0,.98-.11,1.42-.34.44-.22.91-.55,1.4-.99v-2.76c-1.15.14-2.06.32-2.72.54-.67.22-1.15.49-1.44.81-.29.32-.44.71-.44,1.16,0,.56.17.96.53,1.21s.77.37,1.26.37Z"/>
        <path class="st0" d="M322.37,363.08c-1.29,0-2.32-.47-3.08-1.4-.76-.93-1.15-2.25-1.15-3.94,0-1.11.21-2.07.62-2.87.41-.81.96-1.43,1.63-1.86.67-.43,1.4-.65,2.19-.65.6,0,1.12.1,1.55.3.43.2.87.5,1.32.87l-.08-1.75v-3.93h1.75v14.98h-1.43l-.15-1.2h-.06c-.39.39-.86.73-1.39,1.02s-1.1.43-1.7.43ZM322.75,361.63c.48,0,.93-.12,1.35-.36s.84-.59,1.26-1.05v-5.34c-.42-.39-.83-.67-1.24-.83-.41-.16-.82-.24-1.24-.24-.55,0-1.04.17-1.48.5-.44.33-.8.79-1.06,1.37s-.4,1.27-.4,2.05c0,1.22.25,2.18.74,2.87.49.69,1.18,1.04,2.08,1.04Z"/>
        <path class="st0" d="M332.91,363.08c-.56,0-1.07-.12-1.53-.35-.46-.23-.82-.56-1.08-.99s-.4-.95-.4-1.57c0-1.15.5-2.02,1.51-2.61,1.01-.59,2.61-1,4.8-1.24-.01-.42-.08-.83-.2-1.22-.12-.39-.33-.71-.64-.95-.31-.24-.74-.36-1.28-.36-.59,0-1.14.11-1.66.33-.52.22-.98.46-1.39.73l-.67-1.18c.31-.21.67-.42,1.09-.62s.88-.37,1.37-.5c.49-.13,1.01-.2,1.56-.2.83,0,1.5.17,2.03.52.53.34.91.83,1.16,1.46.25.63.37,1.38.37,2.23v6.27h-1.43l-.15-1.22h-.06c-.49.41-1.02.75-1.58,1.04-.56.29-1.16.43-1.81.43ZM333.4,361.65c.5,0,.98-.11,1.42-.34.44-.22.91-.55,1.4-.99v-2.76c-1.15.14-2.06.32-2.72.54-.67.22-1.15.49-1.44.81-.29.32-.44.71-.44,1.16,0,.56.17.96.53,1.21s.77.37,1.26.37Z"/>
      </g>
      <rect class="st1" x="9.42" y="351.59" width="53.49" height="13.49" rx="4.81" ry="4.81"/>
    </g>
  </g>
  <g>
    <g>
      <circle class="st1" cx="80.61" cy="202.54" r="10.86"/>
      <path class="st1" d="M68.28,215.49h1.46s21.73,0,21.73,0h1.46c4.4,0,7.96,3.57,7.96,7.96v3.36s0,20.45,0,20.45c0,2.2-1.78,3.98-3.98,3.98h0c-2.2,0-3.98-1.78-3.98-3.98v-19.72c0-.4-.33-.73-.73-.73h0c-.4,0-.73.33-.73.73v26.25s0,3.31,0,3.31v28.25c0,2.76-2.24,5-5,5h0c-2.76,0-5-2.24-5-5v-27.38c0-.48-.39-.87-.87-.87h0c-.48,0-.87.39-.87.87v27.38c0,2.76-2.24,5-5,5h0c-2.76,0-5-2.24-5-5v-28.25s0-3.31,0-3.31v-26.25c0-.4-.33-.73-.73-.73h0c-.4,0-.73.33-.73.73v19.72c0,2.2-1.78,3.98-3.98,3.98h0c-2.2,0-3.98-1.78-3.98-3.98v-20.45s0-3.36,0-3.36c0-4.4,3.57-7.96,7.96-7.96h0Z"/>
    </g>
    <g>
      <circle class="st1" cx="175.63" cy="202.54" r="10.86"/>
      <path class="st1" d="M163.31,215.49h1.46s21.73,0,21.73,0h1.46c4.4,0,7.96,3.57,7.96,7.96v3.36s0,20.45,0,20.45c0,2.2-1.78,3.98-3.98,3.98h0c-2.2,0-3.98-1.78-3.98-3.98v-19.72c0-.4-.33-.73-.73-.73h0c-.4,0-.73.33-.73.73v26.25s0,3.31,0,3.31v28.25c0,2.76-2.24,5-5,5h0c-2.76,0-5-2.24-5-5v-27.38c0-.48-.39-.87-.87-.87h0c-.48,0-.87.39-.87.87v27.38c0,2.76-2.24,5-5,5h0c-2.76,0-5-2.24-5-5v-28.25s0-3.31,0-3.31v-26.25c0-.4-.33-.73-.73-.73h0c-.4,0-.73.33-.73.73v19.72c0,2.2-1.78,3.98-3.98,3.98h0c-2.2,0-3.98-1.78-3.98-3.98v-20.45s0-3.36,0-3.36c0-4.4,3.57-7.96,7.96-7.96h0Z"/>
    </g>
    <g>
      <circle class="st1" cx="270.66" cy="202.54" r="10.86"/>
      <path class="st1" d="M258.34,215.49h1.46s21.73,0,21.73,0h1.46c4.4,0,7.96,3.57,7.96,7.96v3.36s0,20.45,0,20.45c0,2.2-1.78,3.98-3.98,3.98h0c-2.2,0-3.98-1.78-3.98-3.98v-19.72c0-.4-.33-.73-.73-.73h0c-.4,0-.73.33-.73.73v26.25s0,3.31,0,3.31v28.25c0,2.76-2.24,5-5,5h0c-2.76,0-5-2.24-5-5v-27.38c0-.48-.39-.87-.87-.87h0c-.48,0-.87.39-.87.87v27.38c0,2.76-2.24,5-5,5h0c-2.76,0-5-2.24-5-5v-28.25s0-3.31,0-3.31v-26.25c0-.4-.33-.73-.73-.73h0c-.4,0-.73.33-.73.73v19.72c0,2.2-1.78,3.98-3.98,3.98h0c-2.2,0-3.98-1.78-3.98-3.98v-20.45s0-3.36,0-3.36c0-4.4,3.57-7.96,7.96-7.96h0Z"/>
    </g>
    <g>
      <circle class="st1" cx="223.15" cy="202.54" r="10.86"/>
      <path class="st1" d="M210.82,215.49h1.46s21.73,0,21.73,0h1.46c4.4,0,7.96,3.57,7.96,7.96v3.36s0,20.45,0,20.45c0,2.2-1.78,3.98-3.98,3.98h0c-2.2,0-3.98-1.78-3.98-3.98v-19.72c0-.4-.33-.73-.73-.73h0c-.4,0-.73.33-.73.73v26.25s0,3.31,0,3.31v28.25c0,2.76-2.24,5-5,5h0c-2.76,0-5-2.24-5-5v-27.38c0-.48-.39-.87-.87-.87h0c-.48,0-.87.39-.87.87v27.38c0,2.76-2.24,5-5,5h0c-2.76,0-5-2.24-5-5v-28.25s0-3.31,0-3.31v-26.25c0-.4-.33-.73-.73-.73h0c-.4,0-.73.33-.73.73v19.72c0,2.2-1.78,3.98-3.98,3.98h0c-2.2,0-3.98-1.78-3.98-3.98v-20.45s0-3.36,0-3.36c0-4.4,3.57-7.96,7.96-7.96h0Z"/>
    </g>
    <g>
      <circle class="st1" cx="128.12" cy="202.54" r="10.86"/>
      <path class="st1" d="M115.8,215.49h1.46s21.73,0,21.73,0h1.46c4.4,0,7.96,3.57,7.96,7.96v3.36s0,20.45,0,20.45c0,2.2-1.78,3.98-3.98,3.98h0c-2.2,0-3.98-1.78-3.98-3.98v-19.72c0-.4-.33-.73-.73-.73h0c-.4,0-.73.33-.73.73v26.25s0,3.31,0,3.31v28.25c0,2.76-2.24,5-5,5h0c-2.76,0-5-2.24-5-5v-27.38c0-.48-.39-.87-.87-.87h0c-.48,0-.87.39-.87.87v27.38c0,2.76-2.24,5-5,5h0c-2.76,0-5-2.24-5-5v-28.25s0-3.31,0-3.31v-26.25c0-.4-.33-.73-.73-.73h0c-.4,0-.73.33-.73.73v19.72c0,2.2-1.78,3.98-3.98,3.98h0c-2.2,0-3.98-1.78-3.98-3.98v-20.45s0-3.36,0-3.36c0-4.4,3.57-7.96,7.96-7.96h0Z"/>
    </g>
  </g>
  <g>
    <g>
      <circle class="st2" cx="80.61" cy="91.04" r="10.86"/>
      <path class="st2" d="M68.28,103.99h1.46s21.73,0,21.73,0h1.46c4.4,0,7.96,3.57,7.96,7.96v3.36s0,20.45,0,20.45c0,2.2-1.78,3.98-3.98,3.98h0c-2.2,0-3.98-1.78-3.98-3.98v-19.72c0-.4-.33-.73-.73-.73h0c-.4,0-.73.33-.73.73v26.25s0,3.31,0,3.31v28.25c0,2.76-2.24,5-5,5h0c-2.76,0-5-2.24-5-5v-27.38c0-.48-.39-.87-.87-.87h0c-.48,0-.87.39-.87.87v27.38c0,2.76-2.24,5-5,5h0c-2.76,0-5-2.24-5-5v-28.25s0-3.31,0-3.31v-26.25c0-.4-.33-.73-.73-.73h0c-.4,0-.73.33-.73.73v19.72c0,2.2-1.78,3.98-3.98,3.98h0c-2.2,0-3.98-1.78-3.98-3.98v-20.45s0-3.36,0-3.36c0-4.4,3.57-7.96,7.96-7.96h0Z"/>
    </g>
    <g>
      <circle class="st2" cx="175.63" cy="91.04" r="10.86"/>
      <path class="st2" d="M163.31,103.99h1.46s21.73,0,21.73,0h1.46c4.4,0,7.96,3.57,7.96,7.96v3.36s0,20.45,0,20.45c0,2.2-1.78,3.98-3.98,3.98h0c-2.2,0-3.98-1.78-3.98-3.98v-19.72c0-.4-.33-.73-.73-.73h0c-.4,0-.73.33-.73.73v26.25s0,3.31,0,3.31v28.25c0,2.76-2.24,5-5,5h0c-2.76,0-5-2.24-5-5v-27.38c0-.48-.39-.87-.87-.87h0c-.48,0-.87.39-.87.87v27.38c0,2.76-2.24,5-5,5h0c-2.76,0-5-2.24-5-5v-28.25s0-3.31,0-3.31v-26.25c0-.4-.33-.73-.73-.73h0c-.4,0-.73.33-.73.73v19.72c0,2.2-1.78,3.98-3.98,3.98h0c-2.2,0-3.98-1.78-3.98-3.98v-20.45s0-3.36,0-3.36c0-4.4,3.57-7.96,7.96-7.96h0Z"/>
    </g>
    <g>
      <circle class="st1" cx="270.66" cy="91.04" r="10.86"/>
      <path class="st1" d="M258.34,103.99h1.46s21.73,0,21.73,0h1.46c4.4,0,7.96,3.57,7.96,7.96v3.36s0,20.45,0,20.45c0,2.2-1.78,3.98-3.98,3.98h0c-2.2,0-3.98-1.78-3.98-3.98v-19.72c0-.4-.33-.73-.73-.73h0c-.4,0-.73.33-.73.73v26.25s0,3.31,0,3.31v28.25c0,2.76-2.24,5-5,5h0c-2.76,0-5-2.24-5-5v-27.38c0-.48-.39-.87-.87-.87h0c-.48,0-.87.39-.87.87v27.38c0,2.76-2.24,5-5,5h0c-2.76,0-5-2.24-5-5v-28.25s0-3.31,0-3.31v-26.25c0-.4-.33-.73-.73-.73h0c-.4,0-.73.33-.73.73v19.72c0,2.2-1.78,3.98-3.98,3.98h0c-2.2,0-3.98-1.78-3.98-3.98v-20.45s0-3.36,0-3.36c0-4.4,3.57-7.96,7.96-7.96h0Z"/>
    </g>
    <g>
      <circle class="st1" cx="223.15" cy="91.04" r="10.86"/>
      <path class="st1" d="M210.82,103.99h1.46s21.73,0,21.73,0h1.46c4.4,0,7.96,3.57,7.96,7.96v3.36s0,20.45,0,20.45c0,2.2-1.78,3.98-3.98,3.98h0c-2.2,0-3.98-1.78-3.98-3.98v-19.72c0-.4-.33-.73-.73-.73h0c-.4,0-.73.33-.73.73v26.25s0,3.31,0,3.31v28.25c0,2.76-2.24,5-5,5h0c-2.76,0-5-2.24-5-5v-27.38c0-.48-.39-.87-.87-.87h0c-.48,0-.87.39-.87.87v27.38c0,2.76-2.24,5-5,5h0c-2.76,0-5-2.24-5-5v-28.25s0-3.31,0-3.31v-26.25c0-.4-.33-.73-.73-.73h0c-.4,0-.73.33-.73.73v19.72c0,2.2-1.78,3.98-3.98,3.98h0c-2.2,0-3.98-1.78-3.98-3.98v-20.45s0-3.36,0-3.36c0-4.4,3.57-7.96,7.96-7.96h0Z"/>
    </g>
    <g>
      <circle class="st2" cx="128.12" cy="91.04" r="10.86"/>
      <path class="st2" d="M115.8,103.99h1.46s21.73,0,21.73,0h1.46c4.4,0,7.96,3.57,7.96,7.96v3.36s0,20.45,0,20.45c0,2.2-1.78,3.98-3.98,3.98h0c-2.2,0-3.98-1.78-3.98-3.98v-19.72c0-.4-.33-.73-.73-.73h0c-.4,0-.73.33-.73.73v26.25s0,3.31,0,3.31v28.25c0,2.76-2.24,5-5,5h0c-2.76,0-5-2.24-5-5v-27.38c0-.48-.39-.87-.87-.87h0c-.48,0-.87.39-.87.87v27.38c0,2.76-2.24,5-5,5h0c-2.76,0-5-2.24-5-5v-28.25s0-3.31,0-3.31v-26.25c0-.4-.33-.73-.73-.73h0c-.4,0-.73.33-.73.73v19.72c0,2.2-1.78,3.98-3.98,3.98h0c-2.2,0-3.98-1.78-3.98-3.98v-20.45s0-3.36,0-3.36c0-4.4,3.57-7.96,7.96-7.96h0Z"/>
    </g>
  </g>
</svg>