<?xml version="1.0" encoding="UTF-8"?>
<svg id="Layer_1" xmlns="http://www.w3.org/2000/svg" version="1.1" viewBox="0 0 515.24 419.35">
  <!-- Generator: Adobe Illustrator 29.8.2, SVG Export Plug-In . SVG Version: 2.1.1 Build 3)  -->
  <defs>
    <style>
      .st0 {
        fill: #dfd0e6;
      }

      .st1 {
        fill: #231f20;
      }

      .st2 {
        fill: #fffaf0;
      }

      .st3 {
        fill: #e65b25;
      }

      .st4 {
        fill: #7251a0;
      }

      .st5 {
        fill: #f3d1af;
      }

      .st6 {
        fill: #434343;
      }
    </style>
  </defs>
  <g>
    <g>
      <path class="st1" d="M19.22,298.42h-9.2v-1.16h3.86v-4.29h-3.86v-1.16h9.2v1.16h-4.33v4.29h4.33v1.16Z"/>
      <path class="st1" d="M19.38,286.74c0,.55-.14,1.07-.42,1.55-.28.48-.69.87-1.22,1.16s-1.17.44-1.92.44-1.42-.15-1.95-.44c-.53-.29-.94-.68-1.22-1.16s-.42-1-.42-1.55.14-1.08.42-1.56.69-.86,1.22-1.16c.53-.29,1.18-.44,1.95-.44s1.39.15,1.92.44c.53.29.94.68,1.22,1.16.28.48.42,1,.42,1.56ZM18.43,286.74c0-.39-.11-.74-.33-1.04-.22-.3-.53-.53-.92-.69-.39-.16-.85-.24-1.36-.24s-.98.08-1.38.24-.71.39-.93.69c-.22.3-.33.65-.33,1.04s.11.74.33,1.03c.22.29.53.52.93.69.4.16.86.25,1.38.25s.97-.08,1.36-.25c.39-.16.7-.39.92-.69.22-.29.33-.64.33-1.03Z"/>
      <path class="st1" d="M19.22,281.79h-6.82v-.95l1.23-.1v-.04c-.43-.22-.77-.5-1.02-.84-.25-.34-.38-.7-.38-1.09,0-.15,0-.28.03-.39s.06-.22.11-.34l.98.25c-.03.1-.05.2-.06.29-.01.09-.02.2-.02.34,0,.29.12.59.35.91s.64.59,1.22.82h4.38v1.15Z"/>
      <path class="st1" d="M19.38,275.68c0,.37-.08.71-.23,1.02s-.37.54-.66.72c-.29.18-.63.27-1.04.27-.77,0-1.35-.34-1.74-1.01-.39-.67-.67-1.74-.83-3.2-.28,0-.55.05-.81.13-.26.08-.47.22-.63.43-.16.21-.24.49-.24.86,0,.39.07.76.22,1.11.14.35.31.65.48.93l-.79.45c-.14-.21-.28-.45-.41-.73s-.25-.58-.34-.91c-.09-.33-.13-.67-.13-1.04,0-.55.11-1,.34-1.35s.55-.61.97-.77.92-.25,1.49-.25h4.18v.95l-.81.1v.04c.27.33.5.68.69,1.05s.29.78.29,1.21ZM18.43,275.36c0-.34-.08-.65-.22-.95-.15-.29-.37-.61-.66-.93h-1.84c.09.77.21,1.37.36,1.82s.33.76.54.96.47.29.77.29c.37,0,.64-.12.81-.35.16-.23.25-.51.25-.84Z"/>
      <path class="st1" d="M19.38,268.41c0,.5-.09.97-.26,1.41s-.41.82-.72,1.13l-.67-.53c.24-.3.43-.61.56-.93s.2-.69.2-1.12c0-.45-.11-.79-.32-1.01-.21-.22-.46-.34-.75-.34-.23,0-.43.08-.58.23s-.29.35-.39.58c-.11.23-.21.47-.3.74-.12.34-.26.66-.43.97-.16.31-.37.56-.62.75s-.56.29-.93.29c-.55,0-1.01-.21-1.38-.62-.37-.42-.55-.99-.55-1.73,0-.42.07-.81.22-1.18.14-.36.33-.68.55-.94l.66.53c-.17.24-.3.49-.39.74-.09.25-.14.53-.14.84,0,.43.1.75.29.95s.43.3.69.3c.21,0,.38-.06.51-.18s.25-.29.36-.51.2-.47.29-.75c.13-.35.28-.69.44-1.02.16-.32.37-.58.63-.79.26-.2.59-.3,1-.3.37,0,.71.1,1.02.29.3.19.55.47.74.84.19.37.28.83.28,1.37Z"/>
      <path class="st1" d="M19.34,259.36c0,.72-.21,1.22-.63,1.51s-.97.43-1.64.43h-3.73v1.01h-.87l-.07-1.07-2.19-.14v-.97h2.19v-1.85h.94v1.85h3.74c.41,0,.73-.08.97-.23s.35-.43.35-.82c0-.12-.01-.25-.04-.38-.02-.13-.07-.26-.13-.39l.81-.25c.08.18.15.38.21.6.06.22.08.45.08.69Z"/>
      <path class="st1" d="M19.22,256.77h-6.82v-.95l1.23-.1v-.04c-.43-.22-.77-.5-1.02-.84-.25-.34-.38-.7-.38-1.09,0-.15,0-.28.03-.39s.06-.22.11-.34l.98.25c-.03.1-.05.2-.06.29-.01.09-.02.2-.02.34,0,.29.12.59.35.91s.64.59,1.22.82h4.38v1.15Z"/>
      <path class="st1" d="M19.38,250.67c0,.37-.08.71-.23,1.02s-.37.54-.66.72c-.29.18-.63.27-1.04.27-.77,0-1.35-.34-1.74-1.01-.39-.67-.67-1.74-.83-3.2-.28,0-.55.05-.81.13-.26.08-.47.22-.63.43-.16.21-.24.49-.24.86,0,.39.07.76.22,1.11.14.35.31.65.48.93l-.79.45c-.14-.21-.28-.45-.41-.73s-.25-.58-.34-.91c-.09-.33-.13-.67-.13-1.04,0-.55.11-1,.34-1.35s.55-.61.97-.77.92-.25,1.49-.25h4.18v.95l-.81.1v.04c.27.33.5.68.69,1.05s.29.78.29,1.21ZM18.43,250.34c0-.34-.08-.65-.22-.95-.15-.29-.37-.61-.66-.93h-1.84c.09.77.21,1.37.36,1.82s.33.76.54.96.47.29.77.29c.37,0,.64-.12.81-.35.16-.23.25-.51.25-.84Z"/>
      <path class="st1" d="M19.38,242.15c0,.32-.08.64-.23.98s-.37.66-.64.97v.04l.7.1v.92h-9.99v-1.15h2.72l1.23.03c-.27-.31-.5-.65-.68-1.02-.18-.37-.27-.74-.27-1.11,0-.59.14-1.09.43-1.49.29-.4.69-.71,1.21-.91.52-.21,1.13-.31,1.83-.31.78,0,1.44.14,1.99.41.55.28.97.64,1.26,1.09.29.45.43.93.43,1.45ZM18.42,242.35c0-.37-.11-.71-.32-1s-.53-.53-.93-.69c-.41-.17-.89-.25-1.45-.25-.5,0-.93.06-1.31.18-.38.12-.67.31-.88.58-.21.26-.32.61-.32,1.04,0,.28.08.57.23.88.15.3.39.62.69.95h3.58c.26-.3.45-.6.55-.89.11-.29.16-.55.16-.78Z"/>
      <path class="st1" d="M19.38,236.04c0,.37-.08.71-.23,1.02s-.37.54-.66.72c-.29.18-.63.27-1.04.27-.77,0-1.35-.34-1.74-1.01-.39-.67-.67-1.74-.83-3.2-.28,0-.55.05-.81.13-.26.08-.47.22-.63.43-.16.21-.24.49-.24.86,0,.39.07.76.22,1.11.14.35.31.65.48.93l-.79.45c-.14-.21-.28-.45-.41-.73s-.25-.58-.34-.91c-.09-.33-.13-.67-.13-1.04,0-.55.11-1,.34-1.35s.55-.61.97-.77.92-.25,1.49-.25h4.18v.95l-.81.1v.04c.27.33.5.68.69,1.05s.29.78.29,1.21ZM18.43,235.71c0-.34-.08-.65-.22-.95-.15-.29-.37-.61-.66-.93h-1.84c.09.77.21,1.37.36,1.82s.33.76.54.96.47.29.77.29c.37,0,.64-.12.81-.35.16-.23.25-.51.25-.84Z"/>
      <path class="st1" d="M19.34,229.32c0,.29-.06.52-.17.7-.12.18-.29.31-.52.39-.23.08-.51.13-.83.13h-8.58v-1.15h8.67c.19,0,.32-.03.39-.1s.11-.14.11-.24c0-.04,0-.07,0-.11,0-.03-.01-.08-.02-.13l.87-.17c.03.08.05.18.08.29s.04.24.04.39Z"/>
      <path class="st1" d="M19.22,226.96h-9.99v-1.15h2.72l1.4.04c-.31-.33-.57-.67-.79-1.03-.22-.36-.33-.77-.33-1.24,0-.72.23-1.25.68-1.58.45-.33,1.11-.5,1.98-.5h4.32v1.15h-4.17c-.65,0-1.11.1-1.4.3s-.43.53-.43.99c0,.35.09.66.27.93.18.28.44.59.79.93h4.94v1.15Z"/>
      <path class="st1" d="M19.38,217.76c0,.37-.08.71-.23,1.02s-.37.54-.66.72c-.29.18-.63.27-1.04.27-.77,0-1.35-.34-1.74-1.01-.39-.67-.67-1.74-.83-3.2-.28,0-.55.05-.81.13-.26.08-.47.22-.63.43-.16.21-.24.49-.24.86,0,.39.07.76.22,1.11.14.35.31.65.48.93l-.79.45c-.14-.21-.28-.45-.41-.73s-.25-.58-.34-.91c-.09-.33-.13-.67-.13-1.04,0-.55.11-1,.34-1.35s.55-.61.97-.77.92-.25,1.49-.25h4.18v.95l-.81.1v.04c.27.33.5.68.69,1.05s.29.78.29,1.21ZM18.43,217.44c0-.34-.08-.65-.22-.95-.15-.29-.37-.61-.66-.93h-1.84c.09.77.21,1.37.36,1.82s.33.76.54.96.47.29.77.29c.37,0,.64-.12.81-.35.16-.23.25-.51.25-.84Z"/>
      <path class="st1" d="M19.38,209.94c0,.86-.31,1.55-.93,2.05-.62.51-1.5.76-2.63.76-.74,0-1.38-.14-1.92-.41-.54-.28-.95-.64-1.24-1.09-.29-.45-.43-.93-.43-1.46,0-.4.07-.75.2-1.03.14-.29.33-.58.58-.88l-1.16.06h-2.62v-1.16h9.99v.95l-.8.1v.04c.26.26.49.57.68.93s.29.73.29,1.14ZM18.42,209.69c0-.32-.08-.62-.24-.9-.16-.28-.39-.56-.7-.84h-3.56c-.26.28-.45.56-.55.83-.11.27-.16.55-.16.83,0,.36.11.69.33.99.22.29.52.53.91.71.39.18.84.27,1.37.27.81,0,1.45-.16,1.92-.49.46-.33.69-.79.69-1.39Z"/>
      <path class="st1" d="M19.38,202.91c0,.37-.08.71-.23,1.02s-.37.54-.66.72c-.29.18-.63.27-1.04.27-.77,0-1.35-.34-1.74-1.01-.39-.67-.67-1.74-.83-3.2-.28,0-.55.05-.81.13-.26.08-.47.22-.63.43-.16.21-.24.49-.24.86,0,.39.07.76.22,1.11.14.35.31.65.48.93l-.79.45c-.14-.21-.28-.45-.41-.73s-.25-.58-.34-.91c-.09-.33-.13-.67-.13-1.04,0-.55.11-1,.34-1.35s.55-.61.97-.77.92-.25,1.49-.25h4.18v.95l-.81.1v.04c.27.33.5.68.69,1.05s.29.78.29,1.21ZM18.43,202.59c0-.34-.08-.65-.22-.95-.15-.29-.37-.61-.66-.93h-1.84c.09.77.21,1.37.36,1.82s.33.76.54.96.47.29.77.29c.37,0,.64-.12.81-.35.16-.23.25-.51.25-.84Z"/>
      <path class="st1" d="M19.38,195.63c0,.5-.09.97-.26,1.41s-.41.82-.72,1.13l-.67-.53c.24-.3.43-.61.56-.93s.2-.69.2-1.12c0-.45-.11-.79-.32-1.01-.21-.22-.46-.34-.75-.34-.23,0-.43.08-.58.23s-.29.35-.39.58c-.11.23-.21.47-.3.74-.12.34-.26.66-.43.97-.16.31-.37.56-.62.75s-.56.29-.93.29c-.55,0-1.01-.21-1.38-.62-.37-.42-.55-.99-.55-1.73,0-.42.07-.81.22-1.18.14-.36.33-.68.55-.94l.66.53c-.17.24-.3.49-.39.74-.09.25-.14.53-.14.84,0,.43.1.75.29.95s.43.3.69.3c.21,0,.38-.06.51-.18s.25-.29.36-.51.2-.47.29-.75c.13-.35.28-.69.44-1.02.16-.32.37-.58.63-.79.26-.2.59-.3,1-.3.37,0,.71.1,1.02.29.3.19.55.47.74.84.19.37.28.83.28,1.37Z"/>
      <path class="st1" d="M19.38,186.03c0,.61-.14,1.15-.42,1.64-.28.49-.69.87-1.22,1.15-.53.28-1.17.42-1.92.42s-1.42-.15-1.95-.46c-.53-.3-.94-.71-1.22-1.21s-.42-1.04-.42-1.62c0-.45.08-.83.22-1.16s.34-.6.58-.83l.71.57c-.17.17-.3.37-.4.6-.1.23-.15.49-.15.78,0,.4.11.76.33,1.09.22.32.53.58.92.76.39.19.85.28,1.38.28s.97-.09,1.36-.27c.39-.18.7-.43.92-.74.22-.32.33-.69.33-1.11,0-.32-.06-.61-.18-.88-.12-.27-.28-.5-.46-.7l.7-.5c.27.29.49.62.65.98.16.36.25.77.25,1.21Z"/>
      <path class="st1" d="M19.38,179.98c0,.55-.14,1.07-.42,1.55-.28.48-.69.87-1.22,1.16s-1.17.44-1.92.44-1.42-.15-1.95-.44c-.53-.29-.94-.68-1.22-1.16s-.42-1-.42-1.55.14-1.08.42-1.56.69-.86,1.22-1.16c.53-.29,1.18-.44,1.95-.44s1.39.15,1.92.44c.53.29.94.68,1.22,1.16.28.48.42,1,.42,1.56ZM18.43,179.98c0-.39-.11-.74-.33-1.04-.22-.3-.53-.53-.92-.69-.39-.16-.85-.24-1.36-.24s-.98.08-1.38.24-.71.39-.93.69c-.22.3-.33.65-.33,1.04s.11.74.33,1.03c.22.29.53.52.93.69.4.16.86.25,1.38.25s.97-.08,1.36-.25c.39-.16.7-.39.92-.69.22-.29.33-.64.33-1.03Z"/>
      <path class="st1" d="M19.22,175.03h-6.82v-.95l.98-.1v-.04c-.32-.3-.59-.62-.81-.97-.22-.35-.34-.73-.34-1.14,0-.52.12-.93.35-1.23s.55-.51.95-.65c-.39-.36-.71-.71-.95-1.08-.24-.36-.36-.75-.36-1.16,0-.71.23-1.23.68-1.57.45-.34,1.11-.5,1.98-.5h4.32v1.15h-4.17c-.65,0-1.11.1-1.4.31-.29.21-.43.52-.43.95,0,.27.09.54.26.82.17.28.44.57.79.89h4.94v1.15h-4.17c-.65,0-1.11.1-1.4.31-.29.21-.43.53-.43.97,0,.51.35,1.08,1.05,1.71h4.94v1.15Z"/>
      <path class="st1" d="M19.38,159.03c0,.37-.08.71-.23,1.02s-.37.54-.66.72c-.29.18-.63.27-1.04.27-.77,0-1.35-.34-1.74-1.01-.39-.67-.67-1.74-.83-3.2-.28,0-.55.05-.81.13-.26.08-.47.22-.63.43-.16.21-.24.49-.24.86,0,.39.07.76.22,1.11.14.35.31.65.48.93l-.79.45c-.14-.21-.28-.45-.41-.73s-.25-.58-.34-.91c-.09-.33-.13-.67-.13-1.04,0-.55.11-1,.34-1.35s.55-.61.97-.77.92-.25,1.49-.25h4.18v.95l-.81.1v.04c.27.33.5.68.69,1.05s.29.78.29,1.21ZM18.43,158.71c0-.34-.08-.65-.22-.95-.15-.29-.37-.61-.66-.93h-1.84c.09.77.21,1.37.36,1.82s.33.76.54.96.47.29.77.29c.37,0,.64-.12.81-.35.16-.23.25-.51.25-.84Z"/>
      <path class="st1" d="M19.34,151.58c0,.72-.21,1.22-.63,1.51s-.97.43-1.64.43h-3.73v1.01h-.87l-.07-1.07-2.19-.14v-.97h2.19v-1.85h.94v1.85h3.74c.41,0,.73-.08.97-.23s.35-.43.35-.82c0-.12-.01-.25-.04-.38-.02-.13-.07-.26-.13-.39l.81-.25c.08.18.15.38.21.6.06.22.08.45.08.69Z"/>
      <path class="st1" d="M11,148.41c0,.22-.07.41-.21.55-.14.14-.32.22-.55.22s-.41-.07-.55-.22c-.14-.14-.21-.33-.21-.55s.07-.41.21-.55c.14-.14.32-.22.55-.22s.41.07.55.22c.14.15.21.33.21.55ZM19.22,148.99h-6.82v-1.15h6.82v1.15Z"/>
      <path class="st1" d="M19.22,144.06l-6.82,2.46v-1.19l3.87-1.29c.33-.1.66-.21,1-.32.34-.11.68-.21,1-.32v-.06c-.33-.09-.66-.2-1-.31-.34-.11-.68-.21-1-.31l-3.87-1.29v-1.14l6.82,2.41v1.35Z"/>
      <path class="st1" d="M11,138.41c0,.22-.07.41-.21.55-.14.14-.32.22-.55.22s-.41-.07-.55-.22c-.14-.14-.21-.33-.21-.55s.07-.41.21-.55c.14-.14.32-.22.55-.22s.41.07.55.22c.14.15.21.33.21.55ZM19.22,138.99h-6.82v-1.15h6.82v1.15Z"/>
      <path class="st1" d="M19.38,133.21c0,.86-.31,1.55-.93,2.05-.62.51-1.5.76-2.63.76-.74,0-1.38-.14-1.92-.41-.54-.28-.95-.64-1.24-1.09-.29-.45-.43-.93-.43-1.46,0-.4.07-.75.2-1.03.14-.29.33-.58.58-.88l-1.16.06h-2.62v-1.16h9.99v.95l-.8.1v.04c.26.26.49.57.68.93s.29.73.29,1.14ZM18.42,132.96c0-.32-.08-.62-.24-.9-.16-.28-.39-.56-.7-.84h-3.56c-.26.28-.45.56-.55.83-.11.27-.16.55-.16.83,0,.36.11.69.33.99.22.29.52.53.91.71.39.18.84.27,1.37.27.81,0,1.45-.16,1.92-.49.46-.33.69-.79.69-1.39Z"/>
      <path class="st1" d="M19.38,126.18c0,.37-.08.71-.23,1.02s-.37.54-.66.72c-.29.18-.63.27-1.04.27-.77,0-1.35-.34-1.74-1.01-.39-.67-.67-1.74-.83-3.2-.28,0-.55.05-.81.13-.26.08-.47.22-.63.43-.16.21-.24.49-.24.86,0,.39.07.76.22,1.11.14.35.31.65.48.93l-.79.45c-.14-.21-.28-.45-.41-.73s-.25-.58-.34-.91c-.09-.33-.13-.67-.13-1.04,0-.55.11-1,.34-1.35s.55-.61.97-.77.92-.25,1.49-.25h4.18v.95l-.81.1v.04c.27.33.5.68.69,1.05s.29.78.29,1.21ZM18.43,125.86c0-.34-.08-.65-.22-.95-.15-.29-.37-.61-.66-.93h-1.84c.09.77.21,1.37.36,1.82s.33.76.54.96.47.29.77.29c.37,0,.64-.12.81-.35.16-.23.25-.51.25-.84Z"/>
      <path class="st1" d="M19.38,118.36c0,.86-.31,1.55-.93,2.05-.62.51-1.5.76-2.63.76-.74,0-1.38-.14-1.92-.41-.54-.28-.95-.64-1.24-1.09-.29-.45-.43-.93-.43-1.46,0-.4.07-.75.2-1.03.14-.29.33-.58.58-.88l-1.16.06h-2.62v-1.16h9.99v.95l-.8.1v.04c.26.26.49.57.68.93s.29.73.29,1.14ZM18.42,118.11c0-.32-.08-.62-.24-.9-.16-.28-.39-.56-.7-.84h-3.56c-.26.28-.45.56-.55.83-.11.27-.16.55-.16.83,0,.36.11.69.33.99.22.29.52.53.91.71.39.18.84.27,1.37.27.81,0,1.45-.16,1.92-.49.46-.33.69-.79.69-1.39Z"/>
      <path class="st1" d="M19.38,110.14c0,.61-.14,1.16-.43,1.66s-.69.9-1.22,1.19c-.53.29-1.17.43-1.93.43s-1.37-.15-1.91-.45c-.53-.3-.94-.68-1.23-1.15-.29-.47-.43-.96-.43-1.49,0-.58.13-1.07.4-1.48.27-.41.64-.71,1.12-.92.48-.21,1.04-.31,1.68-.31.12,0,.24,0,.35,0,.11,0,.22.02.34.05v4.91h-.91v-3.93c-.65,0-1.16.14-1.51.43s-.53.69-.53,1.23c0,.31.09.61.26.91.17.3.45.54.83.74.38.19.89.29,1.53.29.58,0,1.07-.1,1.46-.3.39-.2.69-.47.89-.82.2-.35.3-.72.3-1.14,0-.33-.05-.63-.14-.92-.09-.29-.22-.54-.38-.78l.76-.42c.21.3.37.63.5,1s.2.79.2,1.25Z"/>
      <path class="st1" d="M19.38,104.16c0,.5-.09.97-.26,1.41s-.41.82-.72,1.13l-.67-.53c.24-.3.43-.61.56-.93s.2-.69.2-1.12c0-.45-.11-.79-.32-1.01-.21-.22-.46-.34-.75-.34-.23,0-.43.08-.58.23s-.29.35-.39.58c-.11.23-.21.47-.3.74-.12.34-.26.66-.43.97-.16.31-.37.56-.62.75s-.56.29-.93.29c-.55,0-1.01-.21-1.38-.62-.37-.42-.55-.99-.55-1.73,0-.42.07-.81.22-1.18.14-.36.33-.68.55-.94l.66.53c-.17.24-.3.49-.39.74-.09.25-.14.53-.14.84,0,.43.1.75.29.95s.43.3.69.3c.21,0,.38-.06.51-.18s.25-.29.36-.51.2-.47.29-.75c.13-.35.28-.69.44-1.02.16-.32.37-.58.63-.79.26-.2.59-.3,1-.3.37,0,.71.1,1.02.29.3.19.55.47.74.84.19.37.28.83.28,1.37Z"/>
      <path class="st1" d="M19.38,94.94c0,.86-.31,1.55-.93,2.05-.62.51-1.5.76-2.63.76-.74,0-1.38-.14-1.92-.41-.54-.28-.95-.64-1.24-1.09-.29-.45-.43-.93-.43-1.46,0-.4.07-.75.2-1.03.14-.29.33-.58.58-.88l-1.16.06h-2.62v-1.16h9.99v.95l-.8.1v.04c.26.26.49.57.68.93s.29.73.29,1.14ZM18.42,94.68c0-.32-.08-.62-.24-.9-.16-.28-.39-.56-.7-.84h-3.56c-.26.28-.45.56-.55.83-.11.27-.16.55-.16.83,0,.36.11.69.33.99.22.29.52.53.91.71.39.18.84.27,1.37.27.81,0,1.45-.16,1.92-.49.46-.33.69-.79.69-1.39Z"/>
      <path class="st1" d="M19.38,86.83c0,.55-.14,1.07-.42,1.55-.28.48-.69.87-1.22,1.16s-1.17.44-1.92.44-1.42-.15-1.95-.44c-.53-.29-.94-.68-1.22-1.16s-.42-1-.42-1.55.14-1.08.42-1.56.69-.86,1.22-1.16c.53-.29,1.18-.44,1.95-.44s1.39.15,1.92.44c.53.29.94.68,1.22,1.16.28.48.42,1,.42,1.56ZM18.43,86.83c0-.39-.11-.74-.33-1.04-.22-.3-.53-.53-.92-.69-.39-.16-.85-.24-1.36-.24s-.98.08-1.38.24-.71.39-.93.69c-.22.3-.33.65-.33,1.04s.11.74.33,1.03c.22.29.53.52.93.69.4.16.86.25,1.38.25s.97-.08,1.36-.25c.39-.16.7-.39.92-.69.22-.29.33-.64.33-1.03Z"/>
      <path class="st1" d="M19.38,80.13c0,.5-.09.97-.26,1.41s-.41.82-.72,1.13l-.67-.53c.24-.3.43-.61.56-.93s.2-.69.2-1.12c0-.45-.11-.79-.32-1.01-.21-.22-.46-.34-.75-.34-.23,0-.43.08-.58.23s-.29.35-.39.58c-.11.23-.21.47-.3.74-.12.34-.26.66-.43.97-.16.31-.37.56-.62.75s-.56.29-.93.29c-.55,0-1.01-.21-1.38-.62-.37-.42-.55-.99-.55-1.73,0-.42.07-.81.22-1.18.14-.36.33-.68.55-.94l.66.53c-.17.24-.3.49-.39.74-.09.25-.14.53-.14.84,0,.43.1.75.29.95s.43.3.69.3c.21,0,.38-.06.51-.18s.25-.29.36-.51.2-.47.29-.75c.13-.35.28-.69.44-1.02.16-.32.37-.58.63-.79.26-.2.59-.3,1-.3.37,0,.71.1,1.02.29.3.19.55.47.74.84.19.37.28.83.28,1.37Z"/>
      <path class="st1" d="M19.38,70.52c0,.61-.14,1.15-.42,1.64-.28.49-.69.87-1.22,1.15-.53.28-1.17.42-1.92.42s-1.42-.15-1.95-.46c-.53-.3-.94-.71-1.22-1.21s-.42-1.04-.42-1.62c0-.45.08-.83.22-1.16s.34-.6.58-.83l.71.57c-.17.17-.3.37-.4.6-.1.23-.15.49-.15.78,0,.4.11.76.33,1.09.22.32.53.58.92.76.39.19.85.28,1.38.28s.97-.09,1.36-.27c.39-.18.7-.43.92-.74.22-.32.33-.69.33-1.11,0-.32-.06-.61-.18-.88-.12-.27-.28-.5-.46-.7l.7-.5c.27.29.49.62.65.98.16.36.25.77.25,1.21Z"/>
      <path class="st1" d="M19.38,64.84c0,.72-.23,1.25-.68,1.58s-1.12.5-1.98.5h-4.32v-1.15h4.17c.64,0,1.1-.1,1.38-.3s.43-.53.43-.97c0-.35-.09-.66-.27-.93-.18-.28-.47-.58-.86-.9h-4.84v-1.15h6.82v.95l-1.07.1v.04c.37.31.67.64.9,1,.22.36.34.77.34,1.24Z"/>
      <path class="st1" d="M11,58.63c0,.22-.07.41-.21.55-.14.14-.32.22-.55.22s-.41-.07-.55-.22c-.14-.14-.21-.33-.21-.55s.07-.41.21-.55c.14-.14.32-.22.55-.22s.41.07.55.22c.14.15.21.33.21.55ZM19.22,59.2h-6.82v-1.15h6.82v1.15Z"/>
      <path class="st1" d="M19.38,53.42c0,.86-.31,1.55-.93,2.05-.62.51-1.5.76-2.63.76-.74,0-1.38-.14-1.92-.41-.54-.28-.95-.64-1.24-1.09-.29-.45-.43-.93-.43-1.46,0-.4.07-.75.2-1.03.14-.29.33-.58.58-.88l-1.16.06h-2.62v-1.16h9.99v.95l-.8.1v.04c.26.26.49.57.68.93s.29.73.29,1.14ZM18.42,53.17c0-.32-.08-.62-.24-.9-.16-.28-.39-.56-.7-.84h-3.56c-.26.28-.45.56-.55.83-.11.27-.16.55-.16.83,0,.36.11.69.33.99.22.29.52.53.91.71.39.18.84.27,1.37.27.81,0,1.45-.16,1.92-.49.46-.33.69-.79.69-1.39Z"/>
      <path class="st1" d="M19.38,46.4c0,.37-.08.71-.23,1.02s-.37.54-.66.72c-.29.18-.63.27-1.04.27-.77,0-1.35-.34-1.74-1.01-.39-.67-.67-1.74-.83-3.2-.28,0-.55.05-.81.13-.26.08-.47.22-.63.43-.16.21-.24.49-.24.86,0,.39.07.76.22,1.11.14.35.31.65.48.93l-.79.45c-.14-.21-.28-.45-.41-.73s-.25-.58-.34-.91c-.09-.33-.13-.67-.13-1.04,0-.55.11-1,.34-1.35s.55-.61.97-.77.92-.25,1.49-.25h4.18v.95l-.81.1v.04c.27.33.5.68.69,1.05s.29.78.29,1.21ZM18.43,46.08c0-.34-.08-.65-.22-.95-.15-.29-.37-.61-.66-.93h-1.84c.09.77.21,1.37.36,1.82s.33.76.54.96.47.29.77.29c.37,0,.64-.12.81-.35.16-.23.25-.51.25-.84Z"/>
      <path class="st1" d="M19.38,38.57c0,.86-.31,1.55-.93,2.05-.62.51-1.5.76-2.63.76-.74,0-1.38-.14-1.92-.41-.54-.28-.95-.64-1.24-1.09-.29-.45-.43-.93-.43-1.46,0-.4.07-.75.2-1.03.14-.29.33-.58.58-.88l-1.16.06h-2.62v-1.16h9.99v.95l-.8.1v.04c.26.26.49.57.68.93s.29.73.29,1.14ZM18.42,38.32c0-.32-.08-.62-.24-.9-.16-.28-.39-.56-.7-.84h-3.56c-.26.28-.45.56-.55.83-.11.27-.16.55-.16.83,0,.36.11.69.33.99.22.29.52.53.91.71.39.18.84.27,1.37.27.81,0,1.45-.16,1.92-.49.46-.33.69-.79.69-1.39Z"/>
      <path class="st1" d="M19.38,30.47c0,.55-.14,1.07-.42,1.55-.28.48-.69.87-1.22,1.16s-1.17.44-1.92.44-1.42-.15-1.95-.44c-.53-.29-.94-.68-1.22-1.16s-.42-1-.42-1.55.14-1.08.42-1.56.69-.86,1.22-1.16c.53-.29,1.18-.44,1.95-.44s1.39.15,1.92.44c.53.29.94.68,1.22,1.16.28.48.42,1,.42,1.56ZM18.43,30.47c0-.39-.11-.74-.33-1.04-.22-.3-.53-.53-.92-.69-.39-.16-.85-.24-1.36-.24s-.98.08-1.38.24-.71.39-.93.69c-.22.3-.33.65-.33,1.04s.11.74.33,1.03c.22.29.53.52.93.69.4.16.86.25,1.38.25s.97-.08,1.36-.25c.39-.16.7-.39.92-.69.22-.29.33-.64.33-1.03Z"/>
      <path class="st1" d="M19.38,23.76c0,.5-.09.97-.26,1.41s-.41.82-.72,1.13l-.67-.53c.24-.3.43-.61.56-.93s.2-.69.2-1.12c0-.45-.11-.79-.32-1.01-.21-.22-.46-.34-.75-.34-.23,0-.43.08-.58.23s-.29.35-.39.58c-.11.23-.21.47-.3.74-.12.34-.26.66-.43.97-.16.31-.37.56-.62.75s-.56.29-.93.29c-.55,0-1.01-.21-1.38-.62-.37-.42-.55-.99-.55-1.73,0-.42.07-.81.22-1.18.14-.36.33-.68.55-.94l.66.53c-.17.24-.3.49-.39.74-.09.25-.14.53-.14.84,0,.43.1.75.29.95s.43.3.69.3c.21,0,.38-.06.51-.18s.25-.29.36-.51.2-.47.29-.75c.13-.35.28-.69.44-1.02.16-.32.37-.58.63-.79.26-.2.59-.3,1-.3.37,0,.71.1,1.02.29.3.19.55.47.74.84.19.37.28.83.28,1.37Z"/>
    </g>
    <g>
      <rect class="st6" x="92" y="204.58" width="413.12" height="1"/>
      <rect class="st6" x="92" y="114.92" width="413.12" height="1"/>
    </g>
    <rect class="st6" x="92" y="25.27" width="413.12" height="1"/>
    <path class="st1" d="M64.24,298.26c-.77,0-1.43-.13-1.98-.4-.54-.27-.98-.64-1.32-1.1-.33-.46-.58-1-.73-1.61-.15-.61-.23-1.25-.23-1.93v-.76c0-.95.15-1.81.45-2.58.3-.76.76-1.37,1.39-1.82.63-.45,1.43-.67,2.42-.67s1.79.22,2.41.67c.62.45,1.08,1.06,1.38,1.82s.45,1.62.45,2.58v.76c0,.68-.08,1.33-.23,1.93-.15.61-.39,1.15-.73,1.61-.34.46-.77.83-1.31,1.1-.54.27-1.19.4-1.97.4ZM64.24,297.01c.98,0,1.7-.33,2.16-1s.69-1.72.69-3.17-.23-2.59-.7-3.24c-.47-.65-1.18-.98-2.15-.98s-1.69.33-2.16.98c-.47.65-.7,1.72-.7,3.21s.23,2.52.69,3.19c.46.67,1.18,1.01,2.17,1.01Z"/>
    <g>
      <path class="st1" d="M55.07,31.65c-.77,0-1.43-.15-1.97-.45s-.95-.7-1.23-1.2c-.28-.5-.42-1.04-.42-1.63h1.33c0,.64.21,1.15.62,1.53.41.38.96.57,1.66.57.46,0,.86-.08,1.2-.25s.6-.41.79-.73c.19-.32.28-.69.28-1.11,0-.64-.21-1.16-.62-1.56-.41-.4-.96-.59-1.65-.59-.29,0-.55.04-.76.11-.21.07-.4.16-.56.26l-.68-1.22,3.95-2.89-.14-.25h-5.03v-1.16h6.3v1.88l-3.27,2.38-.99.04c.16-.06.34-.1.53-.14.19-.04.42-.06.69-.06.76,0,1.4.14,1.93.42.53.28.93.66,1.21,1.13.28.47.42.99.42,1.54v.2c0,.55-.14,1.07-.42,1.55s-.68.88-1.22,1.18c-.53.3-1.19.45-1.98.45Z"/>
      <path class="st1" d="M64.24,31.65c-.77,0-1.43-.13-1.98-.4-.54-.27-.98-.64-1.32-1.1-.33-.46-.58-1-.73-1.61-.15-.61-.23-1.25-.23-1.93v-.76c0-.95.15-1.81.45-2.58.3-.76.76-1.37,1.39-1.82.63-.45,1.43-.67,2.42-.67s1.79.22,2.41.67c.62.45,1.08,1.06,1.38,1.82s.45,1.62.45,2.58v.76c0,.68-.08,1.33-.23,1.93-.15.61-.39,1.15-.73,1.61-.34.46-.77.83-1.31,1.1-.54.27-1.19.4-1.97.4ZM64.24,30.4c.98,0,1.7-.33,2.16-1s.69-1.72.69-3.17-.23-2.59-.7-3.24c-.47-.65-1.18-.98-2.15-.98s-1.69.33-2.16.98c-.47.65-.7,1.72-.7,3.21s.23,2.52.69,3.19c.46.67,1.18,1.01,2.17,1.01Z"/>
    </g>
    <g>
      <path class="st1" d="M51.85,120.26v-1.7c0-.42.06-.77.18-1.06.12-.29.32-.56.62-.8.29-.24.69-.47,1.19-.7l1.94-.89c.47-.22.85-.5,1.12-.84.27-.34.41-.79.41-1.34,0-.66-.18-1.18-.55-1.54s-.89-.55-1.56-.55-1.18.18-1.56.55-.57.88-.57,1.54h-1.33c0-.59.12-1.14.38-1.64.25-.5.63-.9,1.14-1.2.51-.3,1.16-.45,1.94-.45s1.43.15,1.93.45c.5.3.88.69,1.13,1.17s.38,1.01.38,1.57v.2c0,.75-.21,1.37-.64,1.88s-1.01.93-1.74,1.26l-1.94.89c-.43.2-.73.4-.88.59s-.23.46-.23.79v1.3l-.37-.65h5.92v1.16h-6.91Z"/>
      <path class="st1" d="M64.24,120.52c-.77,0-1.43-.13-1.98-.4-.54-.27-.98-.64-1.32-1.1-.33-.46-.58-1-.73-1.61-.15-.61-.23-1.25-.23-1.93v-.76c0-.95.15-1.81.45-2.58.3-.76.76-1.37,1.39-1.82.63-.45,1.43-.67,2.42-.67s1.79.22,2.41.67c.62.45,1.08,1.06,1.38,1.82s.45,1.62.45,2.58v.76c0,.68-.08,1.33-.23,1.93-.15.61-.39,1.15-.73,1.61-.34.46-.77.83-1.31,1.1-.54.27-1.19.4-1.97.4ZM64.24,119.27c.98,0,1.7-.33,2.16-1s.69-1.72.69-3.17-.23-2.59-.7-3.24c-.47-.65-1.18-.98-2.15-.98s-1.69.33-2.16.98c-.47.65-.7,1.72-.7,3.21s.23,2.52.69,3.19c.46.67,1.18,1.01,2.17,1.01Z"/>
    </g>
    <g>
      <path class="st1" d="M56.47,209.13v-9.66l.62.48h-2.92v-1.16h3.66v10.34h-1.36Z"/>
      <path class="st1" d="M64.24,209.39c-.77,0-1.43-.13-1.98-.4-.54-.27-.98-.64-1.32-1.1-.33-.46-.58-1-.73-1.61-.15-.61-.23-1.25-.23-1.93v-.76c0-.95.15-1.81.45-2.58.3-.76.76-1.37,1.39-1.82.63-.45,1.43-.67,2.42-.67s1.79.22,2.41.67c.62.45,1.08,1.06,1.38,1.82s.45,1.62.45,2.58v.76c0,.68-.08,1.33-.23,1.93-.15.61-.39,1.15-.73,1.61-.34.46-.77.83-1.31,1.1-.54.27-1.19.4-1.97.4ZM64.24,208.14c.98,0,1.7-.33,2.16-1s.69-1.72.69-3.17-.23-2.59-.7-3.24c-.47-.65-1.18-.98-2.15-.98s-1.69.33-2.16.98c-.47.65-.7,1.72-.7,3.21s.23,2.52.69,3.19c.46.67,1.18,1.01,2.17,1.01Z"/>
    </g>
    <rect class="st6" x="92" y="292.73" width="413.12" height="2"/>
    <path class="st4" d="M176.31,64.78h0c14.76,0,26.74,11.98,26.74,26.74v201.19h-53.49V91.53c0-14.76,11.98-26.74,26.74-26.74Z"/>
    <path class="st0" d="M233.94,124.93h0c14.76,0,26.74,11.98,26.74,26.74v141.04h-53.49v-141.04c0-14.76,11.98-26.74,26.74-26.74Z"/>
    <g>
      <path class="st2" d="M161.97,99.19v-.95c1.2-1.19,2.23-2.25,3.09-3.16.85-.92,1.5-1.75,1.95-2.5.44-.75.67-1.44.67-2.09,0-.7-.19-1.27-.57-1.71s-.96-.67-1.73-.67c-.51,0-.98.14-1.41.42-.43.28-.82.63-1.18,1.04l-.87-.85c.51-.57,1.05-1.03,1.62-1.37s1.25-.51,2.02-.51,1.39.15,1.94.45c.54.3.96.71,1.25,1.24s.44,1.15.44,1.86c0,.79-.22,1.56-.66,2.34-.44.77-1.04,1.58-1.79,2.43-.76.85-1.63,1.78-2.62,2.79.33-.04.67-.07,1.03-.08.35-.02.69-.03,1.01-.03h3.65v1.35h-7.83Z"/>
      <path class="st2" d="M174.15,99.42c-.65,0-1.22-.08-1.71-.24s-.92-.36-1.29-.62c-.37-.25-.69-.52-.97-.8l.76-1.03c.37.35.79.67,1.27.96s1.08.43,1.79.43c.49,0,.94-.11,1.34-.34.4-.23.72-.55.96-.96.24-.41.36-.9.36-1.47,0-.84-.23-1.49-.7-1.96s-1.1-.7-1.88-.7c-.41,0-.76.06-1.06.19-.3.13-.64.31-1.01.55l-.84-.53.4-5.83h6.06v1.35h-4.69l-.32,3.59c.29-.15.58-.27.87-.36.29-.09.62-.13.99-.13.7,0,1.33.13,1.9.4.57.27,1.02.68,1.36,1.25s.5,1.28.5,2.16-.19,1.62-.58,2.23c-.39.61-.89,1.08-1.51,1.4-.62.32-1.29.47-2,.47Z"/>
      <path class="st2" d="M179.47,102.42l-.38-.91c.54-.24.97-.57,1.27-.98.3-.41.45-.87.44-1.38l-.17-1.41.78,1.14c-.11.11-.24.2-.37.25-.13.05-.28.08-.43.08-.3,0-.57-.09-.79-.28-.22-.19-.33-.46-.33-.8s.12-.61.35-.81.5-.29.81-.29c.42,0,.74.16.97.48.23.32.34.78.34,1.36,0,.81-.22,1.53-.67,2.15-.44.62-1.05,1.09-1.82,1.41Z"/>
      <path class="st2" d="M185.87,99.42c-.65,0-1.21-.12-1.69-.37s-.89-.55-1.24-.9l.87-.99c.25.29.55.53.9.7.35.18.71.27,1.09.27.58,0,1.11-.17,1.6-.52.48-.35.87-.92,1.17-1.71.3-.79.45-1.86.45-3.22,0-1-.11-1.84-.32-2.52-.21-.68-.52-1.19-.92-1.55-.4-.35-.89-.53-1.47-.53-.39,0-.75.11-1.06.33s-.57.53-.76.93c-.19.4-.29.86-.29,1.4s.09.97.26,1.36c.17.39.42.68.75.89.33.21.74.31,1.23.31.39,0,.82-.13,1.29-.39s.91-.7,1.31-1.32l.06,1.23c-.37.51-.82.91-1.35,1.21-.53.3-1.06.45-1.58.45-.7,0-1.3-.14-1.82-.42s-.92-.7-1.2-1.25-.42-1.25-.42-2.07c0-.77.16-1.45.48-2.04.32-.59.76-1.05,1.3-1.37.54-.32,1.14-.48,1.79-.48.59,0,1.15.12,1.66.36.51.24.96.61,1.33,1.09.37.49.67,1.1.87,1.82s.31,1.58.31,2.56c0,1.22-.13,2.25-.38,3.12-.25.86-.6,1.56-1.03,2.09-.43.53-.92.92-1.47,1.17-.55.25-1.13.37-1.74.37Z"/>
    </g>
    <g>
      <path class="st2" d="M156.18,115.1v-8.17h1.1v8.17h-1.1ZM157.06,111.53v-.99h4.88v.99h-4.88ZM161.71,115.1v-8.17h1.1v8.17h-1.1Z"/>
      <path class="st2" d="M168.85,115.3c-.73,0-1.36-.13-1.89-.39-.53-.26-.97-.6-1.31-1.03-.34-.42-.6-.88-.77-1.37-.17-.48-.25-.95-.25-1.4v-.25c0-.49.09-.97.26-1.47s.43-.94.78-1.35c.35-.41.79-.73,1.32-.98.53-.25,1.15-.37,1.86-.37s1.34.12,1.86.37.96.57,1.32.98c.35.41.61.86.78,1.35.17.49.26.98.26,1.47v.25c0,.45-.08.92-.25,1.4-.17.49-.42.94-.77,1.37-.34.43-.78.77-1.31,1.03-.53.26-1.16.39-1.89.39ZM168.85,114.3c.48,0,.91-.09,1.29-.27.38-.18.71-.42.98-.73.27-.31.47-.66.62-1.05.14-.39.21-.8.21-1.24,0-.46-.07-.88-.21-1.28-.14-.4-.35-.74-.62-1.05-.27-.3-.6-.54-.98-.71-.38-.17-.82-.26-1.29-.26s-.91.09-1.29.26c-.38.17-.71.41-.98.71-.27.3-.47.65-.62,1.05-.14.4-.21.82-.21,1.28,0,.43.07.84.21,1.24.14.39.35.74.62,1.05.27.31.6.55.98.73.38.18.82.27,1.29.27Z"/>
      <path class="st2" d="M174.87,115.1v-8.22h1.1v8.22h-1.1ZM175.55,112.15v-.97h2.19c.34,0,.64-.07.88-.21s.44-.34.57-.59c.13-.25.2-.54.2-.86s-.07-.61-.2-.86c-.13-.25-.33-.45-.57-.59s-.54-.22-.88-.22h-2.19v-.96h1.99c.6,0,1.12.09,1.57.27.45.18.79.46,1.04.83s.37.85.37,1.44v.18c0,.59-.12,1.07-.38,1.44-.25.37-.6.65-1.04.83-.44.18-.96.27-1.56.27h-1.99ZM179.92,115.1l-2.71-3.64h1.29l2.75,3.64h-1.33Z"/>
      <path class="st2" d="M181.83,115.1l2.94-8.17h1.86l3.03,8.17h-1.13l-2.74-7.46.54.27h-1.32l.57-.27-2.65,7.46h-1.1ZM183.59,112.66l.37-.98h3.53l.37.98h-4.27Z"/>
      <path class="st2" d="M193.76,115.3c-.68,0-1.26-.11-1.74-.34-.48-.22-.84-.53-1.1-.93s-.38-.84-.38-1.34h1.1c0,.25.07.49.2.74.13.25.35.45.66.62s.73.25,1.26.25c.49,0,.9-.07,1.21-.22s.54-.34.69-.57.22-.49.22-.77c0-.34-.15-.61-.44-.83-.29-.22-.72-.36-1.28-.41l-.91-.08c-.72-.06-1.3-.28-1.74-.67s-.65-.9-.65-1.53c0-.5.12-.94.36-1.31.24-.37.58-.67,1.01-.88.43-.21.94-.32,1.51-.32s1.07.1,1.5.31c.43.21.77.5,1.01.88.24.38.36.83.36,1.35h-1.1c0-.26-.06-.51-.18-.74s-.32-.42-.58-.57c-.26-.15-.6-.22-1.02-.22s-.74.07-1,.21c-.26.14-.46.33-.59.55s-.2.47-.2.73c0,.3.12.56.35.79s.58.37,1.03.4l.91.08c.56.04,1.04.16,1.45.35.41.19.72.44.94.76.22.32.33.7.33,1.14,0,.5-.13.94-.4,1.33-.27.39-.65.69-1.13.91-.49.22-1.05.32-1.69.32Z"/>
    </g>
    <g>
      <path d="M225.75,158.32v-1.29h2.77v-8.93h-2.2v-1.01c.54-.1,1.03-.23,1.44-.37s.79-.32,1.12-.52h1.2v10.83h2.51v1.29h-6.84Z"/>
      <path d="M236.07,158.54c-.65,0-1.21-.12-1.69-.37s-.89-.55-1.24-.9l.87-.99c.25.29.55.53.9.7.35.18.71.27,1.09.27.58,0,1.11-.17,1.6-.52.48-.35.87-.92,1.17-1.71.3-.79.45-1.86.45-3.22,0-1-.11-1.84-.32-2.52-.21-.68-.52-1.19-.92-1.55-.4-.35-.89-.53-1.47-.53-.39,0-.75.11-1.06.33s-.57.53-.76.93c-.19.4-.29.86-.29,1.4s.09.97.26,1.36c.17.39.42.68.75.89.33.21.74.31,1.23.31.39,0,.82-.13,1.29-.39s.91-.7,1.31-1.32l.06,1.23c-.37.51-.82.91-1.35,1.21-.53.3-1.06.45-1.58.45-.7,0-1.3-.14-1.82-.42s-.92-.7-1.2-1.25-.42-1.25-.42-2.07c0-.77.16-1.45.48-2.04.32-.59.76-1.05,1.3-1.37.54-.32,1.14-.48,1.79-.48.59,0,1.15.12,1.66.36.51.24.96.61,1.33,1.09.37.49.67,1.1.87,1.82s.31,1.58.31,2.56c0,1.22-.13,2.25-.38,3.12-.25.86-.6,1.56-1.03,2.09-.43.53-.92.92-1.47,1.17-.55.25-1.13.37-1.74.37Z"/>
    </g>
    <g>
      <path d="M212.8,180.86v-8.17h1.1v8.17h-1.1ZM213.68,177.29v-.99h4.88v.99h-4.88ZM218.33,180.86v-8.17h1.1v8.17h-1.1Z"/>
      <path d="M225.47,181.06c-.73,0-1.36-.13-1.89-.39-.53-.26-.97-.6-1.31-1.03-.34-.42-.6-.88-.77-1.37-.17-.48-.25-.95-.25-1.4v-.25c0-.49.09-.97.26-1.47s.43-.94.78-1.35c.35-.41.79-.73,1.32-.98.53-.25,1.15-.37,1.86-.37s1.34.12,1.87.37c.53.25.96.57,1.31.98.35.41.61.86.78,1.35.17.49.26.98.26,1.47v.25c0,.45-.08.92-.25,1.4-.17.49-.42.94-.77,1.37-.34.43-.78.77-1.31,1.03-.53.26-1.16.39-1.89.39ZM225.47,180.05c.48,0,.91-.09,1.29-.27.38-.18.71-.42.98-.73.27-.31.47-.66.62-1.05.14-.39.21-.8.21-1.24,0-.46-.07-.88-.21-1.28-.14-.4-.35-.74-.62-1.05-.27-.3-.6-.54-.98-.71-.38-.17-.81-.26-1.29-.26s-.91.09-1.29.26c-.38.17-.71.41-.98.71-.27.3-.47.65-.62,1.05-.14.4-.21.82-.21,1.28,0,.43.07.84.21,1.24.14.39.35.74.62,1.05.27.31.6.55.98.73.38.18.81.27,1.29.27Z"/>
      <path d="M231.49,180.86v-8.22h1.1v8.22h-1.1ZM232.17,177.9v-.97h2.2c.34,0,.64-.07.88-.21s.44-.34.57-.59.2-.54.2-.86-.07-.61-.2-.86-.32-.45-.57-.59-.54-.22-.88-.22h-2.2v-.96h1.99c.6,0,1.12.09,1.57.27.45.18.79.46,1.04.83s.37.85.37,1.44v.18c0,.59-.12,1.07-.38,1.44-.25.37-.6.65-1.04.83-.44.18-.96.27-1.56.27h-1.99ZM236.54,180.86l-2.71-3.64h1.29l2.75,3.64h-1.33Z"/>
      <path d="M238.46,180.86l2.95-8.17h1.86l3.03,8.17h-1.13l-2.74-7.46.54.27h-1.32l.57-.27-2.65,7.46h-1.1ZM240.21,178.42l.37-.98h3.53l.37.98h-4.27Z"/>
      <path d="M250.38,181.06c-.68,0-1.26-.11-1.74-.34-.48-.22-.84-.53-1.1-.93s-.38-.84-.38-1.34h1.1c0,.25.07.49.2.74.13.25.35.45.66.62.31.16.73.25,1.26.25.49,0,.89-.07,1.21-.22.31-.15.54-.34.69-.57.15-.24.22-.49.22-.77,0-.34-.15-.61-.44-.83-.29-.22-.72-.36-1.28-.41l-.91-.08c-.72-.06-1.3-.28-1.73-.67-.43-.39-.65-.9-.65-1.53,0-.5.12-.94.37-1.31.24-.37.58-.67,1.01-.88.43-.21.94-.32,1.51-.32s1.07.1,1.5.31c.43.21.77.5,1.01.88.24.38.37.83.37,1.35h-1.1c0-.26-.06-.51-.19-.74s-.31-.42-.58-.57-.6-.22-1.02-.22-.74.07-1,.21c-.26.14-.46.33-.59.55s-.2.47-.2.73c0,.3.12.56.35.79.23.23.57.37,1.03.4l.91.08c.56.04,1.04.16,1.45.35s.72.44.94.76c.22.32.33.7.33,1.14,0,.5-.13.94-.4,1.33-.27.39-.64.69-1.13.91-.48.22-1.05.32-1.69.32Z"/>
    </g>
    <g>
      <path class="st3" d="M363.39,187.77h0c14.76,0,26.74,11.98,26.74,26.74v78.2h-53.49v-78.2c0-14.76,11.98-26.74,26.74-26.74Z"/>
      <g>
        <path class="st2" d="M355.92,219.38v-1.29h2.78v-8.93h-2.21v-1.01c.54-.1,1.03-.23,1.44-.37s.79-.32,1.12-.52h1.2v10.83h2.51v1.29h-6.84Z"/>
        <path class="st2" d="M363.67,219.38v-.95c1.2-1.19,2.23-2.25,3.09-3.16s1.5-1.75,1.95-2.5c.44-.75.67-1.44.67-2.09,0-.7-.19-1.27-.57-1.71-.38-.44-.96-.67-1.73-.67-.51,0-.98.14-1.41.42-.43.28-.82.63-1.18,1.04l-.88-.85c.51-.57,1.05-1.03,1.62-1.37s1.25-.51,2.02-.51,1.39.15,1.94.45.96.71,1.25,1.24.44,1.15.44,1.86c0,.79-.22,1.56-.66,2.34-.44.77-1.04,1.58-1.79,2.43s-1.63,1.78-2.62,2.79c.33-.04.67-.07,1.03-.08.35-.02.69-.03,1.01-.03h3.65v1.35h-7.83Z"/>
      </g>
      <g>
        <path class="st2" d="M343.25,234.29v-8.17h1.1v8.17h-1.1ZM344.13,230.72v-.99h4.88v.99h-4.88ZM348.79,234.29v-8.17h1.1v8.17h-1.1Z"/>
        <path class="st2" d="M355.92,234.49c-.73,0-1.36-.13-1.89-.39-.53-.26-.97-.6-1.31-1.03-.34-.42-.6-.88-.77-1.37-.17-.48-.25-.95-.25-1.4v-.25c0-.49.09-.97.26-1.47s.43-.94.78-1.35c.35-.41.79-.73,1.32-.98.53-.25,1.15-.37,1.86-.37s1.34.12,1.86.37.96.57,1.32.98c.35.41.61.86.78,1.35.17.49.26.98.26,1.47v.25c0,.45-.08.92-.25,1.4-.17.49-.42.94-.77,1.37-.34.43-.78.77-1.31,1.03-.53.26-1.16.39-1.89.39ZM355.92,233.48c.48,0,.91-.09,1.29-.27.38-.18.71-.42.98-.73.27-.31.47-.66.62-1.05.14-.39.21-.8.21-1.24,0-.46-.07-.88-.21-1.28-.14-.4-.35-.74-.62-1.05-.27-.3-.6-.54-.98-.71-.38-.17-.82-.26-1.29-.26s-.91.09-1.29.26c-.38.17-.71.41-.98.71-.27.3-.47.65-.62,1.05-.14.4-.21.82-.21,1.28,0,.43.07.84.21,1.24.14.39.35.74.62,1.05.27.31.6.55.98.73.38.18.82.27,1.29.27Z"/>
        <path class="st2" d="M361.94,234.29v-8.22h1.1v8.22h-1.1ZM362.62,231.33v-.97h2.19c.34,0,.64-.07.88-.21s.44-.34.57-.59c.13-.25.2-.54.2-.86s-.07-.61-.2-.86c-.13-.25-.33-.45-.57-.59s-.54-.22-.88-.22h-2.19v-.96h1.99c.6,0,1.12.09,1.57.27.45.18.79.46,1.04.83s.37.85.37,1.44v.18c0,.59-.12,1.07-.38,1.44-.25.37-.6.65-1.04.83-.44.18-.96.27-1.56.27h-1.99ZM366.99,234.29l-2.71-3.64h1.29l2.75,3.64h-1.33Z"/>
        <path class="st2" d="M368.91,234.29l2.94-8.17h1.86l3.03,8.17h-1.13l-2.74-7.46.54.27h-1.32l.57-.27-2.65,7.46h-1.1ZM370.66,231.85l.37-.98h3.53l.37.98h-4.27Z"/>
        <path class="st2" d="M380.83,234.49c-.68,0-1.26-.11-1.74-.34-.48-.22-.84-.53-1.1-.93s-.38-.84-.38-1.34h1.1c0,.25.07.49.2.74.13.25.35.45.66.62s.73.25,1.26.25c.49,0,.9-.07,1.21-.22s.54-.34.69-.57.22-.49.22-.77c0-.34-.15-.61-.44-.83-.29-.22-.72-.36-1.28-.41l-.91-.08c-.72-.06-1.3-.28-1.74-.67s-.65-.9-.65-1.53c0-.5.12-.94.36-1.31.24-.37.58-.67,1.01-.88.43-.21.94-.32,1.51-.32s1.07.1,1.5.31c.43.21.77.5,1.01.88.24.38.36.83.36,1.35h-1.1c0-.26-.06-.51-.18-.74s-.32-.42-.58-.57c-.26-.15-.6-.22-1.02-.22s-.74.07-1,.21c-.26.14-.46.33-.59.55s-.2.47-.2.73c0,.3.12.56.35.79s.58.37,1.03.4l.91.08c.56.04,1.04.16,1.45.35.41.19.72.44.94.76.22.32.33.7.33,1.14,0,.5-.13.94-.4,1.33-.27.39-.65.69-1.13.91-.49.22-1.05.32-1.69.32Z"/>
      </g>
      <g>
        <path class="st5" d="M422.45,203.7h0c14.76,0,26.74,11.98,26.74,26.74v62.27h-53.49v-62.27c0-14.76,11.98-26.74,26.74-26.74Z"/>
        <g>
          <path d="M409.7,241.83v-1.29h2.77v-8.93h-2.2v-1.01c.54-.1,1.03-.23,1.44-.37s.79-.32,1.12-.52h1.2v10.83h2.51v1.29h-6.84Z"/>
          <path d="M420.85,242.06c-1.22,0-2.17-.55-2.86-1.64s-1.04-2.66-1.04-4.68.34-3.59,1.04-4.66c.69-1.06,1.64-1.6,2.86-1.6s2.15.54,2.84,1.61,1.04,2.62,1.04,4.65-.35,3.59-1.04,4.68-1.64,1.64-2.84,1.64ZM420.85,240.81c.47,0,.88-.18,1.23-.53s.63-.91.83-1.65c.2-.75.29-1.71.29-2.89s-.1-2.15-.29-2.89c-.2-.73-.47-1.27-.83-1.61-.35-.33-.77-.5-1.23-.5s-.9.17-1.25.5c-.35.34-.63.87-.83,1.61-.2.74-.29,1.7-.29,2.89s.1,2.14.29,2.89.47,1.3.83,1.65.77.53,1.25.53Z"/>
          <path d="M425.32,245.06l-.38-.91c.54-.24.97-.57,1.27-.98.3-.41.45-.87.44-1.38l-.17-1.41.78,1.14c-.11.11-.24.2-.37.25-.13.05-.28.08-.43.08-.3,0-.57-.09-.79-.28-.22-.19-.33-.46-.33-.8s.12-.61.35-.81.5-.29.81-.29c.42,0,.74.16.97.48.23.32.34.78.34,1.36,0,.81-.22,1.53-.67,2.15-.44.62-1.05,1.09-1.82,1.41Z"/>
          <path d="M431.74,242.06c-.65,0-1.22-.08-1.72-.25-.5-.17-.93-.37-1.3-.63-.37-.25-.69-.53-.97-.84l.8-1.03c.37.38.79.72,1.28,1.01.49.29,1.09.44,1.81.44s1.34-.2,1.81-.61c.47-.41.7-.94.7-1.62,0-.48-.12-.9-.37-1.26-.25-.36-.65-.64-1.22-.85-.56-.2-1.33-.3-2.29-.3v-1.2c.86,0,1.54-.1,2.04-.3.5-.2.86-.47,1.07-.81.22-.33.32-.72.32-1.15,0-.59-.19-1.06-.56-1.41-.37-.34-.88-.51-1.53-.51-.51,0-.98.11-1.41.34-.43.23-.82.53-1.18.89l-.84-.99c.47-.44.99-.81,1.56-1.09.57-.28,1.21-.43,1.92-.43s1.34.12,1.88.36c.54.24.97.59,1.28,1.04.31.46.46,1.01.46,1.67,0,.74-.2,1.34-.61,1.81-.41.47-.94.83-1.6,1.08v.08c.49.11.94.31,1.33.58s.71.62.94,1.04.35.91.35,1.46c0,.72-.18,1.34-.53,1.85-.36.51-.84.91-1.44,1.19-.61.28-1.28.42-2.01.42Z"/>
        </g>
        <g>
          <path d="M402.31,264.75v-8.17h1.1v8.17h-1.1ZM403.19,261.17v-.99h4.88v.99h-4.88ZM407.85,264.75v-8.17h1.1v8.17h-1.1Z"/>
          <path d="M414.98,264.95c-.73,0-1.36-.13-1.89-.39-.53-.26-.97-.6-1.31-1.03-.34-.42-.6-.88-.77-1.37-.17-.48-.25-.95-.25-1.4v-.25c0-.49.09-.97.26-1.47s.43-.94.78-1.35c.35-.41.79-.73,1.32-.98.53-.25,1.15-.37,1.86-.37s1.34.12,1.86.37.96.57,1.32.98c.35.41.61.86.78,1.35.17.49.26.98.26,1.47v.25c0,.45-.08.92-.25,1.4-.17.49-.42.94-.77,1.37-.34.43-.78.77-1.31,1.03-.53.26-1.16.39-1.89.39ZM414.98,263.94c.48,0,.91-.09,1.29-.27.38-.18.71-.42.98-.73.27-.31.47-.66.62-1.05.14-.39.21-.8.21-1.24,0-.46-.07-.88-.21-1.28-.14-.4-.35-.74-.62-1.05-.27-.3-.6-.54-.98-.71-.38-.17-.82-.26-1.29-.26s-.91.09-1.29.26c-.38.17-.71.41-.98.71-.27.3-.47.65-.62,1.05-.14.4-.21.82-.21,1.28,0,.43.07.84.21,1.24.14.39.35.74.62,1.05.27.31.6.55.98.73.38.18.82.27,1.29.27Z"/>
          <path d="M421,264.75v-8.22h1.1v8.22h-1.1ZM421.69,261.79v-.97h2.19c.34,0,.64-.07.88-.21s.44-.34.57-.59c.13-.25.2-.54.2-.86s-.07-.61-.2-.86c-.13-.25-.33-.45-.57-.59s-.54-.22-.88-.22h-2.19v-.96h1.99c.6,0,1.12.09,1.57.27.45.18.79.46,1.04.83s.37.85.37,1.44v.18c0,.59-.12,1.07-.38,1.44-.25.37-.6.65-1.04.83-.44.18-.96.27-1.56.27h-1.99ZM426.05,264.75l-2.71-3.64h1.29l2.75,3.64h-1.33Z"/>
          <path d="M427.97,264.75l2.94-8.17h1.86l3.03,8.17h-1.13l-2.74-7.46.54.27h-1.32l.57-.27-2.65,7.46h-1.1ZM429.72,262.31l.37-.98h3.53l.37.98h-4.27Z"/>
          <path d="M439.89,264.95c-.68,0-1.26-.11-1.74-.34-.48-.22-.84-.53-1.1-.93s-.38-.84-.38-1.34h1.1c0,.25.07.49.2.74.13.25.35.45.66.62s.73.25,1.26.25c.49,0,.9-.07,1.21-.22s.54-.34.69-.57.22-.49.22-.77c0-.34-.15-.61-.44-.83-.29-.22-.72-.36-1.28-.41l-.91-.08c-.72-.06-1.3-.28-1.74-.67s-.65-.9-.65-1.53c0-.5.12-.94.36-1.31.24-.37.58-.67,1.01-.88.43-.21.94-.32,1.51-.32s1.07.1,1.5.31c.43.21.77.5,1.01.88.24.38.36.83.36,1.35h-1.1c0-.26-.06-.51-.18-.74s-.32-.42-.58-.57c-.26-.15-.6-.22-1.02-.22s-.74.07-1,.21c-.26.14-.46.33-.59.55s-.2.47-.2.73c0,.3.12.56.35.79s.58.37,1.03.4l.91.08c.56.04,1.04.16,1.45.35.41.19.72.44.94.76.22.32.33.7.33,1.14,0,.5-.13.94-.4,1.33-.27.39-.65.69-1.13.91-.49.22-1.05.32-1.69.32Z"/>
        </g>
      </g>
    </g>
  </g>
  <g>
    <path class="st1" d="M115.58,376.93v-9.2h2.3c.94,0,1.74.18,2.38.53.65.36,1.13.87,1.47,1.55s.5,1.5.5,2.47-.17,1.81-.5,2.5-.82,1.23-1.45,1.59c-.64.36-1.42.55-2.34.55h-2.36ZM116.74,375.97h1.05c.72,0,1.32-.15,1.79-.44s.83-.71,1.07-1.25c.23-.54.35-1.21.35-1.99s-.12-1.42-.35-1.96c-.23-.54-.59-.95-1.07-1.23-.48-.28-1.08-.41-1.79-.41h-1.05v7.29Z"/>
    <path class="st1" d="M127.13,377.1c-.61,0-1.16-.14-1.66-.43s-.9-.69-1.19-1.22c-.29-.53-.43-1.17-.43-1.93s.15-1.37.45-1.91c.3-.53.68-.94,1.15-1.23.47-.29.96-.43,1.49-.43.58,0,1.07.13,1.48.4.41.27.71.64.92,1.12.21.48.31,1.04.31,1.68,0,.12,0,.24,0,.35,0,.11-.02.22-.05.34h-4.91v-.91h3.93c0-.65-.14-1.16-.43-1.51s-.69-.53-1.23-.53c-.31,0-.61.09-.91.26-.3.17-.54.45-.74.83-.19.38-.29.89-.29,1.53,0,.58.1,1.07.3,1.46.2.39.47.69.82.89.35.2.72.3,1.14.3.33,0,.63-.05.92-.14.29-.09.54-.22.78-.38l.42.76c-.3.21-.63.37-1,.5s-.79.2-1.25.2Z"/>
    <path class="st1" d="M133.39,377.1c-.5,0-.97-.09-1.41-.26s-.82-.41-1.13-.72l.53-.67c.3.24.61.43.93.56s.69.2,1.12.2c.45,0,.79-.11,1.01-.32.22-.21.34-.46.34-.75,0-.23-.08-.43-.23-.58s-.35-.29-.57-.39c-.23-.11-.48-.21-.74-.3-.34-.12-.66-.26-.97-.43-.31-.16-.56-.37-.75-.62s-.29-.56-.29-.93c0-.55.21-1.01.62-1.38.42-.37.99-.55,1.73-.55.42,0,.81.07,1.18.22.36.14.68.33.94.55l-.53.66c-.24-.17-.49-.3-.74-.39-.25-.09-.53-.14-.84-.14-.43,0-.75.1-.95.29s-.3.43-.3.69c0,.21.06.38.18.51s.29.25.51.36.47.2.75.29c.35.13.69.28,1.02.44.32.16.58.37.79.63.2.26.3.59.3,1,0,.37-.1.71-.29,1.02-.19.3-.47.55-.84.74-.37.19-.83.28-1.37.28Z"/>
    <path class="st1" d="M140.53,377.1c-.61,0-1.16-.14-1.66-.43s-.9-.69-1.19-1.22c-.29-.53-.43-1.17-.43-1.93s.15-1.37.45-1.91c.3-.53.68-.94,1.15-1.23.47-.29.96-.43,1.49-.43.58,0,1.07.13,1.48.4.41.27.71.64.92,1.12.21.48.31,1.04.31,1.68,0,.12,0,.24,0,.35,0,.11-.02.22-.05.34h-4.91v-.91h3.93c0-.65-.14-1.16-.43-1.51s-.69-.53-1.23-.53c-.31,0-.61.09-.91.26-.3.17-.54.45-.74.83-.19.38-.29.89-.29,1.53,0,.58.1,1.07.3,1.46.2.39.47.69.82.89.35.2.72.3,1.14.3.33,0,.63-.05.92-.14.29-.09.54-.22.78-.38l.42.76c-.3.21-.63.37-1,.5s-.79.2-1.25.2Z"/>
    <path class="st1" d="M145,376.93v-6.82h.95l.1.98h.04c.3-.32.62-.59.97-.81.35-.22.73-.34,1.14-.34.52,0,.93.12,1.23.35s.51.55.65.95c.36-.39.71-.71,1.08-.95.36-.24.75-.36,1.16-.36.71,0,1.23.23,1.57.68.34.45.5,1.11.5,1.98v4.32h-1.15v-4.17c0-.65-.1-1.11-.31-1.4-.21-.29-.52-.43-.95-.43-.27,0-.54.09-.82.26-.28.17-.57.44-.89.79v4.94h-1.15v-4.17c0-.65-.1-1.11-.31-1.4-.21-.29-.53-.43-.97-.43-.51,0-1.08.35-1.71,1.05v4.94h-1.15Z"/>
    <path class="st1" d="M156.91,379.8v-9.69h.95l.1.79h.04c.31-.26.65-.49,1.02-.67.37-.19.76-.28,1.15-.28.58,0,1.07.14,1.47.43.4.29.71.69.91,1.21.21.52.31,1.13.31,1.84,0,.77-.14,1.43-.41,1.98-.28.55-.64.97-1.09,1.26-.45.29-.93.43-1.45.43-.31,0-.62-.07-.94-.21-.32-.14-.64-.33-.95-.58l.03,1.19v2.3h-1.15ZM159.73,376.13c.37,0,.71-.11,1-.32.29-.21.53-.53.69-.93.17-.41.25-.89.25-1.45,0-.5-.06-.93-.18-1.31-.12-.38-.31-.67-.58-.88-.26-.21-.61-.32-1.04-.32-.28,0-.57.08-.87.23-.3.15-.62.39-.95.69v3.58c.32.26.62.45.91.55.29.11.54.16.76.16Z"/>
    <path class="st1" d="M164.97,376.93v-6.82h.95l.1,1.23h.04c.22-.43.5-.77.84-1.02.34-.25.7-.38,1.09-.38.15,0,.28,0,.39.03s.22.06.34.11l-.25.98c-.1-.03-.2-.05-.29-.06-.09-.01-.2-.02-.34-.02-.29,0-.59.12-.91.35-.31.23-.59.64-.82,1.22v4.38h-1.15Z"/>
    <path class="st1" d="M172.74,377.1c-.61,0-1.16-.14-1.66-.43s-.9-.69-1.19-1.22c-.29-.53-.43-1.17-.43-1.93s.15-1.37.45-1.91c.3-.53.68-.94,1.15-1.23.47-.29.96-.43,1.49-.43.58,0,1.07.13,1.48.4.41.27.71.64.92,1.12.21.48.31,1.04.31,1.68,0,.12,0,.24,0,.35,0,.11-.02.22-.05.34h-4.91v-.91h3.93c0-.65-.14-1.16-.43-1.51s-.69-.53-1.23-.53c-.31,0-.61.09-.91.26-.3.17-.54.45-.74.83-.19.38-.29.89-.29,1.53,0,.58.1,1.07.3,1.46.2.39.47.69.82.89.35.2.72.3,1.14.3.33,0,.63-.05.92-.14.29-.09.54-.22.78-.38l.42.76c-.3.21-.63.37-1,.5s-.79.2-1.25.2Z"/>
    <path class="st1" d="M179.38,380.07c-.55,0-1.04-.07-1.47-.22-.43-.14-.76-.35-1-.62-.24-.27-.36-.6-.36-1,0-.29.09-.57.27-.83s.42-.5.73-.71v-.06c-.17-.11-.31-.26-.43-.44s-.18-.4-.18-.67c0-.29.08-.54.25-.76.16-.21.33-.38.5-.5v-.06c-.22-.19-.42-.44-.6-.76-.19-.32-.28-.68-.28-1.08,0-.5.12-.93.36-1.29.24-.36.55-.64.94-.84s.81-.29,1.27-.29c.19,0,.36.02.53.05.17.03.31.07.43.12h2.37v.88h-1.42v.06c.17.15.31.34.41.56s.16.49.16.8c0,.49-.11.9-.34,1.25-.22.35-.52.62-.9.81s-.79.29-1.26.29c-.17,0-.34-.02-.52-.06-.18-.04-.35-.1-.5-.18-.11.1-.21.22-.3.34s-.13.28-.13.48c0,.22.09.39.26.53s.49.21.95.21h1.32c.79,0,1.39.13,1.79.39.4.26.6.67.6,1.24,0,.42-.14.81-.42,1.16s-.68.64-1.2.86-1.13.33-1.83.33ZM179.54,379.27c.43,0,.81-.07,1.13-.2.32-.13.58-.3.76-.52s.27-.44.27-.67c0-.32-.12-.54-.36-.66-.24-.12-.58-.18-1.02-.18h-1.18c-.13,0-.27,0-.43-.03s-.31-.05-.46-.08c-.25.18-.43.36-.54.56-.11.2-.16.39-.16.59,0,.36.18.65.53.87s.83.32,1.45.32ZM179.38,374c.26,0,.5-.07.72-.2.22-.13.39-.32.53-.57s.2-.53.2-.86c0-.5-.14-.9-.42-1.17-.28-.28-.62-.41-1.02-.41s-.74.14-1.02.41c-.28.28-.42.67-.42,1.17,0,.33.07.61.2.86s.31.43.53.57c.22.14.46.2.72.2Z"/>
    <path class="st1" d="M185.77,377.1c-.37,0-.71-.08-1.02-.23s-.54-.37-.72-.66c-.18-.29-.27-.63-.27-1.04,0-.77.34-1.35,1.01-1.74.67-.39,1.74-.67,3.2-.83,0-.28-.05-.55-.13-.81-.08-.26-.22-.47-.43-.63-.21-.16-.49-.24-.86-.24-.39,0-.76.07-1.11.22-.35.14-.65.31-.93.48l-.45-.79c.21-.14.45-.28.73-.41s.58-.25.91-.34c.33-.09.67-.13,1.04-.13.55,0,1,.11,1.35.34s.61.55.77.97c.16.42.25.92.25,1.49v4.18h-.95l-.1-.81h-.04c-.33.27-.68.5-1.05.69s-.78.29-1.21.29ZM186.09,376.14c.34,0,.65-.08.95-.22.29-.15.61-.37.93-.66v-1.84c-.77.09-1.37.21-1.82.36s-.76.33-.96.54-.29.47-.29.77c0,.37.12.64.35.81.23.16.51.25.84.25Z"/>
    <path class="st1" d="M193.88,377.1c-.86,0-1.55-.31-2.05-.93-.51-.62-.76-1.5-.76-2.63,0-.74.14-1.38.41-1.92.28-.54.64-.95,1.09-1.24.45-.29.93-.43,1.46-.43.4,0,.75.07,1.03.2.29.14.58.33.88.58l-.06-1.16v-2.62h1.16v9.99h-.95l-.1-.8h-.04c-.26.26-.57.49-.93.68s-.73.29-1.14.29ZM194.13,376.13c.32,0,.62-.08.9-.24.28-.16.56-.39.84-.7v-3.56c-.28-.26-.56-.45-.83-.55-.27-.11-.55-.16-.83-.16-.36,0-.69.11-.99.33-.29.22-.53.52-.71.91-.18.39-.27.84-.27,1.37,0,.81.16,1.45.49,1.92.33.46.79.69,1.39.69Z"/>
    <path class="st1" d="M201.18,377.1c-.37,0-.71-.08-1.02-.23s-.54-.37-.72-.66c-.18-.29-.27-.63-.27-1.04,0-.77.34-1.35,1.01-1.74.67-.39,1.74-.67,3.2-.83,0-.28-.05-.55-.13-.81-.08-.26-.22-.47-.43-.63-.21-.16-.49-.24-.86-.24-.39,0-.76.07-1.11.22-.35.14-.65.31-.93.48l-.45-.79c.21-.14.45-.28.73-.41s.58-.25.91-.34c.33-.09.67-.13,1.04-.13.55,0,1,.11,1.35.34s.61.55.77.97c.16.42.25.92.25,1.49v4.18h-.95l-.1-.81h-.04c-.33.27-.68.5-1.05.69s-.78.29-1.21.29ZM201.51,376.14c.34,0,.65-.08.95-.22.29-.15.61-.37.93-.66v-1.84c-.77.09-1.37.21-1.82.36s-.76.33-.96.54-.29.47-.29.77c0,.37.12.64.35.81.23.16.51.25.84.25Z"/>
    <path class="st1" d="M208.74,377.1c-.5,0-.97-.09-1.41-.26s-.82-.41-1.13-.72l.53-.67c.3.24.61.43.93.56s.69.2,1.12.2c.45,0,.79-.11,1.01-.32.22-.21.34-.46.34-.75,0-.23-.08-.43-.23-.58s-.35-.29-.57-.39c-.23-.11-.48-.21-.74-.3-.34-.12-.66-.26-.97-.43-.31-.16-.56-.37-.75-.62s-.29-.56-.29-.93c0-.55.21-1.01.62-1.38.42-.37.99-.55,1.73-.55.42,0,.81.07,1.18.22.36.14.68.33.94.55l-.53.66c-.24-.17-.49-.3-.74-.39-.25-.09-.53-.14-.84-.14-.43,0-.75.1-.95.29s-.3.43-.3.69c0,.21.06.38.18.51s.29.25.51.36.47.2.75.29c.35.13.69.28,1.02.44.32.16.58.37.79.63.2.26.3.59.3,1,0,.37-.1.71-.29,1.02-.19.3-.47.55-.84.74-.37.19-.83.28-1.37.28Z"/>
  </g>
  <g>
    <path class="st1" d="M55.5,344.27v-9.22h1.48l1.74,4.94c.11.31.22.62.32.93.1.31.2.64.3.98h.06c.1-.35.2-.67.29-.98.09-.31.19-.62.29-.93l1.74-4.94h1.46v9.22h-1.1v-5.08c0-.27,0-.58.03-.91.02-.34.04-.67.06-1.01.02-.33.05-.63.08-.91h-.06l-.72,2.22-1.73,4.77h-.86l-1.73-4.77-.72-2.22h-.06c.03.27.05.58.08.91.02.33.04.67.06,1.01.02.34.03.64.03.91v5.08h-1.07Z"/>
    <path class="st1" d="M69.28,344.44c-.48,0-.92-.07-1.31-.2s-.75-.36-1.05-.66-.53-.71-.7-1.22c-.17-.51-.25-1.12-.25-1.84v-5.47h1.17v5.5c0,.72.1,1.29.29,1.71s.45.71.77.89.69.26,1.09.26.77-.09,1.1-.26c.33-.17.6-.47.79-.89s.29-.99.29-1.71v-5.5h1.11v5.47c0,.72-.08,1.34-.25,1.84-.16.51-.4.91-.7,1.22s-.65.53-1.05.66-.84.2-1.31.2Z"/>
    <path class="st1" d="M75.36,344.27v-9.22h1.17v8.23h4.04v1h-5.2Z"/>
    <path class="st1" d="M82.47,344.27v-9.22h1.17v3.87h4.3v-3.87h1.17v9.22h-1.17v-4.34h-4.3v4.34h-1.17Z"/>
    <path class="st1" d="M91.92,344.27v-9.22h5.32v.98h-4.15v2.9h3.5v1h-3.5v3.35h4.29v1h-5.46Z"/>
    <path class="st1" d="M99.61,344.27v-9.22h2.88c.63,0,1.19.08,1.67.25s.87.44,1.15.82.42.89.42,1.53-.14,1.13-.42,1.53-.66.71-1.15.91c-.49.2-1.04.3-1.67.3h-1.72v3.9h-1.17ZM100.78,339.42h1.55c.72,0,1.28-.15,1.66-.44.38-.3.58-.74.58-1.34s-.19-1.02-.58-1.27c-.38-.25-.94-.37-1.66-.37h-1.55v3.43ZM104.68,344.27l-2.4-4.22.91-.62,2.81,4.84h-1.32Z"/>
    <path class="st1" d="M107.9,344.27v-9.22h5.32v.98h-4.15v2.9h3.5v1h-3.5v3.35h4.29v1h-5.46Z"/>
    <path class="st1" d="M118.15,344.44c-.66,0-1.26-.12-1.8-.37-.54-.25-1.02-.58-1.43-1l.66-.76c.33.35.72.62,1.17.82.45.2.93.3,1.41.3.61,0,1.08-.14,1.42-.42.34-.28.51-.64.51-1.09,0-.32-.07-.57-.2-.76s-.32-.35-.55-.48c-.23-.13-.49-.26-.78-.39l-1.32-.58c-.3-.13-.59-.29-.88-.49-.29-.2-.52-.45-.71-.75-.19-.3-.28-.68-.28-1.13s.12-.89.37-1.26.59-.66,1.03-.87c.44-.21.94-.32,1.5-.32s1.08.1,1.55.31.86.47,1.18.8l-.63.76c-.29-.25-.61-.46-.96-.61-.35-.16-.73-.23-1.14-.23-.52,0-.93.12-1.24.37-.31.24-.47.57-.47.98,0,.29.08.53.23.72.15.19.34.34.58.46s.48.24.72.35l1.31.56c.37.16.69.34.98.55.29.21.51.46.67.77.16.31.25.69.25,1.14,0,.49-.12.93-.37,1.33s-.61.71-1.08.95c-.47.23-1.03.35-1.68.35Z"/>
  </g>
  <g>
    <path class="st1" d="M267.23,344.27v-9.22h1.17v3.87h4.3v-3.87h1.17v9.22h-1.17v-4.34h-4.3v4.34h-1.17Z"/>
    <path class="st1" d="M280.09,344.44c-.77,0-1.45-.2-2.05-.59s-1.06-.95-1.39-1.67c-.33-.72-.5-1.57-.5-2.56s.17-1.83.5-2.54c.33-.71.8-1.25,1.39-1.63s1.28-.57,2.05-.57,1.46.19,2.05.57c.59.38,1.05.92,1.39,1.63.34.71.51,1.55.51,2.54s-.17,1.84-.51,2.56c-.34.72-.8,1.28-1.39,1.67-.59.39-1.28.59-2.05.59ZM280.09,343.4c.55,0,1.03-.15,1.44-.46.41-.31.72-.75.95-1.31.22-.57.34-1.24.34-2s-.11-1.42-.34-1.97c-.23-.55-.54-.98-.95-1.29-.41-.3-.89-.46-1.44-.46s-1.02.15-1.44.46-.73.73-.96,1.29c-.23.55-.34,1.21-.34,1.97s.11,1.44.34,2c.22.57.54,1,.96,1.31s.89.46,1.44.46Z"/>
    <path class="st1" d="M286.3,344.27v-9.22h1.48l1.74,4.94c.11.31.22.62.32.93.1.31.2.64.3.98h.06c.1-.35.2-.67.29-.98.09-.31.19-.62.29-.93l1.74-4.94h1.46v9.22h-1.1v-5.08c0-.27,0-.58.03-.91.02-.34.04-.67.06-1.01.02-.33.05-.63.08-.91h-.05l-.72,2.22-1.73,4.77h-.86l-1.73-4.77-.72-2.22h-.06c.03.27.05.58.08.91.02.33.04.67.06,1.01.02.34.03.64.03.91v5.08h-1.07Z"/>
    <path class="st1" d="M296.81,344.27v-9.22h5.32v.98h-4.15v2.9h3.5v1h-3.5v3.35h4.29v1h-5.46Z"/>
    <path class="st1" d="M304.5,344.27v-9.22h1.28l3.28,5.74c.18.31.35.63.51.96.16.33.32.67.48,1.02h.06c-.03-.48-.06-.97-.1-1.47-.04-.5-.06-.99-.06-1.46v-4.79h1.12v9.22h-1.28l-3.28-5.74c-.17-.31-.34-.63-.51-.97-.17-.34-.34-.67-.49-1.01h-.06c.04.46.07.93.11,1.42s.05.98.05,1.48v4.82h-1.11Z"/>
    <path class="st1" d="M316.44,344.44c-.66,0-1.26-.12-1.8-.37-.54-.25-1.02-.58-1.44-1l.66-.76c.33.35.72.62,1.17.82.45.2.93.3,1.41.3.61,0,1.08-.14,1.42-.42.34-.28.51-.64.51-1.09,0-.32-.07-.57-.21-.76-.13-.19-.32-.35-.55-.48-.23-.13-.49-.26-.78-.39l-1.32-.58c-.3-.13-.59-.29-.88-.49-.29-.2-.52-.45-.71-.75-.19-.3-.28-.68-.28-1.13s.12-.89.37-1.26.59-.66,1.03-.87.94-.32,1.5-.32,1.08.1,1.55.31.86.47,1.18.8l-.63.76c-.29-.25-.61-.46-.96-.61-.35-.16-.73-.23-1.14-.23-.52,0-.93.12-1.24.37-.31.24-.47.57-.47.98,0,.29.08.53.23.72.15.19.34.34.58.46.24.12.48.24.72.35l1.31.56c.37.16.69.34.98.55s.51.46.68.77c.16.31.25.69.25,1.14,0,.49-.12.93-.37,1.33s-.61.71-1.08.95c-.47.23-1.03.35-1.68.35Z"/>
  </g>
  <rect class="st4" x="54.24" y="367.38" width="53.49" height="13.49" rx="4.81" ry="4.81"/>
  <g>
    <path class="st1" d="M327.63,376.93v-9.2h2.3c.94,0,1.74.18,2.38.53.65.36,1.13.87,1.47,1.55s.5,1.5.5,2.47-.17,1.81-.5,2.5-.82,1.23-1.45,1.59c-.64.36-1.42.55-2.34.55h-2.36ZM328.8,375.97h1.05c.72,0,1.32-.15,1.79-.44s.83-.71,1.07-1.25c.23-.54.35-1.21.35-1.99s-.12-1.42-.35-1.96c-.23-.54-.59-.95-1.07-1.23-.48-.28-1.08-.41-1.79-.41h-1.05v7.29Z"/>
    <path class="st1" d="M339.19,377.1c-.61,0-1.16-.14-1.66-.43s-.9-.69-1.19-1.22c-.29-.53-.43-1.17-.43-1.93s.15-1.37.45-1.91c.3-.53.68-.94,1.15-1.23.47-.29.96-.43,1.49-.43.58,0,1.07.13,1.48.4.41.27.71.64.92,1.12.21.48.31,1.04.31,1.68,0,.12,0,.24,0,.35,0,.11-.02.22-.05.34h-4.91v-.91h3.93c0-.65-.14-1.16-.43-1.51s-.69-.53-1.23-.53c-.31,0-.61.09-.91.26-.3.17-.54.45-.74.83-.19.38-.29.89-.29,1.53,0,.58.1,1.07.3,1.46.2.39.47.69.82.89.35.2.72.3,1.14.3.33,0,.63-.05.92-.14.29-.09.54-.22.78-.38l.42.76c-.3.21-.63.37-1,.5s-.79.2-1.25.2Z"/>
    <path class="st1" d="M345.44,377.1c-.5,0-.97-.09-1.41-.26s-.82-.41-1.13-.72l.53-.67c.3.24.61.43.93.56s.69.2,1.12.2c.45,0,.79-.11,1.01-.32.22-.21.34-.46.34-.75,0-.23-.08-.43-.23-.58s-.35-.29-.57-.39c-.23-.11-.48-.21-.74-.3-.34-.12-.66-.26-.97-.43-.31-.16-.56-.37-.75-.62s-.29-.56-.29-.93c0-.55.21-1.01.62-1.38.42-.37.99-.55,1.73-.55.42,0,.81.07,1.18.22.36.14.68.33.94.55l-.53.66c-.24-.17-.49-.3-.74-.39-.25-.09-.53-.14-.84-.14-.43,0-.75.1-.95.29s-.3.43-.3.69c0,.21.06.38.18.51s.29.25.51.36.47.2.75.29c.35.13.69.28,1.02.44.32.16.58.37.79.63.2.26.3.59.3,1,0,.37-.1.71-.29,1.02-.19.3-.47.55-.84.74-.37.19-.83.28-1.37.28Z"/>
    <path class="st1" d="M352.58,377.1c-.61,0-1.16-.14-1.66-.43s-.9-.69-1.19-1.22c-.29-.53-.43-1.17-.43-1.93s.15-1.37.45-1.91c.3-.53.68-.94,1.15-1.23.47-.29.96-.43,1.49-.43.58,0,1.07.13,1.48.4.41.27.71.64.92,1.12.21.48.31,1.04.31,1.68,0,.12,0,.24,0,.35,0,.11-.02.22-.05.34h-4.91v-.91h3.93c0-.65-.14-1.16-.43-1.51s-.69-.53-1.23-.53c-.31,0-.61.09-.91.26-.3.17-.54.45-.74.83-.19.38-.29.89-.29,1.53,0,.58.1,1.07.3,1.46.2.39.47.69.82.89.35.2.72.3,1.14.3.33,0,.63-.05.92-.14.29-.09.54-.22.78-.38l.42.76c-.3.21-.63.37-1,.5s-.79.2-1.25.2Z"/>
    <path class="st1" d="M357.05,376.93v-6.82h.95l.1.98h.04c.3-.32.62-.59.97-.81.35-.22.73-.34,1.14-.34.52,0,.93.12,1.23.35s.51.55.65.95c.36-.39.71-.71,1.08-.95.36-.24.75-.36,1.16-.36.71,0,1.23.23,1.57.68.34.45.5,1.11.5,1.98v4.32h-1.15v-4.17c0-.65-.1-1.11-.31-1.4-.21-.29-.52-.43-.95-.43-.27,0-.54.09-.82.26-.28.17-.57.44-.89.79v4.94h-1.15v-4.17c0-.65-.1-1.11-.31-1.4-.21-.29-.53-.43-.97-.43-.51,0-1.08.35-1.71,1.05v4.94h-1.15Z"/>
    <path class="st1" d="M368.96,379.8v-9.69h.95l.1.79h.04c.31-.26.65-.49,1.02-.67.37-.19.76-.28,1.15-.28.58,0,1.07.14,1.47.43.4.29.71.69.91,1.21.21.52.31,1.13.31,1.84,0,.77-.14,1.43-.41,1.98-.28.55-.64.97-1.09,1.26-.45.29-.93.43-1.45.43-.31,0-.62-.07-.94-.21-.32-.14-.64-.33-.95-.58l.03,1.19v2.3h-1.15ZM371.78,376.13c.37,0,.71-.11,1-.32.29-.21.53-.53.69-.93.17-.41.25-.89.25-1.45,0-.5-.06-.93-.18-1.31-.12-.38-.31-.67-.58-.88-.26-.21-.61-.32-1.04-.32-.28,0-.57.08-.87.23-.3.15-.62.39-.95.69v3.58c.32.26.62.45.91.55.29.11.54.16.76.16Z"/>
    <path class="st1" d="M377.03,376.93v-6.82h.95l.1,1.23h.04c.22-.43.5-.77.84-1.02.34-.25.7-.38,1.09-.38.15,0,.28,0,.39.03s.22.06.34.11l-.25.98c-.1-.03-.2-.05-.29-.06-.09-.01-.2-.02-.34-.02-.29,0-.59.12-.91.35-.31.23-.59.64-.82,1.22v4.38h-1.15Z"/>
    <path class="st1" d="M384.8,377.1c-.61,0-1.16-.14-1.66-.43s-.9-.69-1.19-1.22c-.29-.53-.43-1.17-.43-1.93s.15-1.37.45-1.91c.3-.53.68-.94,1.15-1.23.47-.29.96-.43,1.49-.43.58,0,1.07.13,1.48.4.41.27.71.64.92,1.12.21.48.31,1.04.31,1.68,0,.12,0,.24,0,.35,0,.11-.02.22-.05.34h-4.91v-.91h3.93c0-.65-.14-1.16-.43-1.51s-.69-.53-1.23-.53c-.31,0-.61.09-.91.26-.3.17-.54.45-.74.83-.19.38-.29.89-.29,1.53,0,.58.1,1.07.3,1.46.2.39.47.69.82.89.35.2.72.3,1.14.3.33,0,.63-.05.92-.14.29-.09.54-.22.78-.38l.42.76c-.3.21-.63.37-1,.5s-.79.2-1.25.2Z"/>
    <path class="st1" d="M391.43,380.07c-.55,0-1.04-.07-1.47-.22-.43-.14-.76-.35-1-.62-.24-.27-.36-.6-.36-1,0-.29.09-.57.27-.83s.42-.5.73-.71v-.06c-.17-.11-.31-.26-.43-.44s-.18-.4-.18-.67c0-.29.08-.54.25-.76.16-.21.33-.38.5-.5v-.06c-.22-.19-.42-.44-.6-.76-.19-.32-.28-.68-.28-1.08,0-.5.12-.93.36-1.29.24-.36.55-.64.94-.84s.81-.29,1.27-.29c.19,0,.36.02.53.05.17.03.31.07.43.12h2.37v.88h-1.42v.06c.17.15.31.34.41.56s.16.49.16.8c0,.49-.11.9-.34,1.25-.22.35-.52.62-.9.81s-.79.29-1.26.29c-.17,0-.34-.02-.52-.06-.18-.04-.35-.1-.5-.18-.11.1-.21.22-.3.34s-.13.28-.13.48c0,.22.09.39.26.53s.49.21.95.21h1.32c.79,0,1.39.13,1.79.39.4.26.6.67.6,1.24,0,.42-.14.81-.42,1.16s-.68.64-1.2.86-1.13.33-1.83.33ZM391.6,379.27c.43,0,.81-.07,1.13-.2.32-.13.58-.3.76-.52s.27-.44.27-.67c0-.32-.12-.54-.36-.66-.24-.12-.58-.18-1.02-.18h-1.18c-.13,0-.27,0-.43-.03s-.31-.05-.46-.08c-.25.18-.43.36-.54.56-.11.2-.16.39-.16.59,0,.36.18.65.53.87s.83.32,1.45.32ZM391.43,374c.26,0,.5-.07.72-.2.22-.13.39-.32.53-.57s.2-.53.2-.86c0-.5-.14-.9-.42-1.17-.28-.28-.62-.41-1.02-.41s-.74.14-1.02.41c-.28.28-.42.67-.42,1.17,0,.33.07.61.2.86s.31.43.53.57c.22.14.46.2.72.2Z"/>
    <path class="st1" d="M397.82,377.1c-.37,0-.71-.08-1.02-.23s-.54-.37-.72-.66c-.18-.29-.27-.63-.27-1.04,0-.77.34-1.35,1.01-1.74.67-.39,1.74-.67,3.2-.83,0-.28-.05-.55-.13-.81-.08-.26-.22-.47-.43-.63-.21-.16-.49-.24-.86-.24-.39,0-.76.07-1.11.22-.35.14-.65.31-.93.48l-.45-.79c.21-.14.45-.28.73-.41s.58-.25.91-.34c.33-.09.67-.13,1.04-.13.55,0,1,.11,1.35.34s.61.55.77.97c.16.42.25.92.25,1.49v4.18h-.95l-.1-.81h-.04c-.33.27-.68.5-1.05.69s-.78.29-1.21.29ZM398.15,376.14c.34,0,.65-.08.95-.22.29-.15.61-.37.93-.66v-1.84c-.77.09-1.37.21-1.82.36s-.76.33-.96.54-.29.47-.29.77c0,.37.12.64.35.81.23.16.51.25.84.25Z"/>
    <path class="st1" d="M405.93,377.1c-.86,0-1.55-.31-2.05-.93-.51-.62-.76-1.5-.76-2.63,0-.74.14-1.38.41-1.92.28-.54.64-.95,1.09-1.24.45-.29.93-.43,1.46-.43.4,0,.75.07,1.03.2.29.14.58.33.88.58l-.06-1.16v-2.62h1.16v9.99h-.95l-.1-.8h-.04c-.26.26-.57.49-.93.68s-.73.29-1.14.29ZM406.18,376.13c.32,0,.62-.08.9-.24.28-.16.56-.39.84-.7v-3.56c-.28-.26-.56-.45-.83-.55-.27-.11-.55-.16-.83-.16-.36,0-.69.11-.99.33-.29.22-.53.52-.71.91-.18.39-.27.84-.27,1.37,0,.81.16,1.45.49,1.92.33.46.79.69,1.39.69Z"/>
    <path class="st1" d="M414.32,377.1c-.55,0-1.07-.14-1.55-.42-.48-.28-.87-.69-1.16-1.22s-.44-1.17-.44-1.92.15-1.42.44-1.95c.29-.53.68-.94,1.16-1.22s1-.42,1.55-.42,1.08.14,1.56.42.86.69,1.16,1.22c.29.53.44,1.18.44,1.95s-.15,1.39-.44,1.92c-.29.53-.68.94-1.16,1.22-.48.28-1,.42-1.56.42ZM414.32,376.14c.39,0,.74-.11,1.04-.33.3-.22.53-.53.69-.92.16-.39.24-.85.24-1.36s-.08-.98-.24-1.38-.39-.71-.69-.93c-.3-.22-.65-.33-1.04-.33s-.74.11-1.03.33c-.29.22-.52.53-.69.93-.16.4-.25.86-.25,1.38s.08.97.25,1.36c.16.39.39.7.69.92.29.22.64.33,1.03.33Z"/>
    <path class="st1" d="M421.3,377.1c-.5,0-.97-.09-1.41-.26s-.82-.41-1.13-.72l.53-.67c.3.24.61.43.93.56s.69.2,1.12.2c.45,0,.79-.11,1.01-.32.22-.21.34-.46.34-.75,0-.23-.08-.43-.23-.58s-.35-.29-.57-.39c-.23-.11-.48-.21-.74-.3-.34-.12-.66-.26-.97-.43-.31-.16-.56-.37-.75-.62s-.29-.56-.29-.93c0-.55.21-1.01.62-1.38.42-.37.99-.55,1.73-.55.42,0,.81.07,1.18.22.36.14.68.33.94.55l-.53.66c-.24-.17-.49-.3-.74-.39-.25-.09-.53-.14-.84-.14-.43,0-.75.1-.95.29s-.3.43-.3.69c0,.21.06.38.18.51s.29.25.51.36.47.2.75.29c.35.13.69.28,1.02.44.32.16.58.37.79.63.2.26.3.59.3,1,0,.37-.1.71-.29,1.02-.19.3-.47.55-.84.74-.37.19-.83.28-1.37.28Z"/>
  </g>
  <rect class="st3" x="266.29" y="367.38" width="53.49" height="13.49" rx="4.81" ry="4.81"/>
  <g>
    <path class="st1" d="M115.58,401.81v-9.2h5.3v.98h-4.14v2.89h3.49v1h-3.49v3.34h4.28v1h-5.44Z"/>
    <path class="st1" d="M123.14,401.81v-6.82h.95l.1.98h.04c.3-.32.62-.59.97-.81.35-.22.73-.34,1.14-.34.52,0,.93.12,1.23.35s.51.55.65.95c.36-.39.71-.71,1.08-.95.36-.24.75-.36,1.16-.36.71,0,1.23.23,1.57.68.34.45.5,1.11.5,1.98v4.32h-1.15v-4.17c0-.65-.1-1.11-.31-1.4-.21-.29-.52-.43-.95-.43-.27,0-.54.09-.82.26-.28.17-.57.44-.89.79v4.94h-1.15v-4.17c0-.65-.1-1.11-.31-1.4-.21-.29-.53-.43-.97-.43-.51,0-1.08.35-1.71,1.05v4.94h-1.15Z"/>
    <path class="st1" d="M135.04,404.68v-9.69h.95l.1.79h.04c.31-.26.65-.49,1.02-.67.37-.19.76-.28,1.15-.28.58,0,1.07.14,1.47.43.4.29.71.69.91,1.21.21.52.31,1.13.31,1.84,0,.77-.14,1.43-.41,1.98-.28.55-.64.97-1.09,1.26-.45.29-.93.43-1.45.43-.31,0-.62-.07-.94-.21-.32-.14-.64-.33-.95-.58l.03,1.19v2.3h-1.15ZM137.86,401.01c.37,0,.71-.11,1-.32.29-.21.53-.53.69-.93.17-.41.25-.89.25-1.45,0-.5-.06-.93-.18-1.31-.12-.38-.31-.67-.58-.88-.26-.21-.61-.32-1.04-.32-.28,0-.57.08-.87.23-.3.15-.62.39-.95.69v3.58c.32.26.62.45.91.55.29.11.54.16.76.16Z"/>
    <path class="st1" d="M143.11,401.81v-6.82h.95l.1,1.23h.04c.22-.43.5-.77.84-1.02.34-.25.7-.38,1.09-.38.15,0,.28,0,.39.03s.22.06.34.11l-.25.98c-.1-.03-.2-.05-.29-.06-.09-.01-.2-.02-.34-.02-.29,0-.59.12-.91.35-.31.23-.59.64-.82,1.22v4.38h-1.15Z"/>
    <path class="st1" d="M150.88,401.97c-.61,0-1.16-.14-1.66-.43s-.9-.69-1.19-1.22c-.29-.53-.43-1.17-.43-1.93s.15-1.37.45-1.91c.3-.53.68-.94,1.15-1.23.47-.29.96-.43,1.49-.43.58,0,1.07.13,1.48.4.41.27.71.64.92,1.12.21.48.31,1.04.31,1.68,0,.12,0,.24,0,.35,0,.11-.02.22-.05.34h-4.91v-.91h3.93c0-.65-.14-1.16-.43-1.51s-.69-.53-1.23-.53c-.31,0-.61.09-.91.26-.3.17-.54.45-.74.83-.19.38-.29.89-.29,1.53,0,.58.1,1.07.3,1.46.2.39.47.69.82.89.35.2.72.3,1.14.3.33,0,.63-.05.92-.14.29-.09.54-.22.78-.38l.42.76c-.3.21-.63.37-1,.5s-.79.2-1.25.2Z"/>
    <path class="st1" d="M157.51,404.95c-.55,0-1.04-.07-1.47-.22-.43-.14-.76-.35-1-.62-.24-.27-.36-.6-.36-1,0-.29.09-.57.27-.83s.42-.5.73-.71v-.06c-.17-.11-.31-.26-.43-.44s-.18-.4-.18-.67c0-.29.08-.54.25-.76.16-.21.33-.38.5-.5v-.06c-.22-.19-.42-.44-.6-.76-.19-.32-.28-.68-.28-1.08,0-.5.12-.93.36-1.29.24-.36.55-.64.94-.84s.81-.29,1.27-.29c.19,0,.36.02.53.05.17.03.31.07.43.12h2.37v.88h-1.42v.06c.17.15.31.34.41.56s.16.49.16.8c0,.49-.11.9-.34,1.25-.22.35-.52.62-.9.81s-.79.29-1.26.29c-.17,0-.34-.02-.52-.06-.18-.04-.35-.1-.5-.18-.11.1-.21.22-.3.34s-.13.28-.13.48c0,.22.09.39.26.53s.49.21.95.21h1.32c.79,0,1.39.13,1.79.39.4.26.6.67.6,1.24,0,.42-.14.81-.42,1.16s-.68.64-1.2.86-1.13.33-1.83.33ZM157.68,404.15c.43,0,.81-.07,1.13-.2.32-.13.58-.3.76-.52s.27-.44.27-.67c0-.32-.12-.54-.36-.66-.24-.12-.58-.18-1.02-.18h-1.18c-.13,0-.27,0-.43-.03s-.31-.05-.46-.08c-.25.18-.43.36-.54.56-.11.2-.16.39-.16.59,0,.36.18.65.53.87s.83.32,1.45.32ZM157.51,398.87c.26,0,.5-.07.72-.2.22-.13.39-.32.53-.57s.2-.53.2-.86c0-.5-.14-.9-.42-1.17-.28-.28-.62-.41-1.02-.41s-.74.14-1.02.41c-.28.28-.42.67-.42,1.17,0,.33.07.61.2.86s.31.43.53.57c.22.14.46.2.72.2Z"/>
    <path class="st1" d="M163.91,401.97c-.37,0-.71-.08-1.02-.23s-.54-.37-.72-.66c-.18-.29-.27-.63-.27-1.04,0-.77.34-1.35,1.01-1.74.67-.39,1.74-.67,3.2-.83,0-.28-.05-.55-.13-.81-.08-.26-.22-.47-.43-.63-.21-.16-.49-.24-.86-.24-.39,0-.76.07-1.11.22-.35.14-.65.31-.93.48l-.45-.79c.21-.14.45-.28.73-.41s.58-.25.91-.34c.33-.09.67-.13,1.04-.13.55,0,1,.11,1.35.34s.61.55.77.97c.16.42.25.92.25,1.49v4.18h-.95l-.1-.81h-.04c-.33.27-.68.5-1.05.69s-.78.29-1.21.29ZM164.23,401.02c.34,0,.65-.08.95-.22.29-.15.61-.37.93-.66v-1.84c-.77.09-1.37.21-1.82.36s-.76.33-.96.54-.29.47-.29.77c0,.37.12.64.35.81.23.16.51.25.84.25Z"/>
    <path class="st1" d="M172.01,401.97c-.86,0-1.55-.31-2.05-.93-.51-.62-.76-1.5-.76-2.63,0-.74.14-1.38.41-1.92.28-.54.64-.95,1.09-1.24.45-.29.93-.43,1.46-.43.4,0,.75.07,1.03.2.29.14.58.33.88.58l-.06-1.16v-2.62h1.16v9.99h-.95l-.1-.8h-.04c-.26.26-.57.49-.93.68s-.73.29-1.14.29ZM172.27,401.01c.32,0,.62-.08.9-.24.28-.16.56-.39.84-.7v-3.56c-.28-.26-.56-.45-.83-.55-.27-.11-.55-.16-.83-.16-.36,0-.69.11-.99.33-.29.22-.53.52-.71.91-.18.39-.27.84-.27,1.37,0,.81.16,1.45.49,1.92.33.46.79.69,1.39.69Z"/>
    <path class="st1" d="M179.32,401.97c-.37,0-.71-.08-1.02-.23s-.54-.37-.72-.66c-.18-.29-.27-.63-.27-1.04,0-.77.34-1.35,1.01-1.74.67-.39,1.74-.67,3.2-.83,0-.28-.05-.55-.13-.81-.08-.26-.22-.47-.43-.63-.21-.16-.49-.24-.86-.24-.39,0-.76.07-1.11.22-.35.14-.65.31-.93.48l-.45-.79c.21-.14.45-.28.73-.41s.58-.25.91-.34c.33-.09.67-.13,1.04-.13.55,0,1,.11,1.35.34s.61.55.77.97c.16.42.25.92.25,1.49v4.18h-.95l-.1-.81h-.04c-.33.27-.68.5-1.05.69s-.78.29-1.21.29ZM179.64,401.02c.34,0,.65-.08.95-.22.29-.15.61-.37.93-.66v-1.84c-.77.09-1.37.21-1.82.36s-.76.33-.96.54-.29.47-.29.77c0,.37.12.64.35.81.23.16.51.25.84.25Z"/>
    <path class="st1" d="M186.88,401.97c-.5,0-.97-.09-1.41-.26s-.82-.41-1.13-.72l.53-.67c.3.24.61.43.93.56s.69.2,1.12.2c.45,0,.79-.11,1.01-.32.22-.21.34-.46.34-.75,0-.23-.08-.43-.23-.58s-.35-.29-.57-.39c-.23-.11-.48-.21-.74-.3-.34-.12-.66-.26-.97-.43-.31-.16-.56-.37-.75-.62s-.29-.56-.29-.93c0-.55.21-1.01.62-1.38.42-.37.99-.55,1.73-.55.42,0,.81.07,1.18.22.36.14.68.33.94.55l-.53.66c-.24-.17-.49-.3-.74-.39-.25-.09-.53-.14-.84-.14-.43,0-.75.1-.95.29s-.3.43-.3.69c0,.21.06.38.18.51s.29.25.51.36.47.2.75.29c.35.13.69.28,1.02.44.32.16.58.37.79.63.2.26.3.59.3,1,0,.37-.1.71-.29,1.02-.19.3-.47.55-.84.74-.37.19-.83.28-1.37.28Z"/>
  </g>
  <rect class="st0" x="54.24" y="392.26" width="53.49" height="13.49" rx="4.81" ry="4.81"/>
  <g>
    <path class="st1" d="M327.63,401.81v-9.2h5.3v.98h-4.14v2.89h3.49v1h-3.49v3.34h4.28v1h-5.44Z"/>
    <path class="st1" d="M335.19,401.81v-6.82h.95l.1.98h.04c.3-.32.62-.59.97-.81.35-.22.73-.34,1.14-.34.52,0,.93.12,1.23.35s.51.55.65.95c.36-.39.71-.71,1.08-.95.36-.24.75-.36,1.16-.36.71,0,1.23.23,1.57.68.34.45.5,1.11.5,1.98v4.32h-1.15v-4.17c0-.65-.1-1.11-.31-1.4-.21-.29-.52-.43-.95-.43-.27,0-.54.09-.82.26-.28.17-.57.44-.89.79v4.94h-1.15v-4.17c0-.65-.1-1.11-.31-1.4-.21-.29-.53-.43-.97-.43-.51,0-1.08.35-1.71,1.05v4.94h-1.15Z"/>
    <path class="st1" d="M347.1,404.68v-9.69h.95l.1.79h.04c.31-.26.65-.49,1.02-.67.37-.19.76-.28,1.15-.28.58,0,1.07.14,1.47.43.4.29.71.69.91,1.21.21.52.31,1.13.31,1.84,0,.77-.14,1.43-.41,1.98-.28.55-.64.97-1.09,1.26-.45.29-.93.43-1.45.43-.31,0-.62-.07-.94-.21-.32-.14-.64-.33-.95-.58l.03,1.19v2.3h-1.15ZM349.92,401.01c.37,0,.71-.11,1-.32.29-.21.53-.53.69-.93.17-.41.25-.89.25-1.45,0-.5-.06-.93-.18-1.31-.12-.38-.31-.67-.58-.88-.26-.21-.61-.32-1.04-.32-.28,0-.57.08-.87.23-.3.15-.62.39-.95.69v3.58c.32.26.62.45.91.55.29.11.54.16.76.16Z"/>
    <path class="st1" d="M355.16,401.81v-6.82h.95l.1,1.23h.04c.22-.43.5-.77.84-1.02.34-.25.7-.38,1.09-.38.15,0,.28,0,.39.03s.22.06.34.11l-.25.98c-.1-.03-.2-.05-.29-.06-.09-.01-.2-.02-.34-.02-.29,0-.59.12-.91.35-.31.23-.59.64-.82,1.22v4.38h-1.15Z"/>
    <path class="st1" d="M362.93,401.97c-.61,0-1.16-.14-1.66-.43s-.9-.69-1.19-1.22c-.29-.53-.43-1.17-.43-1.93s.15-1.37.45-1.91c.3-.53.68-.94,1.15-1.23.47-.29.96-.43,1.49-.43.58,0,1.07.13,1.48.4.41.27.71.64.92,1.12.21.48.31,1.04.31,1.68,0,.12,0,.24,0,.35,0,.11-.02.22-.05.34h-4.91v-.91h3.93c0-.65-.14-1.16-.43-1.51s-.69-.53-1.23-.53c-.31,0-.61.09-.91.26-.3.17-.54.45-.74.83-.19.38-.29.89-.29,1.53,0,.58.1,1.07.3,1.46.2.39.47.69.82.89.35.2.72.3,1.14.3.33,0,.63-.05.92-.14.29-.09.54-.22.78-.38l.42.76c-.3.21-.63.37-1,.5s-.79.2-1.25.2Z"/>
    <path class="st1" d="M369.57,404.95c-.55,0-1.04-.07-1.47-.22-.43-.14-.76-.35-1-.62-.24-.27-.36-.6-.36-1,0-.29.09-.57.27-.83s.42-.5.73-.71v-.06c-.17-.11-.31-.26-.43-.44s-.18-.4-.18-.67c0-.29.08-.54.25-.76.16-.21.33-.38.5-.5v-.06c-.22-.19-.42-.44-.6-.76-.19-.32-.28-.68-.28-1.08,0-.5.12-.93.36-1.29.24-.36.55-.64.94-.84s.81-.29,1.27-.29c.19,0,.36.02.53.05.17.03.31.07.43.12h2.37v.88h-1.42v.06c.17.15.31.34.41.56s.16.49.16.8c0,.49-.11.9-.34,1.25-.22.35-.52.62-.9.81s-.79.29-1.26.29c-.17,0-.34-.02-.52-.06-.18-.04-.35-.1-.5-.18-.11.1-.21.22-.3.34s-.13.28-.13.48c0,.22.09.39.26.53s.49.21.95.21h1.32c.79,0,1.39.13,1.79.39.4.26.6.67.6,1.24,0,.42-.14.81-.42,1.16s-.68.64-1.2.86-1.13.33-1.83.33ZM369.73,404.15c.43,0,.81-.07,1.13-.2.32-.13.58-.3.76-.52s.27-.44.27-.67c0-.32-.12-.54-.36-.66-.24-.12-.58-.18-1.02-.18h-1.18c-.13,0-.27,0-.43-.03s-.31-.05-.46-.08c-.25.18-.43.36-.54.56-.11.2-.16.39-.16.59,0,.36.18.65.53.87s.83.32,1.45.32ZM369.57,398.87c.26,0,.5-.07.72-.2.22-.13.39-.32.53-.57s.2-.53.2-.86c0-.5-.14-.9-.42-1.17-.28-.28-.62-.41-1.02-.41s-.74.14-1.02.41c-.28.28-.42.67-.42,1.17,0,.33.07.61.2.86s.31.43.53.57c.22.14.46.2.72.2Z"/>
    <path class="st1" d="M375.96,401.97c-.37,0-.71-.08-1.02-.23s-.54-.37-.72-.66c-.18-.29-.27-.63-.27-1.04,0-.77.34-1.35,1.01-1.74.67-.39,1.74-.67,3.2-.83,0-.28-.05-.55-.13-.81-.08-.26-.22-.47-.43-.63-.21-.16-.49-.24-.86-.24-.39,0-.76.07-1.11.22-.35.14-.65.31-.93.48l-.45-.79c.21-.14.45-.28.73-.41s.58-.25.91-.34c.33-.09.67-.13,1.04-.13.55,0,1,.11,1.35.34s.61.55.77.97c.16.42.25.92.25,1.49v4.18h-.95l-.1-.81h-.04c-.33.27-.68.5-1.05.69s-.78.29-1.21.29ZM376.28,401.02c.34,0,.65-.08.95-.22.29-.15.61-.37.93-.66v-1.84c-.77.09-1.37.21-1.82.36s-.76.33-.96.54-.29.47-.29.77c0,.37.12.64.35.81.23.16.51.25.84.25Z"/>
    <path class="st1" d="M384.07,401.97c-.86,0-1.55-.31-2.05-.93-.51-.62-.76-1.5-.76-2.63,0-.74.14-1.38.41-1.92.28-.54.64-.95,1.09-1.24.45-.29.93-.43,1.46-.43.4,0,.75.07,1.03.2.29.14.58.33.88.58l-.06-1.16v-2.62h1.16v9.99h-.95l-.1-.8h-.04c-.26.26-.57.49-.93.68s-.73.29-1.14.29ZM384.32,401.01c.32,0,.62-.08.9-.24.28-.16.56-.39.84-.7v-3.56c-.28-.26-.56-.45-.83-.55-.27-.11-.55-.16-.83-.16-.36,0-.69.11-.99.33-.29.22-.53.52-.71.91-.18.39-.27.84-.27,1.37,0,.81.16,1.45.49,1.92.33.46.79.69,1.39.69Z"/>
    <path class="st1" d="M392.45,401.97c-.55,0-1.07-.14-1.55-.42-.48-.28-.87-.69-1.16-1.22s-.44-1.17-.44-1.92.15-1.42.44-1.95c.29-.53.68-.94,1.16-1.22s1-.42,1.55-.42,1.08.14,1.56.42.86.69,1.16,1.22c.29.53.44,1.18.44,1.95s-.15,1.39-.44,1.92c-.29.53-.68.94-1.16,1.22-.48.28-1,.42-1.56.42ZM392.45,401.02c.39,0,.74-.11,1.04-.33.3-.22.53-.53.69-.92.16-.39.24-.85.24-1.36s-.08-.98-.24-1.38-.39-.71-.69-.93c-.3-.22-.65-.33-1.04-.33s-.74.11-1.03.33c-.29.22-.52.53-.69.93-.16.4-.25.86-.25,1.38s.08.97.25,1.36c.16.39.39.7.69.92.29.22.64.33,1.03.33Z"/>
    <path class="st1" d="M399.44,401.97c-.5,0-.97-.09-1.41-.26s-.82-.41-1.13-.72l.53-.67c.3.24.61.43.93.56s.69.2,1.12.2c.45,0,.79-.11,1.01-.32.22-.21.34-.46.34-.75,0-.23-.08-.43-.23-.58s-.35-.29-.57-.39c-.23-.11-.48-.21-.74-.3-.34-.12-.66-.26-.97-.43-.31-.16-.56-.37-.75-.62s-.29-.56-.29-.93c0-.55.21-1.01.62-1.38.42-.37.99-.55,1.73-.55.42,0,.81.07,1.18.22.36.14.68.33.94.55l-.53.66c-.24-.17-.49-.3-.74-.39-.25-.09-.53-.14-.84-.14-.43,0-.75.1-.95.29s-.3.43-.3.69c0,.21.06.38.18.51s.29.25.51.36.47.2.75.29c.35.13.69.28,1.02.44.32.16.58.37.79.63.2.26.3.59.3,1,0,.37-.1.71-.29,1.02-.19.3-.47.55-.84.74-.37.19-.83.28-1.37.28Z"/>
  </g>
  <rect class="st5" x="266.29" y="392.26" width="53.49" height="13.49" rx="4.81" ry="4.81"/>
</svg>