<?xml version="1.0" encoding="UTF-8"?>
<svg id="Layer_1" xmlns="http://www.w3.org/2000/svg" xmlns:xlink="http://www.w3.org/1999/xlink" version="1.1" viewBox="0 0 422 443">
  <!-- Generator: Adobe Illustrator 29.8.2, SVG Export Plug-In . SVG Version: 2.1.1 Build 3)  -->
  <defs>
    <style>
      .st0 {
        fill: none;
      }

      .st1 {
        fill: #e65b25;
      }

      .st2 {
        fill: #fff;
      }

      .st3 {
        fill: #5094d1;
      }

      .st4 {
        fill: #49ab4f;
      }

      .st5 {
        fill: #ff6637;
      }

      .st6 {
        fill: #49ac4f;
      }

      .st7 {
        clip-path: url(#clippath);
      }
    </style>
    <clipPath id="clippath">
      <circle class="st0" cx="230.18" cy="153.31" r="133.38"/>
    </clipPath>
  </defs>
  <g>
    <g>
      <path class="st2" d="M110.43,372.63l3.4-10.44h2.17l3.4,10.44h-1.95l-1.6-5.56c-.17-.55-.33-1.12-.49-1.71-.15-.59-.31-1.17-.45-1.74h-.06c-.14.59-.28,1.17-.44,1.75-.15.58-.32,1.15-.49,1.7l-1.61,5.56h-1.88ZM112.44,369.8v-1.45h4.92v1.45h-4.92Z"/>
      <path class="st2" d="M123.36,372.79c-.91,0-1.55-.26-1.92-.79s-.57-1.21-.57-2.05v-3.71h-1.12v-1.37l1.21-.08.22-2.46h1.53v2.46h2v1.45h-2v3.71c0,.46.09.8.27,1.03.18.23.46.34.83.34.14,0,.28-.01.42-.03.14-.02.27-.06.4-.13l.33,1.29c-.2.1-.44.18-.72.24-.28.06-.57.1-.89.1Z"/>
      <path class="st2" d="M129.8,372.82c-.74,0-1.4-.16-1.99-.49-.59-.32-1.06-.79-1.4-1.4-.34-.61-.51-1.36-.51-2.23s.18-1.58.53-2.2c.35-.61.8-1.08,1.36-1.41.55-.33,1.14-.49,1.76-.49.71,0,1.31.16,1.79.48s.84.76,1.08,1.32c.24.56.36,1.2.36,1.92,0,.17,0,.34-.02.5-.02.16-.04.31-.07.46h-5.4v-1.41h3.86c0-.56-.13-1.01-.38-1.33-.25-.32-.65-.49-1.18-.49-.3,0-.59.08-.87.24-.28.16-.52.43-.7.81-.19.38-.28.92-.28,1.6,0,.62.11,1.12.32,1.51.21.39.49.68.85.86.35.19.73.28,1.13.28.34,0,.66-.05.97-.14.3-.1.59-.23.85-.4l.64,1.18c-.36.25-.77.46-1.24.61-.46.15-.94.22-1.44.22ZM128.2,363.53l1.95-2.78h1.96l.11.19-2.59,2.59h-1.44Z"/>
      <path class="st2" d="M138.38,372.63v-1.5h2.27v-6.68h-1.87v-1.15c.5-.1.94-.21,1.31-.34.37-.13.72-.3,1.04-.49h1.37v8.66h2v1.5h-6.12Z"/>
      <path class="st2" d="M153.59,372.82c-.72,0-1.41-.13-2.05-.4-.64-.27-1.22-.64-1.72-1.13l1.01-1.21c.37.36.81.64,1.3.84s.99.3,1.49.3c.6,0,1.05-.12,1.36-.37.31-.25.46-.57.46-.98,0-.29-.07-.52-.21-.69-.14-.18-.33-.33-.57-.46-.24-.13-.52-.25-.84-.38l-1.44-.62c-.34-.15-.67-.34-1-.58-.32-.24-.59-.54-.8-.89-.21-.36-.31-.79-.31-1.3,0-.55.15-1.05.46-1.49.3-.44.72-.79,1.25-1.05.53-.26,1.13-.39,1.81-.39.63,0,1.22.11,1.78.34s1.04.54,1.43.93l-.97,1.21c-.34-.28-.7-.49-1.07-.65s-.76-.23-1.17-.23c-.49,0-.89.11-1.19.33-.3.22-.45.52-.45.9,0,.27.08.49.23.66.15.18.36.32.62.45.26.12.53.24.81.36l1.42.59c.42.18.78.39,1.1.64s.57.54.74.89.26.78.26,1.29c0,.56-.15,1.08-.45,1.55-.3.47-.73.84-1.29,1.13-.56.28-1.23.42-2.02.42Z"/>
      <path class="st2" d="M159.57,372.63v-10.44h2.22l1.79,5.11c.12.33.22.66.32.98s.19.68.29,1.06h.06c.1-.38.19-.74.28-1.06s.19-.65.3-.98l1.79-5.11h2.2v10.44h-1.71v-4.76c0-.33.01-.71.04-1.13s.06-.85.1-1.27c.04-.42.08-.79.13-1.11h-.06l-.83,2.65-1.69,4.66h-1.25l-1.69-4.66-.8-2.65h-.06c.04.32.08.69.12,1.11.04.42.07.84.1,1.27s.04.8.04,1.13v4.76h-1.68Z"/>
    </g>
    <rect class="st1" x="42.05" y="360.68" width="60.91" height="15.36" rx="4.81" ry="4.81"/>
  </g>
  <g>
    <g>
      <path class="st2" d="M111.48,394.58v-1.5h2.27v-6.68h-1.87v-1.15c.5-.1.94-.21,1.31-.34.37-.13.72-.3,1.04-.49h1.37v8.66h2v1.5h-6.12Z"/>
      <path class="st2" d="M125.39,394.77c-.46,0-.86-.1-1.21-.29-.35-.19-.63-.46-.82-.81s-.29-.75-.29-1.21c0-.88.37-1.55,1.11-2,.74-.45,1.91-.76,3.52-.93-.01-.27-.06-.51-.15-.74s-.24-.4-.45-.53-.49-.2-.84-.2c-.38,0-.76.07-1.13.21-.37.14-.73.31-1.08.53l-.67-1.25c.29-.18.6-.35.94-.5.34-.15.7-.28,1.09-.37.38-.09.78-.14,1.2-.14.65,0,1.19.13,1.62.39.43.26.76.64.97,1.15.22.51.33,1.13.33,1.86v4.63h-1.52l-.13-.86h-.06c-.36.3-.74.55-1.13.75-.39.2-.83.3-1.29.3ZM125.97,393.27c.32,0,.61-.07.89-.2.27-.13.55-.33.84-.6v-1.66c-.71.08-1.28.2-1.69.33-.41.14-.71.31-.89.5s-.26.43-.26.69c0,.33.11.57.32.71.21.14.48.22.8.22Z"/>
      <path class="st2" d="M135.01,394.58v-1.13c.94-.87,1.75-1.67,2.44-2.39.69-.72,1.22-1.37,1.6-1.96.38-.59.57-1.14.57-1.65,0-.54-.14-.97-.42-1.29-.28-.31-.7-.47-1.25-.47-.39,0-.75.11-1.08.33s-.62.49-.9.8l-.99-.97c.46-.51.94-.91,1.44-1.19.5-.28,1.09-.42,1.77-.42s1.21.13,1.69.38c.48.26.85.61,1.12,1.08.27.46.4,1.01.4,1.64s-.17,1.25-.52,1.87c-.35.62-.81,1.25-1.4,1.89-.59.64-1.24,1.32-1.95,2.04.27-.03.56-.06.87-.08.31-.02.59-.03.84-.03h2.65v1.56h-6.87Z"/>
      <path class="st2" d="M150.8,394.77c-.72,0-1.41-.13-2.05-.4-.64-.27-1.22-.64-1.72-1.13l1.01-1.21c.37.36.81.64,1.3.84s.99.3,1.49.3c.6,0,1.05-.12,1.36-.37.31-.25.46-.57.46-.98,0-.29-.07-.52-.21-.69-.14-.18-.33-.33-.57-.46-.24-.13-.52-.25-.84-.38l-1.44-.62c-.34-.15-.67-.34-1-.58-.32-.24-.59-.54-.8-.89-.21-.36-.31-.79-.31-1.3,0-.55.15-1.05.46-1.49.3-.44.72-.79,1.25-1.05.53-.26,1.13-.39,1.81-.39.63,0,1.22.11,1.78.34s1.04.54,1.43.93l-.97,1.21c-.34-.28-.7-.49-1.07-.65s-.76-.23-1.17-.23c-.49,0-.89.11-1.19.33-.3.22-.45.52-.45.9,0,.27.08.49.23.66.15.18.36.32.62.45.26.12.53.24.81.36l1.42.59c.42.18.78.39,1.1.64s.57.54.74.89.26.78.26,1.29c0,.56-.15,1.08-.45,1.55-.3.47-.73.84-1.29,1.13-.56.28-1.23.42-2.02.42Z"/>
      <path class="st2" d="M156.77,394.58v-10.44h2.22l1.79,5.11c.12.33.22.66.32.98s.19.68.29,1.06h.06c.1-.38.19-.74.28-1.06s.19-.65.3-.98l1.79-5.11h2.2v10.44h-1.71v-4.76c0-.33.01-.71.04-1.13s.06-.85.1-1.27c.04-.42.08-.79.13-1.11h-.06l-.83,2.65-1.69,4.66h-1.25l-1.69-4.66-.8-2.65h-.06c.04.32.08.69.12,1.11.04.42.07.84.1,1.27s.04.8.04,1.13v4.76h-1.68Z"/>
    </g>
    <rect class="st4" x="41.89" y="383.7" width="60.91" height="15.36" rx="4.81" ry="4.81"/>
  </g>
  <g>
    <g>
      <path class="st2" d="M265.88,372.63l3.4-10.44h2.17l3.4,10.44h-1.95l-1.6-5.56c-.17-.55-.33-1.12-.49-1.71-.15-.59-.31-1.17-.45-1.74h-.06c-.14.59-.28,1.17-.44,1.75-.15.58-.32,1.15-.49,1.7l-1.61,5.56h-1.88ZM267.89,369.8v-1.45h4.92v1.45h-4.92Z"/>
      <path class="st2" d="M279.61,372.82c-.72,0-1.37-.16-1.95-.49s-1.03-.79-1.37-1.4c-.33-.61-.5-1.35-.5-2.21s.18-1.61.54-2.23c.36-.61.84-1.08,1.45-1.41s1.25-.49,1.94-.49c.5,0,.94.08,1.32.25.38.16.71.37.98.63l-.88,1.15c-.17-.16-.36-.29-.58-.38-.22-.1-.47-.14-.74-.14-.42,0-.78.11-1.1.33-.32.22-.57.52-.76.91-.19.39-.28.85-.28,1.38s.09.98.27,1.37c.18.39.43.69.74.91.31.22.68.33,1.09.33.31,0,.6-.06.87-.18.27-.12.51-.27.73-.45l.75,1.13c-.33.3-.71.54-1.14.72-.43.18-.89.27-1.38.27Z"/>
      <path class="st2" d="M284.92,363.41c-.32,0-.58-.1-.79-.29s-.31-.45-.31-.77.1-.57.31-.76c.21-.19.47-.28.79-.28s.6.09.8.28c.2.19.3.44.3.76s-.1.57-.3.77-.47.29-.8.29ZM284.01,372.63v-7.84h1.84v7.84h-1.84Z"/>
      <path class="st2" d="M288.51,372.63v-7.84h1.52l.13,1.07h.06c.33-.35.69-.65,1.08-.89.39-.25.83-.37,1.32-.37.59,0,1.05.12,1.39.37.34.24.6.59.78,1.04.37-.4.76-.74,1.17-1.01.4-.27.86-.4,1.36-.4.83,0,1.44.27,1.84.82.39.54.59,1.31.59,2.3v4.92h-1.85v-4.68c0-.65-.1-1.11-.29-1.37s-.49-.4-.91-.4c-.25,0-.52.08-.78.24-.27.16-.55.4-.86.74v5.48h-1.84v-4.68c0-.65-.1-1.11-.3-1.37s-.5-.4-.92-.4c-.49,0-1.04.32-1.64.97v5.48h-1.84Z"/>
      <path class="st2" d="M304.19,372.82c-.46,0-.86-.1-1.21-.29-.35-.19-.63-.46-.82-.81s-.29-.75-.29-1.21c0-.88.37-1.55,1.11-2,.74-.45,1.91-.76,3.52-.93-.01-.27-.06-.51-.15-.74s-.24-.4-.45-.53-.49-.2-.84-.2c-.38,0-.76.07-1.13.21-.37.14-.73.31-1.08.53l-.67-1.25c.29-.18.6-.35.94-.5.34-.15.7-.28,1.09-.37.38-.09.78-.14,1.2-.14.65,0,1.19.13,1.62.39.43.26.76.64.97,1.15.22.51.33,1.13.33,1.86v4.63h-1.52l-.13-.86h-.06c-.36.3-.74.55-1.13.75-.39.2-.83.3-1.29.3ZM304.77,371.32c.32,0,.61-.07.89-.2.27-.13.55-.33.84-.6v-1.66c-.71.08-1.28.2-1.69.33-.41.14-.71.31-.89.5s-.26.43-.26.69c0,.33.11.57.32.71.21.14.48.22.8.22Z"/>
      <path class="st2" d="M317.11,372.82c-.98,0-1.76-.36-2.35-1.09-.58-.72-.88-1.73-.88-3.02,0-.85.16-1.59.47-2.2.31-.62.72-1.09,1.23-1.42.51-.33,1.05-.49,1.62-.49.45,0,.83.07,1.14.22.31.15.62.36.92.64l-.06-1.26v-2.84h1.84v11.27h-1.52l-.13-.85h-.06c-.29.29-.62.53-1.01.73-.38.2-.79.3-1.21.3ZM317.56,371.3c.31,0,.6-.07.86-.22s.53-.36.78-.66v-3.66c-.27-.24-.53-.41-.8-.51-.27-.1-.53-.14-.8-.14-.34,0-.65.1-.92.3-.27.2-.49.5-.65.88-.16.38-.25.85-.25,1.41,0,.84.15,1.49.46,1.93s.75.67,1.31.67Z"/>
      <path class="st2" d="M327.06,372.82c-.74,0-1.4-.16-1.99-.49-.59-.32-1.06-.79-1.4-1.4-.34-.61-.51-1.36-.51-2.23s.18-1.58.53-2.2c.35-.61.8-1.08,1.36-1.41.55-.33,1.14-.49,1.76-.49.71,0,1.31.16,1.79.48s.84.76,1.08,1.32c.24.56.36,1.2.36,1.92,0,.17,0,.34-.02.5-.02.16-.04.31-.07.46h-5.4v-1.41h3.86c0-.56-.13-1.01-.38-1.33-.25-.32-.65-.49-1.18-.49-.3,0-.59.08-.87.24-.28.16-.52.43-.7.81-.19.38-.28.92-.28,1.6,0,.62.11,1.12.32,1.51.21.39.49.68.85.86.35.19.73.28,1.13.28.34,0,.66-.05.97-.14.3-.1.59-.23.85-.4l.64,1.18c-.36.25-.77.46-1.24.61-.46.15-.94.22-1.44.22Z"/>
      <path class="st2" d="M335.06,372.63v-1.13c.94-.87,1.75-1.67,2.44-2.39.69-.72,1.22-1.37,1.6-1.96.38-.59.57-1.14.57-1.65,0-.54-.14-.97-.42-1.29-.28-.31-.7-.47-1.25-.47-.39,0-.75.11-1.08.33s-.62.49-.9.8l-.99-.97c.46-.51.94-.91,1.44-1.19.5-.28,1.09-.42,1.77-.42s1.21.13,1.69.38c.48.26.85.61,1.12,1.08.27.46.4,1.01.4,1.64s-.17,1.25-.52,1.87c-.35.62-.81,1.25-1.4,1.89-.59.64-1.24,1.32-1.95,2.04.27-.03.56-.06.87-.08.31-.02.59-.03.84-.03h2.65v1.56h-6.87Z"/>
      <path class="st2" d="M350.86,372.82c-.72,0-1.41-.13-2.05-.4-.64-.27-1.22-.64-1.72-1.13l1.01-1.21c.37.36.81.64,1.3.84s.99.3,1.49.3c.6,0,1.05-.12,1.36-.37.31-.25.46-.57.46-.98,0-.29-.07-.52-.21-.69-.14-.18-.33-.33-.57-.46-.24-.13-.52-.25-.84-.38l-1.44-.62c-.34-.15-.67-.34-1-.58-.32-.24-.59-.54-.8-.89-.21-.36-.31-.79-.31-1.3,0-.55.15-1.05.46-1.49.3-.44.72-.79,1.25-1.05.53-.26,1.13-.39,1.81-.39.63,0,1.22.11,1.78.34s1.04.54,1.43.93l-.97,1.21c-.34-.28-.7-.49-1.07-.65s-.76-.23-1.17-.23c-.49,0-.89.11-1.19.33-.3.22-.45.52-.45.9,0,.27.08.49.23.66.15.18.36.32.62.45.26.12.53.24.81.36l1.42.59c.42.18.78.39,1.1.64s.57.54.74.89.26.78.26,1.29c0,.56-.15,1.08-.45,1.55-.3.47-.73.84-1.29,1.13-.56.28-1.23.42-2.02.42Z"/>
      <path class="st2" d="M356.83,372.63v-10.44h2.22l1.79,5.11c.12.33.22.66.32.98s.19.68.29,1.06h.06c.1-.38.19-.74.28-1.06s.19-.65.3-.98l1.79-5.11h2.2v10.44h-1.71v-4.76c0-.33.01-.71.04-1.13s.06-.85.1-1.27c.04-.42.08-.79.13-1.11h-.06l-.83,2.65-1.69,4.66h-1.25l-1.69-4.66-.8-2.65h-.06c.04.32.08.69.12,1.11.04.42.07.84.1,1.27s.04.8.04,1.13v4.76h-1.68Z"/>
    </g>
    <rect class="st3" x="197.5" y="360.62" width="60.91" height="15.36" rx="4.81" ry="4.81"/>
  </g>
  <g>
    <path class="st2" d="M42.64,338.83v-12.7h3.97c.86,0,1.63.11,2.3.34.67.23,1.2.6,1.58,1.12s.57,1.22.57,2.1-.19,1.56-.57,2.11-.91.97-1.58,1.25c-.67.28-1.44.42-2.3.42h-2.36v5.36h-1.61ZM44.25,332.15h2.13c.99,0,1.75-.2,2.28-.61.53-.41.79-1.02.79-1.85s-.26-1.41-.79-1.75c-.53-.34-1.29-.51-2.28-.51h-2.13v4.72ZM49.61,338.83l-3.31-5.81,1.26-.85,3.87,6.66h-1.82Z"/>
    <path class="st2" d="M57.51,339.07c-.84,0-1.6-.2-2.29-.59-.69-.39-1.24-.96-1.64-1.68-.4-.73-.6-1.62-.6-2.66s.21-1.9.62-2.63c.41-.74.94-1.3,1.59-1.7.64-.4,1.33-.6,2.05-.6.8,0,1.48.18,2.04.55.56.37.98.88,1.27,1.54.28.66.43,1.43.43,2.32,0,.17,0,.33-.01.48s-.03.31-.07.46h-6.78v-1.26h5.42c0-.9-.2-1.6-.59-2.08s-.96-.73-1.69-.73c-.43,0-.85.12-1.26.36s-.75.62-1.02,1.15-.4,1.23-.4,2.11c0,.8.14,1.47.42,2.01.28.54.65.95,1.13,1.23.48.28,1,.42,1.57.42.45,0,.87-.06,1.27-.19s.75-.3,1.07-.52l.58,1.05c-.41.28-.87.52-1.38.7-.51.18-1.09.27-1.73.27Z"/>
    <path class="st2" d="M63.69,338.83v-9.41h1.32l.14,1.36h.06c.45-.45.93-.83,1.43-1.13.5-.3,1.08-.45,1.72-.45.99,0,1.72.31,2.18.94s.69,1.54.69,2.74v5.96h-1.59v-5.75c0-.89-.14-1.53-.42-1.93-.28-.39-.73-.59-1.37-.59-.48,0-.91.12-1.29.37-.38.25-.81.61-1.29,1.08v6.81h-1.59Z"/>
    <path class="st2" d="M77.87,339.07c-1.19,0-2.13-.43-2.84-1.29-.7-.86-1.06-2.07-1.06-3.63,0-1.02.19-1.9.57-2.64.38-.74.88-1.31,1.5-1.71.62-.4,1.29-.6,2.01-.6.55,0,1.03.09,1.42.28.39.19.8.45,1.21.8l-.08-1.61v-3.62h1.61v13.78h-1.32l-.14-1.1h-.06c-.36.36-.79.68-1.28.94s-1.01.4-1.57.4ZM78.22,337.73c.44,0,.85-.11,1.24-.33.39-.22.77-.54,1.16-.97v-4.92c-.39-.36-.77-.62-1.14-.77s-.76-.22-1.14-.22c-.5,0-.96.15-1.37.45-.41.3-.73.72-.98,1.26-.25.54-.37,1.17-.37,1.89,0,1.12.23,2,.68,2.64.45.64,1.09.96,1.92.96Z"/>
    <path class="st2" d="M87.96,339.07c-.52,0-.98-.11-1.4-.32-.42-.21-.75-.52-1-.91s-.37-.87-.37-1.44c0-1.06.46-1.86,1.39-2.4.93-.54,2.4-.92,4.41-1.14-.01-.39-.07-.76-.18-1.12-.11-.36-.31-.65-.59-.87-.28-.22-.68-.33-1.18-.33-.54,0-1.05.1-1.53.3-.48.2-.9.42-1.28.67l-.62-1.08c.28-.19.62-.38,1.01-.57s.81-.34,1.26-.46c.45-.12.93-.18,1.43-.18.76,0,1.38.16,1.87.47.48.32.84.77,1.06,1.35s.34,1.26.34,2.05v5.77h-1.32l-.14-1.12h-.06c-.45.37-.94.69-1.45.96-.52.26-1.07.4-1.66.4ZM88.41,337.75c.46,0,.9-.1,1.31-.31.41-.21.84-.51,1.29-.91v-2.54c-1.06.13-1.89.29-2.51.49-.61.2-1.06.45-1.33.75-.27.3-.41.65-.41,1.06,0,.52.16.89.48,1.11s.71.34,1.16.34Z"/>
    <path class="st2" d="M104.01,339.07c-.84,0-1.6-.2-2.29-.59-.69-.39-1.24-.96-1.64-1.68-.4-.73-.6-1.62-.6-2.66s.21-1.9.62-2.63c.41-.74.94-1.3,1.59-1.7.64-.4,1.33-.6,2.05-.6.8,0,1.48.18,2.04.55.56.37.98.88,1.27,1.54.28.66.43,1.43.43,2.32,0,.17,0,.33-.01.48s-.03.31-.07.46h-6.78v-1.26h5.42c0-.9-.2-1.6-.59-2.08s-.96-.73-1.69-.73c-.43,0-.85.12-1.26.36s-.75.62-1.02,1.15-.4,1.23-.4,2.11c0,.8.14,1.47.42,2.01.28.54.65.95,1.13,1.23.48.28,1,.42,1.57.42.45,0,.87-.06,1.27-.19s.75-.3,1.07-.52l.58,1.05c-.41.28-.87.52-1.38.7-.51.18-1.09.27-1.73.27Z"/>
    <path class="st2" d="M110.18,338.83v-9.41h1.32l.14,1.36h.06c.41-.44.86-.81,1.35-1.12.48-.31,1.01-.46,1.58-.46.72,0,1.29.16,1.69.48s.71.76.9,1.32c.49-.54.99-.98,1.49-1.31.5-.33,1.04-.49,1.61-.49.98,0,1.7.31,2.17.94s.7,1.54.7,2.74v5.96h-1.59v-5.75c0-.89-.14-1.53-.43-1.93-.28-.39-.72-.59-1.32-.59-.37,0-.75.12-1.13.36-.38.24-.79.6-1.23,1.09v6.81h-1.59v-5.75c0-.89-.14-1.53-.43-1.93-.28-.39-.73-.59-1.34-.59-.71,0-1.5.48-2.36,1.45v6.81h-1.59Z"/>
    <path class="st2" d="M134.63,339.07c-.84,0-1.66-.15-2.48-.45-.81-.3-1.54-.77-2.19-1.38l1.51-1.86c.45.39.96.69,1.54.91s1.14.33,1.69.33c.59,0,1.04-.11,1.33-.33.29-.22.44-.52.44-.89,0-.27-.07-.49-.22-.65s-.36-.31-.63-.44c-.27-.13-.59-.27-.97-.43l-1.65-.68c-.43-.19-.84-.44-1.23-.75s-.71-.68-.95-1.12c-.24-.44-.36-.98-.36-1.6,0-.7.19-1.33.57-1.89.38-.56.91-1.01,1.59-1.36.68-.34,1.45-.51,2.33-.51.76,0,1.5.14,2.21.41.71.27,1.33.66,1.86,1.18l-1.51,1.84c-.41-.31-.84-.55-1.27-.72s-.86-.25-1.29-.25c-.49,0-.88.1-1.17.3-.29.2-.44.48-.44.84,0,.24.08.45.25.63.17.17.4.32.7.45s.62.26.97.42l1.63.66c.52.21.96.46,1.33.77.37.31.65.68.86,1.11.21.43.31.95.31,1.54,0,.7-.19,1.34-.56,1.94s-.92,1.07-1.63,1.43c-.71.36-1.57.54-2.57.54Z"/>
    <path class="st2" d="M144.1,339.07c-.57,0-1.07-.13-1.5-.39-.43-.26-.76-.6-1-1.04s-.35-.93-.35-1.48c0-1.03.43-1.83,1.28-2.39.85-.56,2.23-.95,4.12-1.15-.03-.27-.09-.51-.19-.71-.1-.2-.26-.35-.48-.46-.22-.11-.5-.16-.83-.16-.41,0-.82.07-1.23.21-.41.14-.84.34-1.31.6l-1.03-1.84c.4-.24.83-.46,1.28-.66.45-.19.91-.34,1.37-.44s.95-.16,1.45-.16c.83,0,1.52.16,2.08.47s.99.8,1.3,1.44c.3.64.45,1.46.45,2.44v5.48h-2.34l-.19-.99h-.08c-.41.36-.85.65-1.3.88-.45.23-.96.34-1.51.34ZM145.07,336.84c.32,0,.61-.07.86-.21.25-.14.49-.33.73-.58v-1.63c-.67.09-1.2.21-1.59.35-.39.14-.66.31-.83.51-.17.2-.25.42-.25.67,0,.3.1.52.3.67.2.15.46.22.78.22Z"/>
    <path class="st2" d="M154.9,339.05c-.65,0-1.16-.13-1.54-.4-.38-.26-.65-.64-.82-1.12-.17-.48-.25-1.05-.25-1.69v-10.55h2.83v10.67c0,.31.06.52.17.64.12.12.24.17.37.17.05,0,.1,0,.15-.01.05,0,.11-.02.18-.03l.35,2.09c-.14.06-.34.12-.58.16-.25.05-.53.07-.85.07Z"/>
    <path class="st2" d="M160.61,339.07c-.57,0-1.07-.13-1.5-.39-.43-.26-.76-.6-1-1.04s-.35-.93-.35-1.48c0-1.03.43-1.83,1.28-2.39.85-.56,2.23-.95,4.12-1.15-.03-.27-.09-.51-.19-.71-.1-.2-.26-.35-.48-.46-.22-.11-.5-.16-.83-.16-.41,0-.82.07-1.23.21-.41.14-.84.34-1.31.6l-1.03-1.84c.4-.24.83-.46,1.28-.66.45-.19.91-.34,1.37-.44s.95-.16,1.45-.16c.83,0,1.52.16,2.08.47s.99.8,1.3,1.44c.3.64.45,1.46.45,2.44v5.48h-2.34l-.19-.99h-.08c-.41.36-.85.65-1.3.88-.45.23-.96.34-1.51.34ZM161.58,336.84c.32,0,.61-.07.86-.21.25-.14.49-.33.73-.58v-1.63c-.67.09-1.2.21-1.59.35-.39.14-.66.31-.83.51-.17.2-.25.42-.25.67,0,.3.1.52.3.67.2.15.46.22.78.22ZM160.63,327.8l2.23-3.54h3l.16.31-3.21,3.23h-2.17Z"/>
    <path class="st2" d="M168.8,338.83v-9.6h2.32l.19,1.68h.08c.35-.64.77-1.13,1.25-1.44s.98-.47,1.48-.47c.27,0,.5.02.68.05s.34.08.46.15l-.54,2.42c-.16-.04-.3-.07-.45-.09-.14-.02-.32-.03-.52-.03-.36,0-.74.13-1.13.39-.39.26-.72.72-.98,1.37v5.58h-2.85Z"/>
    <path class="st2" d="M178.31,327.82c-.48,0-.87-.14-1.16-.41-.3-.27-.45-.63-.45-1.08s.15-.81.45-1.08c.3-.27.68-.41,1.16-.41s.86.14,1.16.41c.3.27.44.63.44,1.08s-.15.81-.44,1.08c-.3.27-.68.41-1.16.41ZM176.89,338.83v-9.6h2.83v9.6h-2.83Z"/>
    <path class="st2" d="M186.75,339.07c-.81,0-1.57-.2-2.28-.59-.71-.39-1.29-.97-1.73-1.72-.45-.76-.67-1.66-.67-2.72s.22-1.96.67-2.72c.44-.76,1.02-1.33,1.73-1.72.71-.39,1.47-.59,2.28-.59s1.56.2,2.26.59c.71.39,1.29.97,1.73,1.72.45.76.67,1.66.67,2.72s-.22,1.96-.67,2.72c-.44.76-1.02,1.33-1.73,1.72-.71.39-1.46.59-2.26.59ZM186.75,336.76c.39,0,.71-.11.98-.33.26-.22.46-.53.59-.95.13-.41.19-.9.19-1.45s-.06-1.04-.19-1.45c-.13-.41-.33-.73-.59-.95s-.59-.33-.98-.33-.73.11-.99.33-.45.54-.58.95c-.13.41-.19.9-.19,1.45s.06,1.04.19,1.45c.13.41.32.73.58.95.26.22.59.33.99.33Z"/>
    <path class="st2" d="M198.24,338.83v-12.6h3.17l2.03,5.59c.12.37.23.75.34,1.13.11.38.22.78.34,1.19h.08c.12-.41.23-.81.34-1.19.11-.38.22-.76.34-1.13l1.95-5.59h3.17v12.6h-2.59v-4.63c0-.41.02-.9.07-1.46.05-.56.1-1.12.16-1.68.06-.56.11-1.05.16-1.46h-.08l-1.05,3.33-1.76,4.82h-1.66l-1.76-4.82-.99-3.33h-.08c.05.41.11.9.16,1.46.06.56.11,1.12.16,1.68.05.56.07,1.05.07,1.46v4.63h-2.57Z"/>
    <path class="st2" d="M212.9,327.8l2.23-3.54h3l.15.31-3.21,3.23h-2.17ZM213.15,338.83v-9.6h2.83v9.6h-2.83Z"/>
    <path class="st2" d="M218.88,338.83v-9.6h2.32l.19,1.22h.08c.4-.4.85-.74,1.36-1.03.5-.28,1.08-.43,1.72-.43,1.06,0,1.82.35,2.28,1.04.46.69.7,1.64.7,2.84v5.96h-2.85v-5.59c0-.7-.09-1.17-.28-1.43-.19-.26-.49-.39-.9-.39-.36,0-.67.08-.93.24-.26.16-.54.39-.85.69v6.49h-2.85Z"/>
    <path class="st2" d="M231.75,327.82c-.48,0-.87-.14-1.16-.41-.3-.27-.45-.63-.45-1.08s.15-.81.45-1.08c.3-.27.68-.41,1.16-.41s.86.14,1.16.41c.3.27.44.63.44,1.08s-.15.81-.44,1.08c-.3.27-.69.41-1.16.41ZM230.34,338.83v-9.6h2.83v9.6h-2.83Z"/>
    <path class="st2" d="M236.07,338.83v-9.6h2.32l.19,1.24h.08c.39-.4.81-.75,1.27-1.04s1-.44,1.64-.44c.68,0,1.24.14,1.66.42.43.28.76.67.99,1.19.43-.44.88-.82,1.36-1.13.48-.32,1.03-.47,1.66-.47,1.05,0,1.81.35,2.28,1.04s.72,1.64.72,2.84v5.96h-2.85v-5.59c0-.7-.09-1.17-.28-1.43-.19-.26-.49-.39-.9-.39-.24,0-.5.07-.77.22-.27.15-.56.38-.87.71v6.49h-2.85v-5.59c0-.7-.09-1.17-.28-1.43s-.49-.39-.9-.39c-.49,0-1.03.31-1.63.93v6.49h-2.84Z"/>
    <path class="st2" d="M257.17,339.07c-.81,0-1.57-.2-2.28-.59s-1.29-.97-1.73-1.72c-.44-.76-.67-1.66-.67-2.72s.22-1.96.67-2.72c.45-.76,1.02-1.33,1.73-1.72.71-.39,1.47-.59,2.28-.59s1.56.2,2.27.59c.71.39,1.29.97,1.73,1.72.45.76.67,1.66.67,2.72s-.22,1.96-.67,2.72c-.44.76-1.02,1.33-1.73,1.72s-1.46.59-2.27.59ZM257.17,336.76c.39,0,.71-.11.98-.33.26-.22.46-.53.59-.95.13-.41.19-.9.19-1.45s-.07-1.04-.19-1.45c-.13-.41-.33-.73-.59-.95-.26-.22-.59-.33-.98-.33s-.73.11-.99.33c-.26.22-.45.54-.58.95-.13.41-.19.9-.19,1.45s.06,1.04.19,1.45c.13.41.32.73.58.95.26.22.59.33.99.33Z"/>
    <path class="st2" d="M271.13,342.3c-.81-1.33-1.44-2.71-1.89-4.14-.44-1.43-.67-3-.67-4.7s.22-3.27.67-4.71c.44-1.44,1.07-2.82,1.89-4.13l1.78.74c-.71,1.25-1.23,2.57-1.55,3.96-.32,1.39-.48,2.77-.48,4.15s.16,2.75.48,4.13.84,2.71,1.55,3.98l-1.78.74Z"/>
    <path class="st2" d="M279.57,339.07c-.84,0-1.66-.15-2.48-.45-.81-.3-1.54-.77-2.19-1.38l1.51-1.86c.45.39.97.69,1.54.91s1.14.33,1.69.33c.59,0,1.04-.11,1.33-.33s.43-.52.43-.89c0-.27-.07-.49-.22-.65s-.36-.31-.63-.44c-.27-.13-.59-.27-.97-.43l-1.65-.68c-.43-.19-.84-.44-1.23-.75s-.71-.68-.95-1.12c-.24-.44-.36-.98-.36-1.6,0-.7.19-1.33.57-1.89.38-.56.91-1.01,1.59-1.36.68-.34,1.45-.51,2.33-.51.76,0,1.5.14,2.21.41.71.27,1.33.66,1.86,1.18l-1.51,1.84c-.41-.31-.84-.55-1.27-.72s-.86-.25-1.29-.25c-.49,0-.88.1-1.17.3-.29.2-.43.48-.43.84,0,.24.08.45.25.63.17.17.4.32.7.45s.62.26.97.42l1.63.66c.52.21.96.46,1.33.77.37.31.65.68.86,1.11.21.43.31.95.31,1.54,0,.7-.19,1.34-.56,1.94s-.92,1.07-1.63,1.43c-.71.36-1.57.54-2.57.54Z"/>
    <path class="st2" d="M286.87,338.83v-12.6h3.17l2.03,5.59c.12.37.23.75.34,1.13.11.38.22.78.34,1.19h.08c.12-.41.23-.81.34-1.19.11-.38.22-.76.34-1.13l1.96-5.59h3.17v12.6h-2.59v-4.63c0-.41.02-.9.07-1.46.04-.56.1-1.12.15-1.68.06-.56.11-1.05.16-1.46h-.08l-1.05,3.33-1.76,4.82h-1.66l-1.76-4.82-.99-3.33h-.08c.05.41.11.9.16,1.46.06.56.11,1.12.16,1.68.04.56.07,1.05.07,1.46v4.63h-2.58Z"/>
    <path class="st2" d="M303.22,342.3l-1.78-.74c.71-1.26,1.23-2.59,1.56-3.98s.49-2.76.49-4.13-.16-2.76-.49-4.15c-.33-1.39-.85-2.71-1.56-3.96l1.78-.74c.81,1.32,1.44,2.69,1.89,4.13.45,1.44.67,3.01.67,4.71s-.22,3.27-.67,4.7c-.44,1.43-1.07,2.81-1.89,4.14Z"/>
    <path class="st2" d="M310.46,332.79c-.49,0-.9-.17-1.23-.52-.33-.35-.49-.77-.49-1.26,0-.52.16-.95.49-1.29.33-.34.74-.51,1.23-.51s.92.17,1.24.51c.32.34.48.77.48,1.29s-.16.91-.48,1.26c-.32.35-.74.52-1.24.52ZM310.46,339.07c-.49,0-.9-.17-1.23-.52-.33-.35-.49-.77-.49-1.26,0-.52.16-.95.49-1.29.33-.34.74-.51,1.23-.51s.92.17,1.24.51c.32.34.48.77.48,1.29s-.16.91-.48,1.26c-.32.35-.74.52-1.24.52Z"/>
  </g>
  <g class="st7">
    <g>
      <circle class="st6" cx="230.18" cy="153.31" r="133.38"/>
      <g>
        <polygon class="st3" points="233.21 13.12 230.18 153.31 224.12 7.81 233.21 13.12"/>
        <path class="st2" d="M229.61,153.34l-6.11-146.54,10.28,6-3.04,140.53h-1.14ZM224.73,8.83l5.27,126.48,2.63-121.87-7.9-4.61Z"/>
      </g>
      <g>
        <polygon class="st3" points="230.18 153.31 128.36 12.39 230.18 19.94 230.18 153.31"/>
        <path class="st2" d="M128.36,12.39l101.82,7.55v133.38L128.36,12.39M123.65,9.75l2.87,3.97,101.82,140.93,4.12,5.71V17.82l-2.11-.16-101.82-7.55-4.88-.36h0Z"/>
      </g>
      <g>
        <path class="st5" d="M224.12,7.81l6.06,145.5-134.52,15.53s-51.15-31.45,4.55,62.9c55.7,94.35,181.88,71.61,181.88,71.61l-3.36-9.72c27.55-7.34,82.93-33.04,102.26-122.14C407.13,51.01,270.72,10.08,224.12,7.81Z"/>
        <path class="st2" d="M248.72,306.89c-10.77,0-23.42-.69-36.85-2.83-35.38-5.61-83.63-22.62-112.63-71.73-22.86-38.73-30.63-60.84-23.74-67.61,5.51-5.41,18.12,1.6,20.42,2.95l133.08-15.37-6.07-145.69,1.25.06c14.8.72,40.2,5.45,67.1,16.56,21.35,8.82,51.05,24.86,71.27,51.23,21.03,27.42,27.61,60.15,19.55,97.28-8.49,39.11-24.77,70.17-48.38,92.32-19.27,18.08-39.53,26.47-53.51,30.36l3.4,9.83-1.31.24c-.21.04-13.69,2.4-33.58,2.4ZM81.22,164.96c-1.66,0-3.11.39-4.13,1.39-3.35,3.29-4.67,16.09,24.1,64.82,28.53,48.33,76.09,65.09,110.96,70.63,33.51,5.33,62.06,1.62,68.42.65l-3.32-9.6,1.18-.31c13.76-3.67,34.25-11.87,53.72-30.14,23.28-21.83,39.33-52.49,47.72-91.14,7.91-36.44,1.47-68.54-19.13-95.41-19.91-25.96-49.24-41.8-70.33-50.51-25.9-10.69-50.34-15.42-65.1-16.32l6.05,145.31-135.96,15.7-.34-.21c-2.72-1.67-9.13-4.86-13.85-4.86Z"/>
      </g>
      <g>
        <path class="st2" d="M227.6,194.98l6.64-14.53-.24-.31h-8.94v-2.83h12.89v2.62l-6.71,15.07h-3.63ZM225.06,182.97v-5.67h2.79v5.67h-2.79Z"/>
        <path class="st2" d="M245.02,195.44c-1.36,0-2.52-.25-3.5-.76-.98-.51-1.72-1.2-2.24-2.07-.52-.87-.78-1.84-.78-2.91h3.32c0,.86.29,1.55.86,2.07.57.53,1.35.79,2.34.79.66,0,1.23-.12,1.71-.38.48-.25.84-.6,1.1-1.04.26-.44.39-.96.39-1.54,0-.87-.28-1.59-.85-2.14-.57-.56-1.34-.84-2.33-.84-.48,0-.91.07-1.27.21s-.68.3-.96.5l-1.6-2.71,5.84-3.97-.24-.41h-7.58v-2.93h11.56v3.54l-5.98,3.97-1.87-.34c.31-.1.64-.17.99-.23.36-.06.74-.08,1.16-.08,1.34,0,2.49.23,3.45.69.96.46,1.7,1.09,2.22,1.9.52.81.78,1.74.78,2.79v.31c0,1.03-.26,1.97-.78,2.82-.52.85-1.26,1.52-2.23,2.02-.97.5-2.14.75-3.51.75Z"/>
        <path class="st2" d="M254.73,199.03l-2.62-1.02,2.45-7.02,2.83,1.04-2.66,7Z"/>
        <path class="st2" d="M258.92,194.98v-3.39c0-.74.12-1.39.35-1.94.23-.55.62-1.04,1.15-1.47.53-.43,1.24-.84,2.13-1.22l3-1.33c.76-.34,1.33-.75,1.72-1.25.39-.49.58-1.13.58-1.9,0-.84-.25-1.52-.75-2.04-.5-.52-1.22-.78-2.16-.78s-1.66.26-2.17.79c-.51.52-.76,1.24-.76,2.14h-3.32c0-1.08.23-2.07.69-2.96.46-.89,1.15-1.59,2.08-2.1s2.09-.76,3.48-.76,2.54.25,3.46.75c.92.5,1.61,1.17,2.08,2,.47.83.7,1.76.7,2.8v.32c0,1.32-.37,2.43-1.11,3.31-.74.88-1.83,1.64-3.27,2.27l-3,1.33c-.56.24-.96.5-1.19.76-.23.27-.34.63-.34,1.08v1.55l-.82-.9h9.81v2.93h-12.35Z"/>
        <path class="st2" d="M276.34,186.94c-.95,0-1.74-.21-2.35-.63-.61-.42-1.07-.98-1.37-1.7-.3-.71-.45-1.49-.45-2.35v-.63c0-.92.15-1.73.46-2.43.31-.7.77-1.25,1.39-1.65.62-.4,1.39-.59,2.31-.59s1.71.2,2.33.59c.61.4,1.07.94,1.38,1.65.31.7.46,1.51.46,2.43v.63c0,.86-.15,1.64-.45,2.35s-.75,1.28-1.36,1.7c-.6.42-1.39.63-2.36.63ZM276.34,184.69c.58,0,1.01-.21,1.28-.64s.41-1.12.41-2.07c0-1.02-.14-1.73-.42-2.14s-.71-.62-1.27-.62-.99.21-1.27.62c-.28.41-.42,1.12-.42,2.12s.14,1.65.42,2.08c.28.44.71.65,1.27.65ZM277.58,194.98l6.52-17.68h2.81l-6.52,17.68h-2.81ZM288.04,195.35c-.94,0-1.71-.21-2.33-.63s-1.07-.98-1.37-1.7c-.3-.71-.45-1.49-.45-2.35v-.63c0-.92.15-1.73.46-2.43.31-.7.77-1.25,1.39-1.65.62-.4,1.38-.59,2.29-.59s1.71.2,2.33.59c.61.4,1.07.95,1.38,1.65s.46,1.51.46,2.43v.63c0,.86-.15,1.64-.45,2.35-.3.71-.75,1.28-1.36,1.7-.6.42-1.39.63-2.36.63ZM288.04,193.09c.58,0,1.01-.21,1.3-.64.28-.43.42-1.12.42-2.07,0-1.02-.14-1.73-.44-2.14-.29-.41-.72-.62-1.28-.62s-.99.21-1.27.62c-.28.41-.42,1.12-.42,2.12s.14,1.65.42,2.08c.28.44.71.65,1.27.65Z"/>
      </g>
      <g>
        <path class="st2" d="M119.45,125.12v-15.55l1.07.82h-4.68v-2.96h7.02v17.68h-3.42Z"/>
        <path class="st2" d="M127.76,125.12l6.64-14.53-.24-.31h-8.94v-2.83h12.89v2.62l-6.71,15.07h-3.63ZM125.21,113.1v-5.67h2.79v5.67h-2.79Z"/>
        <path class="st2" d="M140.69,129.16l-2.62-1.02,2.45-7.02,2.83,1.04-2.66,7Z"/>
        <path class="st2" d="M151.13,125.58c-1.39,0-2.58-.27-3.57-.82-.99-.55-1.75-1.28-2.28-2.19s-.79-1.91-.79-2.99h3.32c0,.61.14,1.15.42,1.62.28.47.67.84,1.17,1.1.5.27,1.08.4,1.74.4s1.29-.15,1.78-.44.88-.69,1.15-1.19c.27-.5.41-1.07.41-1.72s-.13-1.2-.4-1.71c-.27-.51-.65-.91-1.14-1.21-.49-.3-1.09-.45-1.78-.45-.58,0-1.13.11-1.65.34-.52.23-.92.53-1.21.9h-3.2l.9-9.79h10.27v2.93h-8.77l1.24-.94-.58,6.1-.82-.22c.47-.55,1.04-1,1.72-1.36s1.53-.53,2.57-.53c1.31,0,2.42.27,3.34.8.92.53,1.62,1.24,2.11,2.12.48.88.73,1.84.73,2.87v.31c0,1.05-.26,2.04-.78,2.96-.52.92-1.27,1.67-2.27,2.24-.99.57-2.21.86-3.65.86Z"/>
        <path class="st2" d="M162.54,117.07c-.95,0-1.74-.21-2.35-.63-.61-.42-1.07-.98-1.37-1.7-.3-.71-.45-1.49-.45-2.35v-.63c0-.92.15-1.73.46-2.43.31-.7.77-1.25,1.39-1.65.62-.4,1.39-.59,2.31-.59s1.71.2,2.33.59c.61.4,1.07.94,1.38,1.65.31.7.46,1.51.46,2.43v.63c0,.86-.15,1.64-.45,2.35s-.75,1.28-1.36,1.7c-.6.42-1.39.63-2.36.63ZM162.54,114.82c.58,0,1.01-.21,1.28-.64s.41-1.12.41-2.07c0-1.02-.14-1.73-.42-2.14s-.71-.62-1.27-.62-.99.21-1.27.62c-.28.41-.42,1.12-.42,2.12s.14,1.65.42,2.08c.28.44.71.65,1.27.65ZM163.78,125.12l6.52-17.68h2.81l-6.52,17.68h-2.81ZM174.24,125.48c-.94,0-1.71-.21-2.33-.63s-1.07-.98-1.37-1.7c-.3-.71-.45-1.49-.45-2.35v-.63c0-.92.15-1.73.46-2.43.31-.7.77-1.25,1.39-1.65.62-.4,1.38-.59,2.29-.59s1.71.2,2.33.59c.61.4,1.07.95,1.38,1.65s.46,1.51.46,2.43v.63c0,.86-.15,1.64-.45,2.35-.3.71-.75,1.28-1.36,1.7-.6.42-1.39.63-2.36.63ZM174.24,123.23c.58,0,1.01-.21,1.3-.64.28-.43.42-1.12.42-2.07,0-1.02-.14-1.73-.44-2.14-.29-.41-.72-.62-1.28-.62s-.99.21-1.27.62c-.28.41-.42,1.12-.42,2.12s.14,1.65.42,2.08c.28.44.71.65,1.27.65Z"/>
      </g>
      <g>
        <path class="st2" d="M172.58,42.45c1.31,0,2.42.22,3.33.65.91.44,1.65,1.05,2.22,1.83.56.78.98,1.68,1.24,2.7.26,1.02.39,2.1.39,3.25v1.07c0,2.91-.73,5.11-2.19,6.6-1.46,1.49-3.61,2.24-6.43,2.24-.61,0-1.19-.02-1.72-.05-.53-.03-1.07-.08-1.6-.15v-2.88c.53.05,1.08.09,1.63.13.56.04,1.16.06,1.8.06,1.36,0,2.42-.23,3.2-.7.78-.47,1.33-1.16,1.66-2.07.33-.91.5-2.03.5-3.36v-1.6l.78-1.09c-.02,1.24-.26,2.27-.74,3.09-.48.82-1.13,1.43-1.97,1.84-.84.41-1.8.62-2.88.62-1.26,0-2.33-.25-3.22-.75-.89-.5-1.57-1.19-2.05-2.08-.48-.89-.72-1.92-.72-3.1s.27-2.31.82-3.26c.55-.94,1.33-1.68,2.34-2.2,1.01-.52,2.22-.79,3.62-.79ZM172.66,45.33c-.76,0-1.4.14-1.93.42-.52.28-.93.67-1.2,1.17-.28.5-.41,1.07-.41,1.72s.13,1.24.4,1.73c.27.49.65.88,1.16,1.16.51.28,1.13.42,1.85.42s1.33-.12,1.9-.38c.57-.25,1.03-.62,1.36-1.11.33-.49.5-1.1.5-1.83,0-.63-.13-1.19-.4-1.7-.27-.5-.67-.9-1.21-1.19-.54-.29-1.21-.44-2.02-.44Z"/>
        <path class="st2" d="M183.17,64.68l-2.62-1.02,2.45-7.02,2.83,1.04-2.66,7Z"/>
        <path class="st2" d="M193.2,61.1c-1.36,0-2.52-.25-3.5-.76-.98-.51-1.72-1.2-2.24-2.07-.52-.87-.78-1.84-.78-2.91h3.32c0,.86.29,1.55.86,2.07.57.53,1.35.79,2.34.79.66,0,1.23-.12,1.71-.38.48-.25.84-.6,1.1-1.04.26-.44.39-.96.39-1.54,0-.87-.28-1.59-.85-2.14-.57-.56-1.34-.84-2.33-.84-.48,0-.91.07-1.27.21s-.68.3-.96.5l-1.6-2.71,5.84-3.97-.24-.41h-7.58v-2.93h11.56v3.54l-5.98,3.97-1.87-.34c.31-.1.64-.17.99-.23.36-.06.74-.08,1.16-.08,1.34,0,2.49.23,3.45.69.96.46,1.7,1.09,2.22,1.9.52.81.78,1.74.78,2.79v.31c0,1.03-.26,1.97-.78,2.82-.52.85-1.26,1.52-2.23,2.02-.97.5-2.14.75-3.51.75Z"/>
        <path class="st2" d="M204.75,52.6c-.95,0-1.74-.21-2.35-.63-.61-.42-1.07-.98-1.37-1.7-.3-.71-.45-1.49-.45-2.35v-.63c0-.92.15-1.73.46-2.43.31-.7.77-1.25,1.39-1.65.62-.4,1.39-.59,2.31-.59s1.71.2,2.33.59c.61.4,1.07.94,1.38,1.65.31.7.46,1.51.46,2.43v.63c0,.86-.15,1.64-.45,2.35s-.75,1.28-1.36,1.7c-.6.42-1.39.63-2.36.63ZM204.75,50.34c.58,0,1.01-.21,1.28-.64s.41-1.12.41-2.07c0-1.02-.14-1.73-.42-2.14s-.71-.62-1.27-.62-.99.21-1.27.62c-.28.41-.42,1.12-.42,2.12s.14,1.65.42,2.08c.28.44.71.65,1.27.65ZM205.99,60.64l6.52-17.68h2.81l-6.52,17.68h-2.81ZM216.45,61c-.94,0-1.71-.21-2.33-.63s-1.07-.98-1.37-1.7c-.3-.71-.45-1.49-.45-2.35v-.63c0-.92.15-1.73.46-2.43.31-.7.77-1.25,1.39-1.65.62-.4,1.38-.59,2.29-.59s1.71.2,2.33.59c.61.4,1.07.95,1.38,1.65s.46,1.51.46,2.43v.63c0,.86-.15,1.64-.45,2.35-.3.71-.75,1.28-1.36,1.7-.6.42-1.39.63-2.36.63ZM216.45,58.75c.58,0,1.01-.21,1.3-.64.28-.43.42-1.12.42-2.07,0-1.02-.14-1.73-.44-2.14-.29-.41-.72-.62-1.28-.62s-.99.21-1.27.62c-.28.41-.42,1.12-.42,2.12s.14,1.65.42,2.08c.28.44.71.65,1.27.65Z"/>
      </g>
    </g>
  </g>
</svg>