<?xml version="1.0" encoding="UTF-8"?>
<svg id="Camada_1" xmlns="http://www.w3.org/2000/svg" version="1.1" viewBox="0 0 52 52">
  <!-- Generator: Adobe Illustrator 29.8.2, SVG Export Plug-In . SVG Version: 2.1.1 Build 3)  -->
  <defs>
    <style>
      .st0 {
        fill: #fdeef6;
      }

      .st1 {
        fill: #e95f0e;
      }

      .st2 {
        fill: #48a048;
      }

      .st3 {
        fill: #3b2184;
      }
    </style>
  </defs>
  <circle class="st0" cx="26" cy="26" r="26"/>
  <circle class="st0" cx="26" cy="26" r="26"/>
  <circle class="st3" cx="26" cy="26" r="26"/>
  <path class="st0" d="M11.35,4.52c0,.34,0,.68.03,1.03.54,6.28,6.61,10.91,13.56,10.34s12.07-4.91,11.53-11.19h0c-.08-.93-.3-1.86-.61-2.76-3.03-1.25-6.36-1.94-9.86-1.94-5.43,0-10.47,1.67-14.65,4.52Z"/>
  <g>
    <path class="st0" d="M1.59,34.92c.16.44.34.87.53,1.3-.18-.43-.37-.86-.53-1.3Z"/>
    <path class="st0" d="M1.05,33.22s0,0-.02.02c.07.25.17.49.25.73-.08-.25-.15-.5-.23-.75Z"/>
    <path class="st0" d="M49.83,36.37c.06-.13.12-.25.17-.38h0c-.05.12-.11.25-.17.38Z"/>
    <path class="st0" d="M.77,32.3c.39,1.57.92,3.07,1.58,4.51,2.45-3.99,6.2-7.31,10.97-9.64,4.38-2.14,9.25-3.24,14.05-3.24h0c2.53,0,5.03.3,7.44.93,6.13,1.59,10.93,5.09,13.87,10.12.35.6.67,1.22.96,1.85.71-1.56,1.28-3.2,1.68-4.9-3.51-5.35-8.84-9.09-15.53-10.83-7.84-2.03-16.65-1.09-24.16,2.59-4.44,2.17-8.11,5.11-10.84,8.62h-.02Z"/>
    <path class="st1" d="M34.8,24.85c-2.4-.62-4.91-.93-7.44-.93h0c-4.79,0-9.66,1.11-14.05,3.25-.6.29-1.18.6-1.74.92-.34.2-.67.41-.99.61-.21.13-.44.26-.64.4-.49.32-.96.66-1.42,1.01-.04.03-.08.06-.12.08-2.48,1.89-4.51,4.12-6.04,6.61,4.1,8.96,13.13,15.2,23.63,15.2s19.52-6.23,23.63-15.19c-.29-.63-.6-1.24-.95-1.84-2.94-5.03-7.74-8.53-13.87-10.12Z"/>
  </g>
  <path class="st0" d="M30.53,32.95c-8.26-2.14-17.24,2.56-19.22,10.05-.36,1.36-.51,2.74-.48,4.11,1.33.96,2.75,1.79,4.25,2.49-.49-1.81-.51-3.73-.02-5.6,1.29-4.89,6.56-7.66,11.48-7.66h0c1.03,0,2.05.13,3.02.37,2.49.64,4.43,2.05,5.62,4.08,1.38,2.36,1.68,5.42.84,8.62-.06.24-.14.46-.22.69,1.57-.64,3.06-1.42,4.46-2.34.36-3.25-.22-6.36-1.72-8.93-1.71-2.94-4.48-4.97-7.99-5.88h-.02Z"/>
  <path class="st0" d="M30.53,32.95c-8.26-2.14-17.24,2.56-19.22,10.05-.36,1.36-.51,2.74-.48,4.11,1.33.96,2.75,1.79,4.25,2.49-.49-1.81-.51-3.73-.02-5.6,1.29-4.89,6.56-7.66,11.48-7.66h0c1.03,0,2.05.13,3.02.37,2.49.64,4.43,2.05,5.62,4.08,1.38,2.36,1.68,5.42.84,8.62-.06.24-.14.46-.22.69,1.57-.64,3.06-1.42,4.46-2.34.36-3.25-.22-6.36-1.72-8.93-1.71-2.94-4.48-4.97-7.99-5.88h-.02Z"/>
  <g>
    <path class="st0" d="M12.92,48.46c.62.36,1.26.69,1.92,1-.65-.31-1.3-.64-1.92-1Z"/>
    <path class="st0" d="M12.86,48.43h.02s-.01,0-.02,0h0Z"/>
    <path class="st2" d="M36,49.4c.84-3.19.54-6.25-.84-8.62-1.19-2.03-3.13-3.44-5.62-4.08-.96-.25-1.98-.37-3.02-.37h0c-4.93,0-10.19,2.76-11.48,7.65-.49,1.87-.47,3.78.02,5.59,3.32,1.55,7.02,2.42,10.93,2.42,3.47,0,6.77-.69,9.79-1.92.08-.22.15-.45.22-.68h0Z"/>
    <path class="st0" d="M36,49.99c.7-.29,1.4-.61,2.07-.96h0c-.67.35-1.37.67-2.07.96Z"/>
  </g>
</svg>