<?xml version="1.0" encoding="UTF-8"?>
<svg id="Camada_1" xmlns="http://www.w3.org/2000/svg" version="1.1" viewBox="0 0 52 52">
  <!-- Generator: Adobe Illustrator 29.8.2, SVG Export Plug-In . SVG Version: 2.1.1 Build 3)  -->
  <defs>
    <style>
      .st0 {
        fill: #fdeef6;
      }

      .st1 {
        fill: #e95f0e;
      }

      .st2 {
        fill: #48a048;
      }

      .st3 {
        fill: #4c2091;
      }
    </style>
  </defs>
  <circle class="st3" cx="26" cy="26" r="26"/>
  <circle class="st3" cx="26" cy="26" r="26"/>
  <circle class="st2" cx="26" cy="26" r="26"/>
  <g>
    <path class="st1" d="M2.07,26.12c.16.44.34.87.53,1.3-.18-.43-.37-.86-.53-1.3Z"/>
    <path class="st1" d="M1.53,24.43l-.02.02c.07.25.17.49.25.73-.08-.25-.15-.5-.23-.75Z"/>
    <path class="st1" d="M50.31,27.57c.06-.13.12-.25.17-.38h0c-.05.12-.11.25-.17.38Z"/>
  </g>
  <g>
    <path class="st2" d="M13.45,25.25c.62.36,1.26.69,1.92,1-.65-.31-1.3-.64-1.92-1Z"/>
    <path class="st2" d="M13.39,25.22h.02s-.01,0-.02-.01h0Z"/>
    <path class="st2" d="M36.53,26.78c.7-.29,1.4-.61,2.07-.96h0c-.67.35-1.37.67-2.07.96Z"/>
  </g>
  <path class="st0" d="M29.98,20.09c-.58.83-1.89.41-1.88-.61.04-3.1,1.76-6.42,1.21-9.12-.92-4.57-3.66-2.44-4.65-.27-.4.87-.52,4.79-.76,6.85-.13,1.11-1.91,2.15-2.54,1.23-2.01-2.98-5.37-7.61-7.53-6.18-2.53,1.67.89,5.54,3.88,8.27.78.71.13,2-.91,1.78-2.88-.61-6.63-1.16-9.65-.72-5.72.82-4.39,2.73-2.21,4.27s8.81,1.21,11.66.65c.97-.19,1.83-.21,2.54-.17.94.06,1.33,1.23.6,1.83-1.95,1.6-5.43,4.27-9.08,6.14-5.54,2.84,4.09,6.58,7.19,2.52,1.35-1.76,2.56-3.24,3.5-4.35.64-.75,1.87-.27,1.82.72-.2,4.07-1.29,8.54-1.04,9.95.93,5.28,5.67,4.17,5.8-.88s-1.12-7.1-1.12-7.1c-.17-1.07,1.21-1.65,1.85-.78,2.48,3.38,6.18,7.52,8.36,5.87,2.04-1.53-1.13-5.23-4.16-8.07-.81-.76-.03-2.08,1.03-1.74,3.1,1.01,6.78,2.01,8.84,1.81,4.02-.38,1.64-4.21-.82-5.72-1.22-.75-4.31-.99-7.12-1.05-1.11-.02-1.4-1.54-.38-1.98,4.72-2.04,10.12-8.62,9.24-10.36-1.42-2.77-7.65.76-9.53,2.38-.89.77-3.11,3.38-4.13,4.83h-.01Z"/>
</svg>