<?xml version="1.0" encoding="UTF-8"?>
<svg id="Camada_1" xmlns="http://www.w3.org/2000/svg" version="1.1" viewBox="0 0 52 52">
  <!-- Generator: Adobe Illustrator 29.8.2, SVG Export Plug-In . SVG Version: 2.1.1 Build 3)  -->
  <defs>
    <style>
      .st0 {
        fill: #fdeef6;
      }

      .st1 {
        fill: #e95f0e;
      }

      .st2 {
        fill: #3b2184;
      }

      .st3 {
        fill: #4c2091;
      }

      .st4 {
        fill: #fef7fb;
      }
    </style>
  </defs>
  <circle class="st3" cx="26" cy="26" r="26"/>
  <circle class="st3" cx="26" cy="26" r="26"/>
  <circle class="st1" cx="26" cy="26" r="26"/>
  <g>
    <path class="st1" d="M2.07,26.12c.16.44.34.87.53,1.3-.18-.43-.37-.86-.53-1.3Z"/>
    <path class="st1" d="M1.53,24.43s-.01.01-.02.02c.07.25.17.49.25.73-.08-.25-.15-.5-.23-.75Z"/>
    <path class="st1" d="M50.31,27.57c.06-.13.12-.25.17-.38,0,0,0-.01,0-.01-.05.13-.11.26-.17.39Z"/>
  </g>
  <path class="st2" d="M27.46.04C26.98.02,26.49,0,26,0,11.64,0,0,11.64,0,26s11.64,26,26,26c.49,0,.98-.02,1.46-.04V.04Z"/>
  <path class="st4" d="M142.53-20.99"/>
  <path class="st0" d="M5.07,25.22c12.24,5.76,19.3,20.15,22,26.76.43-.02.85-.05,1.27-.08L28.25.1c-.3-.03-.59-.05-.89-.07-2.47,6.52-10.07,23.65-22.29,25.18Z"/>
</svg>