<?xml version="1.0" encoding="UTF-8"?>
<svg id="Camada_1" xmlns="http://www.w3.org/2000/svg" version="1.1" viewBox="0 0 52 52">
  <!-- Generator: Adobe Illustrator 29.8.2, SVG Export Plug-In . SVG Version: 2.1.1 Build 3)  -->
  <defs>
    <style>
      .st0 {
        fill: #fdeef6;
      }

      .st1 {
        fill: #48a048;
      }

      .st2 {
        fill: #3b2184;
      }
    </style>
  </defs>
  <circle class="st1" cx="26" cy="26" r="26"/>
  <path class="st0" d="M10.78,12.74c-2.84,0-5.53.58-8.01,1.58C1,17.83,0,21.8,0,26,0,39.45,10.21,50.51,23.31,51.86c5.51-3.92,9.11-10.35,9.09-17.63-.03-11.9-9.71-21.53-21.61-21.49,0,0-.01,0-.01,0Z"/>
  <path class="st2" d="M52,26C52,12.69,42,1.73,29.11.19c-4.56,3.58-7.65,8.95-8.19,15.05,6.81,3.61,11.46,10.75,11.48,18.99,0,.67-.04,1.33-.09,1.98,3.02,1.6,6.47,2.51,10.13,2.5,2.4,0,4.7-.42,6.85-1.15,1.73-3.48,2.71-7.41,2.71-11.57h0Z"/>
</svg>