<?xml version="1.0" encoding="UTF-8"?>
<svg id="Layer_3" xmlns="http://www.w3.org/2000/svg" version="1.1" viewBox="0 0 172.31 141.91">
  <!-- Generator: Adobe Illustrator 29.7.1, SVG Export Plug-In . SVG Version: 2.1.1 Build 8)  -->
  <defs>
    <style>
      .st0 {
        fill: #ffd9e1;
      }

      .st1 {
        fill: #ffd4dd;
      }
    </style>
  </defs>
  <path class="st1" d="M100.12,53.6c-1.75,2.5-5.66,1.23-5.63-1.81.11-9.27-.52-22.12-4.29-29.47-6.36-12.42-12.53-4.04-13.6,3-.43,2.84.27,8.81,1.26,14.93.53,3.29-3.77,4.97-5.63,2.21-6.02-8.91-13.93-17.36-20.42-13.09-7.57,4.99,2.67,16.59,11.62,24.74,2.34,2.13.38,5.98-2.71,5.32-8.6-1.83-19.84-3.47-28.87-2.17-17.13,2.46-13.12,8.17-6.62,12.77,6.5,4.6,26.37,3.62,34.89,1.95,2.9-.57,5.47-.64,7.6-.5,2.81.19,3.97,3.69,1.79,5.48-5.83,4.79-16.25,12.77-27.18,18.37-16.56,8.49,12.25,19.68,21.53,7.54,4.03-5.28,7.66-9.7,10.46-13.01,1.91-2.26,5.59-.8,5.45,2.16-.6,12.18-3.86,25.57-3.12,29.77,2.79,15.81,16.96,12.49,17.36-2.64.4-15.12-3.36-21.26-3.36-21.26-.51-3.2,3.62-4.94,5.54-2.33,7.43,10.1,18.48,22.5,25.03,17.58,6.1-4.59-3.38-15.65-12.45-24.16-2.42-2.27-.08-6.24,3.07-5.21,9.27,3.03,20.28,6,26.46,5.43,12.04-1.12,4.9-12.61-2.46-17.13-3.64-2.23-12.89-2.97-21.32-3.14-3.32-.07-4.2-4.62-1.15-5.94,14.12-6.11,30.3-25.8,27.63-30.99-4.24-8.28-22.9,2.27-28.53,7.13-2.66,2.3-9.32,10.11-12.37,14.47Z"/>
  <g>
    <path class="st0" d="M102.56,54.37c-.59.77-.05.72-.07.89.86-1.36-.04-.92.07-.89Z"/>
    <path class="st0" d="M112.45,41.2l-.08.32c.47-.67.9-1.28,1.43-1.88-.49.5-.9,1-1.35,1.56Z"/>
    <path class="st0" d="M125.18,33.12c-1.64-.09-4.94,2.54-7.33,3.81l-.47.1c-.24.39-.48.77-.7,1.16,2.64-1.94,6.29-4.33,8.51-5.07Z"/>
    <path class="st0" d="M133,32.16c-.24-.09.13-.23.17-.24-.02,0-.05.01-.31.08-.27.07-.73.19-1.53.42.17,0,.22,0,.32,0,.29-.08.69-.17,1.36-.27Z"/>
    <path class="st0" d="M131.64,32.43c-1.41.37.98,0,0,0h0Z"/>
    <path class="st0" d="M137.26,32.17c-.36-.09-.82-.1-1.3-.08.33.19,1.27.5.86.52.49.12.62.17.69.09.03-.04.02-.1-.02-.19-.03-.1-.1-.21-.24-.33Z"/>
    <path class="st0" d="M138.42,32.34c-.19-.1-.33-.24-.53-.3.07.11.14.22.53.3Z"/>
    <path class="st0" d="M136.5,31.73c.52.04,1.01.12,1.39.31-.08-.18.01-.43-.58-.21.19-.15-.13-.1-.81-.09Z"/>
    <path class="st0" d="M135.56,31.5c-.46-.1-1.03-.15-1.27-.19-.24-.05-.11-.18.8-.31-1.75.07-2.54.49-2.37.56.15.11,1.24-.05,2.85-.05Z"/>
    <path class="st0" d="M125.6,32.13c-.52.15-1.04.31-1.55.47-.38.28-.77.54-1.15.82.57-.43,2.88-1.15,2.7-1.29Z"/>
    <path class="st0" d="M135.37,39.37c.06.19.7-.35.95-.38.21-.45.41-.91.59-1.36-.44.61-1.3,1.78-1.55,1.74Z"/>
    <path class="st0" d="M136.32,38.99c-.32.68-.67,1.36-1.03,2.03,1.18-1.66,1.22-2.06,1.03-2.03Z"/>
    <path class="st0" d="M139.16,32c-.73-.6-1.58-.83-2.58-.83.58.02,1.14.11,1.61.33.26.08.46.24.69.38.19.18.43.34.57.52-.07-.13-.16-.26-.29-.39Z"/>
    <path class="st0" d="M130.02,46.18l.6-1.2c-.37.69-.75,1.39-1.16,2.07l.56-.87Z"/>
    <path class="st0" d="M125.98,50.38c.5-.87-1.3.54-.68-.28-1.12,1.1-1.96,2.18-2.75,3.11.92-.91,1.96-1.79,3.43-2.83Z"/>
    <path class="st0" d="M121.17,54.73c.46-.45.91-.96,1.38-1.53-.48.49-.95.98-1.38,1.53Z"/>
    <path class="st0" d="M132.86,44.1c-.18.08-.59.2-1.5,1.11l.91-.42c.18-.21.39-.45.59-.7Z"/>
    <path class="st0" d="M132.31,44.78l-.03.02c-.64.75-1.11,1.26-1.31,1.47.17-.19.59-.62,1.34-1.49Z"/>
    <path class="st0" d="M133.01,43.92c-.05.07-.09.11-.15.18.09-.04.13-.07.15-.18Z"/>
    <path class="st0" d="M138.61,36.17c-.25,1.25-1.47,3.85.18,1.63.15-.98-.67.28-.18-1.63Z"/>
    <path class="st0" d="M134.13,43.37c.53-.63,1.04-1.27,1.55-1.92-.12-.03-.51.24-.22-.38-.42.77-.86,1.54-1.33,2.3Z"/>
    <path class="st0" d="M133.48,44.4c.22-.35.44-.68.65-1.03l-.6.7-.05.34Z"/>
    <path class="st0" d="M124.66,52.37c-.68.84-1.56,1.61-2.57,2.44,1.16-.8,2.3-1.72,3.34-2.65.05-.23.35-.81-.77.2Z"/>
    <path class="st0" d="M128.54,48.85c-.05.06-.11.13-.15.19.13-.08.22-.15.15-.19Z"/>
    <path class="st0" d="M109.84,63.22c.08-.08.14-.15.22-.23-.01-.03-.03-.05-.04-.08l-.18.3Z"/>
    <path class="st0" d="M125.65,52.07c.85-.65,1.23-1.18,1.58-1.69-.55.58-1.14,1.18-1.81,1.79-.02.1-.01.15.23-.1Z"/>
    <path class="st0" d="M118.41,56.98c.5-.23,1.05-.52,1.62-.85-.51.2-1.52.65-1.62.85Z"/>
    <path class="st0" d="M128.06,49.21s.06-.08.1-.13c-.31.18-.25.18-.1.13Z"/>
    <path class="st0" d="M128.06,49.21c-.35.43-.57.81-.82,1.17.44-.47.83-.93,1.16-1.34-.11.07-.24.13-.34.17Z"/>
    <path class="st0" d="M112.59,67.36c-.17.03-.44-.07-.69-.34-.28-.25-.45-.7-.49-1.23-.05-.53.08-1.16.45-1.69.37-.54.97-.93,1.64-1.12.94-.57.88-1.02.13-1.13-.7-.08-2.46.09-3.58,1.16.06.07.13.12.01.49-.07.38-.47,1.15-.27,2.76.03-.29.07-.88.3-1.52.2-.65.65-1.28,1.12-1.7.23-.22.47-.37.69-.48.2-.12.39-.19.52-.21.26-.04.17.04-.2.42-.7.56-1.02,1.15-1.23,1.59-.18.46-.27.78-.35,1.05-.1.53-.31.86-.13,1.82.05-.88.39.43,1.47,1.22.54.39,1.21.58,1.71.59.51-.02.83-.14.82-.34-.5.03-.99-.11-1.46-.3-.44-.23-.88-.54-1.15-.95.11-.07.96.6.68-.08Z"/>
    <path class="st0" d="M115.51,59.41l.83-.53c-.5.25-.95.43-1.44.61-.42.15-.86.31-1.34.49-.5.18-1.09.36-1.63.67-.5.4-.91.73-1.24.99-.22.29-.39.49-.49.67-.18.37-.2.52-.18.6.34-.46.68-.86,1.17-1.2l1.59-1.01c.58-.3,1.19-.58,1.78-.87l.42-.21.26-.15.53-.29-.26.22Z"/>
    <path class="st0" d="M120.06,56.43c-.37.81-2.29,2.3-.79,1.87,2.43-1.73,1.49-1.5,2.8-2.71-3.75,2.95.95-1-1.94.86.7-.61,1.36-1.13,1.97-1.64-.7.49-1.4.93-2.06,1.32.04-.02.07-.03.1-.04h.02s0,0,0,0c.19-.08.27-.09.07.02,0,.01-.05.05-.07.07,0,.07-.03.16-.08.26-1.17.71-.24.04.08-.26,0-.03.02-.07,0-.09,0,0-.01,0-.02,0-1.23.98-2.48,1.93-3.78,2.79.87-.47,1.94-1.11,3.72-2.44Z"/>
    <path class="st0" d="M138.31,40.49c-.11.11-.14.09-.17.08-.13.3-.16.42.17-.08Z"/>
    <path class="st0" d="M136.98,42.03c.14-.33.19-.66.84-1.6.65-.77.17.11.32.15.29-.65.98-2.23-.3-.49l-.13.32c-1.16,1.58-3.12,3.23-2.96,2.92.65-.21,1.18-.44,2.24-1.29Z"/>
    <path class="st0" d="M129.02,50.13c-.9,1-1.83,1.98-2.78,2.93.59-.37,1.19-.74,1.77-1.13l-.23-.09c1.73-1.53,1.16-1.4,1.25-1.71Z"/>
    <path class="st0" d="M109.34,63.74c-.07-.27-.1-.52-.13-.79-.33,1.04-.36,2.2-.08,3.26-.12-.83-.05-1.69.21-2.47Z"/>
    <path class="st0" d="M111.28,70.35l-.54.08c.57.39,1.21.61,1.85.77l-.69-.37c-.21-.16-.43-.31-.63-.48Z"/>
    <path class="st0" d="M40.81,93.47l1.04-.69c-.24.15-.43.27-.59.37-.18.13-.33.23-.45.32Z"/>
    <path class="st0" d="M35.29,102.98l.3.25c-.32-.56-.48-.8-.3-.25Z"/>
    <path class="st0" d="M107.62,105.28c-.94-1.45-1.76-3.23-1.96-2.78l.03.68c.86.82,1.45,1.5,1.93,2.11Z"/>
    <path class="st0" d="M77.75,109.08c-.07.16-.14.32-.2.49.09.44.17.86.24,1.23,0-.52-.02-1.11-.03-1.72Z"/>
    <path class="st0" d="M76.15,107.59l.61-2.24c-.17.5-.37,1.22-.61,2.24Z"/>
    <path class="st0" d="M61.33,74.64l-.59.33-.69.35c.29-.05.52-.1.72-.14.16-.04.29-.07.38-.1.19-.06.27-.11.28-.15.04-.09-.16-.17-.1-.29Z"/>
    <path class="st0" d="M131.68,86.46c-1.41-.4-2.54-.68-3.54-.91,1.68.61,3.02,1.19,3.54.91Z"/>
    <path class="st0" d="M40.65,99.13c.36-.44.51-.67.45-.73-.45.45-.61.74-.45.73Z"/>
    <path class="st0" d="M123.99,84.58c.25.1.49.19.74.29,1.07.19,2.14.38,3.42.67-1.24-.45-2.67-.89-4.15-.96Z"/>
    <path class="st0" d="M74.12,30.4c0-.13,0-.29.02-.41-.06-.04-.05.15-.02.41Z"/>
    <path class="st0" d="M92.52,45.1c-.03-.49-.07-1.28-.12-2.03-.02.37.03.98.12,2.03Z"/>
    <path class="st0" d="M133.49,73.94c-.85-.3-.13-.01,0,0h0Z"/>
    <path class="st0" d="M129.05,71.05c.24,0,.43-.04.47-.14-.11.09-.27.13-.47.14Z"/>
    <path class="st0" d="M112.56,84.06s-.06-.02-.09-.03c.34.2.28.16.09.03Z"/>
    <path class="st0" d="M132.21,73.3c.36.14.72.34,1.13.51-.17-.09-.49-.27-1.13-.51Z"/>
    <path class="st0" d="M132.35,73.55c-.33-.11-.58-.19-.83-.28-.14.04-.04.11.83.28Z"/>
    <path class="st0" d="M134.51,74.42c-.22-.13-.38-.2-.56-.31-.21-.1-.42-.2-.62-.3.15.1.2.15.16.14.12.05.26.1.44.17.15.08.34.18.57.3Z"/>
    <path class="st0" d="M52.43,56.58c.07.02.16.05.24.08,1.17,0,.66-.05-.24-.08Z"/>
    <path class="st0" d="M94.65,103.2c-.02-.05-.03-.08-.05-.13,0,.06.02.12.03.17l.03-.05Z"/>
    <path class="st0" d="M95.76,107.33c-.81-1.71-.93-2.7-1.13-4.07-.29.55-.61,1.09-.93,1.62.72.78,1.38,1.6,2.06,2.45Z"/>
    <path class="st0" d="M58.21,82.51l-2.52,1.3c2.41-2.46,4.48-3.74,2.04-2.64.24.67-1.95,2.29-4.18,3.83-2.23,1.55-4.51,3.01-4.32,3.69l-1.72.71c.46-.26.49-.37.94-.63-1.7.66-2.14,1.19-2.68,1.85-.53.66-1.16,1.44-3.25,2.44-.37.16-.71.31-1.01.42-.31.13-.59.24-.78.3-.38.12-.44.05.07-.33-.57.39-1.14.75-1.69,1.23-.27.23-.55.43-.81.7l-.78.8c-.48.45-.69.66-.68.54.01-.09.25-.52.75-.92-.43.35-.82.88-1.21,1.36-.19.24-.36.58-.53.88l-.24.46c-.06.17-.12.34-.18.52-.48,1.37-.42,2.94.21,4.25l-.06-.05c.33.53.96,1.29,1.61,1.81.66.54,1.34.95,1.79,1.18,1.21,1.12-.75-.37-.51,0,1.03.68,2.1,1.11,3.16,1.51,1.15.83-1.66.24-3.68-1.52.47.81.93,1.32,1.4,1.64.47.35.94.52,1.53.72,1.14.36,2.71.84,6.06,1.88-.54-.06-1.07-.15-1.61-.23-.53-.11-1.07-.22-1.61-.35.91.67,2.05,1.09,3.4,1.38,1.36.32,2.94.49,4.87.69-.47-.08-2.37-.43-3.6-.88-1.23-.48-1.83-.9,0-.81,1.01.18,2.4.39,4.37,0,.04.48,2.02.29,4.44-.38v.66c2.64-.98,2.29-1.31,3.63-2.25,2.72-1.47,3.42-1.78,4.32-1.98,1.84-2,1.04-1.42.36-.96-.35.23-.67.41-.66.25,0-.08.09-.25.3-.54.2-.28.56-.74.91-1.21,2.4-2.59,3.74-4.68,6.09-8.21,1.72-1.78.03.58.73.01l.98-2.03c.34-.41.36-.17.36-.06.09-.15.18-.29.22-.37.02-.06.03-.11.03-.16,0-.09,0-.17-.02-.24-.04-.15-.1-.27.03-.59.07-.17.19-.44.46-.8.02-.29.25-.58.67-.68.41-.11.98.04,1.42.41.44.38.74.96.8,1.5.05.55-.01,1,.18,1.5-.21.48-.38-.22-.64-.04.06.12.05.81.07,1.24,0,.46.02.85.02,1.19,0,.69.01,1.19.01,1.66.02.95.07,1.78.16,3.83l-.88,3.36c.82-2.44.95.84.99,3.73.36-.86.67-1.59.84-2.09l-.32,4.54c-.18.53-.33.04-.49-.73.01.31.02.61.03.85-.46,1.57-.71.69-.9-.52.21-.53.42-1.05.63-1.56-.22-1.17-.49-2.27-.9-2.09.03.3.01.87-.05,1.5-.06-.31-.13-.5-.21-.38-.09.14-.02.63.04,1.39l-.86.92.24.29c-.43,1.95-.86,3.9-1.22,5.93.08,1.13.18,2.2.41,3.38.09.54.28,1.27.48,1.79.22.54.41,1.09.68,1.64.47,1.11,1.09,2.26,1.84,3.45.77,1.18,1.74,2.4,3.11,3.42-.8-.35-1.04-.28-1.11-.04-.07.24.04.65-.21.85-.61-.96-1.6-2.01-2.51-3.44-.91-1.4-1.73-3.14-2.07-4.99.4,1.92.04,1.59-.21,1.12.78,2.15,1.86,4.28,3.53,6.03-.5.17.61,1.54,2.34,2.81-.22-.41.03-.46.54-.31.5.16,1.32.44,2.32.61,1,.15,2.17.1,3.21-.2,1.03-.29,1.92-.78,2.48-1.26.16.09.17.31-.32.73-.49.38-1.52,1.08-3.54,1.21,1.12.11,2.05-.14,2.76-.51.36-.18.65-.41.94-.63.27-.24.5-.49.73-.73.87-1.04,1.48-2.06,2.73-3.44-.45.7-.76,1.04-.85,1.4.54-.86,1.4-2.28,1.93-3.44.56-1.15.88-1.99.88-1.41-.09.26-.16.53-.26.79.51-1.29.94-2.98,1.12-4.77.19-1.83.12-3.62.06-5.29-.14-3.35-.7-6.14-1.16-6.46.1-.07,1.08.56,1.28.86-.6-1.49-1.29-2.95-2.01-4.35-.37-.7-.75-1.39-1.15-2.06l-.62-1.02-.74-1.25c.52.46,1-.14,1.6-.12.29-.01.61.08.92.29.15.1.29.23.43.39.07.07.14.18.19.23.08.17.17.42.26.67-.03-.19-.06-.38-.09-.59-.01-.1-.03-.21-.04-.32-.03-.2-.07-.41-.16-.65-.03-.1-.07-.2-.13-.32-.11-.24-.26-.52-.49-.88.01.13-.23.18-.48.2-.26.01-.54-.08-.75-.51.04-.42.06-.61.06-.75.08-.16.15-.29.25-.42.09-.13.21-.27.44-.41.24-.12.64-.25,1.24-.1-.33-.02-.72-.61-.77-1.31-.07-.69.4-1.49,1.21-1.23-.13.27.57,2.22.28,2.4.29-.34.68-.49.99-.4.31.08.67.28,1.12.55-.32-.26-.38.05-.36.5.02.45.1.99.17,1.34-.01-.19.25.16.67.72.78,1.02,1.73,2.2,2.19,2.66l-1.12-1.76c1.68,2.19,2.9,2.95,4.11,3.67,1.22.72,2.42,1.41,4.37,3.28-.62-.28-2.21-.07-.19,1.94.69.21,2.23.64,4.13,1.13,1.88.47,4.18,1.02,6.11.99.23.11.48.27.73.35,1-.16,1.83-.63,2.44-1.33-.18.44-.57,1.07-1.31,1.58-.73.54-1.86.9-3.1.92-2.51.08-5.18-.89-6.85-1.71.79.75.88.9,1.08,1.12.23.2.53.5,2.06,1.3.49.41,0,.32-.71.02-.7-.3-1.59-.81-2-1.09,1.06.77,2.2,1.49,3.51,2.1,1.3.59,2.79,1.09,4.52,1.17-.25-.35,1.79-.36,3.51-1.4.86-.47,1.54-1.13,1.98-1.65.43-.57.6-.98.42-.99-.5.73-1.09,1.37-1.79,1.85-.68.51-1.51.91-2.36,1.14-1.73.48-3.49.32-4.99-.08-.07-.42,1.34-.25,3.48-.59,1.06-.19,2.3-.65,3.33-1.46.53-.38.99-.88,1.43-1.42.4-.57.72-1.22.92-1.91.26-.68.52-.4.71.16.08.27.11.62.15.89.02.27.03.47.1.46.06-.24.22-.78.31-1.45.11-.68.09-1.46,0-2.19-.18-1.46-.66-2.66-.67-2.93.38.72.74,1.49.97,2.38-.14-1.8-.88-2.95-1.59-4.07-.74-1.12-1.52-2.21-2.26-3.85-.63-1.03-1.48-3.43-1.93-3.34.65,2.03-1.09,3.73-2.28,3.11-.1-.17-.87-1.45-1.77-2.81-.89-1.36-1.89-2.81-2.22-3.42-.89-1.81,3.02,1.1,2.28-.43-.18.07-1.08-.55-1.44-.82-.75-.99.77-.04-1.18-1.89-.1.02-.23-.02-.39-.11-.14-.08-.36-.25-.45-.31-.24-.18-.47-.42-.64-.6-.17-.17-.26-.28-.25-.22.02.06.14.27.53.87-.74-.58-1.09-.96-1.39-1.32-.15-.19-.28-.4-.38-.7-.11-.29-.17-.69-.09-1.2-.19.1-.42,0-.65-.29-.21-.29-.39-.79-.34-1.37.04-.58.33-1.26.94-1.58.58-.36,1.3-.46,1.94-.35-.07.14.6.54.88.75,4.95,1.64,7.66,2.77,12.46,3.94.4.28,2.71.98,1.65,1.05.73.04,1.42-.05,2.94.21,1.43.53.57.42-.37.29-.94-.14-1.98-.29-.92.28.26-.34,4.05.22,6.29.09-.32-.33-1.58-.46-3.03-.6-1.45-.12-3.1-.27-4.2-.36.08-.41,1.1-.64,2.72-.73,1.62-.1,3.87-.06,6.32-.23,1.92-.11,2.31-.11,2.36.05.04.14-.32.35,0,.25,1.83-.18,3-.77,3.63-1.38.64-.62.76-1.2.77-1.69,0-.51-.1-.96-.25-1.62-.15-.65-.39-1.53-.93-2.85-.33-1.12-.17-1.29.17-1.25.33.03.75.32.78-.02.94,1.36,1.32,2.63,1.41,3.72.06,1.1-.13,2.03-.6,2.88.48-.65.69-1.51.68-2.4.14.49.23,1.31-.04,2.1-.25.8-.86,1.45-1.37,1.74.45-.21,1.42-.93,1.74-2.38.32-1.43-.12-3.25-.98-4.92-1.72-3.39-4.86-6.37-7.26-8.2-1-.5-2.79-.96-2.07-.44.58.21,1.14.46,1.68.79.6.66-.22.26-.94.01-.71-.25-1.38-.38-.41.13-2.22-.7-5.01-.74-8.41-1.42l-.58-.68c.06.18,2.23.62,3.22.62-1.44,0-5.25-1.52-6.93-.8.81.2,1.62.4,2.42.63-1.22.03-2.59.16-4.02.25-.72.05-1.45.08-2.2.1h-.56s-.82-.01-.82-.01c-.58-.01-1.17-.04-1.74-.07l-.37-.07c.13.07.24.13.33.17.76.22,1.04.2,1.48.21.22,0,.49.02.91.08.34.06.63.17,1.15.35-.93-.48,1.05-.4,2.88-.27,1.83.12,3.5.29,2.02-.31,2.14,1.02,3.87.71,6.49,1.93-.06-.2-.86-.6,1.47.04.12-.03.38-.03.54-.03.07.03.09.04.15.06-.04-.02-.08-.04-.12-.06.11,0,.12,0-.04-.02-.51-.25-.96-.44-1.11-.6.65-.1,1.94.11,3.07.49,1.03.32,2.17,1.11,2.76,1.41,1.09.98-.62-.19-.13.47.58.31,1.16.64,1.72,1.01-.11.45,2.09,3.25-.39,1.03.7.7,1.36,1.44,1.94,2.22.42.76.9,1.64,1.26,2.45.38.82.62,1.54.78,2.01.03.49.1.9.12,1.14,0,.23.03.35-.05.05-.06.28-.2.55-.57.86-.37.3-.92.59-1.57.8l-.06-.1c-2,.46-4.43.55-7.05.31-2.61-.25-5.34-.8-8.04-1.89-1.67-.29-3.42-.61-6.13-1.53l-.42-.53c-.53-.12-1.19-.33-1.89-.57-.49-.17-.99-.34-1.49-.51-.63-.2-1.31-.5-1.87-.57-1.15-.19-2.38-.56-3.1-.36-.78.16-1.36.44-1.59.68-.9.14-2.27.95-3.1,2.55-.84,1.59-.95,3.87.16,5.67l.47.72c.18.24.3.47.57.71.48.47.97.93,1.45,1.4.68.64,1.35,1.27,1.99,1.88.97.92,1.82,1.8,2.43,2.52l.47-.24c1.73,1.95,3.49,3.73,5.43,6.2l.26-.41c.91,1.02,1.8,2.58,2.32,4.3.26.85.4,1.73.35,2.46-.08.73-.25,1.23-.66,1.69,0-.24.31-.62.49-1.05-.2.34-.4.56-.63.79-.24.22-.57.45-.9.67-.33.17-.67.32-1.05.42-.4.07-.85.12-1.36.07-2.08-.19-4.52-1.5-6.06-3.22-1-.6-1.6-1.22-2.13-1.86.08.07.16.14.23.18-.09-.08-.22-.21-.35-.33-.32-.42-.65-.85-1.01-1.31.27.42.55.82.82,1.13-.68-.62-1.7-1.56-2.71-2.48l-.04-.75c-.08-.08-.14-.14-.22-.22-.77-1.11-.89-.65-.68.13-.52-.46-1.02-.88-1.43-1.18-.07-.67-.7-1.32-1.36-2.02-.33-.35-.66-.72-.93-1.1-.21-.3-.61-.96-.84-1.6-.3-.22-.87-.85-1.56-1.66-.69-.78-1.56-1.55-2.27-2-.7-.5-1.57-.8-2.36-.73-.78.03-1.32.37-1.44.61-.09-.07-.58-.02.26-.23-.9.13-1.77.55-2.37,1.2-.61.65-.93,1.49-.9,2.31l-.31.14c-.1.04-.15.05-.25.08.29.79.63,1.77,1.11,2.81l.53.96.28.49c.22,1.21.35,2.32.21,2.46-.05.12-.14.12-.27-.02-.1-.08-.34-.55-.7-1.31.29.73.53,1.35.75,1.88.17.41.28.77.38,1.09.21.63.32,1.08.42,1.52.21.87.41,1.65.97,3.69l-.41-.16c.18,1.47.82,3.84.5,4.75-.15.84-.26,2.3-.34,4.13-.11,1.74-.39,3.86-1.19,5.89-.76,2.02-2.17,3.97-3.96,4.81-1.77.91-3.62.45-4.78-.67.2.83-.42.34-1.02-.53-.6-.86-1.07-2.05-1.52-2,.02-.53-.26-1.52.47-.55-.97-1.62-1.22-3.18-1.43-4.51-.16-1.01-.08-2.24-.34-3.74.32-.46.32.94.52.52-.03-.34-.12-1.36.1-1.79.22-.42.14.67.22,1.33.42-4.33-.27-4.98-1.03-5.4.7-2.22.82-3.37.55-5.1.37-.76.84-2.05.52.77.13-.79.59-3.19.89-5.44.31-2.25.46-4.35.15-4.46.22-.48.27-2.23.23-2.66.04-.47.08-.89.12-1.26.02-.47.03-.89.04-1.27,0-.76.09-1.43.02-2.03-.06-.59-.28-1.15-.67-1.75-.4-.59-1.03-1.19-2.04-1.61.36.19.69.41.99.68-.86-.17-1.65-.44-2.7-.49-.52,0-1.09.08-1.68.34-.6.25-1.11.75-1.67,1.42l.03-.15c-.12.12-.24.24-.31.29-1.35,1.48-1.82,2-2.25,2.52-.4.48-.58.76-.77,1.05-.39.57-.81,1.15-3.02,3.41l.59.03c.22.56-.79,1.57-2.11,2.83-.66.63-1.4,1.33-2.09,2.07-.63.68-1.26,1.36-1.85,1.99.35-.21.75-.39,1.07-.66-.22.43-.72.75-1.23,1.08-.57.26-1.18.52-1.85.63-.64.16-1.32.18-1.9.26-.62,0-1.13.1-1.57.15-.39.02.55-.29,1-.54-2.21.41-2.36.46-2.31.73.02.12.09.26-.07.42-.16.15-.54.35-1.44.47-.35-.13-.15-.37-.17-.55-.02-.18-.25-.29-1.42-.28-.58-.14-2.29.16-4.31-.02-1.01-.06-2.06-.27-3.03-.57-.94-.33-1.82-.76-2.35-1.31.21.28.44.57.45.7,0,.14-.27.15-1.01-.2-1.08-.59-2.15-2.01-2.02-2.87.03-.49.17-.84.43-1.26.09-.2.33-.44.44-.68.15-.24.35-.47.46-.73.26-.15.41-.15.45-.11.66-.65,1.95-1.46,3.46-2.37,1.42-.89,2.71-1.79,3.17-2.32,1.3.22,4.13-1.71,6.63-3.61,2.51-1.9,4.71-3.75,5.13-3.11,1.82-1.31,3.6-2.66,5.37-4.04l-.05.23c1.74-1.26,2.84-2.22,3.63-3,.19-.2.37-.39.54-.57.24-.24.46-.47.65-.68.36-.44.65-.83.93-1.2.54-.41.58-.49.6-.39,0,.09-.09.32-.11.36,1.5-1.49,1.54-3.38,1.16-4.64-.43-1.3-1.24-2.17-2.17-2.67-.94-.52-2-.6-3.29-.54-1.42.07-2.32.25-3.68.56l-.61-.44c-.36.11-1.13.19-2.18.33-1.04.14-2.2.26-3.6.37-2.76.22-6.1.38-9.08.78.06-.06.18-.16.65-.25-3.35.45-7.41.11-10.81-.36-3.44-.44-6.11-1.06-7.46-.52-.7-.12-1.4-.24-2.04-.46-.69-.16-1.27-.45-1.88-.71.56.32.92.62,1.24.77.31.16.49.28.58.36.17.16-.06.18-.39.16-.67,0-1.68-.36-.72.35-.52-.24-1.07-.59-1.57-.96-.48-.4-.9-.81-1.17-1.13-.55-.65-.59-.91.52-.09l.29.33c.7-.08-.73-1.17-1.98-2.45-.62-.62-1.18-1.38-1.39-1.82-.21-.45-.19-.76-.03-.76-.13-.4-.11-.84.06-1.22.17-.38.48-.69.81-.93.38-.26.92-.58,1.51-.82.57-.25,1.2-.46,1.83-.65,2.54-.73,5.33-1.14,7.98-1.38,5.36-.4,10.75.1,15.99.77l-1.12-.87c1.23.16,2.45.34,3.68.53.94.32,1.2.75-1.4.35,1.31.58,4.43.34,4.54.2,5.06,1.22-2.14.48-.58.79l2.13.33-.46-.17c.44,0,.79,0,1.11-.02h.24s.34,0,.34,0c.22.01.45.03.69.04.49.06.98.04,1.65.1.33.02.71.09,1.11.09.19-.01.4-.03.62-.05.22-.05.45-.08.69-.15,1.25-.37,1.55-.65,1.74-.64.18-.02.19.07.59-.31.02.02.1-.03.26-.23.16-.2.43-.54.67-1.15.43-.98.61-2.1.37-3.13-.06-.26-.11-.52-.22-.76-.09-.25-.19-.49-.33-.71l-.19-.34-.27-.33-.54-.66c.19.39.4.76.55,1.12l.16.54c.04.18.06.37.09.55-.49-.98-1.39-1.77-1.95-2.36-.94-.83-1.21-1.02-.4.22,0,.02.02.05.05.09-.02-.02-.03-.05-.06-.09-.14-.21-.33-.46-.56-.75-.22-.26-.46-.55-.73-.87-.46-.54-1.01-1.16-1.62-1.83-1.22-1.34-2.65-2.9-3.99-4.47-1.33-1.57-2.55-3.16-3.38-4.5-.85-1.33-1.31-2.39-1.42-2.82-1.42-2.21-1.92-5.14.62-6.8-.34.16-.67.23-.7.02-.04-.21.32-.74,1.62-1.34-.09.45.16.47.6.51.22,0,.49-.03.78-.07.31.02.65,0,1.01,0,1.46.09,3.33,1.04,3.99,2.05-.69-.75,1.04.11,2.53,1.35,1.5,1.19,2.82,2.48,1.96.93,1.67,1.88-.24.46.83,2.04,1.08,1.01,2.14,2.18,3.12,3.49.53.68.87,1.19,1.71,2.39.36.53.75.95,1.13,1.45.39.46.76,1.03,1.19,1.33.85.7,2.04,1.06,3.23.98,1.19-.08,2.38-.6,3.22-1.48.86-.88,1.33-2,1.35-3.23.13-1.19-.24-2.83-.42-4.09-.1-.07-.15.33-.26.47-.1.16-.27-.05-.53-.96.1-1.36.22-2.71.37-4.04-.22-1.44-1.18-1.27-.71-3.95-.14.37-.33.95-.43-.02.02-.89.06-1.79.19-2.58.13-.78.35-1.65.62-2.45.54-1.61,1.31-3.19,2.32-4.37.5-.57,1.07-1.04,1.6-1.26.51-.22,1.06-.24,1.6-.04,1.17.38,2.39,1.73,3.35,3.17.48.73.95,1.52,1.34,2.33.19.4.39.8.56,1.21l.49,1.26c.6,1.72,1.04,3.52,1.37,5.34.64,3.66.82,7.43.63,11.16.21-2.03.34-.7.43.85.03-1.01.43,0,.66-.21-.11,2.1-.28,4.2-.49,6.29.17.28.26.85.3,1.54.01.36.02.74.04,1.15.02.58.11,1.21.36,1.78.47,1.18,1.46,2.04,2.34,2.38.88.37,1.61.3,1.84.16-.94,0-1.87-.29-2.65-.86.89.41,1.08.21.94-.09-.14-.31-.57-.84-.77-1.49-.21-.65-.15-1.35.08-1.78.21-.44.47-.81.7-.7-.41-1.51-.1-3.49.1-5.74.2-2.24.3-4.76-.54-7.19.09-1.11.39.91.56.3-.53-1.23-.74-2.73-.99-5.57l.15.3c-.67-3.95-1.3-6.78-2.3-9.72-.23-.74-.58-1.47-.89-2.24-.34-.73-.73-1.49-1.18-2.29-.49-.79-1-1.62-1.75-2.47-.75-.84-1.67-1.76-3.14-2.42.23.27.42.55.61.82-1.06-.64-1.95-.85-2.59-.94-.66-.11-1.15-.11-1.82,0-1.42.93.42-.09,2.36.27.48.08.93.24,1.31.4.35.19.68.35.86.51.38.32.41.46-.2.31-.26-.3-.72-.64-1.4-.93-.7-.26-1.62-.41-2.6-.22-.99.18-1.94.68-2.71,1.3-.78.62-1.41,1.37-1.94,2.13-2.11,3.09-2.7,6.43-3.37,7.37-.17,1.75.05,1.44.17,1.23.16-.24.27-.44.25,1.12l-.28.83.41.76c.05,1.98-.2,2.98-.45,3.08-.02-.48-.2-1.34-.25-1.86-.08,1.3.13,3.09.39,4.64.14.77.27,1.49.37,2.07.08.36.11.53.1.65v-.35c0-.13,0-.2-.03-.48l-.1-1.42c.08.5.17,1,.25,1.51.05.29.11.58.16.87.06.44.23.9.17,1.37-.13.99-1.52,1.45-2.23.74-.33-.34-.56-.77-.86-1.14-.26-.35-.53-.7-.79-1.04-.35-.43-.69-.86-1.03-1.28-1.39-1.68-2.86-3.22-4.4-4.53l.27.59c-1.15-1.01-1.97-1.7-2.65-2.24-.65-.56-1.18-.95-1.7-1.37-.25-.22-.54-.41-.87-.62-.33-.2-.67-.45-1.12-.67-.47-.2-.96-.49-1.64-.67-.34-.09-.71-.18-1.1-.29-.41-.07-.87-.09-1.36-.13l.29-.03c-.2,0-.4.01-.61.02-.21.04-.43.08-.66.12-.45.09-.93.13-1.39.32-.96.28-1.87.78-2.75,1.34.73-.65-.1-.29-.87.18-.74.5-1.44,1.07-.54-.06-.75.76-1.22,1.57-1.51,2.25-.29.69-.4,1.25-.47,1.69-.1.89-.03,1.3.03,1.63.06.32.17.55.32,1,.18.43.41,1.1.97,2.1-.02.37,0,.74.02,1.11.45.65.75.96,1.13,1.48.37.52.86,1.22,1.81,2.58-1.77-2.09.71,2.1-1.34-.24,1.6,3.22,3.52,5.03,5.02,6.49,1.53,1.45,2.73,2.5,3.44,4.03,1.49.73.51-.4-.62-1.6-1.14-1.2-2.41-2.51-1.73-1.94-.75-1.3,2.31,1.37,3.78,2.9.28.28.54.59.75.9.17.27.31.54.43.81.18.47.42.83.45,1.39.03.54-.19,1.27-.82,1.83.2-.18.12-.26.26-.47-.41.31-.69.67-1.17.77-.45.08-1.06-.07-1.61-.37-1.39.35-3.18-.62-3.69.1l2.48.35,1.91.28c-1.24-.04-2.46-.08-3.87-.13-1.61-.08-3.43-.24-5.72-.76.38-.12,1.79-.14,2.75-.11-1.32-.43-2.63-.21-4.02-.61.24-.37,1.78-.24,3.62,0,1.85.25,4.01.62,5.56.61-1.39-.63-5.81-.4-4.15-1-2.34.74-5.37-.93-9.19-.36l.28-.46c-.6.04-1.84.17-2.93.13.67-.18,1.34-.36,2.02-.52-3.06.34-5.91-.68-8.92-.17,3.14-.2,3.48.01,3.38.18-.1.19-.63.43.67.58-3.77.38-4.87.23-6.13,0-.63-.11-1.3-.22-2.32-.19-1.03.04-2.44.18-4.59.79,1.17-.41,4.4-.64,2.65-.09-1.63.2-3.82.61-4.95.76-1.46.56-2.15.99-2.36,1.17-.21.18.05.11.41,0,.72-.19,1.82-.48.66.2-1.1.21-1.8.63-2.62,1.55-.72.87-1.37,1.96-1.47,3.65l-.48-.03c-.13,1.18.16,2.12.46,2.8.3.68.65,1.15.86,1.39.46.53.69.58.91.67.22.06.42.12.81.44.4.32.99.9,2.07,1.9-.79-.35-1.58-.74-2.37-1.22.82.75,1.67,1.38,2.52,1.97l-.85.03c.73.45,1.34.81,1.88,1.14.64.35,1.2.65,1.76.95.54.24,1.09.47,1.7.74.61.25,1.28.46,2.09.74-.67-.55.65-.65,3.46-.21.94.29.66.36.63.43-.02.05.23.17,2.24.33-.47.1-.96.22-1.56.23-.6-.01-1.29-.14-2.13-.49-.21.14-.96.11-1.19.23,2.08.8,5.32.89,6.78.96-.56-.05-1.23-.13-1.57-.24,1.98-.03,3.92-.17,5.85-.35.9.18.19.34-.54.45,1.18-.03,1.99-.24,3.71-.3-.44.4-.32.81-2.79.99,1.86-.13,3.7-.29,5.53-.52.37.16,2.86.33,2.15.51,1.54.02,3.41-.31,5.4-.72,1-.2,2.02-.41,3.05-.62,1-.2,2.18-.43,3.01-.49.17-.11.53-.24,1.29-.39.85-.08,1.68-.09,2.49-.06.08,0,.25,0,.26.01l.1.02.19.04.36.08c.45.12.9.56.95,1.27-.42.21-.87.21-1.15.14-.03.05-.05.1-.05.15-.04.07-.08.17-.01.17.18-.02.25.06.42.08.15.03.31.05.34.17.01.06-.02.15-.11.28l-.04.05s-.07.07-.11.11c-.08.08-.17.16-.26.25-.19.18-.42.39-.69.62-3.03,2.66-1.55.45-2.78,1.16-1.36,1.49-3.73,4.17-7.1,5.8.93-.8,1.77-1.27,2.67-1.98ZM48.32,110.22c-.9,0-2.76-.02-3.34-.49,1.14-.29,1.83.12,3.34.49ZM75.95,115.18c-.08-.63.12-1.58.46-2.61-.07.78-.21,1.65-.46,2.61ZM141.37,80.94s.04.04.06.05c.28.73.33.95.31.88-.02-.07-.15-.44-.37-.94ZM139.59,78.07c-.27-.22-.31-.16-.27,0,.25.1.77.69,1.24,1.42-.04-.27-.22-.69-.97-1.41ZM65.41,59.36c-.23.25-.48.46-.75.65.73-.81.85-1.2.92-1.21.04-.03-.03.28-.17.56Z"/>
    <path class="st0" d="M76.33,107.79c.11-.22.21-.27.31-.31-.03-.33-.12-.35-.31.31Z"/>
    <path class="st0" d="M61.55,74.52h-.12c-.06.05-.09.09-.1.12l.22-.12Z"/>
    <path class="st0" d="M114.58,91.91c.51.63.75,1.01.88,1.29.11-.05-.06-.39-.88-1.29Z"/>
    <path class="st0" d="M122.82,72.27l2.38.09c-1.14-.09-1.54-.23-2.12-.35.04.12.48.32-.26.26Z"/>
    <path class="st0" d="M117.24,61.07c.28-.23.65-.4.92-.63l-.2-.14c-1.28.8-2.15,1.45-.72.77Z"/>
    <path class="st0" d="M120.71,70.51c-.08-.21-.51-.3-1.13-.34-.31-.02-.67-.02-1.05-.02-.42,0-.87,0-1.33,0,.13,0,.26,0,.39.01-.52.55,1.32.42,3.12.34Z"/>
    <path class="st0" d="M116.7,70.15c-.37,0-.74,0-1.1-.01-.3-.04-.6-.07-.89-.11-.26.12.19.14.87.16.33-.01.72-.03,1.12-.04Z"/>
    <path class="st0" d="M136.23,75.24c-.52-.53-.67.14-.9-.22-.47-.02.58.51,1.32.91.73.4,1.22.48-.42-.68Z"/>
    <polygon class="st0" points="119.41 69.1 119.99 69.63 120.98 69.28 119.41 69.1"/>
    <path class="st0" d="M132.71,71.2c-.85-.3-1.73-.53-2.61-.75.02.09-.32.06-.75.04,1.66.28,3.38.86,3.36.71Z"/>
    <path class="st0" d="M129.36,70.49c-.86-.16-1.68-.26-2.18-.24.47.06,1.48.18,2.18.24Z"/>
    <path class="st0" d="M123.16,69.19l.8.17,1.92.23c-.9-.15-1.81-.28-2.72-.4Z"/>
    <path class="st0" d="M136.78,88.79c-.98.05-1.96.05-2.95,0-.32.14.48.35,1.59.33.72-.08,1.81-.16,1.36-.32Z"/>
    <path class="st0" d="M145.38,86.04c-.22.45-.4.65-.56.79-.15.15-.29.24-.52.38l.41.48c.34-.5.55-1.09.67-1.65Z"/>
    <path class="st0" d="M137.12,90.31c-.3.21-4.58.35-.58.45.32-.11,3.52-.49.58-.45Z"/>
    <polygon class="st0" points="116.49 96.51 115.98 95.94 115.29 96.69 116.49 96.51"/>
    <path class="st0" d="M101.99,106.92c2.37,2.83,1.02.22,3.18,2.77.78.43-1.77-2.08-.99-1.61-1.73-1.4-2.38-2.37-2.19-1.16Z"/>
    <path class="st0" d="M104.18,108.08c.27.22.58.45.91.68-.5-.4-.75-.58-.91-.68Z"/>
    <path class="st0" d="M92.72,54.5c.61,1.26,1.72,2.25,3,2.77-.81-.39-1.5-.99-2.03-1.68-.37-.31-.68-.68-.97-1.09Z"/>
    <path class="st0" d="M99.21,56.34c.34.1.71.19,1.09.2.63-.57,1.01-1.28,1.26-1.94-.22.32-.58.78-1.05,1.14-.46.35-.99.57-1.31.6Z"/>
    <path class="st0" d="M55.48,111.34l.17-.19c-.44-.09-1.05.01-2.28.1.69.05,1.39.11,2.1.09Z"/>
    <polygon class="st0" points="43.04 91.56 42.58 91.79 43.71 91.84 43.04 91.56"/>
    <path class="st0" d="M63.69,76.81c-.83.62-1.72,1.47-2.57,2.08,1.74-1.45,3.24-1.68,2.57-2.08Z"/>
  </g>
</svg>