<?xml version="1.0" encoding="UTF-8"?>
<svg id="Layer_1" xmlns="http://www.w3.org/2000/svg" version="1.1" viewBox="0 0 1640.69 475.94">
  <!-- Generator: Adobe Illustrator 29.7.1, SVG Export Plug-In . SVG Version: 2.1.1 Build 8)  -->
  <defs>
    <style>
      .st0 {
        fill: #4aac4f;
        fill-rule: evenodd;
      }
    </style>
  </defs>
  <path class="st0" d="M873.09,394.14c-.61.31-.49,2.38-.98,2.75-1.4,1.04-5.43-.94-5.05,2.5-3.04.42-6.27.58-8.3,2.31-.12,1.19-1.12,1.23-.98,2.75-4.04-.65.74-1.61.22-3.73-1.12-.03-1.76-.55-2.38-1.08-.06.93-.11,1.87-.17,2.8-2.34-.77-3.79.27-4.12.68-.24.3-1.34-.35-1.63-.1-.34.29-.7,2.61-.98,2.75-1.68.84-7.14-.4-5.86,2.46-2.55.54-.8-3.28-3.96-2.11-1.59.29-.85,3.58-3.42,2.6-2.27.26-.56-3.53-2.22-3.88-1.63-.1-3.26-.2-4.89-.29-.16,1.47-2.12.61-1.8,2.7-4.05-.56-5.82,1.84-9.87,1.27.41,3.55-4.36.38-3.54,4.47-3.23-.84-4.7.61-7.38.49-.12,1.19-1.12,1.23-.98,2.75-3.58-.95-4.96.95-8.19.44.45,2.25-2.6,2.33-3.42,2.6-1.09.35-1.66,1.14-3.31.74.65,2.85-1.91,1.55-3.37,1.67-.06.93-.11,1.87-.17,2.8-2.35-.77-3.79.28-4.13.69-.07.08-2.53.79-2.5.78-.36.08-1.34-.33-1.63-.1-.18.16.09,1.8-.11,1.87-1.17.38-3.6.41-4.93.64-2.12.37-4.13.12-5.76.59-.15.04.05,1.82-.11,1.86-1.85.53-5.44-.43-7.38.49-.48.23-.13,2.89-1.74,1.77-.14-.73.09-1.84-.7-1.91-.14,1.54-.4,1.66-1.74,1.76-11.25.92-18.14-1.58-32.55-1.96-1.28-.16-.49-2.41-2.33-2.01-.22.64-.14,1.92-.93,1.81-.09-.01.21-1.74.11-1.86-1.56-2.03-2.9,1.75-3.37,1.67-.09-.02.21-1.73.11-1.86-.19-.25-1.33-.01-1.63-.1-3.74-1.12-8.98-1.19-13.78-1.77-1.07-.07-.64-1.68-1.51-1.96-7.58.1-12.43-2.55-19.42-3.05-.07-.92.01-1.61-.7-1.92-2.46-1.05-11.25-1.55-11.22-3.48.03-1.66-5.58-2.01-6.39-2.26.03-3.24-4.42-2.25-7.16-3.24-.16-.06-.14-.77-.76-.98-.41-.14-1.28.18-1.63-.1-.4-.32.3-2.17-.7-1.91-2.59.3-2.77-1.85-5.63-1.28.14-1.6-.48-2.43-1.46-2.9-2.64.05-3.35-1.86-6.46-1.32.75-3.33-2.61-2.01-3.9-3.04-.39-.32.3-2.17-.7-1.92-1.53.32-2.38-.8-3.2-1.12-1.11-.45-3.5-.72-4.01-1.18-.6-.52.19-1.41-.7-1.92-1.92-1.1-4.79-.43-4.77-2.16.02-1.47-3.21-1.64-3.95-2.11-.08-.05-.49-.76-.76-.98-1.48-1.23-1.33-1.85-3.15-2.07-.87-.11-.39-.77-.75-.98-1.45-.86-3.21-1.01-3.14-2.07.1-1.71-1.61-.29-2.38-1.08-.67-.69-.48-2.5-1.46-2.9-2,.02-2.99-1.82-3.14-2.07-.2-.33-1.39.21-1.63-.1-.57-.74.09-1.27-.7-1.91-1.43-1.16-3.15-.76-3.14-2.06.03-1.82-2.4-1.38-3.14-2.07-.33-.3-.39-1.53-.7-1.91-.57-.69-1.78-.4-2.38-1.08-.61-.67-.14-2.04-.65-2.85-.2-.33-1.41.21-1.63-.1-.83-1.16-1.24-3.02-2.22-3.88-.93-.81-2.21-.46-3.2-1.13.5-3.13-1.17-4.06-2.1-5.75-2.71,1-.44-3.05-3.14-2.06-.24-1.79-1.61-2.45-1.34-4.76-.91.28-1.24-.79-1.57-1.03-.61-.44-1.82-.48-2.39-1.08-.22-.23.23-1.52.11-1.87-.07-.22-1.39-.79-1.57-1.03-.91-1.22-1.57-2.25-2.27-2.94-.56-.56-1.86-.45-2.38-1.08-.24-.28.23-1.48.11-1.86-.08-.25-1.39-.77-1.57-1.03-.74-1.08-1.28-1.9-2.27-2.95-.45-.48-1.12-.59-1.57-1.03-.65-.64-.9-1.34-1.52-1.97-.48-.48-1.11-.57-1.57-1.03-.64-.64-.97-1.25-1.51-1.97-1.4-.32-1.92-.58-3.19-1.13-.56-.23-2.53-.54-3.2-1.12-.61-.53.22-1.43-.7-1.92-1.29-.68-2.77-1.22-4.83-1.22-.73-1-1.49-1.99-2.27-2.94-2.59.57-5.19-1.09-5.63-1.28-.72-.3-1.76.21-2.44-.15-.5-.26-.7-1.6-1.52-1.96-.86-.38-2.93-.78-4.01-1.18-1.33-.49-3.02-.6-4.01-1.17-.55-.33-.63-1.6-1.51-1.97-1.46-.62-3.79-1.08-5.65-1.28-.14-.73.09-1.84-.7-1.92-1.85.24-3.11-.68-4.82-1.22-1.51-.48-3.97-.65-4.82-1.23-.39-.26.28-2.22-.7-1.91-1.36-.08-2.71-.16-4.07-.25-.75-.74-1.48-2.39-2.27-2.94-2.45-1.72-5.99-1.99-9.65-2.46.66-2.02-1.96-2.66-3.09-2.99-1.8-.53-3.87.09-5.69-.34-1.28-.16-.5-2.41-2.33-2.01-.81-.3-.57.5-.87.89-.67.85-.43.64-1.69.83-7.08,1.11-18.11-2.24-26.03-1.57-1.25,1.74-3.97,1.55-4.35,4.42-.65.3-1.83-.53-2.44-.15-.21.13.02,1.59-.11,1.86-.11.24-1.47.59-1.69.84-.64.75-1.44,1.55-1.79,2.7-1.07.27-1.79,1.04-2.55,1.72-1.1.98-1.91,2.04-2.61,2.66-.04,1.28-.51,2.03-.98,2.75-1.05-.37-.49,1.38-.92,1.81-.27.27-1.28-.25-1.63-.1-.22.1-.69,1.6-.93,1.81-1.6,1.45-2.63,2.46-3.48,3.54-.14.18.09.75-.06.93-.24.31-1.34-.36-1.63-.1-2.18,2.01-3.02,3.78-3.65,6.33-.97.09-2.3-.3-2.5.79-.59,1.92-2.18,2.54-1.96,5.5-2.54-.61-2.1,2.78-2.67,3.59-.32.46-1.86-.3-1.68.83.07,1.78-1.04,2.01-1.04,3.69-3.14,1.62-4.93,5-8.52,6.03-.3,3.64-4.15,2.67-4.47,6.29-3.04-1.17-2.72,3.6-4.94.64-.35,1.88-1.77,2.38-2.66,3.58.66,3.54-2.18,2.54-1.96,5.5-.97.09-2.3-.3-2.5.79-.44,1.44-2.61.64-1.86,3.63-1.22.93-2.91.63-4.18,1.62-.29.22.16,1.59-.11,1.86-1.1,1.12-3.34-.26-2.61,2.65-3.19-1.12-2.62,2.64-5.81,1.52-.04,1.28-.51,2.03-.98,2.75-2.25-.91-2.18,1.19-4.13.69.26,1.91-.92,1.18-1.74,1.77-.54.39-1.13,1.4-1.74,1.77-.87.52-1.49.28-2.5.78-1.98.98-3.46,2.57-6.63,1.47.66,3.53-3.14,1.3-2.72,4.52-1.9-.11-3.79-.23-5.69-.34-1.18.14-1.46,1.48-2.55,1.72-.4.08-1.29-.34-1.63-.1-.26.18.09,1.57-.11,1.86-.32.46-1.86-.3-1.69.84-1.35-.08-2.71-.16-4.07-.25-.17,1.46-.37,1.76-1.74,1.77-1.96.01-2.02.69-4.13.69-.64,0-.8.87-.87.89-1.97.25-3.46-.79-4.89-.29-.19.07.06,1.69-.11,1.86-1.75,1.78-8.54-1.29-10.63.3.49,2.95-2.12,1.67-3.37,1.67-.68,0-.74.86-.87.89-3.69.63-6.5-.28-9.82.34-1.9.35-1.39,1.45-3.37,1.67-3.5.39-6.43.23-8.19.44-3.87.48-7.18-.21-10.63.3-.14.02.01,1.73-.11,1.86-.24.23-1.31-.18-1.63-.1-3.36.83-6.59.2-9.82.35-.34,3.36-4.15,1.43-6.62,1.47-.73.01-.67.83-.87.89-.77.18-.97-.97-1.57-1.03-.57-.05,0,1.24-.81-.05-.42-.67-1.63.77-1.69.84-.51.63-7.83-.45-7.33-.44-.45,0-1.05.87-.87.88-1.39-.06-3.28-1.19-4.82-1.22-.97-.02-1.29.66-2.5.78-3.65.36-8.05-1.34-9.71-1.52-6.55-.71-13.55-.49-20.28-2.16.48-3.15-4.33-2.3-5.53-3.14-.81-.57-.85-1.3-1.51-1.96-.16,1.13-.38,2.19-1.74,1.76-1.06-.13-.67-1.61-1.52-1.96-.72-.3-1.69.09-2.44-.15-.73-.23-.94-.9-1.57-1.03-.81-.18-1.02.88-1.68.84.23.01-.44-.87-.76-.98-1.07-.38-1.64-.77-2.38-1.08-2.48-1.03-2.23-.48-3.14-2.06-1.84.29-2.91-.65-4.83-1.22-1.7-.52-4.35-.55-5.64-1.28-.37-.22.28-2.26-.7-1.91-3.06.48-3.39-1.8-6.45-1.33-.14-.73.09-1.84-.7-1.91-2.63.04-3.34-1.86-6.45-1.33-.74-1-1.49-1.98-2.27-2.94-1.92-.1-2.3-1.75-4.83-1.23.71-2.48-1.57-1.9-2.27-2.94-3.06.48-3.4-1.8-6.45-1.32.26-2.67-2.23-2.21-3.09-2.99-.68-.63-.95-1.26-1.51-1.97-2.58-.3-3.45-2.33-6.4-2.25.78-3.87-2.67-2.25-3.9-3.05-.22-.13.27-1.62.11-1.86-.31-.45-2.01.18-2.44-.15-.34-.25-.29-1.66-.7-1.91-.6-.38-1.89.31-2.44-.15-.4-.33.3-2.17-.7-1.92-2.58-.3-3.45-2.33-6.4-2.26.94-3.49-2.46-2.3-3.08-2.99-.23-.24.23-1.51.11-1.86-.4-1.22-2.35-.3-3.2-1.13-.7-.68-.66-2.2-1.46-2.9-1.48-1.28-3.17-.37-3.15-2.06.02-1.46-2.24-1.88-3.14-2.07-.6-1.81-1.14-3.75-2.22-3.88-.94-.11-.34-.45-.76-.98-.54-.68-.94-1.28-1.51-1.96-.61-.71-1.7-.4-2.38-1.08-.26-.25.34-1.56.11-1.86-.25-.32-1.4.23-1.63-.1-.66-.94-.63-2.12-1.46-2.9-.74-.69-2.4.4-2.38-1.08.02-1.09-.43-.43-.76-.98-.2-.34-1.19-1.81-1.51-1.97-.36-.17-1.36.2-1.63-.1-1.01-1.11-.94-3.23-1.41-3.82-.25-.33-1.38.23-1.62-.1-.5-.67-.14-2.2-.65-2.85-.51-.67-1.87-.42-2.38-1.08-.5-.66-.14-2.19-.64-2.85-.51-.66-1.88-.41-2.38-1.08-.55-.72-.05-2.17-.65-2.85-.58-.66-2.17-.07-2.38-1.08.06-.93.11-1.86.17-2.8-2.9.02-1.34-4.48-4.66-4.03.83-2.6-1-2.48-.53-4.72-2.16.15-2.59-1.45-2.22-3.88-.2-.63-2.16-.58-2.38-1.08-.97-2.11.78-4.62-2.22-3.88.47-3.69-1.6-4.8-1.12-8.5-1.12-.02-1.76-.54-2.38-1.08-.37-.75.73-3.14.22-3.73-.16-.18-1.58.12-1.63-.1-.67-2.72.71-7.96-2.75-8.59.71-4.23-1.09-5.9-.2-10.31-1.05.37-.36-1.6-.7-1.91-.22-.22-1.5.18-1.63-.1-.8-1.76.78-6.02-2.1-5.75.79-4.49.08-9.07-.14-11.24-.39-3.84.4-8.89-.14-11.25-.1-.44-2.59-.18-1.52-1.96-.82-3.08,2.68-.55,1.86-3.63-.14-.74-.62-1.12-1.57-1.03-.65-1.67.33-5.01-2.16-4.82.32-5.28.64-10.57.96-15.86-.93-.21-.79-1.53-.64-2.85-1.08.17-.33-1.35-.7-1.91-.46-.68-1.59.23-1.57-1.03.02-1.45-1.4-3.46-.48-5.64-2.22.51-1.45-2.02-2.27-2.94,1.76.26.57-3.29,1.1-4.62.44-1.44,2.61-.64,1.85-3.63-.26-1.48-2.51-.95-1.4-3.82-1.57-1.04-2.71-2.5-3.84-3.98.01-3.88,1.29-3.57.39-6.53,1.5-1.41,2.59-3.35,3.59-5.4.32-5.29.64-10.57.96-15.86-.94-.22-.8-1.53-.64-2.85-2.56-.32-1.98-3.83-2.05-6.68,1.05.37.49-1.38.92-1.81.6-.6,1.91-.19,2.5-.79.4-.4.59-1.37.93-1.81.57-.75,1.1-1.13,1.74-1.76.05-1.29.51-2.03.98-2.75.89-4.12-.74-5.67-.25-9.38,6.17,1.66,11.56-1.04,16.39-.88,1.67.06,3.3,2.6,4.88.29-.72-.09.32-3.57-.53-4.72-.15-.2-1.57.13-1.63-.1-.72-2.9-.32-6.07.51-8.39,1.99-.27,1.66,1.81,4.01,1.17.06,1.11-.3,2.64.65,2.85,1.09.07,2.17.13,3.26.2-1.75,2.46,1.61,2.53,2.22,3.88.43.96-1.42,4.73,1.4,3.82,1.5.35,1.02-4.7,1.1-4.61-.13-.18-1.6.09-1.63-.1-.54-3.08.55-3.57-.53-4.72-.22-.23.23-1.52.11-1.86-.04-.12-.72.04-.82-.05-1.56-1.66,2.31-7.1.51-8.39-3.58,1.01-.74-4.5-3.84-3.98.24-4.04-1.53-6.04-1.01-10.36-3.32.06-1.81-.46-1.46-2.9,2.23-.51,1.46,2.02,2.27,2.95,2.25-.54-.85,4.36,1.4,3.82,1.12-.22,1.64-1.23,3.31-.73-.27,1.21,1.13.53,1.57,1.03.51.58-.26,2.66,1.52,1.97.09-1.56.19-3.11.28-4.66-1.42-.01-2.52-.36-3.2-1.13.13-2.18.26-4.36.39-6.53-3.1.53-.26-4.99-3.84-3.98.38-2.72-1.67-2.98-1.29-5.69-2.38-.07-2.45-2.47-3.08-2.99-.55-.46-1.15-.48-1.57-1.03-.56-.73-.14-2.03-.65-2.85-.17-.27-1.51.19-1.63-.1-.69-1.69-.59-4.11-.42-6.58,3.86-.36,1.9,4.55,5.59,2.21,2.47-3.91-2.02-2.27-1.24-6.63,1.96-.67,1.91,1.9,3.09,2.99.11.11.66.03.81.05,1.08.14.64,1.66,1.52,1.97,2.66.94.58,1.87,2.27,2.94.83-2.6-1-2.49-.53-4.72-1.52.08-1.66-1.22-2.33-2.01-.83-1-1.52-1.88-2.27-2.95-.94-1.34-3.67-1.48-2.16-4.81,2.53-.52,2.3,1.76,4.83,1.23-1.4,3.1,2.39,2.1,3.09,2.99.37.48-.44,2.22-.17,2.8.27.58,2.06.33,2.38,1.08.31.72-.41,2.04-.17,2.8,2.85.31,1.68,4.72,5.47,4.08-.38,2.43.06,4.03,2.22,3.88-.29,3.48-1.07,2.6-.34,5.6.51,1.53,4,.03,3.09,2.99.09,2.47-3.21.55-2.67,3.59,3.06-1.33.37,4.1,2.27,2.94.08-.05.33-3.67.98-2.75.68.95-.96,3.69.59,3.78.95.06.79,1.65.65,2.85,3.89-.45,2.38,4.59,5.41,5.01-.11,1.86-.22,3.73-.34,5.59.65.26,1.53,1.12,1.52,1.97-.03,1.91,1.97,2.33,2.22,3.88.24,1.57.33,2.31,2.33,2.02-.11,1.86-.22,3.73-.34,5.6.69,1.04,2.98.47,2.27,2.94-.65.17-1.61-.07-1.69.83,3.13-1.4,1.26.63,4.02,1.18-.77,2.82,1.23,2.82.47,5.65,3.03.42,2.01,3.53,2.92,5.79.15.36,1.22,1.49,1.52,1.96,1.22,1.96,2.09,2.91,3.03,3.93-2.11,1.11-2.32-3.84-3.2-1.13,2.05.68.92,2.78,2.27,2.95,1.33.16.32,2.52,1.46,2.9.04,0,.29-2.42.93-1.81-.07,1.24-.15,2.48-.22,3.73,2.66-.66,1.54,2.52,3.09,2.99.9.15,1.35-1.28,1.63.1-2.04.68.51,3.5.59,3.78.2.71-.14,1.86.7,1.91,1.12.03,1.76.55,2.39,1.08.9.15,1.35-1.28,1.63.1-.96.1-.97,1.42-.98,2.76,3.38.81,4.75,4.79,6.93,6.96.33.33,1.26-.17,1.63.1.61.44.81,2.3,1.46,2.9.34.32,1.24-.13,1.63.1.58.35.48,1.84,1.52,1.97,1.28.15.49,2.42,2.33,2.01.04-2.38-.97-3.69-3.03-3.93.86-3.26-.98-2.31-1.4-3.82-.2-.71.14-1.86-.7-1.92-1.52-1.65-1.03.02-3.25-.2-1.66-2.05.9-2.97-.53-4.71-.62-.25-.9-.84-.7-1.92-1.68.29-1.67-1.28-2.33-2.02-1.1-1.24-3.04-2.53-3.03-3.92.01-1.17-1.25-1.03-1.52-1.96-.33-1.16-.12-1.15-.7-1.92-.57-.75-1.13-.02-1.57-1.03.11.26,1.83-.22,1.68-.84-.05-.21-1.48.09-1.63-.1-.24-.32.27-1.47.11-1.86-.24-.59-1.33-1.24-.65-2.85-2.59-.29-2.21-3.6-4.66-4.03.02-2.65-1.26-3.98-1.23-6.63-2.16.11-1.82-1.88-2.27-2.94-.43-.99-1.1-1.18-1.52-1.96-.45-.86-.16-1.93-.64-2.85-1.08-2.04-3.97-3.38-2.86-6.72-3.07-.43-1.91-3.39-2.92-5.79-.12-.29-1.48.18-1.63-.1-.51-.99-.66-4.95-1.29-5.7-.21-.25-1.5.19-1.63-.1-.46-1.06-.6-3.37-.53-4.71-2.16.15-2.59-1.45-2.22-3.88-1.42-.02-2.51-.36-3.2-1.13,1.68-2.73-1.52-4.26-1.4-3.83-.35-1.27-.32-3.42-.53-4.72-.24-1.47-.74-2.85-.53-4.71-1.88-1.31-3.13-3.24-2.86-6.73-2.16.15-2.59-1.45-2.22-3.88-1.9.73-1.63-2.13-2.27-2.95-.35-.45-1.17-.64-1.57-1.03-.65-.64-.98-1.25-1.51-1.96-.51-2.68,1.29-2.35,1.09-4.61-1.03-1-1.44-2.63-3.08-3,1.28-3.53-1.75-3.28-2.22-3.88-.96-1.24.27-3.82-2.27-2.94-.31-1.86-1.12-2.79-2.22-3.87-.32-.33-1.29.2-1.63-.1-.59-.54.18-1.4-.7-1.92-.82-.49-2.42.23-2.38-1.08,1.46-1.57,2.68.98,5.69.34-.24,1.21,1.09.52,1.57,1.03.26.27-.35,1.56-.11,1.87.24.32,1.4-.24,1.62.1.61.86.53,2.36,1.46,2.9,1.62-.19,1.54,1.36,2.33,2.01.77.64,2.41-.35,2.38,1.08-.01.89.74.93,1.57,1.03.94.11.32.62.75.98,1.33,1.12,2.97,1.32,4.83,1.22-.39,2.45.94,3.13,3.09,3-.37,2.91.78,3.83,1.35,4.77.12.19-.18.73-.06.93.17.27,1.51-.19,1.63.1.39,1-.5,2.67-.22,3.73,1.42.02,2.52.36,3.2,1.13-.83,2.6,1,2.48.53,4.71,3.15-.47,1.62,2.58,2.22,3.88.28.61,2.07.28,2.38,1.08.29.75-.39,2.01-.17,2.8.33.73,1.96.46,2.38,1.08.76,1.14-.9,4.74,2.22,3.87.71,1.85-.71,3.61.47,5.65.26.44,2.24.71,2.38,1.08.62,1.61.12,3.58.48,5.64,3.37-.12,2.06,3.63,2.92,5.79.11.27,1.52-.17,1.63.1.9,2.21.08,6.59,2.92,5.8-.85,2.79.49,5.02.48,5.64-.02,1.39,1.27.3,1.57,1.03.61,1.5.5,2.75.53,4.72,2.78.68,2.82,4.15,5.42,5.01.36,3.43,3.04,4.49,2.74,8.59,2.6.41,2.83,1.33,3.09,2.99.28,1.77,1.46.09,2.39,1.08.26.28-.35,1.56-.11,1.87.23.3,1.43-.23,1.63.1.42.69.35,2.21.65,2.85.27.58,1.26,1.28,1.52,1.96,1.53.49,1.31,2.75,3.95,2.11-.78,3.31,2.25,2.03,2.22,3.88-.02,1.3,1.58,2.86,2.27,2.95,1.8.22.93,2.74,3.14,2.06.74,1.29.56,3.52,2.22,3.89,1.88.43,3.15,1.13,3.14,2.06-.04,2.53,3.93,1.21,3.9,3.04-.02.98.19.58.76.98,1.7,1.19,3.38,1.18,3.96,2.11.2.33,1.39-.21,1.62.1.61.79-.28,1.37.7,1.91,2.45,1.36,5.5,1.44,7.21,2.31.4.2-.04,1.57.7,1.91,1.57.72,5.07-.08,6.45,1.33.64.65-.32,1.45.7,1.91,2.21,1.01,3.1.43,4.01,1.18,1.48,1.22,3.33.27,4.83,1.23.53.33-.16,1.51.7,1.91,1.18.56,2.85-.22,4.07.25.23.08,1.21,1.72,1.51,1.97,1.86,1.5,4.22.59,6.46,1.32,1.86.61,1.17,1.63,3.14,2.07,2.13.47,4.31,0,6.51.39,1.08.08.65,1.68,1.52,1.96,2.44.15,4.88.29,7.32.44-.18,1.55,1.55.49,2.39,1.08.61.43.57,1.56,1.51,1.96,4.36,1.86,16.4,1.66,20.34,1.23,2.18-.24,4.05.56,4.89.29.39-.12.2-2.96,1.74-1.76,1.28.16.5,2.41,2.33,2.01.82.3.57-.49.87-.89,1.94-2.47,5.76-1.31,9.06-1.32.14-1.55.4-1.65,1.74-1.76,4.56-.41,12.31.76,17.14.09.81-.11,1-.71,1.69-.84,1.25-.23,2.84.46,2.55-1.72,2.54-.55,1.41,2.65,3.96,2.11-.03-4.05,6.15-.07,5.97-4.32,2.98.84,3.59-1.38,6.57-.54.23-.71.75-1.04,1.69-.84-.46-3.6,3.99-.86,3.54-4.46,3.29.59,3.47-2.87,7.43-1.43.05-3.96,5.18-1.33,5.22-5.3,1.48-.42,3.41-.28,4.18-1.62.75-1.04,1.22-2.44,1.09-4.62,1.07-.27,1.79-1.04,2.55-1.72,1.1-.97,1.91-2.03,2.61-2.65-.21-2.96,2.62-1.96,1.97-5.49,3.16,1.47,2.06-1.89,2.61-2.65.33-.47,1.86.3,1.69-.84.01-2.33,1.45-2.82,1.91-4.57.29-1.04,1.21-1.02,1.74-1.77.48-.67.42-2.1.98-2.75.39-.45,2.05-.41,2.5-.78.29-.25-.17-1.61.11-1.87.95-.89,2.65-.8,3.37-1.67.61-.75.38-2.08.98-2.75.28-.3,1.35.38,1.63.1.26-.26-.17-1.66.11-1.87.56-.41,1.83.47,2.45.15.15-1.16,1.09-1.23,1.74-1.77.28-.24-.15-1.56.11-1.87.43-.5,3.61-.14,2.61-2.65,2.54.61,2.02-2.75,4.99-1.57-.02-3.37,3.37-2.33,3.59-5.4,2.45.82,2.49-1.47,4.94-.64-.44-2.58,1.73-1.78,1.86-3.63,3.15,1.4,1.84-2.97,4.99-1.58.12-1.18,1.13-1.22.98-2.74,1.27.72,2.77-.37,4.13-.69,1.29-.31,3.57-.3,4.13-.69.21-.15-.12-1.77.11-1.86,1.38-.58,4.84.27,5.75-.59.18-.16-.08-1.81.11-1.86.67-.21,1.75.14,2.45.15.62,0,.82-.88.87-.89,5.51-.61,8.72-.21,13.89-.1.03-3.37,5.71-1.34,7.43-1.43,1.05-.05,1.2-.72,2.5-.78,5.42-.23,11.34,0,16.27.98,1.19.24,1.43,1.01,3.2,1.12.97.07,1.27-.72,2.5-.78,3.62-.17,7.63,1.03,11.34,1.62,1.79.29,3.46-.07,4.88.29,1.03.27,1.02,1.18,1.52,1.97.5.8,4.38.16,4.88.29,3.88,1.04,7.22,2.84,11.28,2.56.14.73-.09,1.84.7,1.91,3.46.28,5.6,1.91,9.71,1.52-.34,2.76,2.55,2.49,3.9,3.04,1.18.48,2.64,1.68,4.01,1.18.05.95.03,1.56.7,1.91.72.38,2.94,1.1,3.2,1.12,1.01.13.41,1.01.7,1.92.03.1,1.46.95,1.57,1.03,1.56,1.11,3.98.57,3.95,2.11-.03,2.26,4.33,2.12,5.59,2.21.79.83,1.36,2.3,2.27,2.94,1.56,1.1,3.16.53,3.14,2.06-.02.98.19.58.75.98,1.55,1.09,2.7,1.36,3.14,2.06.21.33,1.39-.21,1.63.1.6.78-.17,1.3.7,1.92,1.77,1.24,3.98.53,3.96,2.11-.03,2.19,3.13,1.42,3.95,2.11.72.6.48,2.48,1.46,2.9,2.61,1.11,1.54,1.31,3.08,2.99,1.48,1.6,2.68,1.9,4.77,2.16-.87,2.47,1.54,1.17,2.33,2.02.66.71.48,2.48,1.46,2.9,2-.03,2.99,1.81,3.14,2.06.21.33,1.4-.21,1.63.1.49.65-.35,1.79.7,1.91.94.11.33.62.76.98.94.78,2.03.3,3.2,1.13.23.16-.29,1.61-.11,1.87.32.48,2.02-.25,2.44.15.64,2.13,1.49,3.74,2.16,4.81.2.32,1.43-.22,1.63.1.47.77-.62,2.9.64,2.85,1.89.04,1.77,2.05,3.09,2.99.92.66,1.6,1.2,3.2,1.13-.42,4.5,2.76,5.36,5.3,6.87-.12,1.28.26,2.07.65,2.85,1.34.09.3,2.61,1.46,2.9,1.12.03,1.76.55,2.38,1.08.54-1.45,2.2-1.52,3.37-1.67.86-.12.51.89.76.98.72.27,1.08-.83,1.68-.83,3.39-.02,4.66.9,6.46,1.32,1.69.4,3.81,0,5.7.34.45.03.88.81-.06.93-1.08-.07-2.17-.13-3.26-.2-2.38,1.1-2.91.16-4.07-.25-2.5-.88-8.62-.64-9,.4.41,1.58,1.91,2.46,2.27,2.94.51.69.99,2.79,2.27,2.94,1,.12,1,2.17,1.46,2.9.2.33,1.4-.21,1.63.1.31.4.49,1.46.7,1.92.5,1.07.89,1.13,1.52,1.96.85,1.12,1.53,2.86,3.14,2.06.74,1.3,1.17,2.9,2.22,3.88.82.04.92.81,1.57,1.03,1.61-.19,1.53,1.35,2.33,2.01,0-1.68.94-2.13,2.55-1.72-.02,2.65-2.86,1.65-1.97,5.5,1.4.62,4.85-.84,4.82,1.22-1.28.01-2.81-.29-2.55,1.72,2.53-.53,2.3,1.74,4.82,1.22.53,2.97,3.13,3.83,5.42,5-1.39,3.46,2.13,1.93,1.34,4.77.89.2,2.4-.02,2.38,1.08-.02,1.1.43.44.76.98,1.4,2.33,2.61,4.49,4.54,5.9,2.6-.31,2.77,1.85,5.64,1.28-.91,2.97,2.57,1.47,3.09,2.99.85-.91,1.72-1.79,2.61-2.65-.51,2.34,4.03,3.97,4.77,2.16-.41-3.91-7.05-2.15-6.99-6.04.22-2.06,3.47-.19,4.94-.64,0,1.47-.3,3.23,1.46,2.9,1.07.05.84-1.59,1.74-1.77-1.43,2.73,4.35,3.08,3.26.2-.05-1.51-3.96,1.28-3.09-3,3.29-.09,10.63.25,7.97,3.29.67-1.48-3.75-1.74-3.26-.2,1.53.2.38,3.11,2.27,2.94,3.12-.53,3.82,1.37,6.46,1.33,1.08.07.64,1.68,1.52,1.96.78-3.72-3.29-2.5-2.92-5.79.2-1.08,1.35-.94,2.5-.79.23-.71.13-1.84.93-1.82-1.77,4.92,3.88,1.43,3.84,3.98-.02,1.32,1.83,1.17,2.33,2.01,1.45-.18,3.9,2.87,4.89.29-1.16-.89-2.96-.42-4.02-1.18-.21-.15.26-1.6.11-1.86-.6-1.13-3.16-.17-3.14-2.07.03-1.54-3.24-1.53-3.95-2.11-.36-1.08-.71-2.22-1.46-2.9-.52-.46-1.86.22-2.44-.15-.67-.41-.48-2.7-1.46-2.9-3.39.54-4.09-1.68-7.27-1.37-.58-.97-1.77-2.08-3.08-2.99-.59-.41-1.89.32-2.45-.15-.63-.53.41-1.65-.7-1.91-.99-.25-1.23,1.3-2.5.78-.06-1.11.3-2.64-.65-2.85-1.46-1.24-3.65-.41-4.82-1.22-.47-.34.23-2.86-1.51-1.97-1.08-.07-2.17-.13-3.26-.2-.19,1.09-.02,2.66-.98,2.75-.13-.73-.62-1.12-1.57-1.03-.9-1.84-2.68-2.38-3.9-3.05-.36-.2.02-.71-.75-.98-.54-.19-1.69.22-1.69.84.95.21,2.32-.02,2.38,1.08-1.28.01-2.81-.29-2.55,1.72-2.84-.51-6.48.45-6.46-1.33.03-1.93-6.54-1.73-4.6-4.96,3.16-1.17,1.41,2.65,3.95,2.11,1.3,0,.79-2.34,2.56-1.72,1.64-.65,1.51,1.97,2.33,2.01.07,0,.02-1.77.11-1.86.33-.34,3.59.09,4.07.25,1.6.5.86.49,2.44.15,2.2-.49,3.88.71,5.7.34,1.07.08.64,1.68,1.51,1.96.13-4.17,2.03.96,4.07.25-.09-3.8,5.13-.72,7.43-1.42-1.19,3.31,1.89,1.1,3.14,2.06.24.19-.32,1.61-.11,1.87.25.34,1.34-.21,1.63.1.51.54.93,1.6,1.51,1.97,1.29.78,3.24.44,4.82,1.22.23.11.4,1.72.7,1.92.84.55,2.36-.25,3.26.2-.74-3,.05-2.12.34-5.6,3.66-1.1-.32,5.58,2.1,5.75.23-.72.13-1.84.93-1.82-1.58,4.42,2.51,2.28,3.84,3.98.39.49-.29,2.04.7,1.91,1.81.79,4.11,1.08,5.59,2.21.48,3.23-.37,4.34.31,8.45,2.34-.64,2.03,1.44,4.01,1.18-.31,2.94,1.97,3.24,1.23,6.63.99.16,1.92.39,1.52,1.96,4.1-.08,3.74,4.37,7.05,5.1.06-.93.11-1.86.17-2.8,2.66-.66.93,3.14,3.08,2.99,1.66.36.56,3.52,2.22,3.89,2.36.39,2.63-1.96,4.99-1.58,1.09.64-.09,3.6,1.41,3.83,1.69.38,3.44-.18,4.88.29.21.07,1.21,1.76,1.52,1.96,1.01.68,3.02-.34,2.32,2.02-1.54,2.63-4.03-1.08-4.76-2.16.35,1.69.18,3.9,1.34,4.76,1.08.07,2.17.13,3.25.2.17-1.13.38-2.2,1.74-1.77-.66,3.24,3.27,1.82,4.77,2.16.8.18,1.81,1.86,3.19,1.12.8-.41-.38-2.56.98-2.75-1.43.2,3.18,4.66,2.38,1.08.28-1.75-.79-2.12-.59-3.78-2.9.75-2.54-2.82-3.84-3.97-1.28-1.14-2.66-.57-3.96-2.12.39,1.69-2.62,3.73-.28,4.67-.6,1.9,3.38,3.39,1.41,3.82-1.57.05-.84-1.96-1.46-2.9-.57-.87-3.18-.84-2.27-2.94.16-1.47,2.12-.6,1.79-2.7-2.49.19-1.5-3.14-2.16-4.81-3.3.73-2.28-2.93-5.58-2.21.81-3.83-3.06-1.95-3.03-3.93.03-2.32-4.35-.9-3.04-3.92.38-1.13,1.74-1.19,2.56-1.72.94-.61,1.38-2.75,3.37-1.67,1.25.48.52,2.98,3.14,2.07.14.73-.09,1.84.7,1.92.42,2.88-1.57,2.65-1.15,5.55,1.35.08,2.71.16,4.07.25-.65,2.43,1.27,1.21,2.33,2.01.34.25.29,1.66.7,1.91.63.4,1.82-.28,2.44.15.22.15-.28,1.62-.11,1.86.32.49,2.02-.25,2.44.15.82.93.04,3.46,2.27,2.95-.46,2.23,1.36,2.11.53,4.72,3.1-.52,1.56,3.67,3.84,3.97.82.01,1.63.15,2.45.15.45,0,1.05-.87.87-.88,1.16.05,1.38,1.35,3.19,1.12.06,0,0-.87.06-.93.61-.75,3.46,1.01,3.31-.74.62-2.19-7.06-.28-3.95-2.11,1.35.08,2.71.16,4.07.24.21-1.08,1.35-.94,2.5-.79.15-1.52.39-1.69,1.74-1.77,4.08-.24,9.96.74,13.14-1.08-.66-3.53,3.14-1.29,2.72-4.52-1.69.43-3.56-.71-5.64-1.28-2.01-.55-5.97.39-5.53-3.13,2.69.12,5.73.72,5.86-2.45-3.53.48-7.05-1.08-8.08-1.43-1.57-.53-2.42.1-3.2-1.13-.2-.33-1.39.21-1.63-.1-.5-.67.21-2.54-.65-2.85,1.15-.87,1.75-2.43,3.42-2.61,1.59-.6,3.1,1.04,4.82,1.23.81.09.62-.82.87-.89.8-.18.94,1.1,1.57,1.03,1.07-.1,1.17-.77,2.49-.79,3.82-.03,7.08-.18,9.01-.39,1.22-.13,2.89.66,4.07.24.19-.07-.07-1.69.11-1.87,1.52-1.54,7.41,1.1,9-.39.71-4.79,8.59-.27,9.29-5.06,3.72.8,4.81-1.82,8.25-1.37-.3-2.43,1.76-2.36,2.67-3.59.9-1.23,2.07-2,1.91-4.57,3.3,1.26,1.82-1.54,2.61-2.65.48-.68,2.8-.06,3.31-.74.43-.57-.18-2.16.17-2.8,1.94.5,1.87-1.6,4.13-.69-.05-2.75,2.01-2.75,1.96-5.5,2.59.77,2.08-1.9,2.61-2.65.33-.46,1.86.31,1.69-.84.11-1.19,1.12-1.23.98-2.75,2.94.11,2.51-4.12,5.92-3.39.06-.93.11-1.86.17-2.8.97-.09,2.3.3,2.5-.78.9.14,1.34-1.28,1.63.1-1.05-.03-1.16,1.16-1.74,1.77-.73.75-1.83.97-2.56,1.72-.59.61-.39,2.16-.98,2.75-.27.27-1.28-.25-1.63-.1-.41.19-.9,2-.98,2.75-.16,1.56-2.98.79-1.85,3.63,1.63.69,3.65.3,4.82,1.23.49.39-.25,2.8,1.52,1.96,1.23.07.94-2.3,1.79-2.7.55-.26,1.98.56,2.44.15.65-.57.15-2.3.98-2.75.65-.35,1.75.42,2.44.15-.4-3.44,1.64-2.79,2.67-3.59.4-.3,1.36-1.35,1.74-1.77,1.13-1.22,1.57-3.31,2.73-4.51.26-.27,1.29.24,1.62.1.2-.09.71-1.61.93-1.82,1.01-.98,2.51-1.81,1.85-3.63,1.48.98,1.32-1.5,1.74-1.77.78-.48,2.44.61,2.5-.78.03-2.65,2.57-2.03,2.72-4.51,1.08.07,2.17.13,3.26.2.22-3.07,3.61-2.02,3.59-5.41,3,.21,5.63-.08,5.92-3.39,4.18.35,7.85-.99,12.31-1.13,2.11-.07,4.75.68,7.32.44.08,0,.39-1.69.93-1.82-.11.03.78,1.13,1.57,1.03.05,0,0-.87.06-.93.88-1.08,7.99.71,8.95.54,2.16-.39,3.94-2.25,5.87-2.45.12.59-.07,2.03.7,1.92.13-.02-.02-1.74.11-1.87.2-.2,1.34.13,1.63.1,3.18-.32,7.78,1.42,9.82-.34.06,1.1-.3,2.64.65,2.85,2.08.47,3.4-.28,4.88.29.96.37,1.4,1.94,2.33,2.01.07,0,.02-1.77.11-1.86,1.64-1.67,4.8,2.51,5.7.34.07,1.1-.29,2.64.65,2.85,1.9.11,3.8.23,5.7.34.16-1.13.38-2.2,1.74-1.77,1.68.56,4.41-.34,5.7.34.91.49.78,1.37,1.52,1.97.77-1.34,2.17-1.88,4.18-1.62,1.15.78.65,1.6,2.33,2.02,2.2.54,4.87-.03,7.32.44,1.93.37,3.69,1.87,5.58,2.21,1.33.23,2.73.05,4.07.25.14.73-.09,1.84.7,1.91,2.36-.62,3.81.92,4.01,1.18.24.32,1.72-1,2.5-.79-.49-.13.9,1.17.76.98,1.11,1.39,3.07,1.17,4.82,1.23.12,3.05,2.74,2.07,3.9,3.05.4.33-.29,2.16.7,1.91,2.59-.29,1.67,2.97,4.77,2.16-.58,2.91,2.39,2.36,3.08,2.99.4.37-.3,2.14.7,1.91,2.67.21,2.95,2.84,6.4,2.26-.44,2.97,2.79,2.09,3.9,3.04.59.51-.42,1.78.7,1.92.93.11.33.62.76.98.84.69,2.22.29,3.19,1.12.52.44.41,5.16,3.09,2.99-.41,1.87.84,2.08,1.46,2.9.94,1.26,1.66,2.14,2.28,2.95,2.3.4,2.72,1.9,3.9,3.04.13.13-.15.78-.06.93.18.28,1.34-.08,1.63.1.1.06-.13.82-.06.93.2.33,1.37-.19,1.63.1.23.25-.23,1.51-.11,1.86.08.22,1.39.8,1.57,1.03.82,1.1,1.6,2.07,2.28,2.95.9.84,2.1,1.36,4.01,1.18-.4,2.44,1.55,2.51,3.08,2.99.43.85.62,2.54,1.46,2.9.28.12,1.47-.16,1.63.1.48.74-.62,2.92.64,2.85,1.53.5,1.93,2.14,3.96,2.12-.88,1.71,1.29,1.49,1.52,1.97.41.88-.57,2.81.65,2.85,1.15.58,4.27-.84,4.01,1.17-.96.1-.97,1.42-.98,2.75,1.53,1.65,1.04-.02,3.26.2,1.09.64-.09,3.6,1.4,3.83,1.77.45,3.07,1.51,4.83,1.22,1.84-.29,2.29-1.62,3.42-2.6.02,1.15.11,2.23,1.51,1.97.1-1.85-2.15-1.32-1.4-3.83,1.92.1,2.3,1.75,4.82,1.23.08,1.51,1.39,2.67,2.22,3.87.07.11-.05.79-.06.93-.02,1.46,2.23,1.88,3.14,2.06.18-2.77.26-5.68,2.78-5.45.13,1.85-1.21,1.79-1.79,2.7,2.62-.91,1.88,1.59,3.14,2.07,2.49.14,5.68,4.09,8.08,1.42.41-2.46-4.61.6-3.09-2.99.55.06,1.09.03,1.63.1,1.82.23.77.77,1.51,1.97.38.61,3.62-.01,3.32-.74-1.15-1.46-3.49-1.72-5.59-2.21-.86-3.51-.22-8.53-.89-12.22-.62-.25-1.61-.13-1.57-1.03-.45-.03-.88-.81.06-.93-.06.84.16.77.76.98.81.29,1.5-.84,1.68-.84.99.03,2.22,1.83,3.26.2.04,2.73-1.72,3.13-2.72,4.52,1.61-.19,1.54,1.36,2.33,2.02-.8,3.65-1.61,4.99.37,7.51,3,1.53,1.72-2.47,4.18-1.62,1.34.1.3,2.62,1.46,2.9.1-1.54,2.29-.38,2.55-1.72-.17-2.45-.11-5.14-1.23-6.62-1.66,1.65-1.44-.65-4.07-.24-.09-2.55-.79-4.46-2.11-5.75,5.28-1.28,4,4.11,7.91,4.22.23-2.54-1.24-1.96.22-3.73,1.12.03,1.76.55,2.38,1.08,1.05,0,.37,1.15.7,1.92.39.89,1.26,1.1,1.51,1.96.41,1.36,1.83,3.5-.28,4.66.33-1.89-2.89-4.51-3.09-2.99-.83,2.59,1,2.49.53,4.71,3-.41,3.08,2.13,2.97,4.86-.78,2.41-3.38-5.19-5.64-1.28-.18,1.56,1.55.49,2.38,1.08.63.44.51,1.63,1.51,1.96.84.28,2.55-.34,3.26.2.78.6-.21,2.87,1.46,2.9.73.01,1.6-3.63,2.61-2.66.02,1.15.11,2.22,1.52,1.97.06,1.1-.3,2.64.64,2.85,3.6-.44,4.49,1.86,8.08,1.42.33,1.13.74,2.17,1.46,2.9,4.13-.41,5.57,1.92,9.71,1.52.14.73-.09,1.84.7,1.91,3.8-.07,5.32,2.18,8.84,2.4.06,1.11-.3,2.64.64,2.85.91-2.49,2.47,1.46,4.88.29,0,1.47.16,1.8,1.52,1.97,1.59.19,2.42,3.66,4.77,2.16-.02,1.01.1,1.49.7,1.91,2.34,1.66,6.09,2.01,9.65,2.45.06,1.11-.3,2.64.65,2.85,1.61-.19,1.53,1.36,2.33,2.02.16-1.13.37-2.2,1.74-1.77,1.14,1.8.97,2.02,2.27,2.94,1.97,1.4,4.79.55,4.77,2.16-.02,1.61,4.85,1.71,5.58,2.21.22,3.59,4.64,2.88,7.97,3.29.83-.95,3.02-.11,2.62-2.66-2.88-3.2-8.35-3.77-12.74-5.45.76-3.32-2.62-2.01-3.9-3.04-.4-.32.3-2.18-.7-1.92-2.63.05-3.35-1.85-6.46-1.32-.63-1.41-.42-3.65-3.08-2.99-.83-3.08,2.67-.56,1.85-3.64-1.46-1.73-2.71-3.66-2.86-6.72-.95.15-1.19-.63-1.57-1.03-.59-.63-1.08-1.21-1.52-1.96-.49-.84-3.37-2.73-.59-3.78-1.02,3.09,2.45,1.6,3.96,2.11.53,2.68.6,5.82,1.13,8.49,2.32-.01,1.4,3.26,4.77,2.16.02,4.03,4.61,4.03,6.22,5.07.6.38-.31,1.58.7,1.91.57.19,1.38-1.08,1.69-.84.19.15-.21,1.59-.11,1.87.67,2.08,4.8-.06,4.77,2.16-.03,1.96,1.61,2.13,3.14,2.06,1.01-4.23-1.42-4.97-4.6-4.95-.26-1.19-.93-1.97-2.33-2.01,0-1.75-.35-3.16-1.4-3.84-1.48.5-2.45-1.03-3.2-1.13-.92-.11-.86-1.47-1.52-1.96-1.39-1.02-4.82-1.07-4.66-4.02,1.09.07,2.17.13,3.26.2,1.01.23.74,1.48,1.51,1.96,1.39.85,3.63.57,5.65,1.27.34.12,1.02,1.84,2.38,1.08-.43,3.35,3.06,2.72,2.91,5.8.82.05,1.63.1,2.44.15-.37,2.43-.55,4.65,2.22,3.88.76,2.99-1.41,2.19-1.85,3.63,2.42-1.16,3.98,2.8,4.89.29.63-2.39-.13-3.37-2.28-2.94-.43-.59-1.63-4.54.28-4.66.33,1.13.74,2.17,1.46,2.9,2.89.57,4.19,2.75,8.02,2.35.06,1.11-.3,2.64.65,2.85,2.43.15,4.88.29,7.32.44-.71,2.48,1.58,1.91,2.27,2.94,3.01.93,6.45-.31,7.38-.49,1.26-.24,2.84.46,2.56-1.72,4.12.99,5.99-.95,9.82-.34,0-2,.94-1.72,2.55-1.72.63,0,.81-.88.87-.88,2.79-.33,6.25.59,9.01-.4.17-.06-.06-1.82.11-1.86,1.66-.48,4.51-.07,6.57-.54.17-.04.23-.74.87-.89.97-.21,1.96-.03,1.74-1.77,3.57.95,4.96-.94,8.19-.44.13-.17-.05-1.81.11-1.86,1.3-.38,2.87-.41,4.13-.69,1.59-.34,3.38-.08,4.94-.63.18-.07-.07-1.8.11-1.86,1.46-.54,4.77.33,5.75-.59.2-.18-.09-1.79.11-1.86,1.62-.61,4.12-.02,5.76-.59.35-1.89,1.78-2.39,2.67-3.59,1.35.08,2.71.16,4.07.24.16-1.13.38-2.19,1.74-1.77.34,3.8-4.14,1.34-5.1,3.45-.04,1.28-.51,2.02-.98,2.75,1.43.3,4.13-.7,3.14,2.06-1.91-.13-2.49,1.46-4.93.64.08,2.23-1.05,1.4-2.56,1.72-1.8.37-3.06,3.02-5.81,1.52.49,3.99-4.65.68-4.35,4.42-4.29-.53-6.18,2.05-10.7,1.23.13,1.85-1.21,1.78-1.79,2.7-3.57-.95-4.96.95-8.19.44.17,3.92-5.68.01-5.16,4.37-5.54-1.49-6.99,2.33-12.32,1.13.3,2.34-2.98,2.36-5.05,2.5-2.36.16-5.37-1.35-6.57.54-.82,2.93,2.87.99,4.77,2.16.1.06-.12.82-.06.93.2.32,1.39-.22,1.63.1.55.7-.37,1.64.7,1.91,1.41.36,9.3,1.23,7.44-1.42,3.22.71,7.39-.69,8.25-1.38.5-.41,1.11-.54.93-1.82,2.17.13,4.34.26,6.51.39,1.14-1.42,2.94-.16,4.13-.69.21-.09-.07-1.65.11-1.86.38-.44,1.97.49,2.44.15.3,3.92-2.91,1.93-4.23,2.55-.33.16-.52,1.66-.93,1.82-.44.15-1.17-.1-1.63-.1-1.96,0-2.01.69-4.13.69-.63,0-.79.87-.87.89-1.45.18-3.59-.65-4.88-.29-.18.05.06,1.74-.11,1.86-1.68,1.13-5.48-.35-6.62,1.47-1.07,2.42,1.83,1.24,2.33,2.01.48.74-.62,2.92.64,2.85,2.53-.52,2.3,1.76,4.82,1.23-.4,2.45,1.55,2.51,3.09,2.99-.26,2.32.19,3.9,1.34,4.76,3.41-.55,2.27,3.54,5.53,3.14.19-1.23-2.53-3.63-.59-3.77.33,1.12.74,2.16,1.46,2.9,1.29,0,.79-2.34,2.55-1.72,1.53.2.38,3.11,2.27,2.94,3.73.91,6.97-.21,8.2-.44.64-.12,1.86.47,2.44.15.2-.12-.1-1.79.11-1.87,1.2-.46,2.82.57,4.07.24.22-.71.75-1.04,1.68-.83.92-.82.46-3.43,2.61-2.66.03,1.15.11,2.22,1.52,1.97.08-1.68.49-1.49,1.74-1.77,2.48-.56,5.94-1.32,6.62-1.48.43-.1,1.25.33,1.63.1.21-.12-.09-1.79.11-1.86,1.5-.56,4.14-.03,5.76-.59.04-1.28.5-2.03.98-2.75,1.89-.66,4.99.54,6.56-.54.19-.13-.08-1.81.11-1.87,2.06-.59,4.41-.34,7.38-.49.04-1.29.5-2.03.98-2.75,2.45.82,2.49-1.47,4.94-.64-.45-3.61,3.99-.86,3.54-4.47,3.68,1.09,4.07-2.09,7.44-1.42-.65-3.19,3.69-2,5.05-2.5.19-.07-.08-1.79.11-1.87.87-.35,3.07-.41,4.12-.68,1.56-.41,2.72-1.37,4.13-.69-.16-3.81,3.1-2.27,4.3-3.49.22-.22-.14-1.73.11-1.87,1.13-.6,3.1,0,4.12-.69.26-.17-.09-1.57.11-1.86.33-.46,1.87.31,1.68-.84,2.55.62,2.98-1.5,5.76-.58,1.8-2.02,4.43-2.96,8.3-2.31.9,2.95-2.72,5.03-.39,6.52,2.99,1.54,1.72-2.47,4.19-1.62.49-.02.97-.08.87-.89,1.9.11,3.8.23,5.7.34,1.16-3.79,4.55-3.18,7.5-2.35.08-1.25.15-2.49.22-3.73,2.68,2.2,6.3-.2,7.26,1.38.38.62,1.08-.89.87-.89,3.34.06,4.74-.41,6.57-.54,1.26-.09,2.85.6,4.07.25.18-.05-.05-1.7.11-1.86.2-.21,1.33.14,1.62.1,4.38-.6,9.37.43,13.89-.1.65-.08.98-.8.93-1.82,2.55-.54.79,3.28,3.95,2.11.81.29.57-.5.87-.89,1.16-1.47,6.19-.49,7.38-.49.47,0,1.03-.88.87-.89,1.1.04,2.69.98,4.01,1.18,1.15.17,1.84-.85,2.5-.79-.18-.01.41.87.76.98.49.18,1.12.02,1.63.1,9.17,1.45,20.09,1.47,28.48,1.72.78.03,1.07-.91,1.68-.84.42.06.35,1.19,1.57,1.03.05,0,0-.87.06-.93.87-1.08,11.36.55,12.21.74,1.04.24,1.06.93,2.38,1.08,3.98.47,7.64.29,11.39.69,1.07.08.64,1.68,1.51,1.97,6.31.76,12.51.63,17.84,2.01,1.03.27,1.02,1.17,1.52,1.96.15.24,1.36,0,1.63.1,2.09.8,5.1.76,7.27,1.38,0,0,.31.79.76.98,2.48,1.03,2.22.47,3.14,2.06,3.18-.31,3.87,1.9,7.26,1.38.08.92,0,1.61.7,1.91,1.21.52,2.42.81,3.2,1.12,1.32.53,3.62.84,4.02,1.18.39.35-.3,2.15.7,1.91,2.6-.29,2.77,1.86,5.64,1.28.01,1,.07,1.52.7,1.92.89.55,2.62.9,3.2,1.13,1.12.44,2.93,1.33,4.01,1.18-1.02,3.44,3.3,2.65,4.66,4.02.22.22-.22,1.53-.11,1.87.56,1.71,3.16.47,4.02,1.17.59.49-.43,1.78.7,1.92.92.11.34.65.76.98.96.75,2.35.28,3.2,1.13,1.03,1.04-.25,4.04,2.27,2.94-.57,2.92,1.27,3.39.42,6.58.62.24.9.84.7,1.92,2.5-.16,1.81,3.44,2.97,4.86.27.32,1.37-.23,1.63.1.18.24-.34,1.71-.11,1.86.61.42,1.78-.19,2.44.15,0,1.75.34,3.16,1.4,3.84,2.36-.62,3.81.91,4.01,1.18.75.98,2.5,0,3.2,1.12.51.81,3.41-.44,2.33,2.02-1.63-.1-3.26-.2-4.89-.29-1.25-.48-.52-2.98-3.14-2.07-.15,2.19,1.24,2.83.48,5.64,2.58-.28,2.15,2.48,3.02,3.93-2.49,1.21.86,3.71-.39,6.53,3.73-.28.14,6.87,3.68,6.78-.11,1.86-.22,3.73-.34,5.6,1.56,1.37,3.93.99,3.9,3.05-.03,1.93,3.4.94,2.22,3.87-.25,1.59-.93-.09-1.63-.1-.76,0-.64.83-.87.89-1.26.32-3.11-.65-3.37,1.67-.39,2.44,3.12.93,2.22,3.88-1.46-.21-1.96.81-1.79,2.7.1,1.35,1.76,1.13,2.33,2.02.6.94-.77,3.62,1.46,2.9-.16,1.62,0,2.91.59,3.78-.65.17-.99.72-.93,1.81-.52.09-1.11-.22-1.63-.1-.8.19-.64,1.73-.93,1.81-1.38.46-2.03-1.63-2.44-.15-.11,1.87-.22,3.73-.34,5.6,1.64.38,2.05,1.99,3.09,2.99-.13,2.18-.26,4.35-.39,6.53.99.16,1.91.4,1.51,1.96-.99.05-1.94.17-1.74,1.77-2.45-.82-3.02.78-4.94.63-.64-.75-1.58-.42-2.39-1.08-.74-.6-.89-1.27-1.51-1.97,0,1.68-.94,2.14-2.55,1.72-1.07.53-.28,2.66-1.04,3.68-.18.25-1.34-.23-1.63-.1-1.44.63-.85,4.13-1.15,5.55-.99.4-1.9.88-2.55,1.72-.11,1.87-.22,3.73-.34,5.6.81.05,1.63.1,2.44.15-.12,4.37,1.91,3.22.37,7.51.99.17,1.91.39,1.51,1.96-1.62.73-1.08-1.57-1.51-1.96-.89-.82-2.23-.45-3.2-1.13-.03-1.15-.11-2.22-1.51-1.96-1.34-.07-.61,2.56-1.8,2.7-2.02-1.76,1.32-3.49-.59-3.78-2.6.3-2.77-1.85-5.63-1.28.29-3.25-3.06-2.1-3.03-3.93.02-1.22-1.78-1.31-2.33-2.02-.95-1.22-1.01-2.85-2.22-3.87-2.82.24-4.53-.65-6.45-1.33,0-1.47.3-3.23-1.46-2.9.33-2.67.08-4.75-1.29-5.7-.82-.04-.92-.81-1.57-1.03-2.61-.65-5.88.31-8.14-.49-1.26-.45-1.64-2.65-3.14-2.07-.06.93-.11,1.87-.17,2.8-2.6.31-2.77-1.85-5.65-1.27-.13-.74.09-1.85-.7-1.92-2.39-.3-4.88-2.81-6.45-1.32-.74-.58-1.2-2.24-2.27-2.94-.93-.62-3.98-.36-4.82-1.23-.64-.66.35-1.48-.7-1.91-2.44-1-5.01-1.01-8.08-1.43-.91-1.41-3.02-1.6-3.9-3.05-1.91-.68-3.63-1.56-6.46-1.32.36-2.66-.8-.81-1.57-1.03-.22-.06,0-.83-.75-.98-1.51-.3-3.86-.08-5.7-.34-1.08-.07-.64-1.68-1.52-1.96-.55,2.45-2.85,0-4.88-.29-1.76-.25-4.32.16-5.7-.34-.99-.36-.71-1.46-1.51-1.97-.04.63-.08,1.25-.11,1.87-1.69.48-1.45-1.74-2.33-2.02-4.63-1.41-11.8.77-14.54-2.75-.12,1.86-2.29,1.06-1.85,3.63,7.95-.2,11.82,3.76,20.23,3.09-.91,2.97,2.57,1.47,3.09,2.99,1.9.11,3.8.23,5.7.34,1.03.19.7,1.53,1.51,1.97,1.89,1,6.48,1.7,7.21,2.31,1.86,1.54,1.52-.36,4.07.24-.18,3.64,4.19,2.16,5.58,2.21.06,1.1-.3,2.64.65,2.85,2.78-.55,4.83,1.02,5.64,1.28,2.47.77,5.35.08,4.71,3.09-3.25.9-2.81-1.63-3.96-2.11-.96-.4-2.25.07-3.25-.2-1.05-.28-1.06-.98-2.38-1.08-2.32-.18-3.42.82-4.13.68-.34-.06.21-1.83-.7-1.91-1.58-.14-2.64,1.38-4.12.69-.19-1.03-1.05-1.21-1.52-1.97-.47-.77.24-2.51-1.51-1.96-.96.1-.97,1.42-.98,2.75-3.43-.76-5.42.35-8.19.44-.82-.92-.04-3.46-2.27-2.95-2.54-.96-3.14.62-4.18,1.62,0-1.46-.16-1.8-1.52-1.96-.91-.11-.35-.7-.75-.98-.59-.42-1.9.32-2.45-.15-.4-.34.3-2.16-.7-1.91-.16,1.13-.37,2.19-1.74,1.77-1.02-.2-.71-1.53-1.52-1.96-.88-.48-2.69-.99-3.19-1.13-2.29-.65-5.57-.97-8.09-1.43-.14-.73.09-1.84-.7-1.92-2.68-.19-3.96-1.81-7.27-1.37-1.08-.08-.65-1.68-1.52-1.97-3.18-.47-5.94.03-8.95-.54-1.82-.33-3.07-1.77-4.77-2.16-5.43-1.25-10.88.28-17.14-.1-.17,1.47-.09,3.25-1.8,2.71.36-5.11-1.63,2.53-1.57-1.03.02-1.62-3.06-1.25-4.01-1.18-1.14.1-.35,1.55-.93,1.82-1.4.64-6.05-.91-5.86,2.45-3.77-.52-5.54,1.54-9.06,1.33.65,2.85-1.91,1.54-3.36,1.67-.06.93-.11,1.86-.17,2.8-3.13-.69-4.08,1.42-7.38.49-1.61,1.93-3.4,3.63-6.73,3.33.19,2.94-4.14,2.64-5.11,3.44-.21.17.12,1.75-.11,1.86-.93.41-2.29-.5-3.26-.2-.51,1.36-1.34,2.27-1.85,3.63-1.86.51-4.06.48-4.18,1.62-.11,1.06-1.9,1.29-2.55,1.72-.95.62-1.04.9-1.74,1.77-.25.3-1.34-.35-1.63-.1-.74.64-1.91,2.27-1.85,3.63-2.45-.83-2.49,1.47-4.94.64-.57,3.64-2.68,2.06-5.11,3.44-.25.14.13,1.69-.11,1.87-1.01.69-4.28.79-5,1.57-.23.26.16,1.7-.11,1.86-1.11.71-3.02.1-4.12.69-.65.35.22,1.82-.93,1.82-1.44,0-3.56,1.97-4.99,1.58.36,3.6-2.28,1.89-3.43,2.6-.49.3-.16,2.77-.98,2.75-1.09.43-1.8-1.14-2.38-1.08-.06,0-.75,1.73-.93,1.82-.52.24-2.02-.55-2.44-.15-.2.19.11,1.76-.11,1.87-.45.19-1.14-.21-1.63-.1-1.54.34-2.77,1.02-4.18,1.62-.49.2-1.28.84-1.69.84-.91,0-.44.65-.87.88-.76.4-2.44.11-3.31.74-.23.17.14,1.74-.11,1.87-1.42.75-3.43-.16-4.94.64-.12.05.03.82-.06.93-.22.28-1.42-.39-1.63-.1-.18.25.11,1.74-.11,1.87-1.01.54-2.91.06-4.13.68-.65.34.22,1.82-.92,1.82-1.95,0-4.27,2.61-6.62,1.47-.23.73-.13,1.81-.93,1.81-.92,0-.43.65-.87.89-.66.35-2.75-.75-3.25-.2-.17.19.08,1.79-.11,1.86-.87.32-2.35-.19-3.26-.2-.73,0-.68.85-.87.89-2.79.61-5.76.3-7.43,1.42-.03-1.14-.11-2.22-1.52-1.96-.67,1.82-4.81-.87-4.24,2.55-3.51-.87-4.67,1.31-8.19.44-1.79,1.57-4.2,2.1-6.68,2.41-6.76.84-15.39-.56-22.83-.44.13,1.85-1.21,1.79-1.79,2.7-3.87-1.13-8.36-2.24-12.97-1.72-1.08.12-1.17.87-2.5.79-1.02-.06-1.62-.9-3.2-1.13-4.85-.71-10.54.31-13.84-.83-1.2-.42-.54-2.22-2.32-2.01-3-1.54-1.72,2.47-4.18,1.62-1.03-1-1.45-2.62-3.08-2.99-1.53,2.25-4.58-.14-5.7-.34-3.33-.61-5.04-1.51-8.08-1.43-1.07-.07-.64-1.68-1.51-1.96-2.7.54-5.03-1.02-5.64-1.28-2.48-1.03-2.23-.47-3.14-2.06-5.17,0-8.14-2.24-12.9-2.65.83-3.47-4.28-.9-2.97-4.86,3.25-.87,2.81,1.58,3.95,2.11,2.27,1.04,3.85,1.09,7.27,1.38.09.89-.04,1.65.7,1.91,5.31,1.92,14.23.73,21.91,2.26,1.05.21,1.09.89,2.38,1.08,2.38.35,4.34.1,6.52.39-1.47,3.24,2.73.73,2.27,2.94-1.57.32-4.83-1.57-4.18,1.62,1.9.11,3.8.23,5.7.34.11-1.28-.26-2.07-.65-2.85,6.78.41,13.56.82,20.34,1.23-.43,3.01,6.45,6.15,6.4,2.26.75-2.06-6.33-.41-3.14-2.06,2.68-.46,4.53,1.13,6.51.39.66-.25,1.22-1.83,1.74-1.76.08.01-.19,1.74-.11,1.86.33.49,2.02-.25,2.44.15.81.3.57-.49.87-.89,1.91-2.43,9.85,0,13.89-.09.99-.02,1.26-.67,2.5-.79,4.29-.43,9.77.6,12.26-.2.39-.12.2-2.97,1.74-1.77.82.05,1.63.1,2.44.15,1.06.13.67,1.61,1.52,1.96.83.34,2.41-.03,2.5-.78.08-1.54-2.22-.66-2.33-2.02,2.49,1.23,2.06-1.34,3.36-1.67-.63,2.39.13,3.38,2.27,2.94.02-1.47-2.03-.85-1.46-2.9,3.25-1.11,9.11-.57,10.75-2.16,1.54-1.5,5.11-1.73,5.86-2.46,1.65-1.61,3.79-.84,5.05-2.5,2.34-.63,2.03,1.44,4.01,1.18.82-.95,3.02-.11,2.61-2.65-2.34.63-2.03-1.44-4.01-1.18-1.31,1.66-3.37,0-4.94.64-.22.09.07,1.67-.11,1.87-.56.59-2.62-.69-2.5.79-1.9-.11-3.79-.23-5.69-.34-.04,1.28-.51,2.03-.98,2.75-4.24-.8-6.26,1.27-10.64.29,0,2-.93,1.72-2.55,1.72-.58,0-.87.89-.87.88-3.54.27-8.09.15-9.82.35-1.73.19-3.99-.57-4.88-.29-.19.06.06,1.69-.11,1.86-1.88,1.91-7.71-1.99-9.77-.59-.9-.14-1.35,1.28-1.63-.1.81.3.57-.5.87-.88,1.48-1.88,3.79.06,5.75-.59.19-.07-.06-1.69.11-1.87,1.43-1.46,5.64,1.45,7.32.44.07-3.36,6.4-1.62,7.5-2.36.18-.12-.07-1.82.11-1.87,2.44-.64,5.38-.1,8.19-.44.11-1.54,2.29-.39,2.55-1.72.07-1.24-1.37-.94-1.51-1.97,1.12.03,1.76.55,2.38,1.08,2.22-.67,5.09.51,7.38-.49.17-.07-.06-1.82.11-1.86,1.85-.52,5.34.55,4.29-3.49-1.28,0-.78,2.34-2.55,1.72.34-3.65,3.81-2.51,5.81-1.53-.96-1.16-.42-3.92,1.86-3.63.13,1.84-1.21,1.78-1.8,2.7,1.46.25,2.48-.18,3.31-.74,2.9-1.94-1.57-1.7-.64-2.85.17-.21,1.35.16,1.63.1.86-.19.38-.56.87-.89.53-.35,1.13-1.44,1.74-1.77-1.75-.59-4.72,1.24-4.99,1.57-.26.31-2.19.58-2.5.79-1.82,1.23-3.45,0-5.75.59-.15.04.04,1.82-.11,1.86-1.5.42-3.36-.54-4.89-.29-1.1.18-1.57,1.27-2.55,1.72-1.33.61-3.42-.71-3.37,1.67-5.8-.82-8.79,2.02-14.76.98.51,2.99-2.12,1.49-3.36,1.67-1.07.15-1.19.74-2.5.79-2.19.09-4.09-1.26-5.7-.34-.84.49-1.02,1.18-1.74,1.77.99-2.75-1.72-1.76-3.14-2.06.35-1.2-1.22-.55-1.57-1.03-.55-.75.16-3.92-2.27-2.94-4.58,1.89-8.32-1.2-13.02-.78-3.18.28-3.63.03-6.51-.39-5.12-.75-10.89-.33-17.08-1.03-.64-1.18-2.06-.34-3.2-1.12-.81-.57-.85-1.31-1.51-1.97.82,3.08-2.68.55-1.86,3.63,1.36.08,2.71.16,4.07.25-.27,2.02.49,3.01,2.27,2.94,1.26-1.7,3.44.08,4.94-.64.48-.23.13-2.88,1.74-1.76,2.43.77,6.1-.46,8.13.49.94.44.76,1.4,1.52,1.96.81-4.08,3.02-.26,4.88.29,2,.59,3.67-.12,5.7.34.23-.71.13-1.84.93-1.81-1.39,4.92,4.65,2.28,7.16,3.24.52,3.02-2.73,1.63-3.37,1.67-1.75.1-3.66-.34-4.88-.29-2.74.09-2.41.34-4.07-.24-4.19-1.48-8.77,1.04-9.77-.59-.37-.61-1.09.87-.87.89-1.53-.12-1.74-1.02-3.19-1.13-5.24-.41-11.11-.6-17.9-1.08-1.08-.08-.64-1.68-1.52-1.96-3.89.46-5.53-1.39-8.89-1.47-.14-.73.09-1.84-.7-1.91-2.76,1.23-7.6-1.92-12.15-1.67-.36-1.96-1.38-3.27-3.03-3.93-2.56.52-4.23-1.02-4.83-1.23-.44-.15-1.24.18-1.63-.1-.15-.1-1.26-3.1-2.33-2.01-.95.96-.32.32-1.63-.1-2.36-.77-4.64-1.67-7.27-1.38.72-2.48-1.57-1.9-2.27-2.94-1.89-.11-3.79-.23-5.69-.34-.74-1.01-1.49-1.98-2.27-2.95-3.4.53-4.09-1.68-7.27-1.38-.89-2.59-3.87-3.07-7.15-3.24-.74-1-1.49-1.98-2.27-2.94-1.83-.33-3.97-.41-5.64-1.28-.56-.29-.5-1.84-1.52-1.96-.87-.11-.39-.77-.75-.98-1.58-.94-3.71-.46-4.82-1.23-.47-.32.03-1.48-.7-1.91-1.73-1.02-4.8-.43-4.77-2.16.02-1.72-3.78-1.76-4.77-2.16-.74-1.29-1.17-2.89-2.22-3.87-3.56,1.41-3.4-2.58-4.72-3.09-1.02-.4-1.88.56-2.5.78,0-1.75-.34-3.15-1.4-3.82-3.2.13-5.77-2.93-6.62,1.47.62.25,1.6.12,1.57,1.03-2.66.66-1.54-2.52-3.09-2.99-2.66-.22-2.95-2.84-6.4-2.26.14-1.6-.48-2.43-1.46-2.9-1.61.18-1.54-1.36-2.33-2.02-.09,1.56-.19,3.11-.28,4.67,1.94.95,3.4,2.38,6.39,2.26-1.28,4.04,2.25,1.93,2.22,3.87-.03,2.18,2.3,1.99,3.09,2.99-.89,2.95,1.07,2.99,2.22,3.88-.83,2.6,1,2.49.53,4.71,2.85.61,5.04,1.88,5.41,5.01-3.8.36-2.21-4.77-6.28-4.12-.22-1.22-.89-2.04-1.46-2.9-.84-1.25-1.74-2.15-2.27-2.95-2.59.29-1.67-2.97-4.77-2.16.24-1.71-.84-2.06-1.46-2.9-.79-1.08-1.57-1.67-2.27-2.94-4.18.16-2.5-5.64-7.05-5.11.64-2.4-.12-3.37-2.27-2.94.56-2.61-.65-3.74-1.4-3.83-1.16-.14-.21-1.14-.7-1.91-.16-.26-1.52.18-1.63-.1-.28-.76.38-2,.17-2.8-3.55.39-3.75-3.37-5.41-5.01-.33-.32-1.29.21-1.63-.1-.62-.57.25-1.42-.7-1.92-.46-.24-1.15.1-1.63-.1-.74-1.28-1.17-2.89-2.22-3.88-2.58-.3-3.45-2.33-6.39-2.26.25-3.47-3.46-2.91-6.34-3.19.36-2.22-.88-1.5-2.33-2.01-2.48-.88-4.88-3.13-8.03-2.35-1.05-.13-.66-1.61-1.51-1.97-3.71-1.53-9.16-.89-13.78-1.77-1.25-.47-.52-2.97-3.14-2.07-1.42-1.03-1.38,1.58-1.74,1.77-1.66.9-4.22-.17-5.75.59-.42.21-.39,2.42-.98,2.75-.87.47-2.33-.54-3.26-.2,1.12,4.46-3.89.98-2.78,5.45-2.64-.4-3.98.87-4.29,3.49-3.15-1.06-2.25,3.12-5.81,1.52.97,3.6-2.34,1.66-1.91,4.57-1.08-.06-2.17-.13-3.25-.2-1.1,1.44-.66,3.63-1.86,3.63-1.39,0-2,2.04-2.61,2.65-.45.44-1.25.36-1.68.84-.51.55-.45,2.26-.98,2.75-.79.72-2.56-.03-3.31.73-.24.25.16,1.7-.11,1.87-.94.6-2.8.68-4.13.69-.03,1.63-.35,2.89-1.03,3.68-.82-.05-1.63-.1-2.44-.15.71,2.35-2.27,2.56-3.48,3.53-.29.23.16,1.59-.11,1.87-.27.28-1.28-.27-1.63-.1-.35.17-1.29,1.68-1.63-.1,1.06.29.48-1.3.93-1.82.51-.6,2.32.26,1.74-1.76-1.28-.17-2.83-.05-2.33-2.01-.13-1.63,1.78-.22,2.5-.79.39-.32.61-2.33.98-2.75.67-.76,2.14-.61,2.55-1.72.33-1.25,1.27-1.71,1.04-3.68,2.53.61,2.02-2.75,4.99-1.57.06-3.61,3.93-2.28,3.65-6.33,2.56.97,2.63-1.29,3.42-2.6-1.07-.08-.65-1.68-1.51-1.97-1.01.05-1.95.17-1.74,1.77-3.97-2.13-1.44,4.17-3.54,4.47-.78-5.32-2.86,2.23-4.99,1.57-.06.93-.11,1.86-.17,2.8-2.6,1.32-4.99,2.93-6.85,5.2.43,2.91-2.34,1.66-1.91,4.57-2.65,1.13-2.73.04-5.69-.34.02,1.67-.42,2.82-1.04,3.68-.53.73-1.81.21-2.5.78-.27.22.16,1.67-.11,1.87-.93.64-2.27.42-3.31.73-.22.07-.24.71-.87.89-.76.21-1.67-.31-2.44-.15.1,2.47-1.31,3-3.42,2.61.05,1.75-1.1,1.91-1.79,2.7-.72.81-1.7,1.1-1.79,2.7-2.26-.91-2.19,1.19-4.13.69.63,3.95-1.93,2.68-3.48,3.53-.57.32-.04,1.48-.93,1.81-.72.28-1.7-.36-2.44-.15-1.06-3.39,2.8-.39,2.61-2.65-.98-2.19,2.31-3.38.22-3.73-2.84.48-4.91-.19-6.73,3.34,3.76.3-.08,4.24.42,6.58-1.9-.11-3.8-.23-5.7-.34ZM916.72,361.19c1.36.08,2.71.16,4.08.25,1.13-2.03,2.8-3.89,4.4-5.35.75-.69,1.49-1.43,2.55-1.72.22-3.07,3.61-2.02,3.59-5.41,2.46.83,2.49-1.46,4.94-.64-.52-2.67,1.29-2.34,1.1-4.61,2.62-.92,1.89,1.58,3.14,2.06,2.76.56,2.61-2.64,4.29-3.48,1.16.28.12,2.8,1.46,2.9-.28,2.19-1.74-1.61-3.31.73-.14,1.6.15,3.42-1.04,3.68-.36.09-1.34-.34-1.63-.1-.28.23.16,1.64-.11,1.87-.55.46-1.96.25-2.5.78-.59.57-.7,2.61-1.86,3.64-.31.28-1.33-.4-1.63-.1-.29.29.17,1.58-.11,1.86-1.51,1.46-3.87.51-3.49,3.54-1.67-.5-2.19.51-3.31.73-.12,2.2-1.57,2.66-1.15,5.55,1.03-.24,1.83-1.12,2.55-1.72.38-.31,1.47-1.63,1.74-1.76.54-.27,2.01.56,2.45.15.86-.81.03-5.3,2.67-3.59.4-2.17,1.21-3.8,1.97-5.5,2.44.82,2.49-1.47,4.94-.64-.2-2.27,1.61-1.94,1.09-4.62,2.81-.37,5.97-.31,5.98-4.32,2.08.02,4.19.08,4.23-2.55-1.89-.41-3.25-2.03-4.88-.29.09-1.56.19-3.11.28-4.66-1.38-.81-2.01.56-2.5.78-.36.16-2.09.43-2.5.79-.28.25.18,1.62-.11,1.86-.37.31-1.37.46-1.68.84-.6.73-.12,2.4-1.74,1.77-2.34-.94,1.2-2.28.28-4.66,1.54-1.12,1.32,1.93,1.51,1.96,1.21.23,1.87-2.55,1.96-5.5-.74.21-1.72-.43-2.44-.15-.85.33-.38,1.53-.92,1.82-.82.42-3.93-.42-4.24,2.55-.12,1.1-3.46,1.78-3.54,4.46-1.94-.5-1.87,1.6-4.13.68-.52,4.02-2.29,6.42-6.08,6.19-.47,1.23-.58,5.8-2.02,6.44-.33.14-1.4-.37-1.63-.1-.58.64-.29,2.26-.98,2.75-.99.68-2.13.36-3.31.73-.06.93-.11,1.87-.17,2.8-1.62-.41-2.56.04-2.55,1.72-3.19-1.12-2.62,2.64-5.81,1.53.55,3.38-1.5,1.49-3.42,2.6-.26.14.14,1.66-.11,1.86-.72.6-1.84.15-2.5.79-.73.7-1.24,1.76-1.79,2.7-1.83-.26-2.77,1.56-4.99,1.57-2.34.01-1.06,1.51-3.42,2.61-2.84-1.87,1.59-2.49,1.1-4.62,3.6,1.32,2.06-4.03,5.86-2.45.83.02.49-2.44.98-2.75,1.14-.71,3.78,1,3.42-2.6,2.32-.02,3.5-1.51,5.81-1.53-.42-3.22,3.38-.98,2.72-4.52,1.89,1.51,2.4-1.24,3.37-1.67.31-.14,1.41.35,1.63.1.24-.28-.16-1.67.11-1.86.84-.6,2.58,0,3.31-.74.81-.83-.59-2.75.98-2.75,1.3,0,1.45-.54,2.5-.79.06-.93.11-1.87.17-2.8,1.96.55,2.1-.21,2.55-1.72.55-1.84,3.33.5,2.67-3.59,1.59-.32,3.06-.82,4.99-1.57.56-.22.89,0,.87-.89,1.46-3.23-2.73-.72-2.27-2.94.02-2.66,5.25,1.44,4.24-2.55-.76.53-1.53,1.03-1.63-.1-4.15.66-8.17,1.47-13.13,1.08-.43,4.25-7.4.15-9.29,5.06-1.47.05-1.65-1.28-3.2-1.13-.07,0,.98,1.77.7,1.91,0,0-2.3-1.15-3.2-1.12.08,0-.35.88-.87.88-.81,0-1.63-.14-2.44-.15.14,1.52-.87,1.57-.98,2.75-4.28.49-7.04,2.94-11.62,3.05-.08,1.25-.15,2.49-.23,3.74-2.12-.37-2.55-2.09-2.55,1.72-1.53,1.1-1.31-1.93-1.51-1.96-.72-.14-1.38,2.22-1.79,2.7-.52.57-2.23-.13-1.74,1.76-2.31.02-3.49,1.51-5.8,1.52.83,3.76-2.8,1.75-1.97,5.5,2.47,1.5,4.24-5.13,4.13-.69,2.73.52,1.53-4.05,5.05-2.5-.57-1.15.9-1.58.92-1.82.04-.45-.58-1.39-.75-.98.46-1.05,1.68-1.28,2.6-2.65,2.36.95-1.97,1.28-1.03,3.68,2.47.85,1.72-2.47,4.18-1.62-.43-2.91,2.88-.96,1.91-4.56,1.08.07,2.17.13,3.26.2.95.2.58,1.74.65,2.85,1.92-.19,3.14-1.29,5.75-.59-.96-3.6,2.35-1.66,1.91-4.57,1.35-1.4,4.23-1.45,5.93-3.39.07,1.6-1.53,2.34-.17,2.8-.44,1.34-.71-.13-1.63-.1-.43,2.46-2.33,3.02-4.3,3.49.84,5.66-3.14,6.2-5.97,4.32,0,1.68-1.11,1.91-1.04,3.68-2.89-.06-5.21.62-5.92,3.39-3.24-.5-4.62,1.39-8.19.44.82,4.08-3.94.92-3.53,4.46-1.15-.15-2.3-.29-2.5.79-2.16.14-.42-3.66-3.09-2.99.65,2.85-1.91,1.54-3.37,1.67-.48.72-.94,1.46-.98,2.75-1.29,1.01-2.15,2.57-4.24,2.55.02,1.81-.43,2.65-1.03,3.69-.95,1.61-2.14,1.43-3.43,2.6-.55.5-.15,2.57-1.74,1.77-.31,3.62-4.17,2.65-4.46,6.28-1.96.5-3.37-.22-4.94.64-.7.38-.33,4.29-3.42,2.6-.01,1.33-.03,2.65-.98,2.75.28,1.38.71-.05,1.63.1,1.61.41,2.56-.04,2.55-1.72,1.83,1.53,5.1-.48,7.38-.49,1.31,0,1.45-.55,2.5-.79,1.26-.27,1.66-.09,1.74-1.77,1.63.1,3.26.2,4.89.29,1.29-3.34,4.11-4.73,8.42-4.17-.14-1.52.86-1.56.98-2.75,1.17-.4,2.95.8,4.07.24.25-.13.76-1.78.93-1.81,2.08-.52,4.13.24,6.56-.54.06-.93.11-1.86.17-2.8,1.09.07,2.17.13,3.26.2.95.21.58,1.74.65,2.85,2.97.49,4.26-1.18,5.11-3.44.95-.31,2.34.63,3.26.2.24-.11-.11-1.68.11-1.87.17-.14.64.19.82.05.21-.17.79-.84.87-.89,1.03-.62,2.3-.03,3.31-.73.81-.56.25-4.16,3.42-2.6.8-3,3.83-3.09,4.46-6.28,2.25.91,2.19-1.19,4.12-.69-.44-2.9,2.34-1.66,1.91-4.57ZM963.27,334.03c-1.36-.08-2.71-.16-4.07-.25-.39,1.58.53,1.81,1.51,1.97-.19,1.09-1.53.7-2.5.79.07,1.09-.28,1.65-.92,1.82.18,1.28,1.99.89,3.19,1.12.22-2.74,3.22-1.86,2.78-5.45ZM94.51,73.84c-.19.78.26.9.76.98,1,.95,1.09,2.46,1.4,3.83.31,1.31,1.15,2.63.53,4.71,2.55-.55.79,3.28,3.95,2.11.2-.78-.26-.9-.75-.98-2.07-1.15-.46-4.81-1.24-6.62-.13-.3-1.45.18-1.63-.1-.63-1.01-.29-3.91-3.03-3.93ZM82.53,96.53c3.77.16.43-4.22,1.21-6.48-.82-.05-1.63-.1-2.44-.15.06-.93.11-1.86.17-2.8-.62-.09-1.48,2.7-1.04,3.68.04.08.81-.03.82.05.2,1.9-.05,4.72,1.29,5.69ZM1172.13,445.86c-1.08-.07-2.17-.13-3.26-.2-.85,3.55,3.68,3.83,3.26.2ZM1183.41,448.41c1.23-2.88-6.56-3.35-5.7-.34.1.15,2.55,1.93,3.2,1.13,1.03-1.27,1.46.34,2.5-.79ZM1197.19,450.18c-.47-.98-1.81-1.08-1.46-2.9-2.05.26-.88,4.24,1.46,2.9ZM1270.2,431.17c-2.51,1.32,2.92,1.22,1.74-1.76-1.23-1.61-5.04-1.43-4.99,1.57,2.57,1.32.8-2.98,3.36-1.67,1.01.29.71,1.9-.11,1.86ZM843.93,403.61c-1.71,1.46-1.03-.15-3.26-.2-1.44,2.73,4.35,3.08,3.26.2ZM1155.63,421.46c.48,2.14,4.55.64,6.46,1.33-.48-2.14-4.55-.64-6.46-1.33ZM868.2,393.84c1.06-.64,3.11-.13,4.13-.69.26-.14-.13-1.66.11-1.87.68-.57,1.82-.29,2.5-.79.71-.51.81-1.56,1.74-1.76.08-.61-1.01-1.15-1.57-1.03.05,0-2.45.73-2.5.79-.2.26.13,1.72-.11,1.86-1.43.84-5.53-.32-4.3,3.49ZM1223.43,407.76c1.08-2.45-1.82-1.21-2.33-2.01-.73-1.17-.39-.03-1.63-.1-.65-.04-.77-.95-1.57-1.03-1.14-.12-2.5.58-4.13.69-2.12.14-4.28-.63-5.69-.34-1.33.26-.88.21-1.69.83-.41.31-.77,1.14-1.68.84-2.31,0-1.73-2.92-3.9-3.05-6.68,1.97-12.76-1.03-18.77-.19-1.77.24-1.68,1.59-3.37,1.67-.62.03-6.02.39-6.51-.39-.73-1.16-.38-.03-1.63-.1-3.43-.19-6.24-.39-9.77-.59-1.41.26-1.49-.82-1.52-1.96-2.18-.82-1.74,1.76-3.36,1.67-.79-.08-.56-1.18-.7-1.91-1.1.12-1.75,3.78-1.63-.1-2.57-1.31-.8,2.98-3.37,1.67-1.08-.07-2.17-.13-3.26-.2-1.84.4-1.05-1.86-2.33-2.01-6.03.61-10.59-3.05-15.46-.93-.53,3.07,2.2,2.3,4.72,3.09,1,.31,4.81,1.98,8.08,1.43,1.84-.4,1.05,1.85,2.33,2.01.71.63,3.57-.55,4.07.25.8,1.29.23.01.81.05,5.23.41,10.38,2.33,17.03,1.96,2.92-.16,8.07-1.28,13.08-.15.24.06,1.5-.11,1.63.1,1.04,1.66,3.56-.73,7.32.44.65.21.76,1,1.57,1.03,1.39.06,3.63-.62,4.94-.64,2.35-.02,6.35,1.87,6.62-1.47,1.84-.4,1.05,1.85,2.33,2.01,1.36.08,2.71.16,4.07.25,1.74.44,1.3-1.46,2.55-1.72,4.35-.89,10.1,1.72,13.13-1.08ZM1116.94,399.47c.46-2.22-3.73.29-2.27-2.94-4.2.48-5.83-1.67-9.7-1.52-.42,2.46,4.6-.6,3.08,2.99,3.75-.3,4.97,1.96,8.89,1.47ZM1097.7,393.63c-.03.91.95.78,1.57,1.03.82.05,1.63.1,2.44.15.26-2.01-2.86-.6-4.01-1.18ZM1247.7,397.98c-.79-.02-.69,1.1-.93,1.82-1.21-.95-2.21.75-2.5.79-1.5.19-5.44-1.7-4.99,1.57.96-.1,1.44.29,1.57,1.03,2.15-.54,4.39-.63,5.86-2.45.49-.6,1.16-1.27.98-2.75ZM1248.4,399.9c1.63,1.09,1.24-1.5,1.74-1.77,1.1-.59,3.04.78,4.12-.69-.15-1.9-1.54-.1-1.63-.1-1.85.11-5.23-1.25-4.24,2.56ZM954.15,336.3c-.33,1.65.66,1.96.76.98.27-1.34,2.45-.19,2.55-1.72-1.68-.5-2.19.51-3.31.74ZM1117.29,339.57c3.2-1.43-3.17-.12-2.33-2.02-.02-2.03,2.91-.25,4.12-.68,1.16.86,1,3.07,1.34,4.76.64-.93,3.06-3.66,2.39,1.08,1.19-.82,1.68-1.11,3.26.2,0,0,1.13,1.07.76.98,1.21.3,1.22-.81,1.68-.83.46-.02.99.85,1.57,1.03.76.25,1.7-.14,2.44.15,1.05.41,1.19,1.71,2.33,2.02,1.04.28,2.2-.03,3.26.2,1.22.26,1.38.92,2.38,1.08,1.79.29,9.76-.66,10.58.64.04.06-.09.93-.06.93.5.06,1.1-.81.87-.89,1.9.67,4.03,4.46,4.88.29,2.02.22,2.41,1.9,4.07.25-.06-.81-.81-2.52-2.22-3.88-.73-.71-3.16-.23-3.14-2.07.03-1.82-1.01.99-1.68.84-.95-.21-.58-1.74-.65-2.85-1.43-.3-4.13.7-3.14-2.06-2.87.57-3.04-1.58-5.64-1.28.47.98,1.82,1.08,1.46,2.9,1.51.22,2.68.78,3.14,2.06-1.84,3.52-2.02-.98-3.14-2.06-.29-.28-1.25.04-1.63-.1-.93-.35-1.84-4.12-3.95-2.11.27-.56,2.24-3.47.22-3.73-1.71-.54-1.63,1.24-1.79,2.7-.9-.84-2.11-1.36-4.01-1.18-.39,2.44,3.11.93,2.22,3.88-1.77.83-1.03-1.57-1.51-1.96-.35-.28-1.22.04-1.63-.1-1.15-.41-1.9-.44-5.64-1.28-.25-.05-1.5.1-1.63-.1-.48-.75-.94-.44-2.44-.15-1.1.22-2.34-.57-2.5.79-1.6-2.38-5.38-1.24-8.02-2.36-.89-.37-.64-2.41-2.33-2.01.34,2.45-.53,3.34-2.6,2.65.06,4.31,5.98,2.68,8.72,4.27ZM1190.13,350.52c-.82-.08-.19-2.49-.65-2.85-.57-.45-1.85.28-2.44-.15-1.07-.76-.77-2.8-3.95-2.11-.21,4.31,3.17,4.96,7.04,5.11ZM1172.56,343.83c.35,1.47.84.12.87-.88-1.61-.11-.88-2.61-3.14-2.07.16-2.48-2.45-2.18-2.16-4.81-1.57.32-4.83-1.56-4.18,1.62-1.36-.08-2.71-.16-4.07-.24-2.67,1.13,2.82,1.1,4.01,1.18,1.19.48-.39,1.17-.17,2.8,3.7,2,6.61-.5,8.84,2.4ZM682.94,310.59c.76-.68,1.9-.89,3.31-.74.36-1.63-4.46-1.94-3.31.74ZM687,310.84c.55.03,1.09.07,1.62.1.04-.62.08-1.25.11-1.87-.54-.03-1.08-.06-1.62-.1-.04.62-.08,1.25-.11,1.87ZM1090.24,327.64c-.59.92-1.93.85-1.8,2.7,2.87-.58,3.04,1.58,5.64,1.28.79.07.57,1.18.7,1.91.96-.09.79-1.66.98-2.75,2.21-1.28,1.7,2.36,2.27,2.94,1.11,1.13,2.83,0,3.14,2.07,2.6-1.07,2.31.39,5.7.34.39-2.15.08-3.59-.53-4.72-1.9-.75-5.67.96-5.64-1.27.03-2.27-1.04.93-.87.88-1.08.31-2.25-3.82-4.77-2.16-.04.62-.07,1.24-.11,1.86-.95-.21-.58-1.74-.65-2.85-1.15-.58-4.27.83-4.01-1.18-.94.12-.51.91-.06.93ZM1176.1,339.37c.81.05,1.63.1,2.44.15.06-.93.11-1.86.17-2.8-.81-.05-1.63-.1-2.44-.15-.06.93-.11,1.86-.17,2.8ZM1227.59,338.73c-.93-.78-1.47.83-1.68.84-.66,0-.75-1.09-1.57-1.03-1.16.08-2.18.25-3.31.74-1.08.46-1.8-.05-1.74,1.76,4.32-.84,8.02,3.74,8.31-2.31ZM1231.82,336.17c.63,3.16-1.31,2.99-3.42,2.6.93,2.51,4.63.58,5.69.34.51-.12,1.14.26,1.63.1.2-.07-.08-1.75.11-1.86,1.55-.89,6.91-.5,6.74-3.34-1.62-.42-2.56.04-2.55,1.72-3.24-.5-4.62,1.39-8.2.44ZM993.24,324.61c.82.05,1.63.1,2.45.15.57-2.04-1.48-1.42-1.46-2.9-.96.09-.79,1.66-.98,2.75ZM984.52,320.33c2.31.33,4.43.39,4.23-2.55-2.15-.1-5.05-1.18-4.23,2.55ZM1083.79,326.32c1.41-3.47-3.62-.4-2.22-3.88-.57,1.26-3.14-.05-3.37,1.67-.87,3.51,3.78,1.42,5.58,2.21ZM1225.6,331.12c-1.03-.99-1.45-2.61-3.09-2.99-3.59.72-8.28,0-9.23,4.13,2.17.13,4.34.26,6.51.39.8.65.71,2.2,2.33,2.01-1.05-3.66,7.16-.73,9.87-1.27-.26-1.49-2.51-.95-1.4-3.83-1.76.34-1.47-1.43-1.46-2.9-1.05.99-1.64,2.57-4.18,1.62.38.78.76,1.57.65,2.85ZM1245.24,330.43c.69-1.46,3.97.45,3.42-2.6,2.55-.55,1.41,2.66,3.96,2.11-.65-3.18,2.62-1.3,4.18-1.62.09-1.56.19-3.11.28-4.66-1.71-.55-1.63,1.23-1.79,2.7-.79-.07-.57-1.18-.7-1.92-1.91.19-3.12-.34-4.02-1.17-.59.84-3.18-.24-4.13.68-.22.22.14,1.73-.11,1.87-.65.35-1.75-.42-2.44-.15-.78,2.83,2.73,1.3,1.35,4.76ZM1243.78,327.53c-1.29-1.56-5.6-1.35-5.8,1.52,1.99.6,4.91.26,4.71,3.09,1.75.27.57-3.28,1.09-4.61ZM1191.28,317.82c-.38-.78-.76-1.56-.65-2.85-.99.73-2.25,1.1-4.12.69.92,1.4,2.69,1.94,4.77,2.16ZM1185.7,315.6c-.48-2.29-6.53-5.24-6.51-.39,3.02-.51,4.38,2.57,6.51.39ZM1212.07,311.58c-.37-1.15-.71-2.11-1.46-2.9-.77-.8-1.74-.34-4.02-1.17-.72-.27-.4-1.81-.7-1.92-1.25-.45-2.79.11-4.07-.25-1.09-.36-.53-2.38-.59-3.78-4.07.34-4.12-3.4-8.84-2.41-.87-.28-.44-1.88-1.51-1.96-2.56-.98-1.3,3.01-3.42,2.6.14,1.36,2.35.48,2.33,2.02-.01.89.94.8,1.57,1.03,1.04.36.9,1.26,1.52,1.96.28.32,1.37-.24,1.63.1.17.23-.32,1.73-.11,1.87,1.02.61,1.59-4.22,1.63.1,2.17.13,4.34.26,6.51.39,1.3-.24.14,2.32.65,2.85.59.59,2.74-.48,3.26.2.56.71.55.67,1.57,1.03,1.34.47.96.7,4.07.25ZM1212.83,312.56c.54.03,1.08.07,1.63.1.04-.62.08-1.25.11-1.86-.54-.03-1.08-.07-1.63-.1-.04.61-.07,1.24-.11,1.86ZM1125.06,305.4c3.39.31,4.54-1.56,3.54-4.47-.97-.26-.49,1.4-.93,1.82-.67.64-3.42-.12-2.61,2.65ZM1117.1,302.11c-2.48,1.49,1.61.95.98-2.75-.02-.18-1.49.06-1.63-.1-.38-.43.46-2.27.17-2.8-2.56-1.31-.8,2.98-3.37,1.67-.68,3.32,4.86.32,3.85,3.98ZM1157.14,301.72c-.06,1.33,1.59.56,2.38,1.08.76.5.52,1.72,1.51,1.97,1.71.53,1.63-1.24,1.79-2.7,1.29-.18.13,2.24.65,2.85,1.66,1.95,4.92-.65,8.14.49,1.03-4.56-5.87-5.03-8.73-4.27-.03,0-.02.93-.06.93-2.38-.05-4.65-2.11-5.69-.34ZM1105.82,299.56c-.92-1.4-2.69-1.94-4.77-2.16-.72-.74-1.13-1.77-1.46-2.9-2.63.05-3.34-1.85-6.46-1.33-.73-1.33-1.51-1.76-3.08-2.99-.32-.24-1.38.23-1.63-.1-.18-.24.34-1.71.11-1.86-.62-.42-1.78.2-2.44-.15-1.39,3.46,2.13,1.93,1.35,4.76,2.02,1.45,6.43.47,6.28,4.13,4.92-.04,7.17,2.64,12.09,2.6ZM1201.89,304.42c.81.05,1.63.1,2.44.15-.82-.93-.04-3.46-2.27-2.95-.06.93-.11,1.87-.17,2.8ZM1110.81,297.99c.51-2.65-2.64-2.34-3.91-3.05-.62-.34-1.59-.56-2.38-1.08-.43-.28-1.36-1.9-1.51-1.96-.38-.14-1.56.92-2.5.79.29.04-.51-.89-.76-.98-.5-.18-1.11.05-1.63-.1-1.3,2.78,1.89,1.38,3.14,2.06.96.53,1.23,1.69,2.33,2.02,1.26.37,2.85-.25,4.07.24,1.32.54,1.4,3.52,3.15,2.07ZM676.46,269c.96-.09.79-1.66.98-2.75-3.66.51-4.81-1.54-8.07-1.42-.79-.07-.56-1.18-.7-1.91-3.05-.1-2.38.9-4.89-.29-1.59,3.19,4.69,1.64,4.66,4.03-.04,2.63,6.19-.46,8.02,2.35ZM678.14,268.17c.81.05,1.63.1,2.45.15.04-.61.07-1.24.11-1.86l-2.45-.15c-.04.63-.08,1.25-.11,1.86ZM1154.98,296.9c.1-1.45-.42-2.64-1.46-2.9-1.32-.32-1.45.84-2.5.79-.65-.03-2.12-2.08-2.44-.15-.72,3.65,4.4,1.37,6.4,2.26ZM1207.86,300.09c.55.03,1.09.07,1.63.1.04-.61.07-1.24.11-1.86-.54-.03-1.08-.07-1.63-.1l-.11,1.86ZM1186.12,295.04c.96-2.92-1.3-1.41-3.14-2.07-.64-.23-3.62-1.91-6.46-1.32-1.19,2.95,2.59.87,1.4,3.82,2.51-.43,6.94,1.63,8.2-.44ZM1187.69,296.06c.82.05,1.63.1,2.44.15-.82-3.08,2.68-.55,1.85-3.63-1.35-.08-2.71-.16-4.07-.25-.07,1.24-.15,2.48-.22,3.73ZM1199.08,296.75c.54.03,1.08.07,1.63.1.04-.61.07-1.24.11-1.86-.54-.03-1.08-.07-1.63-.1-.04.62-.08,1.25-.11,1.86ZM807.1,269.39c2.74-1.15,5.81-1.87,7.61-4.22.12-.94-2.53-.52-3.26-.2-.22.1.11,1.73-.11,1.86-1.24.68-5.46-.1-4.24,2.55ZM712.88,260.9c.82.05,1.63.1,2.44.15.04-.63.08-1.25.11-1.86l-2.44-.15c-.04.61-.07,1.24-.11,1.86ZM723.63,258.74c.22,2.1,3.98.61,5.63,1.28-.23-2.11-3.99-.63-5.63-1.28ZM730.9,260.12c.54.03,1.08.07,1.63.1.51-1.97-1.05-1.85-2.33-2.02.11.76.76.98.7,1.92ZM734.15,260.31c4.15-.43,4.11-.65,7.33.44.76-1.95-1.01-1.31-1.51-1.97-.51-.66.16-2.5-1.52-1.97-1.67-.99-1.19,1.37-1.74,1.77-1.01.72-3.01-.82-2.55,1.72ZM1108.54,267.89c-1.81-.49.76-5.44-3.02-3.93-.21-1.61.74-1.72,1.74-1.77-2.64-4.42-3.54,5.23-2.02,6.44,2.05-.68,5.58-.6,5.53,3.14,2.05-1.79,3.67,2.16,4.18-1.62,2.17.99-1.31,2.85-.34,5.6,1.76-.32,1.47,1.43,1.46,2.9,3.01.73,2.41.85,6.45,1.33.72.73,1.13,1.77,1.46,2.9,3.25-.15,7.75,1.32,9.82-.35.79.07.56,1.18.7,1.92,3.26.2,6.51.39,9.77.59-.4-1.94-4.1-.52-3.03-3.93-.87.56-.97,2.09-2.55,1.72-1.77.05-.17-3.33-.53-4.72-4.1-.22-7.53-2.78-10.52-1.57-.95-.21-.58-1.74-.65-2.85-2.49-1.21-2.17.14-4.02-1.17-.97-.41-.79-2.19-1.46-2.9-.29-.31-1.26.09-1.63-.1-1.4-.75-1.35-3.37-3.08-2.99-1.71-.55-1.63,1.23-1.8,2.7-2.84,1.04-1.66-2.97-2.21-3.88-.66-1.09-3.24.45-2.28-2.95-1.82.92,1.04,4.66-1.97,5.5ZM1103.99,262c-1.92-.09-2.3-1.75-4.82-1.23-.87-.28-.44-1.88-1.51-1.96-1.71-.53-1.63,1.24-1.8,2.7-1.78.07-2.54-.92-2.27-2.94-1.85-.11-.68,2.82-.22,3.73,1.23,2.44-.49,1.43.53,4.72,2.35-.64,2.03,1.44,4.01,1.18,2.16-.15.42,3.66,3.09,2.99-.11-4.44.79-1.35,3.37-1.67.4-1.56-.53-1.8-1.51-1.96.12-2.2,1.57-2.66,1.15-5.55ZM742.4,258.94c1.08.07,2.17.13,3.25.2.04-.63.07-1.24.11-1.87-1.08-.07-2.17-.13-3.25-.2-.04.63-.07,1.24-.11,1.87ZM1179.53,282.46c1.7-3.28-2.34-.98-3.14-2.06.13.17.2-6.23-.64-2.85-.85,3.38-.91.57-4.13.69.4,2.8,4.59,1.76,4.6,4.95,1.29,0,3.08.64,3.31-.74ZM785.92,255.01c2.11.39,4.06.56,3.42-2.6-.69,1.45-3.97-.46-3.42,2.6ZM647.51,234.49c2.4.76-.9,1.95-.23,3.74,3.04-.18,5.55.19,5.53,3.14,1.19-.14.45-2.77,1.8-2.7.94.2.58,1.74.64,2.85,1.98-.27,1.66,1.8,4.02,1.17-.11-.77-.76-.98-.7-1.91,1.14.88,3.11.93,2.22,3.88,3.11-.53,3.82,1.37,6.46,1.32-.58-.86-.75-2.16-.59-3.77-2.09,1.09-3.21-2.94-4.07-.25-1.49-.23-.31-3.19-1.4-3.83-1.24-.32-4.29.41-4.82-1.23-.07-.21.24-1.8.11-1.87-4.33-2.11-9.83.13-14.59-1.82-1.11-.45-1.12-3.22-3.14-2.06-.06.93-.11,1.86-.17,2.8,2.12.5,3.52-.3,4.89.29.88.39.64,2.4,2.32,2.02,1.36.42,1.58-.63,1.74-1.77ZM1078.54,264.22c.71-.77,2.26-.42,2.55-1.72.4-2.45-1.55-2.51-3.09-3-.2-1.6.74-1.72,1.74-1.76.47-2.22-1.36-2.11-.53-4.71-1.35-.08-2.71-.16-4.07-.25-.87-.33-.45-1.83-1.51-1.96-.96-.12-.34-.79-.76-.98-2.13-1.01-5.1.66-7.38.49-.57,2.91,2.37,2.26,1.29,5.69,1.36.11,5.76,3.4,5.76-.58.91,1.11,1.31,2.75,3.95,2.11-.09,1.56-.19,3.11-.28,4.67,1.66-.22,2.53.35,2.33,2.02ZM844.31,248.22c.86-.55.97-2.09,2.55-1.72-.07-1.1-1.44-.87-2.38-1.08-.06.93-.11,1.87-.17,2.8ZM847.85,243.75c.94-.12,1.92-.19,2.5-.79.61-.62.38-2.08.98-2.74.54-.6,3.09.44,2.61-2.65,1.2.03,1.58-.41,2.5-.79.47-.2,1.92-.38,2.5-.79.45-.33.52-2.32.98-2.75.8-.74,3.57,1.25,2.61-2.66-.27.99-1.92.2-2.5.79-.59.59-.32,2.28-.98,2.76-.47.34-2.06-.59-2.44-.15-.2.23.12,1.75-.11,1.86-.68.33-1.74-.4-2.44-.15.28,4.05-3.59,2.73-3.65,6.33-1.62-.41-2.56.04-2.55,1.72ZM1450.27,275.38c.54.03,1.09.07,1.63.1.04-.62.08-1.25.11-1.86-.54-.03-1.08-.07-1.63-.1-.04.61-.07,1.24-.11,1.86ZM783.43,228.64c1.16,2.52,3.77.54,4.88.29.44-.1,1.23.32,1.63.1.25-.14-.1-1.63.11-1.87.39-.44,1.98.49,2.44.15,0-1.68,1.12-1.91,1.04-3.68-2.56-.97-2.63,1.29-3.42,2.6-3.18-.43-5.23.6-6.67,2.41ZM1077.17,246.34c.94.21,1.46-.12,1.68-.84.04-.62.07-1.24.11-1.87-2.53.54-2.29-1.74-4.82-1.22-.59,2.93,4.01.59,3.02,3.93ZM252.3,192.89c3.28,1.55,1.5-2.88,4.99-1.58.2.08,1.1,1.86.7,1.92,1.13-.16.24-1.27.93-1.82.3-.23,1.26.18,1.63.1.7-.15.62-.81.87-.88,1.23-.36,1.17.98,1.57,1.03.83.1,3.15-1.64,5.76-.58-.65-2.86,1.91-1.54,3.36-1.67.06-.96-.98-.71-1.57-1.03-.13-.07-1.14-1.01-.76-.98-.66-.04-.87,1.01-1.68.84-.41-.09-3.7-2.98-3.32.73-.79-.07-.56-1.18-.7-1.91-2.62,2.19-3.32.6-7.38.49-3.2,1.43,3.17.11,2.33,2.01-.22.89-2.23,1.14-3.31.74-.89-.33-.64-2.44-2.33-2.02.2,2.27-1.61,1.94-1.1,4.62ZM278.09,185.08c-.03.91.95.78,1.57,1.03.82.05,1.63.1,2.45.15.26-2.01-2.87-.6-4.02-1.18ZM283.78,185.42c-.03.91.96.78,1.57,1.03,1.72-.01,3.89-.58,5.75-.59.47,0,2.99-.16,3.26.2.7.91.4.33,1.63.1.78-.15,1.65.2,2.44.15.68-.05.85-.94,1.68-.83-.1-.02.25.91.76.98.53.06,1.48-.78,2.5-.78.44,0,1.21.26,1.63.1.22-.1-.09-1.69.11-1.87.44-.37,2.08.59,2.44.15.79-.97,1.56-1.45,2.61-2.65.18-2.38-4.49-.44-5.7-.34-1.59.12-2.58-.37-2.55,1.72-2.74-.09-6.74-.28-9.01.39-1.2.35-1.71.03-1.74,1.77-2.56.03-5.94-.99-7.38.49ZM951.02,225.63c-.47-.98-1.81-1.08-1.46-2.9-1.36-.43-1.58.63-1.74,1.77-.83-.47-.5-1.66-1.52-1.97-1.74-.54-4.2.11-6.51-.39-3.91-.84-12.25-2.2-18.66-2.06-1.83.4-1.05-1.86-2.33-2.02-6.09.34-12.74-1.7-19.53-1.18-.24.02-1.48-.28-1.63-.1-1.31,1.62-1.29-.69-4.07-.25-.31.05-1.42-.32-1.62-.1-.22.22.12,1.74-.11,1.87-1.23.62-5.83-2.26-5.05,2.5,1.5,1.22,1.39-1.68,1.74-1.77,1.72-.44,4.26.6,6.51.39,1.77-.16,5.35-1.68,9.01-.39.32.11.98,1,.76.98,1.46.1,1.78-.92,3.31-.73,2.36.27,7.55,2.21,12.15,1.66,2.71-.99.44,3.05,3.14,2.07,1.01-.25,2.28.54,3.26.2.87-.31.69-1.73,1.74-1.77.81.47.51,1.64,1.51,1.97,6.35,2.05,13.81-.08,21.1,2.2ZM886.1,218.91c-.37-2.83-1.8.78-3.26-.2.54,3.16,1.77.92,3.26.2ZM851.72,206.54c1.06,2.89,3.61-.55,5.7.34-.91-4.2,2.9-2.27,2.78-5.45-1.36-.43-1.58.64-1.74,1.77-2.45-.83-2.49,1.46-4.94.64-.06,1.6-.75,2.38-1.79,2.7ZM880.34,192.35c-2.54-.96-3.14.63-4.18,1.62.1,3.12,4.89,2.13,4.18-1.62ZM956.47,189.45c-.81-.08-.19-2.49-.65-2.85-.53-.42-5.61-.16-5.58-2.21.01-1.36-.95.05-1.63-.1-.58-.11-.76-.98-.75-.98-5.74-.71-12.63-1.42-20.29-2.16-1.28.42-.11.97.76.98.82.05,1.63.1,2.45.15.87.28.44,1.89,1.51,1.96,3.46,1.22,12.11.05,13.72,2.7.25.42-.08,1.18.76.98,3.86-.14,6.77.71,9.71,1.52ZM858.46,176.05c-1.59.56.79,1.51.81.05,2.3-.7,7.52,2.38,7.43-1.42,3.12.01,6.95.96,7.5-2.36,1.87.41,3.13.04,4.12-.68-1.26-2.22-6.19-.72-8.9-1.47-.62,1.87-4.12,0-3.47,3.54-.87-.28-.44-1.89-1.52-1.97-1.59-.18-1.51,1.13-2.55,1.72-.94.52-1.73.13-2.5.78.07,1.1-.28,1.65-.92,1.81ZM377.56,147.07c1.66,1,1.18-1.37,1.74-1.76,1.09-.77,3.24-.18,4.12-.68.27-.16-.12-1.65.11-1.87.5-.45,2.86-.56,3.32-.73.26-.11.18-.74.87-.89.42-.1,1.26.33,1.63.1.27-.18-.13-1.62.11-1.86.76-.78,2.48-.04,3.31-.74.27-.23-.16-1.67.11-1.87.47-.34,2.07.59,2.44.15.19-.23-.11-1.75.11-1.87.65-.31,1.83.53,2.44.15.27-.16-.11-1.61.11-1.86.37-.43,1.97.45,2.45.15.27-.17-.12-1.6.11-1.86.39-.45,1.98.5,2.44.15.51-.39.37-2.45.98-2.75,1.51-.73,3.04.38,3.42-2.6,2.76.22,4.54-.83,5.86-2.45-.25-2.41-3.57-.31-4.88-.29-1.37,0-1.58.3-1.74,1.77-1.37-.68-2.9.32-4.12.69-.54.15-2.49.28-3.32.73-.25.15.11,1.65-.11,1.87-.75.76-2.5.02-3.31.73-.54.48-.41,2.25-.98,2.75-.68.61-1.89.14-2.5.79-.27.29.18,1.62-.11,1.86-.65.54-2.43.58-2.55,1.72-.3,2.79-3.78.65-4.35,4.42-1.94-.5-1.87,1.6-4.13.69-.29,2.96-3.17,2.58-3.59,5.39ZM400.49,105.39c-.21.85.29.81.76.98,1.22.43,1.22-.81,1.69-.84,2.52-.12,7.45,1.57,9-.4.99-1.25,5.74-.64,8.25-1.38.27-.07.08-.88.87-.88,1.37,0,1.58-.3,1.74-1.77,1.53-.34,2.9.74,4.88.29.61-.13.73-.85.87-.88.99-.2,2.31.56,3.26.2.7-.27.63-1.61,1.74-1.77,1.52-.23,3.2.44,4.88.29,1.87-.17,2.79-.36,5.75-.59.24-.02,1.48.28,1.63.1,1.01-1.25.33.41,1.63.1.21-.05.14-.88.87-.89,6.2-.09,11.89,1.11,17.84,2.01-.06-1.1-1.44-.88-2.38-1.08.2-1.07-.08-1.67-.7-1.91-1.63.63-3.58-.15-7.33-.44-7.33-.59-16.78-1.97-25.23-1.52-1.81.09-1.2,1.39-2.56,1.72-.98.24-.43-.89-.75-.98-.03-.01-2.28.52-4.13.68-2.85.26-4.68.71-7.43,1.43-.28.07-1.45-.32-1.63-.1-.68.85.28,1.55-.92,1.81-1.29.29-2.75-.45-4.07-.25-1.09,2.94-3.42,4.28-6.79,4.27.2,1.61-.74,1.72-1.74,1.77ZM85.76,56.46c.71-2.48-1.58-1.9-2.27-2.95.24-2.3-.9-1.65-.82-.05,2.16-.15.42,3.66,3.09,2.99Z"/>
</svg>